<?xml version="1.0" encoding="UTF-8"?>
<svg xmlns="http://www.w3.org/2000/svg" width="32" height="32" fill="#8195aa">
  <path  d="M29.2 19.4c-.7 2.9-2.4 5.4-4.6 7.2h4.3v1.5H22v-6.8h1.5v4.2a12.1 12.1 0 0 0-11.2-21L11.9 3a13.6 13.6 0 0 1 17.3 16.4ZM4.2 13c.7-2.6 2.2-4.8 4.2-6.5v4.2H10V4H3.1v1.5h4.3A13.6 13.6 0 0 0 20.1 29l-.5-1.4A12.1 12.1 0 0 1 4.3 13Z"></path>
  <path  fill-rule="evenodd" d="M15 10c-1.4 1.7-3.7 5-3.7 7.8 0 2.6 2 4.7 4.7 4.7 2.6 0 4.7-2 4.7-4.7 0-2.8-2.3-6-3.7-7.7l-1-1.2-1 1.2Zm1 11c1.7 0 3.2-1.4 3.2-3.2 0-1.5-1-3.4-2.1-5.1L16 11.3l-1 1.4a10.3 10.3 0 0 0-2.2 5.1c0 1.8 1.5 3.2 3.2 3.2Z" clip-rule="evenodd"></path>
</svg>
