<?xml version="1.0" encoding="UTF-8"?>
<svg xmlns="http://www.w3.org/2000/svg" width="32" height="32" fill="#8195aa">
  <path d="M2.7 28.3h26.6v1.1H2.7z"></path>
  <path fill-rule="evenodd" d="M5.8 26.2c0 2.7 0 2.7.3 3 .3.2.7.2 1-.1v-5.4H5.9v2.5Z" clip-rule="evenodd"></path>
  <path d="M6.1 23c0-.8.2-1.5.5-2.1-.7-1.3-2-2.3-3.5-2.4-.3 0-.5.2-.4.4.2 2 1.6 3.6 3.4 4ZM11 18.9c0-.2-.2-.5-.4-.4-2.3.2-4 2.2-4 4.6 2.3 0 4.2-1.9 4.4-4.2Z"></path>
  <path fill-rule="evenodd" d="M15.6 10c-1 1.4-1.2 2.3-.7 3.5.2.5.8 1.3 1 1.3l.6-.5c.5-.6.7-1.2.7-1.9 0-.4 0-1-.3-1.5l-1-1.3-.3.4ZM12 15.3c0 .7.2 1.8.5 2.3.4.6 1.3 1 2.3 1.1h.5v-.1l.1-.7c0-.7 0-1.1-.4-1.6-.3-.5-.7-.9-1.5-1-.3-.2-1-.3-1.3-.3H12v.3Zm6.7-.2c-.8.1-1.6.5-1.9 1-.2.2-.5.8-.5 1.2v1.3c0 .2 0 .2.6.1 1.1 0 2-.5 2.4-1.4l.3-1.8V15H18.9ZM12 19.7c.1 1 .4 2 .9 2.4.4.4 1.1.7 2 .8h.4l.1-.3V21c-.4-1-1-1.6-2.2-1.9H12.1v.5Zm6.4-.5c-1.1.3-1.7.8-2 1.8-.2.4-.2 1.2-.1 1.5 0 .4 0 .4.6.3 1.8-.2 2.5-1 2.7-2.8V19h-.3l-.9.1Zm-3.2 7c0 2.7 0 2.7.2 3 .3.2.7.2 1-.1l.1-.2v-5.2H15.3v2.5ZM25.1 3.1c-1 1.3-1.2 2.3-.6 3.5.2.5.7 1.3.9 1.3l.7-.6c.5-.5.7-1.1.7-1.8 0-.5-.1-1-.4-1.5l-.9-1.3-.4.4Zm-3.4 4.2c0 1.7.6 2.6 1.8 3 .5.2 1.4.3 1.4.2.2-.1.3-.9.1-1.5-.3-1.4-1.2-2-3-2.2h-.4v.5Zm7-.5c-.9 0-1.8.5-2.2 1-.4.4-.6 1.1-.6 1.9 0 .5 0 .9.2.9l1.3-.3c1.2-.3 1.8-1.2 1.9-3 0-.6 0-.5-.6-.5Zm-7 4.6c0 1 .3 2 .7 2.4.4.4 1.2.8 2.1.8h.5c.2-.5.1-1.5-.1-2-.3-.8-.7-1.1-1.5-1.4-.4-.2-1-.3-1.5-.3h-.3v.5Zm6.7-.4a2.5 2.5 0 0 0-2.4 2.2c-.2.4-.1 1 0 1.3v.2h.5c1.1-.2 2-.6 2.4-1.3.2-.5.4-1.6.4-2.3V11H28.4Zm-6.7 4.3c0 .7.2 1.8.5 2.3.3.6 1.2 1 2.3 1.1h.5V18c0-.7 0-1.1-.3-1.6s-.8-.9-1.5-1c-.4-.2-1-.3-1.4-.3h-.1v.3Zm6.6-.2c-.8.1-1.5.5-1.9 1-.2.2-.4.8-.5 1.2v1.3c.1.2.1.2.6.1 1.2 0 2-.5 2.4-1.4.2-.3.4-1.2.4-1.8V15h-1Zm-6.6 4.6c0 1 .3 2 .8 2.4.4.4 1.2.7 2 .8h.5v-.3c.2-.4.1-1 0-1.5-.3-1-1-1.6-2.1-1.9h-1.3v.5Zm6.4-.5c-1.2.3-1.8.8-2 1.8-.2.4-.3 1.2-.2 1.5.1.4 0 .4.7.3 1.7-.2 2.4-1 2.7-2.8V19H29l-.8.1Zm-3.3 7c0 2.7 0 2.7.3 3 .3.2.7.2 1-.1v-5.4H24.9v2.5Z" clip-rule="evenodd"></path>
</svg>
