<?xml version="1.0" encoding="UTF-8"?>
<svg xmlns="http://www.w3.org/2000/svg" width="32" height="32" fill="#8195aa">
  <path d="M2.7 15.1a12.4 12.4 0 0 1 20.6-9.4c2.4 2.1 3.9 5 4.2 8.2l-1-.2a17 17 0 0 0-8.1.1 18.3 18.3 0 0 0-.7-1.3c-.1-.4-.3-.8-.3-1.3 0-.6.3-1 .8-1.4.6-.4 1.3-1.4 1.9-2.3l.7-1.3a10.6 10.6 0 0 0-5.7-1.7c0 .3.3.7.4 1.1.5 1.1.8 2.8.1 4.3-.6 1.4-1.7 1.7-2.5 2H13c-.9.2-1.2.3-1.4.6-.3.4-.2.8 0 1.6l.1.2.3 1c0 .5 0 1-.2 1.6-.2.5-.6 1-1.1 1.2l-1.2.4h-.1c-.6.1-1 .2-1.3.5-.2.2-.4.7-.5 1.4v.9l-.2 1v.1c1 1.2 2.4 2.1 4 2.7l-1 1.5a12.4 12.4 0 0 1-7.7-11.5Zm26.5 1.3a.9.9 0 0 0-.8-.4h-.2l-.5-.2h-.2l-1.5-.4c-1.7-.4-3.5-.5-5.2-.3-2.2.3-3.8 1-5 2a5 5 0 0 0-1.5 4.7 23.5 23.5 0 0 1 7-4 .9.9 0 0 1 .9 1.2.9.9 0 0 1-.5.5c-1.5.6-2.8 1.2-4 2a15 15 0 0 0-6.2 6.9.9.9 0 0 0 1.2.9.9.9 0 0 0 .5-.5c.7-1.3 1.5-2.6 2.6-3.6l1 1.4a5.5 5.5 0 0 0 7 1c.8-.5 1.3-1.2 1.8-2 .6-1 1-2.4 1.3-3.3l.2-.7a13.4 13.4 0 0 1 1.7-3.6l.4-.7a.9.9 0 0 0 0-.9Z"></path>
</svg>
