<?xml version="1.0" encoding="utf-8"?>
<!-- Svg Vector Icons : http://www.onlinewebfonts.com/icon -->
<!DOCTYPE svg PUBLIC "-//W3C//DTD SVG 1.1//EN" "http://www.w3.org/Graphics/SVG/1.1/DTD/svg11.dtd">
<svg version="1.1" xmlns="http://www.w3.org/2000/svg" xmlns:xlink="http://www.w3.org/1999/xlink" x="0px" y="0px" viewBox="0 0 256 256" enable-background="new 0 0 256 256" xml:space="preserve">
<metadata> Svg Vector Icons : http://www.onlinewebfonts.com/icon </metadata>
<g><g><path fill="#000000" d="M246,173.4c0.1-1.5-0.5-2.9-1.6-4l-52.4-49.4c-1.1-1-2.4-1.5-3.9-1.4c-1.4,0.1-2.8,0.8-3.7,1.9c-2.7,3.4-12.1,13.1-19.6,13.1c-2,0-3.8-0.7-5.4-2.3c-13.2-12.6-41.1-41.1-41.2-41.2c-0.4-0.4-8.7-10.3,6.7-30.3c1.5-1.9,1.4-4.6-0.1-6.4l-41.5-50c-1.6-2-4.4-2.5-6.6-1.2c-1.1,0.7-27,16.3-31.8,44.9c-3.2,19.3,3.9,39.4,21.4,59.9c0.1,0.1,0.2,0.2,0.3,0.3l66.6,66.6c0.9,1,22.7,24.8,56.4,24.8c2.9,0,5.8-0.2,8.7-0.6c1.1,5.6,1.4,18.2-12.5,32.1c-6,6-13.1,7.1-18,7c-9.1-0.3-18.9-5-25.5-12.3c-0.1-0.1-0.2-0.2-0.2-0.3l-75.2-77.2c-0.2-0.2-0.5-0.5-0.7-0.7c-8-6.4-27.5-14.4-44.6,1.7C4.6,164.3,9.9,184.7,15,193.2c0.4,0.6,0.8,1.2,1.3,1.7l30.6,30.6c3.4,3.4,8.8,3.4,12.1,0c3.4-3.4,3.4-8.8,0-12.1l-29.7-29.7c-1.5-3-5.7-13.5,3.8-22.5c9.5-9,19.2-3,21.7-1.1l74.6,76.6c9.7,10.8,23.8,17.5,37.7,17.8c0.4,0,0.9,0,1.3,0c11.3,0,21.5-4.2,29.4-12c19.7-19.7,19-38.9,17-48.3c9.9-3.6,19.6-9.1,29.2-16.8C245.2,176.3,245.9,174.9,246,173.4z"/></g></g>
</svg>