<?xml version="1.0" encoding="UTF-8"?>
<!DOCTYPE svg PUBLIC "-//W3C//DTD SVG 1.1//EN" "http://www.w3.org/Graphics/SVG/1.1/DTD/svg11.dtd">
<!-- Creator: CorelDRAW 2021 (64-Bit) -->
<svg xmlns="http://www.w3.org/2000/svg" xml:space="preserve" width="138mm" height="29mm" version="1.1" style="shape-rendering:geometricPrecision; text-rendering:geometricPrecision; image-rendering:optimizeQuality; fill-rule:evenodd; clip-rule:evenodd"
viewBox="0 0 13800 2900"
 xmlns:xlink="http://www.w3.org/1999/xlink"
 xmlns:xodm="http://www.corel.com/coreldraw/odm/2003">
 <defs>
  <style type="text/css">
   <![CDATA[
    .str3 {stroke:#336666;stroke-width:30;stroke-linecap:round;stroke-linejoin:round;stroke-miterlimit:22.9256}
    .str0 {stroke:#669999;stroke-width:30;stroke-linecap:round;stroke-linejoin:round;stroke-miterlimit:22.9256}
    .str4 {stroke:#999999;stroke-width:25;stroke-linecap:round;stroke-linejoin:round;stroke-miterlimit:22.9256}
    .str5 {stroke:black;stroke-width:20;stroke-linecap:round;stroke-linejoin:round;stroke-miterlimit:22.9256}
    .str2 {stroke:#003333;stroke-width:20;stroke-linecap:round;stroke-linejoin:round;stroke-miterlimit:22.9256}
    .str1 {stroke:#336666;stroke-width:20;stroke-linecap:round;stroke-linejoin:round;stroke-miterlimit:22.9256}
    .fil8 {fill:none}
    .fil6 {fill:none;fill-rule:nonzero}
    .fil2 {fill:#003333}
    .fil3 {fill:#106783}
    .fil9 {fill:#1B2D3B}
    .fil4 {fill:#1D2F3B}
    .fil11 {fill:#336666}
    .fil12 {fill:#336699}
    .fil7 {fill:#669999}
    .fil13 {fill:#999999}
    .fil1 {fill:#003333;fill-rule:nonzero}
    .fil0 {fill:#003333;fill-rule:nonzero}
    .fil10 {fill:#1B2D3B;fill-rule:nonzero}
    .fil5 {fill:#1D2F3B;fill-rule:nonzero}
   ]]>
  </style>
 </defs>
 <g id="Capa_x0020_1">
  <metadata id="CorelCorpID_0Corel-Layer"/>
  <g id="_1632518018288">
   <g>
    <path class="fil0" d="M11736.45 2444.58c-222.34,0 -403.31,-65.24 -543.28,-195.38 -139.98,-130.47 -209.78,-300.22 -209.78,-509.57 0,-221 70.91,-399.74 213.1,-536.2 142.19,-136.46 330.19,-205.03 564.71,-205.03 221.59,0 400.72,65.57 537.38,196.04 136.65,130.81 204.97,303.22 204.97,516.9 0,219.67 -70.91,397.07 -212.73,531.54 -141.46,134.46 -326.49,201.7 -554.37,201.7zm15.15 -1174.92c-122.63,0 -220.12,41.28 -292.15,124.48 -72.01,82.88 -108.21,192.38 -108.21,328.85 0,138.46 36.2,247.96 108.21,328.84 72.03,80.55 166.57,120.82 283.28,120.82 120.78,0 216.06,-39.28 286.97,-117.49 70.54,-78.55 106,-187.06 106,-326.18 0,-145.12 -34.35,-257.95 -102.67,-338.5 -68.7,-80.54 -162.51,-120.82 -281.43,-120.82z"/>
    <path class="fil0" d="M4083.72 2401.45l0 -1392.8 521.77 0c522.83,0 784.24,226.11 784.24,678.99 0,216.83 -71.49,389.9 -214.1,519.53 -142.63,129.63 -332.55,194.28 -570.14,194.28l-521.77 0zm331.85 -1137.51l0 882.89 164.34 0c143.67,0 256.16,-40.78 338.16,-122.34 81.64,-81.56 122.64,-192.63 122.64,-333.2 0,-132.61 -40.64,-237.05 -121.59,-312.97 -81.3,-76.26 -194.84,-114.38 -341.31,-114.38l-162.24 0z"/>
    <path class="fil1" d="M9141.7 2301.82c-142.6,77.88 -319.99,116.81 -532.16,116.81 -234.78,0 -420.17,-61.7 -555.81,-185.11 -135.3,-123.41 -203.13,-293.34 -203.13,-509.8 0,-217.77 74.08,-395.3 222.26,-532.57 147.82,-137.59 345.04,-206.23 590.95,-206.23 154.78,0 253.39,44.27 371.3,84.85l-95.91 256.88c-120.1,-36.75 -149.76,-63.73 -312.89,-63.73 -136.69,0 -214.24,25.35 -300.23,109.39 -86.17,84.22 -129.04,196.33 -129.04,336.89 0,142.22 71.76,235.94 148.8,313.97 77.03,78.03 147.89,97.76 279.01,97.76 78.95,0 143.94,-1.04 189.85,-22.15l-2.38 -180.45 -241.5 -2.75 -3.05 -294.32 573.93 4.76 0 675.8z"/>
    <polygon class="fil0" points="10655.17,2389.23 9601.01,2389.23 9601.01,1045.34 10614.59,1045.34 10614.59,1291.66 9997.15,1291.66 9997.15,1590.77 10571.92,1590.77 10571.92,1836.13 9997.15,1836.13 9997.15,2143.55 10655.17,2143.55 "/>
    <polygon class="fil2" points="6373.98,1855.97 6560.61,1649.12 6133.54,1037.81 5689.72,1037.81 "/>
    <polygon class="fil2" points="6488.94,1396.27 6677.46,1617.17 7129.13,1042.18 6735.55,1043.55 "/>
    <polygon class="fil2" points="6442.11,1936.23 6799.87,2428.33 7219.69,2417.6 6654.77,1708.8 "/>
    <polygon class="fil2" points="6366.95,1962.81 6162.31,1736.45 5609.63,2413.14 6027.83,2425.95 "/>
   </g>
   <ellipse class="fil3" cx="2386.6" cy="1803.25" rx="995.78" ry="992.12"/>
   <g>
    <polygon class="fil4 str0" points="1031.59,759.93 1614.39,594.99 1267.33,397.45 690.74,543.75 "/>
    <polygon class="fil4 str0" points="1378.09,979.44 1925.08,779.31 1612.13,594.18 1027.95,759.12 "/>
    <polygon class="fil4 str0" points="1703.37,1203.09 2289.22,1000.9 1930.7,782.63 1383.8,986.92 "/>
    <polygon class="fil4 str0" points="2652.27,911.83 3272.36,740.67 2865.23,518.27 2475.09,627.28 "/>
    <polygon class="fil4 str0" points="3270.76,741.55 3696.11,622.18 3282.75,401.85 2869.83,521.22 "/>
    <polygon class="fil4 str0" points="2558.09,1340.27 3099.45,1158.75 2671.59,899.06 2134.37,1074.36 "/>
    <path class="fil5 str0" d="M1768.02 605c-123.62,-85.06 -221.79,-197.8 -345.42,-282.87 -164.82,-113.38 6,-342.92 170.82,-229.54 123.64,85.05 271.49,129.69 395.11,214.74 -73.5,99.23 -147,198.45 -220.51,297.67z"/>
    <g>
     <path class="fil5" d="M2282.69 1038.5c-143.37,-96.76 -286.73,-193.51 -430.1,-290.26 -92.76,-62.6 -104.39,-207.64 -25.97,-323.85 78.43,-116.2 217.28,-159.68 310.04,-97.08 143.37,96.75 286.73,193.51 430.1,290.26l-284.07 420.93zm0 0c-92.76,-62.6 -104.39,-207.64 -25.97,-323.84 78.43,-116.21 217.28,-159.69 310.04,-97.09 92.76,62.6 104.39,207.64 25.96,323.84 -78.42,116.21 -217.27,159.69 -310.03,97.09z"/>
     <path id="_1" class="fil6 str0" d="M2282.69 1038.5c-143.37,-96.76 -286.73,-193.51 -430.1,-290.26 -92.76,-62.6 -104.39,-207.64 -25.97,-323.85 78.43,-116.2 217.28,-159.68 310.04,-97.08 143.37,96.75 286.73,193.51 430.1,290.26m-284.07 420.93c-92.76,-62.6 -104.39,-207.64 -25.97,-323.84 78.43,-116.21 217.28,-159.69 310.04,-97.09 92.76,62.6 104.39,207.64 25.96,323.84 -78.42,116.21 -217.27,159.69 -310.03,97.09z"/>
    </g>
    <ellipse class="fil7 str0" transform="matrix(1 -0 -0.219576 0.872543 2432.17 835.83)" rx="100.87" ry="160.76"/>
    <path class="fil8 str0" d="M1896.51 762.01c-42.51,-72.45 -28.59,-180.79 34.63,-269.45 66.18,-92.82 170.55,-142.02 255.41,-120.42"/>
   </g>
   <g id="_1632517952192">
    <path class="fil9 str1" d="M897.94 2146.3c-23.09,12.34 -43.79,52.94 -59.71,96.74 -15.93,43.79 -27.07,90.76 -35.03,149.68 -7.97,58.92 -12.75,129.78 -15.53,175.56 -2.79,45.78 -3.59,66.49 -1.59,80.42 1.99,13.93 6.76,21.1 18.31,25.48 11.54,4.37 29.86,5.97 38.62,1.99 8.75,-3.98 7.96,-13.54 7.96,-29.06 0,-15.53 0.79,-37.03 -2.79,-49.37 -3.58,-12.34 -11.55,-15.53 -15.53,-40.61 -3.98,-25.08 -3.98,-72.05 0.8,-118.23 4.77,-46.18 14.33,-91.57 27.07,-127 12.73,-35.43 28.66,-60.9 45.38,-82.4 16.72,-21.5 34.23,-39.01 45.38,-48.96 11.15,-9.96 15.93,-12.35 5.58,-21.5 -10.35,-9.16 -35.83,-25.09 -58.92,-12.74z"/>
    <rect class="fil9 str2" transform="matrix(0.999988 -0.00499696 0.00499696 0.999988 846.56 2605.05)" width="538.32" height="29.5"/>
    <g>
     <polygon class="fil10 str2" points="484.47,1769.7 798.44,1815.44 413.78,1815.44 "/>
     <polygon class="fil10 str2" points="340.61,1859.09 26.64,1813.35 411.3,1813.35 "/>
     <polygon class="fil10 str2" points="1817.79,1767.89 1503.82,1813.63 1888.48,1813.63 "/>
     <polygon class="fil10 str2" points="1961.65,1857.28 2275.62,1811.54 1890.96,1811.54 "/>
    </g>
    <polygon class="fil9 str1" points="1065.86,2367.47 1224.85,2367.47 1274.49,2246.46 982.87,2246.46 982.87,2310.24 1031.26,2310.24 1031.48,2285.86 1066.59,2286.31 "/>
    <path class="fil9 str1" d="M869.3 2176.49c-11.59,18.17 -22.09,41.85 -31.07,66.55 -15.93,43.79 -27.07,90.76 -35.03,149.68 -7.97,58.92 -12.75,129.78 -15.53,175.56 -2.79,45.78 -3.59,66.49 -1.59,80.42 1.99,13.93 6.76,21.1 18.31,25.48 11.54,4.37 29.86,5.97 38.62,1.99 8.75,-3.98 7.96,-13.54 7.96,-29.06 0,-15.53 0.79,-37.03 -2.79,-49.37 -3.58,-12.34 -11.55,-15.53 -15.53,-40.61 -3.98,-25.08 -3.98,-72.05 0.8,-118.23 4.77,-46.18 14.33,-91.57 27.07,-127 12.73,-35.43 28.66,-60.9 45.38,-82.4 16.72,-21.5 34.23,-39.01 45.38,-48.96l1.11 -0.98c6.53,-4.34 13.34,-8.34 20.04,-11.55 1.52,-0.73 3.04,-1.41 4.56,-2.07 -17.56,-12.08 -33.03,-25.22 -50.14,-36.72 -6.56,-4.41 -13.37,-8.57 -20.41,-12.52 -12.39,15.96 -22.53,30.47 -28.89,40.8 -5.09,8.26 -7.77,13.85 -8.25,18.99z"/>
    <path class="fil9 str1" d="M1362.73 2177.19c11.59,18.17 22.09,41.85 31.07,66.55 15.93,43.79 27.07,90.76 35.03,149.68 7.97,58.92 12.75,129.78 15.53,175.56 2.79,45.78 3.59,66.49 1.59,80.42 -1.99,13.93 -6.76,21.1 -18.31,25.48 -11.54,4.37 -29.86,5.97 -38.62,1.99 -8.75,-3.98 -7.96,-13.54 -7.96,-29.06 0,-15.53 -0.79,-37.03 2.79,-49.37 3.58,-12.34 11.55,-15.53 15.53,-40.61 3.98,-25.08 3.98,-72.05 -0.8,-118.23 -4.77,-46.18 -14.33,-91.57 -27.07,-127 -12.73,-35.43 -28.66,-60.9 -45.38,-82.4 -16.72,-21.5 -34.23,-39.01 -45.38,-48.96l-1.11 -0.98c-6.53,-4.34 -13.34,-8.34 -20.04,-11.55 -1.52,-0.73 -3.04,-1.41 -4.56,-2.07 17.56,-12.08 33.03,-25.22 50.14,-36.72 6.56,-4.41 13.37,-8.57 20.41,-12.52 12.39,15.96 22.53,30.47 28.89,40.8 5.09,8.26 7.77,13.85 8.25,18.99z"/>
    <path class="fil9 str3" d="M1844.31 2081.6l0 -33.82c-34.81,0.19 -72.55,0.58 -108.29,1.41 -68.44,1.58 -129.51,4.74 -181.1,8.95 -51.6,4.21 -93.71,9.48 -136.88,22.12 -43.17,12.63 -87.4,32.63 -121.09,51.59 -33.69,18.95 -56.86,36.85 -70.54,50.54 -13.69,13.69 -17.91,23.16 -52.13,26.32 -34.22,3.16 -98.44,0 -143.71,-15.27 -45.28,-15.27 -71.61,-42.64 -103.72,-64.22 -32.12,-21.59 -70.02,-37.39 -112.66,-48.97 -42.65,-11.58 -90.04,-18.95 -137.94,-22.63 -47.91,-3.69 -96.35,-3.69 -147.41,-3.69 -22.5,0 -45.5,0 -67.22,-0.09l0 34c-33.27,0 -66.54,0 -99.81,0l0 -36.12c-17.87,-1.01 -28.58,-2.16 -36.71,-2.53 -11.59,-0.53 -17.9,0.53 -22.11,-12.63 -4.22,-13.17 -6.32,-40.54 -2.63,-60.02 3.5,-18.51 12.22,-29.9 61.45,-38.21l0 -87.53c0,-105.34 99.81,-105.34 99.81,0l0 76.44c49.06,-4.47 105.09,-9.44 156.19,-17.04 88.45,-13.16 162.15,-34.22 216.91,-53.7 54.75,-19.48 90.54,-37.38 130.55,-47.38 40.01,-10 84.24,-12.11 128.46,-13.16 44.22,-1.05 88.45,-1.05 125.83,2.64 37.38,3.68 67.91,11.05 113.19,27.37 45.28,16.32 105.29,41.59 169.52,60.02 64.23,18.42 132.67,30.01 192.16,37.91 55.46,7.36 103.15,11.51 149.88,13.32l0 -92.66c0,-105.34 99.81,-105.34 99.81,0l0 94.19c15.02,0.13 28.28,0.35 38.82,0.93 28.95,1.58 37.38,5.8 41.59,19.49 4.21,13.68 4.21,36.85 2.63,53.17 -1.58,16.32 -4.74,25.79 -16.85,30.53 -10.74,4.2 -28.53,4.68 -66.19,4.73l0 34c-33.27,0 -66.54,0 -99.81,0z"/>
   </g>
   <path class="fil11 str2" d="M12677.9 499.45c11.72,0 23.39,0.26 35.02,0.63l-12.25 270.86c-8.78,-0.27 -17.58,-0.46 -26.43,-0.46 -195.25,0 -374.95,66.45 -517.81,177.94l-288.63 -79.64c196.74,-226.27 486.71,-369.33 810.1,-369.33zm78.38 2.87c258.89,18.69 492.3,129.22 667.86,299.17l-195.67 177.04c-131.73,-115.2 -299.64,-190 -484.45,-205.15l12.26 -271.06zm697.43 328.85c148.13,154.95 250.28,354.19 284.6,575.86l-235.06 55.6c-31.94,-177.41 -119.46,-335.5 -243.84,-455.66l194.3 -175.8zm289.51 611.86c5.11,42.47 7.8,85.69 7.8,129.54 0,154.65 -32.77,301.63 -91.66,434.45l-159.93 -224.04c11.27,-54.95 17.19,-111.84 17.19,-170.12 0,-38.8 -2.67,-76.98 -7.76,-114.39l234.36 -55.44z"/>
   <circle class="fil12" cx="13041.78" cy="2288.72" r="568.49"/>
   <g id="_1632518016272">
    <path class="fil8 str4" d="M13000.74 1749.22c-8.17,27.87 26.9,121.58 40.87,146.94 14.63,26.59 57.49,164.05 85.17,164.05 83.82,0 84.11,52.05 108.45,52.05 34.95,0 63.7,-27.28 85.41,33 1.44,3.98 21.45,36.93 21.22,39.61 85.25,0 53.22,12.01 95,34.02 7.62,4.01 73.58,-4.78 83.45,4.11 0.6,0.53 51.6,1.75 59.58,6.38 2.4,1.39 2.7,0.7 5.83,0.7"/>
    <path class="fil8 str4" d="M13056.25 2232.19c9.14,-10.07 97.07,-10.82 101.16,3.58 0.3,1.06 75.87,80 98.98,63.14 67.8,-49.46 41.99,-62.08 65.43,-123.9 0.56,-1.48 1.41,-1.5 2.48,-3.58"/>
    <path class="fil8 str4" d="M13174.19 2270.32c-0.07,1.92 -104.91,56.34 -117.23,63.55 -58.02,33.97 -35.44,50.22 -37.65,115.05 -1.25,36.82 20.29,43.91 -13.51,90.44 -34.58,47.6 -20.71,49.2 -77.91,90.75 -30.32,22.02 -38.48,32.27 -63.35,58.47l-2.49 1.09"/>
    <path class="fil8 str4" d="M12496.4 2345.86c25.9,-21.44 80.72,2.38 111.11,0 20.85,-1.64 94.7,23.7 105.04,44.07 4,7.89 62.65,10.2 59.27,116.13 -0.85,26.78 98.49,-74.86 86.33,116.47 -0.02,0.35 4.11,72.79 4.11,86.68 0,29.82 1.37,57.95 1.37,87.47"/>
    <path class="fil8 str4" d="M12545.09 2077.32c-9.27,50.02 59.29,125.97 91.29,163.93 27.42,32.53 17.77,21.11 38.93,57.59 16.04,27.63 15.37,56.37 20.05,67.62"/>
    <path class="fil8 str4" d="M12975.18 2305.32c-23.92,0 -3.64,-32.13 -84.99,-32.13 -31.85,0 -51.08,0.48 -82.13,-4.32 -43.06,-6.65 -102.57,-8.46 -141.13,-26.5 -5.41,-2.54 -46.21,-15.53 -47.22,-19.96"/>
   </g>
   <g id="_1632518018480">
    <g>
     <path class="fil8 str5" d="M12189.66 966.44c27.81,-25.72 55.61,-51.45 88.98,-70.91 33.37,-19.47 72.31,-32.67 113.32,-44.49 41.02,-11.82 84.12,-22.25 131.39,-28.5 47.28,-6.26 98.72,-8.35 151.55,-7.3 52.84,1.04 107.07,5.21 163.72,23.63 56.66,18.42 115.76,51.1 172.41,91.42 56.66,40.32 110.89,88.29 141.13,117.14 30.24,28.85 36.49,38.59 44.83,41.37 8.35,2.78 18.78,-1.39 36.85,14.6 18.08,15.99 43.81,52.14 65.7,103.59 21.9,51.44 39.98,118.18 49.01,184.23 9.04,66.04 9.04,131.38 5.56,185.61 -3.47,54.22 -10.43,97.33 -14.95,118.53 -4.51,21.2 -6.6,20.51 -8.68,19.81"/>
     <path class="fil8 str5" d="M12210.51 958.1c67.44,39.63 134.87,79.25 172.76,103.59 37.89,24.33 46.23,33.36 72.64,60.82 26.42,27.46 70.92,73.35 98.72,113.33 27.81,39.97 38.94,74.03 44.15,117.48 5.22,43.45 4.52,96.29 4.52,156.08 0,59.78 0.7,126.52 2.43,163.37 1.74,36.84 4.52,43.8 7.3,50.75"/>
     <path class="fil8 str5" d="M12654.75 1727.69c13.9,-1.39 27.81,-2.78 42.4,-11.82 14.6,-9.04 29.9,-25.72 45.88,-49.36 15.99,-23.64 32.68,-54.22 54.57,-82.72 21.9,-28.51 49.02,-54.93 83.78,-76.48 34.76,-21.55 77.16,-38.24 116.79,-47.97 39.63,-9.73 76.47,-12.51 94.89,-13.55 18.43,-1.05 18.43,-0.35 18.43,0.34"/>
     <path class="fil8 str5" d="M12930.04 1585.87c25.72,4.17 51.45,8.34 74.04,6.26 22.6,-2.09 42.06,-10.44 62.57,-21.56 20.51,-11.12 42.06,-25.03 57.7,-37.54 15.64,-12.51 25.38,-23.64 39.63,-31.63 14.25,-8 33.02,-12.86 51.09,-12.51 18.08,0.34 35.46,5.91 51.1,14.6 15.64,8.69 29.55,20.5 42.41,29.54 12.86,9.04 24.68,15.29 44.84,16.68 20.16,1.39 48.67,-2.08 66.05,-5.21 17.38,-3.13 23.63,-5.91 25.37,-7.3 1.74,-1.39 -1.05,-1.39 -3.83,-1.39"/>
     <path class="fil8 str5" d="M12613.03 1298.05c23.64,-22.94 47.27,-45.88 75.77,-63.95 28.51,-18.08 61.88,-31.29 92.47,-43.11 30.59,-11.82 58.4,-22.24 90.03,-28.15 31.63,-5.91 67.09,-7.3 98.02,-9.04 30.94,-1.74 57.35,-3.82 76.12,-4.17 18.77,-0.35 29.9,1.04 37.2,-5.91 7.3,-6.95 10.77,-22.25 20.5,-31.98 9.74,-9.73 25.73,-13.91 41.02,-16.34 15.3,-2.43 29.9,-3.13 44.5,-3.82"/>
     <path class="fil8 str5" d="M12694.37 824.62c-26.42,34.76 -52.83,69.52 -85.16,105.33 -32.33,35.8 -70.56,72.64 -102.2,99.41 -31.63,26.76 -56.65,43.45 -73.69,52.84 -17.03,9.38 -26.06,11.46 8.35,15.98 34.41,4.52 112.27,11.48 184.92,16.35 72.65,4.86 140.08,7.64 199.87,11.81 59.79,4.17 111.93,9.73 142.52,14.25 30.59,4.52 39.62,7.99 48.66,11.47"/>
     <path class="fil8 str5" d="M12772.81 1620.37c15.77,3.15 31.55,6.31 42.85,14.72 11.3,8.41 18.14,22.08 24.18,32.07 6.05,9.99 11.3,16.3 19.71,20.25 8.42,3.94 19.98,5.51 24.45,5.51 4.47,0 1.84,-1.57 -0.79,-3.15"/>
    </g>
    <path class="fil8 str5" d="M12886.36 1688.13c9.08,-1.21 18.15,-2.43 26.01,-9.99 7.87,-7.57 14.53,-21.48 19.97,-29.95 5.45,-8.47 9.68,-11.5 16.03,-14.52 6.36,-3.03 14.84,-6.05 19.07,-7.56 4.24,-1.52 4.24,-1.52 4.24,-1.52"/>
   </g>
   <path class="fil13" d="M12485.11 1107.33c52.12,3.17 161.46,12.26 243.28,18.47 81.84,6.2 136.16,9.53 176.56,12.26 40.41,2.72 66.89,4.85 84.03,6.67 17.16,1.81 24.97,3.32 20.38,4.23 -4.58,0.91 -21.56,1.21 -41.77,2.27 -20.2,1.06 -43.62,2.88 -69.6,6.36 -25.98,3.47 -54.49,8.63 -80.13,15.9 -25.63,7.26 -48.38,16.65 -69.61,26.49 -21.21,9.85 -40.91,20.14 -55.85,28.92 -14.93,8.78 -25.12,16.05 -34.46,22.41 -9.33,6.36 -17.83,11.81 -24.29,16.66 -6.44,4.84 -10.85,9.08 -14.59,12.41 -3.72,3.33 -6.79,5.75 -9.67,7.72 -2.89,1.97 -5.6,3.49 -7.99,1.82 -2.37,-1.67 -4.4,-6.51 -6.44,-11.51 -2.05,-4.99 -4.08,-10.15 -13.58,-24.23 -9.51,-14.08 -26.49,-37.09 -41.26,-55.56 -14.76,-18.48 -27.33,-32.4 -39.05,-43.45 -11.7,-11.06 -22.58,-19.24 -31.24,-24.99 -8.65,-5.75 -15.1,-9.08 -19.18,-12.11 -4.08,-3.03 -5.77,-5.75 -9.17,-8.47 -3.39,-2.73 -8.49,-5.46 43.63,-2.27z"/>
   <path class="fil13" d="M13187.85 1097.84c-22.29,0.44 -47.24,10.24 -64.18,22.72 -16.94,12.48 -25.84,27.63 -22.28,73.99 3.57,46.34 19.61,123.88 29.86,171.58 10.25,47.69 14.71,65.51 22.29,80.66 7.58,15.16 18.26,27.63 32.97,30.75 14.71,3.12 33.43,-3.12 54.38,2.23 20.95,5.35 44.12,22.28 64.17,34.31 20.06,12.04 36.99,19.17 43.23,-8.46 6.24,-27.64 1.79,-90.03 -8.02,-147.97 -9.81,-57.94 -24.95,-111.41 -41,-151.07 -16.05,-39.67 -32.98,-65.52 -51.25,-82.9 -18.28,-17.38 -37.88,-26.29 -60.17,-25.84z"/>
  </g>
 </g>
</svg>
