<svg width="1281" height="80" viewBox="0 0 1281 80" fill="none" xmlns="http://www.w3.org/2000/svg">
<path d="M792.671 2.11856L782.881 0.537598H498.119L488.329 2.11856H457.947L444.438 3.92518H444.111L428.773 5.97925H428.381L410.367 8.38817L409.911 8.45262L388.47 11.324L387.915 11.3992L361.809 14.8837L361.157 14.9697L329.078 19.2713L328.262 19.3896L287.632 24.8313L286.555 24.9711L233.428 32.0903L231.993 32.2838L159.545 41.9625L157.555 42.2314L49.8643 56.6527H148.385L7.17932 79.3547H1274.02L1132.81 56.6527H1231.04L1123.35 42.2314L1121.36 41.9625L1048.88 32.2838L1047.47 32.0903L994.346 24.9711L993.269 24.8313L952.641 19.3896L951.825 19.2713L919.746 14.9697L919.061 14.8837L893.117 11.3992L892.562 11.324L871.122 8.45262L870.665 8.38817L852.651 5.97925H852.259L836.922 3.92518H836.596L823.085 2.11856H792.671ZM754.62 0.569892H782.424L791.986 2.11856H762.321L754.62 0.569892ZM803.212 3.92518H771.329L762.517 2.15072H792.214L803.212 3.92518ZM816.265 6.076H781.804L771.556 4.02193H803.473L816.265 6.076ZM831.537 8.53874H794.139L782.097 6.12983H816.59L831.537 8.53874ZM849.715 11.4746H808.758L794.433 8.6032H831.929L849.715 11.4746ZM871.709 15.0341H826.446L809.119 11.5498H850.008L871.709 15.0341ZM898.893 19.4112H848.279L826.871 15.1095H872.263L898.893 19.4112ZM933.289 24.9711H875.952L848.833 19.5294H899.578L933.289 24.9711ZM978.257 32.2301H912.012L876.572 25.1108H934.071L978.257 32.2301ZM1039.58 42.1239H961.419L913.055 32.4452H979.433L1039.58 42.1239ZM1128.08 56.4162H1032.56L962.724 42.4358H1041.24L1128.08 56.4162ZM239.89 42.4358H318.211L248.375 56.4162H152.888L239.89 42.4358ZM301.666 32.4667H368.074L319.712 42.1454H241.553L301.666 32.4667ZM346.961 25.1538H404.462L369.02 32.2731H302.872L346.961 25.1538ZM381.553 19.5725H432.298L405.179 25.014H347.777L381.553 19.5725ZM408.866 15.1632H454.26L432.852 19.4648H382.238L408.866 15.1632ZM430.959 11.5929H472.012L454.684 15.0772H409.454L430.959 11.5929ZM449.202 8.64626H486.698L472.371 11.5177H431.416L449.202 8.64626ZM464.539 6.17275H499L486.991 8.58167H449.593L464.539 6.17275ZM477.593 4.02193H509.509L499.262 6.076H464.931L477.593 4.02193ZM488.818 2.20454H518.549L509.737 3.979H477.854L488.818 2.20454ZM770.643 3.979H738.792L732.265 2.20454H761.962L770.643 3.979ZM781.053 6.12983H746.559L738.891 4.07575H770.806L781.053 6.12983ZM793.258 8.59243H755.859L746.82 6.18352H781.315L793.258 8.59243ZM807.78 11.5284H766.824L756.089 8.65702H793.552L807.78 11.5284ZM825.37 15.088H780.107L767.053 11.6036H808.107L825.37 15.088ZM847.103 19.4648H796.489L780.434 15.1632H825.826L847.103 19.4648ZM874.614 25.0248H817.374L797.01 19.5833H847.756L874.614 25.0248ZM910.511 32.2838H844.362L817.733 25.1646H875.267L910.511 32.2838ZM959.461 42.1777H881.14L844.851 32.499H911.228L959.461 42.1777ZM369.478 32.499H435.854L399.567 42.1777H321.343L369.478 32.499ZM405.668 25.1861H463.202L436.573 32.3053H370.424L405.668 25.1861ZM433.341 19.6047H484.087L463.723 25.0463H406.387L433.341 19.6047ZM455.173 15.1955H500.567L484.511 19.4971H433.897L455.173 15.1955ZM472.828 11.6252H513.882L500.828 15.1095H455.533L472.828 11.6252ZM487.416 8.67855H524.911L514.175 11.5498H473.187L487.416 8.67855ZM499.686 6.20505H534.18L525.141 8.61396H487.775L499.686 6.20505ZM510.129 4.05422H542.044L534.375 6.1083H499.947L510.129 4.05422ZM745.711 6.1083H711.283L706.159 4.05422H738.075L745.711 6.1083ZM754.848 8.57104H717.418L711.412 6.16199H745.907L754.848 8.57104ZM765.748 11.5069H724.76L717.58 8.63549H755.077L765.748 11.5069ZM778.802 15.0664H733.539L724.858 11.5821H765.911L778.802 15.0664ZM795.119 19.4434H744.503L733.8 15.1418H779.192L795.119 19.4434ZM815.742 25.0033H758.634L745.026 19.5617H795.77L815.742 25.0033ZM842.665 32.2623H776.517L758.764 25.1431H816.265L842.665 32.2623ZM464.474 25.1431H521.975L504.222 32.2623H438.171L464.474 25.1431ZM485.196 19.5617H535.941L522.333 25.0033H464.996L485.196 19.5617ZM501.513 15.1526H546.907L536.171 19.4542H485.588L501.513 15.1526ZM514.763 11.5821H555.816L547.135 15.0664H501.84L514.763 11.5821ZM525.695 8.63549H563.19L556.012 11.5069H515.187L525.695 8.63549ZM534.866 6.16199H569.359L563.321 8.57104H525.923L534.866 6.16199ZM716.471 8.57104H679.04L676.006 6.16199H710.499L716.471 8.57104ZM723.715 11.5069H682.729L679.139 8.63549H716.602L723.715 11.5069ZM732.495 15.0664H687.198L682.826 11.5821H723.879L732.495 15.0664ZM743.295 19.4434H692.713L687.297 15.1418H732.689L743.295 19.4434ZM757.034 25.0033H699.893L693.073 19.5617H743.818L757.034 25.0033ZM537.084 19.5617H587.83L580.976 25.0033H523.672L537.084 19.5617ZM547.951 15.1526H593.345L587.961 19.4542H537.345L547.951 15.1526ZM556.763 11.5821H597.848L593.475 15.0664H548.179L556.763 11.5821ZM564.04 8.63549H601.535L597.945 11.5069H556.959L564.04 8.63549ZM681.782 11.5069H641.153V8.63549H678.649L681.782 11.5069ZM686.155 15.0664H641.153V11.5821H682.206L686.155 15.0664ZM691.539 19.4434H641.153V15.1418H686.547L691.539 19.4434ZM594.422 15.1418H639.814V19.4434H589.2L594.422 15.1418ZM598.794 11.5713H639.848V15.0557H594.553L598.794 11.5713ZM639.848 11.4961H599.056L602.58 8.62473H640.076L639.848 11.4961ZM589.004 19.551H639.749V24.9925H582.412L589.004 19.551ZM640.925 19.551H691.669L698.359 24.9925H641.153L640.925 19.551ZM678.192 8.56027H640.761V6.15136H675.255L678.192 8.56027ZM639.913 8.56027H602.646L605.614 6.15136H640.109L639.913 8.56027ZM601.6 8.56027H564.202L570.175 6.15136H604.636L601.6 8.56027ZM523.28 25.1323H580.812L571.872 32.2515H505.723L523.28 25.1323ZM582.02 25.1323H639.521V32.2515H573.373L582.02 25.1323ZM640.761 25.1323H698.293L707.04 32.2515H641.153L640.761 25.1323ZM699.501 25.1323H757.034L774.592 32.2515H708.444L699.501 25.1323ZM710.01 6.09753H675.614L673.002 4.04346H704.951L710.01 6.09753ZM674.798 6.09753H640.369V4.04346H672.317L674.798 6.09753ZM639.586 6.09753H605.159L607.671 4.04346H639.618L639.586 6.09753ZM604.343 6.09753H569.913L575.004 4.04346H606.919L604.343 6.09753ZM569.131 6.09753H534.701L542.339 4.04346H574.254L569.131 6.09753ZM436.965 32.4452H503.341L479.094 42.1239H400.937L436.965 32.4452ZM504.875 32.4452H571.284L559.079 42.1239H480.921L504.875 32.4452ZM572.818 32.4452H639.194V42.1239H560.874L572.818 32.4452ZM640.761 32.4452H707.139L719.049 42.1239H640.891L640.761 32.4452ZM708.671 32.4452H775.081L799.034 42.1239H720.877L708.671 32.4452ZM776.614 32.4452H843.481L879.378 42.1239H801.384L776.614 32.4452ZM737.454 4.00053H705.572L701.166 2.22607H730.863L737.454 4.00053ZM704.82 4.00053H672.97L670.751 2.22607H700.448L704.82 4.00053ZM672.186 4.00053H640.305V2.22607H670.523L672.186 4.00053ZM639.553 4.00053H607.671L609.824 2.22607H639.553V4.00053ZM606.919 4.00053H575.038L579.41 2.22607H609.139L606.919 4.00053ZM574.286 4.00053H542.404L548.931 2.22607H578.66L574.286 4.00053ZM541.652 4.00053H509.77L518.549 2.22607H548.278L541.652 4.00053ZM319.516 42.4143H398.032L345.591 56.3946H250.072L319.516 42.4143ZM399.86 42.4143H478.343L443.327 56.3946H348.428L399.86 42.4143ZM480.171 42.4143H558.656L541.032 56.3946H445.547L480.171 42.4143ZM560.482 42.4143H638.966L638.77 56.3946H543.252L560.482 42.4143ZM640.794 42.4143H719.277L736.475 56.3946H640.99L640.794 42.4143ZM721.105 42.4143H799.588L834.214 56.3946H738.727L721.105 42.4143ZM801.416 42.4143H879.901L931.95 56.3946H836.954L801.416 42.4143ZM881.728 42.4143H960.962L1030.41 56.3946H934.855L881.728 42.4143ZM725.543 0.645113H753.347L761.016 2.19378H731.319L725.543 0.645113ZM697.087 0.645113H724.891L730.634 2.19378H700.97L697.087 0.645113ZM668.663 0.645113H696.467L700.252 2.19378H670.588L668.663 0.645113ZM640.206 0.645113H668.01L669.903 2.19378H640.206V0.645113ZM611.751 0.645113H639.553V2.19378H609.889L611.751 0.645113ZM583.293 0.645113H611.782L609.858 2.19378H580.161L583.293 0.645113ZM554.836 0.645113H582.64L578.79 2.19378H549.779L554.836 0.645113ZM526.38 0.645113H554.216L548.44 2.19378H518.745L526.38 0.645113ZM497.957 0.645113H525.761L518.058 2.19378H488.395L497.957 0.645113ZM457.719 2.22607H487.448L476.418 4.00053H445.351L457.719 2.22607ZM444.242 4.04346H476.157L463.365 6.09753H428.937L444.242 4.04346ZM428.545 6.19428H463.038L448.026 8.6032H410.596L428.545 6.19428ZM410.173 8.66779H447.636L429.753 11.5391H388.797L410.173 8.66779ZM388.242 11.6144H429.327L407.66 15.0987H362.397L388.242 11.6144ZM361.711 15.1847H407.104L380.377 19.4864H329.763L361.711 15.1847ZM329.078 19.594H379.822L345.949 25.0355H288.612L329.078 19.594ZM287.535 25.1754H345.068L300.751 32.2946H234.603L287.535 25.1754ZM233.201 32.4882H299.577L239.171 42.1669H161.438L233.201 32.4882ZM54.7594 56.4806L159.023 42.5002H237.508L150.278 56.4806H54.7594ZM136.343 78.9137H13.6407L150.114 56.8785H246.123L136.343 78.9137ZM261.949 78.9137H139.215L248.341 56.8785H344.317L261.949 78.9137ZM387.523 78.9137H264.789L346.569 56.8785H442.545L387.523 78.9137ZM513.098 78.9137H390.363L444.796 56.8785H540.772L513.098 78.9137ZM638.673 78.9137H515.937L542.99 56.8785H638.998L638.673 78.9137ZM764.247 78.9137H641.545L641.218 56.8785H737.194L764.247 78.9137ZM889.853 78.9137H767.119L739.445 56.8785H835.42L889.853 78.9137ZM1015.43 78.9137H893.085L838.063 56.8785H934.039L1015.43 78.9137ZM1141 78.9137H1018.27L935.867 56.8785H1031.87L1141 78.9137ZM1266.58 78.9137H1143.84L1034.09 56.8785H1130.66L1266.58 78.9137ZM1225.36 56.4806H1129.84L1042.58 42.5002H1121.09L1225.36 56.4806ZM1119.5 42.1131H1041.34L980.934 32.4344H1047.31L1119.5 42.1131ZM1045.91 32.2194H979.726L935.443 25.1001H992.976L1045.91 32.2194ZM991.899 24.9603H934.562L900.687 19.5187H951.433L991.899 24.9603ZM950.584 19.4004H900.002L873.275 15.0987H918.538L950.584 19.4004ZM917.95 15.0235H872.851L851.216 11.5391H892.301L917.95 15.0235ZM891.55 11.4638H850.562L832.713 8.59243H870.176L891.55 11.4638ZM869.719 8.52798H832.321L817.309 6.11906H851.77L869.719 8.52798ZM851.412 6.06524H816.982L804.19 4.01116H836.107L851.412 6.06524ZM803.897 3.91441L792.899 2.13995H822.596L835.649 3.91441H803.897Z" fill="#212A33" stroke="#212A33" stroke-miterlimit="10"/>
</svg>
