<?xml version="1.0" encoding="UTF-8"?>
<svg xmlns="http://www.w3.org/2000/svg" width="108" height="109" viewBox="0 0 108 109" fill="none">
  <path d="M64.3982 26.6537C68.1817 26.3764 71.792 24.8218 74.4346 22.0996C74.5994 21.9299 74.761 21.7573 74.9197 21.5817C78.0895 18.0717 79.7225 13.5012 79.9381 8.81458C80.0384 6.66244 79.9349 4.37263 79.3675 2.28125C79.3745 2.30653 79.3638 2.34282 79.3407 2.38665C78.8451 8.86325 76.0839 15.8206 70.4613 19.4081C66.8816 21.6922 62.5579 22.8602 58.7339 24.7029C56.0531 25.9946 53.4664 27.6001 52.0859 30.3409C54.9108 27.7838 60.5811 26.9333 64.3982 26.6537Z" fill="url(#paint0_linear_3250_67850)"></path>
  <path d="M58.7364 24.702C62.5605 22.8591 66.8841 21.6913 70.4638 19.4071C76.0865 15.8194 78.8477 8.86233 79.3432 2.38574C79.1891 2.67694 78.4532 3.31151 78.3244 3.43466C77.9426 3.79496 77.529 4.12112 77.0978 4.41742C76.2623 4.98961 75.3457 5.43676 74.3963 5.78551C70.2213 7.31196 65.6879 7.01 61.3731 7.84972C58.7219 8.36732 56.2298 9.7077 54.0459 11.2656C53.6493 11.5514 53.2659 11.8539 52.9013 12.1742L52.6908 12.3374C52.4601 12.5162 52.2667 12.7351 52.0734 12.9539C52.0406 12.9913 52.0046 13.0244 51.968 13.0639C51.943 13.094 51.9121 13.1233 51.8871 13.1534C49.9535 15.2698 46.2391 20.712 50.0154 28.4693C50.1143 26.6621 50.6951 24.8738 51.6754 23.3511C54.1261 19.544 58.4567 18.1493 62.6535 17.1918C63.9538 16.8933 65.2735 16.6339 66.598 16.4564C55.0172 18.7731 51.4603 24.2382 51.876 28.8172C51.9266 29.3746 51.9981 29.8834 52.0887 30.3399C53.4689 27.5992 56.0556 25.994 58.7364 24.702Z" fill="url(#paint1_linear_3250_67850)"></path>
  <path d="M30.718 26.6537C26.9346 26.3764 23.3242 24.8218 20.6819 22.0996C20.5171 21.9299 20.3555 21.7573 20.1968 21.5817C17.027 18.0717 15.394 13.5012 15.1784 8.81458C15.0781 6.66244 15.1816 4.37263 15.7489 2.28125C15.7419 2.30653 15.7524 2.34282 15.7756 2.38665C16.2711 8.86325 19.0323 15.8206 24.6549 19.4081C28.2346 21.6922 32.5583 22.8602 36.3826 24.7029C39.0634 25.9946 41.6501 27.6001 43.0306 30.3409C40.2054 27.7838 34.5351 26.9333 30.718 26.6537Z" fill="url(#paint2_linear_3250_67850)"></path>
  <path d="M36.3815 24.7039C32.5574 22.861 28.2335 21.6932 24.6538 19.4091C19.0312 15.8214 16.27 8.86429 15.7744 2.3877C15.9285 2.6789 16.6644 3.31346 16.7932 3.43661C17.175 3.79691 17.5886 4.12307 18.0199 4.41938C18.8553 4.99156 19.7719 5.43872 20.7214 5.78746C24.8963 7.31391 29.4298 7.01195 33.7446 7.85168C36.3958 8.36928 38.8878 9.70966 41.0717 11.2676C41.4683 11.5534 41.8517 11.8559 42.2163 12.1761L42.4269 12.3393C42.6576 12.5181 42.8509 12.737 43.0442 12.9559C43.077 12.9933 43.1131 13.0263 43.1496 13.0659C43.1746 13.096 43.2056 13.1253 43.2306 13.1554C45.1641 15.2718 48.8785 20.714 45.1023 28.4713C45.0033 26.6641 44.4225 24.8758 43.4422 23.3531C40.9915 19.5459 36.6609 18.1512 32.4641 17.1938C31.1638 16.8953 29.8441 16.6358 28.5198 16.4584C40.1007 18.7751 43.6575 24.2401 43.2418 28.8192C43.1913 29.3766 43.1195 29.8853 43.0292 30.3419C41.649 27.6012 39.0623 25.9959 36.3815 24.7039Z" fill="url(#paint3_linear_3250_67850)"></path>
  <path d="M32.0707 75.2533C29.4483 73.3251 26.1163 72.4612 23.9719 72.4612C23.5398 72.4612 23.1542 72.5075 22.8149 72.5693C20.9945 68.8824 19.9609 64.7174 19.9609 60.3209C19.9609 56.4333 20.763 52.7311 22.2287 49.3682C22.8765 49.4453 23.6635 49.6612 24.0182 50.2474C24.0335 50.2474 24.0335 50.2474 24.0335 50.2474C24.0644 50.2937 24.0953 50.3399 24.1416 50.3708C24.5272 50.7102 24.8668 51.2654 25.0827 51.7437C25.1445 51.8362 25.237 51.975 25.3604 52.0831C25.3604 52.0831 25.3604 52.0831 25.3757 52.0984C25.3757 52.1137 25.3911 52.1293 25.3911 52.1447C25.4064 52.2681 25.422 52.4224 25.422 52.5767L25.8232 54.7055C25.8232 54.7517 25.8385 54.798 25.8385 54.8289V54.8442C25.9928 56.2481 27.0727 57.1583 27.0727 57.1583C27.0727 57.1583 25.9619 58.778 25.6073 60.3053C25.5763 61.1383 25.6844 61.9866 26.5484 62.1565C26.5484 62.1565 27.042 62.9433 27.1808 63.73C27.1961 63.73 27.1961 63.7454 27.1961 63.761C28.1372 65.072 27.7823 67.0005 29.402 67.9878C29.9729 68.3271 30.8212 68.4505 31.3302 68.9751C31.7311 69.3763 32.0089 70.9651 32.4101 71.9369C32.5951 72.3534 32.6416 72.8008 32.6106 73.248V73.3867C32.6106 74.0038 32.7803 74.6978 33.0581 75.3614C33.3512 76.0247 33.7521 76.6571 34.2613 77.1199C33.4746 76.4719 32.8112 75.8857 32.2869 75.423L32.1788 75.3305L32.0707 75.2533Z" fill="url(#paint4_linear_3250_67850)"></path>
  <path d="M47.5596 32.7188C38.5506 32.7188 30.5445 37.0534 25.5 43.733C25.6541 43.9643 25.7931 44.242 25.9165 44.381C26.009 44.5044 26.0862 44.6123 26.1787 44.7204C26.5642 45.1678 27.027 45.5224 27.5516 45.7693C27.7213 45.8464 27.8756 45.908 28.0143 45.9852C28.1687 46.047 28.3074 46.1395 28.4155 46.2473C28.6777 46.4789 29.1714 46.8491 29.5263 46.7563C29.5263 46.7563 29.5416 46.7563 29.5416 46.741C29.5879 46.7563 29.6497 46.8029 29.8194 47.0188C30.4518 47.7283 30.2359 47.4353 30.1743 48.0214C30.128 48.3608 30.6833 48.222 30.822 48.3298C30.8836 48.407 30.9301 48.4686 30.9761 48.5458C31.038 48.6692 31.2076 48.6692 31.2845 48.5458C31.2998 48.5148 31.3154 48.4995 31.3308 48.4686C31.3923 48.3761 31.516 48.3298 31.6239 48.3452C31.6392 48.3605 31.6548 48.3605 31.6701 48.3605C31.7626 48.3758 31.8398 48.4377 31.886 48.5302C31.9476 48.6536 32.0248 48.777 32.1173 48.8079C32.2407 48.8388 32.3178 48.9467 32.3178 49.0701V49.101C32.2716 49.5793 32.1944 50.3043 32.4103 50.8132C32.6263 51.3532 32.6263 51.9393 32.3488 52.433C32.1638 52.7414 32.0557 53.0654 32.0403 53.4203C32.0094 54.1918 32.3797 54.3152 32.858 54.7317C33.722 55.4413 33.367 55.904 33.7682 56.876C33.7682 56.8914 33.7682 56.8914 33.7835 56.8914C34.2925 56.6754 33.9685 56.043 34.0919 55.6419C34.1844 55.3488 34.5856 55.2872 34.6628 54.9632C34.8015 54.3924 34.4931 52.9732 34.9405 52.4795C35.2646 52.0939 36.0666 52.5567 36.0976 53.0966C36.1129 53.4669 35.6192 53.4822 35.5576 53.7753C35.5576 53.7906 35.5576 53.7906 35.5732 53.7906C35.6811 53.7443 36.1903 54.1146 36.221 54.1918C36.221 54.1918 36.221 54.1918 36.2363 54.2071C36.3135 54.1918 36.375 54.1608 36.4369 54.1146C36.5141 54.053 36.6066 54.0374 36.6991 54.053H36.7453C36.884 54.0839 36.9921 54.1918 37.0231 54.3308C37.1156 54.8398 37.239 55.3181 37.424 55.7962C37.4858 55.9968 37.7789 56.3824 37.7326 56.6448C37.6246 57.7399 36.1129 57.4006 35.4342 58.0793C35.4189 58.0946 35.4189 58.1102 35.4342 58.1102C35.4342 58.1102 35.4651 58.1102 35.4805 58.1102H35.4958C35.5576 58.0949 35.7889 58.0949 35.9123 58.3108C35.9123 58.3261 35.9123 58.3261 35.9276 58.3417C36.0357 58.5732 36.0048 58.897 35.9739 59.0822C35.9585 59.1594 35.8198 59.2056 35.8042 59.221C35.218 59.4059 33.8914 61.504 33.8604 61.5965C33.6908 62.1521 33.6136 62.4449 33.1818 63.0929C32.5647 63.9568 33.1355 64.6817 32.719 65.5147H32.6881C32.1791 64.543 32.6418 63.9565 31.3614 63.9874C31.3461 63.9874 31.3767 64.0028 31.3614 64.0184C31.2533 64.0802 30.3588 64.3271 30.3588 64.2343C30.3588 64.2343 30.3588 64.2343 30.3434 64.2343C29.8498 64.5427 29.8188 64.8358 29.7107 65.4529C29.6182 65.8847 29.4486 67.3041 30.1582 67.4891C30.9296 67.6897 30.6365 66.8567 30.9602 66.7642C31.8551 66.5018 31.2996 67.4429 31.1917 68.1218L31.2071 68.1371C32.2097 68.3068 31.6854 68.4149 32.0092 69.217C32.3022 69.9421 32.4566 69.834 32.7959 69.9421C33.0583 70.0193 33.3514 69.9265 33.4902 69.6797C33.4902 69.6797 33.8758 69.5254 34.2307 69.4485C34.2463 69.4485 34.2616 69.4485 34.2616 69.4485C34.3697 69.4175 34.4622 69.4022 34.57 69.4175H34.6163C34.6934 69.4175 34.7859 69.4485 34.8478 69.4794C35.0946 69.5872 35.218 69.4022 35.5264 69.5872C35.7733 69.7106 35.8967 69.865 36.2207 70.1427C36.2207 70.1274 36.2207 70.1274 36.2207 70.1118C35.9429 66.6408 37.6246 63.9259 37.8249 63.6328L39.2596 61.4116L41.6662 62.4914C43.1472 63.1547 44.2733 63.6175 45.2144 63.9259H45.2297C45.245 63.8796 45.2606 63.8487 45.2759 63.8025C45.3684 63.6019 45.6771 62.9541 45.8621 62.8307C46.078 62.692 46.3249 62.846 46.6642 62.7535C47.0035 62.6455 48.068 61.8896 48.4845 62.1674C48.8239 62.4142 48.5308 62.7535 48.6542 62.9695C48.7776 63.17 49.9809 64.327 50.2584 64.1727C50.4743 64.0646 50.2275 63.5709 50.4899 63.5094C51.0145 63.386 51.5388 63.9259 52.0941 63.895C52.958 63.8487 53.606 62.846 52.8036 62.3214C52.2791 61.9974 51.8781 62.707 51.3382 61.7969C51.1839 61.5191 51.3382 61.0101 51.0295 61.041C50.829 61.0719 50.7211 61.3341 50.829 61.5194C50.8599 61.5656 50.8908 61.6119 50.9214 61.6584C51.0449 61.9515 50.5821 62.1674 50.4431 61.859C50.2734 61.4887 50.1653 61.0722 49.9957 60.6866C49.8413 60.3317 49.5329 59.9615 49.1627 59.7918C48.8696 59.6528 48.6228 59.7146 48.345 59.8534C48.0982 59.9615 47.8822 60.1002 47.6507 60.2545C47.5892 60.3164 47.512 60.3626 47.4348 60.4242C47.3114 60.5323 47.2189 60.6401 47.1571 60.7791C47.0646 60.9641 47.0183 61.1338 46.9721 61.3191C46.8796 61.6431 46.7871 62.0133 46.4937 62.2139C45.4601 62.9235 44.9355 61.1956 45.3986 60.4554C45.7379 59.9155 46.2469 60.4863 46.6171 60.1007C47.1261 59.5917 46.031 58.8359 46.1697 58.5735C46.2469 58.4191 46.6634 58.2957 46.7712 58.1879C46.9565 57.9873 47.1568 57.6942 47.373 57.4783C47.4348 57.4012 47.5426 57.2933 47.6661 57.1852C47.6814 57.1852 47.697 57.1852 47.697 57.1852L47.9282 56.9537C48.3757 56.5219 48.6378 55.9357 48.6378 55.3033C48.6378 55.1027 48.5916 54.8715 48.4681 54.64C48.4681 54.6247 48.4372 54.6247 48.4372 54.64C47.7276 55.5348 47.4499 54.6247 47.6042 53.807C47.7276 53.159 48.3601 52.5884 48.6222 51.9404C48.6685 51.8479 48.6841 51.7554 48.7147 51.6626C48.9306 50.9687 49.3934 50.3669 50.0414 50.0429C50.427 49.8423 50.8591 49.7036 51.1675 49.7961C51.1828 49.7961 51.1828 49.8114 51.1984 49.8114C51.6767 49.9657 52.3554 50.2588 52.5407 50.6135C53.2965 51.863 51.8464 51.1534 51.5842 51.2152C51.5689 51.2152 51.5689 51.2462 51.5689 51.2615C51.8467 51.6008 51.8773 52.326 52.3248 52.4338C52.3863 52.4491 52.4635 52.4491 52.5253 52.4185C52.5563 52.4032 52.5869 52.3876 52.6179 52.3722C53.6514 52.1407 56.9681 51.3077 57.6315 50.336C57.6468 50.3051 57.6624 50.2744 57.6777 50.2435C58.6804 49.2561 58.3257 46.1863 58.2948 45.9241C58.2948 45.9088 58.2948 45.9088 58.2948 45.9088C57.8321 45.2917 58.0633 44.8599 58.4182 44.3816C58.557 44.2119 58.7576 44.1347 58.9582 44.0731C59.0197 44.0576 59.0816 43.8879 59.1431 43.672C59.2047 43.4561 59.2512 43.1936 59.2819 42.9777C59.2819 42.9777 59.2819 42.9624 59.2972 42.9624C59.4206 42.6693 59.8371 42.6693 59.9759 42.9624C59.9912 43.0396 60.0221 43.1011 60.0377 43.1474C60.0377 43.1627 60.0377 43.1627 60.0531 43.1627C60.3308 43.1165 60.4233 42.5147 60.9941 43.1165C61.426 43.5792 61.1485 44.4585 60.9941 45.0909C60.9632 45.2296 61.0557 45.3068 61.1791 45.2296C61.2254 45.1987 61.2407 45.1525 61.2407 45.1062C61.2407 45.0909 61.256 45.0753 61.256 45.0753C61.256 45.0753 61.256 45.0753 61.256 45.06C61.3179 44.705 61.3948 44.8284 61.796 44.6279C61.9656 44.5816 62.1353 44.4891 62.3975 44.4582C62.5209 44.4582 62.5671 44.8594 62.8911 44.705C63.1689 44.5816 63.1226 44.1342 63.1533 44.1189C63.971 43.8567 64.5571 45.6152 64.8965 45.4146H64.9118C64.9118 45.4146 64.9118 45.4146 64.9118 45.399C64.9271 45.3528 65.0352 44.9825 65.3746 44.7357C65.637 44.5813 65.7911 44.2576 65.7757 43.9489C65.7448 43.6868 65.9607 43.4706 66.2232 43.4399C66.8402 43.409 67.3339 43.409 67.7811 44.0261C67.7964 44.0261 67.8273 44.0414 67.8273 44.0261C68.0279 43.8255 68.2438 43.5478 68.506 43.6096C68.7991 43.6712 68.9072 44.0723 69.1078 44.1186C69.2927 44.1495 69.4471 44.1495 69.6014 44.1033C69.6786 44.0723 69.7558 44.057 69.8327 44.0414C64.8217 37.1768 56.7073 32.7188 47.5596 32.7188ZM44.9834 42.9463C44.7212 43.4399 44.351 44.6585 44.2582 45.5068C44.2582 45.5687 44.181 45.5993 44.1348 45.5531C44.1348 45.5531 44.1195 45.5531 44.1039 45.5378C44.0886 45.5224 44.0576 45.5224 44.0423 45.5378C44.027 45.5378 44.0114 45.5531 43.9961 45.5687C43.9189 45.6303 43.7648 45.769 43.7183 45.908C43.7183 45.9233 43.7183 45.9233 43.7183 45.9233C43.6411 46.0621 43.5486 46.3089 43.7492 46.3861C43.8417 46.4014 43.9189 46.4633 43.9805 46.5404C44.0885 46.7101 44.181 47.0188 43.9651 47.4815C43.9498 47.4968 43.9342 47.5278 43.9342 47.5587C43.9189 47.6049 43.9189 47.6512 43.9033 47.6974C43.9033 47.8827 43.9033 48.0524 43.8108 48.3298C43.7955 48.3914 43.7183 48.407 43.672 48.3608C43.6567 48.3298 43.6411 48.3145 43.6258 48.2989C43.5949 48.268 43.5642 48.2527 43.5333 48.268V48.2527C43.3018 48.407 43.2402 48.6229 43.2402 48.8388C43.2402 49.0085 43.2865 49.1782 43.3327 49.3172C43.3327 49.3325 43.4099 49.9958 43.0396 50.2583L42.9934 50.3045C42.4844 50.6748 41.9135 50.9679 41.4352 51.4615C40.8181 52.1095 40.5559 52.9269 39.9698 53.6674C39.9389 53.7137 39.8617 53.7137 39.8463 53.6674C39.7229 53.4822 39.5223 53.4669 39.3683 53.2044C39.1833 52.9267 39.1833 52.1246 39.1677 51.9087C39.1061 51.3225 38.9671 51.091 39.1214 50.4895C39.2139 50.0886 39.6767 49.7646 39.7076 49.4715C39.7229 49.3325 39.7229 49.2094 39.7229 49.1013C39.7229 48.5151 39.5995 48.3454 39.507 48.2992C39.507 48.2992 39.4761 48.2839 39.4608 48.2839C39.4608 48.2839 39.4454 48.2839 39.4298 48.2992H39.3836C39.322 48.3145 39.2755 48.2683 39.2602 48.2067C39.183 47.528 39.5223 46.726 39.3064 46.0008C39.1674 45.4609 39.183 45.5689 38.8437 45.1987C38.8284 45.168 38.7818 45.1215 38.7356 45.0906C38.3191 44.8594 38.3807 44.4426 38.4425 44.2423C38.4578 44.2114 38.4578 44.196 38.4578 44.1651V44.1189C38.4578 44.0879 38.4425 44.057 38.4116 44.0264C38.211 43.8567 37.9951 43.5174 38.1957 43.2243C38.3963 42.9312 38.8899 43.1162 39.0287 42.9775C39.0287 42.9621 39.044 42.9621 39.044 42.9465C39.0902 42.8847 39.1365 42.8078 39.1827 42.715C39.4143 42.3294 40.0467 41.6196 41.7127 41.4346C41.867 41.4193 41.9748 41.2803 41.9748 41.1415C41.9748 40.9872 42.0367 40.8484 42.1445 40.7559C42.4376 40.4938 43.1163 40.0926 44.227 40.725C44.2423 40.7403 44.582 40.91 44.582 41.1724C44.582 41.234 44.551 41.2959 44.5048 41.373C44.2733 41.697 43.7796 41.4346 43.4249 41.558C43.3634 41.5733 43.3634 41.6352 43.3787 41.6814C43.3787 41.6814 43.3787 41.6814 43.394 41.6814C43.4249 41.8202 43.6099 42.2676 44.4123 42.3601C44.4432 42.3754 44.4895 42.3754 44.5357 42.3448C44.8906 42.0979 45.3071 41.7586 45.4459 42.2832C45.5386 42.6223 45.0759 42.7766 44.9834 42.9463ZM72.4578 48.3917C72.1956 48.546 71.9025 48.6694 71.6095 48.7773C70.7765 49.055 69.8663 50.397 69.4035 51.1375C69.3573 51.2147 69.2645 51.3534 69.2029 51.4306C68.9714 51.7237 68.8327 52.7882 68.8327 53.2509V53.3744C68.848 53.8062 68.8789 53.729 68.987 53.9296C69.0179 53.9912 69.0951 54.0068 69.172 53.9912H69.3264C69.3882 53.9912 69.4651 53.9759 69.5269 53.9603C69.6657 53.9293 69.7429 54.1762 69.8354 54.3768V54.3921C69.8354 54.3921 69.8354 54.3921 69.8507 54.4074C69.8816 54.4846 70.1591 55.1323 70.19 55.5953C70.19 55.6107 70.19 55.626 70.19 55.626V55.9037C70.1747 56.6289 70.1591 57.4928 70.1128 57.7088C70.0203 58.0481 69.9279 58.3721 69.8044 58.6961C69.7426 58.9429 69.6038 58.9892 69.3879 58.8195C69.3879 58.8195 69.3726 58.8195 69.357 58.8351C69.3417 58.8504 69.3261 58.866 69.3261 58.8814C69.0483 59.3135 68.6012 59.6065 68.1075 59.7453C67.9225 59.7915 67.8297 59.8687 67.7682 59.9305C67.7528 59.9459 67.7372 59.9459 67.7372 59.9612C67.7219 59.9765 67.7219 59.9921 67.7063 60.0074C67.691 60.023 67.691 60.0384 67.691 60.0384C67.506 60.2699 67.182 60.717 67.1973 60.8251C67.2436 60.9948 67.6757 61.2725 67.7682 61.1954C67.8144 61.1647 67.8607 61.1491 67.9225 61.1647C67.9997 61.1954 68.1075 61.2419 68.1384 61.3035V61.3344C68.0922 61.3806 67.9997 61.5503 67.9069 61.7356C68.524 61.7202 69.1258 61.7046 69.7273 61.7046C71.5167 61.7046 73.3061 61.7971 75.1111 61.9824C75.1421 61.4271 75.1574 60.8716 75.1574 60.3164C75.1574 56.043 74.1854 52.0014 72.4578 48.3917ZM63.2945 81.5119C61.5975 80.1852 60.1937 79.5682 58.6511 79.4294C58.1727 79.3832 57.7562 79.3678 57.3244 79.3678C56.1983 79.3678 55.0413 79.4913 53.8227 79.6147C53.4062 79.6609 52.9897 79.7072 52.5732 79.7381C52.5423 79.9231 52.496 80.0928 52.4189 80.2627C52.1874 80.8026 51.0769 82.4377 50.2283 81.8515C49.8427 81.5584 49.8427 80.4939 49.7346 80.0159C49.7193 79.9543 49.7037 79.9078 49.7037 79.8462C49.0094 79.8462 48.3307 79.7999 47.6365 79.7228C45.1221 79.6147 42.7309 78.8282 40.6947 77.4706C40.4478 77.3009 40.2163 77.1313 40.0004 76.946C39.9851 77.5168 39.9542 78.0414 39.5221 78.5348C39.2137 78.8895 38.7816 78.8588 38.5347 79.4294C38.4113 79.6918 38.3804 80.0774 38.3188 80.4168C41.7589 83.1163 45.8468 86.0628 49.2406 87.8675H49.256C54.8711 87.5282 60.0235 85.5072 64.2347 82.2987C63.9269 82.0209 63.6029 81.7585 63.2945 81.5119Z" fill="url(#paint5_linear_3250_67850)"></path>
  <path d="M53.7076 92.5917C52.9768 92.592 52.1462 92.3436 51.335 92.1438C43.6223 89.6765 30.2267 77.7316 30.2267 77.7316C26.7759 75.1845 21.5668 75.0729 23.3253 76.3041C24.6987 77.2659 26.023 78.2957 27.3432 79.3285C28.2666 80.0508 29.223 80.7302 30.1326 81.468C30.2512 81.5643 30.3717 81.6654 30.4421 81.8009C30.5779 82.062 30.4227 82.3588 30.2291 82.5411C30.01 82.7471 29.7097 82.8719 29.4435 83.005C29.0366 83.2085 28.7635 83.2384 28.3268 83.0897C27.7627 82.8974 27.3115 82.4911 26.8608 82.1177C26.3914 81.7289 25.8767 81.407 25.3672 81.0741C24.2763 80.3616 23.1612 79.6853 22.0182 79.0599C20.3681 78.1567 18.6558 77.3498 16.8736 76.7424C15.8952 76.409 14.8887 76.1267 13.8632 75.982C13.5927 75.9438 13.3133 75.9051 13.0391 75.9113C13.5096 78.4498 16.9984 81.2978 27.7186 88.8174C38.4387 96.3373 53.7076 92.5917 53.7076 92.5917Z" fill="url(#paint6_linear_3250_67850)"></path>
  <path d="M99.7533 97.2538C97.4256 98.545 94.9575 98.3406 92.3106 98.6945C90.2955 98.9636 88.2802 99.2317 86.2674 99.5173C74.4579 101.193 62.4259 112.149 36.501 104.337C18.3147 98.8297 7.75668 87.2836 3.05845 80.8646C1.75946 79.1139 3.20015 76.6409 5.31385 76.8587C5.90406 76.9493 6.44747 77.1876 6.84488 77.575C13.2054 83.4816 20.3413 88.5925 28.0535 92.7143C35.3206 96.5961 42.3643 98.4192 50.7533 97.9664C56.7887 97.7405 64.4355 96.8556 68.7422 92.0377C69.4206 91.3416 69.9979 90.45 70.2797 89.4645C71.6018 85.4221 68.162 81.3921 65.1865 79.0743C63.2521 77.5777 61.3245 76.5716 58.9161 76.3575C56.3601 76.0962 53.8624 76.5705 51.361 76.7504C50.1346 76.8154 49.005 76.781 47.8741 76.6487C45.9093 76.5759 43.9873 75.9628 42.4023 74.9034C40.6187 73.6501 39.7658 72.2377 39.405 70.9164C39.3515 70.5736 39.298 70.2308 39.2939 69.9363C39.0643 67.3865 40.4122 65.3072 40.4122 65.3072C43.5227 66.6904 45.3968 67.3534 47.2161 67.5753C50.461 67.9256 53.2453 66.8584 61.5243 65.5234C63.1408 65.2569 64.7092 65.0402 66.1806 64.923C73.5862 64.3847 81.0636 65.5637 88.0186 68.0754C89.153 68.5024 90.2875 68.9296 91.3738 69.4064C93.6625 70.4141 95.8792 71.5784 98.0182 72.8739C103.914 76.4444 106.771 83.8104 104.805 90.4239C104.066 92.9119 102.637 95.26 100.5 96.7825C100.253 96.9583 100.004 97.1148 99.7533 97.2538Z" fill="url(#paint7_linear_3250_67850)"></path>
  <defs>
    <linearGradient id="paint0_linear_3250_67850" x1="73.433" y1="14.4779" x2="45.259" y2="30.2312" gradientUnits="userSpaceOnUse">
      <stop stop-color="#69F0AE"></stop>
      <stop offset="1" stop-color="#018647"></stop>
    </linearGradient>
    <linearGradient id="paint1_linear_3250_67850" x1="53.4399" y1="25.7186" x2="69.496" y2="7.16307" gradientUnits="userSpaceOnUse">
      <stop stop-color="#69F0AE"></stop>
      <stop offset="1" stop-color="#018647"></stop>
    </linearGradient>
    <linearGradient id="paint2_linear_3250_67850" x1="21.6832" y1="14.4779" x2="49.8572" y2="30.2312" gradientUnits="userSpaceOnUse">
      <stop stop-color="#69F0AE"></stop>
      <stop offset="1" stop-color="#018647"></stop>
    </linearGradient>
    <linearGradient id="paint3_linear_3250_67850" x1="41.678" y1="25.7205" x2="25.6219" y2="7.16502" gradientUnits="userSpaceOnUse">
      <stop stop-color="#69F0AE"></stop>
      <stop offset="1" stop-color="#018647"></stop>
    </linearGradient>
    <linearGradient id="paint4_linear_3250_67850" x1="27.1112" y1="69.422" x2="27.1112" y2="31.4679" gradientUnits="userSpaceOnUse">
      <stop stop-color="#69F0AE"></stop>
      <stop offset="1" stop-color="#018647"></stop>
    </linearGradient>
    <linearGradient id="paint5_linear_3250_67850" x1="50.3286" y1="74.8462" x2="50.3286" y2="26.5911" gradientUnits="userSpaceOnUse">
      <stop stop-color="#69F0AE"></stop>
      <stop offset="1" stop-color="#018647"></stop>
    </linearGradient>
    <linearGradient id="paint6_linear_3250_67850" x1="9.8941" y1="60.997" x2="86.2538" y2="138.514" gradientUnits="userSpaceOnUse">
      <stop stop-color="#69F0AE"></stop>
      <stop offset="1" stop-color="#018647"></stop>
    </linearGradient>
    <linearGradient id="paint7_linear_3250_67850" x1="22.535" y1="48.5725" x2="98.7316" y2="125.924" gradientUnits="userSpaceOnUse">
      <stop stop-color="#69F0AE"></stop>
      <stop offset="1" stop-color="#018647"></stop>
    </linearGradient>
  </defs>
</svg>
