<?xml version="1.0" encoding="UTF-8"?>
<svg xmlns="http://www.w3.org/2000/svg" width="32" height="32" fill="#8195aa">
  <g  clip-path="url(#a)">
    <path d="m27.2 14.5 1.8 1c.4.3.4.7 0 1l-1.8 1 1.4 1.6c.3.3.2.7-.2.8l-2 .3h-.1l.6 1.3.3.9c.1.3 0 .6-.4.6-.8 0-1.5-.2-2.2-.3l.2 1.5v.8c0 .3-.2.5-.5.4l-1.8-.9-.2-.1-.2 1.1-.2 1.1c-.1.4-.5.5-.8.3l-1.5-1.5-1 1.9c-.3.4-.6.4-.9 0l-1-1.9-1.6 1.5c-.3.3-.6.2-.7-.3l-.5-2.2-.2.2-1.7.8c-.3.1-.6 0-.6-.4l.2-2.3-1 .2h-1c-.5 0-.7-.2-.5-.6l.8-1.9h.1L8.4 20l-.6-.1c-.3-.2-.4-.5-.2-.8L9 17.5l-1.8-1c-.4-.3-.4-.7 0-1l1.8-1-.9-1-.5-.6c-.2-.4-.2-.7.3-.8l2-.4v-.1l-.8-2c-.2-.3 0-.6.4-.6.8 0 1.5.2 2.2.3l-.3-1.5V7c0-.3.3-.5.5-.4l2 .9.1.1c0-.4 0-.8.2-1.1l.2-1.1c.1-.4.4-.5.7-.3l1.6 1.5 1-1.9c.3-.4.6-.4.8 0l1.1 2 .2-.2L21.2 5c.2-.2.6-.1.7.2l.3 1.9v.4l1.4-.7.7-.3c.3-.1.6 0 .6.4l-.2 2.3 1-.2h1c.4 0 .6.2.5.5l-.8 1.9-.1.2 1.8.3.4.1c.3.2.4.5.2.7l-1.3 1.5-.2.2Zm-9-4.3c-3.1 0-5.6 2.6-5.6 5.8 0 3.2 2.5 5.8 5.5 5.8s5.6-2.6 5.6-5.8c0-3.2-2.5-5.8-5.6-5.8ZM8.1 16a4 4 0 0 0 3.6.7v-1.4l-1.3-.1c-1 0-1.6.3-2.4.8Zm20 0c-1.2-.9-2.4-1-3.7-.6v1.3l1.3.1c.9 0 1.6-.3 2.4-.8Zm-12.7 6c-.2.7-.5 1.3-.6 2a4 4 0 0 0 .1 1.9c1.1-.8 1.7-2 1.8-3.4l-1.3-.4Zm10.7 0c-.4-1.2-1-2-2.5-2.7l-.8 1.1c1.3 1.3 2.2 1.8 3.3 1.7ZM10.1 10c.4 1.2 1 2 2.5 2.7l.7-1.1c-.8-1-1.9-1.7-3.2-1.7Zm16.1 0c-1-.2-2.2.4-3.3 1.6l.8 1c1.2-.5 2.1-1.3 2.5-2.7Zm-5 15.8c.5-1.3.2-2.5-.5-3.7l-1.2.4c.1 1.3.6 2.5 1.7 3.3Zm-11.1-3.7a4 4 0 0 0 3.2-1.7l-.7-1C11 20.3 10.3 21 10 22ZM21.2 6c-1 .7-1.7 2-1.7 3.4l1.2.4c.6-1.2 1-2.4.5-3.7ZM15.6 10l1.2-.4c-.2-1.3-.6-2.5-1.7-3.3-.5 1.3-.2 2.5.5 3.7Zm-3.3 14.5.7-.4c1-.4 1.4-1.2 1.7-2.2v-.3c-.2 0-.4-.2-.6-.4h-.2c-1.1.8-1.6 1.9-1.6 3.3Zm0-16.8V8.2c.1 1.2.7 2 1.6 2.7h.2l.7-.6c-.4-1.5-1.1-2.1-2.6-2.7Zm15.4 5.2h-.3a3.5 3.5 0 0 0-3.1.5c-.2.1-.3.2-.2.4l.2.6.2.1c1.3.1 2.4-.5 3.2-1.6Zm-6.2 8.8c.3 1.4 1.4 2.6 2.5 2.8v-.6c-.1-1.2-.7-2-1.6-2.7a.2.2 0 0 0-.2 0l-.7.5Zm0-11.2.6.4c.2.2.2.1.3 0 .4-.3.8-.6 1-1 .5-.6.6-1.4.6-2.2a3.6 3.6 0 0 0-2.5 2.8Zm-3.4 16c.8-1.1 1-2.3.6-3.6l-.2-.2a5 5 0 0 1-.7 0c-.1 0-.2 0-.2.2-.5 1.3-.2 2.5.5 3.6Zm0-20.8c-.7 1-1 2.2-.6 3.4.1.4.1.4.6.4h.4l.2-.1c.5-1.4.2-2.5-.6-3.7Zm-9.5 7.2c.7 1 1.7 1.6 2.9 1.7.4 0 .4 0 .5-.5l.2-.3-.1-.3-.7-.5c-1-.5-1.8-.3-2.8-.1Zm19 6.4c-.7-1-1.6-1.6-2.8-1.7-.4 0-.4 0-.6.5v.2c-.2.3-.1.3.2.6 1 .7 2.1.8 3.3.4Zm-19 0c1.4.4 2.2.3 3.3-.5.2-.1.4-.2.2-.5l-.1-.5c0-.1-.1-.2-.3-.2-1.3 0-2.3.6-3 1.7Z"></path>
    <path d="M19.2 12.9a.4.4 0 0 1-.1.3.4.4 0 0 1-.6 0 .4.4 0 0 1-.1-.3.4.4 0 0 1 .1-.3.4.4 0 0 1 .3-.1l.3.1v.3ZM19.2 19.1a.4.4 0 0 1-.1.3.4.4 0 0 1-.6 0 .4.4 0 0 1-.1-.3.4.4 0 0 1 .1-.3.4.4 0 0 1 .3-.1l.3.1v.3ZM22 13.7a.4.4 0 0 1 .2.1.4.4 0 0 1 .1.3.4.4 0 0 1 0 .3.4.4 0 0 1-.4.2.4.4 0 0 1-.3-.2.4.4 0 0 1 0-.3.4.4 0 0 1 0-.3.4.4 0 0 1 .3 0ZM18.7 15a.4.4 0 0 1 .3 0 .4.4 0 0 1 .1.4.4.4 0 0 1 0 .3.4.4 0 0 1-.4 0 .4.4 0 0 1-.2 0 .4.4 0 0 1-.2-.3.4.4 0 0 1 .2-.3.4.4 0 0 1 .2-.1ZM20.3 15.4a.4.4 0 0 1-.1.3.4.4 0 0 1-.3 0 .4.4 0 0 1-.3 0 .4.4 0 0 1 0-.3.4.4 0 0 1 0-.3.4.4 0 0 1 .4-.1.4.4 0 0 1 .2.1.4.4 0 0 1 .1.3ZM21.5 15.4a.4.4 0 0 1 0 .3.4.4 0 0 1-.4 0 .4.4 0 0 1-.3 0 .4.4 0 0 1 0-.3.4.4 0 0 1 0-.3.4.4 0 0 1 .3-.1.4.4 0 0 1 .3 0 .4.4 0 0 1 .1.4ZM22.3 15a.4.4 0 0 1 .3 0 .4.4 0 0 1 .1.4.4.4 0 0 1 0 .3.4.4 0 0 1-.4 0 .4.4 0 0 1-.2 0 .4.4 0 0 1-.2-.3.4.4 0 0 1 .1-.3.4.4 0 0 1 .3-.1ZM20 12.5a.4.4 0 0 1 .3.1.4.4 0 0 1 0 .6.4.4 0 0 1-.5 0l-.2-.3c0-.1 0-.2.2-.3l.2-.1ZM19.1 16.6a.4.4 0 0 1-.1.3.4.4 0 0 1-.3.1.4.4 0 0 1-.3-.1.4.4 0 0 1 0-.3.4.4 0 0 1 0-.3.4.4 0 0 1 .4 0 .4.4 0 0 1 .2 0 .4.4 0 0 1 .1.3ZM20 17a.4.4 0 0 1-.3 0 .4.4 0 0 1-.2-.4.4.4 0 0 1 .1-.3.4.4 0 0 1 .3 0 .4.4 0 0 1 .3 0 .4.4 0 0 1 .1.3.4.4 0 0 1 0 .3.4.4 0 0 1-.4.1ZM21.5 16.6a.4.4 0 0 1 0 .3.4.4 0 0 1-.3.1.4.4 0 0 1-.3 0 .4.4 0 0 1-.2-.4.4.4 0 0 1 .1-.3.4.4 0 0 1 .3 0 .4.4 0 0 1 .3 0 .4.4 0 0 1 .1.3ZM22.7 16.6a.4.4 0 0 1 0 .3.4.4 0 0 1-.4.1.4.4 0 0 1-.3 0 .4.4 0 0 1 0-.4.4.4 0 0 1 0-.3.4.4 0 0 1 .3 0 .4.4 0 0 1 .3 0 .4.4 0 0 1 .1.3ZM21.3 13.3a.4.4 0 0 1-.3-.1.4.4 0 0 1 0-.3.4.4 0 0 1 0-.3.4.4 0 0 1 .3-.1.4.4 0 0 1 .3.1.4.4 0 0 1 .1.3.4.4 0 0 1 0 .3.4.4 0 0 1-.4.1ZM20.1 20a.4.4 0 0 1 .3 0 .4.4 0 0 1 .1.3.4.4 0 0 1 0 .3.4.4 0 0 1-.4.2.4.4 0 0 1-.3-.2.4.4 0 0 1 0-.3.4.4 0 0 1 0-.3.4.4 0 0 1 .3 0ZM18.1 17.4a.4.4 0 0 1 .3.2.4.4 0 0 1 .1.3.4.4 0 0 1 0 .3.4.4 0 0 1-.4 0 .4.4 0 0 1-.2 0 .4.4 0 0 1-.2-.3.4.4 0 0 1 .1-.3.4.4 0 0 1 .3-.2ZM22 17.4a.4.4 0 0 1 .2.2.4.4 0 0 1 .1.2.4.4 0 0 1 0 .3.4.4 0 0 1-.4.2.4.4 0 0 1-.2-.1.4.4 0 0 1-.2-.3.4.4 0 0 1 .1-.3.4.4 0 0 1 .3-.2ZM18.1 14.6a.4.4 0 0 1-.2-.2.4.4 0 0 1-.2-.3.4.4 0 0 1 .2-.3.4.4 0 0 1 .2 0 .4.4 0 0 1 .3 0 .4.4 0 0 1 .1.3.4.4 0 0 1 0 .3.4.4 0 0 1-.4.2ZM20.1 12a.4.4 0 0 1-.2 0 .4.4 0 0 1-.2-.3.4.4 0 0 1 .1-.3.4.4 0 0 1 .3-.2.4.4 0 0 1 .3.2.4.4 0 0 1 .1.3.4.4 0 0 1 0 .2.4.4 0 0 1-.4.2ZM20.5 19.1c0 .1 0 .2-.2.3a.4.4 0 0 1-.5 0l-.2-.3c0-.1 0-.2.2-.3a.4.4 0 0 1 .4 0 .4.4 0 0 1 .2.1v.2ZM21.7 19.1a.4.4 0 0 1 0 .3.4.4 0 0 1-.4.1.4.4 0 0 1-.3-.1.4.4 0 0 1 0-.3.4.4 0 0 1 0-.3.4.4 0 0 1 .3-.1.4.4 0 0 1 .3.1.4.4 0 0 1 .1.3ZM18.8 20a.4.4 0 0 1 .3 0 .4.4 0 0 1 .1.4l-.1.2-.3.2c-.1 0-.2 0-.3-.2l-.1-.3a.4.4 0 0 1 .1-.3.4.4 0 0 1 .3 0ZM20.7 18.3l-.3-.1-.1-.3a.4.4 0 0 1 0-.3.4.4 0 0 1 .6 0l.2.2a.4.4 0 0 1-.1.3.4.4 0 0 1-.3.2ZM20.7 14.6c-.1 0-.2 0-.3-.2l-.1-.2a.4.4 0 0 1 0-.4.4.4 0 0 1 .6 0l.2.3a.4.4 0 0 1-.1.3.4.4 0 0 1-.3.2ZM19.4 18.3c-.1 0-.2 0-.3-.2l-.1-.3a.4.4 0 0 1 .1-.3.4.4 0 0 1 .3 0h.3a.4.4 0 0 1-.2.8h-.1ZM19.2 11.7a.4.4 0 0 1-.1.3.4.4 0 0 1-.6 0l-.1-.4a.4.4 0 0 1 .1-.2.4.4 0 0 1 .3-.2.4.4 0 0 1 .3.2.4.4 0 0 1 .1.3ZM19.4 14.6a.4.4 0 0 1-.3-.2.4.4 0 0 1-.1-.3l.1-.3a.4.4 0 0 1 .7.3l-.1.3-.3.2Z"></path>
  </g>
  <path  fill-rule="evenodd" d="M15.8 29.3a.8.8 0 0 1-.8-.7V3.4a.8.8 0 0 1 1.5 0v25.2c0 .4-.3.7-.7.7Z" clip-rule="evenodd"></path>
  <g clip-path="url(#b)">
    <path  d="M18.6 19.1c-.8-4.1 2.4-4.3 2.4-4.3s-2.2-1.5-4 0l.3.3c.4 1.3-1.3 1.5-1.6.8-.2-1 .6-1.4 1.1-1.2l-.1-.6c-.3.4-1.1.4-1.3 0-.2-.9.5-1.2 1-1l-.1-.6c-.4.3-1.1.3-1.2-.2-.2-.7.4-1 .8-1l-.1-.4-.2.1c-1 .4-1.3-1.2-.6-1.5h.3v-.3H15c-1.1.3-.8-1.3-.4-1.3l-.1-.2h-.1c-1 .3-.7-1-.5-1a10 10 0 0 0 0-.1c-.6.2-.6-.6-.5-.8l-.1-.1c-.4.3-.7-.6-.5-.7h-.1c-.3 0-.5-.3-.5-.5l-.1-.1c0 .2 0 .4-.2.4-.5.2-.6-.5-.4-.7a2 2 0 0 0-.4-.2v.3c.5 1.1-1.2 1.4-1.4.6v-.5l-.3.2c.3.1.4.8-.1.9-.2 0-.3-.2-.3-.4l-.1.2c0 .2 0 .7-.3.6V6c.1 0 .2 1-.3.8V7c.1 0 .4.8-.2.8V8c.2-.1 1 1 0 1.2H8v.2c.4-.2 1.2 1.1 0 1.4v.3l.3-.1c.7 0 1 1.6 0 1.6h-.1c-2.6-2.4-4.9-3.5-4.9-3.5S8.1 15.8 8 21.2c0 3 1.7 5.6 4.5 5.2.1.5.5.8 1 .7l2-.5c.4 0 .7-.4.7-.7 1.8-.7 3.2-2.4 2.4-6.8Zm-1.4 4.6c-.4-.2-.2-1.8.4-1.6 1 .4-.1 1.7-.4 1.6Zm-3 1.1-.1-1.4c.3 0 .8 0 1 .4.1.6-.4 1-.9 1ZM9.6 14.1c0-.8 1.5-1.2 1.6 0 0 .4-.6.7-1.1.6l-.5-.6Zm2.7-5c.3 1-1.4 1.3-1.5.6-.4-1 1.2-1.3 1.5-.6Zm-1.9-1c-.3-1.1 1.3-1.4 1.5-.7.4 1.1-1.3 1.4-1.5.7Zm2.2 2.6c.4 1-1.3 1.4-1.5.7-.3-1.1 1.3-1.4 1.5-.7Zm-.6 5.6c-.3-1 1.3-1.4 1.5-.6.4 1-1.3 1.3-1.5.6Zm1.8.9c.3 1-1.3 1.4-1.5.7-.4-1.2 1.3-1.4 1.5-.7Zm-2.1-2.5c-.4-1 1.2-1.4 1.5-.6.3 1-1.4 1.3-1.5.6Zm-.3-1.7c-.3-1 1.3-1.4 1.5-.6.4 1-1.3 1.3-1.5.6Zm-.5-.7c0 .7-1.6 1.2-1.6 0 0-.7 1.5-1.2 1.6 0Zm-.5 2.8c.5-.2 1 0 1.1.7 0 .2 0 .4-.3.5l-.8-1.2Zm3.7 3.7c.3.8-.5 1.1-1 1l-.4-1c.3-.5 1.2-.5 1.4 0Zm0 4.4-.4-1.4c.4-.1 1 0 1 .3.2.7-.2 1-.7 1Zm.9-1c-.3-1.1 1.3-1.4 1.5-.7.4 1.1-1.3 1.4-1.5.7Zm-.3-1.7c-.3-1.1 1.3-1.4 1.5-.6.3 1-1.3 1.3-1.5.6Zm-.4 0c.2.6-.2 1-.7 1l-.4-1.3c.4-.2 1-.1 1.1.3Zm2.5 2.8c.4 1-1.3 1.4-1.5.7-.3-1.2 1.3-1.4 1.5-.7Zm1.3-2.3c0 1.3-1.3 1.1-1.3.3 0-1.3 1.2-1.2 1.3-.3Zm-.2-2c.4 1.2-1.3 1.4-1.5.7-.4-1.3 1.3-1.6 1.5-.8Zm-.3-2c.4 1.3-1.3 1.6-1.5.8-.3-1.3 1.3-1.6 1.5-.7ZM16 18c.3 1.2-1.4 1.4-1.6.8-.3-1.2 1.3-1.4 1.6-.7Zm-.4-1.6c.4 1-1.3 1.3-1.5.6-.3-1 1.3-1.4 1.5-.6Zm-.3-1.8c.4 1.1-1.3 1.4-1.5.7-.3-1.1 1.3-1.4 1.5-.7ZM15 13c.4 1-1.3 1.3-1.5.7-.3-1.2 1.3-1.4 1.5-.7Zm-.3-1.7c.3 1-1.3 1.3-1.5.6-.4-1 1.3-1.3 1.5-.6Zm-.3-1.7c.3 1.1-1.4 1.4-1.5.7-.4-1.1 1.3-1.4 1.5-.7ZM13.9 8c.3 1-1.4 1.3-1.5.7-.4-1.2 1.2-1.4 1.5-.7Zm-.5-1.5c.3 1-1.2 1.3-1.4.6-.3-1 1.2-1.2 1.4-.6Zm-.8-1.1c.3.8-.7 1-.8.4-.2-.9.7-1 .8-.4Zm-1 .5c.4 1.2-1.3 1.5-1.5.7-.3-1.3 1.3-1.5 1.5-.7ZM9 6c0-.6.8-.9.9 0 0 .6-.9.8-1 0Zm-.3 1.4c0-.7 1.4-1.1 1.5 0 0 .6-1.5 1-1.5 0Zm0 1.5c0-.7 1.6-1.2 1.7 0 0 .7-1.6 1.2-1.7 0Zm.3 1.7c0-.8 1.5-1.2 1.6 0 0 .7-1.6 1.1-1.6 0Zm.2 2.9-.8-.7c.4 0 .8.1.8.7Zm5.1 12.3V25c.4-.2.9-.2 1 0 .1.4-.5.7-1 .8Zm1.5-.6c-.9-.1 1.3-1.5 1.2-.8 0 .4-.8.8-1.2.8Z"></path>
  </g>
  <defs>
    <clipPath id="a">
      <path  d="M18.1 4.4h11.2v23.2H18.1z"></path>
    </clipPath>
    <clipPath id="b">
      <path  d="M2.7 3.8h10.6V27H2.7z"></path>
    </clipPath>
  </defs>
</svg>
