<?xml version="1.0" encoding="UTF-8"?>
<svg xmlns="http://www.w3.org/2000/svg" width="100" height="100" viewBox="0 0 100 100" fill="none">
  <path d="M72.1761 48.7448C67.2839 39.0973 59.8888 34.2422 49.9753 34.2422C40.0567 34.2422 32.6668 39.0973 27.7746 48.7497C27.5783 49.1386 27.4766 49.5635 27.4766 49.9936C27.4766 50.4238 27.5783 50.8486 27.7746 51.2376C32.6668 60.8851 40.0619 65.7403 49.9753 65.7403C59.894 65.7403 67.2839 60.8851 72.1761 51.2328C72.5735 50.4502 72.5735 49.5419 72.1761 48.7448V48.7448ZM49.9753 62.2619C41.6513 62.2619 35.5567 58.3102 31.2579 49.9912C35.5567 41.6723 41.6513 37.7205 49.9753 37.7205C58.2993 37.7205 64.394 41.6723 68.6927 49.9912C64.3991 58.3102 58.3045 62.2619 49.9753 62.2619ZM49.7689 41.4887C44.7528 41.4887 40.6863 45.2955 40.6863 49.9912C40.6863 54.687 44.7528 58.4938 49.7689 58.4938C54.785 58.4938 58.8515 54.687 58.8515 49.9912C58.8515 45.2955 54.785 41.4887 49.7689 41.4887ZM49.7689 55.4019C46.5745 55.4019 43.9891 52.9816 43.9891 49.9912C43.9891 47.0008 46.5745 44.5805 49.7689 44.5805C52.9633 44.5805 55.5488 47.0008 55.5488 49.9912C55.5488 52.9816 52.9633 55.4019 49.7689 55.4019Z" fill="#69F0AE"></path>
</svg>
