<svg width="100" height="100" viewBox="0 0 100 100" fill="none" xmlns="http://www.w3.org/2000/svg">
<path fill-rule="evenodd" clip-rule="evenodd" d="M54.125 72H44.875C43.025 72 41.1704 69.361 39.6164 65.5939L33.3125 72L31 69.65V60.25L36.5107 54.6499C35.9487 51.6137 35.625 48.6339 35.625 46.15C35.625 36.75 42.5625 25 49.5 25C56.4375 25 63.375 36.75 63.375 46.15C63.375 48.6363 63.0513 51.6137 62.4893 54.6499L68 60.25V69.65L65.6875 72L59.3836 65.5939C57.8296 69.361 55.9773 72 54.125 72ZM49.5 67.3H45.7653C45.618 67.1119 45.4799 66.9166 45.3514 66.7148C44.5489 65.4646 43.6864 63.5071 42.9024 61.1148C41.3022 56.2315 40.25 50.2742 40.25 46.15C40.25 38.6347 45.9017 29.7 49.5 29.7C53.0982 29.7 58.75 38.6347 58.75 46.15C58.75 50.2742 57.6978 56.2338 56.0976 61.1148C55.3113 63.5071 54.4511 65.4623 53.6463 66.7148C53.5186 66.9166 53.3812 67.1119 53.2347 67.3H49.5ZM49.5 48.5C50.7266 48.5 51.903 48.0048 52.7704 47.1234C53.6377 46.242 54.125 45.0465 54.125 43.8C54.125 42.5535 53.6377 41.358 52.7704 40.4766C51.903 39.5952 50.7266 39.1 49.5 39.1C48.2734 39.1 47.097 39.5952 46.2296 40.4766C45.3623 41.358 44.875 42.5535 44.875 43.8C44.875 45.0465 45.3623 46.242 46.2296 47.1234C47.097 48.0048 48.2734 48.5 49.5 48.5Z" fill="#69F0AE"/>
</svg>
