<?xml version="1.0" encoding="UTF-8"?>
<svg xmlns="http://www.w3.org/2000/svg" width="100" height="100" viewBox="0 0 100 100" fill="none">
 <path d="M56.6673 45.5296C57.5386 46.3599 58.9089 46.3575 59.7773 45.5241L66.1245 39.4328C66.6217 38.9556 66.6203 38.16 66.1214 37.6846C65.6542 37.2394 64.9199 37.2394 64.4527 37.6846L58.2249 43.6193L55.5253 41.0467C55.0446 40.5887 54.287 40.5953 53.8145 41.0617C53.321 41.5488 53.328 42.3475 53.8299 42.8258L56.6673 45.5296ZM29.7264 70.2404C28.4839 70.2404 27.4766 69.2331 27.4766 67.9906V67.7259C27.4766 66.4833 28.4839 65.476 29.7264 65.476H55.2251C56.4677 65.476 57.475 66.4833 57.475 67.7259V67.9906C57.475 69.2331 56.4677 70.2404 55.2251 70.2404H29.7264ZM59.9748 53.565C56.5167 53.565 53.5685 52.4033 51.1303 50.0798C48.6921 47.7564 47.4738 44.9478 47.4755 41.654C47.4755 38.3586 48.6946 35.5492 51.1328 33.2257C53.571 30.9023 56.5183 29.7413 59.9748 29.7429C63.433 29.7429 66.3811 30.9046 68.8193 33.2281C71.2576 35.5515 72.4758 38.3602 72.4742 41.654C72.4742 44.9493 71.2551 47.7588 68.8169 50.0822C66.3786 52.4057 63.4313 53.5666 59.9748 53.565ZM29.7264 51.1828C28.4839 51.1828 27.4766 50.1755 27.4766 48.9329V48.6682C27.4766 47.4257 28.4839 46.4184 29.7264 46.4184H43.2257C43.5174 47.2919 43.8507 48.1256 44.2257 48.9197C44.6006 49.7138 45.059 50.4681 45.6006 51.1828H29.7264ZM29.7264 60.7116C28.4839 60.7116 27.4766 59.7043 27.4766 58.4618V58.1971C27.4766 56.9545 28.4839 55.9472 29.7264 55.9472H50.9753C51.9336 56.5031 52.9544 56.97 54.0376 57.3479C55.1209 57.7259 56.2667 57.9935 57.475 58.1507V58.4618C57.475 59.7043 56.4677 60.7116 55.2251 60.7116H29.7264Z" fill="#69F0AE"></path>
</svg>
