<?xml version="1.0" encoding="UTF-8"?>
<svg xmlns="http://www.w3.org/2000/svg" width="32" height="32" fill="#8195aa">
  <path  d="M11.6 6.7a3.3 3.3 0 0 0-3.4 3.2c0 .8.4 1.6 1 2.1l-2.9 5.4H6a3.3 3.3 0 0 0-3.3 3.1c0 1.8 1.5 3.3 3.3 3.3 1.2 0 2.2-.6 2.8-1.5l14 2a3.4 3.4 0 0 0 3.2 2.4c1.8 0 3.3-1.5 3.3-3.2 0-1.8-1.4-3.2-3.2-3.2l-1.8-5.4c.8-.6 1.3-1.5 1.3-2.5 0-1.8-1.5-3.3-3.4-3.3-1.2 0-2.2.6-2.8 1.5L15 9.4a3.3 3.3 0 0 0-3.3-2.7Zm0 1.6c1 0 1.7.7 1.7 1.6a1.5 1.5 0 0 1-.5 1.1 1.7 1.7 0 0 1-1.2.5c-1 0-1.7-.7-1.7-1.6 0-1 .8-1.6 1.7-1.6Zm10.6 2.5c1 0 1.7.7 1.7 1.6 0 .8-.7 1.5-1.7 1.5s-1.6-.7-1.6-1.5a1.5 1.5 0 0 1 .4-1.2 1.7 1.7 0 0 1 1.2-.4Zm-7.7.7 4.4 1.2a3.3 3.3 0 0 0 3.3 2.9l1.8 5.3c-.5.3-.8.7-1 1.2h-.6l.4-2.7-1-.1-.5 2.7-1.6-.3.4-2.7L19 19l-.4 2.7-1.7-.3.6-3.7-1.1-.1-.6 3.7-1.6-.3.4-2.6-1.1-.2-.4 2.7-1.7-.2.4-2.7-1-.2-.5 2.7-1-.1h.1c-.1-.8-.5-1.5-1-2L11 13h.5c1.2 0 2.3-.5 2.9-1.5ZM6 19a1.7 1.7 0 0 1 1.2.4 1.6 1.6 0 0 1 .5 1.1 1.5 1.5 0 0 1-.5 1.2A1.7 1.7 0 0 1 6 22a1.7 1.7 0 0 1-1.1-.4 1.6 1.6 0 0 1-.5-1.2 1.5 1.5 0 0 1 .5-1A1.7 1.7 0 0 1 6 19Zm20 2.9a1.7 1.7 0 0 1 1.1.4 1.6 1.6 0 0 1 .5 1.2c0 .8-.7 1.5-1.6 1.5-1 0-1.7-.7-1.7-1.5a1.5 1.5 0 0 1 .5-1.2A1.7 1.7 0 0 1 26 22Z"></path>
</svg>
