<svg xmlns="http://www.w3.org/2000/svg" width="1920" height="1053" fill="none"><path stroke="#1A2D42" stroke-dasharray="9 9" stroke-linecap="round" stroke-linejoin="round" stroke-width="2" d="M1944.7 297.9 1839 315.3c-104.2 17.3-315.7 52.2-536.7 20.6-220.9-31.6-454.3-129.3-676.8-170.4-221.4-40.9-435-25.2-541.3-17.4h-1.6l-107.3 8"/><path fill="url(#a)" d="m1299.5 351.3-809.6-.3 405 701.5 404.6-701.2Z"/><g clip-path="url(#b)"><mask id="c" width="782" height="778" x="861" y="-15" maskUnits="userSpaceOnUse" style="mask-type:alpha"><path fill="#C4C4C4" d="m862 424.6 451-439.4 329.1 338-451 439.2z"/></mask><g mask="url(#c)"><path fill="#1E4168" d="m1282.2 424 50.2-68 15.1-20 3-19.5-4.1-6.7-18.1-9.5-7.4-14.5 17.8-18.3-.2-3.3-1.8-1.8h-3.2l-17.8 17.4-27.6-5.5-14-10.4-13.6 2.5-74.2 44.9-6 5.8 1.6 8.6 10.3 2 7.4-5.8-13 29-15.7 1.9-7.6 5.9 12.4 12.6 13.2-9 7 10.8 16.7 31.6-10 11 5.1 5.3-2.7 2.7 7.1 8 4.1-1 5.8-7.5 2.4-13.4 50 17.9-1.3 13.2 2.9.8 6.2-17.7Z"/><path fill="#1B60B1" fill-rule="evenodd" d="m1178.8 316.7 6.3-6 74.5-45.2 14-2.5 14.2 10.5 27.3 5.4 17.8-17.3 3.6-.1 2.2 2.1.3 3.9-17.8 18.2 7 14 18.2 9.5 4.4 7-3 20-15.3 20.3-50.3 68-6.4 18.2-4-1 1.4-13.4-49-17.5-2.4 12.8-6 7.8-4.7 1.1-7.8-8.6 2.8-2.7-5.2-5.3 10.2-11.2-16.7-31.2-6.6-10.3-13.1 9-13.2-13.6 8.3-6.4 15.5-2 12-26.5-5.8 4.5-11-2.1-1.7-9.4Zm1.4.5 1.4 7.9 9.5 1.8 9.2-7.1-14.1 31.6-16 2-6.9 5.4 11.5 11.8 13.4-9 7.3 11.3 17 32-10 11 5.3 5.3-2.8 2.7 6.5 7.3 3.6-.9 5.6-7.2 2.5-14 51.3 18.4-1.3 13.2 1.8.5 6-17.3 50.5-68.2 15.1-20 2.9-19.2-4-6.4-18.1-9.5-7.7-15.2 18-18.4-.2-2.8-1.5-1.5h-2.6l-18 17.6-28.1-5.7-14-10.3-13.2 2.4-74.3 45-5.6 5.5Z" clip-rule="evenodd"/><path fill="#1B60B1" fill-rule="evenodd" d="M1260.3 343.2v-15.3h-.8v16l16.4 2.6-.7-25 41.3-41.9-.5-.5-41.5 42.2.6 24.3-14.8-2.4Z" clip-rule="evenodd"/><path fill="#212A33" d="m1087.8 388.3 71.8-25.3 44 66.5-76 17.8-39.8-59Z"/><path fill="#1B60B1" fill-rule="evenodd" d="m1088 388 73.4-26 44.6 67.8-77.6 18.4L1088 388Zm1.3.4 39.5 58.9 76-18L1161 363l-71.8 25.4Z" clip-rule="evenodd"/><path fill="#1B60B1" fill-rule="evenodd" d="m1088 388.1 32-11.2 42.8 63-34.5 8.2-40.3-60Zm1.2.4 39.4 58.7 33-7.7-41.8-61.6-30.6 10.6ZM1123.3 375.5l36.2-13 43.4 68.2-37.4 8.9-42.3-64Zm1.2.4 41.3 62.8 35.8-8.5-42.4-66.7-34.7 12.4ZM1173.4 245.3l85.1 15.4 4 65.2-79.2-17-9.9-63.6Zm1 1 9.6 62 77.6 16.6-3.8-63.5-83.5-15.1ZM1161.2 166.1l90.3 11 6.3 75.5-85.6-15.2-11-71.3Zm.9 1 10.8 69.7 84 14.9-6.2-74-88.6-10.7Z" clip-rule="evenodd"/><path fill="#212A33" d="m1311.6 383.5-29 39.4-6.2 17.8-2.9-.8 1.3-13.4-8.2-34.7 45-8.3Z"/><path fill="#1B60B1" fill-rule="evenodd" d="m1265.1 391.4 46-9.1-29.8 40.2-6.5 18-3.5-1 1.5-13.5-7.7-34.6Zm1 .6 7.5 34-1.5 13 2.2.5 6.3-17.4 28.7-38.7-43.3 8.6Z" clip-rule="evenodd"/><path fill="#1B60B1" fill-rule="evenodd" d="m1309.2 383-34.8-51 .6-.5 34.9 51-.7.4Z" clip-rule="evenodd"/><path fill="#212A33" d="m1270.6 453.3 38.1-47.8 121.4 94.2-49.2 41.4-110.3-87.8Z"/><path fill="#1B60B1" fill-rule="evenodd" d="m1309.8 404.4 123 95.4-50.4 42.4-111.7-88.8 39.1-49Zm-38 48.9 110.6 87.9 49.1-41.4-121.5-94.3-38.2 47.8Z" clip-rule="evenodd"/><path fill="#1B60B1" fill-rule="evenodd" d="m1310.8 405.4 56.2 44-43.5 44.4-50-39.5 37.3-49Zm-36.2 48.7 48.9 38.7 42.3-43.3-55-43-36.2 47.6ZM1371.2 455.2l56.6 43.1-47.3 40.5L1329 498l42-42.8Zm-41 42.7 50.3 39.9 46-39.4-55.3-42.2-41 41.7Z" clip-rule="evenodd"/><path fill="#1B60B1" fill-rule="evenodd" d="m1352.3 425.2-10.5-83-.7.1 10.5 83 4.5 16 .8-.2-4.6-15.9Z" clip-rule="evenodd"/><path fill="#1B60B1" fill-rule="evenodd" d="m1319.8 372.5 33.4 54.9-.7.4L1319 373l.7-.4Z" clip-rule="evenodd"/><path fill="#212A33" d="m1308.5 351.4 11.7-11.4-19.2-34.5-11.8 11.6 19.3 34.3Z"/><path fill="#1B60B1" fill-rule="evenodd" d="m1287.2 319.1 12-11.7 19.2 34.4-11.8 11.5-19.4-34.2Zm1 .1 18.6 32.8 10.7-10.4-18.5-33-10.9 10.6Z" clip-rule="evenodd"/><path fill="#212A33" d="m1299.8 306.4 20.2-19.7 24.6 43.9-15.9 16.7-2.8-4.5-3.6 3.5-22.5-39.9Z"/><path fill="#1B60B1" fill-rule="evenodd" d="m1299.8 306.5 20.2-19.8 24.7 43.8-16 16.8-2.8-4.4-3.5 3.4-22.6-39.8Zm1 .1 21.8 38.5 3.4-3.4 2.8 4.4 15-15.7-24-42.4-19 18.6Z" clip-rule="evenodd"/><path fill="#212A33" d="m1340.9 306.8 10.1-8.7 6.2 10.1-3.7 7.5-12.6-9Z"/><path fill="#1B60B1" fill-rule="evenodd" d="m1340.9 306.8 11.5-10 5.8 10.3-4.4 8.3-13-8.6Zm1.2-.1 11.4 7.6 3.9-7.2-5.3-9.1-10 8.7ZM1287.2 317.2l12-11.7 20.5 35.7-11.8 11.5-20.7-35.5Zm1 .2 19.9 34 10.7-10.3-19.8-34.3-10.9 10.6Z" clip-rule="evenodd"/><path fill="#1B60B1" fill-rule="evenodd" d="m1299.8 306.4 20.2-19.7 25.3 44.5-16.6 16.1-2.8-4.4-3.5 3.5-22.6-40Zm1 .2 21.8 38.5 3.5-3.4 2.8 4.4 15.4-15-24.4-43.1-19.1 18.6Z" clip-rule="evenodd"/><path fill="#1B60B1" fill-rule="evenodd" d="m1320.1 290.4-19 18.6-.2-.2 19.1-18.5.1.1ZM1322 292.3l-19 18.6-.2-.2 19.1-18.6.1.2ZM1324 296l-19.1 18.7-.2-.2 19.1-18.6.2.2ZM1325.9 298l-19.1 18.6-.1-.2 19-18.6.2.2ZM1325.9 301.8l-19 18.6-.2-.2 19-18.6.2.2ZM1327.8 303.7l-19 18.6-.2-.2 19-18.6.2.2ZM1329.7 305.6l-19 18.6-.2-.2 19-18.6.2.2ZM1331.6 309.4l-19 18.6-.2-.2 19-18.6.2.2ZM1331.6 311.3l-19 18.6-.2-.2 19-18.6.2.2ZM1334.9 311.8l-20.4 20-.2-.2 20.5-19.9.1.1ZM1336.8 315.6l-20.4 20-.2-.2 20.5-19.9.1.1ZM1338.7 317.5l-20.4 20-.1-.2 20.4-20 .1.2ZM1338.7 321.3l-20.4 20-.1-.2 20.4-19.9.1.1ZM1339.3 324.6l-19 18.5-.2-.1 19-18.6.2.2ZM1342.6 325.1l-20.5 20-.1-.2 20.4-20 .2.2ZM1344.2 329.1l-16.4 16-.1-.2 16.3-16 .2.2Z" clip-rule="evenodd"/><path fill="#1B60B1" fill-rule="evenodd" d="m1323.8 344-21-40.5h.1l21.1 40.4h-.2ZM1329.7 346.1l-25-44.5h.1l25 44.5h-.1ZM1331.6 344.2l-25-44.5v-.1l25.2 44.5-.2.1ZM1333.5 342.3l-25-44.5v-.1l25.2 44.5-.2.1ZM1337.3 340.4l-25-44.5v-.1l25.2 44.5-.2.1ZM1339.2 336.6l-25.1-44.5.2-.1 25 44.5-.1.1ZM1341 334.7l-25-44.6h.2l25 44.5h-.1ZM1344.9 332.8l-25.1-44.6h.2l25 44.5h-.1ZM1302 308.5l-12.3 12-.2-.2 12.3-12 .2.2ZM1303.9 312.3l-12.3 12-.1-.2 12.2-12 .2.2ZM1305.8 314.2l-12.3 12-.1-.2 12.2-12 .2.2ZM1305.8 316l-12.3 12-.1-.1 12.3-12v.2ZM1307.7 319.9l-12.3 12-.1-.2 12.3-12 .1.2ZM1309.6 321.8l-12.3 12v-.2l12.2-12 .1.2ZM1311.5 323.7l-12.2 12-.2-.2 12.3-12 .1.2ZM1311.5 327.5l-12.2 12-.2-.2 12.3-12 .1.2ZM1313.5 329.4l-12.3 12-.2-.2 12.3-12 .2.2ZM1315.4 333.2l-12.3 12-.1-.2 12.2-12 .2.2ZM1317.3 335l-12.3 12-.1-.1 12.2-12 .2.2ZM1317.3 337l-12.3 12-.1-.2 12.2-12 .2.2ZM1319.2 340.8l-12.3 12-.1-.2 12.3-12v.2Z" clip-rule="evenodd"/><path fill="#1B60B1" fill-rule="evenodd" d="m1308.5 351.3-18.5-35 .2-.1 18.5 35-.2.1ZM1310.3 347.5l-18.4-35 .2-.1 18.4 35-.2.1ZM1314.2 345.6l-18.5-35 .2-.1 18.4 35-.1.1ZM1316 343.7l-18.4-35 .2-.1 18.4 35-.2.1Z" clip-rule="evenodd"/><path fill="#1B60B1" d="m1273.4 454.2 36.2-47.7c18.8 14.7 37.3 29.5 56 44.2-14.1 14.5-28 28.9-42.2 43.3-16.6-13-33.1-26.4-50-39.8Zm14 10.2 4 3 3.7 3 2.4-3c.4-.4.3-.9-.2-1-.7-.5-1.5-1.3-2.2-1.7-.4-.5-.8-.5-1 .1l-1.9 2.4-.6.3c0-.3 0-.6.2-.8l1.8-2.3c.2-.2.2-.8 0-1-.7-.7-1.6-1.3-2.5-2-.2 0-.6 0-.8.2-1 .7-1.8 1.8-2.8 2.8Zm26.4-53-3.8-3c-.4-.4-.7-.1-1 .2l-2.9 3.7c-.3.3-.3.6 0 .9l3.4 2.6c.3.3.6.3 1-.1a201.6 201.6 0 0 1 3.3-4.3Zm-4 5.3-3.7-3c-.1 0-.6 0-.8.2l-2.5 3.4c-.3.3-.2.8.1 1l3.3 2.5c.3.3.8.5 1-.1l2.6-3.4v-.6Zm-6.6 9.5 2.7-3.6c.1-.1 0-.6-.3-.9l-3.4-2.6c-.2-.2-.8-.2-.8.1l-2.6 3.4c-.1.2 0 .6.2.8l3.4 2.6c.2.2.6 0 .8.2Zm49.7 19.3 1.5-1.4c.3-.3.3-.6 0-1l-2.8-2.2c-.3-.3-.6-.3-1 .1-.8.7-1.4 1.6-2.1 2.4-1.4 1.6-1.4 1.6.2 3 .8.4 1.5 1.5 2.3 1.4.4-.2.9-1.2 2-2.3Zm4.3 3.9c.5-.8 1.1-1.4 1.6-1.8.3-.3.3-.6 0-.9l-2.9-2.3c-.1-.1-.7-.2-.9 0a36.8 36.8 0 0 0-3.3 3.5c-.1.2-.1.8.2.8.9.9 1.8 1.5 2.8 2.3.4.4.7.1 1-.2l1.5-1.4Zm-34.2-31-3.3-2.4c-.1-.2-.6 0-.7.1l-2.9 3.7c-.1.2 0 .6.2.8 1 .7 1.9 1.7 2.8 2.3h.9l2.8-3.7c.2-.2 0-.6.2-.8Zm20.7 20.4c.6-.6 1-1.4 1.5-1.8.3-.3.3-.6 0-.9-1-.8-2-1.7-3-2.1-.1-.2-.7-.2-.9 0-1 1-2 2.3-3 3.5-.3.3-.3.6.2 1 .8.6 1.9 1.4 2.6 2.2.5.4 1 .3 1-.2.5-.7 1.1-1.3 1.6-1.7Zm-16-15.5c-.8 1.2-1.8 2.4-2.8 3.4-.5.5-.5.8.1 1 1 .7 2 1.5 2.7 2.2.5.5.6.3 1-.1 1-1.2 1.9-2.4 3-3.4.4-.4.4-.7-.2-1-.9-.7-1.8-1.3-2.7-2.2-.4-.5-.7-.5-1 .1Zm9.3 6.8c-1 1.3-2.3 2.5-3.2 3.7-.4.4-.4.7.2 1 .9.7 1.8 1.6 2.7 2.2.1.1.7.2.9 0 1-1 2-2.3 3-3.5.3-.3.3-.6-.2-1l-2.8-2.4s-.4.2-.6 0Zm-4.5-3.7-3.1 4c-.2.2-.2.8 0 1 .8.8 1.8 1.4 2.8 2.2.1.2.7.2.9 0 1-1 2.1-2.3 3-3.5.2-.2.2-.8 0-1l-2.8-2.2c-.2-.5-.6-.3-.8-.5Zm12 12.5c-.7.6-1.1 1.4-1.6 1.8-.3.3-.3.6 0 1 1 .5 2 1.3 2.7 2 .3.4.6.4 1 0 1-1.3 2.2-2.4 3.2-3.5.3-.3.3-.6 0-.9-1-.7-2-1.3-2.8-2.3-.3-.3-.6-.3-1 .2-.5.7-1.1 1.3-1.6 1.7Zm17 14 1.4-1.6c.5-.5.6-.9 0-1.2l-2.5-2c-.4-.5-.9-.3-1.3.1-1.1 1-2 2.2-3 3.3-.5.4-.5.7 0 1 1 .6 2 1.4 2.8 2.2.3.3.7.1 1-.2l1.7-1.6Zm-50.2-35.9c1.2 1 2.3 1.7 3.2 2.3.1.2.6 0 .9-.2l2.8-3.7c.2-.2.2-.8 0-1-.9-.9-1.9-1.6-2.8-2.2-.1-.2-.6 0-.7 0l-3 3.8c-.4.4-.2.9-.4 1Zm15.9 4.8c-1-.7-2-1.4-2.9-2.3-.3-.3-.5-.3-1 .2-1 1.1-1.8 2.3-2.7 3.5-.3.3-.5.7.1 1 1 .7 2 1.4 2.7 2.2.3.3.8.2 1-.1 1-1.2 1.9-2.4 3-3.4 0-.5 0-.8-.2-1Zm-25 5-3.5-2.8c-.2-.2-.6 0-.8.1l-2.4 3.3c-.1.1-.1.7.2.7 1.1 1 2 1.9 3.2 2.5h1l2.4-3.3c-.2-.1-.2-.4 0-.6Zm-10.5 6 3.5 2.7c.4.4.8.3 1-.2l2.1-3c.3-.2.3-.5-.1-1l-3.3-2.4c-.3-.4-.6-.4-.9 0l-2.3 3v1Zm3.3 3.4-3.6-2.8c-.1-.1-.6 0-.7.2l-2.3 3c-.2.2 0 .7.1.8l3.2 2.6c.4.5.7.5 1-.1l2.1-3c.2-.1 0-.6.2-.7Zm53.3 14.5 1.5-1.5c.4-.4.4-.7-.2-1-.9-.6-2-1.4-2.7-2.2-.4-.4-.7-.1-1 .2-1 .8-1.8 2-2.7 3-.5.4-.5.7.1 1 1 .6 1.7 1.3 2.7 2.1.3.3.7.5 1-.1.3-.6.8-1 1.3-1.5Zm-12.7-10.3-1.5 1.8c-.3.3-.3.6.1 1 1 .7 2 1.4 2.7 2.2.3.3.8.2 1-.1 1-1.2 1.9-2.1 3-3.1.2-.3.2-.6 0-1-1.1-.7-2-1.3-2.9-2.2-.3-.3-.6-.3-1 .1l-1.4 1.3Zm-12.2-11.9-2.6 3.1c-.4.4-.4.7.2 1 .8.7 1.7 1.6 2.6 2.2.3.3.8.2 1-.1l2.8-3.3c.5-.4.2-.7-.1-1a19 19 0 0 1-2.7-2.2c-.5-.1-.8-.1-1.2.3Zm29.2 25.7 1.3-1.6c.3-.3.3-.6 0-.9-.9-.6-1.9-1.4-2.6-2.1-.3-.3-.6-.3-1 0-1.1 1.1-1.9 2.2-3 3.2-.4.4-.4.7.2 1l2.7 2.2c.3.3.9.3 1-.1a8 8 0 0 1 1.4-1.7Zm-36.9-26.3 2.8-3.5c.3-.3.3-.6-.2-1l-2.8-2.4c-.2-.1-.8-.2-.8.1-.9 1.2-1.6 2.3-2.7 3.3-.3.3-.3.6.2 1l2.6 2.2c.2.4.8.4 1 .3Zm16 6.2c-1-.8-1.9-1.4-2.8-2.4-.3-.3-.6-.3-1 .2-1 1.2-1.9 2-2.8 3.2-.3.3-.3.6.2 1 .9.7 1.8 1.6 2.7 2.2.3.3.9.3 1-.1l2.6-3.1c.6-.3.7-.7.1-1Zm25.3 23.5c.3-.6 1-1.2 1.4-1.6.3-.3.3-.6 0-.9l-2.8-2.3c-.2-.2-.8-.2-1 0l-2.8 3c-.4.5-.4.8.2 1.1l2.5 2c.4.5.9.3 1.3-.1l1.3-1.2Zm-25.6-20.9c-.6.6-1 1.4-1.5 1.8-.5.5-.5.8.1 1l2.6 2c.4.5.7.5 1 0 .8-1.1 1.7-2 2.5-2.7.7-.8.7-.8-.2-1.7l-1-.7c-2-1.4-2-1.4-3.5.3Zm12.2 10.5c.6-.6 1-1 1.5-1.8.2-.1.2-.7-.1-.8l-2.8-2.3c-.2-.1-.8-.1-.8.2l-2.9 3c-.4.5-.4.8.2 1.1.9.6 1.6 1.4 2.7 2.2.4.4.9.3 1-.2.5-.4.8-1 1.2-1.4Zm-23.5-15.8 2.8-3.7c.2-.1 0-.6-.1-.7l-2.8-2.3c-.2-.2-.6 0-.8.1-.9 1.2-2 2.2-2.6 3.4-.1.2-.1.8.2.8.7.7 1.8 1.5 2.7 2.1.1.5.4.5.6.3Zm23.8 23.9 1.5-1.5c.3-.3.4-.7 0-.9-1-.6-2-1.4-2.7-2.1-.4-.5-.9-.4-1 0-.7.7-1.3 1.3-1.7 2-1.5 1.8-1.5 1.8.3 3 2 1.4 2 1.4 3.6-.5Zm-29.8-35-3-2.4c-.2-.1-.7 0-.8.2l-2.5 3.2c-.4.4-.1.8.2 1l2.7 2.2c.3.3.6.3 1-.1l2.6-3.4-.1-.8Zm20.8 28.2 1.5-1.8c.3-.3.3-.6-.1-1-.9-.6-2-1.4-2.7-2.2-.4-.4-.7-.1-1 .2-.6.6-1 1.3-1.8 2-1.4 1.6-1.4 1.6.2 3 .8.5 1.4 1.4 2 1.4 1-.1 1.5-1.2 2-1.6Zm-15.5-15-2.2 2.8c-.5.5-.5.8 0 1.2.9.6 1.8 1.3 2.7 2.2.4.4.7.1 1-.2l2.7-3.2c.3-.3.3-.6-.1-1-1-.7-1.7-1.1-2.4-1.9-.8-.5-1.3-.5-1.6.1Zm25.2 22-1.5 1.4c-.4.4-.3.6.2 1l2.5 2c.4.5.9.4 1.3 0l1.7-1.7c1.7-1.6 1.7-1.6-.3-3-2-1.5-2-1.5-3.9.2Zm-32.8-22.6.5-.4 2.5-3.1c.2-.2 0-.6-.3-1a19 19 0 0 0-2.6-2c-.2-.2-.8-.2-1 0-.9 1-1.8 2-2.5 3.3-.2.2-.2.8.1.8l2.7 2.1c0 .3.3.3.6.3Zm18.8 12c.6-.5 1-1.1 1.5-1.7.5-.4.5-.7-.1-1-1-.7-1.8-1.3-2.7-2.2-.5-.5-.9-.3-1 .1-.7.6-1.1 1.4-1.7 2-1.5 1.7-1.5 1.7.4 3.1 2 1.7 2 1.7 3.6-.2Zm-6.4-8.3-2.9 3.4c-.3.3-.3.6.2 1a17 17 0 0 1 2.7 2.2c.4.5.9.3 1-.1l2.5-3c.4-.4.3-.9-.3-1.2-1-.6-1.7-1.4-2.6-2-.1-.4-.6-.3-.6-.3Zm15.2 15.3 1.4-1.6c.4-.5.4-.8-.2-1-.9-.7-1.8-1.3-2.5-2-.5-.5-1-.4-1 0-.7.6-1.1 1.4-1.7 2-1.8 2-1.7 1.6.3 3 2 1.5 2 1.5 3.7-.4Zm-54.6-10.2 3.5 2.8c.2.1.7 0 .8-.2.8-1 1.7-1.9 2.1-3 .2 0 .2-.7 0-.8l-3.1-2.6c-.3-.3-.8-.2-1 .1l-2.2 3-.1.7Zm67.9 20.5 1.5-1.5c.3-.3.4-.7 0-.9-1-.6-1.8-1.2-2.7-2.1-.5-.5-.9-.4-1.2 0l-1.8 1.7c-1.7 2-1.7 1.3.1 2.9 2.1 1.8 2.1 1.8 4-.1Zm-36.4-25.9c1-1.3 1.8-2.4 2.7-3.2.5-.5.3-1-.1-1-1-.7-1.7-1.5-2.6-2-.4-.5-.7-.3-1 0-.8 1-1.7 2.3-2.6 3.1-.3.3-.3.6.1 1l2.7 2.2c.2-.1.5-.1.8 0Zm-8.8-7a86 86 0 0 0 2.6-3.3c.3-.3.4-.7-.2-1l-2.7-2.2c-.4-.5-.7-.2-1 .1l-2.4 3.3c-.3.3-.2.7.1 1 .9.6 1.6 1.4 2.7 2.2h.9Zm28.4 27.5c-.3.3-.7.7-1 1.3-.3.3-.3.6 0 .9l2.6 2.1c.3.3.6.4 1 0l1.8-2c1.5-1.5 1.5-1.5-.3-3-2.3-1.4-2.3-1.4-4 .7Zm-4.9-3.9c.5-.4 1-1.2 1.4-1.6.4-.4.4-.7-.2-1l-2.5-2c-.5-.5-.8-.5-1.2 0-.8 1-1.7 1.8-2.6 2.7-.3.3-.3.6.2 1 .9.7 1.6 1.5 2.6 2.2.5.5.8.5 1-.1.5-.1.8-.7 1.3-1.2Zm13 10.3 1.5-1.5c.4-.4.4-.7-.2-1-.9-.6-1.8-1.2-2.6-2.2-.4-.3-.7-.3-1.1.2-.6.6-1.2 1.1-1.5 1.7-1.5 1.8-1.5 1.8.3 3 1.9 1.7 1.9 1.7 3.6-.2Zm-29.5-23.6c-.5.4-1 1.2-1.4 1.6-.4.4-.4.7.1 1 1 .7 1.8 1.6 2.7 2.2.2.1.8.2 1 0l1.4-1.8c1.5-1.7 1.5-1.7-.4-3.1-2-2-2-2-3.4 0Zm9.4 4.2c-1.2-1-2-1.7-3.2-2.3-.1-.2-.7-.2-.7.1-1 .9-1.7 2-2.6 3.1-.3.3-.3.6 0 1 1 .5 1.8 1.5 2.7 2 .2.2.8.2.9 0 .9-.8 1.7-1.8 2.6-3 .3-.3.1-.8.3-.9Zm-35.7 1.4-3.6-2.8c-.1-.1-.6 0-.7.2-.6.9-1.4 2-2.2 2.6-.3.3-.3.6.2 1l3 2.5c.3.4.7.2 1 0 .6-1 1.5-1.9 2.1-2.7 0-.3 0-.6.2-.8Zm22.7-11.7-3.1-2.3c-.2-.2-.6 0-.8.1-.7 1-1.8 2.1-2.4 3.3-.1.1 0 .6.2.7a19 19 0 0 0 2.6 2.2c.3.3.6.3 1 0 .7-1 1.6-2.2 2.5-3.1v-.9Zm17.4 13.7c-1.1-1-1.9-1.7-3-2.3-.2-.2-.8-.2-1 0-.9.8-1.6 1.9-2.7 2.9-.5.4-.3.6.1 1 1 .7 1.8 1.6 2.7 2.2.2.2.8.2 1 0 1-1 1.7-2 2.6-3.2l.3-.6Zm3.5 5.9c-.5.4-1 1.2-1.4 1.6-.5.5-.3.6.1 1l2.7 2.2c.3.3.6.3 1-.1.7-.6 1.1-1.3 1.7-2 1.8-2 1.7-1.3-.3-3-2-1.5-2-1.5-3.8.3Zm16.6 13.5s-.1-.2 0 0c.3-.6.8-1 1.4-1.6.5-.5.3-.6-.1-1-1-.7-1.7-1.5-2.6-2-.4-.5-.9-.4-1.2-.1-.9.9-1.6 2-2.5 2.8-.5.4-.5.7.1 1l2.7 2.2c.3.3.7.2 1-.1l1.2-1.2Zm-36.9-32.2-2.6 3.4c-.1.2-.1.8.2.8a17 17 0 0 0 2.7 2.1c.1.2.6 0 .7-.1 1-.9 1.8-2 2.6-3.1v-1l-2.7-2h-.9Zm-5-4.3-3.2-2.3c-.1-.1-.6 0-.8.2l-2.4 3.2c-.3.3-.3.6.2 1l2.7 2.2c.3.3.6.3.9 0l2.4-3.2c.3-.6.3-1 .1-1Zm-28 20.5c1.1.9 2.2 1.7 3 2.6.5.4.8.4 1-.1l2-2.6c.5-.4.2-.7 0-1-1.1-.8-2.2-1.5-3-2.5-.4-.3-.7-.3-1 0-.6 1-1.3 2-2 2.8-.2.3 0 .8 0 .8Zm57.2 13.5 1.5-1.5c.3-.3.3-.6 0-.9l-2.7-2.1c-.1-.2-.7-.2-.8 0-.7.6-1.3 1.1-1.6 1.7-1.3 1.7-1.3 1.7.3 3 1.7 1.7 1.7 1.7 3.3-.2Zm-32.3-28.3c-1 1.1-1.8 2.3-2.6 3.4-.1.1 0 .6.3.9l2.6 2c.4.4.7.1 1-.2l2.4-3c.3-.2.3-.5 0-.8-.9-.6-1.8-1.6-2.6-2.2a3 3 0 0 0-1.1-.1Zm9.3 13.2c1-1.2 2-2.2 2.8-3.3.3-.3.1-.7-.3-.9-1-.6-1.7-1.4-2.7-2.1-.3-.3-.6-.3-1 .1l-2.5 3v.9l2.7 2.1 1 .2Zm27.2 18.5 1.3-1.3c.6-.6.5-.8 0-1.4-.7-.3-1.3-1-1.7-1.4-1.5-1.2-1.2-1.2-2.4.3l-1 1c-1.8 1.6-1.8 1.6.2 3 2 1.7 2 1.7 3.6-.2Zm-12.7-10.3 1.2-1.2c.5-.4.5-.7-.1-1-1-.6-2-1.4-2.7-2.2-.4-.4-.7-.1-1 .2-.5.4-1 1.1-1.4 1.6-1.5 1.7-1.5 1.7.4 3.1 1.8 1.6 1.8 1.6 3.6-.5Zm-10.1-5c.9-1.2 2-2.2 2.7-3.2v-1c-.9-.9-1.8-1.5-2.8-2.2-.2-.2-.6 0-.8.1-1 1-1.8 2-2.7 3.2-.2.2 0 .6.1.8 1 .6 1.8 1.5 2.7 2.1.3.4.8.2.8.2Zm14.2 8.5a8 8 0 0 0 1.3-1.6c.5-.4.3-.6-.1-1l-2.7-2.2c-.3-.3-.6-.3-1 .1-.7.6-1.1 1.4-1.7 2-1.4 1.6-1.4 1.6.3 2.6 2.2 2 2.2 2 3.8.1Zm-9.6-5.6c.9-.8 1.5-1.7 2.3-2.5.3-.3.3-.6-.2-1-.9-.6-1.6-1.4-2.7-2.2-.3-.3-.6-.3-1 .2-.8 1-1.7 1.9-2.4 3-.5.4-.3.8.1 1 .8.4 1.4 1 2.1 1.5.9.6 1.5 1 1.8 0ZM1344 471l1.5-1.5c.4-.4.3-.6 0-1-1-.5-1.7-1.3-2.7-2-.3-.4-.6-.4-1 0l-1.9 1.8c-1.5 1.5-1.5 1.5.3 2.7 2.3 1.7 2.3 1.7 3.8 0Zm-35.2-25.6 2.4-3c.3-.2.3-.5-.1-1-1-.6-1.7-1.4-2.7-2.1-.3-.3-.6-.4-1 0-.8 1.1-1.6 2.2-2.5 3-.5.5-.5.8.1 1 1 .7 1.5 1.3 2.4 2 .6.5 1 .7 1.4.1Zm-8.7-6.5c1-1.1 1.8-2.3 2.6-3.4.2-.1 0-.5-.1-.7-.8-.8-1.7-1.4-2.7-2.2-.3-.3-.6-.3-1 .2l-2.3 3c-.2.2-.2.8.1 1.1.7.8 1.6 1.4 2.7 2.2.1-.2.4-.2.7-.2Zm31.4 29.6 1.6-1.5c.3-.3.3-.6-.2-1l-2.5-2c-.5-.5-.8-.5-1 0-1 1-1.7 2-2.5 2.7-.5.5-.5.8.2 1 .7.6 1.3 1.2 2 1.6 1 .8 1 .8 2 0-.2-.2.1-.5.4-.8Zm-22.3-15.1 2.5-3.1c.5-.5.3-.6-.1-1-.9-.7-1.6-1.5-2.5-2-.5-.5-.8-.6-1 0l-2.4 2.8c-.4.5-.4.8.2 1.1l2.5 2c0 .3.5.2.8.2Zm13 9.5c.8-.7 1.5-1.6 2.2-2.4.3-.2.5-.7 0-.9l-2.7-2.1c-.1-.2-.7-.2-.9 0l-2.5 2.8c-.5.4-.3.6.1 1 .8.5 1.3 1.1 2 1.6 1.1.7 1.1.7 1.9 0Zm10 5.9-.4.3c-1.3 1.6-1.3 1.6.3 3 1.8 1.5 1.8 1.5 3.6-.2l.5-.5c1.5-1.5 1.5-1.5-.3-3-2-1.4-2-1.4-3.8.4Zm-28.8-25.9-2.8-2.3c-.2-.1-.8-.2-1 0l-2.4 3c-.3.2-.3.5.2 1 .9.6 1.6 1.4 2.7 2.1.1.2.7.2.9 0 .9-.8 1.6-1.9 2.4-2.9 0-.3-.2-.7 0-.9Zm11.9 12.5-1.2 1.5c-.5.4-.6.9.1 1.4 1 .6 1.5 1.2 2.4 1.8.3.3.6.3 1-.1.7-.6 1.1-1.4 1.9-2.1 1.3-1.6 1.3-1.3-.3-2.4l-.3-.3c-2-1.7-2-1.7-3.6.2Zm-3-4.8c-.9 1.2-1.8 2-2.5 3-.3.4-.3.7.1 1.1l2.5 2c.3.3.6.3 1-.1l2.4-2.8c.4-.5.4-.8-.2-1l-2.5-2c-.2-.2-.5-.2-.8-.2Zm15 14.6c.4-.4 1-1 1.3-1.6.3-.3.3-.6 0-.9-1-.6-1.7-1.4-2.7-2.1-.2-.2-.8-.2-.9 0-.6.5-1 1-1.5 1.7-1.5 1.8-1.5 1.8.3 3 2 1.7 2 1.7 3.4 0Zm12.7 9.9 1.6-1.5c.3-.3.3-.6 0-.9-1-.6-1.7-1.4-2.6-2-.3-.3-.7-.4-1 .1l-1.7 1.7c-1.5 1.4-1.5 1.4.3 2.7 1.6 1.6 1.6 1.6 3.4-.1Zm-36.2-31.1c-.9 1.1-1.6 2.2-2.5 3-.3.4-.3.7.1 1.1 1 .6 1.7 1.4 2.4 1.9.4.4.7.4 1-.2.8-1 1.6-1.7 2.3-2.8.5-.4.5-.7-.1-1-1-.6-1.7-1.4-2.6-2 .2-.2-.3 0-.6 0Zm-8.3-6.8c-1 1.2-1.7 2.2-2.4 3.3-.3.3-.2.7.1 1 1 .6 1.7 1.4 2.5 2 .2.2.8.2.8-.1l2.4-3c.3-.3.3-.6-.1-1-1-.6-1.7-1.4-2.6-2-.1-.2-.6 0-.7-.2Zm-20.5 17.3 3.6 2.8c.3.3.6.3.9 0a16 16 0 0 1 2-2.5c.2-.3.2-.6-.2-1-1-.8-2-1.8-3.1-2.4h-1l-2.2 3.1Zm52.6 18.4.5-.4c1.2-1.5 1.2-1.5-.2-2.6-.7-.5-1.5-1.5-1.9-1.4-.8.2-1.4 1-2 1.6-1.5 1.8-1.5 1.8.3 3 1.6 1.4 1.6 1.4 3.3-.2Zm-8.3-6.8c.4-.4.7-1 1.2-1.4.4-.5.4-.8 0-1.2-1-.6-1.5-1.3-2.4-1.9-.5-.4-.9-.3-1 .2-.5.4-1 .8-1.3 1.4-1.5 1.8-1.5 1.8.5 3.2 1.5 1.5 1.5 1.5 3-.3Zm-14-8c.8-1.2 1.9-2.2 2.8-3.4.2-.2 0-.6-.1-.8l-2.7-2.1c-.2-.2-.8-.2-1 0l-2.2 2.8c-.1.1-.1.7.2.7.7 1 1.8 1.9 3 2.8Zm23 15a8 8 0 0 0-1.3 1.6c-.1.1-.2.7.1.7.8.8 1.7 1.4 2.7 2.2.2.1.8.2 1 0l1.4-1.5c1.7-1.6 1.7-1.6 0-3.1-2.3-1.7-2.3-1.7-3.8 0Zm-31.1-21.8 2.6-3v-1l-2.7-2.1c-.2-.2-.8-.2-1 0-.8.9-1.6 1.9-2.3 3-.2 0 0 .5.1.7a19 19 0 0 0 2.7 2.1c0 .3.4.2.6.3Zm17.3 12.4 2-2.3c.4-.4.4-.7-.2-1l-2.5-2c-.5-.5-.8-.2-1 .1-.7 1-1.6 1.8-2.3 2.5-.5.5-.2.8.1 1 .8.5 1.3 1.2 2 1.6 1 1 1 1 1.9 0Zm9 5.8.5-.6c1.4-1.6 1.3-1.1-.2-2.4-2.3-1.7-2.3-1.7-4 .4-1.5 1.6-1.5 1.6.2 3 1.8 1.2 1.8 1.2 3.4-.4Zm12.5 9.9 1.2-1.2c.4-.5.4-.8 0-1.2-.8-.5-1.5-1.3-2.3-1.7-.4-.5-.9-.3-1.3.1l-1.5 1.5c-1.5 1.5-1.5 1.5.1 2.8 2.1 1.3 2.1 1.3 3.8-.3Zm-35.8-31c-.9 1.2-1.6 2.2-2.4 3-.5.4-.2.7.1 1 1 .6 1.5 1.2 2.4 1.8.3.3.8.5 1 0l2.2-2.7c.4-.5.4-.8-.2-1.1-.9-.6-1.6-1.4-2.3-1.8-.2-.2-.5-.2-.8-.2Zm9.7 12.3 2.2-2.5c.5-.4.5-.7-.1-1l-2.4-1.9c-.4-.4-.7-.4-1 .1-.8 1-1.6 1.8-2.3 2.9-.5.4-.2.7.1 1l2.3 1.7c.4.2.9.3 1.2-.3Zm-14.5-16.6c-1-.8-1.9-1.4-2.6-2.1-.5-.5-1-.4-1.2.2-.6 1-1.3 1.8-2.2 2.7-.4.4-.4.7.2 1l2.5 2c.3.3.6.4 1 0l2.2-2.7c.1-.5.3-1 .1-1Zm28.3 32.6 1.4-1.3c.4-.4.3-.6 0-.9l-2.3-1.7c-1-.8-1-.8-1.8.3l-1 1c-1.4 1.6-1.4 1.6.2 3 2 1.4 2 1.4 3.5-.4Zm-8-6.4c0-.2.2-.3.4-.5 1.2-1.4 1.2-1.4-.3-2.7-.7-.4-1.3-1.3-2-1.4-.5 0-1.3 1-1.7 1.8-1.5 1.8-1.5 1.8.2 3 1.8 1.5 1.8 1.5 3.3-.2Zm-13.8-8.4c1-1.2 1.7-1.9 2.4-3 .5-.4.3-.5-.1-1l-2.5-2h-1c-.8.9-1.5 1.8-2 2.7-.4.3-.4.6 0 1 1 .6 1.7 1.4 2.6 2 .2.5.5.5.6.3Zm-5.6-10-2.8-2.3c-.2-.1-.6 0-.8.1l-2.3 2.9c-.3.2-.3.5 0 .9 1 .6 1.7 1.3 2.6 2h.9l2.2-2.8.2-.8Zm31.7 28 1.2-1.1c.5-.5.5-.8-.1-1-1-.7-1.7-1.5-2.6-2-.3-.4-.5-.4-1 0l-2.3 2.6c-.4.4-.4.7.2 1 .7.5 1.2 1 2 1.4 1 .8 1 .8 1.9-.1l.7-.7Zm-21.6-14.9c.7-1 1.5-1.8 2.3-2.5.4-.4.4-.7-.2-1l-2.5-2c-.3-.4-.6-.4-1 0-.7 1-1.6 1.8-2.2 2.7-.4.5-.4.8.1 1l2.3 1.8c.4.4.7.4 1.2 0Zm27.6 16.6-3.4-2.6c-.2-.2-.6 0-.8 0l-2.4 2.7c-.2.2-.2.8 0 1 .7.7 1.6 1.3 2.5 2 .2 0 .6.2.8.1l3.3-3.2Zm-14.3-8.1 1.3-1.3c.3-.3.3-.6 0-1-.9-.5-1.6-1.3-2.5-2h-.9c-.5.5-1 1-1.4 1.7-1.3 1.6-1.3 1.6.2 2.8 1.8 1.6 1.8 1.6 3.3-.2Zm-10.5-11-2.4 3c-.4.4-.3.6.2 1l2.5 2c.5.5.8.2 1-.1.7-1 1.6-1.8 2.3-2.5.3-.3.3-.6 0-1-.9-.5-1.6-1.3-2.5-2-.5-.4-.9-.2-1-.4Zm-8.9-7.4-2.8-2.3c-.2-.1-.6 0-.8.2-.9.9-1.6 1.9-2.4 3-.1 0 0 .5.2.7.7.7 1.6 1.4 2.6 2.1.2.2.6 0 .8-.1.9-.9 1.5-1.8 2.3-2.8.3-.3.3-.6.1-.8Zm-8.2-6.6-2.8-2.3c-.2-.1-.6 0-.8.2-.7 1-1.5 1.7-2.2 2.8-.2.1-.2.7 0 .9.7.7 1.6 1.4 2.5 2 .1.1.7.1.8-.2.8-.8 1.5-1.7 2.2-2.8.3 0 .2-.4.3-.6Zm28 32.3.3-.2c1.3-1.7 1.3-1.7-.2-2.9-1.8-1.5-1.8-1.5-3.6.2-1.5 1.8-1.5 1.8.2 3.2 1.8 1.5 1.8 1.5 3.3-.3Zm-8-6.4.4-.4c1.3-1.7 1.5-1.2-.3-2.7-.6-.7-1.3-1.4-2-1.4-.7.1-1.2 1.1-1.8 1.7-1.3 1.7-1.3 1.7.3 3 1.7 1.4 1.7 1.4 3.3-.2Zm-15-13.8c-.6 1-1.3 1.6-2 2.5-.4.5-.4.8.2 1l2.4 2c.3.2.6.2.9 0 .6-1 1.5-1.8 2.1-2.7.5-.4.3-.6-.1-1l-2.3-1.8c-.3-.6-.9-.6-1.2 0Zm-10.1-3.2 2.6 2.2h1c.7-.7 1.5-1.8 2-2.7.4-.3.4-.6 0-1-1-.6-1.7-1.4-2.6-2-.3-.3-.6-.3-1 .3-.5.9-1.4 1.7-2 2.6-.2.2 0 .6 0 .6Zm37 26.7.5-.5c1.6-1.4 1.6-1.1 0-2.5-2.2-1.6-2.2-1.6-4 .2-1.5 1.5-1.5 1.5.3 3 2 1.4 2 1.4 3.3-.2Zm-22.5-20.5c-1 1.1-1.7 1.9-2.3 2.8-.3.3-.3.6.1 1 1 .6 1.5 1.2 2.4 1.9.5.4.8.4 1.2 0 .6-1 1.4-1.6 2.3-2.5.3-.3.3-.6-.2-1-.9-.7-1.6-1.5-2.5-2-.3-.4-.8-.2-1-.2Zm3 4.5-1.1 1.3c-.5.5-.5.8 0 1.2.7.5 1.4 1.3 2.2 1.7.4.5.7.5 1-.1.8-.7 1.4-1.6 2.3-2.5.5-.4.3-.9-.1-1-.5-.2-1-.7-1.2-1-1.7-1.4-1.7-1.4-3.2.4Zm10.6 10.4c.8-.7 1.4-1.6 2-2.2.5-.4.5-.7-.2-1-.8-.7-1.4-1.3-2.3-1.9-.3-.3-.6-.3-1 .1l-2.4 2.5c-.3.3-.3.6.2 1 .7.6 1.3 1.2 2.2 1.8.6.3 1 .4 1.5-.3Zm13 8.8 1.4-1.3c.1-.2.1-.8-.2-.8-.7-.7-1.6-1.4-2.5-2h-1l-1.4 1.5c-1.5 1.4-1.5 1.4.1 2.8 2.3 1.4 2.3 1.4 3.6-.2Zm-33.7-24.3 2.4-3c.2-.1.2-.7 0-.9-.7-.7-1.6-1.4-2.5-2-.3-.3-.6-.3-1 .2-.7.8-1.6 1.7-2.2 2.6-.3.3-.3.6.2 1l2.4 2h.7Zm-5.8-10.2-2.6-2.1c-.2-.2-.8-.2-.8.1-.8.7-1.5 1.8-2.1 2.7-.3.3-.2.7.1 1 1 .6 1.7 1.4 2.4 1.9.2.1.8.1.8-.2.9-.9 1.5-1.7 2-2.6.4-.3.4-.6.2-.8Zm22.9 30.7 3.3 2.5c.1.1.6 0 .7-.1.8-.8 1.7-1.7 2.3-2.5.3-.3.3-.6 0-1l-2.5-2h-1c-1 1-1.7 2.1-2.8 3.1Zm-8-6.4 3 2.4c.2.3.5.4.8 0 .8-.7 1.4-1.6 2.1-2.3.5-.4.5-.7-.1-1l-2.5-2c-.2-.2-.8-.2-1 0-.7 1-1.4 2-2.4 2.9Zm12 9.7c1 .7 2 1.6 3.2 2.3.1.1.5 0 .7-.2l2.3-2.2c.4-.4.4-.7-.2-1-.9-.6-1.6-1.4-2.4-1.9h-.9c-.9.9-1.6 2-2.7 3Zm-8-6.5c1 .8 2.2 1.7 3.1 2.6.1.2.6 0 .8-.1.7-.8 1.6-1.6 2.2-2.5.2-.2.2-.8 0-1-.7-.7-1.6-1.3-2.7-2-.1-.2-.5 0-.5 0l-3 3Zm-8.7-6.8 2.6-3c.2-.2 0-.6-.1-.8-.8-.8-1.7-1.4-2.6-2-.3-.3-.6-.3-1 .1l-2.4 3 3.5 2.8Zm25.7 17.6.4-.4c1.4-1.3 1.4-1.3 0-2.6-2.2-1.5-2.2-1.5-3.7.3-1.5 1.4-1.5 1.4.3 3 1.5 1.2 1.5 1.2 3-.3Zm-25-17 3 2.5c0 .2.5 0 .7-.1l2.2-2.5c.3-.3.3-.6 0-1-.9-.5-1.6-1.3-2.5-2h-.9c-1 1-1.7 2-2.6 3.2Zm-16-12.7c1 .8 2 1.9 3.1 2.6.2.2.6 0 .6 0l2.1-2.6c.2-.2 0-.6-.1-.8l-2.5-2c-.2-.1-.8-.1-.8.2-.8.4-1.5 1.4-2.4 2.6Zm-.6-.6c.7-1 1.7-2 2.3-3.1v-.9c-.8-.8-1.7-1.4-2.6-2-.1-.1-.6 0-.7.1l-2.4 3.3 3.4 2.6ZM1371.3 455.1c18.7 14.5 37.7 28.8 56.5 43.2l-3 2.7-9.5 8c-5.3 4.6-10.6 9.2-16 13.6l-13.6 11.4-4.7 4c-.4.4-.6.2-1.2 0l-14-11.2a827 827 0 0 0-16.7-13.2l-15.4-12.1c-1.5-1.3-3-2.5-4.7-3.7 14.3-14.3 28.4-28.5 42.3-42.7Zm-16.3 55.5c-1.2-1-2.1-1.9-3.3-2.5h-.9l-2.3 2.2c-.1.2-.4.2-.6.3l-.3-.3 3.2-3c-1.2-1-2.2-1.8-3.3-2.5a.5.5 0 0 0-.5 0l-3.2 3 7.7 6.1 3.5-3.3Zm12-50.2c1.5 1.3 3.1 2.3 4.5 3.4l4.2-4.1-4.5-3.4-4.2 4.1Zm0 8 4-3.9-4.4-3.3-4 3.8c1.7 1 3 2.1 4.5 3.4Zm46.2 27.3 3.7 3h.6c1.5-1.2 2.8-2.6 4.3-3.7l-3.7-3c-.1 0-.6 0-.7.2a44 44 0 0 0-4.2 3.5Zm-54.6-26.4 3 2.4c1.4 1.2 1.4 1.2 2.6-.2l2.6-2.5-4.5-3.4-3.7 3.7Zm58.5 22-3.7-2.9h-.6a50.8 50.8 0 0 0-4.2 3.8c1.3 1.1 2.6 2.2 4.1 3a55 55 0 0 1 4.4-3.9Zm-13-2.4 3.6 2.7c.1.2.6 0 .7-.1l3-2.5 1-1-3.6-2.8h-.9l-3.8 3.7Zm13.7 10.3c1.3 1.1 2.6 2.2 4.1 3l4.7-3.9-3.6-2.7c-.1-.2-.7-.2-.9 0-1.5 1.1-2.7 2.3-4.3 3.6Zm-10.2-15.2-3.5-2.7c-.2-.2-.5-.2-.6 0l-4 3.8 3.6 2.7c.2.2.6 0 .6 0l4-3.8Zm-13.7-10.5-3.6-2.7c-.1-.2-.4-.2-.6 0l-4 4 3.8 3 4.4-4.3Zm9.1 7-3.5-2.7c-.2-.2-.5-.2-.6 0l-4 3.8 3.6 2.7c.2.2.6 0 .8-.1l3.8-3.7Zm-4.5-3.5c-1.4-1-2.5-2-4-2.9l-4.3 4.1 3.6 2.8h.6l4-4Zm-9-6.8-2.1-1.5c-2-1.4-2-1.4-3.6.2l-2.6 2.5 3.6 2.7c.1.2.6 0 .6 0l4-4Zm-4.7-3.5-3.5-2.8h-.6l-4 3.9 4 3 4.1-4.1Zm-26.2 10.2 3.8-3.7c-1.5-1.2-3-2.1-4.3-3.2l-3.8 3.7c1.5 1.2 3 2.1 4.3 3.2Zm21.7-13.7c-1-.8-2-1.4-2.7-2.1-1.6-1.1-1-1.1-2.2 0l-3.2 3.2 3.5 2.7c.2.1.6 0 .8-.1l3.8-3.7Zm-25.8 18 3.8-3.7a38 38 0 0 0-4.3-3.2l-3.8 3.7c1.5.9 3 2.1 4.3 3.2Zm62 18-3.6-2.9c-.2-.1-.6 0-.8.2-.4.4-.9.9-1.5 1.1l-2.4 2.1 3.5 2.7c.2.2.6 0 .8-.1 1.5-.9 2.7-1.7 4-3Zm-4.5-3.5-3.7-2.9h-.6c-1.4 1-2.6 2.2-4 3.6l3.8 2.8c.1.2.5 0 .7 0 1.2-1.3 2.4-2.1 3.8-3.5Zm9.2 7-3.6-2.7c-.1-.2-.4-.2-.6 0-1.4 1-2.6 2.2-4 3.4 1.3 1 2.4 2 3.6 2.8.2.2.6 0 .8 0 1.2-1.3 2.4-2.1 3.8-3.5Zm-13.8-10.5-3.6-2.7c-.1-.2-.4-.2-.6 0l-3.7 3.7 3.4 2.5c.1.2.6 0 .7 0 1.2-1.3 2.4-2.1 3.8-3.5Zm-26.3-13 3.6 2.7c.1.2.4.2.6 0l3.8-3.7-3.6-2.7c-.2-.2-.5-.2-.6 0l-3.8 3.7Zm17 5.9-3.4-2.6c-.2-.2-.6-.3-.8-.2l-3.8 3.7 3.5 2.6h.6c1.5-1.2 2.7-2.3 3.9-3.5Zm4.6 3.5-3.5-2.6c0-.2-.4-.2-.7-.2l-3.8 3.7 3.9 3 4-4Zm-56.5-6.7c1.6 1.4 3 2.5 4.4 3.4l3.6-3.5c-1.3-1.1-2.6-2.2-3.8-3-.2-.2-.6-.1-.8 0l-3.4 3.1Zm70.1 25-3.5-2.8c-.2-.2-.5-.2-.6 0-1.4 1-2.6 2.2-4 3.4l3.6 2.9h.6c1.2-1.2 2.4-2.4 4-3.6Zm-9.1-7-3.8-3h-.5c-1.4 1-2.6 2.2-4 3.6l3.7 2.9h.6c1.2-1.2 2.6-2.2 4-3.6Zm-3.7 4 3.6 2.8c.1.2.6.3.7.2 1.4-1 2.6-2.2 4-3.4l-3.6-2.9c-.2-.2-.5-.2-.6 0l-4 3.4Zm-10-22.3-3.6-2.8h-.6l-3.7 3.7 3.8 3 4-4Zm1.2 15.7c1.1.9 2.2 1.6 3.3 2.6h.7a43 43 0 0 0 3.9-3.6l-3.6-2.7c-.1-.2-.4-.2-.6 0l-3.8 3.7Zm-19-29.4-3.7-2.9c-.1-.2-.4-.2-.6 0l-3.6 3.5 3.6 2.8h.6c1.2-1 2.4-2 3.7-3.4Zm18.4 28.8 3.9-3.9-3.4-2.5c-.2-.2-.5-.2-.6 0l-3.8 3.6c1.2.6 2.5 1.7 3.9 2.8Zm-.7-7.4-3.4-2.5c-.2-.2-.5-.2-.6 0l-3.8 3.6 3.4 2.6c.2.2.5.2.6 0l3.8-3.7Zm-9-14.6-3.5-2.7c-.1-.2-.4-.2-.6 0l-3.8 3.7 3.6 2.7c.1.2.6 0 .7-.1l3.7-3.6Zm4.6 11.3-3.6-2.7c-.1-.2-.4-.2-.6 0l-3.6 3.5 3.8 3 4-3.8Zm-38.8-.3-3.9-3c-.1-.2-.4-.2-.6 0l-3.2 3.4 4.2 3.3c1-1.3 2.1-2.4 3.5-3.7Zm22-13.5c.8.4 1.4 1 2 1.3 2 1.6 2 1.6 3.6-.2l2.2-2.2-3.8-3c-1.4 1.6-2.6 2.7-4 4Zm4.5 11.2 3.5 2.6c.1.2.5.3.7.2l3.6-3.6a207 207 0 0 0-3.4-2.5c-.1-.2-.6 0-.6 0l-3.8 3.3Zm30.2 24-3.5-2.7h-.6l-4 3.2 3.6 2.8h.6c1.3-1 2.6-2 4-3.3Zm4.6 3.5-3.5-2.7h-.7c-1.3 1-2.5 2.2-3.9 3.2l3.9 3 4.2-3.5Zm-73-20.9 4.1 3.4 3.5-3.4-4.2-3.4-3.4 3.4Zm56 14.6 3.5 2.7c.1.2.4.2.6 0 1.3-1 2.5-2.2 3.7-3.4l-3.5-2.7h-.6l-3.8 3.4Zm-22.3-24.7 3.5 2.8h.6l3.6-3.6-3.5-2.7h-.6l-3.6 3.5Zm-8.8-6.8 3.9 3 4-3.8-3.6-2.7c-.2-.2-.5-.2-.6 0l-3.7 3.5Zm34.5 27.5-3.6-2.7a.5.5 0 0 0-.6 0l-3.4 3.3 3.4 2.6c.1.2.4.2.6 0l3.6-3.2Zm-22.3-25-3.5-2.7h-.6a1107 1107 0 0 0-3.6 3.5l3.8 3 4-3.8Zm17.6 21.3-3.4-2.5c-.2-.2-.5-.2-.6 0a1107 1107 0 0 0-3.7 3.5l3.4 2.6c.2.1.6 0 .8-.2 1.3-1 2.3-2.2 3.5-3.4Zm-4.3-3.4-3.7-3-3.8 3.7 3.5 2.8h.6c1-1.2 2-2.2 3.4-3.5Zm9.9 21.9.1.1 2.4 1.9c1.2.9 1.2.9 2.5-.2l2.9-2.4-3.6-2.8c-.1-.1-.6 0-.7.2l-3.6 3.2Zm-22-24.4 3.6 2.8h.6l3.6-3.5-3.4-2.6c-.2-.2-.5-.2-.6 0-1.4 1-2.6 2.2-3.8 3.3Zm25.4 20.4c-1.1-1-2.3-1.8-3.5-2.7-.2-.2-.5-.2-.8-.2-1.3 1-2.5 2.2-3.7 3.4l3.4 2.6h.9l3.7-3.1Zm-4.4-3.3-3.5-2.8h-.6c-1.4 1-2.5 2-3.7 3.2l3.6 2.8c.1.1.6 0 .7-.2l3.5-3Zm-25.4-20.4 3.5 2.7c.2.2.5.2.6 0l3.6-3.5c-1.1-1-2.3-1.8-3.4-2.6h-.6c-1.5.9-2.4 2-3.7 3.4Zm21 17-3.6-2.7c-.1-.2-.4-.2-.6 0l-3.5 3.3 3.5 2.6c.1.2.5 0 .7-.1 1-1 2.1-2 3.5-3Zm-17.8-21.3-3.7-2.9-3.8 3.7 3.7 2.9 3.8-3.7Zm-8.8-6.8-3.5-2.8h-.6l-3.5 3.4 3.6 2.7c.1.2.4.2.6 0l3.4-3.3Zm-28.6 14-3.5 3.4 3.8 3c.2.2.5.2.6 0 1-1 2.2-2 3-3.2l-4-3.2Zm34.2 4.4 3.4 2.6h.6l3.5-3.4-3.4-2.6c-.1-.1-.6-.3-.7-.1-1.1 1.3-2.2 2.3-3.4 3.5Zm8.8 6.8 3.7 3 3.7-3.7c-1.1-1-2.2-1.7-3.4-2.6-.1-.2-.4-.2-.6 0l-3.4 3.3Zm-17.5-13.6 3.6 2.7c.1.1.4.2.6 0l3.6-3.5-3.4-2.6c-.2-.2-.5-.2-.6 0a43.5 43.5 0 0 0-3.8 3.4Zm0-7.4c1.1 1 2.3 1.9 3.3 2.6.2.2.5.2.7 0l3.6-3.5-3.9-3a47 47 0 0 1-3.8 4Zm-4.3 4.2 3.4 2.6h.6l3.5-3.4-3.7-3-3.8 3.8Zm17.3 13.5 3.7 2.9 3.8-3.7-3.7-2.9-3.8 3.7Zm25.3 20.2-3.5-2.7c-.2-.2-.5-.2-.6 0l-3.8 3 3.4 2.6c.1.2.4.2.6 0 1.4-.7 2.7-1.7 4-2.9Zm-4.4-3.3-3.6-2.8h-.6c-1.3 1-2.4 2-3.6 3.3l3.4 2.5c.1.2.6 0 .9 0 1-1 2.3-1.9 3.5-3Zm-12-3 3.3 2.5c.2.2.5.2.6 0 1.4-1 2.4-2 3.6-3.2l-3.4-2.6h-.6l-3.6 3.3Zm-10-21.4-2.2-1.7c-1.5-1.2-1.5-1.2-2.8.2l-2.4 2.3c1.1 1 2.2 1.7 3.3 2.6.2.1.8.2 1 0 .8-1.2 2-2.2 3.1-3.4Zm13.3 17.5-3.6-2.7c-.1-.2-.5-.2-.6 0l-3.5 3.4 3.4 2.5c.2.2.6 0 .6 0l3.6-3.2Zm-17.7-13.5c-1.1-1-2.3-1.8-3.4-2.6-.1-.2-.4-.2-.6 0l-3.4 3.4 3.4 2.6h.6l3.4-3.4Zm-4.1-3.4-3.4-2.5c-.2-.2-.6 0-.6 0l-3.3 3.2 3.4 2.6h.6l3.3-3.3Zm-36.2 6 3.9 3.1c.1.2.4.2.6 0l3.1-3-3.8-3.1c-.2-.2-.5-.2-.6 0l-3.2 3Zm27.8-13.1 3.8-3.7-3.7-2.9-3.8 3.7 3.7 2.9Zm25.6 20.5-3.7-2.9-3.8 3.7 3.4 2.6h.6l3.5-3.4Zm-29-16 3.5 2.5c.1.2.4.2.5 0l3.5-3.4-3.4-2.5c-.1-.2-.6 0-.6 0l-3.5 3.3Zm17.2 13.3 3.4 2.6c.1.2.4.2.6 0l3.5-3.4-3.3-2.4c-.1-.2-.6 0-.7.1l-3.5 3.1Zm-21.4-16.6 3.7 3 3.6-3.6-3.7-2.9-3.6 3.5Zm38.6 37.3 3.6 2.8h.6l3.7-3.1c-1.1-1-2.3-1.8-3.4-2.6-.1-.2-.4-.2-.6 0a19 19 0 0 0-3.9 3Zm3.3-3.8-3.5-2.8h-.6c-1.2 1-2.4 2-3.6 3.3l3.4 2.6h.6l3.8-3.1Zm-11.9-2.9 3.6 2.8h.6c1.2-1 2.4-2 3.6-3.3l-3.5-2.7c-.2-.2-.5-.2-.6 0-1.4 1-2.5 2-3.7 3.2Zm-4.1-3.3c.8.4 1.3 1 2 1.5 1.5 1.2 1.5 1.2 3.2-.1.8-.7 1.5-1.5 2.4-2l-3.4-2.6c-.1-.2-.7-.2-.9 0l-3.3 3.2Zm-14.1-17.2-3.4-2.6c-.2-.2-.5-.2-.6 0l-3.3 3.2 3.7 2.9 3.6-3.5Zm9 6.2 3.8-3.7-3.4-2.6h-.6l-3.5 3.4c1.2 1 2.4 1.8 3.7 3Zm-4.7-3-3.7-3-3.7 3.6 3.5 2.6h.5l3.4-3.2Zm12.7 10-3.3-2.4c-.1-.2-.4-.2-.6 0l-3.4 3.3 3.7 3c1.2-1.6 2.4-2.7 3.6-4Zm-7.8.2 3.7-3.6-3.3-2.4-.8-.1-3.3 3.2 3.7 2.9Zm-4.4-3.4 3.6-3.5-3.4-2.6h-.6l-3.3 3.2 3.7 3Zm13.5 17.5 3.6 2.8h.6l3.6-3-3.4-2.5c-.2-.2-.6 0-.6 0-1.7.7-2.7 1.7-3.8 2.7Zm4.1 3.4 3.5 2.6h.5c1.3-.9 2.5-2 3.7-3l-3.4-2.5c-.2-.2-.6 0-.6 0-1.2.8-2.3 1.9-3.7 2.9Zm-8.5-6.7 3.4 2.6h.6c1.2-.9 2.2-2 3.4-3.1a207 207 0 0 0-3.4-2.6h-.6c-1 1-2 2-3.4 3Zm-18-20.3-3.3-2.4c-.1-.2-.4-.2-.5 0l-3.4 3.2 3.3 2.5c.1.1.6 0 .7-.2l3.2-3Zm17.6 13.6-3.6 3.5 3.2 2.4c.2.2.5.2.6 0 1.2-.8 2.3-1.9 3.5-3l-3.7-3Zm-12.2-3.2c1.2 1 2.2 1.7 3.3 2.4.1.2.4.2.6 0l3.3-3.2-3.6-2.7-3.6 3.5Zm7.8 6.2 3.7-3.5-3.3-2.4c-.1-.2-.6-.3-.7-.2l-3.4 3.2 3.7 3Zm-20.7-23.4 3.7 2.9 3.6-3.5-3.4-2.6c-.2-.2-.6 0-.8.1l-3.1 3.1Zm-.6-.3 3.6-3.5-3.5-2.8-3.7 3.6 3.6 2.7Zm9.4 14.2 3.2 2.4c.2.1.5.2.6 0l3.3-3.2-3.2-2.5h-1c-.8 1.2-1.9 2.2-3 3.3Zm24.4 19.9-3.5-2.6c0-.2-.5-.3-.7-.2-1.2.9-2.3 2-3.5 3.1l3.4 2.6h.6c1.2-.9 2.3-2 3.7-3Zm-11.8-3 3.4 2.5c.2.2.5.2.6 0 1.2-.8 2.3-1.9 3.5-3l-3.4-2.6c-.2-.2-.5-.2-.6 0-1 1-2.4 2-3.5 3Zm-9.6-20.8-3.3-2.4c-.1-.2-.4-.2-.6 0l-3.3 3.2 3.3 2.5c.1.1.6 0 .7-.2l3.2-3Zm25.5 27.1-3.4-2.6h-.6l-3.6 3 3.4 2.5c.1.2.6 0 .6 0l3.6-2.9Zm-41.3-33 3.5 2.6c0 .2.4.2.5 0l3.4-3.2-3.4-2.6c-.2-.2-.6 0-.6 0l-3.4 3.2Zm28.6 23-3.4-2.6c-.2-.2-.5-.2-.6 0l-3.3 3.2 3.2 2.4c.2.2.5.2.6 0 1-1 2.3-1.8 3.5-3Zm-32.7-26.3 3.7 2.9 3.5-3.4c-1.2-1-2.3-1.7-3.3-2.4-.1-.2-.6 0-.9 0l-3 2.9Zm28.2 23-3.2-2.5c-.2-.2-.5-.2-.6 0l-3.3 3.2 3.2 2.5h.6l3.3-3.3Zm-15.6-6.1 3.3 2.4c.1.2.4.2.6 0l3.2-3-3.4-2.7h-.6l-3 3.3Zm-4-3.2 3.3 2.4c.2.2.5.2.6 0l3.3-3.2-3.5-2.7-3.7 3.5Zm12 9.3 3.5-3.4-3.5-2.8-3.5 3.4 3.5 2.8Zm-17.3-19.7-3.3-2.4c-.2-.2-.5-.2-.6 0l-3.2 3 3.7 3c1-1.4 2.1-2.4 3.4-3.6Zm33.6 33.3-3.4-2.6h-.6l-3.3 3 3.4 2.6h.6c1-1 2-2 3.3-3Zm-4.1-3.3-3.5-2.6-.4-.2-3.5 3.1 3.3 2.5h.6c1-.8 2-1.8 3.5-2.8Zm-32.6-26.2 3.3 2.5h.6l3.1-3.1-3.5-2.7-3.5 3.3Zm41 32.7-3.4-2.6h-.6l-3.3 3 3.2 2.4c.2.2.5.2.6 0l3.5-2.8Zm-12.7-9.7-3.5-2.6h-.5l-3.2 3 3.2 2.5c.2.2.5.2.6 0l3.4-3Zm-12-9.6-3.5 3.4 3.3 2.4c.1.2.4.2.6 0l3.1-3-3.5-2.8Zm4.1 3.4-3.5 3.3 3.3 2.5h.6l3.2-3.1-3.6-2.7Zm-4.9-3.8-3.5-2.8-3.5 3.4 3.6 2.7 3.4-3.3Zm-11.2-9.8 3.4 2.6c.2.2.5.2.6 0l3.3-3.2-3.2-2.4c-.2-.2-.5-.2-.6 0-1.4 1-2.4 2-3.5 3Zm-8 .7 3.6 2.7 3.5-3.4-3.5-2.7-3.5 3.4Zm3-3.7-3.6-2.8-3.4 3.4c1.1 1 2.2 1.7 3.2 2.5h.6l3.2-3.1ZM1201 429.8c-.1.2-.4.5-.7.5l-35.3 8.2c-.4.2-.6 0-.9-.3-6.6-10.2-13.3-20-20-30.2l-21-31.5-.2-.6c.1-.2.4-.1.6-.3l34-11.7c.4-.1.7-.1.8.3l14.2 21.8 28.4 43.7.1.1Zm-59.3-27.4c.9-.2 1.8-.5 2.8-1-.9-1.5-1.8-2.7-2.8-4-.1-.2-.4-.2-.4-.2-.8.1-1.2.3-1.8.6-.5.1-.8 0-.8-.5l2.7-.9c-.9-1.5-2-2.8-2.8-4-.1-.2-.3-.4-.4-.2l-2.8.8c.2.2.2.2.2.5l3.7 5.6c.6 1 1.5 2.1 2.4 3.3l3 4.7.4.3 2.7-.8c-1-1.2-1.5-2.4-2.4-3.6-.7-1.1-.4-1.1-1.8-.7l-.9.3c-.3.3-.9.3-1-.2Zm16.3-31-3.4-5.3-.5-.2-2.8 1 3.4 5.4c.1.1.3.3.4.1l2.9-1Zm-3.5 1.3-3.4-5.3c-.1-.2-.3-.3-.4-.2l-2.9 1 3.4 5.3s.1.2.5.2l2.8-1Zm-10-3.3c-.2.1 0 .3 0 0l3.3 5.1c.1.2.3.3.4.2l2.8-1-3.3-5.3c-.2-.2-.3-.3-.5-.2-.9.6-1.8.9-2.7 1.2Zm17 .7-3.5-5.3c-.1-.1-.3-.3-.4-.1-1 .2-1.8.5-2.9 1l3.4 5.3.5.1a34 34 0 0 0 2.8-1Zm-20.5.6 3.3 5.1c.1.2.3.3.4.2l2.9-1-3.4-5.3c-.2-.2-.3-.3-.5-.2-.9.6-1.8.9-2.7 1.2Zm-3.4 1.3 3.4 5c.1.1.3.3.4.1l2.7-.8a267 267 0 0 1-3.2-5.2l-.5-.1c-.9.2-1.8.5-2.8 1Zm3.2 5.4c-1-1.7-2-3.3-3.4-5-.1-.2-.3-.3-.4-.2l-2.7.9c1.2 1.8 2.2 3.5 3.4 5 .1.2.1.2.4.2l2.7-.9Zm-9.8-3.2c1.2 1.9 2.2 3.5 3.4 5 0 0 .3 0 .4.2l2.7-.9-3.4-5-.4-.1-2.7.8Zm3.2 5.5c-1.2-1.8-2.2-3.5-3.4-5-.1-.2-.1-.2-.4-.2l-2.7.9c1 1.6 2 3.3 3.2 4.8.2.2.3.3.5.2 1-.1 1.8-.3 2.8-.7Zm-3.3 1.1c-1.2-1.8-2.2-3.5-3.4-5-.1-.1-.3-.3-.4-.1l-2.7.8c1.1 1.8 2.2 3.5 3.4 5 .1.2.3.3.4.2l2.7-.9Zm34.2 1.5-3-4.5c-.1-.2-.3-.3-.4-.2l-2.9 1 3 4.6.4.1c1-.4 1.8-.8 2.9-1Zm-3.6-5.4-2.8-4.4c-.1-.2-.3-.3-.4-.2l-2.9 1 3 4.6.4.1c1-.6 1.8-.9 2.7-1.1ZM1172 393c-.1-.2 0-.3 0 0l-2.8-4.4c-.2-.2-.3-.3-.5-.2-.9.3-1.9.7-3 .9l2.9 4.4c.1.1.3.3.4.1l3-.8Zm-9.8-9.2c.9 1.5 2 2.9 2.8 4.4.2.2.3.3.5.2l2.8-1-3-4.6-.4-.1c-.6.6-1.5.8-2.7 1.1Zm10.6 16 2.9 4.5c.1.1.3.3.4.1 1-.2 2-.4 3-.8l-3-4.6-.4-.1-2.9 1Zm-3.5-5.4 2.8 4.4c.2.2.3.3.5.2l3-.9c-1-1.5-2-2.8-3-4.5-.1-.2-.3-.3-.4-.2-1 .6-1.9.9-2.9 1Zm-7.8-11-3-4.6c-.2-.1-.3-.3-.5-.1-.8.2-1.8.5-2.8 1 .9 1.5 2 2.8 3 4.5l.4.2c1-.5 2-.8 2.9-1Zm-3.6-5.5c-1-1.7-2-3-3-4.5 0 0-.1-.2-.4-.2l-2.8 1c.8 1.5 2 3 3 4.5 0 0 0 .2.3.2l3-1Zm24.6 31c-.9-1.5-2-2.9-2.8-4.4-.2-.2-.2-.2-.5-.2l-3 .9c1 1.5 2 2.9 2.8 4.4.2.1.3.3.5.1 1 0 2-.4 3-.8Zm-14-15-2.9-4.5h-.3l-3 .9c.9 1.5 2 2.8 2.8 4.4.2.1.3.3.5.1 1-.1 1.9-.4 3-.8Zm-10.5-9.6c-.9-1.5-2-2.8-3-4.5-.1-.2-.3-.3-.4-.2l-2.9 1 2.8 4.4s.2.2.5.2c1-.1 2-.4 3-.9Zm21.7 26.2c.8 1.5 1.9 2.9 2.8 4.4l.3.3 3-.9c-1-1.5-2-2.8-2.8-4.3-.2-.2-.3-.4-.5-.2l-2.8.7Zm-14.8-21.8-2.9-4.4c-.1-.2-.1-.2-.4-.2l-2.9 1c1 1.5 2 2.9 2.8 4.4.2.2.3.3.5.2 1-.5 2-.8 2.9-1Zm28 36.3-2.9-4.4-.3-.3c-1 0-2 .5-3.1.7.9 1.5 2 2.8 2.8 4.3.1.2.1.2.4.2 1 0 2-.4 3-.5Zm-9.9-9.2c1 1.5 2 2.9 2.8 4.4.2.1.4.3.5.1.9-.2 2-.4 3-.8-.9-1.5-2-2.9-2.8-4.4l-.5-.1-3 .8Zm-28.5-36.6-2.9-4.4c-.1-.2-.3-.3-.4-.2l-2.9 1 2.9 4.4s.1.2.4.2l2.9-1Zm7 10.6c-.8-1.5-1.9-2.9-3-4.5 0-.2-.2 0-.3-.2l-2.8.8v.3l2.8 4.1c.2.2.3.3.5.2l2.8-.7Zm-2.8 1.6c.9 1.5 2 2.9 2.8 4.4.2.1.3.3.4.2l3-.9c-1-1.7-2-3-3-4.5 0-.2-.2 0-.4-.2-.9.3-1.6.7-2.8 1Zm16.8 13.3-3-4.5c-.1-.2-.1-.2-.4-.2l-3 .9c.9 1.5 2 2.9 2.8 4.4l.4.1c1.1-.1 2-.4 3.2-.7Zm-9.8-9.1c.9 1.5 2 2.8 2.8 4.4.2.1.3.3.5.1l3-.8-2.8-4.4c-.2-.2-.4-.3-.5-.2l-3 .9Zm0 6.3c.8 1.5 1.9 2.8 2.8 4.4l.2.3 3-.9c-.8-1.5-1.9-2.9-2.8-4.4-.1-.1-.3-.3-.4-.1l-2.9.7Zm10.5 9.6c.9 1.5 2 2.9 2.8 4.4.2.1.3.3.5.1l2.8-.7c-.9-1.5-2-2.8-2.8-4.4-.2-.1-.3-.3-.5-.1-1 .1-2 .4-2.8.7Zm-3.6-5.2 2.9 4.4c.1.2.1.2.4.2.9-.3 2-.4 3-.9-.9-1.5-2-2.8-2.8-4.4-.2-.1-.3-.3-.4-.1-1.1.1-2 .4-3 .8Zm-4.3-5.9c-.8-1.5-1.9-2.9-2.8-4.4-.1-.1-.3-.3-.4-.1l-3 .8c.9 1.5 2 2.9 2.8 4.4.1.2.4.2.4.2l3-.9Zm28 29.9-2.9-4.4c-.1-.2-.3-.3-.4-.2l-2.9.7v.3l2.7 4.3c.2.1.3.3.5.1 1-.4 1.9-.7 3-.8Zm-23.9-17.8c1 1.5 2 2.8 2.8 4.4l.5.1c.9-.3 2-.4 3-.8l-2.8-4.4c-.2-.2-.3-.3-.5-.2l-3 .9Zm10.4 9.4 2.9 4.4s.1.2.4.2l2.9-.7v-.3l-2.7-4.3-.5-.1c-.9.3-1.8.6-3 .8Zm-18-46.3-3-4.5c0-.2-.2-.3-.4-.2-.9.3-1.8.6-2.5 1v.3c.8 1.5 1.9 2.9 2.8 4.4.1.2.3.3.4.2 1-.6 1.8-.9 2.7-1.2Zm14.8 41.2c.9 1.5 2 2.9 2.8 4.4.1.1.3.3.4.1l2.9-.7c-.9-1.5-2-2.8-2.8-4.4l-.5-.1c-1 .1-2 .4-2.8.7Zm-31.3-34.9 2.8 4.4c.1.2.3.3.4.2l2.7-.9c-.8-1.5-2-3-3-4.5 0-.2-.2 0-.4-.2-.6.3-1.3.8-2.5 1Zm27 29-2.8-4.4-.3-.3c-1 .3-2 .4-3 .8.9 1.5 2 2.9 2.8 4.4.2.2.3.3.5.2.8 0 1.8-.3 2.8-.7Zm-30.4-34.3 2.8 4.4c.1.2.3.3.4.2l2.8-.9-2.9-4.4c-.1-.1-.3-.3-.4-.1-.8.1-1.7.4-2.7.8Zm17.4.6 3 4.6c0 .1.2.3.4.1l2.5-.7s.2-.1 0-.3l-2.8-4.4-.4-.1-2.7.8Zm-7 15.3 2.9 4.4c.1.2.3.3.4.2l2.7-.9c-.8-1.5-1.9-2.8-2.8-4.4l-.4-.1-2.7.8Zm30.2 34.3c-.9-1.5-2-2.9-2.8-4.4 0 0-.2-.2-.3 0-1 .3-2 .4-3 .8l2.8 4.4c.1.2.3.3.4.2 1-.6 1.9-.9 2.9-1Zm-3.4-5.3-2.8-4.4c-.2-.2-.3-.3-.5-.2-.9.3-2 .4-3 .9 1 1.5 2 2.9 2.8 4.4.2.1.3.3.5.1 1-.4 2-.7 3-.8Zm-24.2-30.6c-.8-1.5-1.9-2.8-2.8-4.4-.1-.1-.3-.3-.4-.1l-2.9 1c1 1.5 2 2.9 2.8 4.4l.5.1 2.8-1Zm34.6 40c-.9-1.5-2-2.8-2.8-4.3-.2-.2-.2-.2-.5-.2-.9.3-2 .4-3 .8l2.8 4.4c.2.2.2.2.5.2l3-.9Zm-44.4-43.1c1-.5 2-.7 3.1-1l-2.8-4.4c-.1-.2-.3-.3-.4-.2l-2.7.9c.7 1.6 1.8 3 2.8 4.7Zm10.7 10 2.8 4.4s.1.2.3 0l3-.8c-.9-1.5-2-2.9-2.8-4.4-.2-.1-.3-.3-.5-.2l-2.8 1Zm-11.3-16.3c-.8-1.5-1.9-3-2.8-4.4 0 0-.1-.2-.4-.2l-2.9 1c1 1.5 2 2.9 2.8 4.4.2.2.3.3.5.2 1-.5 2-.8 2.8-1Zm10.4 15.7c-.2-.1-.2-.1 0 0l-2.8-4.4c-.2-.1-.3-.3-.5-.1l-2.7.8 2.8 4.4c.2.2.3.3.5.2l2.7-.9Zm4.3 5.6 2.8 4.4c.1.2.3.3.4.2 1-.3 1.8-.6 2.9-.7-.9-1.5-2-2.9-2.8-4.4-.2-.1-.3-.3-.5-.2-.9.3-1.8.6-2.8.7Zm20.4 25.3c1 1.5 2 2.9 2.7 4.2.2.2.3.3.5.2l2.8-.7c-.9-1.5-2-2.9-2.8-4.4-.2-.2-.5-.2-.5-.2l-2.7.9Zm-34.2-39.7 2.8 4.4a897 897 0 0 0 3.1-.7c-.8-1.5-1.9-3-2.8-4.4-.1-.2-.4-.2-.4-.2-1 .3-1.7.4-2.7.9Zm17.4-5.7c.9 1.5 2 2.9 2.8 4.4.2.1.3.3.5.1l2.7-.8-3-4.6c-.1-.1-.3-.3-.4-.1l-2.6 1Zm9.4 34.5c-.8-1.6-1.9-3-2.8-4.4-.1-.2-.1-.2-.4-.2-1 .3-2 .4-3 .9l2.8 4.3c.1.2.3.4.4.2 1-.3 1.8-.6 3-.8Zm-9.6-9c.9 1.5 2 2.8 2.8 4.3.1.2.1.2.4.2 1-.3 1.8-.6 2.9-.7-.9-1.5-2-2.9-2.8-4.4l-.5-.1-2.8.7Zm9.7-16.4-3-4.5c0-.2-.2-.3-.4-.2l-2.7.9 3 4.5c.1.2.3.3.4.2l2.7-.9Zm-27.7-3.9c-.8-1.5-1.9-2.9-2.8-4.4-.1-.1-.3-.3-.4-.1l-2.7.8 2.8 4.4c.1.2.3.3.4.2l2.7-.9Zm13.7 14.6c-.9-1.5-2-2.8-2.8-4.4h-.3l-2.7.9 2.8 4.4.4.1 2.6-1Zm-17-19.9-2.9-4.4-.4-.1c-1 .2-1.8.5-2.9 1 1 1.5 2 2.8 2.8 4.3.2.2.5.2.5.2l2.8-1Zm28.2 36c1 1.5 2 2.9 2.8 4.4.2.2.3.3.5.2l2.8-.7c-.8-1.5-1.9-3-2.8-4.4-.1-.2-.1-.2-.4-.2-1 .1-2 .4-2.9.7Zm-21.3-25.5-2.8-4.4-.3-.3c-1 .3-1.8.5-2.9 1 1 1.5 2 2.8 2.8 4.4.2.1.3.3.5.1.7-.1 1.5-.6 2.7-.8Zm7.4 10.9 2.8 4.4c.1.1.3.3.4.1l2.9-.7c-.9-1.5-2-2.8-2.8-4.4l-.5-.1-2.8.7Zm17.2 19.8c.9 1.5 2 2.8 2.6 4.2l.3.3 2.9-.7c-.9-1.5-2-2.9-2.8-4.4-.2-.1-.3-.3-.5-.1l-2.5.7Zm-21.4-25.6-2.8-4.4-.4-.1-2.7.8 2.8 4.4c.1.2.4.2.4.2l2.7-.9Zm11.1 16.2 2.8 4.4c.2.2.3.3.5.2.9-.3 1.8-.6 2.8-.7-.8-1.5-1.9-2.9-2.8-4.4l-.4-.2-2.9.7Zm-27.1-29c.8 1.5 1.9 2.8 2.8 4.3.1.2.1.2.4.2l2.7-.8-2.8-4.4c-.1-.2-.3-.3-.4-.2l-2.7.9Zm29.7 27.4c-.9-1.5-2-2.8-2.7-4.2-.1-.2-.3-.3-.4-.2-1 .3-1.8.6-2.9.7l2.8 4.4s.2.2.5.2l2.7-.9Zm-27.2-29-2.8-4.4c-.1-.2-.3-.4-.4-.2l-2.7.8c.8 1.6 1.9 3 2.8 4.4.1.2.3.3.4.2l2.7-.9Zm11 16 2.8 4.4s.1.2.3 0l2.8-.7c-.8-1.5-1.9-2.9-2.8-4.4-.1-.1-.3-.3-.4-.1l-2.7.8Zm-.8-.4-2.8-4.4c-.1-.2-.3-.3-.4-.2l-2.7.9c.8 1.5 1.9 2.8 2.8 4.4.1.1.3.3.4.1l2.7-.8Zm4.3 5.6c1 1.5 2 2.9 2.8 4.4.2.1.3.3.5.1l2.7-.8c-.9-1.5-2-2.9-2.8-4.4-.2-.2-.5-.2-.5-.2l-2.7.9Zm19.6 18.3c-.8-1.5-1.9-2.9-2.8-4.4-.1-.1-.3-.3-.4-.2-1 .3-1.8.6-2.9.7l2.8 4.4c.2.2.2.2.5.2.9-.3 1.8-.6 2.8-.7Zm10.3 9.3c-.9-1.5-2-2.9-2.7-4.2-.1-.2-.3-.3-.4-.2l-2.9.7c1 1.5 2 2.9 2.7 4.3.1.1.3.3.4.1.8-.1 1.8-.2 2.9-.7Zm-13-7.8c1 1.5 2 2.8 2.8 4.3.2.2.3.4.5.2l2.8-.7-2.8-4.4-.4-.1c-1 0-2 .4-2.9.7Zm-10.2-9.4 2.6 4.3c.2.1.3.3.5.1l2.5-.7-2.6-4.2c-.2-.2-.5-.2-.5-.2-.7.2-1.5.3-2.5.7Zm16.8-18.1c-1-1.7-2.1-3-3-4.6l-.4-.1-2.8.8 2.9 4.4c.1.2.3.3.4.2 1-.1 2-.4 2.9-.7Zm-37-6.8s-.1.2 0 0l2.7 4.3c.1.1.3.3.4.1l2.7-.8-2.8-4.4c-.1-.2-.3 0-.4-.2l-2.6 1Zm16.8 19.6 2.6 4.3.3.3c1-.3 2-.4 3-.9a38.3 38.3 0 0 0-3.2-4.5c-.8.4-1.7.7-2.7.8ZM1141 390l-2.8-4.4c-.1-.2-.3-.3-.4-.2l-2.7.9 2.8 4.4.4.1 2.7-.8Zm17 19.8-2.9-4.4c-.1-.2-.3-.3-.4-.2l-2.7.9c.8 1.5 1.9 2.8 2.8 4 .1.2.3.4.4.2 1 0 1.8-.2 2.7-.5Zm-9.4-8.7 2.8 4.4.4.1 2.7-.8-2.8-4.4s-.1-.2-.4-.2c-1 .3-1.7.4-2.7.9Zm-17-19.8 2.9 4c.1.2.3.4.4.2l2.7-.8-2.8-4.4c-.1-.2-.3-.3-.4-.2-1 .6-1.8 1-2.7 1.2Zm33.9 39.2c.9 1.6 1.9 3 2.8 4.1.1.2.3.3.4.2 1-.3 1.8-.6 2.9-.7-.9-1.5-2-2.9-2.8-4.4-.2-.2-.5-.2-.5-.2-1 .5-2 .8-2.8 1Zm17-17.6-2.9-4.4c-.1-.2-.3-.3-.4-.2l-2.8.9c1 1.5 2 2.8 3 4.5.2.2.3.3.5.2.7-.5 1.5-1 2.5-1Zm-13.8 22.8c1 1.5 2 2.9 2.8 4.4l.5.1 2.8-.7c-.8-1.5-1.9-2.8-2.6-4.2-.2-.2-.3-.3-.5-.2-.9 0-1.8.3-3 .6Zm6.9 4.3c.9 1.5 1.9 2.9 2.8 4.1l.4.2 2.9-.7-2.7-4.3-.4-.1c-1 .2-2 .4-3 .8Zm-31.2-34.7c-.1-.2-.1-.2 0 0l-2.6-4.2c-.2-.2-.2-.2-.5-.2l-2.7.9c.9 1.5 2 2.8 2.8 4 .2.2.5.2.5.2l2.5-.7Zm-2.5 1.6c.8 1.5 1.9 2.9 2.8 4.1.1.1.3.3.4.2l2.7-.9c-.9-1.5-1.9-2.9-3-4.2 0-.2-.2-.4-.4-.2-.7.4-1.6.7-2.5 1Zm16.7 19.3c1 1.5 2 2.9 2.7 4.3l.4.1 2.9-.7c-.9-1.5-2-2.9-2.7-4.2-.1-.2-.3-.3-.4-.2-1 .3-1.8.6-2.9.7Zm-3.4-5c.9 1.5 2 2.9 2.8 4.1.2.2.3.3.5.2.9-.3 1.8-.6 2.8-.7-.8-1.5-1.9-3-2.8-4.1-.1-.2-.3-.3-.4-.2-1 .3-1.8.6-2.9.7Zm-.7-.4-2.7-4.3c-.1-.1-.3-.3-.4-.1l-2.7.8c.8 1.5 1.9 2.9 2.8 4.1.1.2.4.2.4.2l2.6-.7Zm-9.2-8.9c.9 1.5 1.9 2.9 2.8 4.1.1.2.3.3.4.2 1-.3 1.8-.6 2.6-.7v-.3l-2.8-4.1c-.2-.2-.3-.3-.5-.2-.7.4-1.6.7-2.5 1Zm22.8 23.2a38.3 38.3 0 0 0-3-4.4l-3 .7 2.9 4c.1.2.3.4.4.2l2.7-.5Zm4.2 5.7c.9 1.6 1.6 3 2.6 4.3.2.1.3.3.5.1l2.8-.7c-.9-1.5-1.7-2.7-2.8-4-.1-.2-.3-.4-.4-.2-1 0-1.8.3-2.7.5Zm-40.4-43.2c.9 1.5 1.8 2.7 2.8 4 .2.2.3.4.5.2l2.7-.8c-1-1.5-2-2.9-2.8-4.4-.2-.2-.3 0-.5-.2-1 .8-1.8.9-2.7 1.2Zm2.3-1.6c-1-1.5-2-2.9-2.7-4.3-.1-.1-.3-.3-.4-.1l-2.8.8c1 1.5 1.8 2.8 2.9 4.1.1.2.3.3.4.2a5 5 0 0 0 2.6-.7Zm31.2 40.5 2.8 4.1c.2.2.3.3.5.2l2.8-.7c-.8-1.5-1.9-2.9-2.8-4.4 0 0-.1-.2-.3 0l-3 .8Zm-10-9.1c.8 1.5 1.8 2.8 2.7 4 .2.2.2.2.5.2.9-.3 1.8-.6 2.8-.7l-2.6-4.2c-.2-.2-.3-.3-.5-.2l-3 .9Zm24.6-13c.9 1.4 2 2.8 3 4.5l.4.1 2.6-.7c-1-1.5-2-2.9-2.8-4.4-.2-.1-.4-.3-.5-.1-.9 0-1.8.2-2.7.5Zm-11.3 27.3 2.6 4.2s.2.2.5.2l2.8-.7-2.6-4.3c-.2-.1-.3-.3-.5-.1-1 .1-1.8.3-2.8.7Zm-10.8-16-2.7-3.9c-.1-.1-.3-.3-.6-.3-.9.3-1.8.6-2.8.7.9 1.5 1.7 2.7 2.8 4.1.1.2.3.3.4.2l2.9-.7Zm31.3-2.2-3-4.6-.4-.1-2.5.7c.8 1.5 1.9 2.8 2.8 4.4.1.1.3.3.4.1 1 0 1.8-.3 2.7-.5Zm-30.5 8.9c.9 1.5 2 2.8 2.7 4.2 0 0 .1.2.4.2 1-.3 1.8-.6 2.9-.7l-2.8-4.1c-.2-.2-.3-.3-.5-.2-.9 0-1.8.3-2.7.6Zm9.2 8.5c-.9-1.5-1.9-2.9-2.8-4l-.3-.4-2.8.7c.9 1.5 1.7 2.7 2.8 4.1.1.2.3.3.4.2.8.1 1.7-.1 2.7-.6Zm-22.5-22.8c1 1.3 1.7 2.7 2.6 3.9.2.1.3.3.6.3l2.7-.8-2.8-4.4c-.1-.2-.4-.2-.4-.2-1 .7-1.8.9-2.7 1.2Zm6.6 10.1c.9 1.5 2 2.9 2.8 4.1.2.2.2.2.5.2.9-.3 1.8-.6 2.8-.7-.9-1.6-1.9-3-2.8-4.1-.1-.2-.4-.2-.4-.2-1 .1-2 .4-2.9.7Zm13.2 14.2a39.7 39.7 0 0 0 3.1 4.4l2.9-.7-2.7-4c-.1-.1-.3-.3-.6-.3l-2.7.6Zm21.6-17.5c.9 1.5 2 2.9 2.8 4.4.2.2.3.3.5.2l2.4-.6-.2-.1-2.8-4.4c-.2-.2-.3-.3-.5-.2-.5.3-1.3.4-2.2.7Zm-38.2-1.7c.9 1.5 2 2.9 2.8 4.1l.5.2c.9-.3 1.8-.6 2.8-.7-.9-1.6-1.9-3-2.8-4.1-.1-.2-.4-.2-.4-.2-1 .1-2 .4-2.9.7Zm41.6 7c.9 1.5 2 2.9 2.8 4.4 0 0 .2.2.5.2l2.5-.7-2.8-4.4c-.2-.2-.3-.3-.5-.2-.5.3-1.5.6-2.5.7Zm-29 6.6c-.9-1.6-1.9-3-2.8-4.1-.1-.2-.3-.3-.4-.2l-2.6.7c.9 1.5 2 2.9 2.7 4.3h.3c1-.2 1.8-.3 2.8-.7Zm-2.4 1.4s-.1.2 0 0l2.7 4.3.4.1a14 14 0 0 1 2.7-.5v-.3l-2.6-4c-.2-.1-.3-.3-.5-.1-1 0-2 .4-2.7.5Zm35.1-2.7s-.2.2 0 0l2.8 4.4c.1.2.1.2.5.2l2.7-.6-2.9-4.4c-.1-.1-.4-.1-.5-.3-1.1.5-1.8.6-2.6.7Zm-26 11.4-2.8-4s-.2-.2-.5-.2c-.9.2-1.6.4-2.7.5.2.2 0 .3 0 .3.9 1.2 1.6 2.6 2.7 4 .1.1.3.3.4.1 1-.3 1.8-.6 2.9-.7ZM1088 388c.5 0 .8-.4 1.2-.5 10-3.6 20-7.2 30-10.6l.6-.3c13.8 20.7 27.9 41.3 41.7 62l-.7.1a783.9 783.9 0 0 0-32.3 8.5c-1 .3-1 .1-1.5-.6-3-4.3-5.7-8.6-8.5-12.7L1106 415l-13.5-20-4.5-7Zm25.7-8.1c1 1.7 2.2 3.2 3.2 4.8 0 0 .1.2.4.2l2.6-.8c-1-1.6-2.2-3.1-3.2-4.8l-.5-.1c-.9 0-1.6.4-2.5.7Zm2.9 5.1c-1-1.6-2.2-3.1-3-4.6-.2-.2-.4-.4-.5-.2l-2.6.7 3.2 4.9.4.1c.8-.4 1.6-.6 2.5-.9Zm-3.2 1c-1-1.6-2.2-3.1-3-4.6-.2-.2-.4-.3-.5-.2l-2.6.8 3 4.7c.2.1.4.3.7.3.7-.5 1.5-.6 2.4-1Zm9.5-3-3.2-4.9-.4-.1-2.6.7c1 1.7 2.2 3.2 3.2 4.8.2.2.3 0 .5.2l2.5-.7Zm-12.7 4.1-3.2-4.8s-.2-.2-.5-.2c-.9.3-1.6.5-2.4 1 1 1.6 2.2 3 3 4.6.2.2.4.3.5.2 1-.2 1.7-.5 2.6-.8Zm-6 2.1c-1.1-1.7-2.1-3-3.1-4.7-.2-.1-.3-.3-.5-.1l-2.4.9 2.9 4.5c.1.1.3.3.5.1l2.5-.7Zm-3-5.1c1 1.6 2.2 3.1 3 4.6l.2.2 2.6-.7-3-4.7c-.2-.2-.5-.2-.5-.2l-2.3.8Zm49.5 45.3 3 4.2h.3l2.8-.8c-1-1.3-1.8-2.8-2.7-4-.2-.2-.3-.3-.5-.2l-2.9.8Zm3.4 5 2.8 4c.1.2.3.3.4.2l2.9-.8-2.8-4c-.1-.2-.4-.2-.4-.2-1 .1-2 .4-2.9.7Zm-.8-6.7-2.9-4.2s-.1-.2-.4-.2l-3 .8c1.1 1.3 2 2.8 2.9 4 .1.2.3.3.4.2 1.2 0 2-.1 3-.6Zm-9.4-8.5 2.8 4.1c.1.2.2.3.4.2l2.9-.8-2.8-4c-.2-.2-.3-.4-.5-.2l-2.8.7Zm-45.9-28-3.2-4.8-2.7 1 3 4.5c0 .1.2.3.4.1l2.5-.7Zm3-1-3.1-4.6c-.2-.2-.3-.4-.5-.2-.7.1-1.5.6-2.4.9 1 1.7 2 3 3 4.5 0 .2.4.2.4.2 1-.2 1.8-.6 2.5-.8Zm45.6 27.5-2.8-4c-.1-.2-.3-.4-.4-.2l-2.6.7 2.8 4.1c.1.2.4.2.4.2l2.6-.8Zm-9.4-8.5c1 1.4 1.7 2.8 2.7 4.1.2.2.3.3.5.2l2.7-1-2.8-4c-.1-.1-.3-.3-.4-.1l-2.8.8Zm10.2 21c1 1.4 1.9 3 3 4.3a16 16 0 0 1 3.2-.7l-2.9-4.1c-.1-.2-.3-.4-.4-.2-1 .1-2 .4-2.9.7Zm-3.3 1 2.8 4c0 .2.2.3.4.2l2.6-.8-2.8-4c-.1-.2-.3-.4-.4-.2-.8.1-1.7.4-2.6.7Zm-10.6-32.8-3 1 2.9 4.1c.1.2.1.1.4.2l2.7-1a39 39 0 0 1-3-4.3Zm.3 5.9 2.8 4c.1.2.3 0 .4.2l2.6-.8-2.8-4c-.1-.2-.4-.2-.6 0-.6 0-1.5.3-2.4.6Zm12.9 25.5-2.8-4.1s-.2-.2-.3 0l-2.8.9 2.8 4c.2.2.2.2.5.2.6-.6 1.5-.9 2.6-1Zm-.2-6-2.8-4.1c-.1-.2-.3-.3-.4-.2-1 .3-1.7.5-2.8 1l2.8 4c.2.1.3.3.5.1l2.7-.8Zm6.9 16-2.8-4.1c-.1-.2-.1-.2-.4-.2l-3 .8c1.1 1.3 1.8 2.7 2.8 4 .2.2.3.3.5.2 1-.3 1.8-.6 2.9-.7Zm-16-18.7c1 1.4 1.8 3 2.7 4.1.2.2.3.3.5.2l2.6-.8-3-4.2h-.3l-2.6.7Zm12.4 7.6c-1-1.3-1.8-2.8-2.9-4.2h-.3l-2.7.9c1 1.4 1.9 2.9 2.8 4 .1.2.3.4.4.2l2.8-.9Zm1 6.5 2.7 4.1c.2.2.3.3.5.2l2.6-.8-2.8-4c-.2-.2-.3-.4-.5-.2l-2.5.7Zm-4.1.5-3-4.3s0-.1-.2 0l-2.6.8 2.8 4c.1.2.3.4.4.2a24 24 0 0 0 2.6-.7Zm-10.3-21-2.7-4.1-.2-.2-2.7 1 2.8 4c.1.2.3.3.4.2l2.4-1Zm3.4-1-2.8-4c-.2-.2-.2-.2-.5-.2l-2.5.8-.2.1c.9 1.2 1.8 2.8 2.6 4l.5.1 2.9-.7Zm.2 12-2.8-4.1s-.2-.2-.3 0l-2.7.9c1 1.4 1.7 2.7 2.7 4 .2.2.3.4.5.2l2.6-1Zm-6-9.5 2.8 4s.1.2.3 0l2.7-.8-2.8-4.1c-.1-.2-.3-.3-.4-.2-.8.5-1.7.8-2.6 1Zm9.3 14.5-2.8-4.1c-.1-.2-.3 0-.4-.2l-2.6.8 2.8 4c.2.2.3.4.5.2a24 24 0 0 0 2.5-.7Zm-.2-12-2.8-4s0-.2-.4-.2l-2.6.8 2.8 4s.2.2.3 0c1 0 1.8-.2 2.7-.5Zm-54-30.2c.8 1.5 1.9 2.9 2.9 4.3.1.1.3.3.6.3l2.3-.8-3-4.5s-.1-.2-.4-.2c-.8.2-1.5.6-2.4 1Zm40.8 16.3-2.8-4c-.2-.2-.3-.3-.5-.2l-2.5.7 2.7 4.1c.2.2.3.3.5.2l2.6-.8Zm-2.7-4.5 2.8 4c.2.2.3.4.5.2l2.5-.7a39 39 0 0 0-3-4.4c-1 .3-1.7.5-2.8 1Zm5.7-2.5-2.8-4.1c-.1-.2-.4-.2-.4-.2l-2.6.8c1 1.3 1.7 2.7 2.8 4 .1.2.4.2.4.2l2.6-.7Zm-2.3 7.5 2.8 4s.1.2.4.2l2.6-.7c-1-1.4-1.7-2.7-2.8-4-.1-.2-.3-.4-.4-.2-.8.1-1.7.4-2.6.7Zm-3.2 1 2.8 4.1c.1.2.3.3.4.2 1-.3 1.7-.5 2.8-1l-2.8-4c-.1-.2-.3-.3-.4-.2l-2.8 1Zm22.6 34.3c-1-1.3-1.7-2.7-2.7-4-.2-.2-.3-.3-.5-.2-.9.3-1.6.5-2.7.6 1 1.4 1.7 2.7 2.8 4 0 0 .1.2.4.2l2.8-.6Zm-26.9-45.7c-1-1.4-1.7-2.8-2.6-4-.1-.1-.3-.3-.4-.1l-2.6.7c1 1.4 1.7 2.7 2.8 4.1.1.2.3.3.4.2.8-.5 1.5-.6 2.4-1Zm4.3 17.3 2.8 4c.2.2.3.4.5.2l2.5-.7c-1-1.4-1.7-2.7-2.7-4-.2-.2-.5-.2-.5-.2l-2.6.7Zm-.9-6.5c-1-1.3-1.7-2.7-2.8-4-.1-.2-.2-.4-.4-.2l-2.6.7 2.8 4.1c.2.2.3.3.5.2 1-.2 1.6-.5 2.5-.8Zm3.2-6.9-2.8-4c-.1-.2-.3-.4-.4-.2l-2.6.7s-.2.2 0 .3c.9 1.2 1.7 2.7 2.6 4 .2.1.3.3.5.1l2.7-.9Zm1.1 18.4 2.6 4c.2 0 .3.2.5 0l2.6-.7-2.8-4c-.2-.2-.3-.3-.5-.2l-2.4.9Zm12.5 19.3c-1-1.3-1.8-2.8-2.7-4 0 0-.2-.2-.3 0l-2.6.7 2.8 4c.1.2.3.4.4.2l2.4-.9Zm-13.4-25.8-2.8-4c-.1-.2-.3-.4-.4-.2l-2.6.7c1 1.4 1.7 2.7 2.8 4.1.1.2.3.3.4.2l2.6-.8Zm-9.2-20.2c1 1.3 1.9 2.9 2.8 4 0 0 .1.2.4.2l2.6-.7-2.8-4.1c-.1-.2-.5-.2-.5-.2-.9 0-1.6.5-2.5.8Zm8.8 2.3-2.8-4.1c-.1-.2-.1-.2-.4-.2l-2.6.8 2.8 4c.1.2.4.2.4.2 1.1-.1 1.7-.4 2.6-.7Zm-12 4.6 2.8 4c.1.2.3.4.4.2l2.8-.9-2.8-4c-.2-.2-.3-.3-.5-.2l-2.7.9Zm19.1 29.2c-1-1.4-1.7-2.8-2.7-4.1-.2-.2-.3-.3-.5-.2l-2.6.8 2.8 4c.2.2.3.4.5.2l2.5-.7Zm3.4 5-2.8-4.1c-.1-.2-.3-.3-.4-.2l-2.6.8 2.8 4s.1.2.4.2c.8-.1 1.7-.4 2.6-.7Zm-13.8-43.8-2.8-4c-.2-.2-.3-.4-.5-.2l-2.5.7c1 1.4 1.7 2.7 2.7 4 0 0 .2.2.5.2 1-.1 1.7-.4 2.6-.7Zm.3 12-2.8-4c-.1-.2-.3-.3-.4-.2l-2.6.8 2.8 4c.1.2.3.3.4.2l2.6-.8Zm3.6 17-2.8-4.1c-.2-.2-.3-.3-.5-.2l-2.5.8c1 1.3 1.7 2.7 2.7 4 .2.2.3.3.5.2l2.6-.8Zm-15.8-24.2 2.8 4c.1.2.3.3.4.2l2.8-.9-2.8-4c-.2-.2-.3-.4-.5-.2-1 .1-1.8.6-2.7.9Zm8.7-3.8-2.8-4c-.2-.2-.3-.4-.5-.2l-2.5.7c1 1.4 1.7 2.8 2.8 4.1 0 .2.4.2.4.2 1-.2 1.7-.5 2.6-.8Zm-8.9-2.3 2.8 4.1c.1.2.3.3.4.2l2.6-.8c-1-1.3-1.7-2.7-2.7-4-.2-.2-.5-.2-.5-.2-.8.1-1.7.4-2.6.7Zm17 48.3 2.9 4.1s.1.2.4.2l2.6-.8-2.8-4c-.1-.2-.3-.4-.4-.2l-2.6.7Zm2.2-13.2-2.8-4.1c-.2-.2-.2-.2-.5-.2l-2.5.8c1 1.3 1.9 2.9 2.7 4 0 0 .2.2.5.2l2.6-.7Zm-8.8 3.3c1 1.3 1.7 2.7 2.7 4 .2.2.3.3.5.2l2.6-.8-2.8-4c-.2-.2-.3 0-.5-.2-.9.3-1.5.6-2.5.8Zm9.1 8.4c-1-1.3-1.7-2.7-2.8-4-.1-.2-.3-.3-.4-.2l-2.6.7 2.7 4c.1.1.2.3.4.1.9 0 1.8-.3 2.7-.6Zm-22.7-45.7 2.7 3.9c.1.2.3.3.4.2l2.6-.8c-1-1.3-1.8-2.7-2.6-4-.2 0-.3-.2-.5 0-.7 0-1.7.4-2.6.7Zm10 20.7 2.8 4c.1.2.3.3.4.2l2.6-.7-2.8-4.1c-.1-.2-.3-.3-.4-.2l-2.6.8Zm19.1 29.1-2.8-4s-.1-.2-.4-.2l-2.6.7 2.8 4.1c.1.2.3.3.4.2l2.6-.8Zm-22.3-34c1 1.4 1.7 2.7 2.8 4.1.1.2.3.3.4.2l2.6-.8-2.8-4c-.1-.2-.3-.4-.4-.2-.8.1-1.5.3-2.6.7Zm6 15.1-2.8-4c-.1-.2-.1-.2-.4-.2l-2.6.7c1 1.4 1.7 2.8 2.8 4.1.1.2.3.3.4.2l2.6-.8Zm7.5 10.5c1 1.3 1.8 2.8 2.7 4 0 0 .2.2.3 0l2.6-.7c-1-1.4-1.9-2.9-2.8-4-.1-.2-.3-.4-.4-.2l-2.4.9Zm2.2-1.4c-1-1.4-1.7-2.7-2.7-4l-.3-.4-2.6.8c1 1.3 1.7 2.7 2.8 4 .1.2.3.4.4.2l2.4-.6Zm-6.4-4-2.7-4.2-.3-.3-2.6.8 2.8 4c.1.2.3.4.4.2.6 0 1.4-.4 2.5-.6Zm19.7 18c-1-1.4-1.7-2.8-2.8-4.1-.1-.2-.3-.3-.4-.2l-2.6.7 2.6 4 .5.1 2.7-.6Zm-16.2-1.3-2.8-4.1-.3-.3-2.6.7 2.8 4c.1.2.1.2.4.2.6-.3 1.6-.6 2.5-.5Zm-13.4-31.6-2.6-4c-.2 0-.3-.2-.5 0l-2.5.7c1 1.3 1.7 2.7 2.7 4 .2.2.3.3.5.2l2.4-.9Zm3-6.8c-1-1.3-1.7-2.7-2.6-3.9-.2-.2-.3-.3-.5-.2l-2.5.8c1 1.3 1.7 2.7 2.6 4 .2 0 .3.2.5 0l2.5-.7Zm6.8 15.6-2.8-4.1c-.1-.1-.3-.3-.4-.2l-2.6.8c1 1.4 1.7 2.7 2.8 4 .1.2.3.4.4.2.8-.1 1.7-.4 2.6-.7Zm-10.1-20.6-2.8-4c-.2-.2-.2-.2-.5-.2l-2.5.7c1 1.4 1.7 2.8 2.7 4.1.2.2.3 0 .5.2l2.6-.8Zm4.7 34.7 2.6 4 .3.3 2.5-.8c-1-1.3-1.7-2.7-2.7-4-.2-.2-.3-.4-.5-.2-.6.3-1.3.4-2.3.7Zm-3.3-4.8 2.8 4c.2.2.3.4.5.2l2.5-.7-2.7-4.1c-.2-.2-.5-.2-.5-.2l-2.6.8Zm2.1-13.3c-1-1.3-1.7-2.7-2.7-4-.2-.2-.3-.4-.5-.2l-2.6.7 2.8 4.1c.2.2.5.2.5.2 1-.2 1.6-.5 2.5-.8Zm-15.4-18c1 1.4 1.7 2.8 2.6 4 .2.1.3.3.5.1l2.5-.7c-1-1.4-1.7-2.8-2.6-4-.1-.1-.3-.3-.4-.1-.8.1-1.7.4-2.6.7Zm23 40.2 2.7 4.1c.2.2.3.3.5.2l2.6-.8-2.8-4s-.3 0-.5-.2l-2.6.7Zm2.2-13-2.8-4.2c-.1-.1-.3-.3-.4-.1-.8.1-1.7.4-2.6.7 1 1.4 1.7 2.7 2.8 4.1.1.2.1.2.4.2l2.6-.8Zm-15.4-18.4 2.7 4.1h.3l2.6-.7c-1-1.4-1.7-2.8-2.8-4.1-.1-.2-.3-.3-.4-.2-.8.5-1.5.6-2.4 1Zm-7.4-10.3c-1-1.3-1.7-2.7-2.6-3.9-.1-.1-.3-.3-.4-.1a8 8 0 0 0-2.5.8l2.7 4 .4.1 2.4-.9Zm4.4 23c1 1.3 1.7 2.7 2.7 4 0 0 .2.2.5.2l2.6-.7-2.8-4.1c-.2-.2-.3-.3-.5-.2l-2.5.8Zm12-4.4-2.8-4c-.2-.2-.2-.2-.5-.2l-2.5.8c1 1.3 1.7 2.7 2.6 3.9.1.1.3.3.4.1 1 0 1.9-.3 2.8-.6Zm-10.1-20.5-2.8-4s-.2-.2-.5-.2l-2.5.7c1 1.4 1.7 2.7 2.7 4 .2.2.3.4.5.2l2.6-.7Zm13.5 37.3-2.6-4c-.2 0-.3-.2-.3-.2l-2.6.7c1 1.4 1.7 2.7 2.8 4 .1.2.2.4.4.2.6-.3 1.4-.4 2.3-.7Zm-6.4-4.1-2.7-4-.2-.2-2.6.7c1 1.4 1.7 2.7 2.8 4 .1.2.1.2.4.2l2.3-.7Zm-12.5-24.8 2.8 4.1c.2.2.3.3.5.2l2.6-.8-2.8-4c-.2-.2-.5-.2-.5-.2-1 .1-1.8.3-2.5.7Zm5.5-2.7c-1-1.3-1.7-2.7-2.7-4 0 0-.2-.2-.5-.2l-2.6.7 2.8 4.1s.2.2.5.2l2.5-.8Zm-2.8 12.8-2.8-4s-.1-.2-.4-.2l-2.6.7 2.6 4c.2.1.3.3.5.1.9 0 1.8-.3 2.7-.6Zm13.7 20.3c1 1.3 1.8 2.7 2.7 4 .1 0 .3.2.4 0 .8 0 1.7-.4 2.6-.7l-2.8-4c-.1-.2-.3-.4-.4-.2l-2.5.9Zm-10.5-15.4c-1-1.4-1.7-2.8-2.6-4-.2-.1-.3-.3-.5-.1l-2.5.7 2.7 4.1c.2.2.5.2.5.2l2.4-1Zm-15.3-17.9 2.7 4s.2.2.4 0l2.6-.6-2.7-4c-.1-.1-.3-.3-.4-.1-1 0-1.7.4-2.6.7Zm12.6 1.9c1 1.3 1.8 2.7 2.7 4 .1 0 .3.2.4 0l2.6-.7c-1-1.3-1.8-2.7-2.6-4h-.5c-1 0-1.8.2-2.6.7Zm3.4 16.4 2.8 4.1c.2.2.3.3.5.2l2.6-.8-2.8-4c-.2-.2-.3-.4-.5-.2l-2.6.7Zm9 8.5c-1.1-1.4-1.8-2.7-2.7-4-.2 0-.3-.2-.5 0l-2.5.7c1 1.3 1.7 2.7 2.6 3.9.1.1.3.3.4.1l2.6-.7Zm-21.8-22 2.7 4c.1.1.3.3.4.1.8-.1 1.7-.4 2.6-.7l-2.6-4c-.2 0-.3-.2-.5 0-.8 0-1.7.4-2.6.6Zm6.4 3.8 2.8 4.1c.1.2.3.3.5.2l2.5-.8c-1-1.3-1.7-2.7-2.7-4-.2-.2-.3-.3-.5-.2l-2.6.7Zm-7.3-10.2c-1-1.4-1.7-2.8-2.8-4.1 0 0-.1-.2-.4-.2-1 .3-1.7.5-2.4 1 1 1.3 1.7 2.6 2.6 3.9.1.1.3.3.4.1 1-.1 1.8-.3 2.6-.7Zm9.4-3c-1-1.4-1.7-2.7-2.8-4-.1-.2-.1-.2-.4-.2-1 .3-1.7.4-2.4.9 1 1.3 1.7 2.7 2.7 4 .2.2.2.2.5.2a21 21 0 0 1 2.4-1Zm6.6 21.6-2.6-4c-.1-.1-.3-.3-.4-.1-.8.1-1.7.4-2.6.7 1 1.4 1.7 2.8 2.8 4.1 0 0 .1.2.4.2.8-.5 1.5-.6 2.4-1Zm-15-18c1 1.3 1.7 2.7 2.5 3.9.2.2.3.3.5.2l2.4-1c-1-1.3-1.7-2.7-2.8-4 0 0-.1-.2-.4-.2-.8.5-1.4.8-2.3 1Zm3.1 4.8 2.6 4c.2 0 .3.2.5 0 .8 0 1.7-.4 2.4-.8l-2.6-4c-.1 0-.3-.2-.4 0-1 .2-1.6.5-2.5.8Zm32.4 37.5 2.5 3.8c.1.2.3.3.4.2 1-.3 1.7-.5 2.7-.6l-2.6-4c-.1-.1-.3-.3-.4-.1-.8.1-1.7.4-2.6.7Zm-38.8-47.2c1 1.4 1.7 2.8 2.6 4 .2.1.3.3.5.1a8 8 0 0 0 2.4-.9c-1-1.3-1.8-2.7-2.6-4-.2 0-.3-.2-.5 0-.9.2-1.6.4-2.4.8Zm35.6 48 2.5 3.7s.1.2.3 0c.9-.2 1.6-.4 2.7-.5l-2.5-3.8c-.1-.2-.3-.3-.4-.2-1 .3-1.5.6-2.6.8Zm-33.1-37.7-2.6-4h-.5c-.8 0-1.5.5-2.3.7l2.7 3.9.4.1a10 10 0 0 1 2.3-.7Zm-3.2-4.8-2.8-4.1s-.1-.2-.3 0c-1 .3-1.7.4-2.4.9 1 1.3 1.9 2.8 2.7 4l2.8-.8Zm9.6 14.5c-1-1.4-1.7-2.8-2.8-4.1-.1-.2-.3-.3-.4-.2l-2.3.8c1 1.3 1.8 2.7 2.6 4h.5c1 0 1.7-.4 2.4-.5Zm-5.8-4.1 2.6-.8c-1-1.3-1.8-2.7-2.6-3.9l-.3-.3c-.8.1-1.7.4-2.6.7 1.2 1.6 1.9 3 3 4.3Zm9 8.9c-1-1.4-1.7-2.7-2.8-4-.1-.2-.3-.4-.4-.2-.8.1-1.5.6-2.3.7l2.6 4c.2 0 .3.2.5.1.9 0 1.7-.4 2.4-.6Zm3.2 4.8c-1-1.3-1.7-2.7-2.7-4-.2-.2-.3-.3-.5-.2l-2.3.7 2.8 4.1c.2.2.3 0 .5.2a10 10 0 0 0 2.2-.8Zm17.1 19.4 2.5 3.8c.1.1.3.3.4.1l2.8-.5c-1-1.3-1.6-2.6-2.5-3.8-.2-.2-.3-.3-.5-.2-.9 0-1.8.3-2.7.6Zm-19.2-17.9c1 1.4 1.7 2.8 2.6 4l.5.1 2.4-.6c-1-1.3-1.8-2.7-2.6-3.9-.2-.2-.3-.3-.5-.2-.9 0-1.5.3-2.4.6Zm3.4 4.7 2.7 4.1c.2.2.2.2.5.2l2.4-.6c-1-1.4-1.7-2.8-2.8-4.1-.1-.2-.4-.2-.4-.2l-2.4.6Zm12.6 14 2.4 3.6.4.1 2.7-.6-2.3-3.6-.5-.1-2.7.5Zm-4-5.5c-1.1-1.4-1.8-2.7-2.9-4 0 0-.1-.2-.3 0-.7 0-1.6.4-2.4.5l2.6 4c.2 0 .3.2.5.1.9 0 1.8-.3 2.4-.6Zm3.3 5-2.8-4c-.2-.2-.3-.4-.5-.2l-2.4.6 2.8 4c.1.2.3.3.4.2l2.5-.6Zm2.9 4.5c-.9-1.2-1.5-2.4-2.3-3.6-.2-.2-.3-.3-.5-.2l-2.1.6c.9 1.3 1.6 2.3 2.3 3.7.2.1.3.3.5.1.6-.3 1.3-.4 2.1-.6ZM1168.2 364a1.9 1.9 0 1 0-2.7-2.7 1.9 1.9 0 1 0 2.7 2.7ZM1210.3 430.4a1.9 1.9 0 1 0-2.7-2.7 1.9 1.9 0 1 0 2.7 2.7ZM1358.5 314a4.8 4.8 0 1 0-6.6-6.8 4.8 4.8 0 0 0 6.6 6.9Z"/><path fill="#212A33" d="m1214.3 347.8-14-28-13.4 30.5-15.8 1.9-7.7 6 12.5 12.7 13.3-9 8 13.4 17-16 .1-11.5Z"/><path fill="#1B60B1" fill-rule="evenodd" d="m1198.5 319.7 13.9 28.3-.2 11.5-17.1 16-7.8-13.1-13 8.8-12.6-13 7.9-6.1 15.3-1.9 13.6-30.5Zm0 1.8-13 29.4-15.6 2-7 5.4 11.5 12 13-9 7.9 13 16.2-15.2.1-11-13-26.6Z" clip-rule="evenodd"/><path fill="#212A33" d="M1254 411.2c9.8-9.5 5.9-29.5-8.8-44.5-14.7-15-34.5-19.5-44.3-10-9.7 9.5-5.8 29.4 8.9 44.5 14.6 15 34.5 19.5 44.2 10Z"/><path fill="#1B60B1" fill-rule="evenodd" d="M1197.2 377c1.7 8 6.4 16.7 13.8 24.3 7.4 7.6 16 12.6 24 14.5 8 2 15.1.7 19.8-3.8 4.7-4.6 6-11.8 4.3-19.8-1.7-8-6.4-16.7-13.8-24.3a51.5 51.5 0 0 0-24-14.5c-8-1.9-15.1-.7-19.8 3.8-4.7 4.6-6 11.8-4.3 19.8Zm-.8.1c-1.7-8.1-.4-15.6 4.5-20.4 5-4.8 12.5-6 20.6-4 8.1 2 16.9 7 24.4 14.7a52.3 52.3 0 0 1 14 24.7c1.7 8.1.4 15.6-4.5 20.4-5 4.9-12.5 6-20.6 4-8.1-1.9-16.9-7-24.4-14.6a52.3 52.3 0 0 1-14-24.8Z" clip-rule="evenodd"/><path fill="#1B60B1" fill-rule="evenodd" d="M1199.5 360.1a20 20 0 0 1 4.5-6.7c5.4-5.3 13.4-6.7 22-4.7 8.7 2 18 7.2 25.8 15.3a53 53 0 0 1 14.5 26c1.6 8.7 0 16.8-5.3 22-3.4 3.3-8 5-13 5.3l-.1-.8c2.8-.7 5.4-2.1 7.4-4 4.6-4.6 6-11.7 4.2-19.7-1.7-8-6.4-16.6-13.7-24.1a51.5 51.5 0 0 0-23.8-14.5c-7.8-1.9-15-.8-19.7 3.8-.7.7-1.4 1.7-2 2.6l-.8-.5Zm2.7-3.2c5-4.4 12.2-5.4 20-3.5 8.1 2 16.8 7 24.2 14.7a52.2 52.2 0 0 1 14 24.6c1.7 8.1.4 15.6-4.5 20.3-1.1 1.1-2.4 2-3.8 2.8a18 18 0 0 0 8.3-4.5c5-4.9 6.6-12.6 5-21a52.2 52.2 0 0 0-14.2-25.7 52.8 52.8 0 0 0-25.3-15c-8.5-2-16.2-.6-21.3 4.4-1 .9-1.7 1.9-2.4 3Z" clip-rule="evenodd"/><path fill="#1B60B1" fill-rule="evenodd" d="M1218.7 373.5c1 4.6 3.6 9.7 7.8 14 4.3 4.4 9.3 7.2 13.9 8.2 4.6 1 8.8.2 11.5-2.4 2.7-2.7 3.6-6.8 2.7-11.5-.9-4.6-3.5-9.7-7.8-14a28.5 28.5 0 0 0-13.8-8.2c-4.6-1-8.8-.2-11.5 2.5-2.8 2.6-3.7 6.8-2.8 11.4Zm-1 .2c-1-4.8 0-9.4 3-12.4 3.1-3 7.7-3.7 12.5-2.7 4.9 1 10 4 14.4 8.5 4.3 4.4 7.1 9.7 8 14.5 1 4.9 0 9.4-3 12.4s-7.6 3.8-12.5 2.7c-4.8-1-10-4-14.3-8.4a29.5 29.5 0 0 1-8-14.6Z" clip-rule="evenodd"/><path fill="#1B60B1" d="M1246 387.6c3.8-3.7 2.5-11.2-3-16.8-5.5-5.7-13-7.3-16.8-3.6-3.8 3.6-2.4 11.2 3.1 16.8 5.5 5.7 13 7.3 16.8 3.6ZM1220 374.1l-2 2c-.6.5-1.4.6-1.8.3-.3-.3-.1-1.2.4-1.7l2-2c.6-.5 1.4-.6 1.7-.3.4.4.4 1-.3 1.7ZM1237.2 395l-2 2c-.6.4-1.4.6-1.8.3-.3-.4-.1-1.2.4-1.7l2-2c.5-.5 1.4-.7 1.7-.3.5.4.2 1.2-.3 1.7ZM1252.3 383.5l-2 2c-.5.5-1.4.6-1.7.3-.3-.3-.1-1.2.4-1.7l2-2c.5-.5 1.4-.6 1.7-.3.3.4.1 1.2-.4 1.7ZM1231.3 362.6l-2 2c-.5.5-1.4.7-1.7.3-.3-.3-.1-1.1.4-1.6l2-2c.5-.5 1.4-.7 1.7-.3.3.3.1 1.1-.4 1.6Z"/><path fill="#212A33" d="m1278.6 310 25.3-25.6-35.4-20.4-17 17-4.2 10.7 31.3 18.3Z"/><path fill="#1B60B1" fill-rule="evenodd" d="m1268.5 264 36.7 21.8-25.3 25.6-32.4-19.4 4-11.2 17-16.8Zm-16.3 17.3-3.7 10.3 31.2 18.8L1304 286l-35.3-20.9-16.5 16.3Z" clip-rule="evenodd"/><path fill="#1B60B1" fill-rule="evenodd" d="m1261.3 284.2 28.9 16.7-9.9 9.9-28.7-16.8 9.7-9.8Zm-8.7 9.6 27.6 16.2 9-9-27.8-16-8.8 8.8Z" clip-rule="evenodd"/><path fill="#1B60B1" fill-rule="evenodd" d="m1269.4 262.9 36 20-16.8 17-32.1-18 2.8-3-3.5-2.1 13.6-14Zm-12.6 13.7 3.5 2-2.8 3.1 31 17.4 15.8-16-34.8-19.4-12.7 12.9Z" clip-rule="evenodd"/><path fill="#1B60B1" fill-rule="evenodd" d="m1302.1 283.6-16 16.2-.1-.1 16-16.2h.1ZM1300.2 281.7l-16 16.2-.1-.1 16-16.2h.1ZM1298.3 279.8l-16 16.2-.1-.1 16-16.2h.1ZM1296.4 279.8l-16 16.2-.2-.1 16.1-16.2h.1ZM1294.5 277.9l-16 16.2h-.2l16-16.3h.2ZM1292.6 277.9l-16 16.2h-.2l16-16.3.2.1ZM1290.7 276l-16 16.2h-.2l16-16.3.2.1ZM1286.9 274.1l-16 16.2h-.2l16-16.3.2.1ZM1285 274.1l-16 16.3-.2-.2 16-16.2.2.1ZM1283 272.2l-16 16.3-.1-.2 16-16.2.2.1ZM1281.2 270.3l-16 16.3-.2-.2 16-16.2.2.1ZM1279.3 270.3l-16 16.3-.2-.1 16-16.3.2.1ZM1277.3 268.4l-16 16.3-.1-.1 16-16.3.1.1ZM1275.5 268.5l-16.1 16.2-.1-.1 16-16.3.2.2ZM1273.5 266.6l-16 16.2-.1-.1 16-16.3.1.2ZM1270.8 265.4l-13.5 13.4 13.4-13.5.1.1Z" clip-rule="evenodd"/><path fill="#1B60B1" fill-rule="evenodd" d="m1259 280.3 33.3 18v.2l-33.3-18v-.2ZM1257.2 276.6l35.9 20.7-.1.1-36-20.7.2-.1ZM1257.2 274.7l35.9 20.7-.1.1-36-20.7.2-.1ZM1261 272.7l35.9 20.8-.1.1-36-20.7.2-.2ZM1262.8 270.8l36 20.7-.1.2-36-20.7.1-.2ZM1264.7 269l36 20.6-.1.2-36-20.7.1-.2ZM1266.6 267l36 20.7-.1.2-36-20.8h.1ZM1268.5 265l36 20.8-.1.2-36-20.8.1-.1ZM1285.8 299.8l-9.3 9.4-.2-.1 9.4-9.5.1.2ZM1284 297.9l-9.5 9.4v-.1l9.3-9.5.1.2ZM1282 297.9l-9.3 9.4-.2-.1 9.4-9.5.1.2ZM1280.1 296l-9.4 9.4v-.1l9.3-9.4h.1ZM1278.2 294l-9.4 9.5v-.1l9.3-9.4h.1ZM1276.3 294l-9.4 9.5 9.3-9.5h.1ZM1274.4 292.2l-9.4 9.4h-.1l9.4-9.5h.1ZM1270.6 290.3l-9.4 9.4h-.1l9.4-9.5.1.1ZM1268.7 290.3l-9.4 9.4h-.1l9.4-9.5.1.1ZM1266.8 288.4l-9.4 9.5-.1-.2 9.4-9.4v.1ZM1264.9 288.4l-9.4 9.5-.1-.2 9.4-9.4v.1ZM1263 286.5l-9.4 9.5-.1-.2 9.4-9.4v.1ZM1261 284.6l-9.3 9.5-.1-.1 9.4-9.5v.1Z" clip-rule="evenodd"/><path fill="#1B60B1" fill-rule="evenodd" d="m1251.5 293.7 29.3 16.6-.1.1-29.3-16.6.1-.1ZM1253.4 291.8l28 15.2-.2.2-27.9-15.3.1-.1ZM1255.3 289.9l28 15.2-.2.2-27.9-15.3.1-.1ZM1257.2 288l28 15.2-.2.1-27.9-15.2.1-.1Z" clip-rule="evenodd"/><path fill="#212A33" d="m1183.8 307.2-22-144.5 90.7 10.6 11.7 152.6-80.4-18.7Z"/><path fill="#1B60B1" fill-rule="evenodd" d="m1159.9 162.8 91.3 11.1 12.5 153.3-81-19.2-22.8-145.2Zm.9.9 22.5 143.6 79.5 18.9-12.3-151.6-89.7-11Z" clip-rule="evenodd"/><path fill="#1B60B1" d="M1258.2 251.4a18630.3 18630.3 0 0 0-83.7-14c-.8-.2-1-.5-1.2-1.3l-3.6-24.5c-1.3-9-2.8-18-4-26.8l-2.6-17.5-.1-1 1 .1c29.3 3.4 58.7 6.6 88 9.9.9 0 1.2.3 1.2 1.2.4 8.4 1.1 16.9 1.7 25.4 1 14.6 2.1 29.5 3.4 44.3-.4 1.5-.2 2.9-.1 4.2Zm-50.7-9.6 6.6 1.2c-.1-2-.4-3.8-.6-5.6 0-.3-.3-.6-.5-.4l-5.7-1 .2 1c0 1.4.3 2.7.5 4 0 .3-.2.5-.5.8l-.4-1.1-.7-4.4c0-.3-.3-.6-.3-.6l-5.7-1c.3 1.9.6 3.7.7 5.7-.8.1-1-.3-1-.6 0-1.4-.3-3-.4-4.3 0-.3-.3-.6-.3-.6l-5.7-.9.6 5.3c0 .6.3.9.9.9 2.4.3 4.6.8 7 1 2 0 3.7.1 5.3.6Zm29.8-65.9c.2 2.4.5 4.5.4 6.6 0 .6.3.6 1 .6l5 .7.8.1-.5-6.9c0-.3-.3-.6-.4-.5l-6.3-.6Zm7.8 1c.2 2.4.3 4.6.6 6.7.1.2.1.5.4.5l6.5.8c-.3-2.4-.4-5-.5-7.2-2.7-.4-4.8-.7-7-.8Zm-8.1 6-.7-6.7-.3-.3c-2-.3-4-.5-6.3-.6.3 2.4.6 4.5.7 6.7l.4.5c1.8 0 4 .3 6.2.5Zm-7.7-.7c-.3-2.4-.5-4.5-.6-6.8 0-.3-.5-.5-.6-.6l-3-.3-3-.3.8 6.6c0 .3.1.4.4.4l6 1Zm-65.8-14.7c.5 2.2.7 4.3 1.1 6.3 0 .3.5.4.6.6 1.5.3 3.2.5 4.7.5l1.6.1c-.2-2.4-.6-4.6-.9-6.7-2.4-.4-4.7-.5-7-.8Zm51 5.7v.3l.6 5.4c.1 1.4.1 1.4 1.5 1.5l5 .7c-.2-2.4-.5-4.5-.6-6.8 0-.3-.1-.5-.4-.5l-6-.6Zm31.2 11.6c0 1.7.2 3.3.3 5 .1 2 .1 2 2 2.1l4.9.7c-.3-2.5-.4-4.7-.5-7l-6.7-.8Zm-1-.1c-2.4-.2-4.6-.7-6.9-.8l.7 6.2c.1.4.3.6.7.7l5.4.6h.6l-.6-6.7Zm-36.9-5.2 6.5.8-.6-7.1-6.5-.8c.1 2.6.4 4.7.6 7Zm45.5 20.6c0-2.3-.2-4.2-.5-6.3l-.2-.3c-2.1-.4-4.2-.7-6.5-.8.1 2.2.2 4.2.5 6.3l.4.4c2.1 0 4.2.4 6.3.7Zm-16.3-16.2-6.8-.8c.3 2 .4 4.3.5 6.3 0 .3.4.5.7.5l4 .4c.7 0 1.1.2 1.9.3 0-2.4-.3-4.5-.3-6.7Zm8.2 8.5-6.8-.8c.3 2 .4 4.3.5 6.3l.3.3c2.1.3 4 .5 6.3 1 0-2.5-.2-4.6-.3-6.8Zm-38.3-13c0-1.9-.3-3.7-.6-5.5-.3-1.5-.3-1.5-1.6-1.7-1.7-.1-3.2-.4-5-.4l.8 6.6c0 .3.4.4.4.4 2.1 0 4 .4 6 .7Zm-42.2-4.3 1 6c0 .2.4.4.7.4l3.8.4 2.4.4-1-6.5-6.9-.7Zm35 3.4-.7-6.6-.5-.5c-1-.1-2-.1-2.8-.4l-3-.3.7 6.6.5.4 5.8.8Zm54 29.1c-.2-2.1-.1-4.2-.3-6.2 0-.3 0-.4-.4-.4-2-.3-4-.5-6.3-1 .1 2.3.2 4.2.5 6.4l.4.4 6.2.8Zm-23.8-18-.6-6.5-.3-.3-6.2-.8.7 6.5.4.4 6 .6Zm1.3 1-.1.2.5 6c.1.1.1.4.4.4l6.2.8c-.3-2-.3-4.2-.5-6.3 0-.3-.5-.5-.5-.5-2.2-.1-4-.4-6-.6Zm15.2 15.9c-.2-2.1-.2-4.2-.5-6.3 0-.2 0-.5-.4-.5-2-.3-4-.5-6.3-1l.5 6.7c2.2.5 4.3.8 6.7 1.1Zm-80.6-24.1 1 5.8c0 .3.4.5.7.5l3.4.5c1 0 1.8.3 2.7.3l-.8-6c0-.2-.2-.3-.4-.5-2.2-.2-4.3-.5-6.6-.6Zm64.9 14.7-.7-6.2c0-.3-.1-.5-.4-.5l-6.2-.7c.3 2 .6 4.2.7 6.1l.3.3 6.3 1Zm-15.4-15.8c.3 1.8.4 3.5.5 5.1.2 1.7.2 1.7 1.8 1.9 1.7.1 3.2.4 4.8.6-.3-2.1-.4-4.4-.6-6.5l-.5-.4c-1.8-.3-3.9-.7-6-.7Zm39 33.7c0-2.3-.3-4.4-.4-6.6-2-.4-4.3-.5-6.6-1l.5 6.6c2.2.2 4.3.5 6.6 1Zm-68.8-45 .9 6.5c0 .3.1.4.4.4l5.7.7c-.4-2.3-.5-4.5-.7-6.7l-.5-.4-5.8-.5Zm53.3 35.4-.6-6.2c-.2-.1-.2-.4-.5-.4l-6.2-.8.7 6.2c0 .3.3.3.4.4l6.2.8Zm-60.5-36.3c.2 2.4.6 4.6 1 6.9l6.2.8-1-6.5c0-.3 0-.5-.4-.5l-5.8-.7Zm68.6 44.6c-.3-2-.4-4-.5-6 0-.3-.4-.4-.4-.4l-2.9-.5-3.1-.5.5 6c0 .3 0 .5.4.5 1.8.3 3.7.8 6 1Zm-38.8-33.3v.3l.5 3.9c.2.7 0 1.8.5 2.3.4.4 1.5.3 2.4.6 1.3.1 2.3.3 3.8.6l-.6-6.2c0-.3-.4-.4-.4-.4-2.3-.8-4.2-1-6.2-1.1Zm-33.5 16.2a65 65 0 0 0-1-6c0-.2-.1-.4-.4-.4l-6.5-.8c.3 2.2.5 4 1 6l.4.4c2.3.1 4.4.5 6.5.8Zm49.8.4.6 6.2c.1.2.1.5.4.5 2.1.3 4 .4 6.2.8-.3-2.2-.4-4.1-.5-6 0-.4-.3-.7-.4-.5-2.5-.3-4.4-.8-6.4-1Zm-8.2-8.3v.3l.4 4c.3 2.2.3 2.2 2.4 2.5l4.2.6-.7-6.2c0-.3-.4-.4-.4-.4-2-.5-4-.6-5.9-.8Zm38.3 27c-2-.3-4.3-.4-6.6-1 .3 2.2.2 4 .4 6 0 .3.3.6.4.4l6 1-.2-6.4Zm-46.7-28.9-.7-6.3-.5-.4-6-.7.8 6.4c.1.1.1.4.4.4l6 .6Zm24.5 18.7c.1 1.4.1 2.6.4 3.8 0 .9-.2 2 .4 2.5.4.5 1.6.5 2.5.5l3.8.5c-.3-2.1-.4-4-.5-6 0-.3-.3-.6-.4-.5l-6.2-.8Zm-23.6-17.7.8 6.6 6.3 1-.6-6.2c0-.3-.3-.7-.5-.5-2-.5-3.9-.6-6-1Zm-30.3-11.8-1-6.5c0-.1 0-.4-.4-.5-1.8-.3-3.7-.4-5.7-.6.5 2.3.7 4.4 1 6.5l.4.4 5.7.7Zm61.9 37.7.2 3.9c.1.8 0 1.8.4 2.3.4.4 1.5.3 2.3.4l4.1.6-.4-6c0-.3-.2-.4-.5-.4l-6.1-.8Zm-72.4-17.2.8 4.8c.2 1.4.2 1.4 1.5 1.6 1.8.3 3.6.6 5.6.7l-.8-5.7c0-.3-.3-.3-.5-.4-2.2-.5-4.3-.8-6.6-1Zm49-.4c0 1.3.2 2.7.3 3.7.2.8 0 2.2.4 2.6.5.5 1.7.5 2.6.5 1.2.3 2.4.3 3.7.4l-.5-6c0-.3-.3-.6-.4-.4l-6.2-.8Zm8 8.3c.2 1.7.3 3.3.6 4.8 0 1.7 0 1.7 1.7 1.8 1.5.4 3.2.5 4.8.7l-.5-6c0-.3 0-.5-.4-.5l-6.1-.8Zm-24.3-18.5c-.2-1.5-.2-3-.5-4.5-.2-2.1-.2-2.1-2.3-2.4l-4-.5c.2 2 .3 4 .7 6 0 .3.3.6.6.6l5.5.8Zm47.8 36.1c0 2 .2 4 .5 6 0 .3.4.5.7.5l2.9.5 3.1.4-.3-5.8c0-.3-.2-.5-.5-.5-2.2-.5-4.3-.8-6.4-1Zm-15.3-9.3c-.2.2-.2.2 0 .3 0 1.4.2 2.7.3 4.1.3 2.1.3 2.1 2.4 2.4l4.2.7-.5-6.4c-2.2-.4-4.3-.8-6.4-1Zm-24.5-18.6-.6-6.2c-.2-.2-.2-.5-.5-.5-2-.1-3.9-.6-5.8-.7l.6 6.1.5.5c1.9.4 3.9.6 5.8.8Zm32.3 26.7.3 4.3c.2 2 .2 2 2.3 2.3 1.5.3 2.8.5 4.5.6l-.5-6.3c-2.3-.2-4.4-.5-6.6-1Zm-24.2-18.4-.6-6.2c-.2-.1-.3-.3-.6-.3l-2.9-.4-3-.4c.3 2.1.6 4.3.7 6.5l6.4.8Zm-40 8c-.3-1.2-.3-2.4-.5-3.6-.2-.7 0-1.8-.6-2.4-.4-.5-1.6-.5-2.4-.6-1.4-.2-2.7-.3-4.2-.7l1 6.2c2.2.5 4.3.8 6.7 1.1Zm24.8-17.1-.6-6.2-.4-.4-5.9-.8.8 6c.2.1.1.4.3.3 1.8.6 3.8.8 5.8 1Zm31.1 25.4c0-1.6-.2-3-.5-4.5-.2-1.8-.2-1.8-2-2-1.5-.4-3-.4-4.5-.7.2 2 .3 4 .6 5.9 0 .3.3.3.4.4 2 .5 4 .6 6 1Zm22.7 11.3-6.5-1 .5 5.7c0 .3.5.4.6.6l3.2.4c.9 0 1.8.3 2.8.5l-.6-6.2Zm-37.7-26.7.6 5.9c0 .3.5.4.6.6l3.2.5c.7.1 1.5.3 2.4.3l-.7-5.9c0-.3-.2-.6-.4-.5-1.6-.4-3.6-.6-5.7-.9Zm-24.2-18.3-.7-6.4-.5-.4-5.8-.8c.2 2 .5 4.2.9 6.2l.4.4c1.8.6 3.8.8 5.7 1Zm40.3 34.8c0 2 .3 3.8.5 5.7 0 .3.3.6.3.6l6 1-.5-5.7c0-.3-.3-.6-.5-.5a25 25 0 0 0-5.8-1Zm14.9 15.3-.5-5.7c0-.3-.2-.5-.5-.5l-6-1 .7 6.3c2 .1 3.9.6 6.3.9Zm-46-41h-.2l.4 3.8c.2.8 0 1.9.4 2.3.5.5 1.5.3 2.3.5l3.7.4c-.2-2-.4-4-.8-6 0-.3-.1-.4-.4-.4-1.5 0-3.5-.2-5.4-.7Zm-25 23.1-.7-4.4c-.2-1.5-.2-1.5-1.7-1.8l-5.1-.6c.4 2 .5 3.6 1 5.5-.1.4.2.7.4.5l6.1.8Zm32.8-14.8c.3 2 .4 4 .8 6 .1.1.4.4.6.3 1.3.1 2.5.5 3.9.6l1.8.3-.7-5.8c0-.3-.3-.6-.5-.7l-5.9-.7Zm-24-18.2-1-6.5-6.1-.8c.3 2 .5 4.2 1 6.2l.4.4 5.7.7Zm69.5 52.9-6.4-1c0 1.9.2 3.8.5 5.6 0 .3 0 .5.4.5l6 1-.5-6.1Zm-22.6-11.3-.7-5.8c-.1-.2-.1-.5-.3-.3l-6-1 .7 5.9c0 .3.4.4.4.4l5.9.8Zm-31-25.3-.8-6-.4-.5c-1.8-.3-3.8-.4-5.9-.8l.8 6.4 6.3.9Zm-14.9-15.6.8 6 .3.3c1.8.4 3.8.5 5.8.8l-.7-6-.5-.4c-1.8 0-3.7-.2-5.7-.7Zm31 25.6c0 1.4.2 2.4.3 3.5.2.8 0 2.1.5 2.6.4.4 1.6.4 2.5.4 1.2.3 2.4.3 3.6.7l-.6-6c0-.2-.2-.4-.5-.4l-5.8-.8ZM1249 242c0-2-.2-3.9-.5-5.7l-.4-.5-6-.9c.1 2 .2 4 .5 5.7l.4.5 6 1Zm-7.8-8c0-2-.2-4-.5-5.7l-.4-.5-6-1c.1 2 .2 4 .5 5.8 0 .3.3.3.4.5 2 .1 4 .6 6 .9Zm-62.7-10-1-5.6c0-.2 0-.5-.4-.5l-6.3-.9 1 5.9c2.4.3 4.6.8 6.7 1Zm24.8-22.7c.3 2 .6 3.9.7 5.8.1.2.1.5.3.3 1.8.3 3.9.7 5.8.8-.2-2-.3-4-.6-5.8l-.5-.5c-1.8 0-3.7-.2-5.7-.6Zm-30.9-25.4.5 3.7c.2 1 .1 2.2.6 2.7.6.6 1.8.3 2.8.4l3 .4-.8-6c0-.4 0-.5-.4-.5-1.8 0-3.6-.3-5.7-.7Zm14.1 9-6.1-.8.8 6 .4.5 5.8.8-.9-6.5Zm31.6 31.8-.6-5.9c0-.3-.5-.4-.6-.3l-2.7-.3c-1.1-.1-2-.2-3.2-.5l.6 6c0 .2.2.4.5.4 2 0 4 .1 6 .6Zm15.8 16.2c-.1-2-.4-4-.7-5.9l-.4-.4-6-1 .5 5.8.4.4c2.1.3 4.2.6 6.2 1.1Zm23 17.1-.4-3.7c-.2-.8 0-1.8-.3-2.1-.4-.5-1.3-.5-2.2-.5-1.4-.1-2.6-.5-4-.8 0 2 .1 4 .4 5.8 0 .3.3.3.4.4l6 1Zm-31-25.3c-.3-2-.4-4-.5-6l-.3-.3-5.8-.8c0 2 .4 3.8.6 5.9 0 .3.4.4.6.6 1.7.2 3.5.5 5.4.6Zm-22.7-17.1-.5-4.5c-.3-1.8-.3-1.8-2-2-1.3-.2-2.8-.5-4.4-.6l.8 6c.1.1.1.4.4.4 1.8 0 3.6.4 5.7.7Zm-8-8.2c0-1.7-.3-3.2-.5-4.5-.2-1.8-.2-1.8-2-2.1-1.4-.2-2.9-.5-4.4-.5l.8 6c0 .3.3.6.5.5 2 .1 3.7.4 5.7.6Zm39.7 34.3.5 5.7c0 .3.1.4.4.4 2 .5 4 .7 6 1 0-2-.2-4-.5-5.7 0-.3-.3-.3-.4-.5l-6-1Zm-62.9-10 .8 5.5c0 .3.2.5.5.5l6.3.9-.8-5.4-.4-.5-6.4-1Zm70.7 18 .5 5.7c0 .3.5.5.6.3 1.2.3 2.6.5 4 .6.5 0 1.1.3 1.7.3-.1-2-.4-3.7-.3-5.5 0-.3-.2-.5-.5-.5-2-.1-3.9-.6-6-1Zm-23.9-18-.6-6.2-6.3-1c.1 2 .4 3.8.7 5.6 0 .3.3.6.6.6 1.9.5 3.7.8 5.6 1Zm-14.7-15.2.8 5.7c0 .3.4.5.6.6l4.2.6c.4.2.7.2 1.3.2l-.8-5.7c0-.3-.2-.6-.4-.5l-5.7-1Zm-30.5-25.2c.3 2.1.7 4 .8 6 .1.2.1.5.4.5l5.6.8c-.3-2.1-.7-4-.8-6l-.4-.5-5.6-.8Zm54 49.3c0 2 .3 3.7.4 5.7 0 .3.5.4.6.6 1.2.3 2.3.4 3.5.5l2.2.4c0-2-.3-3.7-.5-5.7 0-.3-.2-.6-.4-.5a51 51 0 0 0-5.8-1Zm-39.2-34.1-.8-6c0-.4-.2-.5-.5-.5l-5.5-.8.8 6 .3.3c1.9.5 3.7.8 5.7 1Zm31.3 26c.1 2 .4 3.8.7 5.6 0 .3.4.5.6.6l3.1.5c.8.1 1.7.1 2.6.5l-.7-6.2c-2-.3-4-.5-6.3-1Zm15.7 16c0 2 .3 3.8.6 5.7 0 .3.2.4.5.4 1.9.5 3.9.6 6 1l-.5-5.8c0-.3-.3-.3-.5-.4l-6.1-.8Zm-38.2-33 .8 5.8c0 .3.3.6.4.4 1.8.3 3.8.5 5.7 1l-.6-6c0-.2-.1-.4-.4-.4l-5.9-.8Zm-1-1-.7-5.9c-.1-.1-.1-.4-.4-.4-1.8-.4-3.8-.5-5.9-.8.3 2 .6 3.9.7 5.8l.4.5 5.9.8Zm-23.2 23.8.8 5.4.3.3c2 .3 4 .8 6.4 1l-.8-5.3c-.1-.2-.1-.5-.4-.5-2.1-.3-4-.5-6.3-1Zm32-14.7.7 5.5c0 .3.3.6.4.5 1.8.3 3.8.5 5.7 1l-.6-6c-.2 0-.3-.2-.5-.4-2-.2-3.7-.5-5.7-.6Zm7.7 7.8.6 6c.2 0 .3.2.5.4l5.7.9-.5-5.7c-.2-.2-.2-.5-.5-.5l-5.8-1Zm-38.2-33c.3 2.1.5 4 1 5.9.1.1.1.4.4.4l5.5.8-.7-6-.5-.5c-2-.1-3.6-.3-5.7-.6Zm60.6 56-.5-5.7c0-.3-.1-.4-.4-.4-2-.5-4-.7-6-1 0 2 .3 3.8.6 5.6.2.2.2.5.5.5l5.8 1Zm-45.8-40.9-.8-6c-.2-.1-.5-.4-.6-.3l-3.2-.5c-.7-.1-1.5-.3-2.4-.3l.8 5.7c0 .3.2.5.5.5 2 .5 3.7.8 5.7 1Zm31.2 26c.1 2 .4 3.7.7 5.5 0 .3 0 .5.4.5 1.8.3 3.7.8 5.7 1l-.5-5.8c0-.3-.3-.3-.4-.4l-5.9-.8Zm-15.8-10c.2-.2 0-.4 0-.4l-.3-3.4c-.3-2.4-.3-2.4-2.7-2.8l-3.9-.6.7 5.6c0 .3.3.6.4.4 2.1.7 4 .8 5.8 1.1Zm-7.6-8-.8-5.7c0-.3-.1-.4-.5-.4-1.8-.3-3.7-.5-5.6-1l.7 5.8.5.4 5.7 1Zm23.1 23.8c0-2-.3-3.7-.6-5.5 0-.3-.3-.6-.4-.5l-5.8-1 .7 5.6c0 .3.3.3.4.5 2 .5 4 .6 5.7 1Zm-7.6-7.8c-.1-2-.4-3.8-.7-5.6 0-.3-.3-.6-.4-.5-1.8-.3-3.8-.4-5.7-1 .1 2 .4 3.9.8 5.8l.4.5c1.7.1 3.6.3 5.6.8Zm-37-31.9.8 5.7c.1.2.1.5.4.5l5.6.8-1-5.9-.4-.4-5.4-.7Zm52.5 47.8-.7-5.6c0-.3-.1-.5-.4-.5-1.8-.3-4-.6-5.7-1 0 2 .4 3.8.6 5.7l.5.4c2 .2 3.7.5 5.6 1Zm-44.8-39.9.3 3.5c.2.7 0 2 .4 2.5.6.6 1.7.5 2.7.6l3.2.5-.8-5.7c0-.3-.1-.5-.4-.5l-5.5-.9Zm15.6 15.7.8 5.8.3.3c1.8.3 3.7.4 5.7 1-.1-2-.4-3.9-.7-5.7 0-.3-.1-.4-.4-.4-1.8-.3-3.8-.5-5.7-1Zm14.4 14.9c0-2-.3-3.8-.6-5.6 0-.3-.1-.4-.4-.4l-5.7-1c0 2 .3 3.8.8 5.7 0 .2.2.3.4.5l5.5.8Zm-22-22.7.7 5.7.5.4 5.7 1-.8-5.7-.5-.5-5.7-1ZM1215 243l6.2 1.1-.7-5.6c-.1-.1-.1-.4-.4-.4-1.8-.3-3.8-.8-5.7-1 0 2 .3 3.8.6 6Zm-30.7-30.6.8 5.7c.2.2.2.5.5.5l5.5.8-.8-5.7-.3-.3c-2-.5-3.7-.8-5.7-1Zm-.9-.9c0-1.3-.4-2.5-.5-3.9-.4-2.3-.4-2.3-2.5-2.6l-3.6-.6c.4 2 .5 4 .8 5.7 0 .3.1.5.4.5l5.4 1Zm23 23.6c0-2-.3-3.7-.6-5.5-.1-.2-.1-.5-.5-.5l-5.6-1c0 2 .3 3.8.6 5.6l.4.5c2 .2 3.8.5 5.7 1Zm-7.6-7.8c-.1-2-.4-3.8-.7-5.6 0-.3-.4-.5-.6-.6l-4.2-.6-1.3-.2c.3 1.8.4 3.8.8 5.4 0 .3.3.6.6.6 1.8.3 3.4.5 5.4 1Zm-5.9-.2.5 3.9c.3 1.8.3 1.8 2.2 2.3 1.4.1 2.6.4 4 .6l-.7-5.6c0-.3-.3-.6-.4-.4-1.8-.4-3.6-.7-5.6-.8Zm-7.7-7.9c.3 1.8.4 3.8.8 5.7.2.2.2.5.5.5l5.7 1-.7-5.7c0-.3-.3-.6-.4-.4-2.1-.6-4-.8-5.9-1.1Zm-7.6-7.9c0 1.4.4 2.6.5 4 .4 2.2.4 2.2 2.5 2.5l3.6.6-.8-5.7c0-.3-.1-.4-.4-.4-1.8-.3-3.5-.5-5.4-1Zm8.6 14.7.8 5.4c0 .3 0 .4.4.5l5.7.9c-.3-1.8-.4-3.8-.6-5.6l-.5-.4c-2-.3-3.9-.7-5.8-.8Zm-7.7-7.9 1 5.6.4.4 5.4 1-.8-5.8-.5-.4c-1.6-.2-3.6-.3-5.5-.8Zm8.6 14.4c.1 1.3.4 2.8.7 4 .2 1.8.2 1.8 2 2.1l4 .8-.6-5.3c0-.3-.3-.6-.6-.6l-5.5-1Zm-7.7-7.6c.4 2 .5 3.6.8 5.4l.4.5 5.4.9-.8-5.4-.4-.5c-1.6-.4-3.3-.6-5.4-1Zm7.7 13.4-.8-5.4c-.1-.2-.1-.5-.4-.5l-5.4-.9.8 5.4c.1.2.1.5.4.5l5.4 1ZM1175.2 243.6l9.3 1.5 74.3 12.5c.5 0 .8.3.8.9l3.2 60c.1 1.3 0 2.8.2 4.1l-1.2-.3-76.6-15.8c-.6 0-.9-.3-1-1l-9-61.6v-.3Zm28.6 61 .5 4.3c0 .6.3.9 1 1l10 2 .8.2c-.1-1.7-.2-3-.5-4.5 0-.3-.3-.6-.3-.6-1.6-.5-3.3-.7-5.2-1.1 0 1.6.4 3.2.3 4.7-.6 0-.7-.2-.9-.6 0-1.3-.2-2.5-.5-3.7 0-.3-.3-.6-.3-.6l-5-1Zm-26.5-53.3 6.7 1c-.1-1.3-.4-2.5-.4-3.7 0-.8 0-1.8-.4-2.3-.4-.4-1.5-.3-2.2-.4l-4.2-.7c0 2.1.4 4.1.5 6Zm74.4 6.4c-2.1-.3-4-.8-6.2-1l.3 5.8c.2.2.2.5.5.5l5.8 1-.4-6.3Zm.9 0c0 2 0 3.8.3 5.6 0 .3.3.6.4.4 1.8.3 3.8.8 5.7 1l-.1-5.8-.5-.4-5.8-.8Zm-14.1-2.5.3 6c.1 0 .1.4.3.2l5.7 1c-.3-2.2-.2-4.3-.3-6.2-2-.2-4-.5-6-1Zm-6.8 5.1 6 1-.3-6-.3-.2c-2-.5-3.9-.6-5.8-1 .4 2.2.5 4.1.4 6.2Zm-46.8-1.5-.6-5.3c0-.3-.3-.6-.5-.4-2-.3-4-.8-6.1-1l.8 5.3.4.5 6 1Zm46 1.4c0-2-.1-4-.4-5.7 0-.3-.1-.5-.4-.5l-5.7-1c0 2 .2 4 .4 5.8 0 .3.2.5.5.5 1.8.3 3.7.4 5.7.9Zm-13.3-8.5c.1 2 .4 4 .6 5.9 0 .3.5.4.5.4l4 .8c.5.2.8.2 1.4.2-.1-2-.2-4-.5-5.8 0-.3-.1-.4-.4-.4l-5.6-1Zm41.7 19.7c0-2 0-3.7-.3-5.5-.1-.2-.1-.5-.3-.3-2-.5-3.9-.7-5.8-1.1l.1 5.4c0 .3.5.5.5.5l5.8 1Zm-48-14.4 6 .9c-.2-2.1-.2-4-.6-5.9 0-.3-.4-.4-.7-.4-1.2-.4-2.6-.5-3.6-.7l-1.7-.1c.3 2 .4 4 .6 6.2Zm-25.6 8.1-.7-5.2-.4-.5c-2.1-.3-4-.8-6.1-1l.7 5.7c2.1.3 4.2.9 6.5 1Zm60.1-1.7.2 5.4c0 .3.1.5.4.5l5.7 1c0-2-.2-3.7-.1-5.5 0-.3-.3-.6-.5-.5l-5.7-.9Zm-35.2-6.6-.6-5.9c-.2-.1-.2-.4-.5-.4l-5.5-.8.6 6.2 6 .9Zm28.3 5.4.3 5.5c0 .4.2.5.5.5 1.8.3 3.7.8 5.7 1l-.3-5.6c0-.3-.2-.5-.5-.5-2-.2-3.7-.5-5.7-1Zm-35-6.5c-.3-2-.6-4.2-.7-6.2l-5.9-1 .8 5.7c0 .3.2.4.5.5l5.2 1Zm55.6 22.4-.3-6c-2.1-.2-4-.7-6.2-1l.2 5.4c0 .3.1.5.4.5 2 .4 3.8.8 5.9 1Zm-80.1-13.3c.2 1.8.3 3.5.8 5.1.1.2 0 .5.4.5 2 .5 4 .8 6.1 1l-.6-5.2c-.1-.2-.1-.5-.4-.5-2.3-.1-4.2-.6-6.3-.9Zm73.2 12-.3-5.8-6.2-1.1.4 5.3c0 .3.2.6.4.4 1.8.6 3.6 1 5.7 1.2Zm-55.4-22.3-.6-5.9c-.1-.1-.1-.4-.4-.4l-5.5-1 .8 5.8c.2.1.2.4.5.4 1.5.6 3.3 1 5.2 1Zm34.7 6.6c0 2 .2 3.6.4 5.4 0 .3.2.5.5.5 1.8.3 3.7.7 5.7.9l-.3-5.9-6.3-.9Zm-41.4-7.7-.6-3.6c0-.8 0-1.8-.5-2.4-.5-.5-1.7-.5-2.4-.6l-3.2-.5.8 5.7c.2.2.2.5.5.5l5.4 1Zm48.7 15.6.3 5.8 6 1c0-2-.2-3.7-.3-5.3 0-.3-.1-.5-.4-.5a30 30 0 0 0-5.6-1Zm14.5 14.5 6.1 1-.2-5.7c-2-.3-4-.8-6.1-1 0 1.9 0 3.7.2 5.7Zm-28.7-23.6c0 1.3 0 2.8.3 4.3.1 1.7.1 1.7 1.8 1.8l4.3.8c0-2-.2-3.9-.3-5.9l-6.1-1Zm-37.6 17.7-.7-5c-.1 0-.1-.4-.4-.4l-6.2-1c.3 1.8.4 3.4.8 5 .2.2.1.5.3.4l6.2 1Zm30.8-18.8.2 3.3c.2.8 0 1.8.4 2.3.5.4 1.7.4 2.4.6 1 .1 2.3.4 3.5.4-.1-2-.2-3.6-.5-5.4 0-.3-.1-.4-.4-.4l-5.6-.8Zm20.1 9.8-6-.9.4 5.3c0 .3 0 .4.2.6l5.6 1c.2-2.2 0-4-.2-6Zm14.6 14.7v-3.5c-.2-.7.1-1.6-.3-2-.5-.5-1.4-.5-2.1-.7-1.2-.3-2.6-.4-4-.6l.4 5.3c.1.1.1.4.4.4 1.7.5 3.5.8 5.6 1.1Zm-7.4-7-6-.9.3 5.6 5.9 1c.2-1.9 0-3.7-.2-5.6Zm-27.7-11.8-.4-4c0-2 0-2-2.2-2.3-1.4-.2-2.5-.5-3.9-.6.3 1.8.2 3.6.5 5.4 0 .3.3.6.4.4 2 .5 3.8.8 5.6 1.1Zm7.6 2 .3 5.3c0 .3.2.4.5.4l5.5 1c0-1.9-.2-3.5-.3-5.2 0-.3-.3-.6-.4-.4-1.7-.5-3.5-.8-5.6-1.1Zm28.4 17.7c0 2 0 3.8.3 5.6l5.9 1-.4-5.2-.4-.5-5.4-.9Zm-14.7-3.4-.3-5.2c0-.3-.5-.5-.6-.6-1-.3-1.8-.3-2.9-.5l-2.5-.4c0 2 .2 3.6.5 5 0 .4.3.7.5.7l5.3 1Zm-51 2.9c-.2-1.8-.3-3.5-.6-5 0-.3-.3-.3-.5-.5l-5.8-1c.3 1.8.5 3.3.6 5 .2.1.2.4.5.4 2 .5 3.7.8 5.8 1Zm16.6-27 .5 5.4c.1.1.1.4.4.4l5.4 1-.5-5.5c-.1-.1-.1-.4-.4-.4a29 29 0 0 0-5.4-1Zm14.1 8.6c.1 2 .2 3.6.5 5.4 0 .3.1.4.4.4l5.6 1.1c-.1-2-.2-3.6-.5-5.4l-.4-.5-5.6-1Zm28.4 23.3 5.9 1c-.1-2-.1-3.7-.4-5.5l-6.1-1.1c.4 2 .4 3.8.6 5.6Zm-49.1-33.2.6 5.3c0 .3.5.4.6.6 1.5.3 3 .6 4.4.7h.6l-.7-5.2c0-.3-.3-.6-.4-.5l-5.1-.9Zm14 8.8c0 1 0 2 .2 2.7.1 1 0 2.1.4 2.9.6.6 1.8.6 2.7.6l2.8.4c-.2-1.8-.2-3.6-.5-5 0-.4-.2-.7-.4-.5-1.6-.5-3.3-.7-5.2-1.1Zm14 8.8c.2 1.8.1 3.6.3 5.2 0 .3.4.5.4.5l3.2.5 2 .3a43.5 43.5 0 0 0-.7-5.8c-1.4-.1-3.3-.3-5.3-.7Zm13.9 8.8.3 5c.2.4.3.5.8.7l3.9.6 1.3.2c-.1-2 0-3.8-.3-5.6-2-.2-4-.6-6-1ZM1192 260l5.7 1-.6-5.3c0-.3-.2-.5-.5-.5l-5.4-.9c.5 2 .6 4 .8 5.7Zm61.8 30.5.2 4.3c.2 1.3.2 1.3 1.5 1.8l4.5.9c0-1.8 0-3.5-.2-5.1 0-.3-.3-.6-.4-.5a20 20 0 0 0-5.6-1.4Zm-48.6-27.4.6 5.3c.2.1.2.4.5.4 1.8.3 3.6.6 5.5 1.1-.2-1.8-.2-3.6-.6-5.3 0-.3-.1-.4-.5-.4-1.7-.6-3.4-.8-5.5-1Zm14.1 8.6.3 3c0 .8-.2 2 .3 2.6.5.5 1.7.5 2.4.6l3.3.6-.4-5c0-.4-.3-.7-.5-.5-1.8-.6-3.6-1-5.4-1.3Zm-30.5 18-.7-5c-.1-.1 0-.4-.4-.4-2-.5-3.9-.6-6-1.3l.7 5 .4.5c2 .6 3.9.9 6 1.2Zm64.3.7-5.9-1 .4 5.5 5.8 1c0-1.9-.3-3.7-.3-5.5Zm-19.5-4.3c2 .5 4 .6 5.9 1l-.3-3.8c0-1.7 0-1.7-1.6-2l-4.3-.8c0 2 0 3.8.3 5.6Zm-48.8-32.9.8 5.5c.1.1.1.4.4.4l5.4 1-.8-5.5-.4-.4-5.4-1Zm14 8.8.6 5.3c0 .3.1.5.4.5l5.4.9-.6-5.3-.5-.4-5.4-1Zm13.8 8.7c0 1.6.2 3 .3 4.3.1 1.4.1 1.4 1.5 1.5l4.3.8-.4-5.1c0-.3-.2-.5-.5-.5l-5.2-1Zm20.1 15.4c-.3-1.8-.2-3.6-.3-5.3-.2-.1-.2-.4-.5-.4-1.8-.3-3.6-.6-5.5-1.1.2 1.8.2 3.6.5 5.1 0 .3.3.3.4.5l5.4 1.2Zm13.8 8.6c-.1-1.6 0-3.4-.3-5 0-.2-.2-.4-.5-.4l-5.5-1 .3 4.9c.2.2.2.5.5.5l5.5 1Zm13.7 8.5c0-1.8 0-3.5-.2-5.1 0-.3-.4-.5-.6-.6l-3.2-.5-2.2-.4.2 4.8c0 .3.3.6.4.4 2 .8 3.8 1.1 5.6 1.4Zm-48-27-.4-5c0-.4-.1-.5-.4-.5l-5.4-1 .6 5.3.4.5c1.7.1 3.5.4 5.3.7Zm13.9 8.7c-.3-1.8-.4-3.5-.5-5.2 0-.3-.1-.4-.4-.4l-5.4-1 .5 5.2.4.4c1.7.2 3.5.5 5.4 1Zm-27.5-17.4-.6-5.3c-.1-.2-.1-.5-.4-.5l-5.5-.9.7 5.3c0 .3.1.4.4.4 1.8.3 3.5.8 5.4 1Zm54.8 29-5.8-1c0 2 .2 3.6.1 5.4 2 .5 4 .6 5.9 1l-.2-5.3Zm-13.6-3.2c0-1.2-.1-2.2-.3-3.3 0-2.2 0-2.2-2.2-2.5l-3.7-.8c.3 1.8.2 3.3.3 5 0 .3.2.4.5.4 1.8.6 3.6 1 5.4 1.2Zm-47.6-27c-.3-1.7-.5-3.5-.6-5.2 0-.3-.2-.5-.5-.5l-5.4-.9.6 5.3.3.3c2 .5 3.5.8 5.6 1Zm-9.6 23 .6 3.2c.2 1.8.2 1.8 2 2.2l4.4.7c-.3-1.8-.6-3.3-.7-5l-.4-.4c-1.8 0-4-.3-5.9-.8Zm23-14.3-.5-5.3c-.2-.1-.2-.4-.5-.4l-5.4-1 .7 5.3.4.5 5.4.9Zm13.9 8.6-.4-4c0-1.7.2-1.4-1.4-1.5l-4.4-.8c.3 1.8.4 3.5.5 5.1 0 .3.3.6.4.5 1.7.1 3.4.3 5.3.7Zm21.5 10.7-.2.1c.1 1 .1 2.3 0 3.2.2 2 .2 2 2.1 2.4 1.4.1 2.6.4 4 .6l-.3-4.8c0-.3-.1-.5-.3-.6l-5.4-1Zm-13.7-3.3c2 .5 3.8.8 5.9 1.1l-.5-5.1c0-.3-.5-.5-.5-.5l-3-.6-2-.3c-.1 1.8.2 3.6.1 5.4Zm27.2 11.9.2 4.8c0 .3.1.5.4.5l5.5 1c0-2-.2-3.6-.1-5.4-2.1-.3-4-.8-6-1ZM1193 267c.3 1.8.4 3.8.6 5.6l5.8 1-.7-5.3c-.1-.2-.1-.5-.4-.5-1.7-.2-3.3-.3-5.3-.8Zm33.7 23.8-.4-5c0-.3-.3-.6-.6-.6l-3.3-.6-2-.3c0 1.7.2 3.3.3 5 0 .3.1.4.4.4 2 .5 3.8.8 5.6 1Zm-13.7-8.5-.6-5.3-.3-.3-5.4-.9.5 5.1c.1.2.1.5.4.5l5.4 1Zm34.8 19.1c0 1.2.3 2.4.2 3.6.2 1.7.2 1.7 1.8 2.1 1.4.2 2.7.7 4 .8a54 54 0 0 1-.1-4.8c0-.3-.2-.5-.5-.5l-5.4-1.2Zm-7.5-2.1v-2.9c0-.9.1-2-.3-2.4-.4-.5-1.6-.5-2.4-.6l-3.3-.6.4 5c0 .2.2.6.5.6 1.5.3 3.2.7 5.1.9ZM1201 280c1.8.3 3.7.8 5.5 1-.3-1.7-.4-3.4-.5-5-.1-.2-.1-.5-.4-.5-1.8-.3-3.5-.8-5.4-1 .4 2 .5 3.7.8 5.5Zm-14.3-14c.2 1.8.3 3.7.6 5.5 1.8.3 3.6.6 5.5 1.1-.2-1.8-.3-3.5-.6-5 0-.3-.3-.6-.6-.6-1.3-.4-3.1-.7-5-1Zm3.8 35.3c0-1.6-.4-3.1-.6-4.6-.2-.2-.1-.5-.5-.5l-5.8-1 .8 4.8.4.4c2 .2 3.8.5 5.7 1Zm56.8 5.4c0-1.7-.2-3.3-.3-5l-.3-.3-5.5-1 .3 4.9c.1.2.1.5.4.5 1.9.3 3.5.4 5.5.9Zm-27.1-17.1-.4-5c0-.3-.1-.5-.3-.6l-5.4-1c.3 1.9.4 3.5.5 5.2 0 .3.3.3.5.4l5 1Zm7.5 2.1c0 1.7.2 3.3.3 5 .1.1.1.4.4.4l5.4 1c0-1.7-.2-3.4-.3-5 0-.3-.3-.6-.5-.5l-5.4-.9Zm27.1 17.1.4 5.3c2 .4 3.7.8 5.8 1 0-1.7 0-3.4-.2-5-2-.7-3.9-1-6-1.3Zm-61-35.4.6 4.2c.3 1.5-.2 1.3 1.6 1.6l4.3.8c-.2-1.8-.3-3.5-.6-5 0-.3-.3-.6-.6-.6a53 53 0 0 0-5.2-1Zm20 15-.3-3c-.2-.7 0-1.7-.4-2.2-.5-.4-1.5-.3-2.3-.4l-3.3-.7c.3 1.8.3 3.4.5 4.9 0 .3.3.6.6.6 1.7.1 3.3.6 5.1.9Zm21 10.6.3 5c0 .2.1.4.4.4l5.3 1-.4-5c0-.2-.3-.2-.4-.4l-5.3-1Zm19.5 14.8c-.2-1.7-.1-3.2-.2-4.8 0-.3-.2-.5-.3-.6l-5.6-1.1.4 5.3 5.7 1.2Zm-33.3-23.3.5 5c.2.2.2.5.5.5 1.8.4 3.4.8 5.4 1l-.4-5c0-.3-.1-.5-.4-.5l-5.5-1Zm-27.3-11.7-.6-5.3-.4-.5c-1.8-.3-3.5-.7-5.4-.9l.8 5.4c2 .7 3.8 1 5.7 1.3Zm7.4 2 .6 5c.2 0 .3.2.5.4l5.2 1-.5-5-.4-.5-5.4-1Zm46.6 31.8c-.1-1.7-.1-3.2-.4-4.7 0-.3-.1-.5-.3-.6l-5.4-1c.1 1.7.3 3.4.2 4.9 0 .3.2.4.5.4l5.4 1Zm-33.1-23.2c.1 1.6.2 3.3.5 4.8 0 .3.1.5.3.6 1.8.3 3.4.8 5.2 1l-.3-4.9c0-.3-.2-.4-.5-.4-1.7-.6-3.2-1-5.2-1.1Zm13.5 8.3.4 5c.1.1.1.4.4.4l5.3 1.1-.4-5c0-.3-.1-.4-.4-.4-1.7-.5-3.5-.8-5.3-1Zm33 23.2v-4.7c0-.3-.1-.4-.3-.6l-5.5-1c.1 1.6 0 3.1.2 4.8 0 .3.1.4.4.4l5.3 1Zm-66.5-41.2.7 5c.1.1.1.4.4.4 1.8.3 3.5.8 5.3 1l-.7-4.9c0-.3-.4-.4-.6-.6-1.6-.5-3.3-.6-5-1Zm13.6 8.3.2 2.7c.1.8 0 2.1.4 2.6.4.4 1.6.4 2.4.6l3 .6c-.1-1.6-.2-3.3-.5-4.8 0-.3-.3-.6-.6-.6-1.5-.3-3.1-.8-5-1Zm-23.5 12.9.6 4.6.5.5 5.7 1.2-.7-4.6c0-.3-.3-.6-.6-.6l-5.5-1.1Zm36.8-4.4.5 4.8.5.5 5.2 1c-.1-1.6-.2-3.3-.5-4.8 0-.3-.1-.4-.4-.4-1.7-.5-3.3-.6-5.3-1.1Zm26.9 16.8.1 2.6c0 .9-.2 2 .2 2.4.5.4 1.7.4 2.4.6 1 .1 2.1.3 3 .6 0-1.7 0-3.2-.2-4.5 0-.3-.3-.6-.5-.6l-5-1Zm-7.2-2.1c-.1-1.4 0-2.6-.2-3.6 0-1.5 0-1.5-1.5-1.9l-4.3-.7.3 4.6c0 .3.3.6.5.5 1.6.5 3.4.8 5.2 1Zm-46.7-26.4-.6-5c0-.3-.2-.4-.5-.4-1.6-.5-3.3-.6-5-1 .2 1.9.3 3.5.6 5l.4.5 5.1.9Zm7.2 2.1.7 5c0 .2 0 .5.2.3 1.8.3 3.5.8 5.3 1-.3-1.7-.2-3.2-.5-4.7 0-.3-.1-.5-.5-.5-1.6-.4-3.4-.8-5.2-1Zm26.9 16.8.2 4c0 .9.4 1.3 1.5 1.5 1.3.1 2.8.4 4.3.7a229 229 0 0 0-.3-4.6c0-.3-.2-.5-.5-.5l-5.2-1Zm-13.4-8.4.5 4.8c.2.1.2.4.5.4 1.6.5 3.3.7 5.2 1.1-.1-1.6-.2-3.3-.5-4.8l-.4-.5a54 54 0 0 0-5.3-1Zm32.8 23.1c-.1-1.6 0-3.1-.4-4.6 0-.3-.1-.5-.3-.6l-5.2-1.1.3 4.6c0 .3.4.3.5.5 1.6.5 3.3.6 5 1.2Zm-33.2-18c-.1-1.7-.2-3.3-.5-4.8 0-.3-.3-.6-.6-.6l-3.3-.7-1.8-.3.5 4.9c0 .3.3.6.6.6l5.1.9Zm7.3 2 .5 4.8c.2.1.2.4.3.3 1.8.3 3.5.8 5.3 1l-.4-5-.3-.2c-1.8-.3-3.4-.5-5.4-1Zm-26.7-16.7.7 5c0 .1 0 .4.4.4 1.6.5 3.3.6 5 1-.2-1.9-.3-3.5-.6-5 0-.3-.4-.5-.5-.6l-5-.8Zm46.1 31.3-.3-5.2-5.7-1.3c.3 1.9.4 3.5.5 5.2 1.8.6 3.6.9 5.5 1.3Zm-52.4-32.5.7 5c0 .3 0 .4.4.4 1.6.5 3.3.6 5.2 1-.2-1.7-.3-3.4-.6-4.9-.2-.1-.1-.4-.4-.4l-5.3-1.1Zm13.4 8.5c0 1.6.3 3.1.5 4.8.1.1.1.4.4.4l5.3 1.1-.5-4.8c0-.3-.3-.6-.5-.5-1.8-.6-3.4-.7-5.2-1Zm19.2 14.5c0-1.7-.4-3.2-.3-4.7 0-.3-.3-.6-.6-.6-1.5-.3-2.9-.4-4.4-.8-.3 0-.4-.1-.6-.3.3 1.8.3 3.4.5 4.9 0 .3.3.6.5.4 1.6.5 3.3.6 5 1Zm7.4 2c0 1.6.2 3.3.3 4.6.2.2.2.5.3.3l5.3 1.1-.4-4.7c0-.3-.3-.6-.6-.6-1.5 0-3.1-.4-5-.7Zm-33-17.8c.3 1.2.3 2.4.5 3.5.2 1.8.2 1.8 2.2 2.3 1.1.3 2.2.4 3.6.6l-.5-4.8c0-.3-.2-.5-.5-.5-1.8-.6-3.4-.8-5.2-1Zm13.8 13.5 5.5 1c0-1.6-.2-3.3-.5-4.8l-.4-.4-5.3-1c.5 1.9.6 3.5.7 5.2Zm18.7 9.4c0-1.7-.2-3-.3-4.7 0-.3-.1-.4-.3-.6l-5.2-1 .5 5 5.3 1.3Zm-25.5-15.8.4 3.5c.2 1.8.2 1.8 1.9 2l3.7.7c0-1.6-.3-3.1-.5-4.8 0-.3-.3-.6-.4-.4-1.6-.5-3.3-.7-5.1-1Zm-7.2-2.1c-.1-1.7-.5-3.3-.6-5l-.5-.4c-1.6-.5-3.3-.6-5-1l.6 5 .4.5 5.1.9Zm20.6 10.3.4 5.1 5.6 1.1c-.1-1.6-.4-3.2-.4-4.7 0-.3 0-.4-.4-.4-2-.5-3.6-.6-5.2-1Zm-13.7-3.2c0-1.7-.4-3.2-.5-4.8-.1-.2-.1-.5-.4-.5-1.6-.4-3.3-.6-5.1-.9l.5 4.8.4.5c1.8.3 3.5.4 5.1.9Zm-12-7.4.4 3.1c.2 1.9.2 1.9 2.2 2.3l3.4.8c0-1.7-.4-3.2-.6-4.7 0-.3-.5-.4-.5-.4-1.6-.5-3.3-.7-4.9-1.1Zm12.8 13.1c-.1-1.6-.4-3.1-.6-4.6l-.5-.5c-1.6-.5-3.3-.6-5-1 0 1.7.3 3.2.6 4.8l.4.4c1.7.2 3.3.6 5.1 1Zm-12.2-7.2.5 4.5c0 .3.3.6.3.6l5 1-.5-4.5c0-.3-.2-.4-.5-.4-1.5-.6-3-1-4.8-1.2Zm70.5 8.2c-.4 2.1.2 11 .6 11.4-.2-3.9-.6-7.6-.6-11.4Z"/></g></g><defs><linearGradient id="a" x1="1299.5" x2="692.4" y1="351.3" y2="701.8" gradientUnits="userSpaceOnUse"><stop stop-color="#1F4571"/><stop offset="1" stop-color="#143862" stop-opacity="0"/></linearGradient><clipPath id="b"><path fill="#fff" d="m1136.4 129.3 391 103.3-91.4 346-391-103.1z"/></clipPath></defs></svg>