<svg xmlns="http://www.w3.org/2000/svg" width="749" height="706" fill="none"><mask id="a" width="306" height="380" x="0" y="0" maskUnits="userSpaceOnUse" style="mask-type:alpha"><path fill="#C4C4C4" d="M0 35.7 47.5 379l257.9-35.7L257.8 0z"/></mask><g mask="url(#a)"><path fill="#394149" d="m183.2 153.2 79.4-39.5 8.3 36-46.6 26.3-.2 2.2-.2 3.4s7.5 7.6 8.8 10.3l2 3.9c.5.4 2.6 1 4.7 3.7 2 2.8 3 4.6 3 4.6s11.2 1.7 18 10.2c6.7 8.4 4 13.5 4.9 16.7.8 3.2 4.5 14 4.2 15.3-.3 1.2-21 25.2-21 25.2l-14 6.2-30.2-7.1-8-3.2-23.8-9.7-4.4.6h-2.7l-9.9 57.8-38.3 3.7 13.4-92.2 6.8-1.3s-10.3-20.1-11.8-25a98 98 0 0 0-3.7-9.6l-.7-2.5 23.2-33.2 18 .4 21.2 2.2 1.4-1-1.8-4.4Z"/><path fill="#5C5F63" fill-rule="evenodd" d="M117.2 319.8 156 316l9.8-57.6h2.5l4.3-.6 23.7 9.7 8 3.2 30.2 7 14-6.2-.1-.2.2.2.4-.5.4-.6a2536.4 2536.4 0 0 0 19.9-23.6 5.5 5.5 0 0 0 .3-.5v-1l-.4-1.6-1.3-4.4-.9-3-1.6-5.4c-.2-.7-.2-1.6-.2-2.7v-3.6c-.3-2.8-1.4-6.2-4.8-10.4a28.7 28.7 0 0 0-11.5-8.3 35.6 35.6 0 0 0-6-1.9h-.3a15.1 15.1 0 0 0-.7-1.2l-2.3-3.3a12.8 12.8 0 0 0-4-3.4h-.1a10.6 10.6 0 0 1-.6-.4l-2-3.8a87.4 87.4 0 0 0-8.7-10.2l.2-3.4.1-2L271 150l-8.4-36.3-79.6 39.6 1.8 4.5-1.1.7-21-2.1-18.1-.4-23.3 33.3.8 2.6v.2a46.7 46.7 0 0 1 1.3 2.8l2.4 6.6c.7 2.4 3.7 8.7 6.4 14.3l3.7 7.4 1.2 2.3c0 .3.2.5.3.6l-6.7 1.3-13.4 92.4Zm20.4-93.5.2-.1-.1-.2-.3-.7a678.6 678.6 0 0 1-11.3-23.9 86.9 86.9 0 0 0-3.6-9.5v-.1h-.1l-.7-2.4 23-33 17.8.4 21.2 2.2 1.6-1-1.8-4.5 78.7-39.1 8.2 35.4L224 176l-.2 2.3-.2 3.6.2.1.2.3a152.4 152.4 0 0 1 6.5 7.1c.9 1.1 1.6 2 1.9 2.7l2 3.9.4.2.3.2 1.1.7c.8.5 1.9 1.3 3 2.6a56.1 56.1 0 0 1 2.7 4.2l.1.2v.1h.1v.1h.2a18.4 18.4 0 0 1 1.8.5c1.1.3 2.7.7 4.5 1.5 3.6 1.5 8 4 11.4 8.1 3.3 4.2 4.3 7.5 4.6 10.2v3.6c0 1 0 2 .2 2.8l1.7 5.5a638.5 638.5 0 0 1 2.6 9.4v.3l-.3.4-.7 1-2.4 3a719.3 719.3 0 0 1-16.7 19.6l-.3.3-.3.4-.2.2-13.9 6.2-30-7-8-3.2-23.7-9.7-4.5.6h-2.7l-10 57.6-37.6 3.7 13.2-91.5 7-1.3-.2-.3-.2.1Z" clip-rule="evenodd"/><path fill="#5C5F63" fill-rule="evenodd" d="m150.8 217.6 47.4 50.7.4-.4-46.2-49.5 55.1 5.8-25-46.5 50.4 27.5.3-.5-52.3-28.5 25.6 47.3-55.7-5.9Z" clip-rule="evenodd"/><path fill="#252E36" d="m224 177.3-40.6-19.5 1.3-1-1.7-4.5 79.4-39.4 8.3 35.9-46.6 26.3v1.2l-40.7-18.5"/><path fill="#5C5F63" fill-rule="evenodd" d="m182 158.8 41.4 20 .4-.8-1.7-.8 2 1v-1.7L271 150l-8.5-37-80.4 40 1.7 4.7-1.6 1.1Zm1.8-.1 1-.7-1.7-4.6 78.6-39.2 8.2 35.3-46.6 26.5v.8l-39.5-18.1Z" clip-rule="evenodd"/><path fill="#5C5F63" fill-rule="evenodd" d="m164.5 256.9-21.7 20.2.5.5 22-20.5-13.9-39.6 30.2-40.6 41.9 1v-.7l-42.2-.9-30.5 41.1 13.7 39.5Z" clip-rule="evenodd"/><path fill="#252E36" d="m141.3 165.6 5.8 4.9-10.3 15-6-5 10.5-14.9Z"/><path fill="#5C5F63" fill-rule="evenodd" d="m130.6 179 6.1 5 10.2-15-5.9-4.8-10.4 14.8Zm.4 0 10-14.4 5.5 4.5-9.9 14.5-5.6-4.7Z" clip-rule="evenodd"/><path fill="#252E36" d="M156.3 165 133 197l2.8 1.9 22.5-32.2-2.1-1.7Z"/><path fill="#5C5F63" fill-rule="evenodd" d="m132.8 195.4 3 2 22.4-32-2.3-1.8-23 31.8ZM156 164l2 1.5-22.1 31.5-2.5-1.7 22.6-31.3Z" clip-rule="evenodd"/><path fill="#252E36" d="m151.2 180.5-13.3 18 1.2 1-1 1.3 3 2 1.1-1.6 2.6 2.3 13.4-18.4-7-4.6Z"/><path fill="#5C5F63" fill-rule="evenodd" d="m138.2 200.7 3 2.1 1.2-1.6 2.5 2.3 13.3-18.3-7.1-4.7-13.3 17.9 1.2 1-.8 1.3Zm0-2.4 13-17.4 6.6 4.4-13 17.8-2.5-2.3-1.2 1.6-2.5-1.8.8-1.3-1.2-1Z" clip-rule="evenodd"/><path fill="#252E36" d="m136.2 206.2 5.4 4.7 13 32.6-6.6-7.3-11.8-30Z"/><path fill="#5C5F63" fill-rule="evenodd" d="m136.2 206.2 11.8 31 6.9 7.7-13.2-33.7-5.5-5Zm.3.4 5.1 4.7 12.9 33-6.4-7.2-11.6-30.5Z" clip-rule="evenodd"/><path fill="#252E36" d="m131.2 202.5 3.1 2.4 13.5 32.2-5-5-11.6-29.6Z"/><path fill="#5C5F63" fill-rule="evenodd" d="m131 201 11.5 29.5 5.1 5.2-13.3-32-3.3-2.7Zm.3.5 2.8 2.2 13.1 31.4-4.6-4.7-11.3-29ZM181.9 177l-38-20.8-.3.6 38 20.8.3-.5ZM151 218.6 121 189.2l-.5.5 30.2 29.4.4-.5Z" clip-rule="evenodd"/><path fill="#252E36" d="m163.7 162.2 10 6.3 23.5.9-9.7-6-23.8-1.2Z"/><path fill="#5C5F63" fill-rule="evenodd" d="m163.7 162.2 10 6.3 23.5.9-9.8-6-23.7-1.2Zm.5.1 23.2 1.2 9.3 5.7-22.9-.8-9.6-6Z" clip-rule="evenodd"/><path fill="#5C5F63" d="M191.5 155.7c-.2-.4-.3-.7-.5-.5-.2.2-.2.6-.1.9.1.3.3.6.5.4.2-.2.2-.5.1-.8ZM193.6 155.4c-.3-.3-.5-.7-1-.4-.4.2-.3.5-.3.9.3.3.6.6 1 .4.4-.3.6-.6.3-1ZM194.8 153.7c-.2-.3-.5-.6-1-.4-.4.2-.3.6-.3 1 .3.2.6.5 1 .3s.6-.4.3-.9Z"/><path fill="#5C5F63" d="M194.8 153.7c-.2-.3-.5-.6-1-.4-.4 0-.3.6-.3 1 0 .3.6.5 1 .3s.6-.6.3-.9Z"/><path fill="#5C5F63" d="M196.3 153.5c-.3-.3-.6-.6-1-.4-.4.2-.4.6-.3 1 .3.2.5.5 1 .3.4-.2.6-.6.3-1Z"/><path fill="#5C5F63" d="M197.7 153.3c-.2-.3-.5-.6-1-.4-.4.2-.3.6-.3.9.3.3.6.6 1 .4.4-.3.6-.5.3-1ZM199.2 153c-.3-.3-.6-.6-1-.3-.4.2-.4.5-.3.9.3.3.5.6 1 .4.4-.3.6-.6.3-1ZM198.3 151.7c-.2-.3-.3-.6-.5-.4-.3 0-.2.5-.1.8.1.4.3.7.5.5.2 0 .2-.6.1-.9ZM199.8 151.5c-.2-.3-.4-.7-.6-.5-.2.2-.1.6 0 1 0 .2.2.6.4.4.3-.2.2-.6.2-1ZM201.2 151.3c-.2-.4-.3-.7-.5-.5-.2.2-.2.6-.1 1 .1.2.3.6.5.3.2-.2.2-.5.1-.8ZM203.3 151c-.3-.3-.5-.7-1-.4-.4 0-.3.6-.3.9.3.3.5.6 1 .4.4-.3.6-.6.3-1Z"/><path fill="#5C5F63" d="M202.7 150.8c.3 0 .7-.2.6-.3h-.7l-.6.4h.7ZM202.9 152.3c.3 0 .7-.3.7-.4l-.8.1c-.3.2-.7.2-.7.4l.8-.1Z"/><path fill="#5C5F63" d="M202.9 152.3c.3 0 .7-.3.7-.4l-.8.1c-.3.2-.7.2-.7.4l.8-.1Z"/><path fill="#5C5F63" d="M202.9 152.3c.3 0 .7-.3.7-.4l-.8.1c-.3 0-.7.2-.7.4l.8-.1Z"/><path fill="#5C5F63" d="M202.9 152.3c.3 0 .7-.3.7-.4l-.8.1c-.3.2-.7.2-.7.4l.8-.1ZM203.1 153.7c.3 0 .7-.2.7-.3h-.7l-.7.4h.7Z"/><path fill="#5C5F63" d="M203 153.7c.4 0 .8-.2.8-.3 0-.1-.4 0-.8 0-.3.1-.7.3-.6.4h.7Z"/><path fill="#5C5F63" d="M203 153.7c.4 0 .8-.2.8-.3 0-.1-.4 0-.8 0-.3.2-.7.3-.6.4h.7ZM204.8 155l.6-.4-.7.1c-.3.2-.7.2-.6.3h.7Z"/><path fill="#5C5F63" d="M204.7 155c.4-.1.7-.3.7-.4l-.7.1c-.4 0-.7.2-.7.3h.7Z"/><path fill="#5C5F63" d="M204.7 155c.4-.1.7-.3.7-.4l-.7.1-.7.3h.7ZM217.9 159c-.2-.3-.5-.4-1-.2-.4.2-.5.6-.3 1 .2.3.5.5 1 .2.4-.2.3-.7.3-1Z"/><path fill="#5C5F63" d="M219.3 158.8c-.2-.3-.5-.5-1-.2-.4.2-.5.5-.3 1 .2.3.6.5 1 .2.4-.4.5-.7.3-1Z"/><path fill="#5C5F63" d="M220.8 158.5c-.2-.3-.5-.4-1-.2-.4.3-.5.6-.3 1 .2.5.5.5 1 .3.3-.2.3-.7.3-1ZM222 156.9c-.2-.3-.5-.4-1-.2-.4.2-.5.6-.3 1s.5.5 1 .2c.3-.2.5-.5.3-1ZM224.9 156.5c-.2-.3-.5-.5-1-.2-.4.2-.5.5-.3 1 .2.3.5.4 1 .2.4-.4.5-.7.3-1ZM226.1 154.8c-.2-.3-.5-.4-1-.2-.4.2-.5.6-.2 1 .1.4.5.5.9.3.3-.3.5-.8.3-1Z"/><path fill="#5C5F63" d="M227.5 154.6c-.1-.3-.5-.4-.9-.2s-.5.6-.3 1c.2.3.5.5 1 .2.4-.2.5-.5.2-1ZM228.8 153c-.2-.4-.5-.5-1-.3-.4.3-.5.6-.3 1s.5.5 1 .3c.4-.2.5-.8.3-1ZM231.7 152.5c-.2-.3-.5-.4-1-.2-.4.2-.5.6-.3 1s.5.5 1 .3c.4-.3.5-.8.3-1.1ZM232.9 150.8c-.2-.3-.5-.4-1-.2-.4.3-.5.6-.2 1 .2.5.5.5.9.3.4-.3.5-.8.3-1Z"/><path fill="#5C5F63" d="M234.3 150.6c-.1-.3-.5-.4-.9-.2s-.5.6-.3 1 .5.5 1 .3c.4-.3.4-.8.2-1Z"/><path fill="#5C5F63" d="M235.8 150.4c-.2-.3-.5-.4-1-.2-.4.2-.5.6-.3 1 .3.5.6.5 1 .2.4-.4.5-.7.3-1ZM237 148.7c-.2-.3-.5-.4-1-.2-.3.3-.4.6-.2 1s.5.5 1 .3c.2-.2.4-.7.2-1Z"/><path fill="#5C5F63" d="M238.5 148.5c-.2-.3-.5-.4-1-.2-.4.3-.5.6-.3 1s.5.5 1 .3c.4-.2.5-.6.3-1ZM241.2 146.7c-.2-.4-.6-.5-1-.2-.4.2-.5.5-.3 1 .2.3.5.4 1 .2.2-.4.5-.7.3-1Z"/><path fill="#5C5F63" d="M242.6 146.4c-.2-.3-.5-.4-1-.2-.4.3-.5.6-.2 1 .1.4.5.5.9.3s.5-.7.3-1Z"/><path fill="#5C5F63" d="M244.1 146.2c-.2-.3-.5-.4-1-.2-.4.2-.5.6-.3 1s.5.5 1 .3c.4-.3.4-.6.3-1ZM245.3 144.6c-.2-.3-.5-.5-1-.2-.4.2-.5.5-.3 1 .2.3.5.4 1 .2.4-.2.5-.7.3-1ZM248.2 144.1c-.2-.3-.5-.4-1-.2-.4.3-.5.6-.3 1s.6.5 1 .3.4-.7.3-1ZM249.4 142.5c-.2-.3-.5-.5-1-.2-.4.2-.5.5-.2 1 .2.5.5.4.9.2.3-.4.5-.7.3-1Z"/><path fill="#5C5F63" d="M250.8 142.3c-.1-.3-.5-.5-.9-.2-.4.2-.5.5-.3 1 .2.4.5.4 1 .2.4-.2.4-.7.2-1ZM252 140.6c-.1-.3-.4-.4-.9-.2-.4.2-.5.6-.3 1 .2.5.5.4 1 .2.3-.2.5-.5.3-1ZM253.3 143c.3 0 .6-.5.5-1 0-.4-.4-.5-.9-.5-.3 0-.5.5-.5 1 0 .4.6.5.9.5Z"/><path fill="#5C5F63" d="M253.5 144.4c.3 0 .6-.5.5-1 0-.3-.4-.5-.8-.4-.4 0-.6.5-.6.9.2.3.6.7 1 .5Z"/><path fill="#5C5F63" d="M253.7 145.8c.3 0 .6-.5.6-.9-.1-.4-.5-.5-1-.5-.3 0-.5.5-.5 1 .3.3.6.7 1 .4ZM255.4 147c.3 0 .6-.4.5-.8 0-.4-.4-.6-.9-.5-.3 0-.6.5-.5.9 0 .4.4.6.9.5Z"/><path fill="#5C5F63" d="M255.6 148.5c.3 0 .6-.5.5-.9 0-.4-.4-.6-.9-.5-.3 0-.5.5-.5 1 .2.3.6.5 1 .4ZM255.8 150c.3-.1.6-.6.5-1 0-.4-.4-.5-.8-.4-.4 0-.6.4-.6.8s.6.8 1 .5Z"/><path fill="#5C5F63" d="M255.8 150c.3-.1.6-.6.5-1 0-.4-.4-.5-.8-.4-.4 0-.6.4-.6.8.2.4.6.8 1 .5Z"/><path fill="#5C5F63" d="M256 151.4c.4 0 .6-.5.6-.9s-.4-.6-1-.5c-.2 0-.5.5-.5 1 .1.3.5.5 1 .4ZM256.2 152.9c.4 0 .6-.5.6-1 0-.4-.4-.5-1-.4-.2 0-.5.5-.4.9.2.4.5.5.8.5Z"/><path fill="#5C5F63" d="M256.5 154.3c.3 0 .5-.5.5-1 0-.3-.4-.5-.9-.4-.3 0-.6.5-.5.9.2.4.6.7.9.5Z"/><path fill="#5C5F63" d="M256.7 155.7c.3 0 .6-.5.5-.9 0-.4-.4-.5-.9-.5-.3 0-.6.5-.5 1 0 .3.6.7.9.4ZM205 156c.4 0 .7-.5.5-.9-.1-.4-.7-.6-1-.4-.3.2-.6.5-.4.9 0 .4.5.6 1 .4ZM205.5 158.9c.3 0 .6-.5.4-.9 0-.4-.6-.6-1-.4-.3.2-.6.5-.3.9.2.4.6.6.9.4Z"/><path fill="#5C5F63" d="M205.7 160.4c.3 0 .6-.5.4-1 0-.4-.6-.6-1-.4-.2.2-.5.5-.3 1 .2.2.6.4 1 .4ZM206 161.8c.3 0 .5-.5.3-.9s-.6-.6-1-.4c-.2.2-.5.5-.3.9.2.2.6.5 1 .4Z"/><path fill="#5C5F63" d="M206.1 163.2c.4 0 .7-.5.4-.9 0-.4-.6-.6-.9-.4-.3.2-.6.5-.4 1 .2.3.6.5 1 .3ZM208 166c.3-.1.6-.6.4-1 0-.4-.6-.6-1-.4-.2.2-.5.5-.3.9s.6.6 1 .4Z"/><path fill="#5C5F63" d="M208.2 167.4c.4 0 .6-.5.4-1 0-.3-.6-.6-1-.4-.2.2-.5.6-.3 1s.6.4 1 .4ZM208.4 168.8c.4 0 .7-.5.4-.9 0-.4-.6-.6-.9-.4-.3.2-.6.5-.4.9.2.3.6.5 1 .4ZM208.9 171.7c.3 0 .6-.5.4-.9 0-.4-.6-.6-1-.4-.3.2-.6.5-.4.9.3.4.6.5 1 .4ZM210.5 173c.4-.1.7-.6.4-1 0-.4-.6-.6-.9-.4-.3 0-.6.5-.4 1 .2.3.6.5 1 .3ZM210.7 174.4c.4 0 .7-.5.4-1 0-.3-.6-.5-.9-.3-.3.1-.6.5-.4.9.2.3.6.6 1 .4ZM200.2 169c-.2-.3-.6-.4-1-.2s-.5.6-.3 1 .5.5 1 .3c.4-.3.3-.8.3-1Z"/><path fill="#5C5F63" d="M201.6 168.8c-.2-.3-.5-.4-1-.2-.4.2-.5.6-.3 1s.5.5 1 .3c.2-.3.5-.6.3-1.1ZM202.9 167.1c-.2-.3-.6-.4-1-.2-.5.3-.6.6-.3 1 .2.4.5.5 1 .3l.3-1Z"/><path fill="#5C5F63" d="M204.2 167c-.2-.4-.5-.5-.9-.3s-.5.6-.3 1c.2.5.5.5 1 .2.4-.2.4-.7.2-1ZM207 165c-.2-.3-.6-.4-1-.2-.4.3-.5.6-.3 1s.5.5 1 .3c.2-.2.3-.6.3-1Z"/><path fill="#5C5F63" d="M208.4 164.8c-.2-.3-.5-.4-1-.2-.4.3-.5.6-.3 1s.5.5 1 .3c.2-.4.5-.8.3-1ZM209.6 163.2c-.2-.3-.5-.5-1-.2-.4.2-.5.5-.3 1 .3.5.6.4 1 .2s.5-.7.3-1Z"/><path fill="#5C5F63" d="M211 163c-.1-.4-.5-.5-.9-.3-.4.3-.5.6-.3 1.1.2.3.5.4 1 .2.2-.4.5-.7.3-1Z"/><path fill="#5C5F63" d="M212.5 162.7c-.2-.3-.5-.4-1-.2-.4.3-.5.6-.3 1s.6.5 1 .3.5-.7.3-1ZM215.2 160.9c-.2-.3-.5-.5-1-.2-.4.2-.5.5-.3 1 .2.3.5.4 1 .2.3-.2.5-.7.3-1Z"/><path fill="#5C5F63" d="M216.6 160.6c-.2-.3-.5-.4-1-.2-.3.3-.4.6-.2 1 .2.5.5.5.9.3.4-.4.5-.8.3-1ZM209.4 151.4c-.2-.3-.6-.4-1-.2-.3.2-.5.7-.3 1 .1.3.5.5 1 .2l.3-1ZM212 149.5c-.1-.3-.5-.4-.9-.2s-.5.7-.4 1c.2.4.6.5 1 .3.3-.4.5-.8.3-1ZM213.5 149.3c-.2-.3-.6-.4-1-.2-.3.2-.5.7-.3 1 .2.4.6.5 1 .2.3-.2.5-.5.3-1ZM216.2 147.4c-.2-.3-.6-.4-1-.2-.3.2-.5.8-.3 1 .1.4.5.5 1 .3l.3-1ZM217.6 147.2c-.2-.3-.6-.4-1-.2-.3.2-.5.7-.3 1 .2.4.6.5 1 .3.3-.3.5-.8.3-1.1ZM220.3 145.3c-.2-.3-.6-.4-1-.2-.3.2-.5.8-.3 1 .2.4.6.5 1 .3.2-.4.4-.8.3-1ZM221.8 145.1c-.2-.3-.6-.4-1-.2s-.5.7-.4 1c.2.4.6.5 1 .3.2-.2.4-.6.4-1.1ZM224.4 143.2c-.2-.3-.6-.4-1-.2-.3.2-.5.8-.3 1 .2.4.6.5 1 .3.3-.2.5-.8.3-1ZM225.8 143c-.1-.3-.5-.4-.9-.2-.3.2-.5.8-.3 1 .1.4.5.5.9.3.3-.2.5-.8.3-1ZM228.6 141.1c-.2-.3-.6-.4-1-.2-.3.3-.5.8-.4 1 .2.4.6.5 1 .3.2-.4.4-.7.4-1ZM230 141c-.2-.4-.6-.5-1-.3-.3.2-.5.8-.3 1 .2.4.6.5 1 .3.3-.2.5-.6.3-1ZM236.1 132.6c-.1-.3-.5-.4-.9-.2-.3.2-.5.8-.4 1 .2.4.6.5 1 .3.3-.2.5-.8.3-1ZM239 132.2c-.1-.3-.5-.4-.9-.2s-.5.7-.4 1c.2.4.6.5 1 .2.3-.2.5-.5.3-1ZM240.3 130.5c-.2-.3-.6-.4-1-.2-.3.2-.5.8-.3 1 .1.4.5.5.9.3.3-.2.5-.8.4-1ZM243.2 130c-.2-.2-.6-.3-1-.1-.3.2-.5.7-.3 1 .1.4.5.5 1 .3l.3-1.1ZM244.4 128.4c-.2-.3-.6-.4-1-.2-.3.2-.5.8-.3 1 .2.4.6.5 1 .3.2-.4.5-.8.3-1ZM247.3 128c-.2-.3-.6-.4-1-.2-.3.2-.5.7-.3 1 .2.4.6.5 1 .3.3-.3.4-.8.3-1ZM248.5 126.3c-.1-.3-.5-.4-1-.2-.3.3-.5.8-.3 1.1.2.3.6.4 1 .2.3-.2.4-.7.3-1ZM251.4 126c-.2-.4-.6-.5-1-.3-.3.2-.5.8-.3 1 .2.4.6.5 1 .3.3-.2.5-.8.3-1ZM252.6 124.3c-.1-.4-.5-.5-.9-.3-.3.3-.5.8-.4 1.1.2.3.6.4 1 .2.3-.2.5-.7.3-1ZM255.6 123.8c-.2-.3-.6-.4-1-.2s-.5.8-.4 1c.2.4.6.5 1 .3.2-.2.4-.8.4-1ZM256.8 122.2c-.2-.3-.6-.5-1-.2-.3.2-.5.7-.3 1 .1.3.5.4.9.2.3-.4.5-.7.4-1Z"/><path fill="#5C5F63" d="M231.4 140.9c-.3-.3-.8-.6-1-.4-.2.2-.4.6-.3 1 0 .2.7.5 1 .3.4-.2.6-.6.3-1ZM232.6 139.2c-.3-.3-.8-.6-1-.4-.4.3-.3.6-.3 1 .3.3.8.5 1 .3.4 0 .6-.4.3-.9Z"/><path fill="#5C5F63" d="M232.6 139.2c-.3-.3-.8-.6-1-.4-.4.3-.3.6-.3 1 0 .3.8.5 1 .3.4 0 .6-.6.3-.9Z"/><path fill="#5C5F63" d="M234 139c-.2-.3-.7-.6-.9-.4-.4.3-.4.6-.3 1 .2.2.7.5 1 .3.2-.2.6-.6.3-.9Z"/><path fill="#5C5F63" d="M235.5 138.8c-.2-.3-.8-.6-1-.4-.4.2-.3.6-.3 1 0 .3.8.5 1 .3.2-.2.6-.6.3-1ZM236.8 137.1c-.3-.3-.8-.6-1-.4-.5.3-.4.6-.4 1 .3.3.8.5 1 .3.2-.2.6-.6.4-.9Z"/><path fill="#5C5F63" d="M238.2 137c-.3-.4-.8-.7-1-.5-.2.2-.4.6-.3 1 .3.2.8.5 1 .3.2-.2.6-.4.3-.9Z"/><path fill="#5C5F63" d="M238.2 137c-.3-.4-.8-.7-1-.5-.2.2-.4.6-.3 1 .3.2.8.5 1 .3.2-.2.6-.6.3-.9Z"/><path fill="#5C5F63" d="M239.7 136.7c-.3-.3-.8-.6-1-.4-.2.2-.4.6-.4 1 .3.2.8.5 1 .3.2-.2.6-.6.4-1ZM240.9 135c-.3-.3-.8-.6-1-.3-.2.2-.4.5-.3.9 0 .3.7.5 1 .3.2-.2.6-.6.3-.9Z"/><path fill="#5C5F63" d="M241.7 135c-.2-.4-.5-.7-.6-.5l-.1.8c.2.4.4.7.5.5.2-.2.2-.5.2-.9ZM236.9 142.4c-.4.1-.7.3-.7.5s.4.3.8.2c.3 0 .7-.2.7-.4s-.3-.3-.8-.3Z"/><path fill="#5C5F63" d="M236.9 142.4c-.4.1-.7.3-.7.5s.4.3.8.2c.3 0 .6-.2.6-.4.2-.3-.2-.3-.7-.3ZM236.7 141c-.4 0-.7.2-.7.4 0 .3.4.3.8.3.3 0 .7-.2.6-.5 0-.2-.2-.3-.7-.2ZM236.4 139.6c-.3 0-.6.2-.6.4s.4.3.7.3c.4-.1.7-.3.7-.5.1-.2-.2-.3-.8-.2ZM236.2 138.1c-.3 0-.7.2-.6.5 0 .2.4.3.7.2.4 0 .7-.2.7-.4.1-.3-.3-.4-.8-.3ZM236 136.7c-.3 0-.7.2-.6.4 0 .2.4.3.7.3.4 0 .7-.3.7-.5s-.2-.3-.8-.2Z"/><path fill="#5C5F63" d="M236 136.7c-.3 0-.7.2-.6.4 0 .2.4.3.7.3.4 0 .7-.3.7-.5.1-.2-.3-.3-.8-.2ZM235.8 135.2c-.3 0-.7.2-.7.5 0 .2.5.3.8.2.4 0 .7-.2.7-.4 0-.3-.2-.4-.8-.3ZM235.6 133.8c-.4 0-.7.2-.7.4s.4.3.8.3c.3 0 .7-.2.6-.5.2-.2-.2-.3-.7-.2ZM235.4 132.3c-.4 0-.7.2-.7.5 0 .2.4.3.8.2.3 0 .7-.2.7-.4 0-.3-.3-.4-.8-.3ZM235.1 130.9c-.3 0-.6.2-.6.4 0 .3.4.3.7.3.4 0 .7-.2.7-.5.1-.2-.2-.3-.8-.2ZM213.6 170.1a1 1 0 0 0-1-.4c-.4 0-.5.6-.3 1 .3.3.6.4 1 .4s.5-.6.3-1Z"/><path fill="#5C5F63" d="M215 170a1 1 0 0 0-1-.5c-.3.2-.5.6-.2 1 .2.3.6.4 1 .4.3 0 .5-.7.2-1ZM214.8 168.5a1 1 0 0 0-1-.4c-.4.2-.5.6-.3 1 .3.2.7.4 1 .3.4 0 .5-.6.3-1Z"/><path fill="#5C5F63" d="M216.2 168.3a1 1 0 0 0-1-.5c-.3.3-.4.7-.2 1 .2.3.6.5 1 .4.3-.2.5-.6.2-1Z"/><path fill="#5C5F63" d="M217.8 168c-.3-.3-.7-.4-1-.4-.5.3-.6.6-.4 1 .3.3.7.4 1.1.4.4 0 .3-.6.3-1ZM219 166.4a1 1 0 0 0-1-.4c-.4.2-.6.6-.3 1 .2.3.6.4 1 .3.4 0 .5-.6.2-1Z"/><path fill="#5C5F63" d="M220.4 166.2a1 1 0 0 0-1-.5c-.4.3-.5.7-.3 1 .3.3.7.5 1 .4.4 0 .5-.6.3-1Z"/><path fill="#5C5F63" d="M221.8 166a1 1 0 0 0-1-.5c-.4 0-.5.7-.2 1 .2.3.6.5 1 .4.3 0 .5-.4.2-1ZM223.1 164.3c-.2-.4-.6-.5-1-.4-.4 0-.5.6-.3 1 .2.3.7.4 1 .3.4 0 .4-.6.3-1Z"/><path fill="#5C5F63" d="M224.5 164a1 1 0 0 0-1-.3c-.4 0-.5.6-.3 1 .3.2.7.4 1 .3.4-.2.5-.6.3-1Z"/><path fill="#5C5F63" d="M226 163.9a1 1 0 0 0-1-.5c-.4.3-.5.7-.3 1 .2.3.6.5 1 .4.4 0 .5-.4.2-1Z"/><path fill="#5C5F63" d="M227.4 163.6a1 1 0 0 0-1-.4c-.4.3-.5.6-.3 1 .3.3.7.4 1 .4.4-.2.5-.6.3-1ZM228.6 162a1 1 0 0 0-1-.4c-.4 0-.5.6-.2 1 .2.3.6.4 1 .3.3-.2.5-.6.2-1Z"/><path fill="#5C5F63" d="M230 161.8a1 1 0 0 0-1-.5c-.3.1-.4.7-.2 1 .3.3.6.5 1 .4.4 0 .5-.6.3-1Z"/><path fill="#5C5F63" d="M231.6 161.5c-.3-.3-.7-.4-1-.4-.5 0-.6.7-.3 1 .2.3.6.5 1 .4.4 0 .3-.6.3-1ZM231.3 160.1a1 1 0 0 0-1-.4c-.4.2-.5.6-.3 1 .3.3.7.4 1 .4.4 0 .6-.5.3-1Z"/><path fill="#5C5F63" d="M232.7 159.9a1 1 0 0 0-1-.4c-.3.2-.4.6-.2 1 .2.3.6.4 1 .3.4 0 .5-.6.2-1Z"/><path fill="#5C5F63" d="M234.2 159.7a1 1 0 0 0-1-.4c-.4 0-.5.6-.3 1 .3.3.7.4 1 .3.4-.2.5-.6.3-1ZM235.4 158a1 1 0 0 0-1-.4c-.4 0-.5.6-.2 1 .2.3.6.4 1 .4s.5-.5.2-1Z"/><path fill="#5C5F63" d="M237 157.8c-.3-.4-.7-.5-1.1-.4-.4 0-.5.6-.3 1 .3.3.7.4 1 .3.5 0 .4-.6.3-1Z"/><path fill="#5C5F63" d="M238.3 157.6a1 1 0 0 0-1-.4c-.3.2-.5.6-.2 1 .2.3.6.4 1 .3.3 0 .5-.6.2-1ZM239.6 156a1 1 0 0 0-1-.5c-.4 0-.5.6-.3 1 .2.3.6.4 1 .4s.5-.5.3-1Z"/><path fill="#5C5F63" d="M241 155.7a1 1 0 0 0-1-.4c-.4 0-.5.6-.3 1 .3.3.7.4 1 .4.4-.3.5-.7.3-1Z"/><path fill="#5C5F63" d="M242.4 155.5a1 1 0 0 0-1-.4c-.3.2-.4.6-.2 1 .2.3.6.4 1 .3.4 0 .5-.4.2-1ZM243.7 153.8a1 1 0 0 0-1-.4c-.4 0-.5.6-.3 1 .3.3.7.4 1 .4.4 0 .5-.6.3-1Z"/><path fill="#5C5F63" d="M245.2 153.6c-.3-.3-.7-.5-1-.4-.4.2-.6.6-.3 1 .2.3.6.4 1 .4.2-.2.3-.6.3-1Z"/><path fill="#5C5F63" d="M245.1 153.6a1 1 0 0 0-1-.4c-.4 0-.5.6-.2 1 .2.3.6.4 1 .4.3 0 .5-.5.2-1ZM246.4 152a1 1 0 0 0-1-.5c-.4.3-.5.7-.3 1 .2.3.6.5 1 .4.4 0 .5-.6.3-1Z"/><path fill="#5C5F63" d="M247.8 151.7a1 1 0 0 0-1-.4c-.4.3-.5.6-.3 1 .3.3.7.4 1 .4.4 0 .5-.6.3-1ZM249.3 151.5c-.2-.3-.6-.5-1-.4-.4 0-.5.6-.3 1 .2.3.7.4 1 .4.4 0 .4-.4.3-1ZM250.5 149.9a1 1 0 0 0-1-.5c-.4.3-.5.7-.3 1 .3.3.7.5 1 .4.4 0 .5-.6.3-1Z"/><path fill="#5C5F63" d="M252 149.6a1 1 0 0 0-1-.4c-.5 0-.6.7-.3 1 .2.3.6.5 1 .4.3-.2.5-.6.2-1Z"/><path fill="#5C5F63" d="M253.4 149.4a1 1 0 0 0-1-.4c-.4.2-.5.6-.3 1 .3.3.7.4 1 .4.4 0 .5-.5.3-1Z"/><path fill="#252E36" d="m48.6 77.6-32 43.2 97.1 66 28-37.8-93-71.4Z"/><path fill="#5C5F63" fill-rule="evenodd" d="m15.1 120.3 98 66.5 28.5-38.5-94-72-32.5 44Zm32.7-42.7 92.5 71-27.4 37-96.5-65.5 31.4-42.5Z" clip-rule="evenodd"/><path fill="#5C5F63" d="M53.6 136c-.3.4-.2.8.2 1 .2.2.7 0 .9-.3.1-.5.2-.9-.2-1-.4-.2-.7-.1-.9.3Z"/><path fill="#5C5F63" d="M52.2 136.2c-.3.4-.3.8.1 1 .2.2.8.1.9-.3.3-.5.2-1-.2-1-.2-.2-.5 0-.8.3ZM50.5 135c-.3.4-.2.8.1 1 .2.1.8 0 1-.4.2-.4.2-.8-.2-1-.2-.1-.6 0-.9.4Z"/><path fill="#5C5F63" d="M50.3 133.5c-.3.5-.3.9.1 1 .2.2.8.1.9-.3.3-.5.3-.8-.1-1-.2-.2-.8 0-1 .3Z"/><path fill="#5C5F63" d="M48.8 133.7c-.3.5-.2.9.2 1 .2.2.7.1.9-.3.3-.4.2-.8-.2-1-.2-.2-.6-.1-.9.3ZM47.2 132.5c-.3.4-.3.8.1 1 .2.2.8.1.9-.3.3-.5.2-.9-.1-1-.3-.2-.6 0-1 .3Z"/><path fill="#5C5F63" d="M47.2 132.5c-.3.5-.3.9.1 1 .2.2.8.1.9-.3.3-.5.2-.9-.1-1-.2-.2-.8-.1-1 .3ZM45.5 131.3c-.3.4-.2.8.2 1 .2.1.8 0 .9-.4.1-.4.3-.8-.1-1-.3-.1-.8 0-1 .4ZM43.9 130c-.3.5-.3.9 0 1 .3.2.8.1 1-.3.3-.4.2-.8-.2-1-.2-.1-.5-.1-.8.3Z"/><path fill="#5C5F63" d="M43.9 130c-.4.5-.3.9.1 1 .2.2.8.1 1-.3 0-.4.2-.9-.2-1-.2-.2-.6 0-1 .3ZM42.2 128.8c-.3.5-.3.9.1 1 .2.2.8.1 1-.3.2-.5.2-.9-.2-1-.2-.2-.8-.1-.9.3Z"/><path fill="#5C5F63" d="M42.2 128.8c-.3.5-.3.9.1 1 .4.2.8.1 1-.3.2-.5.2-.9-.2-1-.2-.2-.8-.1-.9.3ZM40.5 127.5c-.3.5-.2 1 .2 1 .2.2.7.2.8-.3.4-.4.3-.8 0-1-.3-.2-.6 0-1 .3ZM38.9 126.4c-.3.4-.3.8.1 1 .2.1.8 0 .9-.4.3-.4.2-.8-.1-1-.3-.1-.6 0-1 .4Z"/><path fill="#5C5F63" d="M38.9 126.4c-.3.4-.3.8.1 1 .2.1.8 0 .9-.4.3-.4.2-.8-.1-1-.3-.1-.8 0-1 .4ZM37.2 125.1c-.3.5-.2.9.2 1 .2.2.7.1.9-.3.1-.4.2-.9-.2-1-.4-.2-.7-.1-.9.3ZM35.5 123.8c-.3.5-.2 1 .2 1 .2.3.7.2.9-.3.3-.4.2-.8-.2-1-.2-.2-.5 0-.9.3Z"/><path fill="#5C5F63" d="M35.6 123.9c-.4.4-.3.8.1 1 .2.1.8 0 1-.4 0-.4.2-.8-.2-1-.2-.1-.8 0-1 .4ZM33.9 122.7c-.3.4-.3.8.1 1 .2.1.8 0 .9-.4.3-.4.3-.8-.1-1-.2-.1-.8 0-1 .4ZM32.5 122.9c-.4.4-.3.8 0 1 .3.1.9 0 1-.4.1-.4.3-.8-.1-1-.4-.1-.6 0-1 .4Z"/><path fill="#5C5F63" d="M32.2 121.4c-.3.4-.2.9.2 1 .2.2.7.1.8-.3.3-.5.3-.9-.1-1-.2-.2-.5 0-.9.3ZM30.6 120.2c-.3.4-.3.8.1 1 .2.2.8 0 .9-.3.3-.5.2-.9-.2-1-.3-.2-.7-.1-.8.3Z"/><path fill="#5C5F63" d="M31.3 120c-.5-.2-.7-.1-1-.1-.2.1 0 .2.6.4.4.2.7.1.9.1l-.5-.4ZM31 118.6l-.9-.2c-.2.2 0 .3.5.4l.9.2c.2-.2 0-.3-.5-.4ZM32.5 118.3h-1c-.1 0 .1.2.6.3.5.2.7.2 1 .1 0 0-.1-.2-.6-.4Z"/><path fill="#5C5F63" d="M32.5 118.3h-1c-.1 0 .1.2.6.3.4.2.6.2.8.1.2-.1 0-.3-.4-.4Z"/><path fill="#5C5F63" d="M32.5 118.3h-1c-.1 0 .1.2.6.3.4.2.6.2.8.1.3 0 0-.2-.4-.4ZM33.7 116.7c-.4-.2-.7-.2-.9-.1-.2.1 0 .2.5.4h1l-.6-.3Z"/><path fill="#5C5F63" d="M33.7 116.7c-.5-.2-.7-.2-.9-.1-.2.1 0 .2.5.4h.9c.2 0 0-.1-.5-.3Z"/><path fill="#5C5F63" d="M33.7 116.7c-.4-.2-.7-.2-.9-.1-.2 0 0 .2.5.4h1l-.6-.3ZM33.5 115.2h-1c-.1 0 .1.2.6.3.4.2.6.2.9.1.2-.1 0-.2-.5-.4ZM35 115c-.5-.2-.7-.1-1 0l.6.3c.4.2.7.1.9.1 0 0 0-.2-.5-.4Z"/><path fill="#5C5F63" d="M35 115c-.5-.2-.7-.1-1 0l.6.3c.4.2.7.1.9.1l-.5-.4ZM64.1 98.5c.3.2.8 0 1-.4.3-.5.4-.9 0-1-.3-.2-.7 0-1 .4-.2.3-.2.7 0 1ZM63 100.1c.3.2.7 0 .9-.4.2-.3.3-.8 0-1-.3-.1-.7 0-1 .5-.2.4-.3.7 0 1ZM61.7 101.8c.3.2.7 0 1-.4.2-.4.3-.9 0-1-.3-.2-.7 0-1 .5-.2.3-.3.7 0 .9ZM60.4 103.5c.4.2.8 0 1-.5.3-.3.4-.8 0-.9-.3-.2-.7 0-1 .4-.2.5-.2.7 0 1ZM59.5 106.6c.3.2.7 0 1-.4.2-.3.2-.9 0-1-.4-.2-.8 0-1 .4-.4.3-.3.7 0 1ZM58.2 108.2c.4.2.8 0 1-.4.2-.4.3-.9 0-1a.8.8 0 0 0-1 .4c-.2.4-.3.8 0 1ZM57 109.9c.3.2.7 0 1-.4.2-.5.3-.9 0-1-.4-.2-.8 0-1 .5-.3.4-.2.6 0 .9ZM55.8 111.5c.3.3.7 0 1-.4.2-.3.2-.9 0-1a.8.8 0 0 0-1 .5c-.3.4-.3.8 0 1ZM54.5 113.2c.4.2.8 0 1-.4.2-.5.3-.9 0-1a.8.8 0 0 0-1 .4c-.2.5-.3.9 0 1ZM51.8 115c.3.3.8.1 1-.3.2-.5.3-.9 0-1-.3-.2-.7 0-1 .5-.2.4-.2.8 0 .9ZM50.8 118.2c.4.2.8 0 1-.4.2-.3.3-.9 0-1-.3-.2-.7 0-1 .5-.2.4-.3.8 0 .9ZM63.5 136.8c.3-.4.3-.8-.1-1-.2-.1-.8 0-1 .4 0 .4-.2.8.2 1 .2.1.8 0 1-.4ZM65.2 138c.3-.4.2-.8-.2-1-.3 0-.7 0-.8.4-.3.5-.3.9.1 1 .2.2.6 0 .9-.3Z"/><path fill="#5C5F63" d="M65.4 139.5c.3-.4.3-.8-.1-1-.4-.1-.8-.1-1 .3-.2.5-.2 1 .2 1 .4.2.7 0 .9-.3Z"/><path fill="#5C5F63" d="M66.8 139.3c.4-.5.3-.9 0-1-.5-.2-.8-.1-1 .3-.3.5-.2.9.2 1 .4.2.5.1.8-.3ZM68.5 140.5c.3-.4.3-.8-.1-1-.2-.2-.8 0-1 .3-.2.5-.2.9.2 1 .4.2.8.1 1-.3Z"/><path fill="#5C5F63" d="M68.7 142c.3-.5.3-.9-.1-1-.2-.2-.8-.1-.9.3-.3.4-.2.8.1 1 .4.1.6.1 1-.3Z"/><path fill="#5C5F63" d="M70.2 141.8c.3-.5.2-.9-.2-1-.2-.2-.7-.1-.8.3-.4.4-.3.9 0 1 .5.2.6 0 1-.3ZM71.8 143c.3-.4.3-.9-.1-1-.2-.2-.8-.1-.9.3-.3.5-.2.9.2 1 .2.2.5 0 .8-.3Z"/><path fill="#5C5F63" d="M72 144.4c.4-.4.3-.8-.1-1-.2-.1-.8 0-1 .4 0 .4-.2.8.2 1 .2.1.6 0 1-.4Z"/><path fill="#5C5F63" d="M73.5 144.2c.3-.4.2-.8-.2-1-.2-.2-.7 0-.9.3-.1.5-.2.9.2 1 .2.2.7.1.9-.3ZM75.1 145.4c.4-.4.3-.8-.1-1-.2-.1-.8 0-1 .4 0 .4-.2.8.2 1 .2.1.6 0 1-.4Z"/><path fill="#5C5F63" d="M75.1 145.4c.4-.4.3-.8-.1-1-.4-.1-.8 0-1 .4 0 .4-.2.8.2 1 .2.1.6 0 1-.4ZM76.8 146.7c.3-.5.3-.9-.1-1-.4-.2-.8-.1-.9.3-.3.4-.3.8.1 1 .2.2.8 0 1-.3ZM78.5 148c.3-.5.2-1-.2-1-.4-.2-.7-.2-.8.3-.3.5-.3.9.1 1 .2 0 .6 0 .9-.3Z"/><path fill="#5C5F63" d="M78.5 148c.3-.5.2-1-.2-1-.4-.2-.7-.2-.8.2-.3.5-.3 1 .1 1 0 .3.5 0 .9-.3ZM80.1 149.1c.3-.4.3-.8-.1-1-.4-.1-.8 0-.9.4-.3.4-.2.8.2 1 .3.1.5 0 .8-.4ZM81.8 150.4c.3-.5.2-.9-.1-1-.4-.2-.8-.1-1 .3-.2.4-.2.8.2 1 .4.1.6.1.9-.3Z"/><path fill="#5C5F63" d="M81.8 150.4c.3-.5.2-.9-.1-1-.2-.2-.8-.1-1 .3-.2.4-.2.8.2 1 .2.2.8 0 .9-.3ZM83.5 151.6c.3-.4.2-.8-.2-1-.2-.2-.7 0-.9.3-.3.5-.2.9.2 1 .2.2.6.1.9-.3ZM85.1 153c.3-.5.3-1-.1-1.2-.2-.1-.8 0-.9.4-.3.5-.2 1 .2 1 .1 0 .7 0 .8-.3Z"/><path fill="#5C5F63" d="M85.1 152.9c.3-.5.3-.9-.1-1-.2-.2-.8-.2-1 .3 0 .4-.2.9.2 1 .2.2.6 0 1-.3ZM86.8 154c.3-.4.2-.8-.2-1-.2-.1-.8 0-.9.4-.1.4-.3.8.1 1 .3.2.8 0 1-.3Z"/><path fill="#5C5F63" d="M86.8 154.1c.3-.5.2-.9-.2-1-.3-.2-.7-.1-.8.3-.3.5-.3.9.1 1 0 .2.6 0 .9-.3ZM88.4 155.3c.3-.5.3-.9 0-1-.5-.1-.8-.1-1 .3-.3.5-.2.9.2 1 .2.2.5.1.8-.3ZM90.1 156.5c.3-.4.3-.8-.1-1-.4-.1-.8 0-1 .4-.2.4-.2.8.2 1 .2.1.6 0 .9-.4Z"/><path fill="#5C5F63" d="M90.1 156.5c.3-.4.3-.8-.1-1-.4-.1-.8 0-1 .4-.2.4-.2.8.2 1 .2.1.8 0 .9-.4ZM91.8 157.9c.3-.5.2-1-.2-1.1-.4-.2-.7-.1-.8.3-.3.5-.3 1 .1 1.1.2 0 .5 0 .9-.3ZM93.4 159c.3-.4.3-.8-.1-1-.2-.2-.8-.1-.9.3-.3.5-.2.9.2 1 .2.2.7 0 .8-.3Z"/><path fill="#5C5F63" d="M93.4 159c.3-.5.3-.9-.1-1-.2-.2-.8 0-1 .3 0 .4-.2.9.2 1 .2.2.6.1 1-.3ZM95 160.2c.4-.4.3-.8 0-1-.3-.1-.8 0-1 .4-.1.4-.2.8.2 1 .2.1.7 0 .9-.4ZM96.7 161.4c.4-.4.3-.8 0-1-.3-.1-.8 0-1 .4-.3.4-.2.8.2 1 .2.1.5.1.8-.4Z"/><path fill="#5C5F63" d="M96.7 161.4c.4-.4.3-.8 0-1-.3-.1-.8 0-1 .4-.3.4-.2.8.2 1 .2.1.7 0 .8-.4ZM98.4 162.7c.3-.4.3-.8-.1-1-.2-.2-.8-.1-.9.3-.3.5-.3.9.1 1 .4.2.6 0 1-.3ZM136 151.1c.5.4 1 .4 1 .1-.1-.2-.2-.7-.7-.8-.5-.4-1-.4-1-.1-.1 0 .2.4.7.8ZM134.6 152.8c.6.4 1 .3 1 .1.2-.3-.1-.7-.6-.8-.5-.4-1-.4-1-.2l.6 1Z"/><path fill="#5C5F63" d="M134.6 152.8c.6.4 1 .3 1 .1.2-.3-.1-.7-.6-.8-.5-.4-1-.4-1-.2.1.3.2.7.6 1Z"/><path fill="#5C5F63" d="M134.7 152.8c.5.4 1 .3.9.1.2-.3-.1-.7-.6-.9-.5-.4-.9-.3-.8 0-.2.2 0 .4.5.8ZM133.4 154.5c.5.4 1 .3 1 0 .1-.2-.1-.6-.6-.8-.5-.4-1-.3-1 0l.6.8Z"/><path fill="#5C5F63" d="M133.5 154.5c.5.4.9.3.9 0 .1-.2-.1-.6-.6-.8-.5-.4-1-.3-.9-.1-.2 0 0 .5.6.9Z"/><path fill="#5C5F63" d="M133.5 154.5c.5.4.9.3.9 0 .1-.2-.1-.6-.6-.8-.5-.4-1-.3-.9-.1-.2.3.1.7.6.9ZM132.2 156.1c.5.4 1 .4 1 .1.1-.2-.2-.7-.7-.8-.5-.4-1-.4-.9-.1 0 .2.1.7.6.8Z"/><path fill="#5C5F63" d="M132.2 156.1c.5.4 1 .4 1 .1.1-.2-.2-.7-.6-.8-.5-.4-1-.4-1-.1l.6.8ZM132.4 157.6c.5.4 1 .3 1 0 .1-.2-.2-.6-.6-.8-.6-.4-1-.3-1 0l.6.8ZM131 157.8c.5.4 1 .3.9 0 .2-.2-.1-.6-.6-.8-.5-.4-1-.3-1 0 .1.2.2.6.7.8Z"/><path fill="#5C5F63" d="M129.2 157.2c-.3.4-.3.7.1 1 .4.3.7.2 1-.2.3-.3.2-.7-.2-1-.3-.2-.8-.1-1 .2Z"/><path fill="#5C5F63" d="M129 155.7c-.3.3-.3.7 0 1 .5.3.8.3 1-.1.3-.4.3-.8 0-1a1 1 0 0 0-1 0ZM127.3 154.5c-.3.4-.2.7.1 1 .4.3.7.2 1-.1.3-.4.2-.7-.1-1-.4-.3-.7-.2-1 .1Z"/><path fill="#5C5F63" d="M125.9 154.7c-.3.4-.3.7 0 1 .5.3.8.2 1-.1.3-.4.3-.7 0-1-.4-.3-1-.2-1 .1ZM124.2 153.5c-.3.4-.2.7.1 1 .4.3.7.2 1-.2.3-.3.2-.6-.1-1-.4-.2-.9-.1-1 .2Z"/><path fill="#5C5F63" d="M124 152c-.3.4-.3.8.1 1 .4.3.7.3 1-.1.3-.4.2-.7-.2-1-.2-.3-.6-.2-1 .2ZM122.3 150.7c-.3.4-.2.8.1 1 .4.4.7.3 1 0 .3-.5.2-.8-.1-1.1a1 1 0 0 0-1 .1ZM120.7 149.6c-.3.4-.3.7 0 1 .5.2.8.2 1-.2.3-.3.3-.7 0-1-.4-.2-.8-.2-1 .2Z"/><path fill="#5C5F63" d="M119.2 149.8c-.3.3-.2.7.1 1 .4.3.7.2 1-.2.3-.3.2-.7-.1-1-.4-.3-.9 0-1 .2Z"/><path fill="#5C5F63" d="M119 148.4c-.3.3-.2.7.1 1 .4.2.7.2 1-.2.3-.4.2-.7-.1-1-.4-.2-.7-.2-1 .2ZM117.3 147c-.2.5-.2.8.2 1 .3.4.7.3 1 0 .2-.4.2-.8-.2-1-.4-.3-.7-.1-1 0Z"/><path fill="#5C5F63" d="M117.3 147.1c-.2.4-.2.7.2 1 .3.3.7.2 1-.1.2-.4.2-.7-.2-1-.4-.3-.8-.2-1 .1ZM115.7 145.8c-.3.4-.3.7.1 1 .4.4.7.3 1 0 .2-.5.2-.8-.2-1.1-.2-.2-.6-.1-1 .1ZM114 144.7c-.3.3-.2.7.1 1 .4.2.7.2 1-.2.3-.4.2-.7-.1-1-.4-.2-.7-.2-1 .2ZM112.3 143.4c-.2.4-.2.7.2 1 .3.3.7.2 1-.1.2-.4.2-.7-.2-1-.4-.3-.7-.1-1 0Z"/><path fill="#5C5F63" d="M112.3 143.4c-.2.4-.2.7.2 1 .3.3.7.2 1-.1.2-.4.2-.7-.2-1-.4-.3-.8-.2-1 .1ZM110.7 142.2c-.3.4-.2.7.1 1 .4.3.7.2 1-.2.3-.3.2-.6-.1-1-.4-.2-.9-.1-1 .2ZM109 141c-.3.3-.2.6.2 1 .3.2.6.2 1-.2.2-.4.2-.7-.2-1-.4-.3-.7 0-1 .1ZM107.4 139.7c-.3.4-.3.7.1 1 .4.3.7.2 1-.1.2-.4.2-.7-.2-1-.3-.3-.7-.2-1 .1Z"/><path fill="#5C5F63" d="M107.3 139.6c-.2.4-.2.8.2 1 .4.4.7.4 1 0 .2-.4.2-.8-.2-1.1a1 1 0 0 0-1 .1ZM105.7 138.5c-.3.4-.2.7.1 1 .4.3.7.2 1-.2.3-.3.2-.6-.1-1-.4-.2-.9-.1-1 .2ZM104 137.2c-.2.4-.2.7.2 1 .3.3.7.3 1 0 .2-.5.2-.8-.2-1.1-.4-.3-.7 0-1 .1Z"/><path fill="#5C5F63" d="M104 137.3c-.2.3-.2.7.2 1 .3.2.7.2 1-.2.2-.4.2-.7-.2-1-.4-.2-.7-.2-1 .2ZM102.4 136c-.3.3-.3.7.1 1 .4.3.7.3 1-.1.3-.4.2-.8-.2-1-.3-.2-.8-.2-1 0ZM100.7 134.8c-.3.4-.2.7.2 1 .3.3.6.2 1-.1.2-.4.2-.7-.2-1-.2-.3-.7-.2-1 .1Z"/><path fill="#5C5F63" d="M100.5 133.3c-.3.4-.2.7.1 1 .4.3.7.3 1-.1.3-.4.2-.8-.1-1a1 1 0 0 0-1 0Z"/><path fill="#5C5F63" d="M99 133.6c-.2.4-.2.7.2 1 .4.2.7.2 1-.2.2-.3.2-.7-.2-1-.3-.2-.7-.2-1 .2ZM97.4 132.4c-.3.3-.2.6.1 1 .4.2.7.2 1-.2.3-.4.2-.7-.1-1-.4-.3-.9-.2-1 .2ZM95.7 131c-.2.5-.2.8.2 1 .3.4.7.3 1 0 .2-.4.2-.8-.2-1-.4-.3-.8-.1-1 0Z"/><path fill="#5C5F63" d="M95.5 129.7c-.3.3-.2.7.2 1 .3.2.6.2 1-.2.2-.4.2-.7-.2-1-.2-.3-.7-.2-1 .2Z"/><path fill="#5C5F63" d="M94 129.8c-.2.4-.2.7.2 1 .4.3.7.3 1-.1.2-.4.2-.7-.2-1a1 1 0 0 0-1 0ZM92.4 128.7c-.3.3-.2.6.1 1 .4.2.7.2 1-.2.3-.4.2-.7-.1-1-.4-.3-.9-.2-1 .2ZM90.7 127.3c-.2.4-.2.8.2 1 .4.4.7.3 1 0 .2-.5.2-.8-.2-1.1-.3-.1-.8 0-1 .1Z"/><path fill="#5C5F63" d="M90.8 127.4c-.3.4-.3.7 0 1 .5.3.8.2 1-.1.3-.4.3-.7 0-1-.4-.3-.8-.2-1 .1ZM89 126c-.2.5-.2.8.2 1.1.4.3.7.3 1 0 .3-.5.2-.8-.2-1.1a1 1 0 0 0-1 0Z"/><path fill="#5C5F63" d="M88.9 124.8c-.3.3-.3.6.1 1 .4.2.7.2 1-.2.3-.4.2-.7-.2-1-.3-.3-.8-.2-1 .2ZM87.2 123.5c-.3.3-.2.7.1 1 .4.3.7.2 1-.2.3-.3.2-.7-.1-1-.4-.3-.7 0-1 .2ZM85.6 122.3c-.3.4-.3.7 0 1 .5.2.8.2 1-.2.3-.3.3-.7 0-1-.4-.2-.8-.2-1 .2Z"/><path fill="#5C5F63" d="M84.1 122.5c-.3.4-.2.7.1 1 .4.2.7.2 1-.2.3-.3.2-.7-.1-1-.4-.2-.7-.2-1 .2Z"/><path fill="#5C5F63" d="M83.9 121c-.3.4-.2.7.1 1 .4.3.7.3 1-.1.3-.4.2-.7-.2-1-.3-.3-.8 0-1 .1ZM82.2 119.8c-.2.4-.2.7.2 1 .3.3.7.2 1-.1.2-.4.2-.7-.2-1-.4-.3-.7-.2-1 .1ZM80.6 118.5c-.3.4-.3.7.1 1 .4.3.7.3 1-.1.2-.4.2-.7-.2-1a1 1 0 0 0-1 0Z"/><path fill="#5C5F63" d="M79.1 118.8c-.3.4-.2.7.2 1 .3.3.6.2 1-.2.2-.3.2-.6-.2-1-.4-.2-.7-.2-1 .2Z"/><path fill="#5C5F63" d="M78.9 117.3c-.3.4-.2.7.1 1 .4.3.7.3 1-.1.3-.4.2-.7-.1-1-.4-.3-.9 0-1 .1Z"/><path fill="#5C5F63" fill-rule="evenodd" d="m133.7 172.6-55.2-39.2-.3.5 55.2 39.2.3-.5Z" clip-rule="evenodd"/><path fill="#252E36" d="m155.8 194.4 2.7 2.5-3.3 5-2.3-2.5 2.9-5Z"/><path fill="#5C5F63" fill-rule="evenodd" d="m152.9 199.4 2.9 2.4 4.1-5.1-3.3-2.4-3.7 5Zm.4 0 3.4-4.7 2.8 2-3.8 4.7-2.4-2Z" clip-rule="evenodd"/><path fill="#5C5F63" d="M127.4 204.6 123 207l3.8 7.9 4.4-2.1-3.8-8.3Z"/><path fill="#5C5F63" fill-rule="evenodd" d="m123 207.1 4.2 7.8 5.4-2.3-4.2-8.2-5.4 2.7Zm.9.3 4.2-2.1 3.7 7-4.3 1.9-3.6-6.8Z" clip-rule="evenodd"/><path fill="#252E36" d="M258.5 264.5c-13.9 18.4-37.2 24.2-52 13-14.8-11.2-15.6-35.2-1.7-53.5 14-18.4 37.2-24.1 52-13 14.9 11.3 15.6 35.2 1.7 53.5Z"/><path fill="#5C5F63" fill-rule="evenodd" d="M205.1 222.9c13.7-18.1 36.7-23.8 51.2-12.8s15.3 34.5 1.5 52.6c-13.7 18.2-36.6 23.8-51.2 12.9-14.5-11-15.2-34.6-1.5-52.7Zm51.5-13.3c-14.8-11.2-38.1-5.4-52 13-13.8 18.2-13.2 42.2 1.7 53.4 14.9 11.3 38.1 5.4 52-12.9 13.9-18.3 13.2-42.3-1.7-53.5Z" clip-rule="evenodd"/><path fill="#5C5F63" d="M249.5 215.6c-1.7 2.2-4.6 2.9-6.6 1.4-1.9-1.5-2-4.5-.4-6.7 1.7-2.3 4.7-3 6.6-1.5 2 1.5 2.1 4.5.4 6.8Z"/><path fill="#5C5F63" fill-rule="evenodd" d="M243 210.6c1.5-2 4.1-2.5 5.8-1.3 1.6 1.2 1.8 3.9.3 6-1.6 2-4.2 2.5-5.8 1.3-1.7-1.3-1.9-4-.3-6Zm6.1-1.8c-2-1.5-4.9-.7-6.6 1.5-1.6 2.2-1.5 5.2.4 6.7 2 1.5 5 .8 6.6-1.4 1.7-2.2 1.6-5.3-.4-6.8Z" clip-rule="evenodd"/><path fill="#394149" d="M261.3 265.4c-11.2 14.8-28.9 20.3-39.5 12.3-10.7-8-10.2-26.6 1-41.4 11.3-14.8 29-20.3 39.6-12.2 10.6 8 10.2 26.5-1 41.3Z"/><path fill="#5C5F63" fill-rule="evenodd" d="M243 222.2c7-2.2 13.9-1.6 19 2.3 5.2 4 7.7 10.4 7.5 17.7-.2 7.4-3.1 15.6-8.6 22.9a40.6 40.6 0 0 1-19.7 14.4c-7 2.2-14 1.6-19-2.3-5.2-3.9-7.7-10.4-7.5-17.7.2-7.3 3-15.5 8.6-22.8a40.6 40.6 0 0 1 19.7-14.5Zm-.2-.6a41.2 41.2 0 0 0-20 14.7 41 41 0 0 0-8.7 23.2c-.2 7.5 2.3 14.1 7.7 18.2 5.3 4 12.4 4.6 19.6 2.4a41.2 41.2 0 0 0 20-14.7 41 41 0 0 0 8.7-23.1c.2-7.5-2.3-14.2-7.7-18.2-5.3-4-12.5-4.7-19.6-2.5Z" clip-rule="evenodd"/><path fill="#5C5F63" d="M210.4 258a3.7 3.7 0 1 1-7.2 1 3.7 3.7 0 0 1 7.2-1Z"/><path fill="#5C5F63" fill-rule="evenodd" d="M203.8 259.7c-.3-2 1-3.9 2.6-4.1 1.6-.3 3.3 1.2 3.5 3.3.3 2-.8 3.9-2.5 4.1-1.7.2-3.3-1.2-3.6-3.3Zm2.5-4.7c-2 .2-3.4 2.4-3 4.8.3 2.4 2.2 4.1 4.2 3.8 2-.2 3.3-2.4 3-4.8-.3-2.4-2.2-4.1-4.2-3.8Z" clip-rule="evenodd"/><path fill="#252E36" d="M246.7 254.1c-8 10.6-20 15.1-26.8 10-6.8-5.1-5.7-17.9 2.3-28.5 8-10.6 20-15 26.8-10 6.8 5.2 5.8 18-2.3 28.5Z"/><path fill="#5C5F63" fill-rule="evenodd" d="M236.2 225.3c4.8-1.8 9.3-1.6 12.5.8 3.2 2.4 4.6 6.7 4.1 11.7-.4 5-2.6 10.8-6.6 16-4 5.2-8.8 8.9-13.5 10.6-4.8 1.8-9.2 1.6-12.5-.8-3.2-2.4-4.5-6.7-4.1-11.7.4-5 2.6-10.7 6.6-16 4-5.1 8.8-8.8 13.5-10.6Zm-.2-.6a32.3 32.3 0 0 0-13.8 11c-4 5.2-6.3 11-6.7 16.2-.5 5.1 1 9.6 4.4 12.2 3.4 2.6 8.1 2.7 13 .9 4.8-1.8 9.8-5.6 13.8-10.9 4-5.3 6.3-11 6.7-16.2.5-5.2-1-9.7-4.4-12.3-3.4-2.6-8.1-2.7-13-.9Z" clip-rule="evenodd"/><path fill="#5C5F63" d="m223 243.3 15-9.2-3.2 18.2-11.8-9Z"/><path fill="#5C5F63" fill-rule="evenodd" d="m221.6 244 13 9.8 3.3-19.7-16.3 10Zm1 .1 14.5-8.8-3 17.4-11.4-8.6Z" clip-rule="evenodd"/><path fill="#5C5F63" fill-rule="evenodd" d="m217.9 247.3 5.3-3-.3-.7-5.3 3 .3.7ZM242.9 258 235 252l-.3.5 7.8 5.9.3-.5ZM240.4 224.8l-2.4 10.4.6.1L241 225l-.6-.1Z" clip-rule="evenodd"/><path fill="#252E36" d="m137.9 225.5-6.8 1.3-13.1 91.4 37.8-3.7 9.8-57.3-27.7-31.7Z"/><path fill="#5C5F63" fill-rule="evenodd" d="m116.7 319.9 39-3.9 10-58.1-28.3-32.3-7.3 1.4-13.4 92.9Zm14.2-92.2 6.2-1.2 27.7 31.6-9.8 57.1-37.3 3.7 13.2-91.2Z" clip-rule="evenodd"/><path fill="#5C5F63" d="M130.3 246.3c0-.4-.3-.7-.7-.7-.4 0-.6.5-.7.9 0 .3.3.6.7.6.4 0 .8-.5.7-.8Z"/><path fill="#5C5F63" d="M131.8 246c0-.3-.3-.7-.8-.6-.4 0-.5.4-.7.8 0 .4.3.7.7.7.5 0 .6-.5.8-.9ZM133.2 245.8c0-.3-.3-.7-.7-.6-.4 0-.6.4-.7.8 0 .4.3.7.7.7.4-.1.6-.3.7-.9ZM134.7 245.6c0-.4-.3-.7-.8-.6-.4 0-.5.4-.7.8 0 .4.3.7.7.6.4 0 .6-.4.8-.8ZM136.1 245.4c0-.4-.3-.7-.7-.6-.4 0-.6.4-.7.8 0 .4.3.7.7.6.6 0 .8-.4.7-.8Z"/><path fill="#5C5F63" d="M137.6 245.2c0-.4-.4-.7-.8-.7s-.5.5-.7.9c0 .3.3.7.7.6.6 0 .8-.5.8-.8Z"/><path fill="#5C5F63" d="M137.6 245.2c0-.4-.4-.7-.8-.7s-.5.5-.7.9c0 .3.3.7.7.6.6 0 .8-.5.8-.8ZM139 245c0-.4-.3-.7-.7-.7-.4 0-.6.5-.7.9 0 .3.3.7.7.6.4 0 .8-.5.7-.8ZM140.7 246.2c0-.4-.3-.7-.8-.6-.4 0-.5.4-.7.8 0 .4.3.7.7.6.5 0 .8-.3.8-.8ZM142.1 246c0-.4-.3-.7-.7-.7-.4.1-.6.5-.7.9 0 .3.3.7.7.6.4 0 .8-.3.7-.8Z"/><path fill="#5C5F63" d="M143.6 245.8c0-.4-.3-.7-.8-.7-.4 0-.5.5-.7.9 0 .3.3.7.7.6.4 0 .8-.5.8-.8ZM138.4 247.2c.4.1.7-.1.8-.6 0-.5-.3-.9-.6-.8-.4 0-.8 0-.9.5 0 .5.3 1 .7.9Z"/><path fill="#5C5F63" d="M138.6 248.6c.4.2.7 0 .8-.5.1-.5-.3-.9-.6-.8-.4-.2-.7 0-.8.5-.1.5.3.9.6.8Z"/><path fill="#5C5F63" d="M138.6 248.6c.4.2.7 0 .8-.6.1-.4-.3-.8-.6-.8-.4 0-.7.1-.8.6 0 .5.1.7.6.8ZM137.4 250.3c.4.1.7-.1.8-.6 0-.4-.3-.8-.6-.8-.4-.1-.7.1-.8.6-.1.4 0 .6.6.8Z"/><path fill="#5C5F63" d="M137.6 251.7c.4.2.7 0 .8-.6 0-.4-.3-.8-.6-.8s-.7.1-.8.6c-.1.2 0 .7.6.8Z"/><path fill="#5C5F63" d="M137.8 253.2c.4.1.7-.1.9-.6-.1-.5-.3-.9-.7-.8-.3 0-.7 0-.8.5-.1.5.3.7.6.9Z"/><path fill="#5C5F63" d="M138 254.6c.4.2.8 0 .9-.6 0-.4-.3-.8-.7-.8-.3 0-.7.1-.8.6-.1.2.3.6.7.8ZM136.8 256.3c.4.2.7-.1.8-.6 0-.5-.3-.9-.6-.8-.4 0-.7 0-.8.5-.1.5.2.7.6.9Z"/><path fill="#5C5F63" d="M137 257.7c.4.2.7 0 .9-.5-.1-.4-.3-.9-.7-.8-.4-.2-.7 0-.8.5-.1.3.3.7.6.8Z"/><path fill="#5C5F63" d="M137.3 259.2c.3.1.7-.1.8-.6 0-.5-.3-.9-.7-.8-.3 0-.7 0-.8.5-.1.3.3.7.7.9Z"/><path fill="#5C5F63" d="M137.2 259.2c.4.1.8-.1.9-.6 0-.4-.3-.8-.7-.8-.4-.1-.7.1-.8.6 0 .2.2.6.6.8ZM136 260.8c.4.2.7 0 .8-.5 0-.4-.3-.8-.6-.8-.4-.2-.7.1-.9.6 0 .4.3.8.7.7Z"/><path fill="#5C5F63" d="M136.2 262.3c.4.2.7-.1.9-.6-.1-.5-.3-.9-.7-.8-.3 0-.7 0-.8.5-.1.5.3.7.6.9Z"/><path fill="#5C5F63" d="M136.5 263.7c.3.2.7 0 .8-.5 0-.4-.3-.9-.7-.8-.3-.2-.7 0-.8.5-.1.3.1.7.7.8Z"/><path fill="#5C5F63" d="M136.7 265.2c.4.1.7-.1.8-.6 0-.5-.3-.9-.7-.8-.3 0-.7 0-.8.5 0 .5.1.7.7.9Z"/><path fill="#5C5F63" d="M136.7 265.2c.4.1.7-.1.8-.6 0-.4-.3-.8-.7-.8-.3-.1-.6.1-.8.6 0 .4.1.6.7.8ZM135.4 266.8c.4.2.7 0 .8-.5 0-.5-.3-1-.6-.9-.4 0-.7.1-.8.6-.2.2.3.7.6.8ZM135.7 268.3c.3.1.7-.1.8-.6 0-.4-.3-.8-.7-.7-.4-.2-.7 0-.8.5-.1.2.3.6.7.8Z"/><path fill="#5C5F63" d="M135.9 269.7c.3.2.7 0 .8-.6 0-.4-.3-.8-.7-.8-.3 0-.7.1-.8.6-.1.2.3.6.7.8Z"/><path fill="#5C5F63" d="M136 271.2c.5.1.8-.1.9-.6 0-.4-.3-.8-.6-.8-.4-.1-.7.1-.9.6-.1.2.3.6.7.8ZM134.8 272.8c.4.2.7 0 .8-.5.1-.5-.3-1-.6-.9-.4 0-.7.1-.8.6-.1.2.3.7.6.8Z"/><path fill="#5C5F63" d="M135 274.3c.4.2.8-.1.9-.6 0-.4-.3-.9-.7-.8-.4 0-.7 0-.8.6 0 .4.3.8.6.8ZM145.3 282.4c0-.3-.2-.6-.5-.6-.2 0-.3.4-.2.7 0 .4.2.7.4.7.2.1.4-.2.3-.8Z"/><path fill="#5C5F63" d="M145.3 282.5c0-.4-.2-.7-.5-.7-.2 0-.3.4-.2.8 0 .3.2.7.4.6.2 0 .3-.4.3-.7ZM146.7 282.2c0-.3-.2-.7-.4-.6-.3 0-.3.4-.3.7 0 .4.3.8.5.7.1 0 .2-.2.2-.8ZM148.2 282c0-.3-.2-.7-.5-.6-.2 0-.3.4-.2.7 0 .4.2.7.4.7.3 0 .3-.4.3-.8ZM149.6 281.8c0-.3-.2-.7-.4-.7-.3 0-.3.5-.3.8 0 .4.2.7.5.7.2 0 .3-.2.2-.8ZM151.3 283c0-.3-.2-.7-.5-.6-.2 0-.3.4-.2.7 0 .4.2.8.4.7.2 0 .3-.4.3-.8Z"/><path fill="#5C5F63" d="M151.3 283c0-.3-.2-.7-.5-.6-.2 0-.3.4-.2.7 0 .4.2.8.4.7.2 0 .3-.4.3-.8ZM152.7 282.8c0-.3-.2-.7-.4-.6-.2 0-.3.4-.3.7 0 .4.3.7.5.7.1 0 .3-.4.2-.8ZM154.2 282.6c0-.3-.2-.7-.5-.7-.2 0-.3.5-.2.8 0 .4.2.7.4.7.3 0 .3-.4.3-.8ZM155.6 282.4c0-.4-.2-.7-.4-.7-.3 0-.3.4-.3.8s.2.7.5.7c.2 0 .3-.3.2-.8ZM157 282.2c0-.4-.1-.7-.4-.7-.2 0-.3.4-.2.8 0 .3.2.7.4.7.3 0 .3-.4.3-.8ZM135 274.3c.4.1.9-.2.8-.6.1-.5 0-.7-.6-.8-.4 0-.9.3-.8.7 0 .4.3.8.6.7ZM133.8 276c.4 0 .8-.3.8-.7 0-.4-.1-.7-.7-.7-.5 0-.8.2-.7.6 0 .5.2.8.6.8ZM134.3 278.9c.3 0 .8-.3.7-.7.1-.4 0-.7-.6-.7-.4-.1-.8.2-.8.6 0 .5.1.7.7.8Z"/><path fill="#5C5F63" d="M134.4 280.3c.4.1.9-.2.8-.6.1-.5 0-.7-.6-.8-.6 0-.9.3-.8.7 0 .3.3.6.6.7ZM133.2 282c.4 0 .8-.3.8-.7.1-.4-.1-.7-.6-.7-.4-.1-.8.2-.8.6 0 .5.1.9.6.8ZM133.6 284.9c.4 0 .9-.3.8-.7.1-.4 0-.7-.6-.7-.6-.1-.9.2-.8.6 0 .5.3.7.6.8Z"/><path fill="#5C5F63" d="M133.9 286.3c.3.1.8-.2.7-.6.1-.5 0-.7-.6-.8-.5 0-.8.3-.7.7-.2.3 0 .7.6.7ZM132.6 288c.4 0 .9-.3.8-.7.1-.4 0-.7-.6-.7s-.9.2-.8.6c0 .5.3.9.6.8ZM133 290.9c.4 0 .9-.3.8-.7.1-.4 0-.7-.6-.7-.5-.1-.8.2-.7.6-.2.5.2.7.6.8ZM133.3 292.3c.4.1.9-.2.8-.6 0-.5 0-.7-.6-.8-.4 0-1 .3-.9.7 0 .3.3.7.7.7ZM132 294c.4 0 .9-.3.8-.7.1-.4 0-.7-.6-.7-.5 0-.8.2-.8.6 0 .5.3.8.7.8ZM124.1 284.1c0-.3-.4-.7-.8-.6-.4 0-.7.5-.6.8 0 .4.4.7.8.7.4-.1.7-.3.6-.9ZM125.8 285.4c0-.4-.4-.7-.8-.7a.7.7 0 0 0 .2 1.5c.2 0 .5-.5.6-.8ZM128.7 285c0-.4-.4-.7-.8-.7a.7.7 0 0 0 .2 1.5c.2 0 .6-.5.6-.9Z"/><path fill="#5C5F63" d="M130.1 284.8a.7.7 0 1 1-1.5.1.7.7 0 0 1 1.5-.1ZM133 284.3c0-.4-.4-.7-.8-.6a.7.7 0 0 0 .2 1.4c.4 0 .7-.3.6-.8Z"/><path fill="#5C5F63" d="M134.4 284.1a.7.7 0 1 1-1.4.2.7.7 0 0 1 1.4-.2Z"/><path fill="#5C5F63" d="M136 283.9c-.1-.4-.5-.7-1-.7a.7.7 0 0 0 .3 1.5c.3 0 .7-.5.6-.8ZM138.8 283.4c0-.3-.4-.7-.8-.6a.7.7 0 0 0 .2 1.5c.4-.1.7-.5.6-.9Z"/><path fill="#5C5F63" d="M140.2 283.2a.7.7 0 0 0-1.4.2.7.7 0 0 0 1.4-.2ZM143.1 282.8c0-.4-.3-.7-.8-.6-.4 0-.7.4-.6.8 0 .4.4.7.8.6.3 0 .7-.3.6-.8Z"/><path fill="#5C5F63" d="M144.6 282.6a.7.7 0 1 1-1.5.2.7.7 0 0 1 1.5-.2ZM120.2 302.5c0-.4-.3-.8-.5-.7-.2 0-.3.4-.2.8 0 .3.2.7.4.6.2 0 .3-.4.3-.7ZM121.6 302.2c0-.3-.2-.7-.4-.6-.3 0-.3.4-.3.7 0 .4.2.7.5.7.2 0 .3-.4.2-.8ZM123 302c0-.3-.2-.7-.4-.6-.2 0-.3.4-.2.7 0 .4.2.7.4.7.1 0 .3-.4.3-.8ZM124.5 301.8c0-.4-.2-.7-.4-.7-.3 0-.3.4-.3.8s.2.7.5.7c0 0 .3-.2.2-.8Z"/><path fill="#5C5F63" d="M124.7 303.3c0-.4-.2-.8-.4-.7-.3 0-.3.4-.3.8 0 .3.2.7.5.6.2 0 .3-.4.2-.7ZM126.2 303c0-.3-.3-.7-.5-.6-.2 0-.3.4-.2.7 0 .4.2.7.4.7s.3-.2.3-.8ZM127.6 302.8c0-.3-.2-.7-.4-.6-.3 0-.3.4-.3.7 0 .4.2.7.5.7.2 0 .3-.4.2-.8ZM129 302.6c0-.3-.2-.7-.4-.7s-.3.4-.2.8c0 .4.2.7.4.7.1 0 .3-.2.3-.8ZM130.5 302.4c0-.4-.2-.7-.4-.7-.3 0-.3.4-.3.8s.2.7.5.7c.2 0 .3-.4.2-.8ZM132 302.2c-.1-.4-.3-.7-.5-.7s-.3.4-.3.8c.1.3.3.6.5.6.3.2.3-.2.2-.7Z"/><path fill="#5C5F63" d="M132 302.2c-.1-.4-.3-.7-.5-.7s-.3.4-.2.8c0 .3.2.7.4.7.1 0 .3-.5.2-.8ZM141.1 292.7c-.3 0-.6.3-.8.7-.1.3.3.6.7.7.3.2.6-.2.8-.6a1 1 0 0 0-.7-.8Z"/><path fill="#5C5F63" d="M140.9 291.3c-.4-.1-.7.3-.8.6-.1.4.3.7.6.8.4.1.7-.3.8-.6.1-.4 0-.7-.6-.8Z"/><path fill="#5C5F63" d="M140.7 289.8c-.4 0-.7.3-.8.7-.1.3.3.6.6.8.4 0 .7-.3.8-.7.1-.3-.3-.6-.6-.8ZM142 288.2c-.4-.1-.7.2-.9.6-.1.4.3.7.7.8.3.1.6-.3.8-.6a1 1 0 0 0-.7-.8Z"/><path fill="#5C5F63" d="M141.7 286.7c-.4 0-.7.3-.8.7-.1.3.3.6.6.7.4.2.7-.2.8-.6.1-.3-.2-.6-.6-.8Z"/><path fill="#5C5F63" d="M141.5 285.3c-.4-.1-.7.3-.8.6-.1.4.3.7.6.8.4.1.7-.3.8-.6a1 1 0 0 0-.6-.8Z"/><path fill="#5C5F63" d="M141.3 283.8c-.4 0-.7.3-.8.7-.1.3.2.6.6.8.4 0 .7-.3.8-.7 0-.3-.1-.8-.6-.8ZM142.5 282.2c-.4-.1-.7.2-.8.6-.1.4.3.7.6.8.4.1.7-.3.8-.6.1-.4-.3-.9-.6-.8Z"/><path fill="#5C5F63" d="M142.3 280.7c-.4 0-.7.3-.8.7-.1.3.3.6.6.7.4.2.7-.2.9-.6-.1-.3-.3-.8-.7-.8Z"/><path fill="#5C5F63" d="M142 279.3c-.3-.1-.6.3-.7.6-.1.4.3.7.6.8.4.1.7-.3.8-.6 0-.6-.3-.9-.6-.8ZM143.3 277.6c-.3-.1-.7.3-.8.7-.1.3.3.6.7.7.3.2.6-.2.8-.6-.1-.5-.3-.8-.7-.8Z"/><path fill="#5C5F63" d="M143 276.2c-.3-.1-.6.2-.7.6-.1.4.3.7.6.8.4.1.7-.3.8-.6.1-.4-.3-.9-.6-.8Z"/><path fill="#5C5F63" d="M142.9 274.7c-.4 0-.7.3-.8.7-.1.3.3.6.6.7.4.2.7-.2.8-.6 0-.3-.3-.8-.6-.8Z"/><path fill="#5C5F63" d="M142.7 273.3c-.4-.1-.7.3-.8.6-.2.4.2.7.6.8.4.1.7-.3.8-.6 0-.6-.3-.9-.6-.8ZM144 271.6c-.5-.1-.8.3-.9.7-.1.3.3.6.7.7.3.2.6-.2.8-.6-.1-.5-.3-.8-.7-.8Z"/><path fill="#5C5F63" d="M143.7 270.2c-.4-.1-.7.2-.8.6-.1.4.3.7.6.8.4.1.7-.3.8-.6.1-.4-.1-.7-.6-.8Z"/><path fill="#5C5F63" d="M143.5 268.7c-.4 0-.7.3-.8.7-.1.3.2.6.6.7.4.2.7-.2.8-.6.1-.3-.3-.6-.6-.8ZM144.7 267c-.4 0-.7.3-.8.7-.1.4.3.7.7.8.3.1.6-.3.8-.7a1 1 0 0 0-.7-.7Z"/><path fill="#5C5F63" d="M144.5 265.6c-.4 0-.7.3-.8.7-.1.3.3.6.6.7.4.2.7-.2.8-.6.1-.4-.3-.6-.6-.8Z"/><path fill="#5C5F63" d="M144.3 264.2c-.4-.1-.7.2-.8.6-.2.4.2.7.6.8.4.1.7-.3.8-.6a1 1 0 0 0-.6-.8ZM145.5 262.5c-.4-.1-.7.3-.8.6-.1.4.3.7.7.8.3.1.6-.2.8-.6a1 1 0 0 0-.7-.8Z"/><path fill="#5C5F63" d="M145.3 261c-.4 0-.7.3-.8.7-.1.4.3.7.6.8.4.1.7-.3.8-.6.1-.4-.3-.7-.6-.8Z"/><path fill="#5C5F63" d="M145 259.6c-.3-.1-.6.3-.7.7-.1.3.2.6.6.7.4.2.7-.2.8-.6.1-.4-.3-.6-.6-.8Z"/><path fill="#5C5F63" d="M144.9 258.2c-.4-.1-.7.2-.8.6-.2.4.2.7.6.8.4.1.7-.3.8-.6a1 1 0 0 0-.6-.8ZM146 256.5c-.3-.1-.6.3-.7.6-.1.4.3.7.6.8.4.1.7-.2.8-.6.1-.4-.1-.7-.6-.8Z"/><path fill="#5C5F63" d="M145.9 255c-.4 0-.7.3-.8.7-.1.4.2.7.6.8.4.1.7-.3.8-.6.1-.4-.3-.7-.6-.8Z"/><path fill="#5C5F63" d="M145.7 253.6c-.4-.1-.7.3-.8.7-.2.3.2.6.6.7.4.2.7-.2.8-.6a1 1 0 0 0-.6-.8Z"/><path fill="#5C5F63" d="M145.4 252.2c-.3-.1-.6.2-.7.6-.2.4.2.7.6.8.3.1.6-.3.7-.6.2-.4 0-.7-.6-.8ZM146.7 250.5c-.4-.1-.7.3-.8.6-.1.4.3.7.6.8.4.1.7-.2.8-.6a1 1 0 0 0-.6-.8Z"/><path fill="#5C5F63" d="M146.5 249c-.4 0-.7.3-.8.7-.2.4.2.7.6.8.4 0 .7-.3.8-.7 0-.3-.3-.8-.6-.7Z"/><path fill="#5C5F63" d="M146.2 247.6c-.3-.1-.6.3-.7.7-.2.3.2.6.6.7.3.2.6-.2.8-.6 0-.4-.3-.8-.7-.8ZM147.5 246c-.4-.2-.7.2-.8.6-.1.4.3.6.6.8.4 0 .7-.3.8-.7 0-.3-.3-.8-.6-.7Z"/><path fill="#5C5F63" d="M147.2 244.5c-.3-.1-.6.3-.7.6-.2.4.2.7.6.8.3.1.6-.2.8-.6 0-.5-.2-.9-.7-.8ZM134.1 301.9c0-.4-.3-.7-.7-.7-.4 0-.5.5-.7.9 0 .3.3.7.7.6.4 0 .8-.3.7-.8Z"/><path fill="#5C5F63" d="M135.6 301.6c0-.3-.3-.6-.7-.6-.4 0-.6.5-.8.9.1.3.4.6.8.6s.5-.5.7-.9ZM137 301.4c0-.3-.3-.7-.7-.6-.4 0-.5.4-.7.8-.1.4.3.7.7.7.4 0 .8-.5.7-.9Z"/><path fill="#5C5F63" d="M137 301.4c0-.3-.3-.7-.7-.6-.4 0-.5.4-.7.8-.1.4.3.7.7.7.4 0 .8-.5.7-.9Z"/><path fill="#5C5F63" d="M138.5 301.2c0-.3-.3-.7-.7-.6-.4 0-.6.4-.7.8-.2.4.3.7.7.7.4-.1.7-.5.7-.9Z"/><path fill="#5C5F63" d="M140 301c-.1-.4-.4-.7-.8-.6-.4 0-.5.4-.7.8-.1.4.3.7.7.6.4 0 .8-.3.7-.8Z"/><path fill="#5C5F63" d="M141.4 300.8c0-.4-.3-.7-.7-.7-.4.1-.6.5-.7.9-.2.4.3.7.7.6.6 0 .7-.4.7-.8ZM142.8 300.6c0-.4-.3-.7-.7-.7-.4.1-.6.5-.7.9 0 .3.3.7.7.6.4 0 .6-.3.7-.8ZM144.3 300.4c0-.4-.3-.7-.7-.7-.4 0-.6.5-.7.9-.2.3.3.7.7.6.4 0 .7-.5.7-.8Z"/><path fill="#5C5F63" d="M145.7 300.1c0-.3-.3-.7-.7-.6-.4 0-.5.4-.7.8-.1.4.3.7.7.7.4 0 .8-.5.7-.9Z"/><path fill="#5C5F63" d="M147.2 300c0-.4-.3-.8-.8-.7-.4 0-.5.4-.7.8 0 .4.3.7.7.7.5 0 .8-.3.8-.9ZM138.7 306.5c-.4-.2-.7 0-.8.5 0 .5.3 1 .6.9.4 0 .7-.1.8-.6.1-.5-.3-.9-.6-.8Z"/><path fill="#5C5F63" d="M138.7 306.4c-.4-.1-.7.1-.8.6 0 .4.3.8.6.8.4.1.7-.1.8-.6.1-.4-.2-.6-.6-.8ZM140 304.8c-.4-.2-.8 0-.9.6 0 .4.3.8.7.8.3 0 .7-.1.8-.6 0-.2-.3-.6-.7-.8Z"/><path fill="#5C5F63" d="M139.7 303.3c-.4-.1-.7.1-.8.6 0 .5.3.9.7.8.3 0 .7 0 .8-.5 0-.3-.3-.7-.7-.9Z"/><path fill="#5C5F63" d="M139.5 301.9c-.4-.2-.7 0-.8.6 0 .4.3.9.6.8.4 0 .8-.1.9-.6 0-.4-.3-.9-.7-.8Z"/><path fill="#5C5F63" d="M139.3 300.4c-.4-.1-.7.1-.8.6 0 .4.3.8.6.8.4.1.7-.1.9-.6 0-.4-.3-.6-.7-.8ZM140.5 298.8c-.4-.2-.7 0-.8.6 0 .4.3.8.7.8.3 0 .7-.1.8-.6 0-.2-.3-.6-.7-.8Z"/><path fill="#5C5F63" d="M140.3 297.3c-.4-.1-.7.1-.8.6 0 .5.3.9.6.8.4 0 .8 0 .9-.5 0-.3-.3-.7-.7-.9Z"/><path fill="#5C5F63" d="M140.3 297.3c-.4-.1-.7.1-.8.6 0 .5.3.9.6.8.4 0 .8 0 .9-.5 0-.5-.3-1-.7-.9Z"/><path fill="#5C5F63" d="M140.1 295.9c-.4-.2-.7 0-.8.5 0 .5.3.9.6.8.4.2.7 0 .9-.5 0-.5-.3-.9-.7-.8ZM141.3 294.2c-.4-.1-.7.1-.8.6 0 .5.3.9.7.8.3 0 .7 0 .8-.5 0-.3-.3-.7-.7-.9ZM154.2 301.2c-.4-.2-.7 0-.8.5 0 .5.2.7.6.8.4.2.7 0 .9-.5-.1-.5-.3-.9-.7-.8Z"/><path fill="#5C5F63" d="M154 299.7c-.4-.1-.7.1-.9.6.1.4.3.6.7.8.4.1.7-.1.8-.6 0-.4-.2-.6-.6-.8Z"/><path fill="#5C5F63" d="M153.8 298.3c-.4-.2-.8 0-.9.5 0 .5.3.7.7.8.4.2.7 0 .8-.5 0-.2-.2-.6-.6-.8ZM155 296.6c-.4-.1-.7.1-.8.6 0 .4.2.6.6.8.4.1.7-.1.9-.6-.1-.4-.3-.8-.7-.8ZM155.3 295.8c0 .2-.4.3-.8.2-.4 0-.7-.2-.7-.4s.4-.3.8-.3c.4.1.7.3.7.5Z"/><path fill="#5C5F63" d="M154.8 295.2c-.4-.2-.7 0-.9.5.1.5.3.7.7.8.4.2.7 0 .8-.5 0-.3-.2-.7-.6-.8Z"/><path fill="#5C5F63" d="M154.6 293.7c-.4-.1-.8.1-.9.6 0 .4.3.6.7.8.4.1.7-.1.8-.6 0-.2-.2-.6-.6-.8ZM156.3 292.7c0 .2-.4.3-.8.2-.4 0-.7-.2-.7-.4s.4-.3.8-.3c.4.1.7.3.7.5ZM155.6 290.6c-.4-.1-.7.1-.9.6.1.4.3.6.7.8.4.1.7-.1.8-.6 0-.2-.2-.6-.6-.8Z"/><path fill="#5C5F63" d="M155.4 289.2c-.4-.2-.8 0-.9.5 0 .5.3.7.7.8.4.2.7 0 .8-.5 0-.3-.2-.7-.6-.8Z"/><path fill="#5C5F63" d="M155.4 289.2c-.4-.2-.8 0-.9.5 0 .5.3.7.7.8.4.2.7 0 .8-.5 0-.5-.3-.9-.6-.8ZM146.3 309c0-.4-.3-.8-.5-.7-.2 0-.3.4-.2.7 0 .4.2.7.4.7s.3-.2.3-.8ZM147.7 308.7c0-.4-.2-.7-.4-.7-.3 0-.3.4-.3.8 0 .3.2.7.4.6.3.2.4-.2.3-.7ZM149.1 308.5c0-.4-.2-.7-.4-.7s-.3.4-.2.8c0 .3.2.7.4.6.3.2.3-.2.2-.7ZM150.6 308.3c0-.4-.2-.7-.5-.7-.2 0-.3.4-.2.8 0 .3.2.7.4.7.3 0 .4-.3.3-.8ZM152 308c0-.3-.2-.6-.4-.6s-.3.4-.3.7c0 .4.3.7.5.7.2.1.3-.2.2-.8Z"/><path fill="#5C5F63" d="M152 308c0-.3-.2-.6-.4-.6s-.3.4-.3.7c0 .4.3.7.5.7.2.1.3-.2.2-.8ZM153.5 307.9c0-.4-.2-.8-.5-.7-.2 0-.3.4-.2.8 0 .3.2.7.4.6.3 0 .4-.2.3-.7ZM155 307.6c-.1-.3-.3-.7-.5-.6-.2 0-.3.4-.3.7 0 .4.3.7.5.7.1.1.3-.3.2-.8ZM156.4 307.4c0-.3-.2-.7-.5-.6-.2 0-.3.3-.2.7 0 .4.2.7.4.7.3.1.4-.3.3-.8ZM157.8 307.2c0-.4-.2-.7-.4-.7-.3 0-.3.4-.3.8s.3.7.5.7.3-.2.2-.8ZM159.3 307c0-.4-.2-.7-.5-.7-.2 0-.3.4-.2.8 0 .3.2.7.4.6.2.2.3-.2.3-.7ZM151.5 313.4c-.3-.2-.7.1-.8.6 0 .4.3.6.7.7.4.2.7 0 .8-.5.1-.5-.3-.8-.7-.8Z"/><path fill="#5C5F63" d="M151.4 312c-.4-.2-.7 0-.8.5-.2.5.2.6.6.8.4.2.7-.1.8-.6 0-.4-.3-.6-.6-.7ZM152.6 310.3c-.4-.2-.7 0-.8.5-.1.5.3.7.6.8.4.2.7 0 .8-.5.2-.3-.2-.6-.6-.8Z"/><path fill="#5C5F63" d="M152.4 308.9c-.4-.2-.7 0-.8.5-.1.4.2.6.6.8.4.1.7-.1.8-.6.1-.2-.3-.6-.6-.8Z"/><path fill="#5C5F63" d="M152.4 308.9c-.4-.2-.7 0-.8.5-.1.4.2.6.6.8.4.1.7-.1.8-.6.1-.2-.3-.6-.6-.8ZM152.2 307.4c-.4-.2-.7.1-.8.5-.1.5.2.7.6.8.4.2.7 0 .8-.5 0-.5-.3-.8-.6-.8ZM153.4 305.7c-.4-.1-.7.1-.8.6-.1.4.3.6.6.8.4.1.7-.1.8-.6.1-.4-.3-.8-.6-.8Z"/><path fill="#5C5F63" d="M153.2 304.3c-.4-.2-.7 0-.8.5-.1.5.2.7.6.8.4.2.7 0 .8-.5.1-.5-.3-.6-.6-.8Z"/><path fill="#5C5F63" d="M153 302.9c-.4-.2-.8 0-.9.5 0 .4.3.6.7.8.3.1.7-.1.8-.6.1-.2-.3-.6-.7-.7Z"/><path fill="#5C5F63" d="M153 302.8c-.4-.1-.7.1-.8.6-.1.4.2.6.6.8.4.1.7-.1.8-.6.1-.2-.3-.6-.6-.8ZM154.2 301.2c-.4-.2-.7 0-.8.5-.1.5.3.6.6.8.4.2.7 0 .8-.5.2-.3-.2-.6-.6-.8ZM151.3 291.2c-.4 0-.9.3-.8.7-.1.4 0 .7.6.7.4.1.9-.2.8-.6 0-.4-.3-.8-.6-.8ZM152.3 288.1c-.4 0-.9.3-.8.7-.1.4 0 .7.6.7.6.1.9-.2.8-.6 0-.4-.3-.7-.6-.8ZM152 286.7c-.3-.1-.8.2-.8.6 0 .5.1.7.7.8.4 0 .9-.3.8-.7 0-.4-.3-.6-.7-.7Z"/><path fill="#5C5F63" d="M151.8 285.2c-.3 0-.8.3-.7.7-.1.4 0 .7.6.8.3 0 .8-.3.7-.7.1-.5 0-.7-.6-.8ZM153 283.6c-.3-.1-.8.2-.7.6-.1.5 0 .7.6.8.4 0 .8-.3.8-.7 0-.3-.1-.7-.7-.7ZM152.6 280.7c-.3-.1-.8.2-.7.6-.1.5 0 .7.6.8.5 0 .8-.3.7-.7.2-.3-.2-.6-.6-.7ZM153.9 279c-.4 0-.9.3-.8.7-.1.4 0 .7.6.7.4.1.9-.2.8-.6 0-.5-.3-.8-.6-.8Z"/><path fill="#5C5F63" d="M153.7 277.6c-.4-.1-.9.2-.8.6-.1.5 0 .7.6.8.4 0 .9-.3.8-.7 0-.4-.3-.8-.6-.7ZM153.2 274.7c-.3-.1-.8.2-.7.6-.2.5 0 .7.6.8.4 0 .8-.3.8-.7 0-.4-.3-.8-.7-.7ZM154.5 273c-.4 0-.9.3-.8.7-.1.4 0 .7.6.7.4.1.9-.2.8-.6 0-.5-.3-.7-.6-.8Z"/><path fill="#5C5F63" d="M154.3 271.6c-.4-.1-.9.2-.8.6-.1.5 0 .7.6.8.4 0 .8-.3.8-.7 0-.4-.3-.7-.6-.7ZM154 270.1c-.3 0-.8.3-.7.7-.2.4 0 .7.6.7.4.1.8-.2.8-.6 0-.4-.1-.9-.7-.8ZM155.2 268.5c-.3-.1-.8.2-.7.6-.1.5 0 .7.6.8.5 0 .8-.3.7-.7.2-.4 0-.8-.6-.7ZM155 267c-.3 0-.8.3-.7.7-.1.4 0 .7.6.7.3.1.8-.2.7-.6.2-.5-.2-.8-.6-.8ZM156 263.9c-.3 0-.8.3-.7.7-.1.4 0 .7.6.7.4.1.9-.2.8-.7 0-.4-.3-.6-.6-.7ZM155.9 262.4c-.4 0-.9.3-.8.7-.1.5 0 .7.6.8.4 0 .9-.3.8-.7 0-.4-.3-.7-.6-.8ZM155.6 261c-.3 0-.8.3-.7.7-.2.4 0 .7.6.7.5 0 .8-.2.8-.6 0-.3-.3-.7-.7-.8ZM156.9 259.3c-.4 0-.9.3-.8.7-.1.4 0 .7.6.8.4 0 .9-.3.8-.7 0-.3-.3-.7-.6-.8ZM156.4 256.4c-.3 0-.8.3-.7.7-.2.5 0 .7.6.8.4 0 .8-.3.8-.7 0-.3-.3-.7-.7-.8ZM157.6 254.8c-.3-.1-.8.2-.7.7-.1.4 0 .6.6.7.5 0 .8-.2.8-.7 0-.4-.2-.8-.7-.7Z"/><path fill="#5C5F63" d="M157.4 253.3c-.3 0-.8.3-.7.7-.1.4 0 .7.6.8.5 0 .8-.3.8-.7 0-.4-.3-.8-.7-.8Z"/><path fill="#5C5F63" d="M157.3 251.9c-.4-.1-.9.3-.8.7-.2.4 0 .7.6.7.4.1.8-.2.8-.7 0-.4-.3-.6-.6-.7Z"/><path fill="#5C5F63" fill-rule="evenodd" d="m195.5 257 26 21 .5-.5-26.1-21-.4.4ZM233.7 205.5l27.2 17.9.3-.5-27.2-18-.3.6Z" clip-rule="evenodd"/></g><mask id="b" width="775" height="775" x="-159" y="-148" maskUnits="userSpaceOnUse" style="mask-type:alpha"><g fill="#2F8FFC" opacity=".3"><circle r="200.2" transform="scale(-1 1) rotate(-45 174.7 395.4)"/><circle r="387" fill-opacity=".2" transform="scale(-1 1) rotate(-45 174.7 395.4)"/><circle r="294.6" fill-opacity=".4" transform="scale(-1 1) rotate(-45 174.7 395.4)"/></g></mask><g mask="url(#b)"><path fill="#5C5F63" d="m228.3 240.5 399 107-87.5 204.7L335 639.5l-106.8-399Z"/></g></svg>