<svg width="1232" height="1124" viewBox="0 0 1232 1124" fill="none" xmlns="http://www.w3.org/2000/svg">
<path d="M634.347 849.556C549.596 698.31 457.685 487.421 703.14 349.88C948.594 212.339 1438.46 200.231 1523.22 351.477C1607.97 502.723 1477.69 736.831 1232.24 874.372C986.782 1011.91 719.097 1000.8 634.347 849.556Z" stroke="#212A33" stroke-width="2" stroke-linecap="round" stroke-linejoin="round" stroke-dasharray="9 9"/>
<g clip-path="url(#clip0_4312_17160)">
<path d="M809.5 315.26L-0.0837564 315.019L404.916 1016.5L809.5 315.26Z" fill="url(#paint0_linear_4312_17160)"/>
</g>
<circle cx="793.856" cy="310.856" r="40.607" transform="rotate(-137.43 793.856 310.856)" fill="#5C5F63"/>
<circle cx="793.856" cy="310.857" r="78.5068" transform="rotate(-137.43 793.856 310.857)" fill="#5C5F63" fill-opacity="0.2"/>
<circle cx="793.856" cy="310.859" r="59.7589" transform="rotate(-137.43 793.856 310.859)" fill="#5C5F63" fill-opacity="0.4"/>
<defs>
<linearGradient id="paint0_linear_4312_17160" x1="809.5" y1="315.26" x2="202.416" y2="665.76" gradientUnits="userSpaceOnUse">
<stop stop-color="white" stop-opacity="0.1"/>
<stop offset="1" stop-color="white" stop-opacity="0"/>
</linearGradient>
<clipPath id="clip0_4312_17160">
<rect width="910" height="702" fill="white" transform="translate(0 315)"/>
</clipPath>
</defs>
</svg>
