<svg xmlns="http://www.w3.org/2000/svg" width="1972" height="863" fill="none"><path stroke="#313D49" stroke-dasharray="9 9" stroke-linecap="round" stroke-linejoin="round" stroke-width="2" d="m1 501.9 105.8 17.4c104.1 17.3 315.7 52.2 536.6 20.6 221-31.6 454.4-129.3 676.9-170.4 221.3-40.9 435-25.2 541.3-17.4h1.6l107.3 8"/><mask id="a" width="796" height="795" x="1345" y="46" maskUnits="userSpaceOnUse" style="mask-type:alpha"><g fill="#2F8FFC" opacity=".2"><circle cx="1743.1" cy="443.5" r="205.4" transform="rotate(-30.1 1743 443.5)"/><circle cx="1743.1" cy="443.5" r="397" fill-opacity=".2" transform="rotate(-30.1 1743 443.5)"/><circle cx="1743.1" cy="443.5" r="302.2" fill-opacity=".4" transform="rotate(-30.1 1743 443.5)"/></g></mask><g mask="url(#a)"><path fill="#4A5A6A" d="M1550.6 765.3c-144.1-34-239-220.4-205.7-361.1l366.1 43.4-160.4 317.7Z"/></g><g clip-path="url(#b)"><circle cx="1718.4" cy="564" r="8.5" fill="#4A5A6A" transform="rotate(-123 1718.4 564)"/><circle cx="1718.4" cy="564" r="16.5" fill="#4A5A6A" fill-opacity=".2" transform="rotate(-123 1718.4 564)"/><circle cx="1718.4" cy="564" r="12.6" fill="#4A5A6A" fill-opacity=".4" transform="rotate(-123 1718.4 564)"/><mask id="c" width="171" height="171" x="1631" y="480" maskUnits="userSpaceOnUse" style="mask-type:alpha"><g fill="#2F8FFC" opacity=".2"><circle cx="1716.5" cy="565.5" r="43.8" transform="rotate(-33 1716.5 565.5)"/><circle cx="1716.5" cy="565.5" r="84.7" fill-opacity=".2" transform="rotate(-33 1716.5 565.5)"/><circle cx="1716.5" cy="565.5" r="64.5" fill-opacity=".4" transform="rotate(-33 1716.5 565.5)"/></g></mask><g mask="url(#c)"><path fill="#4A5A6A" d="m1716.5 565.7-90.3 4.6 9.4 47.8 39.8 28 41-80.4Z"/></g></g><mask id="d" width="408" height="364" x="1513" y="259" maskUnits="userSpaceOnUse" style="mask-type:alpha"><path fill="#C4C4C4" d="m1614.1 622.6 306.6-133.9L1820.4 259 1514 393z"/></mask><g mask="url(#d)"><path fill="#212A33" d="m1698.7 415.9 43.5-11.1 12.9-3.4 10.2 2.4 2.4 3.4 1 10.8 5.7 6.5 12.6-5 1.6.7.5 1.3-.7 1.5-12 5.3-3 14.7 2.4 9-4 6.2-36.9 27.4-4 1.8-4-2.5 1.1-5.4 4.4-2.5-17 .6-4 7.3-4.4 2.6-3.8-8.6 7.1-4.7-4-5.6-12-14.6-7.5 2.7-1.6-3.6-1.9.8-2.4-5 1.3-1.9 4.8-1.3 7 1.4 1.3-28.2-6.8-2 .2-1.5 10 .5Z"/><path fill="#4A5A6A" fill-rule="evenodd" d="m1730.7 488.2 4.3-1.8 37.1-27.6 4-6.4-2.3-9.1 2.8-14.5 12.1-5.3.8-1.8-.6-1.5-1.8-.9-12.5 5.1-5.5-6.3-1-10.8-2.6-3.6-10.5-2.5-13 3.5-43.6 11-10.2-.4-.3 2.1 6.8 2-1.2 27.7-6.8-1.4-5 1.4-1.5 2 2.7 5.6 1.9-.8 1.5 3.6 7.6-2.8 12 14.5 3.8 5.3-7.1 4.7 4 9.2 4.9-2.8 4-7.3 15.5-.5-3.4 2-1.1 5.7 4.2 2.7Zm0-.7-3.5-2.3 1-5 5.3-3.1-18.4.6-4.1 7.4-4 2.4-3.6-8 7.2-4.8-4.2-6-12.3-14.7-7.4 2.7-1.6-3.7-1.9.9-2.2-4.7 1.1-1.6 4.7-1.3 7.3 1.6 1.3-29-6.8-2 .1-1 9.8.5 43.6-11 13-3.5 10 2.4 2.3 3.2 1 10.9 6 6.8 12.6-5.2 1.4.7.4 1-.5 1.3-12.2 5.3-3 15 2.4 9-3.9 6-37 27.5-3.8 1.7Z" clip-rule="evenodd"/><path fill="#4A5A6A" fill-rule="evenodd" d="m1734 442.9 7.6 3-.2.4-7.8-3.2 2-8.6 12 5.3 29-11.9.1.4-29 12-11.9-5.2-1.8 7.8Z" clip-rule="evenodd"/><path fill="#252E36" d="m1677.3 518.7 26.8-30.3-23.9-35-24 33.9 21 31.4Z"/><path fill="#4A5A6A" fill-rule="evenodd" d="m1677.4 518.6 27.5-30.9-24.3-35.5-24.7 34.5 21.5 32Zm0-.7-21-31.2 24.2-33.8 23.8 34.8-27 30.2Z" clip-rule="evenodd"/><path fill="#4A5A6A" fill-rule="evenodd" d="m1677.4 518.6 12-13.5-22.5-33.7-11 15.4 21.5 31.8Zm0-.6-21-31.2 10.5-14.7 21.9 33-11.4 12.9ZM1690.7 503.8l13.6-15.2-24.8-35-12 16.6 23.2 33.6Zm0-.7-22.6-33 11.4-15.8 24.3 34.3-13.1 14.5ZM1764.8 505.2l9.5-45-31.3-15-7.5 42.4 29.3 17.6Zm-.3-.6-28.6-17.2 7.4-41.5 30.5 14.6-9.3 44ZM1801.3 527.1l12.7-46.6-35.9-18.2-9.7 45.1 32.9 19.7Zm-.3-.6-32.1-19.3 9.5-44.3 35.1 17.8-12.5 45.8Z" clip-rule="evenodd"/><path fill="#252E36" d="m1724.5 409.5-25.2 6.4-10-.5-.2 1.6 6.8 2 15.5 11 13-20.5Z"/><path fill="#4A5A6A" fill-rule="evenodd" d="M1711.3 430.8 1725 410l-25.8 6.6-10.1-.4-.3 2 7 1.9 15.5 10.7Zm-.1-.6-15.2-10.5-6.7-1.8.2-1.2 9.8.4 24.8-6.4-13 19.5Z" clip-rule="evenodd"/><path fill="#4A5A6A" fill-rule="evenodd" d="m1724.3 410.8 18 27.4.4-.3-18-27.3-.4.2Z" clip-rule="evenodd"/><path fill="#252E36" d="m1682 415.7 31-9.2-22-78.6-30.2 16 21.1 71.8Z"/><path fill="#4A5A6A" fill-rule="evenodd" d="m1713.8 406.2-22.3-79.6-30.9 16.3 21.3 72.7 32-9.4Zm-31.6 9L1661 343l30.2-15.9 22 78.7-31.1 9.2Z" clip-rule="evenodd"/><path fill="#4A5A6A" fill-rule="evenodd" d="m1713.5 405.6-10.3-36.5-30.6 12.4 9.4 32.6 31.5-8.5Zm-31.2 8-9.2-31.8 29.8-12.2 10.1 35.7-30.7 8.3ZM1701.1 365.8l-9.8-36.5-29.4 15.2 9.8 33.5 29.4-12.2Zm-29.1 11.6-9.6-32.7L1691 330l9.7 35.7-28.8 11.8Z" clip-rule="evenodd"/><path fill="#4A5A6A" fill-rule="evenodd" d="M1712.1 381.1 1751 403l-.2.4-38.8-21.8-7-5.5.3-.3 7 5.4Z" clip-rule="evenodd"/><path fill="#4A5A6A" fill-rule="evenodd" d="m1731.6 407.7-20.4-27.4-.3.2 20.3 27.4.4-.2Z" clip-rule="evenodd"/><path fill="#252E36" d="m1739.7 417.5 8-3.5 13 16.4-8 3.5-13-16.4Z"/><path fill="#4A5A6A" fill-rule="evenodd" d="m1751.3 434.5 8.1-3.6-13-16.4-8 3.5 12.9 16.5Zm.1-.5-12.4-15.8 7.3-3.2 12.5 15.7-7.4 3.3Z" clip-rule="evenodd"/><path fill="#252E36" d="m1760 430.8 13.8-6-16.7-21-11.3 4.6 1.6 2.3-2.5 1 15.2 19Z"/><path fill="#4A5A6A" fill-rule="evenodd" d="m1760 430.8 13.8-6-16.6-21-11.5 4.6 1.6 2.2-2.4 1 15.1 19.2Zm.2-.5-14.6-18.5 2.4-1-1.7-2.2 10.8-4.2 16 20.2-13 5.7Z" clip-rule="evenodd"/><path fill="#252E36" d="m1768.1 410.5 6.3-3.2-3.7-5.1-4.5.3 1.9 8Z"/><path fill="#4A5A6A" fill-rule="evenodd" d="m1768.1 410.5 7.2-3.7-3.9-5-5 .6 1.7 8.1Zm.3-.6-1.5-7.1 4.3-.5 3.5 4.4-6.3 3.2ZM1752.2 434.8l8.1-3.5L1747 414l-8 3.5 13.3 17.3Zm.1-.5-12.8-16.6 7.3-3.2 12.9 16.6-7.4 3.2Z" clip-rule="evenodd"/><path fill="#4A5A6A" fill-rule="evenodd" d="m1760 430.8 13.8-6-16.8-21.3-11.3 4.9 1.6 2.2-2.4 1 15.1 19.2Zm.2-.5-14.6-18.5 2.4-1-1.7-2.3 10.5-4.5 16.4 20.6-13 5.7Z" clip-rule="evenodd"/><path fill="#4A5A6A" fill-rule="evenodd" d="m1772 424-13 5.6v.1l13-5.6v-.1ZM1771.5 422.7l-13 5.6v.1l13-5.6v-.1ZM1770 421l-13 5.6v.1l13-5.6v-.1ZM1769.4 419.6l-13 5.7.1.1 13-5.7ZM1767.6 418.9l-13 5.6v.1l13-5.6v-.1ZM1767 417.6l-13 5.6v.1l13-5.6v-.1ZM1766.5 416.2l-13 5.7v.1l13-5.7ZM1765 414.5l-13 5.7v.1l13-5.7ZM1764 414.2l-13 5.6.1.1 13-5.6v-.1ZM1764.4 412.4l-13.9 6v.2l14-6v-.2ZM1763 410.7l-14 6v.2l14-6v-.2ZM1762.4 409.4l-14 6 .1.2 14-6.1-.1-.1ZM1760.5 408.6l-13.9 6.1v.1l14-6v-.2ZM1759 407.7l-13 5.7h.1l13-5.6ZM1759.4 406l-13.9 6v.2l14-6.1v-.1ZM1757.8 404.4l-11.1 4.9 11.1-4.8v-.1Z" clip-rule="evenodd"/><path fill="#4A5A6A" fill-rule="evenodd" d="M1746.4 411.4 1762 430l-15.6-18.5h-.1ZM1746.5 408.1l16.9 21.3-16.8-21.3h-.1ZM1747.8 407.6l16.9 21.2-16.8-21.3ZM1749.1 407l17 21.3-16.9-21.4v.1ZM1750.8 405.5l17 21.3-16.9-21.3ZM1753 405.4l17 21.2-16.8-21.3h-.1ZM1754.4 404.8l17 21.3-17-21.4v.1ZM1756.1 403.3l16.9 21.3-16.8-21.3ZM1759.5 429.3l-8.4 3.7 8.4-3.6ZM1758 427.6l-8.4 3.6v.1l8.4-3.6ZM1757.4 426.3l-8.3 3.6v.1l8.4-3.6v-.1ZM1756.5 425.9l-8.3 3.6v.1l8.3-3.6v-.1ZM1755 424.2l-8.3 3.6v.1l8.3-3.6v-.1ZM1754.5 422.9l-8.4 3.6v.1l8.4-3.6v-.1ZM1754 421.6l-8.4 3.6v.1l8.4-3.6v-.1ZM1752 420.8l-8.3 3.6v.1l8.4-3.6v-.1ZM1751.5 419.5l-8.3 3.6v.1l8.3-3.6v-.1ZM1750 417.8l-8.3 3.6v.1l8.3-3.6v-.1ZM1749.5 416.4l-8.4 3.7 8.4-3.6ZM1748.5 416l-8.3 3.7v.1l8.4-3.6v-.1ZM1747 414.4l-8.3 3.6v.1l8.4-3.6v-.1Z" clip-rule="evenodd"/><path fill="#4A5A6A" fill-rule="evenodd" d="m1739.7 417.5 13.5 16.1h.1l-13.5-16.1h-.1ZM1742 417.4l13.5 16-13.5-16.1ZM1743.6 415.9l13.6 16-13.5-16.1ZM1745 415.3l13.5 16.1-13.5-16.1Z" clip-rule="evenodd"/><path fill="#4A5A6A" d="m1682 414.1 30.8-8.2-10.6-36.4-29.7 12c3 10.8 6.3 21.7 9.5 32.6Zm-2.2-9-.7-2.4-.7-2.4c.7-.2 1.3-.5 2-.6.3-.2.5 0 .4.2.1.5.4 1 .4 1.5.2.3.1.4-.2.5-.6 0-1 .3-1.6.4l-.2.2.4.1 1.5-.4s.4 0 .4.2c.3.5.4 1 .5 1.6l-.2.3c-.6.4-1.2.6-2 .9Zm31.4-2.2.7 2.4c.1.3 0 .4-.3.5l-2.4.7c-.2 0-.3 0-.4-.2l-.6-2.2c-.1-.2 0-.4.3-.5l2.3-.7c.2-.2.4-.1.4 0Zm-3.4.8.7 2.5-.2.3-2.2.6c-.2 0-.4 0-.5-.3l-.6-2.1c0-.2 0-.5.3-.5l2.2-.6s.2.2.3.1Zm-6 1.4 2.3-.6.4.3.6 2.2c0 .1 0 .4-.2.4l-2.2.6-.4-.3-.6-2.2.1-.4Zm.4-28.4 1-.4c.3 0 .4 0 .5.2.2.6.3 1.3.6 1.8 0 .2 0 .4-.3.5l-1.6.6c-1 .3-1 .3-1.4-.7 0-.5-.5-1-.2-1.4.1-.2.7-.2 1.4-.6Zm-1-2.8 1.2-.4c.2-.1.3 0 .4.1l.6 1.9c0 .1 0 .4-.2.4l-2.4 1s-.4-.1-.3-.3l-.6-1.8c-.1-.3 0-.4.3-.5l1-.4Zm8.4 23 .5 2.1c0 .1 0 .3-.2.4l-2.4.6s-.3 0-.3-.2l-.6-1.8c0-.1 0-.4.2-.5l2.4-.7s.3.2.4.1Zm-5.9-14.2 1.2-.4c.2-.1.3 0 .4.1.2.7.5 1.3.5 2 0 0 0 .3-.2.4l-2.3.8c-.2 0-.4 0-.5-.3l-.5-1.8c-.2-.3 0-.5.2-.5.5 0 1-.2 1.2-.3Zm4.4 10.9-2.2.7c-.3.2-.5.1-.5-.3l-.5-1.7c-.2-.3 0-.4.2-.5l2.3-.7c.3-.2.4-.1.5.2.1.6.2 1.2.5 1.8.1.3 0 .5-.3.5Zm-1.4-6-2.5.9c-.3.1-.5 0-.5-.3l-.5-1.7c0-.1 0-.4.2-.5l2.3-.8c.2 0 .4 0 .5.3l.6 1.9s-.2.2-.1.3Zm.9 3-2.6.8c-.1 0-.4 0-.5-.2-.3-.6-.4-1.2-.5-1.8l.1-.5 2.4-.8.4.2c.3.6.5 1.3.6 1.9.2.1 0 .3 0 .4Zm-3.8-8.3-1.2.3c-.2.1-.3 0-.4-.1l-.5-1.8c-.1-.2 0-.3.2-.5.8-.2 1.6-.5 2.3-.9.2 0 .4 0 .5.2l.5 1.9c.1.2 0 .3-.2.5-.5 0-.9.2-1.2.4Zm-3.5-11.3c.4 0 .8-.2 1.1-.3.3-.2.6-.1.6.2l.5 1.7c.1.3 0 .5-.3.6l-2.2.8c-.3.2-.5.1-.5-.2l-.5-1.8c-.1-.2 0-.4.2-.5l1.1-.5Zm7.6 32-.5-2c0-.2.1-.4.3-.4l2.4-.7c.1 0 .4 0 .5.2l.6 1.8-.3.4-2.4.6c-.3.2-.5 0-.6 0Zm.8-8.8.6 1.8c.1.2 0 .4-.3.5l-2.3.7c-.2 0-.4 0-.4-.3-.2-.6-.3-1.3-.6-1.8 0-.2.1-.4.3-.5l2.3-.7c.2 0 .4 0 .5.3Zm-7.4 11.3.7 2.3-.2.3-2.1.5c-.1 0-.4 0-.4-.2-.2-.7-.5-1.4-.5-2 0-.2 0-.5.2-.5l2-.6.3.2Zm-5 4-.7-2.3c-.1-.3 0-.5.3-.5l1.9-.4c.2-.1.3 0 .5.2l.5 2.2c.1.2 0 .3-.1.4l-2 .5-.5-.2Zm-1-2.4.6 2.3-.3.4-2 .5-.3-.2-.6-2.1c-.2-.3-.1-.5.3-.5l1.8-.4h.4Zm3.5-29 1-.5c.3-.2.4-.1.5.3l.5 1.7c.1.3 0 .4-.3.5l-2 .7c-.3.2-.4.1-.5-.2 0-.6-.3-1.1-.5-1.8 0-.2 0-.4.3-.5a3 3 0 0 0 1-.3Zm2.5 8.2-1.2.4c-.2 0-.3 0-.5-.3l-.5-1.7c0-.2 0-.4.3-.5l2-.8c.3-.1.4 0 .5.2l.6 1.8c0 .2 0 .4-.3.5l-1 .4Zm3.4 8.4-2 .7c-.3 0-.5 0-.5-.3l-.5-1.8c-.1-.2 0-.4.2-.5l2.2-.7c.3 0 .4.1.5.3 0 .6.3 1.3.5 1.8 0 .2 0 .4-.4.5Zm-6.8-19.5c.3-.1.8-.2 1-.4.3 0 .4 0 .5.2l.5 1.8c.1.2 0 .3-.3.5-.7.3-1.3.4-2 .8-.3 0-.5 0-.5-.3l-.5-1.8c-.1-.2 0-.5.2-.5.5 0 .8-.2 1-.3Zm5.6 23.4 2.3-.6c.2-.1.3 0 .5.2l.5 1.9c0 .1 0 .4-.2.3l-2.1.7c-.3.1-.4 0-.5-.3l-.6-1.7c-.2-.2 0-.5 0-.5Zm.2-9.1c.1.7.2 1.2.5 1.8.1.2 0 .4-.3.5l-2.1.7c-.2.1-.4 0-.5-.3l-.5-1.7c-.1-.2 0-.5.3-.5.6-.2 1.3-.5 2-.6.3-.3.5-.3.6 0Zm-6.6-17.2c.4 0 .8-.2 1.1-.3.2-.1.3 0 .4.1l.6 1.9c0 .1 0 .4-.2.4-.7.4-1.3.6-2 .8-.4.2-.5.1-.5-.2l-.5-1.7c-.2-.3 0-.5.3-.6l.8-.4Zm5.2 16.8-1.2.4c-.3.1-.5 0-.5-.3l-.5-1.6c-.1-.3 0-.5.3-.5l1.8-.7c.5-.2.5-.2.8.4l.1.7c.3 1.2.3 1.2-.8 1.6Zm-2.7-8.1 1.2-.4s.4 0 .3.2l.6 1.9s-.1.4-.3.3l-2 .8c-.4.2-.5.1-.6-.3 0-.5-.3-1-.5-1.7-.1-.3 0-.5.3-.5l1-.3Zm3 14.8 2.4-.7.3.2.6 1.9-.2.3-2.2.6c-.1 0-.4 0-.3-.2l-.6-1.8c-.2-.2-.1-.3 0-.3Zm-7-16.5 1-.5c.3 0 .5 0 .5.2l.5 1.7c.2.4 0 .5-.2.5l-1.3.5c-1.2.4-1.2.4-1.4-.8-.3-1.2-.3-1.2 1-1.6Zm11.3 21.6.5 2c0 .1 0 .3-.2.4l-2 .5c-.4.1-.5 0-.6-.3 0-.6-.3-1-.5-1.7 0-.2 0-.4.3-.5l2.2-.6.3.2Zm-9.7-15.9 1.1-.4c.3 0 .4 0 .5.3l.6 1.8c.1.3-.1.4-.3.4l-1.4.5c-1 .4-1 .4-1.4-.7 0-.5-.4-1-.3-1.2.3-.5.9-.5 1.2-.7Zm4.3 10.6-1.9.6c-.3.1-.4 0-.6-.2-.1-.6-.2-1.2-.5-1.8-.1-.3 0-.4.3-.5l2.1-.7c.2 0 .4 0 .5.3l.4 1.6c.1.4 0 .7-.3.7Zm-5.8-16.7c-.3 0-.7.3-1 .4-.3.1-.4 0-.5-.3l-.5-1.6c-.1-.3 0-.5.3-.7l1.2-.5c1.1-.4 1.1-.4 1.4.8.3 1.3.3 1.3-.9 1.9Zm4.5 20.6.3-.1 2-.7c.2 0 .3.2.4.4.3.5.4 1.2.6 1.7l-.2.5-2.2.5c-.1 0-.4 0-.3-.2-.3-.5-.4-1.2-.6-1.7-.1 0 0-.2 0-.4ZM1698 388l1.2-.4c.3-.2.5-.1.5.2l.5 1.8c.2.3 0 .5-.2.5-.5.2-1 .2-1.3.4-1.2.4-1.2.4-1.5-.8-.4-1.3-.4-1.3.8-1.7Zm2.9 4.8-2.3.7c-.2 0-.3 0-.4-.3l-.6-1.7c-.1-.3 0-.5.3-.5.7-.2 1.3-.5 2-.6.3-.2.4 0 .5.4l.4 1.6c.2.2 0 .4 0 .4Zm-4.5-10.6 1-.3c.4-.1.5 0 .6.3 0 .5.2 1.1.4 1.6.2.3 0 .5-.2.5l-1.3.4c-1.4.5-1.1.5-1.4-.7-.4-1.3-.4-1.3 1-1.8Zm-6 29-.6-2.4.2-.3c.7-.2 1.3-.4 2-.4l.4.1c.1.7.3 1.4.6 2 .1.3 0 .5-.3.6l-1.8.4h-.4Zm3.6-37.6c.3 0 .7-.3 1-.4.2 0 .5 0 .5.2 0 .5.2 1.1.5 1.7.1.3 0 .5-.2.6l-1.3.6c-1.3.4-1 .5-1.3-.7-.5-1.4-.5-1.4.8-2Zm5.4 23.1c1-.2 1.6-.4 2.2-.7.3 0 .5 0 .5.3l.5 1.7c0 .3-.1.4-.3.5-.7.1-1.5.3-2 .6-.3.1-.4 0-.6-.3 0-.5-.3-1-.5-1.7l.2-.4Zm1.7 5.8 2.2-.6c.2-.1.4-.1.5.2 0 .6.3 1.1.5 1.8.1.3 0 .4-.3.5l-2 .5c-.3.1-.5 0-.6-.3l-.5-1.7c0-.2 0-.4.2-.4Zm-7.8-19.5-.9.2c-.2.1-.3 0-.4-.1l-.5-1.8c-.1-.2 0-.4.3-.5l1.2-.4c1-.5 1-.5 1.5.7.2 1.4.2 1.4-1.2 1.9Zm1 3.2c.2-.2.7-.2 1-.4.3-.1.4 0 .5.3l.5 1.6c0 .4 0 .5-.3.6l-1.9.7c-.2.1-.3 0-.5-.2 0-.6-.3-1.1-.5-1.8-.1-.3 0-.4.3-.5.1-.2.5-.2.8-.3Zm-2.5-8.5 1-.4c.3-.2.4-.1.5.3 0 .5.2 1 .5 1.7 0 .2 0 .4-.3.5-.4.2-.8.4-1.2.4-1.1.4-1.1.4-1.4-.8-.4-1.2-.4-1.2.8-1.7Zm5.7 19.3-1.1.3c-.3.2-.5.1-.5-.3l-.5-1.7c0-.1 0-.4.2-.5l1.1-.3c1.2-.4 1.2-.4 1.5.8.6 1.4.6 1.4-.7 1.7Zm-.2-5.5.5 2c0 .1 0 .4-.2.3l-2 .7c-.3 0-.4 0-.5-.2l-.5-1.7.1-.5c.6-.3 1.3-.4 2-.6h.6Zm-7.9 17.3.7 2.3s-.1.3-.3.3l-1.7.5c-.2.1-.3 0-.5-.2-.1-.7-.3-1.4-.6-2 0-.2 0-.4.3-.5l1.7-.5c.2 0 .3.1.4 0Zm10.3-8.9.5 2c0 .2 0 .3-.2.4-.6.2-1.3.5-2 .5-.2 0-.3 0-.4-.2l-.5-1.7c-.1-.3 0-.4.2-.5l2-.6.4.1Zm-3.2-11.3c.2.8.5 1.3.5 2 0 .1 0 .4-.2.5l-2 .7c-.3.2-.3 0-.4-.3l-.6-1.7.2-.5c.7-.3 1.4-.4 2.2-.6h.3Zm-2.2-2.8-1 .3c-.4.1-.4 0-.6-.3l-.5-1.7c0-.2 0-.4.3-.5l1.3-.4c1.3-.5 1-.6 1.4.7.3 1.3.3 1.3-1 1.9Zm-3.3-11s0 .1 0 0l1-.3c.4-.1.4 0 .5.3l.5 1.6c.2.3 0 .5-.2.6l-2 .7c-.2.2-.4.1-.4-.3-.1-.5-.4-1-.5-1.7-.1-.2 0-.4.3-.5l.8-.4Zm8.4 24.7-2.2.6s-.4-.1-.3-.3c-.3-.6-.4-1.2-.5-1.7 0-.1 0-.3.2-.4l2-.6c.1 0 .4 0 .5.2l.5 1.7-.2.5Zm1.1 3.3.5 2-.2.4-2 .5c-.3.1-.4 0-.6-.3l-.5-1.7c0-.2 0-.4.2-.5l2-.5.6.1Zm-15.7 9.7-.6-2c-.2-.4-.1-.5.3-.5l1.6-.5c.3-.1.4 0 .5.3l.6 2c0 .1 0 .3-.2.4l-1.8.4h-.4Zm4.9-30.9 1-.4c.2-.1.3 0 .4.1l.6 1.8-.2.4c-.4.2-.8.4-1.2.4-1 .4-1 .4-1.4-.7-.5-1.2-.5-1.2.8-1.6Zm7.4 21.6-2.2.6s-.3-.1-.4-.4l-.4-1.6c-.2-.3 0-.4.3-.5.6-.2 1.3-.3 1.9-.6.2 0 .3 0 .4.2l.5 1.7v.6Zm-4.6-7.3 2.1-.7c.2 0 .4.1.4.4.2.5.4 1 .5 1.7.1.2 0 .4-.2.5l-2 .6s-.4 0-.4-.2l-.5-1.7v-.6Zm-3.7-17 1-.4c.4-.2.4-.1.6.3 0 .4.2.8.3 1 .3 1 .4 1-.6 1.2l-.7.3c-1.1.5-1.1.5-1.4-.7-.5-1.3-.5-1.3.8-1.7Zm2.5 8.3.9-.4c.3-.1.4 0 .5.3 0 .6.3 1.2.5 1.7.1.4 0 .4-.3.5-.3.2-.8.2-1 .4-1.2.4-1.2.4-1.5-.9-.4-1.2-.4-1.2 1-1.6Zm.5 6 2.1-.7c.1 0 .4 0 .5.2l.5 1.8c0 .1 0 .3-.2.3-.7.4-1.4.5-2.1.7-.1 0-.3 0-.4-.2l-.5-1.7v-.4Zm-1.4-8.7 1.1-.4c.3-.1.3 0 .5.3l.5 1.8c.1.2 0 .3-.3.5l-1.3.4c-1 .3-1 .3-1.2-.7-.5-1.5-.5-1.5.7-2Zm.8 5.8 1.7-.6c.3-.1.4 0 .5.3.1.5.4 1 .5 1.7.1.2 0 .4-.2.5l-2 .6c-.3.1-.5 0-.5-.3l-.3-1.3c-.1-.6-.2-1 .3-.9ZM1688 376c.3 0 .6-.2 1-.4.3-.1.4 0 .5.2l.5 1.7c0 .2 0 .4-.3.5l-1.2.6c-1 .4-1 .4-1.3-.7-.4-1.5-.4-1.5.8-1.9Zm5.5 22.5c.7-.2 1.3-.5 2-.6.2-.1.3 0 .5.3 0 .5.3 1 .5 1.7 0 .2 0 .4-.3.5l-2 .6c-.3.1-.4 0-.4-.3l-.5-1.5c-.1-.4-.1-.7.2-.7Zm1.5 5.5 2.2-.6.3.3.5 1.7c.1.2 0 .4-.3.5l-2 .5s-.3 0-.4-.3c-.3-.5-.4-1-.5-1.7l.2-.4Zm-8.3-21.3 1-.5c.3 0 .4 0 .5.3l.5 1.6c.2.3.1.5-.3.5l-1.7.7c-.3.1-.5 0-.5-.3l-.4-1.3c-.1-.7-.1-.7.5-1 0 .1.2 0 .4 0Zm3 14 2-.7c.3 0 .4 0 .5.3l.5 1.7c.1.3 0 .4-.3.5l-1.8.5c-.3.2-.5.1-.5-.3l-.5-1.6c-.1 0 0-.3 0-.4Zm-2-8.4 1.5-.5c.2-.1.5-.1.5.1 0 .6.3 1.2.5 1.8l-.2.4-1.9.7c-.3.2-.3 0-.5-.3l-.3-1.3c-.2-.7-.2-.7.3-.9Zm-1-6h-.2c-1 .4-1 .4-1.4-.7-.4-1.1-.4-1.1.8-1.7l.3-.1c1-.5 1-.5 1.4.7.3 1.3.3 1.3-.9 1.8Zm7 19.3.5 1.9-.1.4-2 .6c-.2.1-.3 0-.5-.3 0-.5-.3-1-.5-1.7 0-.1 0-.4.2-.5a12 12 0 0 1 2-.6c0 .1.3.3.4.2Zm-3.8-8.3c-.3 0-.7.1-1 .3-.3 0-.5 0-.6-.4l-.4-1.5c-.1-.2 0-.4.2-.5l1.4-.5c1-.3 1-.4 1.2.6v.2c.5 1.3.5 1.3-.8 1.8Zm1.8 2.4-2 .6c-.3.1-.4 0-.5-.2l-.5-1.7c-.1-.2 0-.3.3-.5l1.8-.5c.3-.2.5-.1.5.2l.5 1.7-.1.4Zm-4.2-10.3 1-.3c.2-.1.4 0 .5.2l.5 1.7c0 .1 0 .4-.2.5-.4.1-.7.3-1.1.3-1.2.4-1.2.4-1.5-.7-.4-1.3-.4-1.3.8-1.7Zm-2.3-8.3c.3 0 .6-.2 1-.4.2 0 .4 0 .5.2 0 .5.3 1 .4 1.6.1.2.1.5-.2.5l-1.2.5c-1 .5-1 .5-1.2-.7-.5-1.1-.5-1.1.7-1.7Zm8 24.1-2 .6c-.2.1-.4 0-.5-.2l-.4-1.6c-.1-.3 0-.4.3-.5l1.8-.5c.3-.2.4-.1.5.3l.5 1.6-.2.3Zm1.7 5.5-2 .5c-.3 0-.5 0-.6-.3l-.5-1.6c0-.1.1-.4.3-.4l1.9-.6c.2 0 .4 0 .5.3l.5 1.7s-.2.3-.1.4Zm-12.6 6.6-.7-2.3c0-.2 0-.4.2-.5l1.6-.4c.2-.1.4 0 .5.2.2.7.5 1.3.5 2l-.1.5-2 .5Zm1.5-29.6.3-.1c1-.3 1-.3 1.2.5 0 .5.5 1 .3 1.3-.2.3-.8.4-1.2.6-1.2.4-1.2.4-1.4-.7-.3-1.1-.3-1.1.8-1.6Zm1.6 5.5c.3-.2.7-.2 1-.3.3-.2.4-.1.6.2l.4 1.5c.1.3 0 .5-.3.5-.3.2-.6.3-1 .3-1.1.4-1.1.4-1.4-.8-.5-1-.5-1 .7-1.4Zm1.2 8.5 2.2-.8.4.3.5 1.7c0 .1 0 .4-.2.5l-1.8.5c-.1 0-.4 0-.4-.2l-.7-2Zm-2.8-14.4a4 4 0 0 1-1 .3c-.1 0-.4 0-.4-.2l-.5-1.7c0-.1 0-.4.2-.5l1-.4c1.1-.5 1.1-.5 1.5.7.4 1.4.4 1.4-.8 1.8Zm4.5 19.7 2-.7.5.2.5 1.8s0 .4-.2.4c-.6.3-1.3.5-2 .6l-.3-.2-.5-1.8v-.3Zm-2.6-11 1.5-.5c.3-.1.4 0 .5.3 0 .5.3 1 .4 1.6.2.3 0 .4-.2.5-.6.1-1.2.4-1.7.6-.3.2-.4 0-.5-.3 0-.4-.3-.8-.4-1.3-.2-.6-.2-.6.4-.9Zm-1.1-5.6.4-.2c1-.3.8-.3 1.1.7.4 1.4.4 1.4-1 1.9-1 .3-1 .3-1.4-.8-.2-1-.2-1 .9-1.6Zm-2.3-8.1.8-.4c.3 0 .5 0 .6.3 0 .4.3 1 .4 1.4.1.3 0 .5-.4.7-.3 0-.6.2-1 .4-1 .4-1 .4-1.4-.6-.2-1.3-.2-1.3 1-1.8Zm8 23.8-1.9.6c-.3.1-.4 0-.5-.3l-.4-1.5c-.1-.2 0-.5.3-.5l1.7-.5c.3-.2.5-.1.5.3l.4 1.5v.4Zm-4-7.2c.5-.3 1-.4 1.6-.6.3-.2.4-.1.5.2l.4 1.6c.2.3 0 .4-.3.5l-1.8.5c-.3.2-.4 0-.5-.3 0-.4-.3-1-.4-1.4 0-.2 0-.5.4-.5Zm5.2 10.4.5 1.7c.2.4 0 .6-.4.6l-1.7.5c-.3.1-.5 0-.5-.3l-.5-1.6c0-.2 0-.4.3-.5l1.8-.5.5.1Zm-10.4-20.4 1-.4c.2-.2.3 0 .4.1 0 .5.2 1 .4 1.5.1.6.1.6-.5.8l-.8.3c-1 .4-1 .4-1.4-.7-.3-1.2-.3-1.2 1-1.6Zm1.6 5.2.3-.1c1-.3 1-.3 1.3.7 0 .4.4.9.2 1.2 0 .3-.7.5-1.2.5-1.2.4-1.2.4-1.4-.7-.4-1.2-.4-1.2.8-1.6Zm1.3 8.4 2-.6c.3 0 .3 0 .5.3 0 .6.3 1.1.4 1.7l-.1.4c-.7.3-1.2.4-1.8.5-.2.1-.3 0-.5-.3 0-.5-.3-1-.4-1.6-.2-.2-.2-.3 0-.4Zm3.8 4.8.6 1.9-.2.3-1.9.6c-.2 0-.3 0-.4-.2-.1-.6-.4-1-.5-1.7 0 0 0-.4.2-.4l1.8-.6.4.1Zm-7.4-21.2.8-.4c.3-.1.5 0 .5.3l.5 1.7c0 .2 0 .3-.3.4l-1.7.7c-.3.1-.5 0-.5-.3 0-.5-.2-.8-.3-1.3-.1-.6-.1-.6.5-.9l.5-.2Zm3 13.6c.7-.1 1.2-.4 1.7-.6.3-.1.5 0 .5.3l.5 1.6c0 .2 0 .4-.3.5l-1.8.5c-.3.2-.4.1-.4-.2l-.4-1.5c-.2-.3-.1-.4.2-.6Zm-2.6-16.9.6 2.2-.2.4-1.8.6-.5-.1-.4-1.7v-.4l2.3-1Zm1 8.7 1-.4c.2-.1.4 0 .5.2 0 .5.3 1 .4 1.6l-.1.5-1.1.3c-1 .3-1 .3-1.4-.6-.4-1.2-.4-1.2.8-1.6Zm3.4 7.3-2 .6c-.2.1-.3 0-.4-.3l-.5-1.6c-.1-.3 0-.4.3-.5l1.7-.6c.2-.1.3 0 .4.2l.5 1.6v.6Zm1.8 5.9.6 1.8-.2.4c-.6.3-1.3.4-2 .6l-.3-.2-.5-1.8.2-.3 1.8-.6h.4Zm1.7 5.3.5 1.9-.2.3-1.8.6c-.1 0-.4 0-.5-.2l-.5-1.6c0-.1.1-.4.3-.4l1.8-.5c0-.2.2 0 .4 0Zm-10.4-20.2h.3c1-.4 1-.4 1.3.6.4 1.2.4 1.2-.8 1.7-1.2.4-1.2.4-1.5-.7-.4-1.2-.4-1.2.8-1.6Zm1.6 5.3.3-.2c1-.3.9-.5 1.3.7.2.4.4 1 .3 1.2-.2.4-.8.4-1.3.6-1 .3-1 .3-1.4-.8-.3-1-.3-1 .8-1.5Zm3.8 10-1.6.5c-.3.2-.5.1-.5-.3l-.4-1.5c-.1-.2 0-.4.1-.4l1.8-.6c.3 0 .3 0 .5.3l.3 1.5c.3.2.2.5-.2.6Zm-.5 5.7c-.1-.7-.4-1.2-.5-1.7 0-.2 0-.4.2-.5l1.7-.5c.2 0 .4 0 .5.3l.5 1.6c0 .2 0 .4-.3.4l-1.8.5-.3-.1Zm-5.6-23.6.3-.1c1-.5.8-.5 1.2.5.3 1.4.3 1.4-.9 2-1 .4-1 .4-1.4-.8-.3-1.3-.3-1.3.8-1.6Zm5.5 15.2-1.8.6c-.2 0-.4 0-.5-.3l-.4-1.5c-.2-.3-.1-.5.2-.6.6-.1 1-.4 1.7-.6.2-.1.3 0 .5.2l.5 1.7-.2.5Zm-1.6-2.3c-.3.1-.6 0-.9.2-.3.2-.4.1-.6-.2 0-.5-.3-1-.4-1.4-.1-.4 0-.5.3-.5l1.7-.7c.3 0 .5 0 .5.3l.2.8c.4 1 .4 1-.8 1.5Zm-3-7.4 1.5-.5c.3-.1.5 0 .5.3l.4 1.5c.1.2 0 .4-.3.5l-1.6.6c-.3.1-.4 0-.5-.3l-.4-1.4c0-.4 0-.6.4-.7Zm-1.7-8.1 1-.4s.3 0 .3.2l.4 1.6-.1.5-1 .4c-1.1.5-1.1.5-1.5-.6-.2-1.4-.2-1.4.9-1.7Zm5.2 21.4 2-.6.4.2.5 1.6c0 .3 0 .4-.3.5l-1.8.6c-.1 0-.3 0-.4-.3l-.5-1.6.1-.4Zm3.8 4.9.6 1.8s-.1.4-.3.3l-1.7.5c-.2 0-.4 0-.5-.3l-.4-1.5c0-.1 0-.4.2-.4l1.7-.5.4.1Zm-10.5-17.4-.5-2.1c0-.1 0-.3.2-.4l1.7-.6c.2 0 .3 0 .4.2.1.6.4 1 .5 1.7 0 0 0 .4-.2.4l-2 .8Zm1.6 5.2-.6-2c-.1-.1 0-.3.1-.4l1.6-.5c.3-.2.5-.1.5.3l.5 1.6c0 .1 0 .4-.2.4l-2 .6Zm-2.4-7.8-.5-2 .2-.4 1.6-.6c.3-.2.4-.1.5.2 0 .6.3 1.1.4 1.6 0 0 0 .4-.2.4l-2 .8Zm1.6 5.2-.7-2 .3-.4c.5-.2 1-.5 1.6-.6.1 0 .4 0 .5.2l.5 1.7-.1.3-2.1.8Zm1.6 5.6 2-.6.4.2.4 1.7c.1.2 0 .3-.2.4-.7.2-1.3.5-2 .6l-.6-2.3Zm-3.5-16.1.3-.2c1-.4 1-.4 1.2.6.3 1.4.3 1.4-.8 1.8-1 .4-1 .4-1.4-.8-.3-1-.3-1 .7-1.4Zm3.3 15.7-.6-2 .2-.3 1.7-.6c.2 0 .4 0 .4.2l.5 1.6c0 .1 0 .4-.2.5l-2 .6Zm3 10.4c0-.7-.4-1.4-.6-2l.1-.3 1.8-.6.3.3.5 1.6c0 .1 0 .4-.2.4l-1.8.6Zm.3.4 2-.5.4.2.5 1.7-.3.3-2 .5c-.3-.7-.4-1.4-.6-2.2ZM1701.2 365.8l-10-36.5-1.8 1-6 3-9.8 5.2-8.3 4.4-2.9 1.5c-.3.1-.3.2-.2.6l2.6 9.1 3.2 10.9 2.9 10 .8 3 29.5-12.2Zm-30.5-3 .5 2c0 .1 0 .4-.2.5l-1.5.6-.3.3.1.2 2.2-1a68.5 68.5 0 0 1 .4 2.4l-2.2 1-1.4-5 2.4-1Zm27 4-.7-2.8 2.8-1.3c.4 1 .5 2 .8 2.9l-2.9 1.2Zm-3.9-1.6 2.7-1.1.8 2.8-2.7 1.2a27 27 0 0 0-.8-2.9Zm-4.2-28.1-.7-2.4.1-.3 2.7-1.5.7 2.4-.2.4-2.6 1.4Zm2 32.1c0-.6-.2-1.3-.5-2-.3-.9-.3-.9.7-1.2l1.7-.7.8 2.8-2.6 1.1Zm1-33.2.7 2.4c0 .1 0 .3-.2.3-.8.5-1.8 1-2.7 1.3l-.7-2.6c1-.4 1.9-.8 2.9-1.4Zm-1.4 6.9-.7-2.3.3-.4 1.8-.9.7-.3.6 2.3c0 .1 0 .4-.2.4l-2.5 1.2Zm-2.4-8.8c-.2-.9-.5-1.7-.6-2.7l2.8-1.5.7 2.3-.2.5-2.7 1.4Zm5.5 8 .6 2.3-.1.3-2.7 1.2-.6-2.3.1-.3 2.7-1.2Zm2.4 8.9.6 2.3-.1.3-2.8 1.2-.7-2.5 3-1.3Zm-1.6-6 .6 2.4-.1.3-2.7 1.1-.6-2.3.2-.3 2.6-1.1Zm.8 3 .6 2.6-2.9 1.2-.6-2.3.1-.3 2.8-1.2Zm1.5 5.9.4 1.3c.3 1.2.3 1.2-.9 1.7l-1.7.8-.7-2.3.2-.3 2.7-1.2Zm.8 3 .7 2.2-.1.3-2.7 1.2-.7-2.5 2.8-1.3Zm-10.2 10.8 2.5-1.1.7 2.7-2.5 1.1-.7-2.7Zm11-8c.2.7.3 1.3.6 1.8.2 1 .3.7-.5 1l-2.2 1a60 60 0 0 1-.6-2.3s0-.3.2-.3l2.5-1.1Zm-14 9.1 2.6-1.1c.3 1 .6 1.8.7 2.8l-2.5 1-.8-2.7Zm3.6-34.1.7 2.4s-.1.3-.3.3l-.8.5-1.5.8-.7-2.3.3-.3c.7-.6 1.4-1 2.3-1.4Zm.8 3 .7 2.3-.1.3-2.6 1.3-.7-2.4.3-.4 2.4-1.2Zm-1.6-6a60 60 0 0 1 .5 2.6l-2.5 1.3-.7-2.4.3-.3 2.4-1.2Zm2.4 8.9.6 2.3v.3l-2.7 1.1-.5-2.2s0-.3.2-.3l2.4-1.2Zm1.1 15.5-.6-2.3.1-.2 2.6-1.2.6 2.3v.3l-2.7 1.1Zm.5-9.5.6 2.2v.4l-2.6 1.1a141.6 141.6 0 0 1-.5-2.5l2.5-1.2Zm-.8-3 .6 2.3v.4l-2.6 1-.7-2.4 2.7-1.2Zm-8 29.2c-.4-1-.6-2-.8-2.9l2.5-1 .7 2.5-.2.3-2.2 1Zm1.8-39.5.6 2.3v.3l-2.6 1.3a103.4 103.4 0 0 1-.5-2.7l2.5-1.2Zm1.6 5.9a199.2 199.2 0 0 1 .6 2.7l-2.6 1.2a194 194 0 0 1-.5-2.7l2.5-1.2Zm-2.8 1a196.4 196.4 0 0 0-.5-2.7l2.5-1.4a104.9 104.9 0 0 1 .5 2.7l-2.5 1.3Zm9 9.4a196.4 196.4 0 0 0 .6 2.6l-2.6 1-.7-2.4 2.7-1.2Zm-7.4-3.7-.6-2.2v-.3l2.6-1.3.6 2.3v.3l-2.6 1.2Zm10.6 15.2a103.4 103.4 0 0 1 .6 2.6l-2.5 1.1a58.2 58.2 0 0 1-.5-2.6l2.4-1.1Zm-10.5-14.8 2.7-1.2.6 2.2-.1.3-2.6 1.1c0-.7-.3-1.6-.6-2.4Zm3.5 1.8a81.7 81.7 0 0 1 .5 2.5l-2.6 1a81.8 81.8 0 0 1-.5-2.4l2.6-1.1Zm5.4 7.3.6 2.3v.3l-2.6 1.1-.7-2.3.2-.3 2.5-1.1Zm-4.6-4.5.6 2.3-.1.3-2.5 1-.7-2.4 2.7-1.2Zm-7.7 19.2.7 2.5v.3l-2.4.8-.8-2.7c.9-.2 1.6-.5 2.5-1Zm11.1-8.2-.3-1.2c-.3-1.3-.3-1.3.9-1.7l1.5-.7.7 2.5-2.8 1.1Zm-4.6-4.5-.6-2.2v-.3l2.5-1.1.6 2.2-.1.3-2.4 1.1Zm-5.8-19.6.6 2.3v.3l-2.5 1.3-.6-2.3.1-.3c.8-.5 1.5-1 2.4-1.3Zm-.8-3 .6 2.3v.3l-2.5 1.3-.7-2.5 2.6-1.4Zm-4.3 40.2-.9-2.8 2.4-1 .8 2.7-2.3 1Zm4-30.5a7140.7 7140.7 0 0 1-.5-2.6 22 22 0 0 1 2.4-1.2l.6 2.3v.3l-2.5 1.2Zm7.7 15.9-.7-2.3c0-.1 0-.2.2-.3l2.4-1a196.4 196.4 0 0 1 .5 2.5l-2.4 1.1Zm1.6 5.7-.7-2.5 2.6-1.2.7 2.3-.1.3-2.5 1Zm-6.6-22.5.6 2.3-.1.3-2.4 1-.6-2.2.1-.3 2.4-1.1Zm7.8 16a196.4 196.4 0 0 1 .5 2.5l-2.5 1.1-.7-2.5 2.7-1.2Zm-7-13 .6 2.2-.1.3-2.5 1.1-.6-2.2s.1-.3.3-.3c.7-.5 1.5-.7 2.3-1Zm.9 2.9.6 2.4-2.5 1-.7-2.2c0-.1 0-.3.2-.3.7-.2 1.5-.5 2.4-1Zm-8.8-9.3v-.1l-.5-1.5c-.2-.8-.2-.8.6-1.3l1.8-.9.6 2.3-.2.4-2.3 1.1Zm7.5 15.7-.6-2.3.1-.3 2.5-1a144.7 144.7 0 0 1 .5 2.4c-.8.5-1.6.8-2.5 1.2Zm-4.9-16.6.7 2.3-.1.4-2.4 1.2-.6-2.2c0-.1 0-.3.2-.5.6-.4 1.4-.9 2.2-1.2Zm.8 2.8.6 2.3-.1.3-2.3 1.2-.7-2.3.3-.4 2.2-1Zm4.9 16.6-.6-2.3v-.3l2.5-1a81.7 81.7 0 0 1 .5 2.5c-.7.5-1.5.7-2.4 1.1Zm-4.2-13.7.7 2.3-.1.3-2.4 1-.6-2.2.2-.3c.7-.3 1.5-.6 2.2-1.1Zm7 13 .6 2.4-2.5 1.2-.7-2.4 2.6-1.2Zm1.6 5.7.6 2.3-.1.3-2.4 1-.6-2.3.1-.3 2.4-1ZM1677 375l-2.4 1-.7-2.5.1-.3 2.2-.8.8 2.6Zm4.7-17.8-.6-2.2.1-.2 2.4-1 .6 2.1v.4l-2.5 1Zm-1.6-5.6-.7-2.4 2.6-1.1.6 2.2-.1.2-2.4 1Zm3.2 11.3-.6-2.3.1-.3 2.5-1 .6 2.1c0 .1 0 .3-.2.3l-2.4 1.2Zm3.6 1.5-.6-2.2.1-.3 2.5-1 .7 2.4-2.7 1.1Zm-2.8 1.3-.6-2.2v-.3l2.4-1 .7 2.3-2.5 1.2Zm-3.2-11.3-.7-2.4 2.5-1 .7 2.3-2.5 1.1Zm-5-16.5.7 2.3-.1.3-2.3 1.3a54.6 54.6 0 0 1-.5-2.5l2.3-1.4Zm.8 2.9.7 2.3s0 .2-.2.3c-.7.4-1.4.8-2.3 1.1l-.5-2.2.1-.4 2.2-1.1Zm-.9 6.5-.6-2.2.1-.3 2.3-1a141.6 141.6 0 0 1 .5 2.4l-2.3 1.1Zm8.5 9.2.4 1.4c.3 1 .3 1-.6 1.4l-1.7.7-.6-2.2.2-.4 2.3-1Zm-6-10 .7 2.3-.1.2-2.4 1-.6-2.1.1-.3c.9-.4 1.5-.8 2.4-1.1Zm3.2 11.3.6 2.2-.1.3-2.4 1-.6-2.1.1-.3 2.4-1Zm.8 2.7.6 2.2-.1.3-2.3 1a144.7 144.7 0 0 1-.5-2.5l2.3-1Zm-10.2 16.6a78.6 78.6 0 0 1-.6-2.8l2.1-.9a118.1 118.1 0 0 1 .6 2.8l-2.1 1Zm12-11 2.6-1.1.7 2.4-2.6 1.1-.7-2.4Zm-5-16.7.7 2.4-2.5 1.1-.6-2.2.1-.3 2.4-1Zm2.2 17.5-.6-2.2.1-.3 2.4-1 .5 2.1v.3l-2.4 1Zm-3.2-11.2-.6-2.1c0-.2 0-.3.2-.3l2.3-1 .6 2-.3.4c-.6.4-1.4.7-2.2 1Zm3.9 14-.7-2.5 2.5-1 .6 2.3-2.4 1.1Zm-10.6-26.6-.6-2.3v-.3c.8-.4 1.6-.7 2.3-1.2a141.6 141.6 0 0 1 .5 2.5c-.7.5-1.4 1-2.2 1.3Zm2.5-.8.7 2.2-.1.3c-.7.5-1.5.8-2.3 1.2a55 55 0 0 1-.5-2.5c.8-.5 1.4-.9 2.3-1.2Zm-1 6.4c-.1-.8-.3-1.5-.6-2.3l.1-.3c.7-.4 1.5-.8 2.4-1.1l.6 2.3-.1.3-2.3 1Zm.9 2.7c0-.5-.3-.9-.4-1.3-.3-1-.3-1 .7-1.6l1.5-.7.6 2.2s0 .4-.2.4l-2.2 1Zm5.6 10.4.6 2.2-.1.3-2.3 1-.6-2.4 2.4-1.1Zm-1.2-5.7 2.5-1.1.6 2.2-.1.3-2.4 1-.6-2.4Zm.5 3 .7 2.3-2.5 1.1-.6-2.2s0-.2.2-.3l2.2-1Zm-2.4-8.3.6 2-.1.4-2.4 1-.7-2.4 2.6-1Zm-1.6 3.8 2.4-1.1.6 2v.5l-2.3 1-.7-2.4Zm.7 2.8 2.5-1 .6 2.1-.1.3-2.3 1-.7-2.4Zm-5.9-10.2-.6-2.3.1-.2c.7-.5 1.5-.8 2.2-1.2l.6 2.2-.1.3c-.7.6-1.5 1-2.2 1.2Zm-.8-2.7-.6-2.2.1-.3 2.2-1.1.6 2.2-.1.2c-.7.5-1.4.8-2.2 1.2Zm1.6 5.6a144.7 144.7 0 0 1-.5-2.5l2.2-1a144.7 144.7 0 0 1 .5 2.4l-2.2 1.1Zm6.4 12.9a67.7 67.7 0 0 1 .4 2.4l-2.3 1-.5-2.1.2-.4 2.2-.9Zm-3.2-11.4-2.4 1.1-.6-2 .1-.4 2.2-1 .7 2.3Zm-.9 6.7-.5-2.1.1-.3 2.3-1 .6 2.3-2.5 1Zm-1.5-5.1 2.5-1.1a122.2 122.2 0 0 0 .5 2.5l-2.3 1-.7-2.4Zm7.4 14.9-.7-2.4 2.5-1 .6 2.1-.2.3-2.2 1Zm0 .3 2.5-1 .6 2.3-2.4 1-.7-2.3Zm-5-7.4-.6-2.1.1-.3 2.3-1 .5 2c0 .2 0 .5-.2.5l-2.2.9Zm-5-16c.3.7.4 1.4.6 2.2v.4l-2.3 1-.5-2.1v-.3l2.3-1.2Zm-.8 6.4-.6-2.2v-.3l2.3-1.1.6 2.2-.1.3c-.7.3-1.5.8-2.2 1Zm8.3 8.9.5 2-.1.3-2.3 1-.5-2c0-.2 0-.4.2-.4l2.1-1Zm-8.3-18 .6 2.2v.3l-2.3 1.2-.5-2.2v-.3l2.2-1.2Zm8 26.9a144.7 144.7 0 0 1-.5-2.5l2.3-1 .6 2.2-.2.3-2.2 1Zm-5.6-18.7.6 2.2-.1.3-2.3 1-.5-2 .1-.4 2.2-1Zm6.4 21.4-.7-2.4 2.4-1 .5 2-.1.5-2 .9Zm-5.6-18.5.5 2v.4l-2.3 1-.6-2.1.1-.3 2.3-1Zm-.2 8.9-.5-2.1v-.3l2.3-1 .5 2.3v.2l-2.3.9Zm.8 2.6-.5-2.1v-.3l2.3-1 .7 2.3-2.5 1Zm-2.2-7.8 2.4-1 .6 2.3-2.3 1-.7-2.3Zm6.2 12.5a67.7 67.7 0 0 1 .5 2.4l-2.2 1-.7-2.4 2.4-1Zm-9.6-23.2.6 2.2s0 .2-.2.3l-2 1a144.7 144.7 0 0 1-.5-2.5l2-1Zm.8 2.7.6 2.2v.2c-.7.5-1.4.8-2.3 1.1l-.5-2 .1-.4c.6-.3 1.3-.6 2-1.1Zm6.3 21.2-.5-2v-.3l2.3-1 .6 2.3-2.4 1Zm-7.8-26.7.5 2.2v.3c-.8.4-1.5.8-2.2 1l-.5-2v-.3l2.2-1.2Zm2.2 8.3.6 2.1-.1.3-2.2 1a68.5 68.5 0 0 0-.4-2.4l2-1Zm2.3 7.8-2.4 1-.5-2 .1-.4 2.2-1 .6 2.4Zm-.8-2.7-2.4 1-.5-2.1.1-.3 2.1-1 .7 2.4Zm.9 3.1.6 2.3-2.3 1-.7-2.2 2.4-1Zm2.5 7.5-.6-2.2.1-.3 2.3-1 .5 2.1v.3l-2.3 1.1Zm-1.9 3.8-.6-2.3 2.3-1 .7 2.2-2.4 1Zm2.4-.7.6 2.3-2.3 1-.6-2 .2-.4 2.1-1ZM1679.5 454.6l-.3.3-11.2 15.7v.5l10.8 15.9 11.4 16.7s0 .2.2.2l.3-.2 12.5-14.4c.2-.2.2-.3 0-.5l-7.9-11.3-15.7-22.8Zm1.6 34.8 1-1.3 1.5 2.3v.2a3 3 0 0 1-.6.8c-.2.2-.3.3 0 .4l1-1.1c.6.7 1 1.5 1.5 2.2v.2l-1 1.2-.2-.2-2-3-1.2-1.7c-.6-.9-1-1.7-1.7-2.5v-.2l.9-1.2c.4.7.9 1.2 1.3 2 .4.5.4.3 0 1l-.4.3c-.2 0-.3.4-.1.6Zm18.5-1.8 2 2.7v.2l-1.1 1.2-2-2.7v-.2l1.1-1.2Zm-1.3 1.4 2 2.7v.3l-1.1 1.2-2-2.8v-.2l1.1-1.2Zm-.4 5.6s-.1 0 0 0a181.7 181.7 0 0 0-1.8-2.9l1-1.2 2 2.7v.3l-1.2 1Zm3-8.5 2 2.7v.3l-1 1.2-2-2.7v-.3l1-1.2Zm-4.3 10-1.9-2.7v-.3l1.1-1.2 2 2.8v.2l-1.2 1.1Zm-1.3 1.4-1.8-2.7v-.3l1-1.1c.6 1 1.3 1.8 1.9 2.6v.3l-1.1 1.2Zm-2-2.7c.6.8 1.2 1.7 1.7 2.7 0 0 .1.2 0 .2l-1 1.2-1.7-2.7v-.3l1-1.1Zm-.5 5.5-1.7-2.7v-.3l1-1.1 1.7 2.7v.2l-1 1.2Zm-2-2.7 1.8 2.7v.2l-1 1.2-1.7-2.6v-.3c.3-.5.5-.8 1-1.2Zm-1.2 1.4 1.8 2.7v.2l-1 1.2-1.8-2.7v-.3l1-1.1Zm6-17.1c.7.7 1.1 1.5 1.7 2.3v.3l-1 1.2-1.7-2.4v-.2c.5-.5.8-.7 1-1.2Zm2 2.8 1.7 2.3v.2l-1.1 1.2-1.7-2.3v-.3l1.2-1Zm-5.8-8.4c0 .1.1 0 0 0l1.6 2.3v.2c-.3.4-.8.8-1 1.3l-1.6-2.2v-.3l1-1.3Zm2.5 6.7-1.6-2.3v-.3l1.1-1.2c.6.9 1 1.7 1.7 2.4v.3c-.5.1-.8.5-1.2 1Zm-5.7-8.5-1.6-2.3s-.1-.2 0-.2l1-1.3 1.6 2.3v.3l-1 1.2Zm2 2.8-1.7-2.2v-.3c.4-.4.7-.7 1-1.3l1.7 2.4s.1.2 0 .2c-.5.4-.8.7-1 1.2Zm3.8 6.1 1.7 2.4v.2l-1.1 1.2-1.7-2.3v-.3l1.1-1.2Zm2 2.9 1.6 2.3v.3l-1 1.2-1.7-2.4v-.2l1-1.2Zm-10.3-18.4 1.6 2.3v.3c-.4.3-.8.9-1 1.3l-1.7-2.3v-.3l1-1.3Zm4.5 9.9c.6.7 1 1.6 1.7 2.4l-.1.1-1 1.3-1.6-2.2v-.3l1-1.3Zm2.6 7.1 1.7 2.4v.2l-1.1 1.2-1.6-2.2v-.3l1-1.3Zm-8.5-15.9-1.6-2.2v-.2l1-1.4 1.5 2.3v.3l-.9 1.2Zm7.8 11.7 1.6 2.2v.3c-.3.4-.8.8-1 1.2-.7-.7-1.1-1.5-1.7-2.3v-.2c.4-.4.8-.8 1-1.2Zm-12.3-21 1.6 2.2.1.2-1 1.4-1.6-2.3v-.2l1-1.4Zm2.6 6.6-1.6-2.3s-.1-.2 0-.2l1-1.3 1.6 2.2v.3l-1 1.3Zm12.3 21.4 1.6 2.3v.2l-1.1 1.2-1.6-2.2v-.3l1-1.2Zm-3.8-5.6 1.6 2.3v.3l-1 1.2-.1-.1a20 20 0 0 1-1.5-2.2v-.3l1-1.2Zm-1.4 1-1.6-2.2v-.2c.3-.4.7-.8 1-1.4l1.7 2.4v.3c-.4.4-.7.6-1.1 1.2Zm-3.2-10.9 1.6 2.4c.1 0 .1 0 0 .2l-1 1.3-1.6-2.2v-.3l1-1.4Zm2.5 6.7-1.5-2.3s-.1-.2 0-.2l1-1.3 1.6 2.2v.3c-.3.4-.8.8-1 1.3Zm-3-1.2c-.6-.8-1-1.6-1.7-2.3v-.2c.3-.4.5-.9 1-1.3l1.6 2.2v.3l-1 1.3Zm-2.7-7.2-1.6-2.2v-.3c.4-.4.6-.9 1-1.2l1.5 2.2v.3c-.2.5-.6.8-.9 1.2Zm1.8 2.8-1.5-2.3v-.2l1-1.3 1.6 2.3v.2l-1 1.3Zm2.1 3.3 1.6 2.3v.2l-1 1.3-1.6-2.2v-.3l1-1.3Zm-9-19.7 1.5 2.3s.1.2 0 .2l-1 1.3-1.6-2.2v-.3l1-1.3Zm3.9 15.3-1.6-2.3v-.2c.3-.4.6-1 1-1.3l1.6 2.2v.3l-1 1.3Zm-2.6-7-1.6-2.3v-.3c.4-.3.6-.8 1-1.2l1.6 2.2v.3l-1 1.3Zm19.2 18.1 1.6 2.4s.1.2 0 .2a7 7 0 0 1-1 1h-.1l-1.6-2.2v-.3c.5-.3.8-.7 1-1Zm-17.3-15.5-1.6-2.3v-.2l1-1.3 1.5 2.3v.2a8 8 0 0 1-.9 1.3Zm10.9 22.4-1.6-2.3s-.1-.2 0-.2l1-1.2 1.6 2.4v.2l-1 1Zm-8.8-19.1 1.5 2.3.1.2-1 1.3-1.6-2.3v-.2c.2-.5.5-.9 1-1.3Zm10.7 21.8-1.6-2.2v-.3l1-1.2 1.6 2.3v.3l-1 1.1Zm3.2-8.6c-.6-.9-1-1.7-1.7-2.4v-.3l1-1s0-.1 0 0c.6.7 1 1.5 1.7 2.2v.3l-1 1.2Zm-9 .3-1.5-2.3c0-.1-.1-.2 0-.2l1-1.2 1.6 2.3v.2l-1 1.2Zm-10.7-21.7 1.6 2.2v.2l-1.1 1.3-1.6-2.3s-.1-.2 0-.2c.5-.3.8-.7 1-1.2Zm1.9 2.7 1.6 2.3v.2c-.3.4-.6 1-1 1.3l-1.6-2.2v-.3l1-1.3Zm10.2 18 1.6 2.3v.2l-1.1 1.2-1.6-2.2v-.3c.4-.4.8-.8 1-1.2Zm-12.8-25 1.6 2.3v.2l-1 1.3-1.6-2.2v-.3l1-1.3Zm12.4 30.5 1-1.3c.7.7 1.1 1.5 1.7 2.2v.3l-1 1.1c-.7-.7-1.1-1.4-1.7-2.3Zm-2.8-7.3-1.6-2.2s-.1-.1 0-.2l1-1.3 1.6 2.3s.1.2 0 .2l-1 1.2Zm5.8 8.8 1.6 2.3v.3l-1.1 1.2-1.6-2.3v-.3l1-1.2Zm-5.7-8.2c0 .1 0 .1 0 0l1.6 2.3v.2l-1 1.2-1.6-2.3v-.2l1-1.2Zm-2-3.2-1.5-2.3v-.3a8 8 0 0 0 .9-1.2l1.6 2.2v.3a8 8 0 0 0-1 1.3Zm-8.3-15.2-1.5-2.1v-.3c.3-.4.6-.9 1-1.2l1.5 2.2v.3l-1 1.1Zm12.7 24.8-1.6-2.2v-.3l1-1.1 1.6 2.2v.3l-1 1.1Zm6.3-7.4-1.6-2.3v-.2l1-1.2 1.6 2.4v.3l-1 1Zm-15-11.5 1.5 2.2v.3l-1 1.3-1.6-2.3v-.2l1-1.3Zm2.4 6.5-1.6-2.2v-.3l1-1.3 1.6 2.3v.3a8 8 0 0 0-1 1.2Zm10-1.5c.6.8 1 1.6 1.7 2.4v.2l-1 1.2c-.6-.8-1-1.6-1.7-2.4v-.2l1-1.2Zm-3.6 14.4 1.6 2.3v.2l-1 1.2-1.6-2.3v-.2l1-1.2Zm-4.5-9.6 1.6 2.2v.2l-1 1.1-1.6-2.2v-.3l1-1Zm6.4 12.3 1.6 2.3v.3l-1 1.2c-.6-.8-1-1.6-1.7-2.3v-.3l1.1-1.2Zm-12-21.1-1.6-2.3s-.1-.2 0-.2l1-1.3 1.5 2.3v.2c-.3.5-.6 1-1 1.3Zm8.3 15.6 1.6 2.3v.2l-1 1.2-1.6-2.3v-.2c.2-.4.6-.6 1-1.2Zm-4-5.8-1.5-2.3s-.1-.2 0-.2l1-1.3 1.5 2.3v.2l-1 1.3Zm-6.2-12.4c-.6-.8-1-1.6-1.6-2.2v-.2c.3-.4.5-.9.9-1.3l1.6 2.3v.3l-.9 1Zm8.3 15.6 1.6 2.3v.2l-1 1.2-1.6-2.3v-.2l1-1.2Zm-5.8-8.7-1.6-2.3v-.2l1-1.3 1.6 2.3v.2l-1 1.3Zm8.9 19.2-1.6-2.3v-.2l1-1.2 1.6 2.3v.2l-1 1.2Zm-7.6-20.2c.6.8 1 1.6 1.6 2.2v.3a8 8 0 0 0-1 1.2l-1.5-2.2v-.3l1-1.2Zm8.9 19.2 1.6 2.3v.3l-1 1.1-1.6-2.2v-.3l1-1.2Zm-5.7-8.6-1.6-2.2v-.2a8 8 0 0 0 1-1.2l1.6 2.2v.3l-1 1.1Zm0 .5 1.7 2.3v.2l-1 1.2-1.6-2.3c0-.1-.1-.2 0-.2l1-1.2Zm-1.8-3.2-1.6-2.3v-.3l1-1.1 1.5 2.2v.3l-1 1.2Zm-5.1-13.4 1.6 2.3v.2l-1 1.3-1.5-2.3c-.1 0-.1 0 0-.2l.9-1.3Zm-2.5-6.9 1.5 2.2v.2l-1 1.3-1.5-2.2v-.2c.3-.4.5-.9 1-1.3Zm1.2 8-1.6-2.3v-.2c.4-.4.6-1 1-1.3l1.6 2.3v.2l-1 1.3Zm2.5 6.9-1.5-2.2v-.2l.9-1.1 1.5 2.1v.3c-.2.3-.4.7-.8 1Zm12.3-4.6 1.7 2.3v.3l-1 1.1-1.6-2.2v-.3a8 8 0 0 1 1-1.2Zm-4 19.5s-.1 0 0 0l-1.6-2.2v-.2l1-1.2 1.6 2.3v.2l-1 1.1Zm-6.3-12.2c-.6-.7-1-1.5-1.6-2.1v-.2c.3-.4.5-1 1-1.4a20 20 0 0 1 1.5 2.6l-1 1.1Zm6.4 12.8 1.6 2.2v.3l-1 1.1-1.6-2.2v-.3l1-1.1Zm-6.3-12.3 1.6 2.2v.3l-1 1.2-1.5-2.2v-.3l.9-1.2Zm2.4 6.3-1.6-2.2v-.3l1-1.1 1.5 2.2v.3c-.3.4-.5.7-1 1.1Zm6.3 12.3c-.6-.7-1-1.5-1.5-2.2v-.2l1-1.2 1.6 2.3s.1.2 0 .2l-1.1 1.1ZM1677 474c-.6-.7-1-1.5-1.5-2.2v-.2l1-1.3 1.5 2.3v.2l-1 1.2Zm12-4.8 1.7 2.3v.2l-1 1.2-1.7-2.4v-.2c.4-.3.8-.6 1-1Zm-14 2.2-1.5-2.3v-.2c.3-.4.6-1 1-1.3l1.5 2.2v.2c-.2.5-.5.8-1 1.4Zm-.7-4.3-1.4-2.2v-.2l1-1.3 1.5 2.2v.2c-.4.4-.6 1-1 1.3Zm10.9 22.3c0 .1 0 .1 0 0l1.5 2.2v.2l-1 1.2-1.4-2.2v-.3l.9-1Zm-1.3 1-1.5-2.2v-.3l1-1.1c.6.7 1 1.5 1.5 2.3v.2l-1 1Zm-6.2-12.2-1.5-2.1v-.3a8 8 0 0 0 .9-1.2c.6.7 1 1.5 1.6 2.1v.3l-1 1.2Zm1.8 2.7c-.6-.7-1-1.5-1.5-2.2v-.2l1-1.3 1.4 2.2v.3l-.9 1.2Zm0 .5c.7.7 1.1 1.5 1.6 2.1v.3l-1 1.2-1.4-2.3v-.2l.9-1.1Zm2.6 6.3-1.5-2.2v-.3l1-1c.6.7 1 1.4 1.5 2.2 0 0 .1.2 0 .2l-1 1Zm-6.8-16a20 20 0 0 1 1.5 2.5l-1 1.3-1.4-2.2v-.3l.9-1.2Zm-2-3.1-1.6-2.2v-.2l1-1.3 1.4 2.2v.3l-.8 1.2Zm13.2 28.5c-.6-.7-1-1.4-1.5-2.2v-.2l1-1.2 1.6 2.3v.2c-.6.4-.8.7-1.1 1.1Zm1.2-.8 1.5 2.2v.3l-1 1.1-1.4-2.2v-.2c.2-.5.5-.9.9-1.2Zm-13.7-23.5c-.6-.7-1-1.5-1.4-2.2 0 0-.1-.2 0-.2l.9-1.3 1.6 2.3v.1l-1 1.3Zm2.5 6.8c-.6-.7-1-1.5-1.5-2.2v-.2a8 8 0 0 0 1-1.3l1.5 2.2s.1.2 0 .2l-1 1.3Zm11.4-9.5-1.7-2.4v-.2l.9-1.1 1.6 2.2v.3l-.8 1.2Zm-15.8.1-1.5-2.2v-.2l.9-1.3 1.6 2.2v.2c-.3.5-.5.9-1 1.3Zm5.7 8.5c.6.7 1 1.4 1.4 2.1v.4l-.9 1.2a20 20 0 0 1-1.4-2.2s-.1-.2 0-.2l.9-1.3Zm7.4-15c.6.9 1 1.7 1.7 2.4v.3l-1 1-1.5-2.2s-.1-.2 0-.2l.8-1.3Zm-10.5 13.3-1.5-2.2v-.2l.9-1.3c.6.7 1 1.5 1.4 2.2 0 .1.1.2 0 .2-.1.5-.5.9-.8 1.3Zm-2.4-6.3 1.5 2.2.1.2c-.3.4-.6 1-1 1.3a20 20 0 0 1-1.4-2.2v-.3c.1-.4.4-.8.8-1.2Zm6.8 15.7-1.4-2c0-.2-.1-.3 0-.4l.9-1.2 1.6 2.3v.2c-.6.4-.8.7-1.1 1.1Zm-3.7-5.3c-.6-.7-1-1.5-1.4-2.2v-.3l.9-1.2c.6.7 1 1.5 1.4 2.2v.2c-.2.5-.6 1-.9 1.3Zm-4.3-9.3a20 20 0 0 1-1.4-2.2l-.2-.3c.4-.3.7-.8 1-1.2l1.4 2v.4l-.8 1.3Zm13-7.2c-.7-.7-1.1-1.5-1.7-2.2v-.3l.8-1 1.6 2.3v.3c-.3.2-.5.6-.8 1Zm-6.9 19.2-1.5-2.2v-.3l1-1.2 1.4 2.2v.2l-.9 1.3Zm4.9-21.9-1.6-2.3v-.2l.9-1.1 1.5 2.2v.3l-.8 1.1Zm-9 13 1.4 2.2s.1.2 0 .2l-.9 1.1-1.5-2.1v-.2c.3-.5.5-.8 1-1.2Zm-1.2.8s-.1 0 0 0l-1.6-2.1v-.3l.8-1.2h.2l1.4 2.2v.2l-.8 1.2Zm8.3-16.7-1.6-2.2v-.3c.2-.3.6-.7.8-1.2l1.6 2.3v.3l-.8 1.1Zm-10.8 10.5 1.4 2.2v.3l-.8 1.2h-.1l-1.4-2.1v-.3a8 8 0 0 0 .9-1.3ZM1677.4 518.6l.6-.5 11.2-12.6.2-.2-22.1-33-.2.4c-3.4 4.8-7 9.5-10.6 14.2-.4.3-.3.5 0 .8l4.5 6.7 6.7 10 7.1 10.6c1 1.2 1.7 2.4 2.6 3.6Zm9.2-11c-.6-.8-1.1-1.7-1.8-2.5v-.3l1-1 1.7 2.5v.2c-.2.5-.6.8-1 1.1Zm-2-2.4c.7.8 1.2 1.7 1.7 2.4v.3l-.9 1.1c-.6-.8-1-1.7-1.7-2.5v-.3l1-1Zm-1.1 1.3c.6.9 1.1 1.8 1.7 2.5v.2l-1 1.2-1.6-2.5v-.3l.9-1Zm3.4-4 1.8 2.5v.3l-1 1-1.7-2.5s.1-.1 0-.2l1-1.1Zm-4.6 5.4c.7.8 1.2 1.7 1.8 2.6v.2l-1 1c-.6-.8-1-1.7-1.7-2.4v-.3c.3-.5.6-.7 1-1Zm-2.2 2.6c.6.8 1 1.6 1.7 2.4v.3l-1 1-1.6-2.3v-.3l.9-1.1Zm2 2.4-1.8-2.4v-.1l.9-1.1c.6.8 1 1.6 1.7 2.4v.3l-.9 1Zm-12.4-33.4-1.5-2.3v-.1l1-1.3 1.4 2.2s.1.2 0 .2l-1 1.3Zm-1.8-2.7-1.5-2.1v-.3l1-1.3 1.5 2.2v.3l-1 1.2Zm3.1 1.7 1.5 2.3v.3l-1 1.3-1.4-2.2v-.3c.3-.6.5-1 1-1.4Zm2.3 6.4-1.5-2.2v-.2l1-1.3 1.5 2.2v.2l-1 1.3Zm4.5 28.2c.7.8 1.2 1.7 1.8 2.5l-1 1.2-1.6-2.4s-.1-.2 0-.2l.8-1.1Zm1.1-1.3 1.7 2.5s.1.2 0 .2c-.2.4-.6.7-1 1l-1.5-2.3c-.1 0 0-.2 0-.2l.8-1.2Zm-4.3-28 1.4 2.2v.3l-.9 1.1-1.4-2.2v-.2l.9-1.1Zm2.3 6.4-1.5-2.2v-.2l1-1.2 1.4 2.2c.1 0 .1.2 0 .2l-1 1.2Zm-8.3-9.2-1.5-2.3v-.2l1-1.3 1.4 2.2v.3l-1 1.3Zm-1.1 1.4-1.5-2.2v-.2l1-1.1 1.4 2.1v.3l-1 1.1Zm14 11.8-1.1 1.2-1.5-2.2v-.2l1-1.2c.5.9 1 1.7 1.6 2.4Zm-2.9-1.3-1.4-2.2v-.3l.9-1.1 1.4 2.2v.3a5 5 0 0 1-.9 1Zm-10-11.5 1.5 2.2v.1l-1 1.2-1.5-2.2v-.2c.4-.2.8-.6 1-1Zm3 1.3 1.4 2.2s.1.2 0 .2c-.3.4-.5.8-1 1.2l-1.4-2.2s-.1-.2 0-.2l1-1.2Zm-6.5-6.6 1.4 2.2v.2a9 9 0 0 0-1 1.3l-1.4-2.2v-.2a9 9 0 0 0 1-1.3Zm6 11.6-1.5-2.2s-.1-.2 0-.2l.9-1.1 1.5 2.3v.1l-1 1.1Zm-1.3-7.6 1.5 2.2v.2l-1 1.2-1.5-2.2v-.3l1-1.1Zm-3-1.8-1.5-2.2v-.2l1-1.2 1.4 2.2v.3l-1 1.1Zm-1 2 1.5 2.2-.1.2-.9 1-1.4-2.1v-.3l.9-1Zm8.2 9.2 1.5 2.2-1 1.2-1.4-2.2v-.2l1-1Zm1.2-1.5 1.4 2.2v.2l-.9 1.2h-.1l-1.4-2v-.3l1-1.3Zm-5.9-2.5 1.5 2.2v.2l-1 1.1-1.5-2.2s-.1-.2 0-.2l1-1Zm3.5 4.9-1.4-2.2v-.2l1-1.1 1.5 2.2v.2l-1 1Zm-5.3-7.5 1.5 2.2v.2l-.9 1.1-1.4-2.2c-.1 0-.1-.2 0-.2l.8-1.1Zm5.9 2.5 1.4 2.1v.3l-.9 1.1-1.4-2.2v-.1c.2-.5.5-.9.9-1.2Zm4 32.6c-.6-.7-1-1.5-1.5-2.3v-.3l.8-1 1.6 2.4v.2l-.9 1Zm.2-23.3 1.4 2.2s.1.2 0 .2l-.9 1.1-1.4-2.2s-.1-.2 0-.2l.9-1.1Zm1.7 2.2-1.5-2.2v-.3l1-1 1.5 2.3-1 1.2Zm2.3-2.3 1.5 2.2v.2l-.9 1.2-1.5-2.2v-.3l1-1Zm-4.1-.4-1.5-2.2v-.2l1-1.1 1.4 2.1v.3l-1 1.1Zm-1.2 1.4-1.4-2.2v-.3c.3-.3.5-.7 1-1.1l1.4 2.2s.1.2 0 .2l-1 1.2Zm-12.3-18 1.4 2.2s.1.2 0 .2a8 8 0 0 0-.8 1.2l-1.5-2.2v-.2l.9-1.2ZM1681 500l1.4 2v.3l-.9 1.1-1.4-2.1v-.3l1-1Zm-7.7-5.6-1.4-2.2c0-.1-.1-.2 0-.2l.9-1.2 1.4 2.2v.3l-.9 1Zm3 1.7 1.5 2.2v.3l-.9 1.1-1.4-2.2s-.1-.2 0-.2l.9-1.2Zm4-.1 1.5 2.2s.1.2 0 .2l-.9 1.1h-.1l-1.4-2.1v-.3l1-1.1Zm-8.7-4.3-1.4-2v-.3l.9-1.1 1.4 2.2v.2l-1 1Zm-7-10 1.4 2.2v.1l-1 1.1-1.4-2.1v-.3l1-1Zm10 11.8 1.4 2.2s.1.2 0 .2c-.3.4-.5.8-.9 1.1l-1.4-2.1v-.3l.9-1.1Zm8 8.6-1.4-2.2v-.3l1-1 1.4 2.1v.3c-.2.4-.6.7-1 1Zm.7-4.8 1.5 2.1v.3l-1 1.1-1.4-2.2v-.2c.3-.5.6-.7 1-1.1Zm-4.7 5-1.4-2.2v-.3l1-1.2 1.4 2.2v.3l-1 1.1Zm-10.5-15.3 1.5 2.2v.2l-1 1.1-1.4-2.1v-.3l1-1.1Zm-1.8-2.7 1.5 2.2v.3l-.9 1-1.5-2v-.3l1-1.2Zm18.8 15.6 1.5 2.2v.3l-1 1c-.4-.7-1-1.3-1.4-2.1v-.3c.3-.5.6-.7.9-1Zm-5.9-2.6 1.5 2.2v.3l-1 1-1.4-2.1v-.2l1-1.2Zm-7.6-5.1 1.5 2.2v.2l-1 1.1-1.4-2.1v-.3l1-1.1Zm8.8 12.6-1.5-2.2v-.2l1-1.2 1.5 2.2v.2l-1 1.2Zm3.5-3.5 1.5 2.2v.2l-.9 1.1-1.4-2.2v-.2l.8-1.1Zm-.6 4.8-1.4-2.2c0-.1-.1-.2 0-.2l.9-1.2 1.4 2.2v.3l-.9 1Zm-20.3-18-1.5-2.3v-.2l1-1.1 1.4 2.1v.3l-1 1.1Zm6.9 1.5 1.5 2.2v.3l-1 1.1-1.4-2.2v-.2l.9-1.2Zm-3.4 3.7-1.4-2.2s-.1-.2 0-.2l.9-1.1 1.4 2.2v.2l-.9 1.1Zm-2.3-6.2 1.4 2.2v.3l-.9 1-1.4-2v-.3l.9-1.2Zm18 20.3-1.5-2v-.3l1-1.1c.4.8 1 1.4 1.4 2v.3l-1 1.1Zm-8.2-9-1.5-2.2v-.2l1-1.2 1.4 2.2v.3l-1 1.1Zm-10.5-15.3 1.4 2.2v.3l-.9 1.1-1.4-2.2s-.1-.2 0-.2l.8-1.2Zm12.2 17.9-1.4-2.2v-.3l.9-1.1 1.4 2.2s.1.2 0 .2l-.9 1.2Zm-6.2-6 1.4 2.2v.2l-.9 1.1-1.4-2.2s-.1-.2 0-.2l.9-1.1Zm-3.6-5.8-1.5-2.2v-.1l1-1.1 1.4 2.1v.3l-1 1Zm1-.8 1.5 2.1.1.2-.9 1.2-1.4-2.2v-.3c.2-.3.4-.7.8-1Zm.8 4 1.5 2.1v.2l-.8 1.1-1.5-2.2v-.2l.8-1Zm-5-13.4 1.5 2.2v.3l-.9 1-1.4-2v-.2l.9-1.3Zm-2.5 8.3 1.4 2.2v.2l-.8 1.1-1.4-2.2v-.2l.8-1.1Zm12.8 12.9 1.4 2v.3l-.9 1.1-1.4-2.2s-.1-.2 0-.2l.9-1Zm4-.1 1.3 2v.3l-.9 1.1c-.4-.8-1-1.4-1.4-2v-.3l1-1.1Zm-6.4-6.5 1.5 2.2v.2l-1 1.2-1.4-2.2v-.3l1-1Zm8.1 9.1 1.5 2.2v.2l-1 1.2-1.4-2.2v-.3l1-1.1Zm-16.1-9.3-1.4-2-.1-.2.9-1.2 1.4 2.2v.3c-.3.2-.5.6-.8 1Zm1.7 2.6-1.4-2.2s-.1-.2 0-.2l.9-1.2 1.4 2.2v.3l-.9 1.1Zm7 1.6 1.4 2.2v.3l-.9 1c-.4-.7-1-1.3-1.4-2.1v-.3l.9-1Zm5.7 11.2-1.4-2v-.3l1-1.1c.4.8 1 1.4 1.3 2v.3l-.9 1.1Zm-15.1-19.3-1.5-2.2v-.3l.9-1c.6.7 1 1.4 1.4 2.1v.3l-.8 1Zm6.8 1.5 1.5 2.2v.2l-.9 1.2-1.4-2.2v-.3l.8-1.1Zm6 11.3-1.5-2.2v-.2l1-1c.4.7 1 1.3 1.4 2.1v.3c-.4.2-.6.6-1 1Zm3.6 5.6c.4.8 1 1.4 1.4 2.1v.3a4 4 0 0 1-1 1c-.4-.8-1-1.4-1.4-2.1v-.3c.4-.2.6-.6 1-1Zm-10.5-6.7-1.4-2.2v-.2l.9-1.2 1.4 2.2v.3l-.8 1.1Zm4.6-5 1.4 2.1v.3l-.9 1.1c-.4-.8-1-1.4-1.4-2v-.3c.2-.5.6-.8.9-1.2Zm8 9 1.5 2.2v.3l-.9 1.1-1.4-2.2s-.1-.2 0-.2c.3-.4.5-.8.9-1.1Zm-15.6-14 1.4 2 .1.2-.9 1.1-1.4-2.1v-.3c.3-.2.5-.6.8-1Zm.8 3.9c.4.8 1 1.4 1.4 2v.3l-.8 1.1-1.5-2.2v-.2l.9-1Zm9.6 11c-.4-.7-1-1.3-1.4-2.1v-.3l.9-1 1.5 2.1v.3c-.3.4-.6.8-1 1Zm2.5-2c.4.7 1 1.3 1.4 2.1v.3l-.9 1c-.4-.7-1-1.3-1.4-2.1v-.3l.9-1Zm-6.9-1.3 1.5 2.2v.3l-1 1.1c-.4-.8-1-1.4-1.3-2v-.3l.8-1.3Zm-7.2-10.8-1.4-2v-.3l.9-1.1 1.4 2.2s.1.2 0 .2l-1 1Zm5.5 8.3c.4.8 1 1.4 1.4 2v.3l-1 1.2-1.4-2.2v-.3l1-1Zm5.7 11.1-1.4-2v-.3l.9-1.2c.4.8 1 1.5 1.4 2.1v.3c-.2.4-.6.7-1 1.1Zm1.6-6.6-1.4-2v-.3l.9-1.1 1.4 2v.3c-.3.5-.5.8-.9 1.1Zm-7.4-5-1.5-2.1v-.3l1-1.1 1.4 2.2v.2l-.9 1.1Zm-2.4-6 1.4 2v.3l-.9 1.1-1.4-2v-.3l.9-1.1Zm6.5 15-1.5-2v-.3l1-1.1c.4.8 1 1.4 1.3 2v.3l-.8 1.2Zm-.6-3.9-1.5-2.1v-.3l1-1.1 1.4 2.2v.2l-1 1.1Zm3.6 5.7 1.4 2.2v.2c-.3.4-.5.8-1 1l-1.3-2v-.3c.3-.5.5-.8.9-1.1Zm3.3-4 1.5 2.2v.2l-1 1-1.4-2.2v-.2l1-1Zm-9.3-7.6 1.4 2v.3l-.9 1.1-1.4-2.1v-.3l1-1Zm5.8 11-1.4-2v-.3l1-1 1.4 2.2v.2l-1 1Zm-1.7-2.5-1.4-2v-.3c.2-.4.6-.8 1-1 .4.7 1 1.3 1.3 2v.3l-.9 1Zm-12-23.4c-.4-.8-1-1.4-1.3-2v-.3l.8-1.2 1.4 2v.3l-.9 1.2Zm15.5 28.5-1.4-2v-.3c.2-.4.5-.8 1-1l1.3 2v.3c-.3.4-.5.7-1 1Zm-16.5-27.1c-.4-.7-1-1.3-1.3-2v-.2l.9-1.2 1.3 2c0 .1.1.2 0 .2l-.9 1.2Zm12 23.8c.4.8 1 1.4 1.3 2v.3l-.8 1-1.4-2v-.3l.8-1Zm1.7 2.6 1.4 2.1v.2l-1 1-1.4-2.2 1-1.1Zm-5.2-7.7 1.4 2.2c0 .1.1.2 0 .2l-.8 1-1.4-2v-.3l.8-1Zm.8 3.7.9-1.1 1.4 2v.2c-.1.4-.5.8-.8 1.2-.5-1-1-1.5-1.5-2.3Zm-2.6-6.2 1.5 2.1v.3l-.9 1c-.4-.8-1-1.4-1.4-2.1v-.3l.8-1Zm-1.7-2.6 1.4 2.2c0 .1.1.2 0 .2l-.8 1-1.5-2.2s.1-.1 0-.2l.9-1Zm-6.1-12.3-1.4-2v-.2l.9-1.2c.4.7 1 1.3 1.3 2 0 0 .1.2 0 .2-.2.5-.5.8-.8 1.2Zm5 13-1.5-2v-.3l.8-1 1.4 2v.3l-.8 1Zm-1.7-2.5-1.5-2.2v-.3l.8-1 1.5 2.1v.3l-.8 1Zm-4.3-9-1.3-2v-.2l.8-1.2 1.3 1.9v.2l-.8 1.2Zm1.8 3 1.5 2.2v.2l-.8 1-1.5-2v-.3l.8-1Zm-1.8-2.6 1.5 2.2v.2l-.8 1.1-1.4-2.2s-.1-.2 0-.2l.8-1.1Zm-1.6-2.3 1.3 1.8v.3l-.7 1c-.4-.8-.8-1.3-1.3-2 0 0-.1-.2 0-.2l.7-1ZM1705.3 484a1 1 0 1 1 .8 1.9 1 1 0 1 1-.8-1.9ZM1681 450a1 1 0 0 1 1.4.5 1 1 0 0 1-.5 1.3 1 1 0 0 1-.8-1.8ZM1768 400.4a2.5 2.5 0 1 1 2 4.6 2.5 2.5 0 0 1-2-4.6Z"/><path fill="#252E36" d="m1722.5 464.5 11 12.5-17.7.6-4 7.3-4.5 2.6-3.8-8.7 7-4.7-5-6.7 11.3-5.1 5.7 2.2Z"/><path fill="#4A5A6A" fill-rule="evenodd" d="m1733.2 478-11.1-12.5-5.7-2.3-11.4 5.3 5 6.4-7 4.6 3.8 8.9 4.7-2.7 4-7.2 17.7-.5Zm-.9-.4-17 .5-4.1 7.3-4.2 2.4-3.5-8.1 7-4.7-4.8-6.4 10.7-5 5.4 2.2 10.5 11.8Z" clip-rule="evenodd"/><path fill="#252E36" d="M1699.3 432.3c6.7-2.9 15.7 3 20.2 13.3 4.4 10.2 2.7 20.9-4 23.8-6.7 2.9-15.7-3-20.1-13.3-4.5-10.2-2.7-20.9 4-23.8Z"/><path fill="#4A5A6A" fill-rule="evenodd" d="M1704.8 467.1c-3.6-2.4-7-6.5-9.3-11.6-2.2-5.2-3-10.4-2.3-14.7.7-4.3 2.7-7.6 5.9-9 3.2-1.4 7-.7 10.6 1.8 3.6 2.4 7 6.5 9.2 11.7 2.2 5.1 3 10.4 2.3 14.7-.7 4.3-2.7 7.6-5.9 9-3.1 1.4-7 .6-10.5-1.9Zm-.3.4c3.7 2.5 7.6 3.3 11 1.9 3.4-1.5 5.4-5 6.1-9.4.7-4.3 0-9.7-2.3-14.9a27.8 27.8 0 0 0-9.4-11.9c-3.7-2.4-7.6-3.3-11-1.8-3.3 1.4-5.4 5-6 9.3-.7 4.4 0 9.7 2.3 15 2.3 5.1 5.6 9.3 9.3 11.8Z" clip-rule="evenodd"/><path fill="#4A5A6A" fill-rule="evenodd" d="M1713.5 469.4c1.5 0 2.9-.3 4.2-.9 3.7-1.6 6-5.3 6.8-9.9.7-4.6 0-10.3-2.4-15.7-2.4-5.5-6-9.8-10-12.4-3.9-2.5-8.1-3.4-11.8-1.8-2.3 1-4 3-5.2 5.3l.4.3a8.6 8.6 0 0 1 3.5-2.9c3.1-1.3 6.9-.6 10.5 1.9 3.5 2.4 6.9 6.5 9.1 11.6 2.2 5.1 3 10.3 2.3 14.6-.6 4.2-2.6 7.5-5.8 9l-1.6.4v.5Zm2.1-.7c3.2-1.5 5.2-5 5.8-9.2a28 28 0 0 0-2.4-14.8 27.7 27.7 0 0 0-9.3-11.8c-3.7-2.5-7.6-3.4-10.9-1.9-.8.3-1.5.8-2.1 1.3 1-1.4 2.3-2.5 3.8-3.2 3.5-1.5 7.6-.7 11.4 1.8 3.9 2.5 7.4 6.8 9.8 12.1a28 28 0 0 1 2.3 15.5c-.7 4.6-3 8-6.4 9.6-.7.3-1.3.5-2 .6Z" clip-rule="evenodd"/><path fill="#4A5A6A" fill-rule="evenodd" d="M1710.8 457.2c-2.1-1.3-4-3.7-5.3-6.6-1.3-3-1.7-6-1.3-8.5.4-2.4 1.6-4.3 3.5-5.2 1.9-.8 4-.4 6.2 1 2 1.4 4 3.7 5.3 6.7 1.3 3 1.7 6 1.3 8.4-.5 2.5-1.7 4.4-3.5 5.2-1.9.8-4.1.4-6.2-1Zm-.3.5c2.2 1.4 4.6 1.9 6.7 1 2-1 3.4-3 3.8-5.6.5-2.6 0-5.7-1.3-8.8-1.3-3-3.3-5.4-5.5-6.9-2.2-1.4-4.6-1.9-6.7-1-2.1 1-3.4 3-3.8 5.7-.5 2.5-.1 5.7 1.2 8.7 1.4 3 3.4 5.4 5.6 6.9Z" clip-rule="evenodd"/><path fill="#4A5A6A" d="M1709.3 441c2.6-1.2 6 1 7.7 4.9 1.7 3.8 1 7.8-1.6 9-2.6 1-6-1.2-7.7-5-1.6-3.8-1-7.8 1.6-9ZM1710.7 456.5l-1.4.6c-.3.2-.5.5-.4.8 0 .2.5.3.9.1l1.4-.6c.3-.1.5-.5.4-.7 0-.3-.4-.4-.9-.2ZM1704 443.9l-1.5.6c-.3.1-.6.5-.5.7.1.3.6.3 1 .2l1.3-.6c.4-.2.6-.5.5-.8-.1-.3-.5-.3-.9-.1ZM1712.6 438.7l-1.4.6c-.3.2-.6.5-.5.8.1.2.6.3 1 .1l1.3-.6c.4-.1.6-.5.5-.7 0-.3-.5-.4-.9-.2ZM1718.7 453.2l-1.4.6c-.4.2-.6.5-.5.8 0 .2.5.3.9.1l1.4-.6c.3-.1.6-.5.5-.7-.1-.3-.6-.3-1-.2Z"/><path fill="#252E36" d="m1754 440.5 17.7-7.3 3 21.5-11.8 5-6.2-.1-2.7-19Z"/><path fill="#4A5A6A" fill-rule="evenodd" d="m1774.6 454.7-3.3-22.4-17.7 7.3 3 19.8 6.4.2 11.6-5Zm-11.7 4.5-5.9-.2-3-19.1 17-7 3.2 21.5-11.3 4.8Z" clip-rule="evenodd"/><path fill="#4A5A6A" fill-rule="evenodd" d="m1763.3 454.2-2.5-17.6-6.8 2.9 2.5 17.5 6.8-2.8Zm-6.5 2.3-2.4-16.8 6.2-2.6 2.3 16.9-6.1 2.5Z" clip-rule="evenodd"/><path fill="#4A5A6A" fill-rule="evenodd" d="m1775.4 454.5-2.7-21.8-11.7 4.9 2.4 19.4 2.1-.8.3 2.2 9.6-4Zm-9.3 3.4-.3-2.1-2 .8-2.4-18.8 11-4.6 2.6 21-8.9 3.7Z" clip-rule="evenodd"/><path fill="#4A5A6A" fill-rule="evenodd" d="m1771.8 434.2-11.2 4.7 11.2-4.6ZM1772.3 435.5l-11.2 4.7 11.3-4.6ZM1772.9 436.9l-11.2 4.6 11.2-4.6ZM1772.5 437.8l-11.2 4.6v.1l11.2-4.6v-.1ZM1773 439.1l-11.2 4.7 11.3-4.6ZM1772.6 440l-11.2 4.7 11.3-4.6ZM1773.2 441.4 1762 446l11.2-4.6ZM1773.3 443.6l-11.1 4.7 11.2-4.6ZM1773 444.6l-11.2 4.6 11.2-4.6ZM1773.5 445.9l-11.2 4.6v.1l11.3-4.6v-.1ZM1774 447.2l-11.1 4.6v.1l11.2-4.6v-.1ZM1773.7 448.1l-11.2 4.7 11.2-4.6ZM1774.2 449.4l-11.2 4.7 11.3-4.6ZM1773.8 450.4l-11.1 4.6v.1l11.2-4.6v-.1ZM1774.4 451.7l-11.2 4.6v.1l11.2-4.6v-.1ZM1774.4 453.3l-9.3 4 9.4-4Z" clip-rule="evenodd"/><path fill="#4A5A6A" fill-rule="evenodd" d="m1764.7 456-2.2-20 2.1 20h.1ZM1766.2 457.8l-3-21.9 3 21.9ZM1767.1 458.1l-3-21.8 3 21.8ZM1768.8 456.7l-3-21.9 3 21.9ZM1770.2 456.1l-3-21.8h-.1l3 21.8ZM1771.5 455.6l-3-21.9h-.1l3 21.9ZM1772.8 455l-3-21.8 3 21.8ZM1774.1 454.5l-3-21.9 3 21.9ZM1760.5 439l-6.5 2.7v.1l6.6-2.7v-.1ZM1761 440.3l-6.5 2.7v.1l6.6-2.7ZM1760.7 441.2l-6.5 2.8 6.5-2.7ZM1761.2 442.6l-6.5 2.7 6.6-2.7ZM1761.8 443.9l-6.5 2.7 6.5-2.6v-.1ZM1761.4 444.8l-6.5 2.7v.1l6.5-2.7ZM1762 446.1l-6.6 2.8 6.6-2.7ZM1762.1 448.4l-6.5 2.7 6.6-2.6v-.1ZM1761.7 449.3l-6.5 2.7v.1l6.6-2.7ZM1762.3 450.6l-6.5 2.8 6.5-2.7ZM1762 451.6l-6.6 2.7 6.5-2.6v-.1ZM1762.5 452.9l-6.6 2.7v.1l6.6-2.7v-.1ZM1763 454.2l-6.5 2.7v.1l6.5-2.7Z" clip-rule="evenodd"/><path fill="#4A5A6A" fill-rule="evenodd" d="m1756.6 457-2.3-17.6 2.2 17.7h.1ZM1758 456.5l-2-16.7 1.9 16.8ZM1759.3 456l-2-16.8 1.9 16.8ZM1760.6 455.4l-2-16.7 2 16.8Z" clip-rule="evenodd"/><path fill="#252E36" d="m1736.4 487.7 66.7 39.8 13-46.8-72.8-36.3-6.9 43.3Z"/><path fill="#4A5A6A" fill-rule="evenodd" d="m1802.7 528.4 12.8-47.2-73-36.8-6.7 43.7 66.9 40.3Zm-.3-.6-66.2-39.9 6.7-42.9 72.1 36.5-12.6 46.3Z" clip-rule="evenodd"/><path fill="#4A5A6A" d="m1778.8 462.3-.2.5-9.7 43.5c0 .4 0 .6.4.8 3.8 2.3 7.5 4.6 11.4 6.7 4.1 2.5 8.2 5 12.3 7.3l8.1 4.8.5.3.1-.5 12.8-45.3c.2-.4 0-.7-.4-.8l-12.1-6-21.1-10.5c-.8-.1-1.5-.5-2.1-.8Zm-5.4 26.9.7-3.5c1 .4 1.8 1 2.6 1.4l.1.3a89 89 0 0 1-.7 3c-.1-.2-.3-.2-.4-.3l-1.9-1h-.4c0 .2.2.3.4.5l2 1.2c.2 0 .3.3.3.3l-.7 3-2.6-1.5c-.3.4 0 .5 0 .6l2 1 .3.3a89 89 0 0 1-.7 3l-2.5-1.3c-.3-.2-.3-.4-.2-.7l.8-3.7c.5-.9.8-1.7.9-2.6Zm38.3-1.5c-1.1-.6-2-1.1-3.1-1.5-.3-.1-.3-.3-.1-.6l.7-2.6v-.4c1.3.5 2.3 1 3.3 1.6.2 0 .3.2.2.3l-1 3.2Zm1.1-4-3.2-1.7s-.2-.1-.1-.3l.9-3.3 3.4 1.7-1 3.6Zm-4.6 2.8 3.2 1.6.1.2-1 3.3c-1-.7-2-1.2-3.2-1.7v-.3l.9-3.1Zm-1.1 3.9 3.2 1.6.2.5-.5 1.5-.4 1.5-3.1-1.7c-.2 0-.2-.1-.2-.3l.8-3.1Zm-6 35.3-2.9-1.8-.2-.4.7-2.4.3-.9 3.1 1.9-1 3.6Zm7.4-26.3h-.1l-2.6-1.4c-.6-.3-.6-.3-.4-1l.7-2.6 3.2 1.6c.1 0 .2.2.1.3l-.9 3.1Zm.5-17.6-2.3-1.2c-1-.4-1-.4-.7-1.4l.7-2.5 3.3 1.6-1 3.5Zm-.1.6c-.4 1-.6 2.3-1 3.4l-2.9-1.5c-.2-.2-.2-.3-.2-.5l.8-2.8v-.3c1 .5 2.2 1 3.3 1.7Zm-4.8 19 .9-3.3 3.3 1.8-.9 3.3-3.3-1.7Zm-1-26.4a44.7 44.7 0 0 1 3 1.7l-.8 3.3-3-1.5-.2-.3 1-3.2Zm4.7 11.3-1 3.5-3-1.5c-.2-.1-.2-.3-.1-.5l.6-2 .2-1c1.2.4 2.2 1 3.3 1.5Zm-2.6-5.8-1 3.5-3-1.5v-.2l.8-3.3 3.2 1.5ZM1804 502l2.6 1.5c.7.4.7.4.5 1-.2 1-.4 1.7-.8 2.6a186 186 0 0 1-3-1.7c-.2 0-.2-.3-.2-.3l.9-3Zm-6.3 21.7-2.7-1.7c-.2 0-.2-.3-.1-.4l.5-2 .3-1.2 3 1.7-1 3.6Zm5.3-18 3.1 1.8.2.3c-.2.5-.4 1-.4 1.5l-.4 1.5-3.1-1.7-.2-.3.8-3Zm-3.5-32.4c1 .6 2 1 3 1.4.2.1.2.2.2.3l-.8 3.3-3-1.5-.2-.3.9-3.2Zm4.1 15.4 3.1 1.6.1.2-.8 3.2-3.1-1.6-.1-.3.8-3Zm-.2-.9h-.1l-2.9-1.4s-.2-.1-.1-.3l.8-3.2 3 1.5c.2.1.2.4.2.4l-.9 3Zm-4.8-10.6 3 1.5s.2.1.2.3c-.3 1-.6 2-.8 3.3l-3.2-1.6.8-3.5Zm-4.3 44.5c-1-.6-1.8-1.2-2.7-1.6v-.5c0-.6.3-1.3.4-1.8l.4-1.4 2.8 1.6.1.3-1 3.4Zm5.8-34.9 3 1.6v.3l-.8 3.2-3-1.6v-.2l.8-3.3Zm4.7 10.7-2.5-1.2c-.7-.4-.7-.4-.5-1.3l.7-2.5 3 1.6.2.3c-.3 1-.5 2-1 3.1Zm-8.8-26 3.2 1.6-.8 3.5-3.2-1.6c.4-1.1.6-2.2.8-3.4Zm8.3 43a58.6 58.6 0 0 0-3-2c.1-1 .4-2 .8-3 1 .7 2 1.2 3 1.7l.2.3-1 3Zm-6.7-33.3 3 1.5v.3l-.8 3.2-2.9-1.5-.1-.3.8-3.2Zm5.8 37-3.2-1.9.8-3.2a58.5 58.5 0 0 0 3.2 2l-.8 3.1Zm-8.2-42.7 2.8 1.4c.2.1.2.4.2.4l-.4 1.5-.4 1.6a49.5 49.5 0 0 0-3-1.8c.2-.9.4-2 .8-3.1Zm8.6 25.8h-.2c-.6-.4-1.1-.8-1.8-1.1-.3-.3-.9-.4-1-.7-.1-.3.1-.8.2-1.3l.4-2 3 1.5v.3c0 1.3-.3 2.3-.6 3.3Zm-14.7 13.2a36.5 36.5 0 0 1 2.8 2l-.9 3.3-2.7-1.6-.1-.3.9-3.4Zm9.8-24.6-3-1.5v-.3l.8-3.2 2.8 1.4c.2.1.3.3.1.4-.3 1.2-.4 2.2-.8 3.2Zm2.4 5.7h-.1l-2-1c-1-.6-1-.6-.7-1.7l.6-2.2 2.9 1.6.1.3-.8 3Zm-5.6-24.3-.9 3.5-2.8-1.4c-.1 0-.2-.2-.1-.3l.7-3.1c1 .4 2 1 3.1 1.3Zm4.9 28.8 3 1.7v.3l-.8 3-3-1.6c0-.1-.2-.2-.1-.3l.9-3.1Zm-4.3-15.8c-.7-.3-1.3-.5-1.8-1-.5 0-1-.2-1.2-.6-.1-.3.1-1 .3-1.4l.5-2a46.3 46.3 0 0 0 3 1.8l-.8 3.2Zm4 15.2-3.1-1.7.8-3.3 2.9 1.5.1.3c-.1 1.1-.5 2-.7 3.2Zm-.3 17.3 3 1.7c0 .1.2.2.1.3l-.8 3-3-1.8-.1-.3.8-3Zm-6.2-38a19 19 0 0 0-1.8-1c-.4-.1-1-.3-1-.6-.2-.3 0-.8.2-1.2l.5-2.2 2.9 1.5c.1 0 .2.1 0 .3l-.8 3.2Zm-6 39-2.2-1.4c-.7-.3-.7-.3-.5-1l.8-2.9 2.6 1.6c.2 0 .1.2.1.3-.2 1.2-.4 2.3-.8 3.4Zm10-24c-.6-.3-1.3-.6-1.8-1-.3-.1-1-.3-1.1-.6-.2-.3 0-1 .2-1.4l.6-2 2.8 1.5c.2 0 .3.3.2.3l-.9 3.2Zm-2.5-5.6-2.2-1.2c-.8-.4-.8-.4-.6-1.3l.7-2.5 2.9 1.5c.1 0 .2.1 0 .3l-.8 3.2Zm4.3 15.6 2.1 1.2c1 .5 1 .5.7 1.6l-.6 2.1-2.8-1.6-.2-.4.8-2.9Zm-8.2-30.7-2.9-1.4v-.5l.3-1.5.4-1.6 2.8 1.3c.1 0 .2.2.1.3l-.7 3.4Zm1.5 9.4h-.2l-1.9-1c-1-.6-1-.6-.7-1.7l.5-2.2 3 1.5-.7 3.4Zm4.3 15.8 2.9 1.5c0 .1.2.2.1.3l-.8 3-2.9-1.5-.1-.3c.1-1 .4-2 .8-3Zm-6.7-21.2-2-1.1c-1-.4-1-.4-.8-1.5l.6-2.4 3 1.5-.8 3.5Zm4.2 15.5 2.9 1.6v.3l-.3 1.5-.5 1.6-3-1.6.9-3.4Zm-12 18.1 1.7 1c.3.2.9.3 1 .8.2.3 0 .9-.1 1.3l-.5 2.1-2.9-1.6.8-3.6Zm13.4-8.8a50.2 50.2 0 0 0 3 1.9l-.7 3c-1-.5-2-1-2.8-1.6 0 0-.2-.1-.1-.2 0-1 .4-2 .6-3Zm-6.3-20.4c.8.4 1.5.7 2.1 1.2.9.5.9.5.7 1.4-.2.8-.5 1.5-.6 2.3l-2.8-1.4-.1-.4.7-3Zm-1-13.4-.7 3.4a34 34 0 0 1-2.8-1.4l-.1-.4.4-1.6.3-1.5 3 1.5Zm5.6 23.9-2.8-1.5-.1-.4.4-1.6.3-1.3 2.8 1.5c.1 0 .2.3 0 .3 0 1-.3 2-.6 3Zm4.2 15.6 3 1.6v.3l-.7 3c-1-.5-2-1-2.8-1.6l-.2-.3c0-1 .4-2 .7-3Zm-9-26.8-2.8-1.4c-.2 0-.2-.3-.2-.3l.7-3.1c1 .4 1.9.9 2.7 1.4.2 0 .3.2.1.3 0 1-.3 2-.6 3Zm-4.6-10.4c1 .4 1.9.9 2.7 1.4.1 0 .2.1.1.3l-.7 3.1-3-1.5c.4-1 .5-2 .9-3.3Zm11 30.9h-.1l-1.8-1c-.4-.2-1-.3-1-.6-.2-.3.1-.8.2-1.2l.5-2c1 .6 2 1 2.8 1.7.2 0 .2.1.1.3a14 14 0 0 0-.7 2.8Zm-16.4 7.6c.7.4 1.3.9 2 1.2.7.4.7.4.5 1.2l-.7 2.7-2.5-1.6c-.2 0-.3-.3-.2-.3l.9-3.2Zm13.8-13.2-2.8-1.6v-.3l.5-2 .2-1 2.7 1.5c.2 0 .3.3.2.4l-.8 3Zm4.2 15.5 3 1.8-.9 3.1c-1-.5-2-1-2.8-1.6l-.1-.4.8-2.9Zm-12.1-44.8-.8 3.4-2.7-1.4c-.2 0-.2-.2-.2-.3l.8-3.2 2.9 1.5Zm1 13.4 2.7 1.5s.2.1.1.2l-.7 3.1-2.8-1.5-.1-.3.8-3Zm6.2 20.3c1 .5 2 1 2.8 1.6l.2.3-.8 3-3-1.6.8-3.3Zm4.7 10.4-2.8-1.5v-.3c.1-.9.4-1.9.7-3l2.8 1.6.1.3-.8 3Zm-6.4-20.3-1.6-.9c-.4-.2-1-.4-1.2-.7-.1-.3.1-1 .3-1.4 0-.6.3-1.2.4-1.9l2.8 1.5c.1 0 .2.2 0 .3-.1 1-.4 2-.7 3Zm-9.3-21.4 2.7 1.4.1.3-.7 3.1a34 34 0 0 1-2.7-1.4l-.2-.3.8-3.1Zm2.3 5.4 2.8 1.4v.3c0 1-.4 2-.7 3.2a34 34 0 0 1-2.7-1.4l-.1-.3.7-3.2Zm-7.6 32.9 2.6 1.6s.2.1.1.3l-.8 3.3c-1-.6-1.8-1-2.7-1.7l.8-3.5Zm16.2-7.7-2.8-1.5s-.2-.1 0-.2c.1-1 .4-2 .7-3l2.8 1.5v.3c-.3.9-.6 1.9-.7 3Zm6.2 20.3-1.7-1c-.5-.2-1-.5-1.2-.8-.2-.4.2-1 .4-1.5 0-.5.3-1 .4-1.5l2.8 1.6c.2 0 .2.1.1.3l-.8 3Zm-1.6-8.7-.8 3.2-2.8-1.6-.2-.3.8-3 3 1.7Zm-9.3-22c1 .6 2 1 2.8 1.6v.3c0 .4-.2 1-.4 1.4l-.4 1.7-2.7-1.5c-.2 0-.2-.2-.2-.3.4-1 .8-2 1-3.1Zm-4.8-11c1 .5 2 1 2.8 1.6l.1.3-.7 3.1-2.8-1.4v-.3l.6-3.2Zm-3.8-14.7 1.8 1 1 .5-.3 1.2-.4 2.2a34 34 0 0 1-2.7-1.4c-.2 0-.1-.2-.2-.3l.8-3.2Zm6.2 20.3 2.9 1.5v.2c-.1 1-.4 2-.7 3-1-.4-1.8-1-2.8-1.5l-.1-.4.7-2.8Zm4 14.6 2 1.2c.9.5.9.5.6 1.3l-.6 2.4-2.8-1.6c0-.1-.2-.2-.1-.3l.8-3Zm2.3 5.6 2.2 1.1c.8.5.8.5.6 1.5-.2.7-.3 1.5-.6 2.2l-2.8-1.6c-.2 0-.3-.2-.2-.3l.8-3Zm-8.9-26.4c-.9-.4-1.7-1-2.7-1.4-.1 0-.2-.1-.1-.3l.7-3.1 2.8 1.4v.3l-.7 3.1Zm-7.7 33a671.4 671.4 0 0 1-2.6-1.9l.8-3.3 2.5 1.5.1.3-.8 3.3Zm5.4-38.4-2.8-1.4c-.1 0 0-.3 0-.4l.5-2c.1-.3 0-.7.2-1 1 .5 1.8 1 2.7 1.3.1 0 .2.2.1.3l-.7 3.2Zm4 15.3 3 1.6-.8 3.3-2.6-1.5a.3.3 0 0 1-.2-.4c.1-1 .3-2 .7-3Zm4.6 10.3-2.7-1.5c-.2 0-.1-.3-.2-.4l.5-2.2c0-.3.1-.4.3-.7a120.5 120.5 0 0 1 2.7 1.8l-.6 3Zm6.2 20-2.8-1.5c0-.1-.2-.2-.1-.3l.7-3 2.8 1.7.1.3a31 31 0 0 1-.7 2.9Zm-13.4-36.4-2.7-1.3c-.2-.1-.1-.4-.2-.5.1-.6.2-1.2.5-1.7l.2-1.2 2.7 1.3c.2.1.3.3.1.3 0 1-.3 2-.6 3.1Zm9 26.2 2.7 1.6c.2 0 .2.1.2.3l-.8 2.9-2.8-1.6v-.2l.6-3Zm-6.6-20.7-2.6-1.4c-.2 0-.2-.3-.2-.4l.4-1.7c0-.4.3-.8.3-1.3l2.9 1.5-.8 3.3Zm-4.8-11-2.6-1.3c-.1-.1-.2-.2-.1-.4l.7-3 2.7 1.3c.2 0 .1.2.2.3l-.9 3.2Zm8.6 25.5-2.6-1.5c-.2-.1-.3-.3-.2-.4.3-.9.6-1.9.7-3 1 .6 1.8 1.1 2.8 1.5.1.1.2.2.1.4l-.8 3Zm.4.7 2.7 1.5c0 .1.2.2.1.3l-.7 3-2.8-1.4-.1-.3c.2-1.1.4-2 .8-3Zm-16.4 6.7-2.5-1.5v-.2c.2-1.1.3-2.2.7-3.4l2.5 1.5s.2.1.1.3c-.3 1-.6 2-.8 3.3Zm13.7-12.9-2.6-1.4c-.2 0-.3-.3-.2-.3l.7-3 2.8 1.5v.3l-.7 3Zm-2.4-5.3-2.7-1.5-.2-.3.7-3c1 .4 1.8 1 2.7 1.4 0 0 .2.1.2.3l-.7 3Zm8.6 25.4-2.7-1.6c0-.1-.2-.2-.1-.4l.7-2.8 2.8 1.5.2.4-.9 2.9Zm-15.4-41 2.7 1.3c.2 0 .2.2.1.3-.1 1-.4 2-.7 3.2l-2.6-1.5s-.2-.1-.1-.3l.6-3Zm11 30.7 2.7 1.6c0 .1.2.3 0 .3a98.2 98.2 0 0 1-.6 3l-2.7-1.6c-.2 0-.2-.2-.2-.3l.7-3Zm-6.6-20.6-2.6-1.4c-.1 0-.2-.2-.1-.3l.7-3c1 .4 1.8 1 2.7 1.4l.1.3-.8 3Zm1.8 9.8h.2l1.6 1c1.1.5 1.1.5.8 1.8l-.5 2-2.6-1.4-.1-.3c.1-1.2.4-2.2.6-3.1Zm2.4 5.3a102.4 102.4 0 0 1 2.8 1.9c-.3 1-.6 2-.7 3-1-.6-1.9-1-2.7-1.6l-.1-.3.7-3Zm-7.1-16.1c1 .4 1.8 1 2.6 1.4.2 0 .3.3.1.3l-.6 3c-1-.4-1.8-1-2.7-1.4v-.3c0-1 .4-2 .6-3Zm2.3 5.3 2.6 1.5c.2 0 .3.2.2.3l-.7 3-2.7-1.6v-.3c.2-.8.5-1.8.6-2.9Zm8.3 24.6-2.7-1.5c0-.1-.2-.2-.1-.3l.7-3 2.7 1.7.2.3-.8 2.8Zm-13-35.4 2.6 1.5c.2 0 .2.1.2.3l-.7 3-2.6-1.5-.2-.3c.3-1 .6-2 .7-3Zm10.6 30-1.6-.8c-.3-.2-1-.4-1.2-.7-.1-.4.1-1 .3-1.5l.4-1.6a120.5 120.5 0 0 1 2.8 1.8l-.7 2.9Zm-4.6-10.8-2.6-1.5-.1-.2.7-3c1 .4 1.7 1 2.6 1.4.1 0 .2.2.1.3l-.7 3Zm-4.4-10c1 .4 1.8.9 2.6 1.4.2 0 .2.1.2.3l-.7 3-2.7-1.6v-.3c.1-1 .3-1.9.6-2.9Zm6.8 15.4-2.7-1.6-.1-.3.7-3 2.6 1.6.2.3-.7 3Zm-9.8-17.7.7-3.2 2.6 1.4c0 .1.2.2.1.3l-.7 3c-1-.4-1.8-1-2.7-1.5Zm8.9 21.3c-1-.6-1.9-1-2.7-1.6 0 0-.2-.1-.1-.3l.7-2.9a120.5 120.5 0 0 1 2.7 1.8l-.6 3Zm.2.6 1.8 1c1 .7 1 .7.8 1.8l-.4 1.9-2.7-1.6c-.1 0-.2-.1-.1-.3l.6-2.8Zm-7-16c1 .4 1.8.9 2.6 1.4 0 0 .2.1.2.3l-.7 3-2.6-1.5-.2-.3.7-3Zm2.3 5.3c1 .4 1.8 1 2.7 1.4l.1.4-.5 2.2c0 .2 0 .4-.2.7l-2.5-1.5-.2-.4.7-2.8Zm-1 2.9-1.9-1c-.8-.5-.8-.5-.6-1.6l.4-2 2.7 1.4c.1 0 .2.3 0 .3-.1 1-.3 1.9-.6 2.9Zm2.3 5.3-2.7-1.5v-.3l.6-3 2.6 1.4c.2.1.2.3.1.3 0 1.2-.4 2.2-.6 3.1Zm2.3 5.4-1.8-1c-1-.7-1-.7-.8-1.8l.5-1.9a152.4 152.4 0 0 1 2.8 1.9l-.7 2.8Zm-5.5-7.2-2.5-1.4c-.1-.1-.1-.2 0-.4l.6-3 2.6 1.5.1.3c-.2 1-.4 2-.8 3Zm2.4 5.4-2.6-1.6-.1-.3.6-2.8 2.7 1.5.1.3c-.2.8-.6 1.8-.7 2.9Zm-5.4-7.1-1.8-1.2c-.8-.5-.8-.5-.6-1.4l.4-2.2 2.5 1.4c.1 0 .2.3.1.4l-.6 3Zm2.2 5.3c-.8-.6-1.6-1-2.5-1.5l-.1-.3.6-2.9 2.5 1.5.2.3c-.1 1-.4 1.8-.7 2.9Zm-5-6.5 2.5 1.5s.2.1.1.3l-.6 2.8-2.5-1.5s-.2-.1-.2-.3l.7-2.8ZM1766 504.7l1-4.9c3-13 6-26 8.8-39 .2-.3 0-.5-.2-.6l-28.9-13.6-2-1-.1.7-7.6 40.9c-.1.2 0 .5.3.7l28.5 16.8c0-.1 0 0 .2 0Zm-24.3-26.3-2-1.1c-.3-.1-.4-.3-.3-.7l1-5.4v-.4a21 21 0 0 1 2.4 1.5c0 .9-.3 1.7-.5 2.7-.8-.3-1.5-.8-2.2-1-.1.2 0 .3.1.5a8 8 0 0 1 1.7 1l.2.2c0 1-.3 1.8-.4 2.7Zm21 23.7c.1-1.2.4-2.3.8-3.5l1.7 1c.4.2 1 .3 1 .6.2.3 0 .8-.2 1.2l-.5 2.2c-1-.4-2-1-2.9-1.5Zm11.7-37.9-.7 3.3-2.9-1.4s-.2-.1-.1-.3l.6-3 3 1.4Zm.1-.4-2.6-1.3c-.2 0-.3-.2-.2-.3l.7-3 2.8 1.2.1.4-.8 3Zm-1.6 7.4-2.8-1.3c0-.1-.2-.2 0-.2l.6-3 3 1.4-.8 3.1Zm-3.8 2.3.7-3.1 2.9 1.3v.2l-.6 3.1-3-1.5Zm-8.7 23.4c.9.4 1.7 1 2.5 1.3.2 0 .3.3.1.3l-.7 3.3-2.5-1.5-.1-.3.7-3.1Zm8.6-23 2.7 1.4c.2 0 .2.2.1.3l-.6 3-2.8-1.4c-.1 0-.2-.1 0-.3l.6-3Zm1.5 8.3c-1-.4-2-1-2.8-1.5l-.1-.3.4-2.1.2-.7 2.7 1.3c.2.1.2.2.2.4l-.6 2.9Zm-1.3-24.5 2.6 1.3s.2.1.1.2l-.6 3-2.7-1c-.1-.1 0-.4 0-.4 0-1 .3-2 .6-3Zm-2.5 26.5.7-3.1c1 .5 1.9.9 2.8 1.5.1 0 .1.3 0 .4 0 .7-.3 1.4-.4 2l-.2.8-3-1.6Zm-9.2 11 2.5 1.4v.3l-.6 3.2-2.7-1.5c.3-1 .4-2.2.8-3.4Zm12.9-29.2-2.6-1.2c-.2 0-.2-.2-.2-.3l.7-3 2.6 1.2c.2 0 .3.2.2.3l-.7 3Zm-3.8 18.6 2.7 1.5.2.3c-.2 1-.4 2-.8 3l-2.9-1.6.8-3.2Zm3-15-2.7-1.3c-.1 0-.2-.1-.1-.3l.7-3 2.7 1.3c.1 0 .2.2.1.3l-.7 3Zm-3.8 18.6 2.9 1.5-.7 3.1-2.6-1.5c-.2 0-.2-.2-.2-.3l.5-2.8Zm.1-31.9 2.8 1.3-.7 3.3-2.6-1.2a33.8 33.8 0 0 1 .5-3.4Zm-9.5 42c-.9-.4-1.7-.8-2.4-1.3 0-.1-.2-.2-.1-.3.1-1 .4-2.2.7-3.3l2.5 1.4v.3l-.7 3.3Zm8.7-38.4 2.9 1.4-.7 3.2a185.5 185.5 0 0 1-2.7-1.5c0-1 .3-2 .5-3Zm0 31.8 2.7 1.5s.2.1.1.3l-.6 2.8-2.7-1.5v-.3c0-.9.1-1.8.4-2.8Zm3.6-18.4c-1-.4-1.7-.8-2.5-1.3-.2 0-.2-.2-.2-.3l.7-3 2.8 1.3-.8 3.3Zm-4.5 22c.6.2 1.1.5 1.7.9.3.2.9.3 1 .7.2.4 0 1-.1 1.3l-.4 1.7-2.7-1.5c0-.1-.2-.2-.1-.3l.6-2.9Zm2.1-27.2-2.8-1.3.8-3.2 2.5 1.3c.1 0 .2.1.1.3 0 .9-.3 2-.6 3Zm-4.2-10 .7-3.2 2.8 1.2-.7 3.2-2.8-1.2Zm5.9 18.8-2.1-1c-.8-.4-.8-.4-.6-1.2l.5-2.3 2.9 1.3-.8 3.2Zm-16.3 15 2.3 1.3c0 .1.2.2.1.3-.1 1-.4 2.1-.7 3.2-.8-.4-1.6-.8-2.4-1.4 0 0-.1-.1 0-.2.1-1 .4-2.1.7-3.2Zm15.4-11.4-1.6-.8c-.3-.2-.9-.3-1-.6-.1-.4.1-1 .2-1.3.1-.6.2-1.2.5-1.8l2.5 1.3c.2 0 .2.1.2.3l-.8 2.9Zm-.8-11.9-.7 3.2-2.6-1.3-.2-.2.6-3 3 1.3Zm-4.3-10.1 1.7.7c.3.2.9.3 1 .6.1.3 0 .7-.1 1.1l-.5 2-2.5-1.1-.2-.4.6-2.9Zm2 5-.8 3.2-2.7-1.3.7-3.1c1 .3 1.8.8 2.8 1.2Zm.2 16 2 1c.9.5.9.5.6 1.6l-.5 2-2.5-1.3c-.2 0-.3-.3-.2-.3l.6-3Zm.6-4.1-2.5-1.2c-.2 0-.2-.2-.2-.3l.6-3a189.4 189.4 0 0 1 2.7 1.5l-.6 3Zm-3-17.5c-1-.5-1.9-.8-2.7-1.3l.6-3 2.5 1.1.2.3-.7 2.9Zm-1.3 7.9 2.5 1.2.2.4c0 .5-.2 1-.4 1.5l-.3 1.4-2.4-1.3-.2-.4c.1-1 .3-1.9.6-2.8Zm-11.7 24.5 2.4 1.3.1.3c-.2 1-.5 2-.6 3.1-.9-.5-1.6-1-2.4-1.3v-.3c0-1 .3-2 .5-3.1Zm16.7-2.7-2.6-1.4s-.2-.1-.1-.3l.6-2.8 2.6 1.3c0 .1.2.2.1.3-.1 1-.3 1.9-.6 2.9Zm-1.4-8.7-2.6-1.3c-.2 0-.2-.2-.1-.3l.5-3 2.6 1.3.2.3-.6 3Zm-5.8-18.7.6-3c1 .4 1.9.7 2.7 1.2l-.7 3.3-2.6-1.5Zm6.5 30.9a37 37 0 0 0-2.5-1.4l-.2-.4.5-2.3.1-.3 2.5 1.4c.1 0 .2.2.1.3l-.5 2.7Zm-1.6-8.7-1.3-.6c-.4-.3-1-.4-1.3-.8-.2-.4 0-1 .3-1.4l.3-1.5 2.4 1.2c.2 0 .3.3.2.3-.1 1-.4 1.8-.6 2.8Zm-1.5-8.6c-.8-.5-1.7-.8-2.5-1.2-.2 0-.2-.3-.2-.3l.5-1.7.2-1 2.5 1.2.2.3-.7 2.7Zm-1.5-8.6-2.4-1.2c-.2-.2-.2-.3-.2-.5l.5-2c0-.3 0-.5.2-.8l2.6 1.3-.7 3.2Zm1 27.9.8-3c.8.5 1.6 1 2.4 1.3.2.1.2.2.2.4l-.7 2.8c-.8-.6-1.8-1-2.6-1.5Zm-2.5-36.6c-.8-.2-1.4-.6-2-1-.7-.2-.7-.2-.7-1l.5-2.4 2.5 1.1.1.3c0 1-.2 2-.4 3Zm3.7 29.5-2.5-1.4c0-.1-.2-.2 0-.3l.5-3 2.5 1.4c.1 0 .2.2.1.3 0 1-.3 1.9-.6 3Zm-1.4-8.7-1.4-.7c-.4-.2-1-.3-1.2-.7-.2-.3 0-1 .2-1.3l.3-1.8 2.4 1.3c.2 0 .3.2.2.3 0 1-.3 2-.5 2.9Zm-15 11.4c.9.5 1.6 1 2.4 1.3v.3c0 1-.4 2-.5 3.2l-2.3-1.3-.2-.3.6-3.2Zm12.6-31.8c-.3 1.1-.5 2-.6 3.1l-2.7-1.2c.1-1.1.5-2 .6-3.1l2.7 1.2Zm-1.8 10.5c.2-1 .5-2 .6-3.1l2 .9c.7.4.7.4.6 1.2a26 26 0 0 0-.5 2.3c-1-.5-1.9-.8-2.7-1.3Zm6.4 30.6-2.5-1.5s-.2-.1-.2-.3l.7-2.8 2.5 1.4.1.3-.6 2.9Zm-1.5-8.6-2.5-1.4c-.2 0-.2-.2-.2-.3l.7-2.9 2.5 1.4v.3l-.5 2.9Zm-1.5-8.6-2.1-1c-.6-.4-.6-.4-.4-1l.4-2.3 2.5 1.2a30 30 0 0 1-.4 3.1Zm-3.6-13 2.5 1.2.2.4-.6 2.9c-.8-.5-1.7-.8-2.4-1.3-.2 0-.1-.2-.2-.3l.5-2.9Zm-1.5-8.5c.8.4 1.7.7 2.4 1.2.2 0 .2.1.2.3-.3 1-.5 1.9-.6 3l-2.4-1.2-.2-.4c.3-.9.5-1.8.6-2.9Zm-1.4-8.4 2.5 1 .2.5-.4 1.6-.3 1.2-2.3-1c-.2 0-.2-.3-.1-.3 0-1.1.2-2 .4-3Zm3.7 29 2.4 1.2c.2 0 .2.2.1.3l-.6 2.9-2.5-1.4-.1-.3.7-2.8Zm-1.5-8.6 2.4 1.3c.2 0 .2.1.2.3l-.7 2.8-2.4-1.2-.1-.3.6-2.9Zm3 17 2.5 1.4.2.3-.7 2.9-2.4-1.4c-.2 0-.2-.2-.2-.3l.7-2.9Zm-3.3-32.8c-.1 1-.5 2-.6 3.1l-2.7-1.1.7-3.1 2.6 1.1Zm-1.1 7.4c.6.2 1 .5 1.5.8 1.1.5 1.1.5.9 1.6l-.4 2-2.4-1.2c-.1 0-.2-.2-.1-.3 0-1 .3-2 .5-2.9Zm3.7 28.8 2.5 1.4c.1 0 .2.1.1.3l-.6 2.8c-.9-.4-1.7-1-2.5-1.3v-.2c0-1 .2-1.9.5-3Zm-13.2.1-1.5-.9c-.8-.5-.8-.5-.6-1.4l.5-2.3c.8.5 1.5 1 2.3 1.3l.1.3-.8 3Zm11.7-8.5 2.4 1.4.2.3-.7 2.9-2.4-1.4-.2-.3.7-2.9Zm-1.5-8.5 2 1c.7.4.6.2.4 1l-.5 2.3-2.5-1.2c-.1 0-.2-.3 0-.3l.6-2.8Zm-1-12.7-1.6-.6c-1-.4-1-.4-.8-1.5l.5-2 2.3 1c.2 0 .2.2.3.3l-.7 2.8Zm-1.1 7.4.6-3.1 2.5 1.3.1.3c-.1.5-.3 1-.3 1.6 0 .4-.2.7-.3 1l-2.6-1.1Zm-.4-15.7-2.3-1.1c-.2 0-.2-.2-.2-.3l.6-3 2.7 1.2-.8 3.2Zm5.3 37.4-2.6-1.4.6-3 2.5 1.4s.2.1.2.3c-.3.8-.6 1.7-.7 2.7Zm-5-21.3 2.4 1.1.2.5-.4 1.7-.2 1.1-2.4-1.2c-.2 0-.2-.1-.2-.3l.6-3Zm1.5 8.4 2.4 1.4.1.2-.6 2.8a36 36 0 0 0-2.4-1.2l-.2-.3.7-2.9Zm-2.5-21-1.7-.8c-.8-.4-.8-.4-.7-1.3l.5-2.1c.8.4 1.5.8 2.3 1 .1.1.2.2.1.3 0 1-.3 1.9-.5 3Zm-.4 4.2 1.4.6c.4.1 1 .3 1.1.6.2.3 0 .9-.2 1.3l-.3 1.7-2.4-1.1c-.2 0-.2-.3-.2-.4l.6-2.7Zm1.6 23.2.5-2.9 2.5 1.3s.2.1.1.3l-.6 2.8-2.5-1.5Zm4 9.9-2.6-1.4.6-3 2.3 1.3.2.4c0 .8-.3 1.8-.5 2.7Zm-16.6-9c.8.4 1.5.8 2.1 1.3 0 0 .2.1.2.3l-.7 3-2.2-1.3-.1-.3.7-3Zm8.7-29 2.4 1.1.1.2-.6 3-2.4-1.2v-.3l.5-2.8Zm3 16.8 2.4 1.1.2.3-.6 2.8-2.4-1.2c-.2 0-.1-.2-.2-.3l.6-2.7Zm.5-4.1-2.4-1.2-.2-.3.7-2.8a532.7 532.7 0 0 1 2.5 1.4l-.6 2.9Zm-3-16.8-2.5-1.3.6-3 2.5 1c-.1 1.2-.4 2.2-.6 3.3Zm5.2 37-2-1c-.7-.5-.7-.2-.5-1.2l.5-2.3 2.4 1.4c.1 0 .2.2.1.4 0 .9-.3 1.8-.5 2.8Zm-3.5-12.7 1.5.7c.3.2.9.3 1 .6.2.3-.1.8-.2 1.2l-.4 1.8-2.2-1.2c-.2 0-.3-.3-.2-.4l.5-2.7Zm-.9-12.5-2.4-1.1c-.1 0-.2-.2-.1-.3l.5-2.8 2.4 1.1.1.3a30 30 0 0 1-.5 2.8Zm-3.4-12.6 2.4 1.1.2.3-.6 3c-1-.5-1.7-1-2.5-1.3l.5-3Zm4.8 21-2.4-1.2c0-.1-.2-.2-.1-.3l.6-2.9 2.4 1.2c.1 0 .2.2.1.3l-.6 3Zm.3 15.8 2.5 1.4.1.3-.6 2.9-2.5-1.5.5-3Zm.5-4-2.3-1.3-.1-.3.5-2.8 2.4 1.3.1.3-.6 2.8Zm-6.3-29.3 2.2 1.1.3.3-.7 2.9-2.3-1.1c-.1 0-.2-.2-.1-.3l.6-2.9Zm4.8 21-2.3-1.3c-.2 0-.2-.1-.2-.2l.5-2.8a532.6 532.6 0 0 0 2.5 1.5c0 1-.2 1.8-.5 2.8Zm-1.4-8.4-2.4-1.1c0-.1-.2-.2-.1-.3l.5-2.8a532.6 532.6 0 0 0 2.5 1.4c0 1-.3 1.9-.5 2.8ZM1745 447l2.3 1c.2 0 .2.1.3.2l-.6 3-2.4-1c-.1-.1-.2-.2-.1-.4l.5-2.8Zm7 41-2.4-1.3s-.2-.2-.1-.3l.5-2.8 2.3 1.3c.2 0 .2.3.2.4 0 1-.3 1.8-.5 2.7Zm-1.4-8.3-1.3-.7c-.4-.2-1-.4-1.2-.7-.1-.3.1-.9.2-1.3l.3-1.6 2.3 1.2c.1.1.2.3.1.5l-.4 2.6Zm-11 9-2.2-1.3-.2-.3.6-3 2.1 1.2c.2 0 .3.3.2.4l-.6 3Zm9.5-17.3-2.3-1.2-.1-.3.5-2.8 2.3 1.2c.1 0 .2.2 0 .3 0 1-.3 1.8-.4 2.8Zm-3-16.6-1.2-.5c-.4-.2-1-.3-1-.6-.2-.3 0-1 0-1.3.2-.6.4-1.1.4-1.6l2.2 1 .2.4-.5 2.6Zm-.3 4 1.7.8c.8.3.8.3.6 1.1l-.5 2.3a128.5 128.5 0 0 1-2.3-1.4c0-1 .3-1.9.5-2.8Zm3.6 28.3 2.3 1.3c.2 0 .2.1.2.3l-.6 2.7-2.3-1.3-.2-.4c.1-.9.4-1.7.6-2.6Zm.4-4-2.3-1.3-.1-.2.5-2.8 2.3 1.2c.1 0 .2.1.1.3 0 .9-.3 1.8-.5 2.8Zm-2.9-16.6-1.9-.9c-.4-.2-.5-.5-.4-1l.5-2.3 2.2 1c.1.1.2.2.1.4 0 .9-.3 1.8-.5 2.8Zm1.5 8.3-2.3-1.2c0-.1-.2-.2-.1-.3l.5-2.8c.8.3 1.6.7 2.3 1.2l.1.3c0 .9-.3 1.8-.5 2.8Zm-4.8-20.8 2.2 1.1c.2 0 .2.2.3.3l-.6 2.8-2.2-1.1c-.2 0 0-.2-.1-.3 0-1 .3-1.8.4-2.8Zm2.2 20c.8.3 1.6.7 2.3 1.2l.2.4-.4 1.7c-.1.3 0 .7-.2 1-.8-.4-1.5-.9-2.3-1.2a.3.3 0 0 1-.2-.5l.6-2.7Zm.5-4-2.3-1.3s-.2-.1 0-.2l.5-2.8 2.3 1.2.1.2-.6 2.8Zm2.8 16.4-2.3-1.3s-.2-.1-.1-.3c0-.9.4-1.7.6-2.7l2.3 1.3.1.4-.6 2.6Zm-6.1-29 2.5 1.3-.5 3-2.5-1.2c0-1 .3-2 .5-3Zm5.5 32.4c-.8-.5-1.5-1-2.3-1.3-.2 0-.2-.2-.2-.3.1-1 .4-1.8.6-2.8l2.3 1.3s.2.1.1.3l-.5 2.8Zm-1.5-8.3-2.3-1.2c0-.1-.2-.2-.1-.3l.5-2.8 2.3 1.2.1.3c0 1-.3 1.9-.5 2.8Zm-3.3-12.4 2.2 1.1c.2 0 .3.3.2.4l-.5 2.3v.4l-2.2-1.2c-.2 0-.3-.3-.2-.3l.5-2.7Zm.5-4-2.2-1-.1-.3.5-2.8 2.2 1.1c.2 0 .3.3.2.4-.3.8-.4 1.7-.6 2.6Zm2.1 19.8-1.6-1c-.8-.4-.8-.4-.7-1.5l.5-1.9c.7.4 1.4.9 2.2 1.2.2.1.2.2.2.4-.1 1-.4 1.8-.6 2.8Zm-3.8-9.5.5-3 2.3 1.3.1.3-.5 2.8-2.4-1.4Zm-1-11.1 2.3 1.1c.2 0 .2.2.3.3l-.6 2.8c-.8-.5-1.6-1-2.4-1.3l.5-3Zm2.7 15.7-1.6-.9c-.9-.4-.9-.4-.6-1.3l.4-2 2.3 1.2c.1 0 .2.3 0 .3 0 1-.3 1.8-.5 2.7Zm-.4 4 2.3 1.3.2.3c-.1 1-.4 1.8-.6 2.7-.8-.5-1.5-1-2.3-1.3l-.1-.3.5-2.7Zm-1-12.2-2.4-1.3c.3-1 .5-1.9.6-3 .8.5 1.5 1 2.3 1.2.1 0 .2.2.1.3l-.5 2.8Zm-1 7.4 2.2 1.2s.2.1.1.3c0 .9-.3 1.7-.5 2.7-.8-.4-1.5-.9-2.3-1.2l-.1-.4.5-2.6Zm1.2 7.4-1.5-.9c-.8-.4-.8-.4-.7-1.5l.3-1.8c.8.3 1.5.8 2.2 1.2l.1.3c0 1-.3 1.8-.4 2.7Zm-4-9c.9.4 1.5.8 2.2 1.3l.2.3-.6 2.7-2.2-1.3-.1-.3c.3-.8.4-1.7.6-2.7Zm1.2 7.5-2.1-1.2c-.2 0-.3-.2-.3-.2l.5-2.7 2.1 1.2c.2 0 .2.1.2.3 0 .8-.2 1.6-.4 2.6Zm10-36.3c-1-.3-5.3-2.3-5.4-2.6l5.5 2.6Z"/></g><defs><clipPath id="b"><path fill="#fff" d="m1708.4 518.2-87.1 56.4 47.7 73.8 87.2-56.4z"/></clipPath></defs></svg>