<svg xmlns="http://www.w3.org/2000/svg" width="1554" height="924" fill="none"><path stroke="#212A33" stroke-dasharray="9 9" stroke-linecap="round" stroke-linejoin="round" stroke-width="2" d="M716.4 596.6c289 140.8 674.4 319 720.4 224.6s-265-425.6-554-566.3c-289-140.8-560.6-178.4-606.6-84s151.1 285 440.2 425.8Z"/><g clip-path="url(#a)"><path fill="#252E36" d="m364.5 377.7 46.2-47.2 13.6-14.2 14.6-4.7 5.7 2.4 9.5 12.7 12.1 3.9 11.9-16 2.6-.3 1.6 1.2.3 2.4-11.1 16 7.6 20.5 9.8 9.5-.3 10.8-25.3 62.8-3.8 5.3-6.8-.2-2.7-7.6 3.5-6.4-20.8 13.6.5 12.3-3.6 6.6-11.3-7.9 5.3-11.3-9.2-4-26.3-9-7.3 9.2-4.7-3.4-1.7 2.5-7-4.5.2-3.3 5-5.4 10-3.5-20-36.4-10 2.7-.9-2 12.8-7Z"/><path fill="#5C5F63" fill-rule="evenodd" d="m459.8 443.3 3.9-5.6 25.4-62.9.3-11-9.9-9.6-7.5-20.3L483 318l-.4-2.8-1.9-1.4-3 .3-11.8 16-11.6-3.8-9.5-12.7-6-2.5L424 316l-13.7 14.3-46 47.2-13.2 7.2 1.3 2.8 10-2.7 19.6 35.5-9.6 3.4-5.2 5.6-.3 3.7 7.6 5 1.7-2.5 4.7 3.3 7.3-9.2 26 8.9 8.8 3.7-5.3 11.3 12 8.4 4-7.2-.5-12.1 19-12.5-2.8 5 3 8.1 7.4.1Zm-.5-1-6.2-.1-2.6-7.1 4.3-8-22.6 14.9.5 12.4-3.3 6-10.5-7.3 5.3-11.4-9.6-4.2-26.7-9.1-7.2 9-4.7-3.3-1.8 2.4-6.3-4 .2-2.9 4.8-5.2 10.4-3.7-20.4-37.1-10 2.7-.6-1.3 12.5-6.9L411 331l13.5-14.1L439 312l5.4 2.3 9.5 12.7 12.6 4 12-16.1 2.1-.2 1.4 1 .2 2-11.2 16 7.8 20.9 9.7 9.4-.2 10.5-25.4 62.6-3.5 5Z" clip-rule="evenodd"/><path fill="#5C5F63" fill-rule="evenodd" d="m429.3 384.6 12-1.8v.6l-12.4 1.8-4.3-12.4 19.5-2.3 27.1-36.8.5.3-27.2 37-19 2.4 3.8 11.2Z" clip-rule="evenodd"/><path fill="#394149" d="m415.9 522.3 10.5-58.6-56.9-25.7-4.2 61 50.6 23.3Z"/><path fill="#5C5F63" fill-rule="evenodd" d="m416.1 522.8 10.6-59.2-57.5-26-4.2 61.6 51.1 23.6Zm-.5-1-50-23 4.2-60.3 56.2 25.4-10.3 58Z" clip-rule="evenodd"/><path fill="#5C5F63" fill-rule="evenodd" d="m416.1 522.8 4.6-26.1-53.9-25-1.8 27.5 51.1 23.6Zm-.5-1-50-23 1.8-26.3L420 497l-4.3 24.9Zm5.5-27.6 5.3-29-57.4-25-2 29.6 54.1 24.4Zm-.4-.9-53.1-24 2-28.1 56.1 24.3-5 27.9Zm95-54.4L493 375l-51 5 23 59.3 50.6-.3Zm-1-.6-49.2.3-22.7-58.2 49.8-4.9 22.2 62.8Zm62.9.3-19.8-68.8-59.4 4.6 22.5 64.6 56.7-.4Zm-.8-.7-55.5.5-22.1-63.4 58.2-4.6 19.4 67.5Z" clip-rule="evenodd"/><path fill="#394149" d="m391.1 350.5-26.6 27.2-12.8 7 1 2.1 10-2.7 27.5 1.9 1-35.5Z"/><path fill="#5C5F63" fill-rule="evenodd" d="m390.5 386.3 1-36.5-27.1 27.7-13 7.1 1.1 2.6 10.2-2.8 27.8 2Zm-.6-.6-27.3-1.9-9.8 2.7-.7-1.6 12.6-7 26.1-26.6-.9 34.4Z" clip-rule="evenodd"/><path fill="#5C5F63" fill-rule="evenodd" d="m391 350.8 43.8 21.4.3-.5-43.8-21.4-.3.5Z" clip-rule="evenodd"/><path fill="#394149" d="m343 389.2 32.3-35.5-88-82.2-26 43.3 81.8 74.4Z"/><path fill="#5C5F63" fill-rule="evenodd" d="m375.8 353.6-88.6-82.5-26.3 43.8 82.2 74.8 32.7-36ZM343 388.8l-81.3-74 25.6-42.8 87.6 81.7-31.9 35.1Z" clip-rule="evenodd"/><path fill="#5C5F63" fill-rule="evenodd" d="m374 353.6-41.2-38-28.5 38.7 37 33.7 32.7-34.4Zm-32.8 33.5-36-33 27.7-37.5 40.2 37-31.9 33.5Zm-12.8-74.4L287.7 274 262.2 316l38.2 34.8 28-38.1Zm-28 37.2-37.4-34 24.9-40.9 39.7 37.7-27.3 37.2Zm53.5-27 65.6-2v.5l-65.6 2-13-1.5.1-.6 13 1.6Z" clip-rule="evenodd"/><path fill="#5C5F63" fill-rule="evenodd" d="m398.7 342.5-46.6-19.7-.2.5 46.6 19.8.2-.6Z" clip-rule="evenodd"/><path fill="#394149" d="m416 348.7 7.2-10.3 29 10.5-7.4 10.5-28.8-10.7Z"/><path fill="#5C5F63" fill-rule="evenodd" d="m445 359.7 7.6-11-29.5-10.7-7.6 10.8 29.4 11Zm-.3-.7-28.2-10.5 6.8-9.8 28.4 10.3-7 10Z" clip-rule="evenodd"/><path fill="#394149" d="m452.1 348.9 12.4-17.7-36.3-13.3-10.6 14 3.7 1.6-2.2 3.2 33 12.2Z"/><path fill="#5C5F63" fill-rule="evenodd" d="M452.3 349.3 465 331l-36.9-13.6-11 14.6 3.8 1.6-2.2 3.1 33.6 12.5Zm-.3-.8-32.4-12 2.2-3-3.8-1.7 10.3-13.5 35.8 13-12 17.2Z" clip-rule="evenodd"/><path fill="#394149" d="m447.1 317.4 5.8-9.4-8.5-3.3-5.5 4 8.2 8.6Z"/><path fill="#5C5F63" fill-rule="evenodd" d="m447.1 317.8 6.2-10-9-3.4-5.8 4.3 8.6 9.1Zm0-1-7.7-8 5-3.8 8 3.1-5.4 8.7Zm-2 43 7.7-11L423 338l-7.6 10.8 29.6 11Zm-.3-.7-28.4-10.6 7-9.8 28.4 10.4-7 10Z" clip-rule="evenodd"/><path fill="#5C5F63" fill-rule="evenodd" d="m452.4 349.4 12.7-18-37.6-14.1-10.4 14.8 3.7 1.6-2.1 3.1 33.7 12.6Zm-.2-.8-32.6-12 2.2-3.2-3.8-1.6 9.7-13.8 36.4 13.6-12 17Z" clip-rule="evenodd"/><path fill="#5C5F63" fill-rule="evenodd" d="m462.2 330.4-12.1 17.3h.1l12.1-17.2-.1-.1Zm-2.2-1L447.8 347h.1l12.2-17.3v-.2Zm-2.1-.6L445.8 346v.1l12.2-17.3h-.1Zm-2.2-1-12.2 17.4v.1l12.3-17.4h-.1Zm-2.2-.7-12.2 17.4.1.1 12.3-17.4h-.2Zm-2.2-.9L439 343.8h.2l12.3-17.5-.2-.1Zm-2.1-.7L436.9 343l.1.2 12.3-17.6h-.1Zm-2.2-1-12.3 17.6.1.1 12.3-17.5-.1-.1Zm-2.1-.6-12.4 17.5.2.1L445 324l-.1-.1Zm-2.2-1-12.4 17.7v.1l12.5-17.7h-.1Zm-2.3-.7L428 339.8l.1.1 12.4-17.6-.1-.1Zm-2.2-.7-12.4 17.7h.2l12.4-17.6-.2-.1Zm-2.3-.8-12.4 17.7h.2l12.4-17.6-.2-.1Zm-2.1-.7-12.3 17.5.1.1 12.3-17.5-.1-.1Zm-2.2-1-12.4 17.7.1.1 12.4-17.7h-.1Zm-2.2-.6-10 14.4 10.2-14.3-.2-.1Z" clip-rule="evenodd"/><path fill="#5C5F63" fill-rule="evenodd" d="m420.3 334.8 33.8 11.7v-.2l-33.8-11.7v.2Zm-2.4-3.6 37.6 13.2v-.1L418 331.1v.1Zm1.5-2.1 37.6 13.2v-.2L419.6 329v.2Zm1.5-2 37.6 13.1v-.1L421 326.9v.1Zm1.5-2.3 37.6 13.3v-.2l-37.6-13.2v.2Zm1.4-2 37.6 13.2v-.1L424 322.7v.1Zm1.4-2 37.7 13 .1-.1-37.7-13Zm2-2.7 37.2 13.7v-.2l-37-13.6-.1.1ZM450 348l-7.5 10.6.2.1L450 348h-.1Zm-2.2-.9-7.5 10.7.1.1 7.5-10.7-.1-.1Zm-2.1-.7-7.5 10.6.1.1 7.5-10.6-.1-.1Zm-2.2-1-7.5 10.7h.2l7.4-10.5-.1-.1Zm-2.2-.6-7.5 10.7.1.1 7.5-10.7v-.1Zm-2.3-.8-7.4 10.6h.1l7.5-10.5-.2-.1Zm-2-.8-7.6 10.7h.2l7.5-10.7h-.1Zm-2.3-.8-7.5 10.6h.2l7.4-10.5-.1-.1Zm-2-.9L425 352l.1.1 7.5-10.6h-.2Zm-2.4-.8-7.4 10.6.1.1 7.5-10.6h-.1Zm-2.2-.8-7.4 10.5.1.1 7.4-10.5h-.1Zm-2-.8-7.6 10.7.1.2L426 339Zm-2.4-.8-7.4 10.6.1.1 7.5-10.6h-.2Z" clip-rule="evenodd"/><path fill="#5C5F63" fill-rule="evenodd" d="m416.5 347.3 29.7 10.5v-.2l-29.6-10.4v.1Zm1.7-2 29.5 10.3v-.2l-29.4-10.3-.1.2Zm1.6-2 29.3 10.3v-.2l-29.3-10.2v.1Zm1.5-2.2 29.2 10.4.1-.1-29.3-10.4v.1Z" clip-rule="evenodd"/><path fill="#5C5F63" d="m341.2 387.5 32.5-34.2-40.9-37.6-28.3 38.3c12 11.2 24.4 22.2 36.7 33.5Zm-9.5-9.5-2.9-2.6-2.7-2.5 2-2.3c.3-.4.7-.3.9 0l1.5 1.5c.4.3.5.5 0 .8l-1.5 1.8c-.2.1-.1.3-.2.5l.6-.2 1.6-1.8c0-.1.5-.2.7 0a12.8 12.8 0 0 1 1.8 1.6v.6c-.5 1-1.1 1.7-1.8 2.6Zm37.8-27.3 2.7 2.6c.4.2.2.5 0 .8l-2.5 2.7c-.2.3-.4.3-.7.1l-2.4-2.3c-.3-.2-.3-.4 0-.8l2.4-2.7c.1-.4.3-.5.5-.4Zm-3.7 3.8 2.7 2.5c.2 0 .1.5 0 .6l-2.3 2.4c-.2.3-.5.2-.8 0l-2.3-2.2c-.3-.2-.5-.5 0-.8l2.3-2.4.4-.1Zm-6.5 6.4 2.4-2.6c.1-.1.5 0 .8.1l2.4 2.3c.1.1.2.6 0 .6l-2.3 2.5h-.6l-2.5-2.4c-.1 0 0-.4-.2-.5Zm-21-36 1-1.4c.2-.3.4-.3.7-.1l2.1 1.9c.3.1.3.4 0 .8l-1.5 2c-1.1 1.2-1.1 1.2-2.4.1-.4-.5-1.4-1-1.3-1.6 0-.3.8-.8 1.4-1.8Zm-3.4-3c.5-.3.9-.9 1.2-1.3.1-.3.4-.3.6-.1l2.2 1.9c.1 0 .2.5 0 .7-.7 1-1.3 2-2.2 3-.1.1-.6.2-.6 0-.9-.6-1.5-1.2-2.2-2-.4-.2-.2-.5 0-.8l1-1.3Zm28 22.6 2.3 2.2v.6l-2.5 2.7c-.1.2-.5.1-.6 0l-2.2-1.9s-.2-.5 0-.7l2.4-2.7c.1-.1.5 0 .6-.2Zm-18.2-13.4 1.2-1.4c.2-.2.4-.3.7-.1.7.7 1.5 1.3 2 2 .1.1.2.6.1.7a27.1 27.1 0 0 1-2.4 2.8c-.2.3-.4.3-.8 0l-2-1.8c-.4-.2-.3-.6 0-.8.5-.4.9-1 1.2-1.4Zm13.8 10.3c-.8 1-1.6 1.8-2.2 2.7-.3.4-.5.5-.9 0-.5-.6-1.3-1.3-2-1.8-.3-.2-.3-.4 0-.8.8-.8 1.6-1.7 2.3-2.7.3-.4.5-.4.8 0l2 1.8c.4.3.5.5 0 .8Zm-6.3-6.2c-1 1-1.7 2-2.5 3-.3.3-.5.4-.8 0l-2-1.9c-.1 0-.2-.5-.1-.7a27.1 27.1 0 0 1 2.4-2.8c.2-.2.4-.3.8 0l2.1 2v.4Zm3.4 3-2.7 3c-.1 0-.6.2-.7 0-.8-.5-1.4-1.1-2.1-1.8-.2-.1-.3-.6-.2-.7a27.2 27.2 0 0 1 2.4-2.8c.1-.2.6-.2.7-.1.8.5 1.5 1.2 2.1 1.8.4.1.3.5.5.6Zm-11.1-7.6c-.4.5-1 1-1.2 1.4-.2.2-.4.3-.7 0a14.5 14.5 0 0 0-2-1.7c-.3-.2-.3-.4 0-.8.8-.9 1.5-2 2.2-3 .2-.2.4-.2.7 0 .7.6 1.3 1.3 2.1 1.8.3.2.3.5 0 .9-.5.4-.8 1-1.1 1.4ZM331.6 319c.4-.3.8-.9 1.1-1.3.3-.4.6-.5 1-.1l1.8 1.7c.4.3.3.6 0 1-.6 1-1.4 1.9-2.1 2.8-.3.4-.5.5-.8 0a14.5 14.5 0 0 0-2-1.8c-.3-.2-.2-.5 0-.8l1-1.5Zm33.8 34.3a41 41 0 0 1-2.2-2.2l.1-.7 2.5-2.7c.1-.1.6-.2.7-.1.9.6 1.6 1.3 2.2 1.9v.6l-2.5 2.7c-.3.4-.7.3-.8.5Zm-5.6-11.7 2.1 2c.3.1.3.3 0 .7l-2.4 2.6c-.2.3-.5.5-.8 0l-2-1.8c-.3-.2-.2-.5 0-.8.8-.9 1.6-1.7 2.2-2.7.4-.1.6-.2.9 0Zm-.8 20c1 .8 1.8 1.6 2.5 2.4.2 0 .1.4 0 .6l-2.2 2.3s-.5.2-.6 0c-.8-.9-1.7-1.4-2.3-2.3-.1 0-.2-.5-.1-.7l2.2-2.3h.5Zm-3.5 8.9-2.4-2.3c-.4-.3-.3-.7 0-.9l2-2c.2-.2.4-.3.8 0l2.3 2.2c.3.2.3.5.2.7l-2.2 2.2-.7.1Zm-3-2.1 2.6 2.4c.2.1.1.5 0 .6l-2.1 2.2h-.6c-.7-.7-1.5-1.5-2.4-2.1-.4-.3-.5-.5 0-.9l2-2c0-.1.5 0 .5-.2ZM335 329.1l1-1.3c.3-.4.5-.5.8 0a14 14 0 0 0 2 1.7c.4.3.2.6 0 .9l-2 2.5c-.2.4-.5.4-.8 0l-2-1.8c-.2-.2-.4-.5 0-.8l1-1.2Zm9.5 8.5-1.2 1.4c-.2.3-.4.3-.8 0l-2-1.8c-.3-.2-.2-.5 0-.8a22.3 22.3 0 0 0 2-2.6c.2-.3.4-.3.7-.1l2.1 1.9c.3.2.3.4 0 .8l-.8 1.2Zm10.7 8c-.7.6-1.4 1.6-2.1 2.3-.3.4-.5.5-.8 0l-2-1.8c-.3-.2-.2-.5 0-.8l2.1-2.5c.3-.4.6-.2.9 0 .5.6 1.3 1.3 2 1.8.1.3.2.5-.1 1Zm-23.4-19.4c.3-.3.8-.8 1-1.2.3-.3.5-.3.8-.1a14 14 0 0 0 2 1.8c.2.2.2.4 0 .8l-2 2.6c-.4.4-.6.5-1 0l-1.9-1.8c-.3-.2-.4-.6 0-.8.5-.4.8-.8 1-1.3Zm24.8 25.2 2.4-2.6c.2-.3.4-.3.8 0l2.1 1.9c.2 0 .2.5 0 .6-.8.8-1.5 1.5-2.2 2.5-.2.3-.4.3-.8 0l-2-1.8c-.4 0-.4-.5-.3-.6Zm-6.7-11.6 2.1 1.9c.3.2.3.4 0 .8l-2.2 2.5c-.2.3-.4.3-.8 0-.6-.6-1.4-1.1-2-1.8-.2-.1-.3-.6 0-.8l2-2.4c.2-.5.6-.7.9-.2Zm-21.3-16.6 1.1-1.2c.2-.3.4-.3.7-.2l2.1 2c.2 0 .2.5.1.6-.6 1-1.2 1.8-2 2.7-.3.3-.5.4-.8 0l-1.9-1.7c-.4-.3-.3-.7 0-1l.7-1.2Zm19.2 17.2-1.1 1.4c-.3.4-.6.4-.9 0L344 340c-.4-.3-.5-.5 0-.8l1.7-2.3c.5-.6.5-.6 1.3 0 .3.1.5.4.7.6 1.3 1.4 1.3 1.4.1 2.8Zm-9.5-8.1c.4-.6.7-1 1.2-1.4 0-.2.6-.3.6 0l2.1 1.9c.2 0 .2.5 0 .6-.7 1-1.4 1.6-2 2.6-.3.4-.6.4-.9 0l-2-1.8c-.4-.3-.3-.6 0-.8l1-1.1Zm15 16.2 2.5-2.7c.1-.2.5-.1.6 0 .7.7 1.6 1.3 2.1 1.9.2 0 .1.4 0 .6-.8.8-1.4 1.8-2.3 2.4 0 .1-.5.2-.6 0a14 14 0 0 1-2-1.8c-.3 0-.4-.3-.3-.4ZM332 333l1-1.3c.2-.3.5-.5.7-.2.5.6 1.3 1.4 2 1.8.4.3.3.7 0 .9l-1.3 1.5c-1.2 1.4-1.2 1.4-2.4.2-1.3-1.3-1.3-1.3 0-2.9Zm30.7 18.5 2.2 2.1v.6l-2.3 2.3c-.3.4-.5.2-.8 0-.6-.6-1.3-1-2-1.8-.3-.2-.3-.4 0-.8l2.3-2.4h.6Zm-24.4-12.4c.4-.6 1-1 1.2-1.4.2-.3.4-.3.8 0 .6.5 1.3 1.3 2 1.7.4.3.3.6 0 .9L341 342c-1.1 1.2-1.1 1.2-2.4.1-.4-.5-1.2-.8-1.3-1.3 0-.8.7-1.3 1-1.7Zm13.5 10-2 2.1c-.2.4-.4.5-.8.2l-2-1.8c-.4-.3-.2-.6 0-.8.7-.7 1.3-1.7 2.1-2.6.2-.2.5-.3.9 0 .5.6 1 1.2 1.7 1.6.4.5.5 1 0 1.3Zm-20-16.6-1 1.3c-.2.4-.4.3-.8 0a12.8 12.8 0 0 0-1.8-1.7c-.4-.2-.4-.6-.1-1l1-1.5c1.1-1.5 1.1-1.5 2.4-.2 1.5 1.4 1.5 1.4.3 3Zm21.4 22.5.2-.5c.8-.7 1.3-1.5 2.1-2.4.1 0 .5 0 .8.2a14 14 0 0 1 2 1.8s.2.5 0 .7c-.7.8-1.3 1.6-2.2 2.4-.1.1-.6.2-.6 0l-2-1.8c-.3 0-.3-.2-.3-.4Zm-11.6-13 1.2-1.4c.3-.4.5-.5.8 0 .6.6 1.2 1.2 2 1.7.4.3.3.7 0 .9l-1.3 1.5c-1.2 1.4-1.2 1.4-2.5 0-1.5-1.2-1.5-1.2-.2-2.7Zm7.2 3.8-2.3 2.7c-.2.3-.4.3-.8 0l-2-1.8c-.4-.3-.3-.6 0-.8l2-2.3c.3-.4.6-.3 1 0 .5.7 1.2 1.2 1.8 1.8.4 0 .3.4.3.4Zm-13.6-9.8c.3-.4.6-.9 1-1.2.4-.4.6-.5.9 0a12.8 12.8 0 0 0 1.8 1.7c.5.2.4.6 0 .8l-1.2 1.5c-1.4 1.7-1 1.5-2.4.2-1.4-1.4-1.4-1.4-.1-3Zm14.4 41-2.5-2.4c-.2 0-.1-.4 0-.6.7-.7 1.3-1.5 2-2 .1-.1.6-.2.7-.1.7.7 1.4 1.4 2.4 2 .3.3.2.6 0 .9l-2 2-.6.2Zm-24-49.9 1-1.4c.2-.2.5-.4.7 0 .6.5 1.1 1.1 2 1.7.4.3.3.7.1 1l-1.1 1.6c-1.3 1.5-.8 1.4-2.2.2-1.7-1.3-1.7-1.3-.5-3ZM350 352l2.2-2.5c.3-.4.6-.3.8 0 .6.6 1.3 1 1.9 1.7.4.3.2.5 0 .8l-2.1 2.4c-.2.3-.4.3-.8 0-.6-.6-1.3-1-2-1.8v-.6Zm6.4 6 2.3-2.5c.2-.3.5-.4.9 0 .5.6 1.2 1 2 1.8.3.3.2.5 0 .8l-2.3 2.3c-.1.3-.5.2-.8 0l-2-1.8c0-.2-.2-.5 0-.7Zm-24.6-18.5c-.2.3-.4.7-.9 1-.2.2-.4.3-.7 0-.5-.5-1.4-1-2-1.7-.2-.2-.3-.4 0-.8l1.3-1.6c1-1.3 1-1.3 2.4-.1 1.3 1.5 1.3 1.5 0 3.2Zm3.6 3.3 1-1.3c.4-.4.6-.4.9 0 .6.6 1.3 1 1.9 1.7.4.3.4.5.1 1-.7.7-1.3 1.5-1.8 2.3-.2.3-.5.3-.9 0-.5-.6-1.2-1-2-1.8-.4-.3-.4-.5 0-.8 0-.4.5-.7.8-1.1Zm-9.5-8.7 1-1.4c.2-.4.4-.4.8 0 .5.6 1.1 1.2 2 1.8.2.2.3.4 0 .8-.4.6-.8 1.1-1.2 1.4-1.2 1.4-1.2 1.4-2.4.2-1.5-1.3-1.5-1.3-.2-2.8Zm21.8 19.8c-.3.4-.8.8-1 1.2-.4.4-.6.5-1 0-.5-.6-1.3-1.1-1.9-1.7-.1-.1-.2-.6-.1-.7l1.2-1.4c1.2-1.4 1.2-1.4 2.5-.1 1.7 1.2 1.7 1.2.3 2.7Zm-4.4-6.8c.9.8 1.5 1.3 2.2 2.2.1 0 .2.5 0 .6l-2.1 2.4c-.2.2-.5.3-.7 0l-2-1.7c-.1-.1-.2-.6-.1-.7.5-.8 1.2-1.6 2-2.4.2-.3.6-.2.7-.4Zm3.2 27.8 2.6 2.5v.6a14.5 14.5 0 0 0-1.8 2c-.2.2-.5.3-.9 0l-2.2-2c-.3-.2-.2-.6 0-.8.6-.6 1.1-1.4 1.8-2 .2 0 .4-.1.5-.3Zm6.3-19 2.2 2v.7c-.7.7-1.4 1.6-2.3 2.3h-.6l-2-1.9c-.2-.1-.2-.4 0-.7a20.3 20.3 0 0 0 2-2.3l.7-.2ZM340.1 344c.8.8 1.5 1.3 2.1 2.1.1.1.2.6.1.7-.5.8-1.2 1.6-2 2.5-.2.4-.3.3-.7 0-.6-.6-1.4-1.1-2-1.8-.2 0-.2-.5-.2-.7.7-1 1.4-1.6 2.2-2.5l.5-.3Zm-5-1.9-1.1 1.3c-.3.4-.4.3-.8 0-.6-.6-1.3-1-2-1.8-.3-.2-.3-.4 0-.8l1.2-1.5c1.4-1.7.8-1.5 2.4-.2 1.4 1.4 1.4 1.4.3 3Zm-12.5-11.1s.2 0 0 0l1.1-1.3c.3-.4.4-.3.8 0 .6.6 1.3 1 1.9 1.7.4.3.3.6.2.9l-2 2.4c-.2.4-.4.4-.7 0l-2-1.8c-.3-.2-.2-.6 0-.9l.7-1Zm29.3 24.4-2.3 2.4c0 .2-.5.2-.6 0a13 13 0 0 1-2-1.8v-.6a20.3 20.3 0 0 1 2.1-2.4c.1-.1.6-.2.7-.1l2 1.8.1.7Zm4 3.4 2.1 2c.2.2.1.6 0 .7l-2.2 2.3c-.2.3-.4.3-.8 0-.6-.6-1.3-1-2-1.8-.3-.2-.3-.4-.1-.7l2.2-2.3c.4-.3.6-.3.8-.2Zm-12.5 24.3c-.8-.8-1.5-1.5-2.3-2-.4-.3-.5-.6 0-.9l1.6-1.8c.3-.4.6-.3.9 0l2.2 2c.3.1.3.3.1.6L344 383c-.2.3-.6.2-.6.2Zm-17.3-42.6 1-1.4c.1-.2.4-.3.6-.1l2 1.8c.1.1.2.6.1.7-.3.5-.7 1-1.2 1.4-1 1.3-1 1.3-2.3.2-1.5-1-1.5-1-.2-2.6Zm25.8 21.3-2.3 2.5c-.1.1-.5 0-.8-.1l-1.8-1.7c-.4-.3-.2-.6 0-.9l2-2.2c.1-.3.4-.3.6-.1.6.6 1.4 1.1 2 1.8l.3.8Zm-11.4-5.5 2.2-2.5c.2-.3.6-.2.8 0 .5.7 1.2 1.2 2 1.9.2.2.2.4 0 .8l-2 2.3c-.1.1-.6.2-.7.1l-2-1.8-.3-.8ZM323 337.8l.8-1.2c.4-.6.5-.5 1-.1l1.3 1.1c1.2 1 1.1.8.1 1.9l-.6 1c-1 1.4-1 1.4-2.4.1-1.5-1.3-1.5-1.3-.2-2.8Zm9.4 8.5.8-1.1c.3-.4.5-.5.8 0l2 1.8c.4.2.2.5 0 .8-.2.4-.8.8-1 1.3-1.2 1.4-1.2 1.4-2.5 0-1.4-1.2-1.4-1.2 0-2.8Zm5.1 7.2 2.2-2.5c.1-.2.6-.3.7-.2.8.6 1.4 1.2 2.1 2 .2 0 0 .4 0 .5-.7 1-1.4 1.7-2.2 2.6h-.6l-2-1.9c-.2-.1-.2-.5-.2-.5Zm-8.3-9.9 1.1-1.2c.3-.5.4-.4.9 0l2 1.7c.2.2.2.4 0 .9-.4.5-1 1-1.3 1.5-1.1 1.3-1.1 1.3-2.1.1-1.8-1.4-1.8-1.4-.6-3Zm5.5 6.7 1.7-2c.2-.4.4-.4.8-.1.6.6 1.3 1 2 1.8.2.2.3.4 0 .8l-2 2.3c-.3.4-.6.3-.8 0l-1.5-1.4c-.5-.6-.9-1-.2-1.4ZM319.9 335l.9-1.4c.3-.4.4-.3.7 0l2 1.7c.3.2.3.4 0 .8l-1.1 1.7c-1 1.3-1 1.3-2.2.1-1.5-1.5-1.5-1.5-.4-2.9Zm24 24c.6-.8 1.2-1.6 2-2.3.1-.3.4-.3.8 0 .5.6 1.2 1 2 1.8.2.2.3.4 0 .8l-2 2.2c-.3.4-.5.5-.8 0L344 360c-.5-.4-.7-.7-.3-1Zm6 5.8 2.3-2.4c0-.2.5-.1.6 0 .7.5 1.3 1 2 1.8.3.2.3.4 0 .8l-2.1 2.2c-.1.1-.6.2-.8 0l-2-1.8v-.6Zm-26.6-20.5 1-1.4c.1-.2.3-.3.7 0l1.9 1.7c.4.3.5.5 0 .8l-1.7 2.3c-.3.4-.6.4-.9 0l-1.4-1.4c-.7-.7-.7-.7-.1-1.6 0 .1.3-.1.5-.4Zm14.3 15.4 2.1-2.4c.3-.4.4-.3.9 0l1.8 1.7c.4.2.5.5 0 .8l-1.9 2.1c-.2.4-.5.5-.8 0-.6-.6-1.3-1-1.8-1.7-.3 0-.2-.3-.3-.5Zm-9-9 1.7-1.9c.1-.3.5-.5.6-.1.6.6 1.5 1.2 2 1.8.2 0 .3.5.2.7l-1.9 2.3c-.3.4-.4.3-.8 0l-1.5-1.4c-.7-.7-.7-.7-.2-1.4ZM323 344l-.1.3c-1.1 1.2-1.1 1.2-2.4.1-1.4-1.2-1.4-1.2-.3-2.8l.3-.4c1-1.4 1-1.4 2.4-.2 1.3 1.3 1.3 1.3.2 3Zm23.5 18.9c.7.7 1.6 1.3 2.1 1.9.2 0 .3.5.2.7-.7.7-1.5 1.4-2 2.2-.2.3-.5.3-.9 0-.5-.6-1.2-1-2-1.8 0 0-.2-.5 0-.7a19 19 0 0 1 2-2.2l.6-.1Zm-11-7.6c-.4.4-.8.7-1 1.1-.4.4-.7.6-1.2 0l-1.7-1.5c-.2-.2-.3-.5 0-.9l1.4-1.6c1-1.3.8-1.3 1.9-.1l.2.2c1.6 1.2 1.6 1.2.3 2.8Zm4 1.6-2 2.4c-.3.3-.5.3-.9 0l-1.9-1.6c-.2-.2-.3-.5 0-.9.7-.7 1.3-1.5 2-2 .2-.5.4-.5.7-.1.6.6 1.3 1 1.9 1.7l.2.5Zm-13.1-9.6c.3-.4.6-1 1-1.2.3-.3.5-.3.8-.2.5.7 1.2 1.1 2 1.8 0 .1.2.6 0 .7-.3.6-.6 1-1.1 1.4-1.2 1.4-1.2 1.4-2.4.2-1.5-1.3-1.5-1.3-.3-2.7Zm-9.2-8.6 1-1.4c.2-.3.4-.3.7-.1l1.8 1.7c.3.2.5.5 0 .8l-1 1.5c-1 1.4-1 1.4-2.1.2-1.5-1-1.5-1-.4-2.7Zm28.4 24c-.7.8-1.5 1.5-2 2.4-.2.2-.5.3-.9 0l-1.7-1.6c-.4-.3-.4-.5 0-.8l1.9-2.2c.3-.4.5-.4.8 0l1.9 1.7v.5Zm6.3 5.6-2.2 2.3c-.2.2-.6.2-.9 0l-1.8-1.7c-.2-.1-.2-.6 0-.6l2-2.3c.2-.3.4-.3.8 0 .6.6 1.3 1 1.9 1.7 0 .1 0 .5.2.6Zm-11 18-2.5-2.3c-.3-.2-.3-.5-.1-.7l1.7-1.9c.2-.2.4-.3.8 0 .7.7 1.6 1.3 2.2 2.1.1.1.2.6.1.7l-2.1 2.2ZM320.4 348l.3-.4c1-1.1 1-1.1 2-.2.4.5 1.4 1 1.3 1.3 0 .6-.6 1.2-1 1.7-1.2 1.4-1.2 1.4-2.4.2-1.2-1-1.2-1-.2-2.6Zm6.3 5.6c.2-.4.7-.7 1-1.1.2-.4.5-.5.9-.2l1.7 1.6c.4.3.3.7 0 .8-.3.4-.6.9-1 1.2-1.2 1.4-1.2 1.4-2.5 0-1.3-.9-1.3-.9-.1-2.3Zm7.9 9.8c.8-.8 1.4-1.8 2.3-2.6 0-.2.4-.1.6 0 .6.4 1.4 1.2 2 1.8 0 0 .2.5 0 .7-.5.8-1.2 1.5-1.8 2-.1.2-.6.3-.6 0-1-.4-1.7-1-2.5-1.9Zm-14.4-16-1 1.3c-.2.2-.6.2-.7 0l-2-1.8c-.1 0-.2-.6 0-.7l.9-1.4c1-1.4 1-1.4 2.4-.2 1.6 1.4 1.6 1.4.4 2.8Zm20.6 21.4 2-2.4c.1-.1.6-.2.7-.1.7.4 1.3 1 2 1.8.2 0 .2.5.1.7-.5.8-1.2 1.5-2 2.2 0 .2-.4 0-.5 0l-2-1.8c-.3 0-.2-.3-.3-.4ZM329 356.9c.4-.7 1-1.1 1.4-1.8.3-.4.5-.5.9 0l1.8 1.6c.4.3.2.6 0 .9l-1.6 2c-.3.5-.6.3-.9 0l-1.4-1.3c-.8-.6-.8-.6-.2-1.4Zm-5.7-6.2.4-.5c1.1-1.3.8-1.1 2-.1 1.5 1.5 1.5 1.5.1 3.2-1 1.2-1 1.2-2.3.1-1.2-1.2-1.2-1.2-.2-2.7Zm-9-8.4.7-1.1c.3-.4.5-.5 1-.2l1.5 1.5c.4.3.4.7 0 1.1l-.9 1.4c-1 1.3-1 1.3-2.2.2-1.2-1.4-1.2-1.4-.2-3Zm28.2 23.7c-.8.8-1.5 1.5-2 2.2-.3.4-.6.2-.8 0l-1.8-1.6c-.2-.2-.4-.5 0-.8l1.8-2c.3-.4.5-.4.8 0 .6.6 1.3 1 1.8 1.6l.2.6Zm-10.7-6c.6-.7 1.2-1.3 1.6-2 .3-.4.6-.5.9 0l1.7 1.6c.4.3.4.5 0 .8l-1.9 2.1c-.3.4-.5.3-.8 0l-1.6-1.4c-.2-.4-.3-.7 0-1Zm14.6 9c.7.8 1.3 1.4 2 1.9.3.3.3.7-.1 1a13 13 0 0 0-1.8 2c-.3.4-.5.4-.9 0l-1.8-1.7c-.3-.2-.3-.5 0-.9.6-.5 1.2-1.4 1.8-2 .3-.1.6-.3.8-.2Zm-28.6-17.6.8-1.2c.3-.4.4-.3.7-.1l1.6 1.5c.7.7.7.7 0 1.4l-.7 1c-1 1.3-1 1.3-2.3.2-1.3-1.4-1.3-1.4-.2-2.8Zm5.9 5.5.3-.5c1-1 1-1 2.1 0 .4.4 1.2.8 1.3 1.2 0 .5-.6 1.2-1.1 1.7-1.2 1.4-1.2 1.4-2.4.1-1.4-1.2-1.4-1.2-.2-2.6Zm8.1 9.5 2-2.3c.3-.4.4-.3.8 0l1.9 1.7c.1.1.2.6.1.7l-1.8 2c-.2.3-.4.3-.8 0-.6-.6-1.3-1-1.9-1.7-.3 0-.4-.3-.3-.4Zm8.4 3c.7.8 1.6 1.3 2.1 2 .2 0 .1.4 0 .5-.5.9-1.2 1.5-1.9 2.2-.2.2-.4.3-.7 0l-1.8-1.6c-.1-.1-.2-.6-.1-.7.5-.8 1.2-1.4 1.9-2.1l.5-.2Zm-25.5-20.9.8-1c.3-.5.5-.5.8 0l1.9 1.6c.2.2.3.4 0 .8l-1.7 2.1c-.3.4-.5.5-.8 0l-1.3-1.3c-.7-.7-.7-.7-.1-1.5l.4-.7Zm14.2 14.8 1.7-2c.3-.5.5-.5.8 0 .6.5 1.3 1 1.8 1.6.3.2.4.5 0 .9-.6.5-1.1 1.4-1.7 2-.3.3-.6.4-.9 0-.4-.6-1-1-1.5-1.5-.4-.3-.5-.6-.2-1Zm-16.1-19.2 2.4 2.3v.6c-.6.8-1 1.5-1.8 2.2 0 .2-.5.2-.7.2l-1.8-1.7c-.1-.1-.3-.5-.2-.6l2-3Zm8 10 .8-1.2c.2-.3.4-.3.7-.1l1.8 1.7c.2.1.2.6.1.7-.2.4-.6 1-1 1.3-1.1 1.2-1.1 1.2-2.3.2-1.4-1.2-1.4-1.2-.2-2.6Zm9.7 6.7-2 2.2c-.3.4-.4.4-.8 0l-1.9-1.6c-.4-.3-.2-.6 0-.9a14.3 14.3 0 0 0 1.7-2c.1-.3.4-.4.6-.2l1.9 1.7c.4.3.3.7.5.8Zm6.7 6 2.2 1.8v.6c-.6.9-1.3 1.6-2 2.3h-.6l-2-1.8c-.2-.1-.1-.5 0-.6l1.9-2.1c.2-.3.4-.3.5-.2Zm6.1 5.4c.8.8 1.6 1.3 2.2 2v.5l-2 2.2c0 .1-.5.2-.7 0l-1.8-1.6c-.1-.1-.2-.6 0-.6.6-.8 1.2-1.4 2-2.1-.1-.3.2-.2.3-.4Zm-28.3-17.4.2-.3c1-1.2 1-1.2 2.2-.2 1.4 1.1 1.4 1.1.3 2.8-1.2 1.4-1.2 1.4-2.5.3-1.4-1.2-1.4-1.2-.2-2.6Zm6 5.4.2-.4c1.1-1.3.8-1.3 2.2-.2.5.4 1.2 1 1.3 1.4 0 .6-.8 1-1.2 1.6-1 1.3-1 1.3-2.3.2-1.3-1.1-1.3-1.1-.3-2.6Zm12.4 9.7-1.7 1.9c-.3.4-.5.4-.8 0l-1.8-1.6c-.2-.2-.3-.4 0-.7l1.7-2c.3-.4.5-.3.9 0l1.5 1.5c.5.2.6.6.2 1Zm3.7 7.5-2-1.8c-.1-.1-.2-.6-.1-.7l1.8-2c.2-.3.4-.3.8 0 .6.6 1.3 1 1.9 1.7.2.2.3.4-.2.7-.6.6-1.1 1.4-1.8 2l-.4.1Zm-25-25.3.2-.4c1-1.4.7-1.3 2-.2 1.4 1.4 1.4 1.4.3 3-1 1.4-1 1.4-2.4.2-1.3-1.3-1.3-1.3-.2-2.6Zm18.5 14.9-1.9 2c-.2.4-.4.4-.8.1l-1.7-1.6c-.4-.3-.5-.5-.2-1 .6-.5 1.1-1.2 1.7-2 .2-.3.4-.3.8 0 .6.6 1.3 1 1.8 1.7.3.2.3.5.3.8Zm-3.9-1.7c-.3.4-.6.5-.9 1-.3.4-.5.4-.9.1l-1.6-1.5c-.4-.3-.4-.5 0-.8l1.7-2.1c.2-.4.6-.4.8 0l.8.8c1.3 1 1.3 1 .1 2.5Zm-9.3-7 1.5-1.8c.3-.4.5-.5.8 0l1.7 1.6c.3.2.3.4 0 .8-.4.7-1.1 1.4-1.6 2-.2.4-.4.4-.9.1l-1.5-1.5c-.3-.4-.5-.7 0-1.2Zm-8.4-8.9.9-1.2c.1-.2.6-.2.6 0 .7.5 1.3 1 1.8 1.7.2 0 .3.5.2.7l-1 1.3c-1 1.4-1 1.4-2.2.3-1.4-1.5-1.4-1.5-.3-2.8Zm22.9 23 2-2.3c0-.2.6-.2.7-.1.7.4 1.2 1 1.8 1.7.3.2.3.4 0 .8l-1.7 2c-.2.2-.5.3-.9 0l-1.7-1.6c-.1 0 0-.5-.2-.6Zm8.5 3.1 2 1.8c.2.1.2.6 0 .6l-1.8 2c-.2.3-.5.2-.8 0-.6-.6-1.3-1-1.7-1.6-.2-.1-.2-.6 0-.6l1.8-2c.2-.3.4-.3.5-.2ZM314 361.8a132 132 0 0 1-2.3-2.3v-.6l1.7-2c.2-.3.5-.3.7-.2.6.7 1.3 1.1 1.9 1.7.1.1.2.6 0 .7-.6 1-1.3 1.7-2 2.7Zm6 5.4c-.7-.7-1.4-1.5-2.3-2-.2-.2-.3-.4 0-.7l1.5-2c.3-.4.5-.4.8 0l1.9 1.7c.1.1.2.6 0 .7l-1.9 2.3Zm-9-8.1c-.7-.7-1.5-1.3-2-2.2-.2 0-.2-.4 0-.6l1.3-2c.3-.4.6-.4.9 0l1.7 1.6c.1 0 .2.5.1.7l-2 2.5Zm6 5.4-2.4-2.1v-.6c.5-.7 1.1-1.5 1.7-2 .1-.2.6-.3.7-.2.7.5 1.3 1 2 1.8.1 0 0 .4 0 .4-.6 1-1.3 1.7-2 2.7Zm6.3 5.8 2-2.4h.7l1.8 1.7c.3.2.3.4 0 .8-.7.8-1.2 1.6-2 2.3l-2.5-2.4Zm-16.7-17.6.3-.4c.9-1.2.9-1.2 2-.2 1.4 1.4 1.4 1.4.2 2.8-1 1.3-1 1.3-2.3.2-1.1-1-1.1-1-.2-2.4Zm16.1 17.2-2.2-2c-.2 0 0-.4 0-.6l1.7-2c.2-.3.4-.4.7-.2l1.8 1.7c.1.1.2.6.1.7-.5.8-1.3 1.5-2 2.4Zm11.8 10.7-2.4-2v-.5l1.7-2c.1-.2.5-.1.6 0 .7.5 1.3 1 1.9 1.7.1 0 .2.5 0 .6-.3.6-1 1.3-1.8 2.2Zm.6.4c.7-.7 1.2-1.6 2-2.2.2-.1.6-.2.8-.1.7.5 1.2 1.1 1.8 1.7.2.1.1.5 0 .6l-2.2 2.3-2.4-2.3Zm-6.7-68.4L288 274.2l-1.7 2.7-5.1 8.4a545.8 545.8 0 0 0-8.5 14.1l-7.2 12-2.5 4.1c-.3.4-.2.5.2 1 3.4 3.2 6.9 6.2 10.3 9.5 4.1 3.7 8.2 7.3 12.4 11.3l11.4 10.4 3.4 3.2c9.3-13 18.6-25.7 27.9-38.3Zm-41 19.7c.9.8 1.7 1.4 2.3 2.3.1 0 .2.5.1.7l-1.4 2-.1.5.2.2 2-2.9 2.3 2.2c.2.2.2.4.1.5l-2 2.9-5.7-5.2c.8-1.1 1.5-2 2.2-3.2Zm37.4-15.7-3.1-3 2.7-3.8 3.1 3-2.7 3.8Zm-6.1 1 2.5-3.6 3.1 3-2.5 3.6a38.9 38.9 0 0 0-3.1-3Zm-27-32.4-2.7-2.5a.4.4 0 0 1-.1-.5l2.3-3.8 2.7 2.5v.6a35 35 0 0 1-2.2 3.7Zm27.3 39-2.2-1.9c-1.1-1-1.1-1-.1-2.1l1.6-2.3c1.2 1 2.1 2 3.1 3l-2.4 3.4Zm-24.4-42.6 2.7 2.5c.2 0 .2.3.1.4a40.4 40.4 0 0 1-2.4 3.8l-3-2.8c1-1.2 1.8-2.5 2.6-4Zm3.5 9.7-2.5-2.4c-.2 0-.1-.4 0-.6l1.5-2.5.7-1 2.6 2.4c.1.1.2.6.1.7l-2.4 3.4Zm-9.7-9.2c-1-1-2-1.8-2.9-2.9l2.5-4 2.6 2.3c.1.1.2.6.1.7l-2.3 3.9Zm13 6 2.6 2.3c.2.1.2.3.1.5l-2.5 3.5-2.5-2.4c-.2 0-.1-.5-.1-.5l2.5-3.5Zm10 9.3 2.5 2.4c.1 0 .2.3.1.4l-2.6 3.7-2.8-2.6 2.7-4Zm-6.6-6.3 2.5 2.4c.2.2.2.4.1.5l-2.5 3.5-2.5-2.4c-.2 0-.1-.4 0-.6l2.4-3.4Zm3.3 3.2a32 32 0 0 1 2.7 2.7l-2.7 3.8-2.5-2.4c-.2-.1-.1-.5-.1-.5l2.6-3.6Zm6.4 6.1 1.4 1.4c1.3 1.3 1.3 1.3.3 2.8l-1.6 2.3-2.6-2.4c-.1 0 0-.4 0-.4l2.5-3.7Zm3.3 3.1 2.6 2.4v.5l-2.4 3.5-2.9-2.6 2.7-3.8Zm-4.7 21.7 2.4-3.4 3 3-2.4 3.3-3-2.9Zm8-18.6c.7.7 1.3 1.4 2 1.8 1 1.2 1 .7.2 1.8l-2 2.9-2.6-2.5c-.2 0-.1-.4 0-.6l2.4-3.4ZM310.3 329l2.4-3.4 3 3-2.4 3.3-3-2.9ZM288.5 283l2.8 2.5v.6c-.4.4-.6.8-.8 1.3l-1.3 2.2-2.5-2.5c-.2 0-.1-.4 0-.6a15.4 15.4 0 0 1 1.8-3.5Zm3.4 3.1 2.7 2.5v.5a33.4 33.4 0 0 1-2.2 3.5l-2.7-2.5c-.2-.1-.1-.5 0-.6.8-1.1 1.3-2.1 2.1-3.4Zm-6.6-6.2 2.5 2.4c.2.1.2.3.1.5-.6 1.1-1.4 2.2-2 3.5l-2.8-2.5v-.6c.8-1 1.3-2 2.2-3.3Zm9.8 9.4 2.6 2.3c.1.1.2.4 0 .5l-2.3 3.4-2.4-2.3c-.2-.1-.1-.5 0-.6l2.1-3.4Zm13.5 18.7-2.6-2.4c-.1-.1-.2-.3 0-.5l2.3-3.4 2.6 2.4v.5l-2.3 3.4Zm-6.8-12.4 2.5 2.3c.1.1.3.4.2.6l-2.4 3.4-2.4-2.4c-.2 0-.1-.4-.1-.4.7-1.3 1.5-2.4 2.3-3.5Zm-3.2-3.1a83.2 83.2 0 0 1 2.6 2.8l-2.4 3.4-2.8-2.6 2.6-3.6Zm12.1 43a29.6 29.6 0 0 1-3.1-3l2.3-3.3 2.8 2.6c.2.1.1.5 0 .6-.5 1-1.2 2-2 3.1Zm-28-51.4 2.5 2.5c.2 0 .2.3.1.4-.6 1.2-1.4 2.3-2 3.6l-2.8-2.5a.4.4 0 0 1 0-.5c.7-1 1.5-2.1 2.2-3.5Zm6.6 6.3 2.6 2.5c.2.1.2.3.1.5-.6 1.2-1.4 2.2-2.2 3.5l-2.7-2.5a.4.4 0 0 1-.1-.5l2.3-3.5Zm-2.8 3.3-2.6-2.4c-.1 0-.3-.4-.2-.5l2.1-3.6 2.7 2.5c.2 0 .2.3.1.4-.7 1.4-1.5 2.4-2.1 3.6Zm18.6 5 2.6 2.4c.1.1.2.3 0 .5l-2.3 3.4-2.8-2.6 2.5-3.7Zm-12.3 1-2.4-2.2a.4.4 0 0 1-.1-.5c.6-1.2 1.4-2.3 2.2-3.5l2.6 2.4c.1.1.2.3 0 .5l-2.3 3.4Zm25.2 11 2.7 2.6c.1 0 .2.3 0 .4l-2.2 3.3-2.6-2.4a.4.4 0 0 1 0-.5l2-3.3Zm-24.6-10.5 2.4-3.6 2.5 2.3v.5l-2.3 3.4-2.6-2.6Zm5.7-.4 2.5 2.3s.1.3 0 .4l-2.4 3.4a119 119 0 0 1-2.4-2.3.4.4 0 0 1 0-.4l2.3-3.4Zm12.5 5 2.5 2.4c.2.1.2.4.1.5l-2.4 3.4-2.5-2.4c-.2 0-.1-.5 0-.6l2.3-3.3Zm-9.3-2 2.5 2.4c.2 0 .2.3.1.5l-2.3 3.2-2.8-2.6 2.5-3.5Zm5 30.1 2.9 2.6v.5c-.6 1-1.4 2-2.2 2.9l-3.1-2.8c.9-1 1.6-2 2.4-3.2Zm7.8-18.9-1.3-1.3c-1.5-1.4-1.5-1.4-.3-2.8l1.5-2 2.8 2.5a42 42 0 0 0-2.7 3.6Zm-9.3-2-2.4-2.4c-.2 0-.4-.4-.3-.5l2.3-3.3 2.5 2.3v.5a32 32 0 0 1-2.1 3.3Zm-22.4-20.5 2.5 2.5c.2 0 .2.3.1.4l-2 3.5-2.6-2.4a.4.4 0 0 1 0-.5c.6-1.2 1.1-2.2 2-3.5Zm-3.3-3 2.5 2.3c.2.1.2.4.1.5l-2 3.4-2.8-2.6 2.2-3.7Zm25.3 54-3-2.8 2.1-3 3.1 2.7-2.2 3.1ZM287.2 301l-2.6-2.4a.4.4 0 0 1 0-.5c.5-1.2 1.3-2.3 2-3.3l2.6 2.4c.2 0 .2.3.1.4-.8 1.1-1.4 2.3-2.1 3.4Zm21.9 14.2-2.6-2.4a.4.4 0 0 1 0-.5l2.2-3.3 2.6 2.4c.1.1.2.4 0 .5l-2.2 3.3Zm6.4 5.9-2.9-2.6 2.5-3.6 2.6 2.4c.1.2.2.4 0 .5l-2.2 3.3Zm-25.7-23.3 2.6 2.4c.1.1.2.3 0 .5l-2.1 3a156 156 0 0 0-2.5-2.2.4.4 0 0 1 0-.5l2-3.2Zm22.2 14.1 2.5 2.4c.2.1.2.3.1.5l-2.3 3.3-2.8-2.7 2.5-3.5ZM293.2 301l2.5 2.3v.5l-2.2 3.2-2.5-2.3v-.6c.7-1.2 1.5-2 2.2-3Zm3.3 2.9 2.7 2.5-2.4 3.4-2.6-2.4v-.5c.8-.8 1.4-1.8 2.3-3Zm-18.3-5h-.1l-1.7-1.6c-.9-.8-.9-.8-.3-2l1.6-2.6 2.6 2.5v.6l-2 3.2Zm21.7 14-2.6-2.3a.4.4 0 0 1 0-.5l2.2-3.3 2.4 2.3c.2.1.2.4.1.5-.6 1.2-1.4 2.3-2.1 3.4Zm-19-17.1 2.5 2.4c.2 0 .2.3.3.6a31.9 31.9 0 0 1-2.2 3.3l-2.4-2.3c-.2-.1-.1-.5-.2-.7a27.4 27.4 0 0 1 2-3.3Zm3.1 3 2.6 2.4c.1.1.2.3 0 .5-.6 1.2-1.2 2.1-2 3.2l-2.6-2.4v-.6a29 29 0 0 0 2-3.1Zm19 17.2-2.6-2.4a.4.4 0 0 1 0-.5l2.3-3.3 2.4 2.4c.1 0 .2.3 0 .4-.4 1.3-1.2 2.2-2 3.4Zm-15.8-14.2 2.5 2.4c.2.1.2.4.1.5l-2.2 3.1a219 219 0 0 0-2.4-2.3v-.6c.7-1 1.4-1.9 2-3Zm18.7 11.2 2.7 2.5a280 280 0 0 1-2.3 3.4l-2.7-2.5 2.3-3.4Zm6.4 5.9 2.6 2.4c.2.1.2.3.1.5l-2.2 3-2.6-2.3v-.5l2.2-3.1Zm-7.3 24-2.2 3.2-2.8-2.6a.4.4 0 0 1-.1-.5c.7-1 1.3-1.9 2.1-2.8l3 2.7Zm-7.7-26-2.4-2.3c-.1-.1-.2-.4 0-.5l2.1-3.1 2.4 2.3c.2 0 .4.4.3.5-1 1-1.6 2-2.4 3Zm-6.4-6-2.7-2.5 2.4-3.4 2.4 2.4c.2 0 .2.3.1.4L291 311Zm12.8 11.9-2.5-2.4a.4.4 0 0 1-.1-.5l2.3-3.3 2.4 2.4c.1 0 .2.3 0 .4-.6 1.3-1.3 2.3-2 3.4Zm5.7-.9-2.4-2.3c-.1-.1-.2-.3 0-.5l2.2-3.2 2.8 2.6c-1 1-1.7 2.2-2.6 3.4Zm-2.6 3.8-2.5-2.3c-.1-.1-.2-.3 0-.5l2.1-3.1 2.7 2.5-2.4 3.4ZM294 313.9l-2.7-2.5 2.4-3.4 2.7 2.5-2.4 3.4Zm-18.9-17.1 2.6 2.4c.1.1.2.3 0 .5L276 303l-2.5-2.3a.4.4 0 0 1 0-.5c.3-1.1 1-2.3 1.7-3.4Zm3.2 3 2.5 2.4c.2.1.2.4.1.5-.6 1.2-1.3 2.1-2 3.2l-2.5-2.3v-.7c.6-1 1.1-2 1.9-3Zm3.8 9-2.4-2.3a.4.4 0 0 1 0-.5c.5-1.2 1.2-2.1 2-3.2l2.4 2.3v.5c-.7 1-1.3 2.3-2 3.2Zm17.8 5 1.6 1.5c1.1 1 1.1 1 .3 2.2l-1.6 2.2-2.4-2.3c-.1-.1-.2-.6-.1-.7.8-.9 1.5-1.8 2.2-3Zm-15.2-8 2.5 2.3c.2.1.2.4.1.5l-2.2 3.1-2.4-2.3c-.1 0 0-.4 0-.4.7-1.1 1.2-2.2 2-3.3Zm12.7 11.9a98 98 0 0 1 2.4 2.3c.2.1.2.3.1.5l-2.2 3.1-2.4-2.3c-.2-.1-.2-.4-.1-.5l2.2-3.1Zm3.1 2.8 2.4 2.3c.2.1.1.5.1.5l-2 3c-1-.8-1.8-1.7-2.5-2.4-.2 0-.2-.3 0-.4l2-3Zm-.2 28.9-2.8-2.6a.4.4 0 0 1-.1-.5l2-2.9 2.8 2.7c.2 0 .2.3.1.4l-2 2.9Zm6.8-23.3 2.4-3.4 2.7 2.5-2.4 3.4-2.7-2.5Zm-19.1-17.3 2.7 2.6-2.4 3.4-2.4-2.4c-.2 0-.1-.4-.1-.4l2.2-3.1Zm16 20.5-2.4-2.3a.4.4 0 0 1 0-.5l2.2-3.1 2.4 2.3v.5l-2.1 3Zm-12.5-11.7-2.4-2.3a.4.4 0 0 1 0-.4l2.1-3.2 2.3 2.3c.2 0 .1.4 0 .6-.5 1-1.2 2-2 3Zm15.6 14.6-2.7-2.5 2.3-3.3 2.7 2.5-2.3 3.3ZM273.4 307l-2.6-2.4a.3.3 0 0 1 0-.5l1.9-3.3 2.4 2.3c.2.1.2.3.1.5a15.1 15.1 0 0 1-1.8 3.4Zm2.6-3 2.5 2.3c.2.1.2.4.1.5a28.1 28.1 0 0 1-2 3.2l-2.5-2.3v-.5c.6-1.1 1.1-2.2 1.9-3.3Zm3.7 8.8-2.6-2.4c-.1-.1-.2-.3 0-.5.5-1 1.2-2.1 2-3.2l2.6 2.4v.5c-.6 1.2-1.3 2.1-2 3.2Zm3.1 2.8-1.4-1.4c-1.2-1-1.2-1-.4-2.5.5-.6 1-1.3 1.3-2.1l2.5 2.3c.1.1.2.6.1.7l-2.1 3Zm15.1 8.8 2.5 2.3v.5l-2 3-2.8-2.5 2.3-3.3Zm-6-6.2 2.4-3.4 2.5 2.3c.1 0 .1.3 0 .4l-2.1 3.2-2.7-2.5Zm3 3.3 2.7 2.5-2.3 3.2-2.4-2.3c-.1 0-.2-.3 0-.4l2-3Zm-9.4-8.6 2.3 2.2c.2 0 .2.3.1.4l-2.2 3.2-2.7-2.5 2.5-3.3Zm.9 6 2.3-3.3 2.2 2.3c.2 0 .3.5.3.5l-2.1 3-2.7-2.5Zm3.1 3 2.3-3.2 2.4 2.3c.2 0 .2.3.1.5l-2 3-2.8-2.6Zm-15.3-8.3-2.5-2.4c-.2 0 0-.2-.1-.4l1.8-3.2 2.4 2.3c.2.1.1.5.1.5-.3 1.3-1 2.3-1.7 3.2Zm-3-2.8-2.5-2.3c-.2 0-.2-.3-.1-.4l1.8-3.2 2.5 2.3v.5l-1.8 3.1Zm6.2 5.9-2.5-2.4a.4.4 0 0 1 0-.4c.5-1 1.2-2 2-3.1l2.4 2.3v.5l-2 3Zm18 11.4 2.3 2.2v.5l-2 3-2.4-2.3v-.6l2-2.8Zm-12.8-12-2.2 3.3-2.3-2.3c-.2 0-.2-.3-.1-.4.5-1 1.2-2 2-3.1l2.6 2.5Zm4 9-2.3-2.1c-.1-.1-.2-.4 0-.5l2-3 2.6 2.4-2.3 3.3Zm-5.8-5.2 2.3-3.3 2.3 2.2c.1.1.3.5.2.6l-2 3-2.8-2.5Zm20.8 13.1-2.7-2.4 2.3-3.3 2.4 2.3v.6l-2 2.9Zm.3.5 2.3-3.3 2.6 2.4-2.3 3.3-2.6-2.4Zm-12.2-5.5-2.3-2.2a.4.4 0 0 1 0-.5l2-3 2.4 2.2c0 .1.2.6 0 .7l-2 2.8Zm-18.5-16.5 2.5 2.4c.1 0 .3.4.2.5-.5 1-1.2 2-2 3.1l-2.4-2.3c-.1-.1-.2-.3 0-.5.4-1 1.1-2 1.7-3.2Zm3.8 8.8-2.4-2.3a.4.4 0 0 1 0-.5c.5-1 1.1-2 1.9-3l2.4 2.3c.2 0 .2.3.1.4l-2 3.1Zm17.3 4.8 2.3 2.2c.2.2.2.4.1.5l-2 3-2.4-2.2v-.6l2-2.9Zm-24.2-16.4 2.5 2.4s.1.3 0 .4l-1.8 3.2-2.4-2.3c-.2-.1-.1-.5-.1-.5l1.8-3.1Zm30.8 28a155 155 0 0 1-2.4-2.4c-.2 0-.2-.3-.1-.5l2-3 2.5 2.4c.1 0 0 .4 0 .4l-2 3Zm-21.4-19.3 2.4 2.3c.2 0 .2.3.1.4l-2 3-2.4-2.2c-.1 0-.2-.3 0-.5.6-1 1.1-2 1.9-3Zm24.5 22-2.7-2.5 2.2-3.1 2.3 2.2.1.7-1.9 2.7Zm-21.3-19 2.3 2.2v.5l-2 3-2.4-2.3a.4.4 0 0 1 0-.4l2-3Zm6.6 11.3-2.3-2.2a.4.4 0 0 1 0-.4l2-2.9 2.4 2.3v.5c-.7.7-1.3 1.6-2.1 2.7Zm3 2.7-2.3-2.2a.4.4 0 0 1-.1-.4l2.1-3 2.6 2.4-2.3 3.2Zm-8.7-8c.7-1.2 1.4-2.1 2.2-3.2l2.5 2.4-2.2 3.1-2.5-2.4Zm17.4 11 2.3 2.1c.1.1.2.4 0 .5l-2 2.9-2.6-2.6c.9-1 1.5-1.9 2.3-3Zm-30-22 2.4 2.3v.5l-1.8 3-2.5-2.4a.4.4 0 0 1 0-.5c.6-1 1.3-1.9 1.8-3Zm3 2.8a214.5 214.5 0 0 1 2.7 2.6l-2 3.1-2.3-2.2a.4.4 0 0 1-.1-.5l1.7-3Zm24.4 22-2.3-2.3a.4.4 0 0 1 0-.4l2-2.9 2.5 2.4-2.2 3.1Zm-30.5-27.7 2.4 2.3c.2 0 .2.3.1.4l-1.8 3a104 104 0 0 1-2.4-2.2.4.4 0 0 1 0-.5l1.7-3Zm9.2 8.6 2.4 2.3c.1.1.2.4 0 .5l-2 2.9-2.2-2.3a.4.4 0 0 1-.1-.4l1.9-3Zm8.9 8.1-2.2 3.1-2.3-2.2a.4.4 0 0 1 0-.5l2-2.8 2.5 2.4Zm-3.1-2.8-2.2 3.1-2.3-2.2a.3.3 0 0 1-.1-.4l2-2.9 2.6 2.4Zm3.5 3.3 2.6 2.4-2.2 3.2-2.6-2.5 2.2-3Zm9 7.5-2.4-2.3a.4.4 0 0 1-.1-.5l2-3c1 .8 1.6 1.6 2.4 2.3.1 0 .1.3 0 .4a28.3 28.3 0 0 1-2 3.1Zm.5 6.3-2.6-2.5 2.2-3 2.6 2.3-2.2 3.2Zm2.5-2.7 2.6 2.4-2.3 3a131 131 0 0 1-2.2-2.1c-.2-.1-.1-.5-.1-.5l2-2.9Zm73.1 100-.3.6-2 28.4c0 .4 0 .5.3.6 8.7 3.9 17.1 7.8 25.8 11.6l27 12.2.4.2.2-.5 4.9-27.8c0-.4 0-.6-.3-.7l-18.7-8.2-37.2-16.3-.1-.1Zm28.4 42.4c.1-.7.2-1.4.5-2.3 1.2.5 2.3 1 3.5 1.7l.1.3c0 .6 0 1-.2 1.5 0 .3 0 .6.5.5l.3-2.2c1.3.5 2.5 1 3.5 1.6.1.1.3.2.2.3l-.4 2.2h-.3l-4.8-2.1-2.9-1.5c-1.4-.5-2.6-1.2-4-1.8l-.3-.2.4-2.2c1 .6 2 .9 3 1.4 1 .5 1 .2.8 1.3l-.1.8c-.2.2-.1.7.2.8Zm22-16.6a177.2 177.2 0 0 0 4.7 2.3c0 .7-.3 1.6-.4 2.3a297.3 297.3 0 0 0-4.7-2.2l.4-2.4Zm-.5 2.9c1.5.7 3 1.2 4.5 2 .1 0 .3.1.2.2l-.5 2.4a202 202 0 0 0-4.5-2l-.2-.3.5-2.3Zm3.8 7.3c-.1.1-.3 0 0 0a181.3 181.3 0 0 0-4.6-2.2l.4-2.3 4.5 2c.2 0 .3.1.2.3a8.3 8.3 0 0 0-.5 2.2Zm-2.7-13 4.5 2c.2 0 .3.1.2.3l-.4 2.3-4.5-2s0-.2-.2-.3c0-.7.2-1.4.4-2.3Zm2 15.8-4.3-1.8c-.1-.1-.3-.2-.2-.3l.4-2.4 4.6 2c.1 0 .2.2.1.3-.3.8-.4 1.5-.5 2.2Zm-.5 2.9-4.3-2c-.1-.1-.3-.2-.2-.3l.4-2.2a181.3 181.3 0 0 0 4.5 2.1c0 .8-.2 1.5-.4 2.4Zm-4.6-1.8c1.4.6 2.8 1.1 4.3 2l.2.3-.4 2.2-4.3-2-.1-.3c0-.8.2-1.5.3-2.2Zm3.6 7.2c-1.5-.7-3-1.3-4.2-2 0 0 0-.2-.2-.3l.3-2.2c1.6.7 3 1.2 4.3 2l.2.3-.4 2.2Zm-4.6-1.8 4.3 2 .2.3-.3 2.2a42.2 42.2 0 0 1-4.2-1.9c-.1 0-.3-.2-.2-.3a7.8 7.8 0 0 1 .2-2.3Zm-.4 2.7c1.5.7 3 1.3 4.2 2 .2 0 .3.2.2.3l-.3 2.2-4.3-2c-.1 0-.3-.2-.2-.3l.4-2.2Zm-5.4-26.3c1.3.5 2.5 1.2 4 1.7 0 .1.2.2 0 .4l-.3 2.3-4-1.7v-.3c.1-.9.4-1.5.3-2.4Zm4.7 2 3.7 1.7c.2 0 .3.2.2.3a25 25 0 0 1-.4 2.4c-1.3-.5-2.5-1.2-3.9-1.7l-.2-.4c.4-.7.5-1.5.6-2.2Zm-13.8-6c.1.1.2 0 0 0l3.7 1.6c.1.1.3.2.2.4l-.3 2.4-3.7-1.6c-.2-.1-.3-.2-.2-.3 0-1 .2-1.7.3-2.5Zm8.3 6.5c-1.3-.5-2.5-1.2-3.8-1.6-.1-.1-.3-.2-.2-.4l.5-2.3 3.8 1.7s.2 0 .2.3c-.4.6-.5 1.3-.5 2.3Zm-13.8-6.2-3.7-1.6c-.1-.1-.3-.2-.2-.4.1-.7 0-1.5.3-2.4l3.9 1.7.2.3a29 29 0 0 0-.5 2.4Zm4.7 2-3.8-1.6c-.1 0-.2-.2-.1-.3l.2-2.5 4 1.8s.2.2.1.3a5.2 5.2 0 0 0-.4 2.3Zm9.5 4.7 3.9 1.7c.1 0 .2.2.1.3 0 .7-.2 1.5-.4 2.3-1.3-.4-2.4-1-3.9-1.7l-.1-.3.4-2.3Zm4.7 2 3.8 1.7s.2.1.2.4l-.4 2.3-3.9-1.7-.2-.3.5-2.4Zm-27-15c1.3.4 2.4 1 3.7 1.6l.2.3-.3 2.4-3.7-1.6c-.2 0-.3-.2-.2-.3 0-.8 0-1.6.3-2.4Zm13.2 8.8c1.3.5 2.6 1.3 3.9 1.7v.3c0 .7-.3 1.6-.2 2.4L401 464c-.1-.1-.3-.2-.2-.3 0-.9.1-1.6.3-2.5Zm8.7 7 4 1.7s.2.2.1.3a25 25 0 0 1-.4 2.3c-1.3-.4-2.5-1-3.8-1.6l-.1-.3c0-.8 0-1.6.2-2.4ZM387 454.8l-3.7-1.6-.3-.2.3-2.5c1.3.5 2.4 1.2 3.7 1.6.1.1.3.2.2.4l-.2 2.3Zm18.7 8.6 3.7 1.6c.2.1.2.1.2.4l-.4 2.3-3.8-1.6c-.1-.1-.2-.2-.1-.3l.4-2.4Zm-31.5-17 3.7 1.6.3.2-.2 2.5-3.7-1.6-.2-.3v-2.4Zm8.3 6.4-3.8-1.6c-.1 0-.2-.2-.1-.3 0-.8 0-1.6.2-2.5l3.8 1.7c.1 0 0 .2.2.3-.1.7-.3 1.5-.3 2.4Zm31.8 17.5 3.7 1.6c.1 0 .3.2.2.3l-.4 2.3-3.8-1.6-.2-.3.5-2.3Zm-9.1-4.2 3.9 1.7.1.4-.3 2.2h-.2a30.4 30.4 0 0 1-3.5-1.6c-.1-.1-.3-.2-.2-.4l.2-2.3Zm-.9 2.5-3.7-1.7c-.2 0-.3-.2-.2-.3l.3-2.4 3.9 1.7.1.3c0 .7-.3 1.4-.4 2.4ZM392 457.2c1.3.5 2.5 1.2 4 1.7l.1.4a29.8 29.8 0 0 0-.3 2.4l-3.7-1.6s-.2-.1-.2-.3l.1-2.6Zm8.3 6.5c-1.2-.5-2.4-1.2-3.7-1.6-.1-.1-.3-.2-.2-.4l.3-2.4 3.7 1.6c.2 0 .3.2.2.3 0 .8-.3 1.6-.3 2.5Zm-4.8.8-3.8-1.6-.2-.2c0-.7 0-1.6.3-2.4l3.7 1.6c.1 0 .3.2.2.3-.1.7-.3 1.5-.2 2.3Zm-8.8-7L383 456c-.1-.1-.3-.2-.2-.4l.2-2.3c1.3.5 2.5 1.2 3.8 1.6.1.1.2.2.1.4 0 .8 0 1.5-.2 2.3Zm4.5 2.2c-1.3-.5-2.5-1.2-3.8-1.6l-.2-.4.3-2.4 3.8 1.6.2.3a9 9 0 0 1-.3 2.5Zm5 2.5 3.8 1.6c.1.1.3.2.2.4l-.3 2.4-3.8-1.6-.1-.3c0-1 .2-1.7.3-2.5Zm-26.4-17.8 3.7 1.7c.1 0 .3.2.2.3-.1.7 0 1.6-.2 2.3 0 0-.1.1-.2 0l-3.6-1.5c-.2 0-.3-.2-.2-.3.2-.9.3-1.6.3-2.5Zm16.6 16.2-3.7-1.6-.2-.3.3-2.5c1.3.5 2.5 1.2 3.8 1.6 0 .1.2.2.1.4l-.3 2.4Zm-8.6-6.8c-1.2-.5-2.4-1.2-3.7-1.6l-.2-.4.2-2.3h.3l3.6 1.5.1.3-.2 2.5Zm38 8 4 1.7s.2.2.1.3c0 .7-.2 1.5-.5 2.1h-.2c-1.3-.4-2.4-1-3.7-1.6-.2 0-.3-.2-.2-.3l.6-2.2Zm-33.6-6.2-3.7-1.6c-.1 0-.3-.2-.2-.3l.2-2.3 3.7 1.6c.2 0 .2 0 .2.3 0 .9 0 1.6-.2 2.3Zm30.8 19.8-3.7-1.6c-.2-.1-.3-.2-.2-.3l.3-2.2c1.3.4 2.6 1.2 3.9 1.7.1 0 0 .2.2.3-.2.5-.4 1.1-.5 2Zm-25.7-17.2 3.8 1.6.2.2c0 .7 0 1.6-.3 2.4l-3.7-1.6c-.1 0-.3-.2-.2-.3 0-.7 0-1.4.2-2.3Zm30.2 19.1-3.7-1.6c-.2 0-.3-.2-.2-.3l.3-2.2 3.8 1.6c.1.1.2.2.1.3 0 .6 0 1.4-.3 2.2Zm-2.6-13.3c-1.4-.6-2.6-1.3-3.8-1.7-.2-.1-.3-.2-.2-.4l.2-2s.1-.2.2 0c1.3.4 2.5 1 3.8 1.5l.2.4-.4 2.2Zm-11 7.3-3.7-1.7c-.1 0-.3-.1-.2-.3l.3-2.2 3.8 1.6.2.4-.4 2.2Zm-30.1-19c1.3.5 2.4 1.2 3.7 1.6 0 0 .2.1 0 .3 0 .7 0 1.5-.2 2.4l-3.8-1.6c-.1-.1-.2-.2-.1-.3.3-.8.4-1.5.4-2.4Zm4.5 2 3.7 1.6c.2 0 .3.2.2.3 0 .8 0 1.6-.3 2.5-1.3-.5-2.4-1.2-3.7-1.6-.2-.1-.3-.2-.2-.4l.3-2.4Zm26.6 14.8 3.7 1.6c.1 0 .3.2.2.3-.1.7-.2 1.5-.5 2.3-1.2-.4-2.4-1-3.7-1.6l-.2-.3.5-2.3Zm-35.2-21.7c1.3.5 2.5 1.2 3.7 1.6.2.1.2.1.2.4 0 .7 0 1.5-.3 2.4l-3.7-1.6-.2-.3.3-2.5Zm38.8 28.9.4-2.6 3.7 1.6c.2.1.3.2.2.4l-.3 2.2c-1.4-.4-2.6-1-4-1.6Zm-9-7-3.8-1.6s-.2-.1 0-.2l.2-2.5 3.8 1.6c.1.1.2.2.1.4a25 25 0 0 1-.4 2.3Zm14 6.6 3.7 1.6.2.3-.5 2.4-3.7-1.6c-.1-.1-.3-.2-.2-.3l.4-2.4Zm-13.5-6c.1.1.1.1 0 0 1.4.6 2.6 1 3.7 1.6.2.1.3.2.2.4l-.3 2.2c-1.3-.5-2.5-1.2-3.7-1.6-.2-.1-.3-.2-.2-.4l.3-2.2Zm-4.9-2.6-3.7-1.6c-.2-.1-.3-.2-.2-.3l.2-2.3 3.7 1.6c.2 0 .3.2.2.3l-.2 2.3Zm-22-12.6-3.6-1.5c-.1-.1-.3-.2-.2-.3l.2-2.3 3.8 1.6.2.3c-.2.5-.3 1.2-.4 2.2Zm35 21.4c-1.4-.4-2.6-1-3.8-1.6-.2 0-.3-.2-.2-.3l.3-2.2 3.8 1.6.1.3c0 .8 0 1.4-.3 2.2Zm2.2-14.2-3.8-1.6s-.2-.2-.1-.3c0-.8 0-1.4.3-2.2l3.9 1.7c.1 0 .2.2.1.3l-.4 2.1Zm-27.8-2.9 3.7 1.7.2.3-.3 2.4-3.7-1.6c-.2-.1-.3-.2-.2-.3l.3-2.5Zm8.1 6.4c-1.3-.5-2.5-1.2-3.7-1.6-.2-.1-.2-.1-.2-.4l.2-2.3 3.7 1.6s.2.1.2.4a12.3 12.3 0 0 0-.2 2.3Zm11.4-9.7 4 1.7c0 .1.2.2.1.4l-.3 2.2-4-1.7c0-.1-.2-.2 0-.4l.2-2.2Zm6.4 21 3.8 1.6c.1 0 .3.2.2.3l-.4 2.2-3.7-1.6c-.1-.1-.3-.2-.2-.3l.4-2.2Zm-13-8.7 3.8 1.6s.2 0 0 .2l-.3 2.2-3.7-1.6-.2-.3c.3-.7.4-1.4.5-2.1Zm17.6 10.6 3.7 1.6.2.4-.4 2.3-3.8-1.6-.2-.3.5-2.4Zm-31.3-17.3-3.8-1.6c-.1 0-.2-.2-.1-.3 0-.7 0-1.6.2-2.3l3.7 1.6.2.3-.2 2.3Zm22.3 13.3 3.8 1.6.2.2c0 .7-.2 1.5-.4 2.3l-3.7-1.6c-.2 0-.3-.2-.2-.3 0-.6.3-1.3.3-2.2Zm-9.3-4.3-3.8-1.7s-.2-.2-.1-.3l.2-2.3 3.7 1.6.2.4-.2 2.3Zm-17.4-10.8-3.6-1.5-.3-.2.2-2.3 3.8 1.6s.2.2.1.3l-.2 2Zm22.4 13.2 3.7 1.6.2.4-.4 2.2c-1.2-.5-2.4-1.2-3.7-1.6l-.2-.4.4-2.2Zm-14-6.5-3.7-1.6c-.1-.1-.3-.2-.2-.3.1-.8.3-1.5.2-2.3l3.8 1.6.1.3c0 .8 0 1.6-.2 2.3Zm25.9 17.3-3.8-1.6-.2-.3.4-2.2 3.7 1.6a83.4 83.4 0 0 0-.1 2.5Zm-25-19.5 3.7 1.5c.1.1.3.2.2.4-.1.7-.3 1.4-.2 2.3-1.3-.5-2.5-1.2-3.8-1.6l-.2-.4.4-2.2Zm25.9 17.3 3.7 1.6c.2.1.3.2.2.4l-.3 2.2c-1.3-.5-2.5-1.2-3.8-1.6 0-.1-.2-.2-.1-.4l.3-2.2Zm-13.8-6.4-3.7-1.6s-.2-.1 0-.2c0-.8.2-1.5.1-2.3l3.8 1.6.2.3-.4 2.2Zm.5.5c1.3.5 2.4 1.2 3.7 1.6.1.1.3.2.2.4l-.3 2.2c-1.3-.5-2.5-1.2-3.8-1.6-.1-.1-.3-.2-.2-.4l.4-2.2Zm-4.9-2.6-3.7-1.6c-.2 0-.3-.2-.2-.3l.3-2.2 3.8 1.6.1.3-.3 2.2ZM377.6 460l3.8 1.6c.1 0 .3.2.2.3a12.4 12.4 0 0 0-.2 2.3l-3.8-1.6-.2-.3c.2-.8.3-1.5.2-2.3Zm-8.4-6.8c1.3.5 2.4 1.2 3.6 1.5.1.1.3.2.2.4l-.2 2.3-3.6-1.5c-.2-.1-.3-.2-.2-.4 0-.6 0-1.4.2-2.3Zm7.7 9c-1.3-.4-2.5-1-3.8-1.5-.1-.1-.3-.2-.2-.4l.2-2.3 3.8 1.6.1.4c0 .8 0 1.5-.2 2.3Zm8.4 6.8-3.6-1.5c-.1-.1-.3-.2-.2-.3l.3-2.1 3.6 1.5.1.3c0 .6 0 1.2-.2 2.1Zm12-15.3 3.9 1.7.1.3-.3 2.2-3.7-1.6c-.2 0-.3-.2-.2-.3 0-.9 0-1.6.2-2.3Zm9.7 27.7s0 .2 0 0l-3.6-1.5s-.2-.2-.1-.3l.3-2.2 3.7 1.6c.2 0 0 .2.2.3l-.5 2.1ZM389.8 471c-1.3-.5-2.4-1.2-3.6-1.6l-.3-.1c.2-.8.1-1.6.4-2.5 1.2.5 2.3 1 3.4 1.7l.5.3a5.6 5.6 0 0 0-.4 2.2Zm17.8 11 3.8 1.6.2.4-.4 2.2-3.7-1.6c-.2-.1-.2-.4-.2-.4l.3-2.2Zm-17.3-10.5 3.7 1.6c.1 0 .3.2.2.3l-.3 2.2-3.5-1.6c-.2-.1-.3-.2-.2-.4v-2.1Zm7.8 6.1-3.7-1.6-.2-.3.4-2.2 3.7 1.6.2.3-.4 2.2Zm17.4 10.6c-1.3-.5-2.5-1.2-3.5-1.7-.1 0-.3-.2-.2-.3l.3-2.2 3.8 1.6c.1 0 .3.2.2.3-.4.8-.5 1.5-.6 2.3ZM381 467l-3.5-1.6c-.1-.1-.3-.2-.2-.4.1-.7.3-1.4.2-2.3l3.8 1.7.1.3-.4 2.3Zm11.6-15.4 3.8 1.6c.1.1.3.2.2.4l-.4 2.2c-1.2-.5-2.4-1.2-3.8-1.7-.2-.1-.3-.2-.2-.4.2-.6.5-1.2.4-2Zm-16 13.6-3.7-1.6-.2-.4.2-2.3c1.3.5 2.5 1.2 3.6 1.5.2.1.3.2.2.4v2.4Zm-4.1-4.8-3.5-1.6c-.2-.1-.2-.1-.2-.4.1-.7 0-1.5.2-2.3 1.3.5 2.4 1.2 3.6 1.6l.2.3c-.2.7-.1 1.5-.3 2.4Zm30.6 19.7c.1 0 .1 0 0 0l3.6 1.5.2.3-.3 2.2c-1.3-.5-2.5-1-3.5-1.6-.2-.1-.2-.3-.2-.3l.2-2.1Zm-1 2.2-3.4-1.7c-.2 0-.3-.2-.2-.3l.3-2.2 3.7 1.7c.1.1.2.2.1.4l-.4 2Zm-16.9-10.5-3.6-1.5-.2-.4.2-2.3 3.6 1.6c.1 0 .3.2.2.3a12.3 12.3 0 0 0-.2 2.3Zm4.3 2c-1.3-.5-2.5-1.1-3.5-1.7-.2 0-.3-.2-.2-.3l.2-2.3 3.5 1.6c.1.1.3.2.2.4l-.2 2.3Zm.4.5 3.6 1.5a83.4 83.4 0 0 0-.1 2.5c-1.3-.5-2.5-1-3.5-1.6-.2-.1-.2-.3-.2-.3l.2-2.1Zm8 6c-1.3-.5-2.5-1.1-3.5-1.7-.1 0-.3-.2-.2-.3l.2-2 .3-.1a30.6 30.6 0 0 1 3.5 1.6c.1.1.3.2.2.4-.3.6-.4 1.3-.5 2Zm-20.7-14.7a30.7 30.7 0 0 1 3.5 1.6l.3.2-.2 2.3c-1.3-.5-2.5-1.1-3.5-1.7-.2 0-.3-.2-.2-.3l.1-2.1Zm-5-2.5-3.6-1.5c-.1-.1-.3-.2-.2-.4l.2-2.3c1.3.5 2.4 1 3.5 1.7.2 0 .3.2.2.3v2.2Zm38.4 25.7a30.8 30.8 0 0 1-3.5-1.7c-.1 0-.3-.2-.2-.3l.3-2.2 3.8 1.6c.1.1 0 .3.2.4-.5.8-.5 1.4-.6 2.2Zm1-2 3.6 1.5c.1.1.3.2.2.4l-.4 2.2a30.5 30.5 0 0 1-3.5-1.7c-.1 0-.3-.2-.2-.3a4 4 0 0 1 .3-2Zm-35.2-19c-1.3-.5-2.5-1-3.5-1.6-.1-.1-.3-.2-.2-.3l.2-2.3c1.3.4 2.5 1 3.7 1.6a29.7 29.7 0 0 1-.3 2.7Zm8.3 6.7c-1.3-.5-2.4-1.1-3.5-1.7l-.2-.3.2-2.3 3.6 1.5c.2.1.3.2.2.3 0 1-.2 1.7-.3 2.5Zm7.1-20.8L388 452l-.2-.4.3-2 3.7 1.6c.2 0 .3.2.2.3v2.2ZM372 466l-3.6-1.5-.2-.4.2-2.3 3.6 1.5c.2.1.3.2.2.4 0 .8 0 1.4-.2 2.3Zm13.6 6.3a34.2 34.2 0 0 1 3.4 1.5c.2.1.3.2.3.5l-.2 2.3a30.4 30.4 0 0 1-3.5-1.7c-.1 0-.2-.2-.1-.3l.1-2.3Zm-2-24.6 3.9 1.7.2.4-.3 2-3.7-1.6c-.2 0-.3-.2-.2-.3-.1-.7 0-1.4.1-2.2Zm-3.2 24.8-3.6-1.5-.1-.4c0-.7.2-1.4.1-2.3 1.3.5 2.5 1.2 3.5 1.7.2.1.3.2.2.3.2.7 0 1.5 0 2.2Zm-7.7-6c1.3.4 2.5 1 3.5 1.6l.3.2-.2 2.3a30.9 30.9 0 0 1-3.5-1.7c-.2 0-.3-.2-.2-.3-.2-.5-.1-1.3.1-2.2Zm20.4 14.5c-1.2-.6-2.3-1-3.3-1.6-.2 0-.3-.1-.3-.4 0-.7 0-1.3.3-2.2l3.7 1.6c.2.1.2.4.2.4-.4.9-.5 1.5-.6 2.2Zm-8.6-3.9c-1.3-.5-2.5-1-3.5-1.6-.2-.1-.2-.1-.2-.3l.2-2.3 3.5 1.6.2.3-.2 2.3Zm-12.6-8.4a31 31 0 0 1-3.5-1.6l-.3-.2.2-2.3 3.4 1.5c.1.1.3.2.3.5v2.1Zm10.9-19c-1.3-.4-2.5-1-3.8-1.5-.1-.1-.2-.2-.1-.4l.1-1.9.1.1 3.8 1.6c.1.1.2.2.1.3l-.2 1.9Zm6 29.4c-1.3-.5-2.5-1-3.6-1.6l-.1-.3.2-2.3 3.5 1.6.1.3-.1 2.3Zm-10.5-31.3-3.8-1.6-.2-.3.3-2c1.3.4 2.4 1 3.7 1.5.1.1.3.2.2.4a7 7 0 0 0-.2 2Zm-1.6 23.3c1.3.5 2.5 1.1 3.5 1.7.2 0 .3.2.2.3l-.2 2c-1.3-.4-2.5-1-3.6-1.5 0 0-.2 0 0-.2a7.8 7.8 0 0 1 .1-2.3Zm-.8 2s-.1.2 0 0c-1.3-.4-2.3-1-3.6-1.5l-.2-.3.1-2.1h.3l3.3 1.5c.2 0 .3.2.2.3l-.1 2.2Zm-2.2-27.5s-.1.2 0 0c-1.3-.4-2.5-1-3.7-1.6-.2 0-.2 0-.2-.3v-2.1c1.4.4 2.6 1 3.8 1.5l.3.5a9 9 0 0 0-.2 2Zm-5.6 21.7 3.5 1.6.2.3a11 11 0 0 0-.1 2.2h-.3l-3.3-1.5c-.2-.1-.3-.2-.2-.3l.2-2.3Zm47.7 55.2c0-.4.2-.7.3-1l4.2-24.3c.1-.1 0-.3.2-.5L367.2 472v.6c-.5 8.6-1.4 17.3-2.3 25.8 0 .8 0 .9.7 1.1 3.6 1.8 7.4 3.4 10.9 5 5.3 2.6 10.8 5 16 7.5 5.8 2.5 11.6 5.2 17.2 8l6 2.6Zm3-20.7c-1.5-.6-2.8-1.3-4.2-2 0 0-.2 0-.2-.2l.2-2.1 4.2 1.9.2.3c0 .7-.2 1.4-.3 2Zm-4.4-1.6 4 1.8c.1 0 .3.2.2.3l-.3 2c-1.4-.5-2.7-1.2-4.1-1.8-.1-.1 0-.3-.2-.4.3-.6.3-1.2.4-2Zm-.4 2.5c1.4.6 2.7 1.4 4 1.8.2.1.3.2.2.4l-.2 2c-1.5-.5-2.6-1.2-4-1.8-.2 0-.3-.2-.4-.4.3-.6.3-1.2.4-2Zm1.2-7.7 4.1 2 .2.3-.3 2-4.1-1.9c-.1 0 0-.2-.2-.3l.3-2Zm-1.6 10.3 4.2 2 .1.2c0 .8 0 1.4-.3 2l-4-1.8c-.2 0-.3-.2-.2-.3l.2-2Zm-.8 5 4 1.7c.2.1.3.2.2.3l-.4 2-3.8-1.7c-.2 0-.3-.2-.2-.3l.2-2Zm4.4 1.6-4-1.8-.2-.2.2-2 4 1.8c.2 0 .2.3.2.3l-.2 1.8Zm-41.4-32.7c-1.2-.7-2.5-1.2-3.7-1.8 0 0-.1 0 0-.2 0-.8 0-1.6.2-2.3l3.5 1.6c.1.1.3.2.2.4l-.2 2.3Zm-4.3-2c-1.2-.7-2.5-1.2-3.5-1.7-.2 0-.3-.2-.2-.3l.2-2.3 3.5 1.6.2.4-.2 2.3Zm5.2-.2c1.2.6 2.5 1 3.6 1.7 0 0 .2.1.2.3l-.2 2.3-3.5-1.6c-.1-.1-.3-.2-.2-.3a5.3 5.3 0 0 1 0-2.4Zm7.8 6.2c-1.2-.6-2.5-1-3.5-1.6-.2-.1-.3-.2-.2-.3l.2-2.3 3.5 1.6c.1.1.3.2.2.3l-.2 2.3Zm27.5 32 4.2 1.8-.4 2.2-3.9-1.7s-.2-.2-.1-.3c0-.6 0-1.3.2-2Zm.4-2.4 4 1.8c.2.1.3.2.2.3 0 .6-.2 1.3-.4 2l-3.8-1.7c-.2-.1-.2-.3-.2-.3l.2-2.1Zm-27.1-31.9c1.1.7 2.4 1.2 3.5 1.7.1.1.2.2.1.3 0 .8 0 1.4-.2 2l-3.5-1.6-.2-.3.3-2Zm7.7 6.3-3.5-1.6c-.1-.1-.2-.2-.1-.4l.3-2.2c1.2.7 2.3 1 3.5 1.7.1 0 .3.2.2.3l-.4 2.2Zm-17.5-5.4-3.6-1.7s-.2-.1 0-.3c0-.7.2-1.4.1-2.3 1.2.7 2.5 1.2 3.5 1.7.2 0 .3.2.2.3 0 .8 0 1.6-.2 2.3Zm-.2 2.7c-1.2-.6-2.5-1.1-3.5-1.7-.2 0-.3-.2-.2-.3l.2-2c1.2.6 2.5 1 3.5 1.6.2 0 .3.2.2.3l-.2 2Zm26.6 4.3-.4 2.3c-1.2-.6-2.5-1.1-3.5-1.7-.2 0-.2 0-.2-.3l.3-2.2a31 31 0 0 0 3.8 1.9Zm-4.6.4-3.5-1.6c-.1-.1 0-.3-.2-.4l.3-2 3.5 1.6c.1.1.2.3 0 .5v2Zm-21.3-6.9c1.1.7 2.4 1.2 3.5 1.7 0 0 .1 0 0 .2 0 .8-.2 1.5-.3 2.2-1.2-.6-2.5-1-3.5-1.6-.2-.1-.2-.1-.2-.4.4-.5.5-1.2.5-2Zm4.6-.5c1.2.6 2.5 1 3.5 1.6.2.1.3.2.2.3 0 .8-.1 1.4-.3 2.2-1.2-.6-2.5-1-3.5-1.6-.2-.1-.3-.2-.2-.3l.3-2.2Zm-13.2-3.4c1.2.6 2.5 1 3.5 1.6l.2.3-.2 2.3-3.5-1.6c-.2-.1-.3-.2-.2-.4l.2-2.3Zm16.4 10-3.5-1.6c-.1 0-.2-.2-.1-.3 0-.7 0-1.3.2-2 1.2.6 2.4 1 3.6 1.7a19.4 19.4 0 0 1-.2 2.3Zm-7.4-8.6c1.1.6 2.4 1 3.6 1.7 0 0 .1.1 0 .2l-.3 2.3c-1.2-.7-2.5-1.2-3.5-1.7-.1-.1-.3-.2-.2-.3l.4-2.2Zm-5.2 0-3.5-1.6-.2-.3.3-2.1 3.5 1.6c.1.1.3.2.2.4l-.3 2Zm.2 3.2c1.2.6 2.5 1.1 3.7 1.8 0 0 .1 0 0 .2l-.2 2c-1.2-.6-2.5-1-3.5-1.6-.2 0-.3-.2-.2-.3l.2-2Zm17.6 5.4 3.5 1.7h.1l-.3 2.3c-1.2-.7-2.4-1-3.5-1.7-.2 0-.3-.2-.2-.3l.4-2Zm.2-2.7c1.2.7 2.5 1.2 3.5 1.7l.2.3-.2 2-.1.2-3.4-1.5-.2-.4c0-1 0-1.5.2-2.3ZM380 487l3.5 1.6v.3l-.3 2.2c-1.2-.6-2.3-1-3.5-1.7-.1 0-.3-.2-.2-.3.3-.6.4-1.4.5-2.1Zm8.1 3.5c-1.2-.7-2.4-1.2-3.5-1.7 0 0-.1 0 0-.2 0-.8 0-1.4.3-2.2l3.5 1.6c.1.1.3.2.2.4-.3.6-.4 1.3-.5 2Zm-12.4-5.5c1.2.6 2.5 1.1 3.5 1.7.2 0 0 .2.2.3l-.2 2c-1.2-.6-2.5-1-3.5-1.6-.2-.1-.3-.2-.2-.3l.2-2Zm9.2-1.3c1.2.7 2.5 1.2 3.5 1.7 0 0 .2.1.2.3l-.2 2.1c-1.2-.6-2.5-1.1-3.5-1.7 0 0-.2 0 0-.2-.2-.7-.1-1.4 0-2.2Zm30.4 38a33 33 0 0 1-3.6-1.7c-.2-.1-.3-.2-.3-.4l.2-1.9 3.9 1.7.2.3c0 .6-.3 1.3-.4 2Zm-18-29.4 3.6 1.6c.1.2.3.2.2.4l-.3 2-3.5-1.6c-.1-.1-.3-.2-.2-.3l.3-2.1Zm4 1.5c-1.3-.7-2.4-1-3.6-1.7-.1 0-.3-.2-.2-.3l.3-2c1.2.4 2.4 1 3.7 1.8 0 .7 0 1.3-.3 2.2Zm1.1-4.6 3.5 1.6c.2.1.2.3.2.3l-.2 2-3.5-1.6c-.2 0-.2-.3-.2-.3l.2-2Zm-5.5 2.6-3.5-1.7-.1-.3c0-.7 0-1.3.2-2l3.5 1.6c.1 0 .3.2.2.3l-.3 2Zm-.3 2.6c-1.2-.7-2.4-1-3.6-1.7 0-.1-.2-.2-.1-.3 0-.8 0-1.4.3-2.2l3.5 1.6c.1.1.3.2.2.4l-.3 2.2ZM367 481c1.2.7 2.4 1 3.6 1.7 0 0 .2.2.1.3v2.2c-1.2-.7-2.4-1-3.6-1.7l-.1-.3V481Zm38.9 15.3 3.3 1.5c.2.1.3.2.2.4l-.2 2-3.5-1.6c-.2-.1-.3-.2-.2-.3l.4-2Zm-14-1.3-3.5-1.6c-.1-.1-.3-.2-.2-.3l.3-2.1 3.5 1.6.2.4a18 18 0 0 1-.3 2Zm5.1 0 3.5 1.6c.2.1.3.2.2.3l-.2 2.1-3.5-1.6c-.2-.1-.3-.2-.2-.4l.2-2Zm5-3.3c1.1.7 2.3 1 3.5 1.7.1 0 .2.2.1.3 0 .7 0 1.3-.2 2 0 0-.1.2-.2.1l-3.4-1.6c-.1 0-.3-.1-.2-.3l.4-2.2Zm-14.4 1.3-3.3-1.5c-.2-.1-.3-.2-.2-.3l.2-2.1 3.5 1.6c.2.1.3.2.2.4l-.4 2Zm-16.5-7.3 3.5 1.6v.3c0 .7 0 1.3-.2 2L371 488c-.1-.1-.3-.2-.2-.3l.4-2Zm21.7 7.3 3.5 1.6c.1.1.2.2.1.3 0 .8 0 1.4-.2 2.1l-3.5-1.6c-.1-.1-.3-.2-.2-.4l.3-2Zm16.8 4.7c-1.2-.7-2.5-1.2-3.5-1.7 0 0-.2 0-.2-.3 0-.7 0-1.3.2-2 1.2.5 2.5 1 3.5 1.6.2 0 .2.3.2.3.1.7-.1 1.3-.2 2Zm-3-6.6c1.2.7 2.5 1.2 3.5 1.7.2 0 .2 0 .2.3l-.2 2c-1.2-.5-2.5-1-3.5-1.6-.2 0-.2-.3-.2-.3l.2-2Zm-2 9.8-3.5-1.6c-.1-.1-.2-.2-.1-.4l.3-2.2c1.2.7 2.3 1 3.5 1.7.1 0 .3.2.2.3l-.4 2.2Zm-25-11.2 3.6 1.6c0 .1.2.2.1.3 0 .8 0 1.4-.2 2.1l-3.5-1.6c-.1-.1-.3-.2-.2-.4l.3-2Zm-4.2-2 3.5 1.6c.1.1.3.2.2.3l-.3 2.1-3.5-1.6-.2-.4.3-2ZM411 493c1.2.7 2.3 1 3.5 1.7.2 0 .3.2.2.3l-.2 2-3.5-1.6s-.2 0-.2-.3l.2-2Zm-9.3 1.2 3.5 1.6c.1.1.3.2.2.4l-.3 2-3.5-1.6c-.1-.1-.3-.2-.2-.3l.3-2.1Zm-13.5-.7 3.5 1.6c.1.1.3.2.2.3l-.3 2.1c-1.1-.6-2.3-1-3.5-1.7-.1 0-.2-.1-.1-.3 0-.7 0-1.3.2-2Zm20.7 9.2-3.5-1.6c-.2-.1-.3-.2-.2-.4l.3-2.2c1.2.7 2.4 1 3.5 1.7.2 0 .3.2.2.3 0 .8-.2 1.5-.3 2.2Zm1.7-7.1 3.5 1.6c.2.1.3.2.2.4l-.2 2-3.5-1.6c-.2-.1-.2-.3-.2-.3l.2-2.1Zm3 6.5-3.5-1.6c-.2-.1-.3-.2-.2-.4 0-.7 0-1.3.2-2l3.5 1.6c.2.1.2.4.2.4l-.2 2Zm-39.5-7.4c-1.2-.6-2.5-1-3.5-1.6l-.2-.3.2-2.1 3.6 1.6c0 .1.2.2.1.4 0 .7 0 1.3-.2 2Zm10-3.1c1.1.6 2.4 1 3.4 1.6.2.1.2.1.2.3l-.2 2.1c-1.2-.6-2.5-1.1-3.5-1.7 0 0-.2 0-.2-.3l.2-2Zm-1.4 7.1-3.5-1.6c-.2-.1-.3-.2-.2-.4l.2-2c1.2.6 2.5 1 3.5 1.6.2.1 0 .2.2.3-.1.8-.3 1.3-.2 2.1Zm-7.8-6 3.5 1.6c.2.1.3.2.2.3l-.2 2.1-3.4-1.5c-.1-.1-.3-.2-.2-.4l.1-2.1Zm38.3 12c-1.2-.6-2.4-1-3.4-1.6-.1 0-.3-.2-.2-.3l.3-2 3.3 1.5c.2.1.3.2.2.3l-.2 2.1Zm-17.3-5.2c-1.2-.6-2.3-1-3.5-1.7-.1 0-.3-.2-.2-.3l.3-2 3.5 1.6c.1.1.3.2.2.3l-.3 2Zm-25-11.3c1.2.7 2.5 1.2 3.5 1.7 0 0 .2.1.2.3l-.2 2-3.5-1.6c-.2 0-.3-.2-.2-.3l.2-2Zm29.2 13.2c-1.2-.6-2.4-1-3.5-1.7-.2 0-.3-.2-.2-.3l.2-2 3.5 1.6c.2 0 .3.2.2.3a9 9 0 0 1-.2 2Zm-12.4-2.8 3.5 1.6.1.3c0 .8 0 1.4-.2 2.1-1.2-.6-2.3-1-3.5-1.7-.1 0-.3-.1-.2-.3l.3-2Zm-9-4.5-3.6-1.7s-.1-.1 0-.2l.2-2.1c1.2.6 2.5 1.1 3.5 1.7.2 0 .3.1.2.3l-.4 2Zm.7-2c1.2.7 2.3 1 3.5 1.7l.3.2-.3 2-3.5-1.6c-.1-.1-.3-.2-.2-.3 0-.6 0-1.2.2-2Zm4 4.5 3.5 1.6.2.2c0 .7 0 1.3-.2 2l-3.5-1.6c-.1 0-.3-.2-.2-.3l.2-2Zm-16.5-13 3.5 1.6c.1.1.3.2.2.4l-.3 2-3.3-1.5c-.2-.1-.2-.1-.2-.3l.1-2.2ZM370 496c1.2.7 2.3 1 3.5 1.7l.3.2-.2 2-3.6-1.6-.1-.3c.1-.5.2-1.3.1-2Zm26 6.5c1.3.7 2.4 1 3.4 1.6.2.1.3.2.2.3l-.2 2.1c-1.2-.6-2.3-1-3.5-1.7-.1 0-.3-.1-.2-.3l.4-2Zm4.9-3 3.4 1.5c.1.1.2.2.1.3 0 .8 0 1.4-.2 2l-3.4-1.5s-.2-.2-.1-.3c0-.7 0-1.3.2-2ZM388 496l3.5 1.6c.2.1.3.2.2.4l-.2 2-3.5-1.6c-.2-.1-.3-.2-.2-.3l.2-2.1Zm17.2 5.3c1.2.7 2.3 1 3.5 1.7l.2.3-.3 2-3.5-1.6c-.1 0 0-.2-.2-.3l.3-2Zm-27.4.5-3.3-1.5-.3-.2.2-2 3.5 1.6c.2 0 .3.2.2.3l-.3 1.8Zm4.2 2c-1.2-.7-2.3-1-3.5-1.7-.2-.1-.3-.2-.2-.4l.2-2 3.5 1.6c.2.1.2.4.2.4l-.2 2Zm10-3.2 3.4 1.6c.2.1.3.2.2.3l-.2 2.1c-1.2-.6-2.3-1-3.5-1.7-.2 0-.2-.3-.2-.3l.2-2Zm15.8 9.7-3.4-1.6s-.2-.2-.1-.3l.2-2 3.4 1.5c.1.1.3.2.2.3l-.3 2Zm-34-12.9-3.5-1.6c-.1-.1-.2-.2-.1-.4 0-.6 0-1.3.2-2 1.3.5 2.5 1 3.5 1.6 0 0 0 .2.2.3l-.3 2.1Zm9.8-3.3c1.2.7 2.4 1 3.5 1.7.2 0 .3.2.2.3 0 .6 0 1.3-.2 2l-3.5-1.6-.2-.3.2-2Zm16.2 9.7c-1.2-.6-2.5-1-3.5-1.6 0 0-.2-.1 0-.3 0-.7 0-1.3.2-2l3.5 1.6c.1.1.2.2.1.4-.2.6-.2 1.2-.3 2Zm8.9 4.4c1.1.7 2.3 1 3.3 1.6.2 0 .3.2.2.3 0 .6-.1 1.4-.4 2-1.1-.6-2.3-1-3.3-1.6-.2 0-.2-.3-.2-.3l.4-2Zm-18.3-.6-3.5-1.6-.2-.4.3-2 3.5 1.6.2.3-.3 2.1Zm1.8-9.7 3.5 1.6.2.4-.3 2-3.3-1.5c-.2-.1-.3-.2-.2-.4V498Zm17.1 5.3c1.2.7 2.4 1 3.5 1.7 0 0 .2 0 .2.3l-.2 2-3.5-1.6c-.2 0-.3-.2-.2-.3l.2-2Zm-30.5-6c1.2.7 2.3 1 3.4 1.6l.3.2-.3 2-3.5-1.6-.2-.3c.2-.5.2-1.1.3-1.9Zm4 4.5 3.4 1.5.3.2-.3 2-3.5-1.6-.2-.3.3-1.8Zm20.7 6.6c-1.1-.6-2.3-1-3.5-1.7-.1 0-.2-.1-.1-.3 0-.6 0-1.3.2-2l3.5 1.6.2.3c0 .9 0 1.5-.3 2.1Zm1.4-4.5 3.5 1.6.2.3-.3 2.1-3.5-1.6-.1-.4c0-.6 0-1.3.2-2Zm-9.5 3.7 3.5 1.6.2.3-.2 2.1c-1.2-.6-2.4-1-3.4-1.6-.2 0-.3-.1-.2-.3-.1-.7 0-1.4.1-2.1Zm-17.4-8.2-3.4-1.6c-.1 0-.3-.2-.2-.3l.3-2 3.5 1.6c.1.1.3.2.2.3l-.4 2Zm13.3 6.3 3.3 1.5c.2.1.3.2.2.3l-.2 2.1-3.5-1.6c-.2-.1-.2-.4-.2-.4 0-.7.2-1.2.4-2Zm15.7 9.6-3.4-1.6s-.2-.2-.1-.3c0-.7 0-1.3.2-2l3.4 1.5c.1.1.2.2.1.3.2.7 0 1.4-.2 2.1Zm-3-9.5-3.5-1.5c0-.1-.2-.2-.1-.4l.2-2 3.4 1.5.2.4a5 5 0 0 1-.3 2Zm-13.2-.7-3.5-1.6c-.1-.1-.3-.2-.2-.3l.3-2.1 3.5 1.6c.1.1.2.2.1.4 0 .7 0 1.3-.2 2Zm-7.7-5.8c1.2.7 2.3 1 3.4 1.6.1.1.3.2.2.3l-.3 2-3.3-1.5c-.2 0-.3-.2-.2-.3l.2-2Zm19.8 14.1c-1.2-.6-2.4-1-3.4-1.6-.1 0-.3-.1-.2-.3l.2-2 3.4 1.5c.2.1.3.2.2.3l-.2 2.1ZM399 509l-3.5-1.6c-.1-.1-.3-.2-.2-.3l.2-2.1 3.6 1.6c.1.1.2.2.1.4 0 .7 0 1.3-.2 2Zm8.9 4.4c1.2.7 2.3 1 3.5 1.7l.2.3-.4 2-3.4-1.6-.2-.3a5 5 0 0 1 .3-2Zm1-7.5 3.5 1.6c.2.1.2.1.2.3 0 .8 0 1.4-.3 2l-3.5-1.6c-.2-.1-.2-.1-.2-.4l.3-2Zm-17.5-2.6c1.2.7 2.4 1 3.4 1.6.1 0 .3.2.2.3l-.2 2-3.5-1.6s-.2 0-.2-.3c.2-.6.2-1.2.3-2Zm15.9 9.5-3.4-1.5-.2-.4c0-.6.3-1.2.4-2 1.2.7 2.3 1.1 3.5 1.7 0 0 .2.1.2.4l-.5 1.8Zm-4.2-1.9-3.3-1.5c-.2-.1-.3-.2-.2-.3 0-.6.1-1.4.4-2l3.3 1.5c.2.1.3.2.2.4 0 .7-.2 1.2-.4 2Zm-33.1-20.4-3.2-1.5c-.2 0-.3-.1-.2-.3v-2.2l3.5 1.6c0 .1.2.2.1.3 0 .6 0 1.4-.2 2.1Zm41.5 24.2-3.4-1.5c-.2-.1-.3-.2-.2-.4 0-.6.1-1.3.4-2 1.2.7 2.3 1 3.3 1.6.2.1.3.2.2.3 0 .8-.1 1.4-.3 2ZM369.9 493l-3.2-1.4V489l3.3 1.4c.1.1.3.2.2.4-.1.7-.3 1.2-.2 2Zm33.4 21 3.4 1.6.2.3-.3 1.8-3.4-1.5-.2-.3a8 8 0 0 0 .3-1.9Zm4.2 2 3.5 1.6s.1 0 0 .2c0 .7-.1 1.3-.4 2-1.1-.7-2.4-1.2-3.5-1.7l.4-2.2ZM395 510c1.2.6 2.3 1 3.5 1.7.2 0 .3.2.2.3l-.3 1.8-3.3-1.5c-.2-.1-.2-.3-.2-.3l.1-2Zm4 4 .2-2 3.3 1.5.3.2-.2 2c-1.3-.7-2.5-1-3.7-1.7Zm-8.1-5.9c1.2.6 2.3 1 3.5 1.7.1 0 .3.2.2.3l-.3 1.8-3.4-1.5c-.1-.1-.3-.2-.2-.3l.2-2Zm-4.2-1.9c1.2.7 2.4 1 3.5 1.7.2 0 .3.2.2.3l-.3 1.8-3.5-1.6-.1-.3c0-.6 0-1.4.2-1.9Zm-17.1-10.8-3.3-1.5c-.1 0-.3-.2-.2-.3 0-.6.2-1.3.1-2.2l3.3 1.5c.1.1.3.2.2.3l-.1 2.2Zm16.3 12.6-3.4-1.5c-.2-.1-.2-.1-.2-.3l.1-2c1.2.7 2.4 1 3.4 1.6.1 0 .3.2.2.3.1.7 0 1.2-.1 2Zm-4.1-2-3.5-1.6-.2-.4.1-1.9c1.2.6 2.4 1 3.6 1.7l.1.3-.1 2Zm-12.4-8c-1-.6-2.2-1-3-1.4-.2-.1-.2-.1-.3-.4.1-.7.2-1.3.1-2.1l3.1 1.3c.2.1.2.4.2.4v2.1Zm4.7 2.4c1.2.7 2.4 1 3.6 1.7v.2l-.1 2c-1.2-.7-2.4-1-3.4-1.6-.1-.1-.3-.2-.2-.3-.1-.7 0-1.4.1-2Zm-4.2-2c1.1.7 2.3 1 3.5 1.7l.2.3c0 .6 0 1.2-.2 2-1.2-.7-2.3-1-3.5-1.7-.1 0-.3-.2-.2-.3 0-.6 0-1.2.2-2Zm-4-1.7c1.1.6 2.1.9 3.2 1.4.1.1.3.2.2.3l-.2 1.7a23.5 23.5 0 0 0-3.1-1.3c-.2-.1-.3-.2-.2-.4.2-.5.2-1 .2-1.7Zm58.7-39.2a1.7 1.7 0 1 1 2.7 1.9 1.7 1.7 0 0 1-2.7-1.9Zm-56.3-24.5a1.7 1.7 0 1 1 2.7 2 1.7 1.7 0 0 1-2.7-2Zm70.8-128a3.5 3.5 0 1 1 5.7 4 3.5 3.5 0 0 1-5.7-4Z"/><path fill="#394149" d="m431.3 420.9 23.2 7.1-21.8 14.2.5 12.3-3.6 6.6-11.3-7.9 5.3-11.3-11.3-4.5 10.2-15 8.8-1.5Z"/><path fill="#5C5F63" fill-rule="evenodd" d="m455.2 428-24-7.4-9 1.6-10.3 15.4 11.3 4.5-5.3 11.2 11.8 8.3 3.8-7-.5-12.2 22.2-14.5Zm-1.5.1-21.3 14 .5 12.4-3.4 6.2-10.8-7.6 5.3-11.4-11.2-4.4 9.8-14.6 8.6-1.5 22.5 7Z" clip-rule="evenodd"/><path fill="#394149" d="M376.8 397c6-8.6 21.9-7.9 35.4 1.6s19.6 24.2 13.5 32.8c-6 8.6-22 8-35.4-1.5-13.6-9.5-19.6-24.2-13.5-32.8Z"/><path fill="#5C5F63" fill-rule="evenodd" d="M410.8 437.1a39.6 39.6 0 0 1-20.4-7.5 39.4 39.4 0 0 1-14-16.6c-2.4-5.9-2.3-11.6.6-15.8 3-4.2 8.3-6.1 14.7-5.9 6.3.3 13.6 2.8 20.3 7.5a39.5 39.5 0 0 1 14 16.6c2.4 6 2.4 11.6-.5 15.8-3 4.2-8.4 6.2-14.7 6Zm0 .6c6.4.3 12-1.7 15.2-6.1 3-4.4 3-10.4.6-16.4a40 40 0 0 0-14.2-16.9 40.2 40.2 0 0 0-20.7-7.6c-6.5-.3-12 1.8-15.2 6.2-3.1 4.4-3 10.4-.6 16.4A40 40 0 0 0 390 430a40.2 40.2 0 0 0 20.7 7.6Z" clip-rule="evenodd"/><path fill="#5C5F63" fill-rule="evenodd" d="M424.2 433.5a16 16 0 0 0 4.7-4.3c3.4-4.9 3.5-11.3 1-17.8-2.5-6.4-7.7-13-14.9-18-7.1-5-15-7.5-21.9-7.7-6.9-.2-13 2.1-16.3 7-2.2 3-3 6.8-2.6 10.7h.7a13 13 0 0 1 2.2-6.3c3-4.1 8.3-6 14.7-5.8 6.3.2 13.6 2.7 20.3 7.4a39.5 39.5 0 0 1 14 16.6c2.4 5.8 2.4 11.6-.6 15.8l-1.7 2 .4.4Zm2.2-2.5c2.8-4.4 2.7-10.2.3-16-2.5-6-7.4-12-14.2-16.8a40 40 0 0 0-20.7-7.6c-6.5-.3-12.1 1.7-15.2 6.1a13.3 13.3 0 0 0-1.7 3.4c.2-2.6 1-5 2.5-7 3.2-4.6 9-6.9 15.7-6.7a40 40 0 0 1 21.5 7.6c7.1 5 12.2 11.4 14.7 17.7 2.4 6.3 2.3 12.5-1 17-.5 1-1.2 1.7-2 2.3Z" clip-rule="evenodd"/><path fill="#5C5F63" fill-rule="evenodd" d="M410.9 420.4c-3.7-.1-8-1.6-11.8-4.3a22.8 22.8 0 0 1-8-9.6c-1.5-3.4-1.4-6.6.2-9 1.7-2.3 4.7-3.5 8.4-3.3 3.6.2 7.8 1.6 11.7 4.3 4 2.8 6.7 6.2 8.1 9.6 1.4 3.4 1.4 6.6-.3 9-1.6 2.4-4.7 3.5-8.3 3.3Zm0 .9c3.8.1 7.1-1 9-3.7 1.9-2.7 1.8-6.3.4-9.8a23.6 23.6 0 0 0-8.4-10c-4-2.7-8.4-4.2-12.2-4.4-3.8-.2-7.2 1-9 3.7-2 2.6-1.9 6.2-.4 9.7 1.4 3.6 4.3 7.2 8.3 10 4 2.8 8.4 4.3 12.2 4.4Z" clip-rule="evenodd"/><path fill="#5C5F63" d="M396.4 400.7c2.2-3.3 8.1-3 13.2.5 5 3.5 7.2 9 5 12.2-2.3 3.3-8.2 3-13.2-.5s-7.3-9-5-12.2Zm13.6 18.7-1.1 1.6a1 1 0 0 0 .2 1.4c.4.3 1.1.2 1.4-.2l1.1-1.7c.3-.4.2-1-.2-1.4a1 1 0 0 0-1.4.3Zm-18.1-11.5-1.2 1.6c-.2.4-.1 1.1.3 1.4.4.3 1 .2 1.4-.3l1.1-1.6c.3-.4.2-1-.2-1.4-.6-.4-1.1-.1-1.4.3Zm6.4-12.6L397 397a1 1 0 0 0 .3 1.4c.4.3 1 .2 1.4-.2l1.1-1.6c.3-.5.2-1.1-.2-1.4-.4-.3-1.1-.2-1.4.2Zm19.3 13.6-1.2 1.6a1 1 0 0 0 .3 1.4c.4.3 1 .2 1.4-.3l1.1-1.6c.3-.4.2-1-.2-1.4-.4-.3-1.1-.2-1.4.3Z"/><path fill="#394149" d="m452 365.6 16.4-22.5L489 368 478 383l-7.8 4.5-18.3-22Z"/><path fill="#5C5F63" fill-rule="evenodd" d="m489.3 368-20.9-25.4-16.8 23 18.6 22.4 8-4.6 11-15.4Zm-11.5 14.9-7.5 4.3-18-21.6 16.1-22 20.1 24.4-10.7 14.9Z" clip-rule="evenodd"/><path fill="#5C5F63" fill-rule="evenodd" d="m474.1 376.7-16.1-20-6.5 8.8 16.3 20 6.3-8.8Zm-6.3 8-15.6-19.2 5.8-8 15.5 19.2-5.7 8Z" clip-rule="evenodd"/><path fill="#5C5F63" fill-rule="evenodd" d="m489 367.9-20.6-25.5-10.7 14.7 18.5 22.7 2-2.5 2 2.5 8.9-12Zm-8.7 11-2.1-2.4-2 2.5-17.9-22 10-13.7 20.1 24.6-8.1 11Z" clip-rule="evenodd"/><path fill="#5C5F63" fill-rule="evenodd" d="m469.7 344.4-10.2 13.9 10.3-13.9h-.1Zm1.2 1.4-10.2 14 10.3-14h-.1Zm1.2 1.5-10.2 14h.1l10.2-14h-.1Zm1.2 1.4L463 362.8h.1l10.3-14h-.1Zm1.2 1.5-10.3 14 .1.1 10.3-14v-.1Zm1.2 1.4-10.3 14.1.1.1 10.3-14v-.2Zm1.1 1.6-10.3 14.1h.1l10.3-14Zm1.2 1.5-10.2 14v.1l10.4-14-.1-.1Zm1.3 1.4L469 370.3v.1l10.4-14-.1-.2Zm1.2 1.5L470 371.8v.1l10.5-14.2-.1-.1Zm1.2 1.5-10.4 14.2 10.5-14.2h-.1Zm1.2 1.4-10.4 14.2v.1l10.5-14.2h-.1Zm1.2 1.5-10.4 14.2h.1l10.4-14.2h-.1Zm1.1 1.6-10.4 14.2h.1l10.4-14.2Zm1.2 1.4L476 379.2l.1.1 10.4-14.2Zm1.2 1.5-8.3 11.6 8.4-11.5v-.1Z" clip-rule="evenodd"/><path fill="#5C5F63" fill-rule="evenodd" d="m477.7 377.9-18.2-23-.1.2 18.2 22.9v-.1Zm3.2.9-20-25.5h-.1l20 25.5h.1Zm1.3-1.6-20.1-25.7-.1.1 20.1 25.7h.1Zm1.3-1.7-20.3-25.6 20.1 25.6h.1Zm1.2-1.8-20.2-25.6-.1.1 20.2 25.6v-.1Zm1.1-1.6-20-25.6 20 25.6Zm1.3-1.8L467 344.8l-.1.1 20 25.5.2-.1Zm1.5-2.2-20.4-25 20.3 25.1h.1Zm-29.2-9.7L453 367l.1.1 6.3-8.6h-.1Zm1.2 1.5-6.4 8.7.2.1 6.3-8.7-.1-.1Zm1.1 1.6-6.1 8.5 6.2-8.4v-.1Zm1.2 1.4-6.1 8.5 6.2-8.4Zm1.2 1.5L458 373l6.3-8.5v-.1Zm1.2 1.5-6.2 8.6 6.3-8.6Zm1.2 1.4-6.2 8.6.1.1 6.3-8.6h-.1Zm1.3 1.5-6.3 8.6h.1l6.3-8.5-.1-.1Zm1.2 1.4-6.3 8.6.1.1 6.3-8.6h-.1Zm1.2 1.5-6.3 8.6h.1l6.3-8.5-.1-.1Zm1.2 1.4-6.3 8.6.1.1 6.3-8.6h-.1Zm1.1 1.6-6.3 8.6.2.1 6.2-8.6h-.1Zm1.2 1.5-6.1 8.5 6.2-8.4v-.1Z" clip-rule="evenodd"/><path fill="#5C5F63" fill-rule="evenodd" d="m468.9 384.1-16-20.1 15.9 20.2v-.1Zm1-1.7-15.7-20v.1l15.6 20v-.1Zm1.2-1.8-15.6-20-.1.2 15.6 19.9.1-.1Zm1.3-1.8L456.7 359v.1l15.6 20v-.2Z" clip-rule="evenodd"/><path fill="#394149" d="m465.3 438.9 114.4-.5-19.9-68.5-119.2 9.4 24.7 59.6Z"/><path fill="#5C5F63" fill-rule="evenodd" d="m580.1 438.7-20-69.2-120 9.5 25 60.2 115-.5Zm-.8-.6-113.8.5-24.5-59 118.6-9.4 19.7 67.9Z" clip-rule="evenodd"/><path fill="#5C5F63" d="m499.2 374.6.3.8 21.5 62c.2.5.5.7 1 .7 6.6 0 13 0 19.5-.2h21.2l13.8-.1c.2 0 .5-.1.8 0l-.2-.9-19.1-66.5c-.1-.7-.4-.9-1-.8-6.6.7-13.2 1.2-20 1.7-11.3 1-23 2-34.5 2.8-1.1.4-2.2.5-3.3.5Zm14 37.9-1.8-5 4.4-.1c.3 0 .5.1.4.3l1.5 4.2h-.8l-3.1.1c-.2 0-.3.2-.5.5l.8.2h3.5l.5.1 1.5 4.3c-1.5 0-2.9 0-4.4.2 0 .6.3.6.6.6l3.3-.1.5.1 1.5 4.3-4.2.1c-.5.1-.7 0-.8-.5l-1.8-5.3a11.7 11.7 0 0 0-1-4Zm47-30.8-5.2.4c-.4.1-.4-.1-.5-.6l-1.2-3.8-.2-.6 5.4-.5c.2 0 .5.2.4.3l1.3 4.8Zm-1.7-5.9-5.3.4c-.2-.1-.4-.1-.4-.3-.6-1.6-1-3.1-1.5-5 1.9 0 3.9-.2 5.6-.4.6 2 1.2 3.6 1.6 5.3Zm-3.7 7 5.3-.3.3.1 1.3 4.8-5.3.4-.4-.3-1.2-4.7Zm1.6 5.8 5.3-.3.6.3.6 2.3.6 2.3-5.2.2c-.2 0-.3 0-.4-.3l-1.5-4.5Zm20 48.9-5.1-.1c-.2 0-.4-.3-.6-.4a19.2 19.2 0 0 1-1-3.5c0-.5-.2-.8-.3-1.3h5.4l1.5 5.3Zm-11.1-38.7c-.1.2-.3 0-.3 0-1.4 0-3 .2-4.2.4-1 0-1 0-1.4-1a56 56 0 0 0-1.1-3.9c1.9 0 3.5-.1 5.3-.3.2 0 .3 0 .4.3.4 1.5.7 3 1.3 4.5Zm-13-22.5-4 .3c-1.5.2-1.5.2-1.8-1.3l-1.2-3.6 5.4-.5 1.5 5.1Zm.2.8 1.5 5.1c-1.7 0-3.2.2-4.9.3-.3 0-.5-.2-.6-.5l-1.2-4.1-.1-.5 5.3-.3Zm8.8 27.7-1.5-4.9c2 0 3.8-.2 5.6-.4.4 1.8.9 3.3 1.4 5l-5.5.3Zm-21.8-32.6a63.4 63.4 0 0 1 5-.4l.2.2c.5 1.6 1 3.2 1.4 5l-4.9.3-.4-.3c-.3-1.6-.8-3.2-1.3-4.8ZM554 383l1.5 5.1c-1.7 0-3.4.3-5 .4-.2 0-.3-.3-.4-.5l-.9-3c0-.5-.2-.9-.5-1.4l5.3-.6Zm-7.6-5.3c.4 1.7 1 3.3 1.5 5l-5 .5-.2-.2-1.6-4.8c1.9-.3 3.5-.3 5.3-.5Zm14.9 27.9c1.5-.2 3-.2 4.4-.2 1.2 0 1.2 0 1.5 1 .3 1.3.8 2.4 1 3.8l-5.2.2c-.2 0-.4-.3-.4-.3-.3-1.6-.8-3-1.3-4.5Zm8.8 32h-4.6c-.3 0-.4-.4-.5-.6l-.8-2.8-.6-1.8 5.1-.1 1.4 5.2Zm-7.1-26.6 5.2-.2.4.3.7 2.1.7 2.3-5.2.2-.5-.3-1.3-4.4Zm-29.5-38.1c1.7 0 3.3-.3 4.8-.5.3 0 .4 0 .4.3l1.6 4.7c-1.8.2-3.3.4-5 .4l-.4-.3-1.4-4.6Zm17 16.2 5.1-.3.3.2 1.4 4.6c-1.7 0-3.4.3-5 .3l-.5-.3-1.3-4.5Zm-1-.9v.1l-4.8.4c0-.1-.3 0-.4-.3l-1.4-4.6c1.7-.1 3.3-.4 5-.4.2 0 .4.3.4.3l1.3 4.5Zm-14.2-9.8c1.7 0 3.3-.3 5-.4 0 .1.3 0 .4.3l1.5 4.8-5.2.4a70.8 70.8 0 0 1-1.7-5Zm29.1 59.2h-4.7c-.2 0-.3-.3-.4-.5l-.8-2.6c-.1-.7-.5-1.4-.6-2 1.7-.1 3.2 0 4.7-.2l.4.3 1.4 5Zm-19.8-48.2 4.9-.2c.2 0 .4 0 .4.2l1.4 4.7c-1.7 0-3.3 0-4.8.2l-.3-.1-1.6-4.8Zm14.2 10c-1.4 0-2.7 0-4 .2-1.3 0-1.3 0-1.7-1.2l-1-3.6 5-.3.4.3a28.9 28.9 0 0 1 1.3 4.5Zm-31-26.1 5.1-.4 1.6 5-5.2.4a39.1 39.1 0 0 0-1.6-5Zm43.6 47.7a86 86 0 0 0-5.1 0c-.2 0-.4 0-.4-.2l-1.3-4.4 5.2-.2.5.3 1.1 4.5ZM537.3 384l4.8-.3c.1.1.4 0 .4.3l1.4 4.6-4.8.3c-.3 0-.3-.2-.4-.3-.6-1.6-1-3-1.4-4.6Zm35.9 42.2h-5.5l-1.4-4.6h5c.3-.1.5 0 .5.2l1.4 4.4Zm-43.4-47.5c1.6 0 3.2-.2 4.7-.3.2 0 .4.3.4.3l.7 2.1.8 2.4c-1.7 0-3.2.2-4.7.3-.2 0-.4 0-.4-.3-.5-1.3-1.1-2.8-1.5-4.5Zm30.8 25.9h-3.3c-.7 0-1.5.3-1.9 0-.4-.3-.4-1-.8-1.7l-1-3a77 77 0 0 0 4.9-.2c.2 0 .4.3.4.3a18.8 18.8 0 0 1 1.6 4.6Zm-8.2 27.8h4.7c.2 0 .3 0 .4.3a66 66 0 0 1 1.4 4.8h-4.6l-.4-.3a65.9 65.9 0 0 0-1.5-4.8Zm-6.8-38.3-4.9.2s-.3 0-.4-.3l-1.4-4.6c1.7 0 3.2-.2 4.7-.3.3 0 .5.1.4.2l1.6 4.8Zm7.5 5.2c-.1.2-.1.2-.3 0l-3.2.3c-1.6 0-1.6 0-2.1-1.6l-1-3.1 4.8-.3c.2 0 .4.3.4.3.6 1.5 1 3 1.4 4.4Zm-25.9-26.2 1.6 5c-1.6 0-3 .3-4.6.4-.2 0-.5-.1-.4-.3l-1.5-4.5 5-.6Zm28.4 32.5 5-.2.4.3 1.2 4.5-5 .2c0-.1-.3 0-.3-.3a70.6 70.6 0 0 0-1.3-4.5ZM538 389c-1 0-2 .2-3 .1-.6.2-1.4.4-2 0-.4-.3-.5-1.2-.7-1.9l-.8-2.8c1.6 0 3.2-.2 4.7-.4.2 0 .5.2.4.3.5 1.6 1 3 1.4 4.7Zm16.8 16-5.2.2-1.6-4.7c1.7-.1 3.2-.3 4.9-.3.2 0 .5.1.4.3.6 1.4 1 3 1.5 4.5Zm13 21.9h5.1c.1 0 .4 0 .4.2l1.3 4.3-5.2.1-.4-.3c-.3-1.5-.8-2.8-1.2-4.3Zm-37.1-43.1c-1 0-2.2.1-3 .3-.7 0-1.5.2-1.9 0-.4-.3-.4-1.2-.6-1.7l-1-3.2c1.6 0 3.1-.2 4.7-.3.2 0 .3 0 .4.3.3 1.4.9 3 1.4 4.6Zm22.6 53.6h-3.8c-1 0-1 0-1.4-1-.5-1.3-1-2.7-1.3-4.2h4.5c.2 0 .3.2.4.3a39 39 0 0 1 1.6 5Zm-6-37.7-3 .2c-.6 0-1.6.3-2 0-.4-.3-.6-1.2-.7-2-.4-.8-.5-1.7-.8-2.7l4.7-.4c.2 0 .5.2.4.3l1.4 4.6Zm-7.5-5.2-3.8.2c-1.3 0-1.3 0-1.6-1.2a36.5 36.5 0 0 1-1.1-3.6c1.6 0 3.2-.2 4.7-.3.2 0 .4 0 .4.2l1.4 4.7Zm17.5 16.5 3.5-.2c1.7 0 1.7 0 2.2 1.6l.9 3c-1.7 0-3.2.2-4.8.1a.5.5 0 0 1-.5-.3c-.5-1.2-.8-2.6-1.3-4.2Zm-34.1-32.5-4.7.4c-.3 0-.4-.3-.5-.5l-.7-2.1-.8-2.4 4.6-.5c.2 0 .4 0 .4.3a89.2 89.2 0 0 1 1.7 4.9Zm9.1 10.7c0 .2 0 .2-.2 0l-3.2.3c-1.6 0-1.6 0-2.2-1.6l-1-3.1 5-.4 1.6 4.8ZM550 406l4.9-.2c.1 0 .3 0 .4.3.3 1.4 1 2.9 1.3 4.4-1.6 0-3.3 0-4.8.2l-.4-.3a30.6 30.6 0 0 1-1.4-4.4Zm-24.8-21.6-3.4.2c-1.5.2-1.5.2-2-1.4a31.9 31.9 0 0 1-1-3.4 63.9 63.9 0 0 1 4.8-.4l1.6 5Zm17.3 16.4a73 73 0 0 0 4.9-.3c.1.1.3.2.3.5l.7 2 .7 2.4c-1.7 0-3.4 0-5.1.3-.4-1.8-1-3.2-1.5-5Zm-1 31.8h3c.5 0 1.3-.3 1.8 0 .4.4.6 1.3.8 1.8l1 3.2h-4.8a70.8 70.8 0 0 1-1.8-5Zm10-21.2c1.7 0 3.4-.1 4.9-.3l.4.3 1.4 4.4-4.8.1c-.1 0-.4 0-.3-.2-.7-1.3-1-2.7-1.6-4.3Zm-23.7-21h3.6c1.4 0 1.4 0 1.9 1.3.4 1 .6 2.2 1 3.4l-4.5.2c-.3 0-.3-.2-.4-.3-.7-1.5-1-3-1.5-4.5Zm-11.6-16a89.8 89.8 0 0 0 1.7 4.8 52 52 0 0 1-4.5.3c-.2 0-.4-.3-.5-.3l-.8-2.4c-.1-.7-.5-1.4-.7-2.2l4.8-.2Zm25.5 25.8-4.6.2c-.2 0-.4-.3-.5-.4l-.8-2.3-.6-1.8 4.6-.2c.3 0 .5.1.4.2.6 1.3 1 2.7 1.5 4.3Zm17.3 16.4 5-.1.4.2 1.4 4.5h-5l-.3-.3c-.7-1.3-1-2.8-1.5-4.3Zm-32.1-26.8-4.5.3-.5-.1-1.5-4.5a52 52 0 0 1 4.5-.3c.2 0 .5.1.4.2.7 1.3 1.2 3 1.6 4.4Zm-13.7-9.6 4.4-.3c.3 0 .4 0 .4.3l1.5 4.4c-1.6.1-3.1.3-4.8.3l-1.5-4.7Zm37.6 30.5-3 .3c-.6 0-1.4.2-1.8 0-.4-.4-.5-1.2-.7-1.8l-.8-2.8c1.6 0 3.2-.2 4.7-.1.3 0 .4 0 .4.3.2 1.1.6 2.6 1.2 4Zm-14.6 22h3.5c1.2 0 1.2 0 1.6 1l1.1 4-4.4-.1c-.2 0-.5-.2-.4-.3l-1.4-4.6Zm7.2-27h-4.8c-.1 0-.4-.2-.3-.4l-1-2.9c0-.4-.2-.8-.4-1.3l4.6-.2c.2 0 .5.1.5.3l1.4 4.4Zm17.2 16.3 5-.1 1.5 4.6H562l-.4-.2-1.2-4.3Zm-50-47.2 1.8 4.8-4.5.3c-.3 0-.4 0-.4-.3-.7-1.4-1-3-1.5-4.5l4.7-.3Zm11.7 16 4.6-.2c.2.1.4 0 .3.2l1.5 4.5c-1.7 0-3.2.2-4.6.3-.2 0-.4-.3-.4-.3l-1.4-4.4Zm23.6 20.9 4.7-.2.4.3 1.4 4.4-5 .2-1.5-4.8Zm14 9.6H555l-.3-.1c-.5-1.4-.8-2.9-1.4-4.4l4.8-.2.4.3c.2 1.4.6 2.9 1.2 4.3Zm-23.9-20.8-2.7.1c-.6 0-1.6.3-2 0-.4-.3-.6-1.2-.7-1.9l-1-2.7 4.7-.2c.2 0 .3 0 .4.3l1.3 4.4Zm-28.2-19.9 4.4-.3.4.3c.7 1.5 1 3 1.5 4.5a52 52 0 0 1-4.4.3l-.4-.2-1.5-4.6Zm7.2 5.1a52 52 0 0 1 4.4-.3l.4.3c.7 1.4 1 2.9 1.6 4.5a52 52 0 0 1-4.5.3c-.3 0-.3-.2-.4-.3l-1.5-4.5Zm15.8 47 4.5.1c.1.1.3 0 .4.3l1.5 4.8h-4.6l-1.8-5.1Zm14.3-21.8-4.6.2c-.1 0-.3 0-.2-.1a54.3 54.3 0 0 1-1.4-4.4l4.6-.3.4.3c.3 1.4.6 2.9 1.2 4.3Zm23.6 20.8h-2.9c-.8 0-1.7.2-2.1 0-.6-.4-.5-1.4-.7-2.2l-.7-2.2c1.7-.1 3.2 0 4.8-.2.2 0 .3 0 .4.3.2 1.4.7 2.8 1.2 4.3Zm-8.7-9.8 1.4 4.7-4.8.1-.4-.3-1.4-4.4h5.2Zm-28.7-20.5 4.6-.2c.3 0 .4.3.3.5.3.5.5 1.3.6 2l.8 2.4c-1.6 0-3 0-4.6.2-.2 0-.4 0-.4-.3-.3-1.6-.7-3.1-1.3-4.6Zm-14.5-10.2 4.6-.2.4.3 1.5 4.5-4.5.3-.4-.3a58.7 58.7 0 0 0-1.6-4.6Zm-16.2-15.6 3-.2c.5 0 1.3-.2 1.6 0 .4.3.5 1 .6 1.7l1.1 3-4.4.3c-.3 0-.3-.2-.4-.3l-1.5-4.5Zm23.5 20.8a74 74 0 0 0 4.7-.4l.3.2 1.4 4.4c-1.6.2-3 .2-4.7.2-.2 0-.4-.2-.5-.3l-1.2-4.1Zm16.2 15.4c1.3-.1 2.5 0 3.5-.2 1.5 0 1.5 0 1.8 1.3l1 3.4h-4.7c-.1 0-.3 0-.4-.2-.2-1.4-.7-2.7-1.2-4.3Zm7.3 5.1 3.6-.1c1.4 0 1.4 0 1.9 1.3l1 3.3-4.8.1c-.3 0-.5-.1-.4-.2l-1.3-4.4ZM516 390.4l-4.4.3c-.3 0-.4 0-.4-.3-.6-1.4-1-2.9-1.5-4.5l4.4-.3c.3 0 .3.2.4.3l1.5 4.5Zm15.8 47.2h-4.3c-.2 0-.3 0-.4-.2l-1.5-4.8h4.3l.4.3 1.5 4.7Zm-23-52.2c-1.5.1-3 .1-4.4.3-.3 0-.4-.3-.3-.5-.4-.8-.7-1.9-1-2.9l-.5-1.3 4.3-.4c.3 0 .4 0 .4.3l1.5 4.5Zm17 16.2c1.7 0 3.4-.1 5-.3l1.5 4.8-4.4.1c-.2 0-.5-.1-.6-.3a29.4 29.4 0 0 1-1.4-4.3Zm13.7 9.5h-4.5c-.3.1-.4-.2-.6-.3l-1-3.1a3 3 0 0 1-.3-1l4.5-.1c.2 0 .5.1.4.3l1.5 4.2Zm23.4 20.5-4.8.1c-.1-.1-.4 0-.4-.3l-1.3-4.2h4.7l.4.2 1.4 4.2Zm-45-35.7-4.5.4c-.3 0-.4-.3-.6-.4l-.8-2.6-.6-1.7 4.4-.3c.3 0 .5.1.4.3.6 1.2 1.1 2.8 1.6 4.3Zm31.4 26.1h4.7c.2-.1.4 0 .4.2l1.3 4.2-4.7.1-.3-.2a29.4 29.4 0 0 1-1.4-4.3ZM525 401c-1.6.2-3 .2-4.4.2-.3 0-.4-.3-.6-.4l-.7-2.4c-.3-.5-.4-1.2-.7-1.9l4.8-.2 1.6 4.7Zm-14.5-10.1-4.3.2c-.3 0-.4-.1-.4-.3-.7-1.5-1-3-1.5-4.5l4.4-.3c.3 0 .3.2.4.2l1.4 4.7Zm30.5 25.4-4.5.1c-.2 0-.5-.1-.4-.3l-1.5-4.3c1.7 0 3.1 0 4.6-.2.3 0 .4 0 .4.3l1.4 4.4Zm1 .7c1.6 0 3 0 4.6-.2.1 0 .3 0 .4.3l1.4 4.4c-1.7 0-3.1 0-4.7.2l-.4-.3c-.5-1.6-1-3-1.3-4.4Zm-15.4 20.7h-4.3l-.2-.2c-.5-1.6-1.2-3-1.7-4.8h4.3c.1 0 .3 0 .4.3l1.5 4.7Zm7.2-26.4-4.4.1c-.2 0-.5-.1-.4-.2-.5-1.4-.9-2.9-1.5-4.3 1.7 0 3.1 0 4.7-.2l.4.3 1.2 4.3Zm-7-5-4.7.2-.4-.3-1.5-4.2 4.5-.3c.1 0 .4 0 .4.2a53.1 53.1 0 0 1 1.6 4.4Zm30.4 25.4h-4.7c-.1 0-.3 0-.4-.3l-1.3-4.1 4.7-.2.4.3 1.3 4.3ZM506 391.8l4.4-.3c.3 0 .4 0 .4.3.6 1.4 1 3 1.5 4.5l-4.3.2c-.2-.1-.4-.1-.4-.3-.7-1.5-1-3-1.6-4.4Zm37.5 30.4 4.7-.1c.2 0 .4.3.3.4l.8 2.4.6 1.8h-4.5c-.3.1-.4 0-.5-.2a29.4 29.4 0 0 1-1.4-4.3Zm-24-21a48.9 48.9 0 0 1-4.5.2c-.2 0-.3 0-.4-.3l-1.4-4.2 4.4-.3c.3 0 .3.1.4.2l1.4 4.4Zm9.7 11c.1-.2.2 0 .2 0l2.8-.2c1.9 0 1.9 0 2.4 1.7l1 3-4.4.1c-.2 0-.5-.1-.4-.2-.7-1.6-1.1-3-1.6-4.4Zm7 5 4.6-.1c.2 0 .4 0 .4.2.5 1.4.9 2.9 1.5 4.3l-4.5.1-.4-.3-1.5-4.3Zm-21.3-15c1.5-.2 3-.2 4.4-.2.2 0 .5.1.4.3l1.5 4.2c-1.5.2-3 .2-4.4.2-.2 0-.3-.2-.4-.3l-1.5-4.2Zm7.1 5 4.4-.3c.2 0 .5.2.4.3.5 1.4.8 2.9 1.5 4.3-1.6.1-3 .2-4.6 0l-.4-.2c-.3-1.3-.7-2.7-1.3-4.2Zm29.4 24.6H547c-.2 0-.4 0-.5-.2-.4-1.4-1-2.7-1.3-4.2h4.7l.4.3 1.2 4ZM507.8 397c1.6-.2 3-.2 4.4-.2.2 0 .4 0 .4.3l1.5 4.3-4.4.2-.4-.3a29.4 29.4 0 0 0-1.5-4.3Zm36.6 29.7-2.7.1c-.6 0-1.6.3-2 0-.6-.3-.6-1.2-.9-2l-.8-2.3 4.6-.1c.2 0 .3 0 .4.3l1.4 4Zm-14.2-10.1h-4.5l-.3-.2c-.4-1.3-.8-2.8-1.4-4.2 1.5-.2 3-.2 4.3-.2.3 0 .4 0 .4.3l1.5 4.3Zm-13.3-9.4 4.4-.2c.2 0 .3.1.4.3.5 1.4 1 2.7 1.4 4.3-1.5.1-3 .2-4.5 0l-.4-.2a48.2 48.2 0 0 1-1.3-4.2Zm20.4 14.3-4.5.1-.4-.3-1.5-4.3h4.5l.4.2 1.5 4.3Zm-26-14.7-1.6-4.6c1.5-.2 3-.2 4.4-.2.1 0 .3 0 .4.3l1.4 4.2c-1.5.2-3 .2-4.6.3Zm27.6 20h-4.5c-.1 0-.4 0-.4-.3-.5-1.3-1-2.7-1.3-4.2h4.5l.3.2a29.4 29.4 0 0 1 1.4 4.2Zm.8.5h3.1c1.8 0 1.8 0 2.3 1.6l1 2.7h-4.5c-.3 0-.4 0-.4-.3-.6-1.2-1-2.4-1.5-4Zm-21.2-14.9 4.4-.2c.1.1.4.1.4.3l1.5 4.3-4.4.2-.4-.3a29.4 29.4 0 0 0-1.5-4.3Zm7 5c1.6-.2 3-.2 4.5-.2.2 0 .4.3.5.4l1 3.1c0 .3.3.6.3 1-1.4 0-3 .2-4.2.1a.5.5 0 0 1-.6-.4c-.5-1.3-.8-2.6-1.4-4Zm1 4.5h-3.1c-1.4 0-1.4 0-2-1.4l-1-3 4.4-.1c.2 0 .5.1.4.3.4 1.3 1 2.7 1.3 4.2Zm7 5H529s-.3 0-.4-.3c-.4-1.3-1-2.7-1.4-4.3l4.4-.1c.2 0 .5.1.4.3.7 1.5 1 3 1.6 4.3Zm7.1 4.9h-3c-1.9 0-1.9 0-2.4-1.6-.4-.9-.5-1.8-1-2.7h4.6c.2 0 .4 0 .4.3.5 1.3.8 2.6 1.4 4Zm-12.4-4.9H524c-.2.1-.3 0-.4-.2-.5-1.4-1-2.7-1.4-4.3l4.3-.2.4.3 1.4 4.4Zm7 5H531l-.4-.4-1.5-4h4.6l.4.2c.3 1.3.7 2.7 1.3 4.2Zm-12.1-4.9h-3.2c-1.5 0-1.5 0-2-1.4-.2-1-.6-1.9-1-3l4-.1a.5.5 0 0 1 .6.4l1.6 4.1Zm6.8 5h-4.2l-.5-.3a6496 6496 0 0 0-1.4-4h4.3l.4.3c.6 1.2 1 2.4 1.4 4Zm-11.3-4.3h4.3s.3 0 .4.2l1.4 4-4.3.1c-.1-.1-.4 0-.4-.3l-1.4-4Zm-2.4 10.5c-.7-2.4-1.6-4.6-2.4-7l-19.4-55.6c0-.5-.3-.6-.8-.6l-46.7 4.6-3.2.4.4.9 22.2 57c.1.5.4.7 1 .7l48.7-.3c-.1-.1 0 0 .2 0Zm-50.9-14.8-3.3.1c-.4 0-.7-.1-1-.7-.8-2.4-1.9-5-2.8-7.4l-.2-.6c1.3-.1 2.4-.2 3.5-.1l.5.1 1.6 3.9c-1.3.1-2.5 0-3.7.3.1.4.2.5.6.6 1-.2 1.9-.1 2.9 0l.5.1 1.4 3.7Zm44.7 14.1a70.8 70.8 0 0 1-1.7-5c1-.1 2 0 3-.2.6 0 1.4-.2 1.8 0 .4.3.4 1.2.6 1.7l1 3.2c-1.6.3-3.1.2-4.7.3Zm-14.7-56.4 1.6 4.6-4.6.4c-.1 0-.4 0-.4-.3l-1.6-4.3 5-.4Zm-.2-.7c-1.5.1-2.9.4-4.3.4-.2 0-.5-.2-.4-.3-.5-1.4-1.1-2.8-1.5-4.3l4.5-.5.4.3c.3 1.5.8 2.8 1.3 4.4ZM499 391l-4.6.5c-.1-.1-.4 0-.3-.2l-1.4-4.3c1.6 0 3.3-.3 4.8-.5l1.5 4.5Zm-3 5.8-1.6-4.5 4.6-.4.3.2 1.6 4.3c-1.8 0-3.3.1-5 .4Zm7.3 35.8 4.1-.1c.3 0 .5.1.4.3l1.7 4.6H505l-.4-.3-1.5-4.5Zm-7.1-35.2 4.4-.3c.3 0 .4 0 .4.2l1.5 4.3a52 52 0 0 1-4.5.3c-.2 0-.3 0-.4-.3-.5-1.3-.8-2.8-1.4-4.2Zm8.3 9.3-4.6.2c-.3 0-.5-.3-.5-.3l-1-3a3 3 0 0 1-.4-1 52 52 0 0 1 4.5-.4c.2 0 .4 0 .4.3l1.6 4.1Zm-20.8-29.8c1.6-.2 3-.4 4.4-.4.1 0 .4 0 .3.2l1.6 4.4c-1.6 0-3 .3-4.2.4-.3 0-.5-.2-.5-.2a52.7 52.7 0 0 1-1.6-4.4Zm17.5 35.2-1.5-4.5c1.7 0 3-.3 4.6-.2.3 0 .5.3.5.5l1 2.7.3 1.2-4.9.3Zm-2.9 20.7c1.4 0 2.9 0 4.2-.2l.4.3 1.6 4.6-4.5.1c-.5-1.6-1.3-3.1-1.7-4.8Zm-6.6-46.5-4.2.5c-.2 0-.3 0-.4-.2l-1.4-4.3 4.1-.5c.3 0 .6.1.5.3l1.4 4.2Zm9.8 26.4c1.6 0 3.2-.2 4.6-.3.1.2.4.1.4.3.5 1.4 1 2.7 1.3 4.2-1.6 0-3.3.1-4.8.3l-1.5-4.5Zm-8-21.2-4.3.4c-.2 0-.3 0-.4-.3l-1.4-4.3 4.3-.4c.2 0 .4.1.4.3.4 1.5.9 2.9 1.5 4.3Zm9.7 26.2a76.2 76.2 0 0 0 4.8-.2l1.6 4.3-4.5.1c-.2 0-.3 0-.4-.3-.6-1.2-.9-2.4-1.5-3.9Zm-24.6-40.2 4.6-.4 1.6 4.6-4.2.5c-.2 0-.3 0-.4-.3a52.6 52.6 0 0 1-1.6-4.4Zm20.8 60c-1.4.1-2.7.2-4 0-.2 0-.4 0-.5-.2l-1.6-4.6 4.1-.1c.2 0 .4 0 .4.3l1.6 4.7Zm-19-54.8 4.7-.4 1.6 4.6-4.1.3c-.2 0-.5-.1-.4-.3a24 24 0 0 1-1.7-4.2Zm24.6 40 4.6-.3c.2.1.4.1.4.3l1.5 4-4.6.1c-.1 0-.3 0-.4-.2a14.2 14.2 0 0 1-1.5-4Zm-9.6-25.9-4.3.3c-.2 0-.4 0-.4-.3-.5-1.4-1.1-2.8-1.5-4.3l4.6-.4 1.6 4.7Zm11.3 31c1-.2 2-.2 2.9-.1.6 0 1.4-.3 2 .1.3.3.5 1.2.7 1.8l.8 2.4h-4.5c-.2 0-.4 0-.4-.2l-1.5-4ZM488.2 392l-4.6.4-1.5-4.5 4.1-.4c.3 0 .4.1.5.3a23.9 23.9 0 0 1 1.5 4.2Zm-13-9.4-1.7-4.6c1.5-.2 3-.3 4.4-.6l1.7 4.6-4.5.6Zm22 19.3-3.5.2c-1.3.1-1.3.1-1.6-1.1l-1.2-3.3 4.6-.4 1.6 4.6Zm-8.8 31 3.9-.2.4.3 1.6 4.6c-1.4 0-2.7.2-4 0-.2 0-.4 0-.3-.1l-1.6-4.7Zm10.4-26-2.6.2c-.6 0-1.3.3-1.8 0-.4-.3-.5-1.2-.7-1.8-.3-.8-.7-1.6-.8-2.6a46.5 46.5 0 0 1 4.2-.2c.2 0 .4 0 .4.2l1.3 4.2Zm-10.2-14.3 1.5 4.5-4.1.4c-.3 0-.4 0-.5-.2l-1.6-4.1c1.7-.4 3.2-.4 4.7-.6Zm-13.3-9.5 2.7-.3c.6 0 1.3-.4 1.7 0 .4.2.5 1 .7 1.5.4.8.7 1.9 1 2.9l-4 .4c-.2-.1-.5-.1-.5-.3a36 36 0 0 1-1.6-4.2Zm6.4 4.9 1.5 4.5-4.4.4a52.7 52.7 0 0 0-1.6-4.4c1.5-.4 3-.4 4.5-.5Zm12.8 20 3.2-.3c1.5-.1 1.5-.1 2 1.5l1 2.9-4.3.3c-.2 0-.5-.2-.4-.3l-1.5-4.2Zm-2.6-5.7-4 .4c-.3 0-.4-.1-.5-.3l-1.5-4.2 4-.3c.3 0 .6.1.5.2a35.9 35.9 0 0 1 1.5 4.2Zm-17.4-19.7c-1.5.1-2.9.4-4.3.4a52.7 52.7 0 0 0-1.6-4.4l4-.4.5.3 1.4 4Zm4.6 10.9 4-.4c.3 0 .5.3.6.4.4.6.5 1.3.7 2.1l.7 2c-1.5 0-2.8.2-4 .1a.5.5 0 0 1-.5-.3c-.6-1.3-1-2.6-1.5-4Zm4.5 39.5c1.4 0 2.7-.2 4-.1.2 0 .2.2.3.3l1.6 4.3-3.9.1c-.1 0-.4 0-.4-.3a52.7 52.7 0 0 1-1.6-4.3Zm18.7-16-4.3.3c-.1 0-.3 0-.4-.3l-1.4-4 4.2-.3c.2.1.4 0 .4.3a22.7 22.7 0 0 1 1.5 4Zm-8.5-9.8a46.5 46.5 0 0 1-4.3.3c-.2 0-.4 0-.4-.3l-1.6-4.1a46.5 46.5 0 0 1 4.3-.3l.4.3 1.6 4.1Zm-21.8-19a52.7 52.7 0 0 0-1.6-4.5c1.6 0 3-.3 4.4-.4l1.6 4.7c-1.5-.1-3 .1-4.4.1Zm32 33.8-4 .1c-.3 0-.5-.3-.6-.4l-1.2-3.2v-.5l4.1-.1c.2 0 .5.1.4.3.4 1 1 2.4 1.4 3.8Zm-8.5-9.7-2.1.1c-.9 0-1.7.3-2.3 0-.5-.3-.7-1.2-.8-2l-.8-2c1.5 0 2.9-.3 4-.3.3 0 .6.1.5.3l1.5 3.9Zm-8.6-9.7c-1.5 0-2.9.2-4.1.3-.3 0-.5-.2-.5-.2l-.7-2.4-.5-1.6 4-.2.5.1c.3 1 .7 2.5 1.3 4Zm-8.7-9.7-3.8.3c-.4 0-.5-.1-.7-.5l-1-2.9a3 3 0 0 1-.3-1c1.5-.2 3-.4 4.3-.4l1.5 4.5Zm23 34.2-1.4-4.2c1.5 0 2.9 0 4.2-.2.2 0 .4 0 .4.3l1.4 4-4.5.1Zm-31.6-44c-1.1.3-2.2.4-3.3.4-1 0-1 0-1.5-.9l-1.3-3.3c1.3-.3 2.6-.4 4-.5.2 0 .4.2.3.3a16 16 0 0 1 1.8 4Zm27.6 34.3h-4.1c-.2 0-.4 0-.5-.2-.4-1.4-1-2.7-1.5-4.1 1.4 0 2.8-.3 4.1-.2.3 0 .4 0 .4.3.7 1.3 1 2.6 1.6 4.1Zm-8.5-9.9c-.9 0-1.7 0-2.4.2-.6 0-1.5.4-2 0-.4-.3-.6-1.2-.8-1.8a24.1 24.1 0 0 0-.9-2.4c1.4 0 2.7-.2 4-.3.2 0 .5.2.4.3.7 1.3 1.2 2.7 1.7 4Zm-9.8 25.6 3.9-.1c.1 0 .3 0 .4.3.6 1.4 1 3 1.7 4.4l-4 .1-.3-.3a33.3 33.3 0 0 1-1.7-4.4Zm-9-49.4 1.6 4.4-4.4.4-1.6-4.4c1.5-.1 3-.1 4.3-.4Zm5.8 14.5-1.6-4.4c1 0 2.1 0 3-.3 1.4 0 1.4 0 1.8 1l1.2 3.3c-1.6.2-3 .4-4.4.4Zm31.8 33.7h-4.3c-.1 0-.4 0-.4-.3l-1.4-4h4.3l.4.2 1.4 4Zm-8.6-9.7-4.2.1c-.2 0-.3 0-.4-.3l-1.4-4 4.2-.1.4.2 1.4 4Zm-8.5-9.6-3.4.2c-1 0-1 0-1.4-1l-1.2-3.2 4-.2c.3 0 .4 0 .5.3l1.5 3.9ZM475.8 399c1.5 0 2.8-.3 4.1-.4.2.1.4 0 .5.3a68 68 0 0 0 1.5 4.2l-4 .2c-.2 0-.3-.2-.4-.3l-1.7-4Zm-8.4-9.6c1.2-.1 2.6-.4 3.8-.3.3 0 .4 0 .4.3l1.6 4.1-3.9.3c-.1 0-.3 0-.4-.3l-1.5-4.1Zm-8.4-9.5a42.6 42.6 0 0 1 4-.5c.2 0 .4.3.5.4l.8 2.4.6 1.7c-1.2 0-2.5.2-3.7.4-.2 0-.5-.2-.4-.3a21.2 21.2 0 0 1-1.8-4.1Zm27.1 33.6c1.5 0 2.8 0 4-.2.3 0 .4 0 .4.3l1.5 4-4.2.2-.4-.3c-.3-1.3-.8-2.6-1.3-4Zm-8.4-9.6c1.4 0 2.7 0 4-.2.2 0 .3 0 .4.3l1.4 4c-1.4 0-2.7.1-4 .3l-.4-.3c-.4-1.3-.8-2.6-1.4-4Zm17 19.1 4.2-.1s.3 0 .4.3l1.4 4-4.2.1c-.2 0-.3 0-.4-.3-.5-1.3-1-2.5-1.4-4ZM465 384.3l1.6 4.4c-1.5.1-2.8.2-4.2.5l-1.6-4.4c1.5-.1 2.8-.2 4.2-.5Zm4.3 10.1 2.6-.2c1.7-.2 1.7-.2 2.3 1.4l1 2.8c-1.4 0-2.5.2-3.8.3-.3 0-.4 0-.4-.3-.7-1.3-1.2-2.6-1.7-4Zm27 33.4 4.2-.1c.3 0 .4 0 .4.3l1.5 4c-1.5 0-2.9 0-4.2.2l-.3-.2a47.7 47.7 0 0 1-1.5-4.2Zm-16.3 10h-2.6c-1.4 0-1.4 0-2-1.3l-1-3.2 3.8-.1.4.3c.3 1.3.8 3 1.4 4.4Zm8-19.3 4.1-.2c.1.1.4 0 .4.3l1.4 4-4.1.2-.4-.3-1.5-4Zm-8.5-9.6 3.1-.2c1.3-.1 1-.3 1.4 1l1.2 3.2c-1.5 0-2.8 0-4 .2-.3 0-.5-.2-.4-.3-.4-1.3-.7-2.5-1.3-4Zm-11-15.3-.2.1c-.8 0-1.7.2-2.4.4-1.5.1-1.5.1-2.1-1.3l-1-3c1.3 0 2.6-.2 3.7-.4.2 0 .4 0 .5.2l1.4 4Zm4.2 10.1a52.7 52.7 0 0 1-1.6-4.3c1.3-.2 2.6-.3 4-.3.3 0 .4.3.4.3.3.8.6 1.6 1 2.2l.4 1.6c-1.4.3-2.8.3-4.2.5ZM460 384.2l-3.7.5c-.3 0-.4-.1-.4-.3l-1.6-4.2c1.5-.1 2.8-.2 4.2-.5l1.5 4.5Zm35.7 43.2-4.4.1-1.4-4.2 4.1-.2c.1.1.4 0 .4.3.3 1.3.7 2.5 1.3 4Zm-22.8-23.1 4-.3a.5.5 0 0 1 .5.3l.9 2.5c0 .5.3 1 .5 1.6l-3.9.3c-.2 0-.4 0-.4-.3a68.8 68.8 0 0 1-1.6-4.1Zm8.4 9.5 4.1-.1.3.2 1.4 4-4 .2c-.1 0-.4 0-.4-.3l-1.4-4ZM462 389.3c-1 .1-2 0-2.9.2-1.3.1-1.3.1-1.8-1-.3-1.1-.9-2-1.2-3.1l3.8-.4c.2 0 .4 0 .4.3l1.7 4Zm2.6 5.5c.8 0 1.5-.2 2.2-.3.7-.1 1.5-.4 2-.1.3.3.5 1.2.7 1.8l.9 2.4-3.9.4a.5.5 0 0 1-.5-.4c-.5-1.1-1-2.3-1.4-3.8Zm20 28-1.5-4 4-.3c.1 0 .4 0 .4.3.5 1.3 1 2.5 1.4 4h-4.3Zm12.8 9.4-4.4.2-1.6-4.2h4c.2-.1.5 0 .5.3l1.5 3.7Zm-27.8 1.2h3.7s.3 0 .4.2a53.1 53.1 0 0 1 1.6 4.4h-3.9l-.4-.4a29.4 29.4 0 0 0-1.4-4.2Zm-11.6-43 3.8-.4.3.2 1.6 4.1-3.9.3c-.1 0-.4 0-.4-.2-.5-1.4-.8-2.6-1.4-4Zm16.7 18.8 4-.3.4.1 1.5 4a55 55 0 0 0-4 .3c-.3 0-.3-.2-.5-.3l-1.3-3.8Zm-2.6-5.5-3.9.3s-.3 0-.4-.3l-1.4-4 3.9-.3c.2 0 .5.1.4.3l1.4 4Zm-16.8-18.9-4 .4a52.7 52.7 0 0 1-1.7-4.4l4-.4a33.1 33.1 0 0 1 1.7 4.4Zm35.4 42.7-3.3.1c-1.2 0-1 .3-1.5-1l-1.2-3.3h4a.5.5 0 0 1 .5.3 42.5 42.5 0 0 1 1.5 4ZM476.4 414l2.4-.1c.6 0 1.4-.3 1.8 0 .4.3.4 1.1.6 1.7.3.8.5 1.6 1 2.4-1.5 0-2.6.3-3.8.2a.5.5 0 0 1-.6-.4c-.3-1.2-.9-2.4-1.4-3.8Zm-10.8-14.9-3.9.3c-.2 0-.4 0-.4-.2l-1.5-4 3.9-.3c.2 0 .2.2.4.3l1.5 4Zm-14-13.3c1.3 0 2.4-.3 3.7-.4.2 0 .4 0 .5.2l1.6 4.1-4.1.4-1.7-4.3Zm22.3 22.8-4 .3-.4-.3-1.4-4 3.9-.4c.2 0 .3 0 .4.3a70.5 70.5 0 0 1 1.5 4.1Zm12.7 19.6h4.1l.4.2 1.4 4h-4.3l-1.7-4.2Zm-2.5-5.4c-1.3.1-2.8.2-4 .1l-.4-.3-1.5-3.9c1.4 0 2.7 0 4-.2l.4.3 1.5 4Zm-30.7-32 3.6-.3.5.1 1.5 4-3.8.5c-.2 0-.3 0-.4-.3l-1.4-4Zm22.2 22.7-3.8.2-.5-.2-1.5-3.9 3.9-.3c.2 0 .4 0 .4.3.7 1.3 1.1 2.4 1.5 3.9Zm-8.2-9.4-3.9.3c-.1-.1-.3 0-.4-.3l-1.5-4 3.9-.2c.2 0 .3 0 .4.2a42.4 42.4 0 0 1 1.5 4Zm-22.2-22.8a34 34 0 0 0 3.6-.5c.2 0 .4 0 .5.2l1.6 4.1-3.8.4c-.2 0-.4 0-.4-.2l-1.5-4Zm40.5 46.4h-3.9c-.1 0-.3 0-.4-.2l-1.5-4h4l.5.4 1.3 3.8Zm-8.2-9.4h-2c-.7 0-1.7.4-2.1 0-.4-.2-.6-1.1-.8-1.7l-.9-2.2 3.8-.2c.2 0 .5.1.6.4.4 1.1 1 2.3 1.4 3.7Zm-6.8 19.5H467l-.4-.2a76.3 76.3 0 0 0-1.7-4.3h3.7a.5.5 0 0 1 .5.4 81 81 0 0 1 1.6 4.1Zm-1.5-28.8-3.8.2-.4-.3c-.4-1.4-1-2.6-1.5-4l3.8-.1c.2 0 .4 0 .4.3.6 1.2 1 2.4 1.5 3.9Zm-16.5-18.7c-.7.1-1.3 0-2 .2-.7.1-1.5.4-1.9.1-.4-.3-.5-1.2-.8-1.8l-.8-2.2 3.5-.4a.5.5 0 0 1 .5.4c.4.9 1 2.2 1.5 3.7Zm2.6 5.3 2.8-.3c1.2-.2 1.2-.2 1.6 1l1.2 3.2c-1.3 0-2.6.2-3.7.3-.2 0-.5-.2-.4-.3l-1.5-4Zm26.5 32.8c1.4 0 2.7-.2 4-.1.2 0 .3 0 .3.3.6 1.2 1 2.4 1.4 3.8h-3.9l-.4-.2c-.6-1.2-1-2.5-1.4-3.8Zm-2.6-5.3h-3.9c-.1 0-.4 0-.3-.1l-1.5-4 3.8-.1c.2 0 .4 0 .4.3.6 1.2 1 2.5 1.5 3.9Zm-16.5-18.7c-1 0-2.1.1-3 .3-.7.1-1.2-.2-1.4-1a43 43 0 0 0-1.2-3.2l3.7-.3c.2 0 .3 0 .4.3l1.5 3.9Zm8.3 9.3-3.8.2c-.1-.1-.3 0-.4-.3-.6-1.2-.9-2.5-1.5-4l3.8-.1.4.3c.6 1.2 1 2.5 1.5 3.9Zm-22.2-22.5c1.3 0 2.5-.3 3.7-.3.2 0 .3 0 .5.2l1.5 3.9c-1.3 0-2.6.2-3.7.3-.2 0-.2-.2-.4-.3-.5-1.2-.9-2.5-1.6-3.8Zm18.3 23.4 3.8-.2c.2 0 .5.2.5.4l1 2.5c0 .4.3.8.4 1.3-1.3.1-2.5 0-3.8.2a.5.5 0 0 1-.5-.4l-1.4-3.8Zm-2.5-5.4-3.8.2c-.1-.1-.3 0-.2-.2l-1.6-4 4-.2.2.2c.5 1.3.8 2.6 1.4 4Zm16.4 18.6h-4s-.3 0-.3-.2c-.6-1.2-1-2.5-1.4-3.8l4-.1.5.4 1.2 3.7ZM450.7 396l4.2-.4 1.7 4.3a52 52 0 0 0-4 .2c-.8-1.3-1.2-2.7-1.9-4.1Zm32 36.5H479c-.3.1-.4 0-.4-.2-.6-1.2-1-2.5-1.6-4h4s.3 0 .4.3l1.5 3.9Zm-8.2-9.3c-1.3.1-2.5 0-3.8.2-.1-.1-.4 0-.4-.3l-1.5-3.9c1.3-.1 2.5 0 3.7-.2.3 0 .6.2.5.3.7 1.3 1 2.6 1.5 3.9Zm-13.8-13 3.7-.4c.2 0 .5.2.5.4l1.2 3.3c0 .2.2.3.3.4l-3.8.2c-.2 0-.5-.2-.4-.3-.6-1.2-.9-2.5-1.5-3.7Zm-2.5-5.5-3.6.3c-.2-.1-.4 0-.3-.2l-1.5-4c1.3 0 2.4 0 3.6-.2.3 0 .5.2.6.4.2 1.2.8 2.4 1.2 3.7Zm18 23.2-2.7.1c-1.4 0-1.4 0-2-1.4a19 19 0 0 1-1-2.7c1.3-.1 2.5 0 3.8-.2.3 0 .4 0 .4.3.7 1.3 1 2.6 1.5 3.9Zm-12.1-9-1.6-4 3.8-.3.4.3a66 66 0 0 0 1.5 4c-1.5-.2-2.8 0-4.1 0Zm-9.8-13.3 3.7-.2c.2-.1.4 0 .5.1l1.5 3.9-4 .2-1.7-4Zm15.6 17.8-2.8.1c-1.4 0-1.4 0-1.7-1.2l-1.1-2.8c1.3-.1 2.5 0 3.8-.2.2 0 .5.2.4.3l1.4 3.8Zm2.6 5.3 3.9-.1.4.3 1.4 3.8h-4l-.4-.2c-.4-1.3-1-2.6-1.3-3.8ZM461.8 414l-4 .2-1.6-4.1c1.3-.1 2.5 0 3.7-.3.2 0 .3 0 .4.3l1.5 3.9Zm4.3 10.1c1.3-.1 2.5 0 3.7-.2.2.1.4 0 .4.3.6 1.2 1 2.5 1.4 3.8-1.3.1-2.5 0-3.7.2l-.5-.3-1.3-3.8Zm7.3 8.4h-2.5c-1.4 0-1.4 0-2-1.4l-1.1-2.5h3.7c.2-.1.4.2.4.2.6 1.2 1 2.5 1.5 3.7Zm-11.9-8.3h3.7l.4.2c.6 1.2 1 2.5 1.4 3.8h-3.7l-.4-.2c-.3-1.3-.9-2.5-1.4-3.8Zm7.3 8.5-3.6.1-.5-.1c-.6-1.2-.9-2.5-1.5-3.7l3.6-.1c.2 0 .3 0 .4.3a18 18 0 0 1 1.6 3.5ZM453 379.6c-1.6.5-8.5 1.1-8.9.9l9-.9Z"/></g><g clip-path="url(#b)"><mask id="c" width="828" height="828" x="4" y="-28" maskUnits="userSpaceOnUse" style="mask-type:alpha"><g fill="#2F8FFC" opacity=".4"><circle r="213.9" transform="scale(1 -1) rotate(60 543.5 168.7)"/><circle r="413.5" fill-opacity=".2" transform="scale(1 -1) rotate(60 543.5 168.7)"/><circle r="314.8" fill-opacity=".4" transform="scale(1 -1) rotate(60 543.5 168.7)"/></g></mask><g mask="url(#c)"><path fill="#5C5F63" d="m416.6 386.5-.2 441.2L181 794.1 34.3 606.9l382.3-220.4Z"/></g></g><defs><clipPath id="a"><path fill="#fff" d="M519.8 206 239 284.6l76.4 273 280.8-78.5z"/></clipPath><clipPath id="b"><path fill="#fff" d="M216.5 291 594 509 377.5 884 0 666z"/></clipPath></defs></svg>