<svg xmlns="http://www.w3.org/2000/svg" width="1920" height="923" fill="none"><path stroke="#212A33" stroke-dasharray="9 9" stroke-linecap="round" stroke-linejoin="round" stroke-width="2" d="M-1 175h107.2c105.6 0 320 0 532.8 79.2 212.8 79.2 427.2 237.6 640 328 212.8 90.5 427.2 113.2 532.8 124.5L1919 718"/><g clip-path="url(#a)"><path fill="url(#b)" d="m514.8 268.2 755.4-.2-378 654.5-377.4-654.3Z" opacity=".2"/></g><path fill="#252E36" d="m508.5 278 7.5 7.8 1.6 5.1 8.2 8.2 4 .5 17.5 17.5c2.7 2.7 13.5-3.6 24-14.1s16.8-21.3 14.1-24h.1l-9-9-1-1.8-20-20-2-.4-5-5.2"/><path fill="#5C5F63" fill-rule="evenodd" d="m508.8 277.7-.5.5 7.4 7.8 1.6 5.1 8.3 8.3 4 .6 17.4 17.4c.8.8 2.2.8 3.7.5 1.6-.4 3.6-1.3 5.8-2.6 4.4-2.6 9.8-6.8 15-12a79.2 79.2 0 0 0 12-15c1.4-2.3 2.3-4.2 2.6-5.8.4-1.6.4-2.8-.4-3.7l-9-9-1-1.8-20.1-20.2-1.8-.3-5.2-5.1-.4.5 5.2 5.2 1.9.3 20 20 .9 1.8 9 9c.5.5.7 1.6.3 3.1a22 22 0 0 1-2.5 5.6 78.6 78.6 0 0 1-12 14.9 78.6 78.6 0 0 1-14.8 12 22 22 0 0 1-5.6 2.4c-1.5.4-2.6.2-3.1-.3l-17.6-17.6-4-.5-8-8-1.6-5.1-7.5-8Z" clip-rule="evenodd"/><path fill="#252E36" d="M525.9 299.2c4.2 1.6 17-3.3 27.7-13.9 10.6-10.6 15-21 13.6-25.4"/><path fill="#5C5F63" fill-rule="evenodd" d="M530.4 298.9c-2 .4-3.4.4-4.4 0l-.2.6c1.1.5 2.8.5 4.8 0a32 32 0 0 0 6.9-2.3c5-2.4 11-6.3 16.3-11.6a60.4 60.4 0 0 0 11.4-15.2c1.1-2.2 1.9-4.3 2.3-6.1.4-1.8.4-3.3 0-4.5l-.6.2c.3 1 .3 2.4 0 4.2-.5 1.7-1.2 3.7-2.3 6-2.2 4.4-6 9.6-11.2 14.9a58 58 0 0 1-16.2 11.5c-2.5 1.1-4.8 1.9-6.8 2.3Z" clip-rule="evenodd"/><path fill="#252E36" d="M517.6 291c4.2 1.5 16.9-3.6 27.5-14.2 10.6-10.6 15-21 13.6-25.4"/><path fill="#5C5F63" fill-rule="evenodd" d="M522.1 290.6c-2 .4-3.4.4-4.4 0l-.2.6c1.1.5 2.8.4 4.7 0 2-.4 4.3-1.2 6.9-2.5 5-2.4 10.9-6.3 16.2-11.7a60.4 60.4 0 0 0 11.4-15.1c1.1-2.3 1.9-4.3 2.2-6.1.4-1.8.5-3.4 0-4.5l-.6.2c.4 1 .4 2.4 0 4.1-.4 1.8-1.1 3.8-2.2 6-2.2 4.4-6 9.7-11.3 15-5.2 5.2-11 9.2-16 11.5-2.5 1.2-4.8 2-6.7 2.5Z" clip-rule="evenodd"/><path fill="#252E36" d="M561.2 199.2 543 258.7l-70.4 39.1-50.6-50.5 18.1-59.8 69.6-39.6 51.4 51.3Z"/><path fill="#5C5F63" fill-rule="evenodd" d="m440 187.3-18.3 60 51 51 70.7-39.3 18.1-59.9-51.6-51.6-70 39.8Zm69.8-39 51 51-18 59.2-70 39-50.3-50.3 18-59.4 69.3-39.5Z" clip-rule="evenodd"/><path fill="#394149" d="m509.8 148-19 58.4-68.7 40.9 18.1-59.8 69.6-39.6Z"/><path fill="#5C5F63" fill-rule="evenodd" d="M439.9 187.3 421.5 248l69.6-41.4 19.4-59.6-70.6 40.2Zm69.3-38.6-18.8 57.5-67.6 40.2 17.7-58.6 68.7-39Z" clip-rule="evenodd"/><path fill="#5C5F63" fill-rule="evenodd" d="M543.4 258.4 491 206.1l-.7.7 52.4 52.3.6-.7Z" clip-rule="evenodd"/><path fill="#252E36" d="M439.2 214.5c-3.9-4 2.8-16.7 14.9-28.7 12-12 24.9-18.7 28.6-15l5.7 5.7c3.8 3.9-2.9 16.7-15 28.7-12 12-24.8 18.6-28.6 14.9l-5.6-5.6Z"/><path fill="#5C5F63" fill-rule="evenodd" d="M471.5 172.3a75 75 0 0 0-17.5 13.4c-6 6-10.7 12.2-13.4 17.4-1.4 2.6-2.2 5-2.5 7-.3 1.9 0 3.4 1 4.4l5.6 5.6c1 1 2.5 1.3 4.5 1 2-.3 4.3-1.1 6.9-2.5a75 75 0 0 0 17.4-13.3c6-6 10.8-12.3 13.5-17.5 1.3-2.6 2.2-5 2.5-6.9.2-1.9 0-3.5-1-4.5l-5.7-5.6c-1-1-2.5-1.2-4.4-1a23 23 0 0 0-7 2.5Zm6.9-2.3c1.9-.3 3.4 0 4.3 1l5.6 5.6c1 1 1.2 2.4 1 4.3-.3 2-1.2 4.3-2.5 6.8a75.7 75.7 0 0 1-13.4 17.4c-6 6-12.2 10.7-17.4 13.4-2.6 1.3-5 2.2-6.8 2.4-2 .3-3.4 0-4.3-.9l-5.7-5.6c-.9-1-1.2-2.4-1-4.4.3-1.9 1.2-4.2 2.5-6.8a75.7 75.7 0 0 1 13.4-17.4c6-6 12.3-10.6 17.4-13.3 2.6-1.4 5-2.2 6.9-2.5Z" clip-rule="evenodd"/><path fill="#394149" d="m533.2 259.3-61.7 34.3-6.8-6.8-9.2-9.2 21.7-13.2-13.5-13.5 13-7.9 7.5 8 24.9-15.8 24.1 24.1Z"/><path fill="#5C5F63" fill-rule="evenodd" d="m463.2 250.9 13.5 13.5-21.8 13 16.6 16.6 62.3-34.6-24.7-24.7-24.9 15.9-7.5-8-13.5 8.3Zm13.4-7.5 7.5 8 25-15.8 23.6 23.6-61.1 34-15.6-15.6 21.8-13.1-13.5-13.5 12.3-7.6Z" clip-rule="evenodd"/><path fill="#252E36" d="m472.4 270.5 13.1 13-13.2 7.9-6-6-7.2-7.2 13.3-7.7Z"/><path fill="#5C5F63" fill-rule="evenodd" d="m458.6 278.1 13.6 13.7 13.8-8.2-13.5-13.5-14 8Zm13.8-7.2 12.6 12.6-12.7 7.4-12.6-12.6 12.7-7.4Z" clip-rule="evenodd"/><path fill="#252E36" d="m527.6 255.9-9.5 5.6-4.4-4.4-8.1-8.1 9.7-5.4 12.3 12.3Z"/><path fill="#5C5F63" fill-rule="evenodd" d="m505 249 13 13 10.2-6-12.8-12.8-10.4 5.7Zm10.3-5 11.8 11.8-9 5.3-12-12 9.2-5.1Z" clip-rule="evenodd"/><path fill="#394149" d="m540.5 186.4-9 26.3 9.6 9.6 9.5-25.8-10-10Z"/><path fill="#5C5F63" fill-rule="evenodd" d="m540.4 185.8-9.3 27 10.1 10.1 9.8-26.5-10.6-10.6Zm.3 1.2 9.5 9.5-9.2 25.2-9.1-9 8.8-25.7Z" clip-rule="evenodd"/><path fill="#252E36" d="m447.5 272.6-61.6 4.8-92.7 51.2-1.7-1.7 94.2-55.3 56.8-4 5 5Z"/><path fill="#5C5F63" fill-rule="evenodd" d="m291 326.9 2.1 2 93-51.2 62.1-4.8-5.6-5.6-57 4-94.6 55.6Zm94.8-55 56.6-4 4.3 4.4-60.9 4.8-92.6 51-1.1-1 93.7-55.2Z" clip-rule="evenodd"/><path fill="#394149" d="M640.2 70.4 618 138.6l-58.4 34 22.3-69 58.3-33.2Z"/><path fill="#5C5F63" fill-rule="evenodd" d="M581.7 103.4 559 173.3l59.2-34.5 22.6-69.1-59.1 33.7ZM639.6 71l-22 67.2-57.4 33.5 22-68 57.4-32.7Z" clip-rule="evenodd"/><path fill="#394149" d="m578.4 105.2-22.3 69-56.7 32.4 21.7-68.5 57.3-32.9Z"/><path fill="#5C5F63" fill-rule="evenodd" d="m520.8 138-22 69.4 57.6-32.9 22.6-70-58.2 33.4Zm57-32-22 68-55.8 32 21.4-67.6 56.4-32.4Z" clip-rule="evenodd"/><path fill="#394149" d="m432.9 189.5-21.6 66.2-58.5 35.2 22.8-69 57.3-32.4Z"/><path fill="#5C5F63" fill-rule="evenodd" d="m375.3 221.7-23 70 59.3-35.8 21.8-67.1-58 33Zm57-31.5L411 255.5l-57.6 34.6 22.5-67.9 56.4-32Z" clip-rule="evenodd"/><path fill="#394149" d="m371.3 224.6-22 67.6-57.8 33.7 22.4-67.7 57.4-33.6Z"/><path fill="#5C5F63" fill-rule="evenodd" d="m313.6 258-22.7 68.6 58.7-34.2 22.2-68.6-58.2 34.2Zm57-32.7L349.2 292 292 325l22-66.6 56.6-33.2Z" clip-rule="evenodd"/><path fill="#5C5F63" d="m579.5 104-4.6 2.6-53.4 30.5c-.4.2-.7.5-.7 1l-21.4 68.1c0 .3 0 .5-.2.9.3-.1.4-.2.5-.4l53.2-30.3 3.6-2c.4-.2.6-.4.7-1l9.6-30 12.5-39 .2-.5Zm-45 29.7-1 3.4c0 .2-.2.3-.2.3l-2.9 1.6c.2-1.3.6-2.4 1-3.6l.2-.2 2.8-1.5Zm4-2.2c-.4 1.3-.7 2.5-1.2 3.6 0 0 0 .2-.2.2l-3 1.7c.2-1.3.6-2.3 1-3.5l.3-.4 3.1-1.6Zm21.3-8.4.1.1-1 3.3c-.1 0-.1.3-.3.2l-3 1.7c.2-1.3.7-2.3 1-3.5l.2-.2 3-1.6Zm1.3-4.3.2.1-1.1 3.5-.3.2-3 1.7c.2-1.3.7-2.4 1-3.5l.3-.4c1.1-.6 2-1.2 3-1.6Zm7.8-4.3h.2L568 118l-.3.2-3 1.8 1.2-3.6.2-.2 2.8-1.7Zm-47.5 33.3-.1-.1c.2-1 .5-1.7.8-2.5.2-.9.6-1.3 1.4-1.7l2.1-1c-.2 1.3-.5 2.2-.8 3.4l-.3.2-3.1 1.7Zm29.4-16.1.2.1-1.1 3.5-.3.2-3 1.7c.2-1.3.7-2.4 1-3.6l.3-.3 3-1.6Zm-2.8 1 1-3.3c.1 0 .1-.3.3-.3l3-1.6-1 3.5-.2.3c-1.1.4-2 1-3 1.5Zm-6.5.1c.3-.9.6-1.4.6-2 .2-1.4.9-2.2 2-2.5.7-.3 1.1-.7 1.9-1l-1.1 3.4-.1.4-3.3 1.7Zm12.6.2c.4-1.3.7-2.5 1.2-3.6l.2-.2 3-1.7c-.2 1.3-.6 2.3-1 3.5l-.2.2-3.2 1.8Zm14.5-15.2c-.1 0-.1 0 0 0 .2-1.3.6-2.3.9-3.4 0-.2 0-.2.2-.3l3-1.7c-.2 1.3-.6 2.4-1 3.6l-.2.2-2.9 1.6ZM543.3 136v.1l-1 3.4-.1.2-3 1.8c.2-1.3.6-2.4 1-3.6l.3-.3 2.8-1.6ZM524 146.8l.1.1-1 3.2c-.2.2-.2.4-.3.3l-3 1.7.8-3.5c.2 0 .3-.2.3-.2 1.2-.5 2.1-1 3.1-1.6Zm4.7-3.2c.4-1.3.7-2.4 1.2-3.5l.2-.2 3-1.8c-.2 1.3-.5 2.3-.9 3.5l-.4.4c-1 .4-2 1-3.1 1.6Zm13.4-14.3L541 133l-.2.2-3.2 1.9 1.1-3.5c.1-.1.1-.3.4-.3l3.1-1.9Zm11.4-6.4v.1c-.2 1.2-.6 2.2-.9 3.4-.1.1 0 .2-.2.2l-3.2 1.9 1.2-3.6.3-.2c.7-.6 1.7-1.1 2.8-1.8ZM529 151.1v.1l-1 3.4s0 .3-.1.2l-3 1.6v-.1l1-3.5.3-.2 2.8-1.5Zm22.8-20.5v-.1c.2-1.2.7-2.3 1-3.5l.2-.2 3.2-1.8-1.2 3.5-.4.4c-1 .7-1.9 1.3-2.8 1.7Zm5.7-9.7-1.2 3.5-.2.3c-1 .5-2 1-3.2 1.8l1.2-3.6c.1 0 .1-.3.2-.2 1-.7 2-1.3 3.2-1.8Zm3.3 1.1c.2-1.3.6-2.2.9-3.4.1-.1.1-.3.2-.2l3.2-1.9-1.2 3.6-.3.2c-.8.7-1.8 1.2-2.8 1.7Zm3-1.1-1.3 3.5c0 .1 0 .2-.2.2l-3.2 1.8c.4-1.3.7-2.5 1.2-3.6l.2-.2 3.2-1.7Zm-17 13c.2 0 .2 0 0 0-.3 1.2-.5 2.2-1 3.3l-.1.5c-1 .5-2 1-3.2 1.8l1.2-3.6.2-.2 3-1.8Zm-20 4.1v.1l-1 3.4-.2.2-3.1 1.8 1-3.4c.2-.1.2-.3.4-.3.9-.7 1.9-1.2 2.8-1.8Zm34.9-9.3 1-3.4c.2-.1.2-.3.4-.3 1-.6 2-1.1 3.1-1.9-.4 1.3-.7 2.5-1.2 3.6l-.2.2c-1 .7-2 1.2-3.1 1.8Zm.6-3.4c-.4 1.3-.7 2.5-1.2 3.6l-.2.2c-1 .5-2 1-3.1 1.8.4-1.3.7-2.5 1.2-3.6l.2-.2 3.1-1.8Zm-33 15v.1l-1 3.4-.2.2-3.1 1.8 1-3.4c.2-.2.2-.4.4-.4l2.8-1.7Zm8.3 5.4v-.1c.2-1.2.6-2.2.9-3.4l.2-.2c1-.5 2-1 3-1.7-.2 1.3-.6 2.3-1 3.5l-.1.2-3 1.7Zm17-16.2-1 3.5c-.2 0-.2.3-.3.2l-3.1 1.8 1.2-3.5c.1-.1.1-.3.3-.3l3-1.7Zm10.9-2.8c.4-1.3.7-2.5 1.2-3.6l.2-.2 3.1-1.8c-.4 1.3-.7 2.4-1.2 3.5l-.2.2c-1 .6-2 1.1-3.1 1.9Zm-25.2 18 .1.1-1 3.5c-.2 0-.2 0-.3.2-1 .5-2 1-3 1.7.2-1.3.7-2.4 1-3.6l.2-.2 3-1.7Zm9-8.6.1.1-.6 2c-.2 1-.8 1.8-1.9 2.3l-2 1c.5-1.3.7-2.3 1.2-3.4 0-.1 0-.3.3-.3l3-1.7Zm17.6-13.8c.4-1.3.7-2.5 1.2-3.6l.2-.2 3.1-1.9c-.4 1.3-.7 2.5-1.2 3.6l-.2.2-3.1 1.8ZM540.2 137l1.1-3.4c.1-.1.1-.4.4-.4l3-1.8-1.1 3.6-.2.2c-1 .7-2 1.3-3.2 1.8Zm-25.4 32.2-.2-.1 1-3.1c.1-.2.1-.4.2-.3l3-1.7.2.1-1 3.4-.2.2c-1.1.4-2 1-3 1.5Zm52.7-50.4.1.1-1 3.3c-.2 0-.2.3-.3.4-1 .5-2 1-3.1 1.8l1.2-3.5c.1-.2.1-.4.2-.3l3-1.8Zm-36.7 16.8-1 3.7-.3.2-3.1 1.9 1-3.5c.2 0 .3-.2.4-.3 1-.8 2-1.3 3-2Zm1.9 5.8 1-3.5c.2-.1.2-.3.3-.2l3.1-1.9-1.2 3.6-.2.2-3 1.8Zm-5.2 6.5c.4-1.3.7-2.5 1.2-3.6l.2-.2 3.1-1.9-1 3.5-.4.3-3.1 1.9Zm7.5-4.4 1.2-3.5c.1-.2 0-.3.2-.3l3.2-1.8-1.1 3.5-.4.4a16 16 0 0 1-3 1.7Zm1.3-4.3 1.1-3.5c.1 0 0-.2.2-.2l3.2-1.8-1.2 3.5-.3.4-3 1.6Zm1.8 3.2v.1l-1 3.4-.2.3-3 1.8 1.1-3.6.2-.2 2.9-1.8Zm-6.7 3.3 1-3.5c.1 0 .1-.3.4-.3 1-.5 2-1 3-1.7-.4 1.3-.8 2.5-1 3.7 0 0-.2 0-.3.2-1 .4-2 1-3.1 1.6Zm-3.3-1.3-.6 2.4c-.3 1-.8 1.6-1.7 2l-2 1.2 1-3.4c.2-.1.2-.3.4-.3.7-.8 1.7-1.3 3-1.9Zm-6.7 10.8v.1c-.2 1.2-.6 2.2-.9 3.4-.1.1-.1.3-.2.2l-3.1 1.9 1.1-3.6.3-.2c.8-.7 1.8-1.2 2.8-1.8Zm31.4-18 1-3.5c.2 0 .2-.3.3-.2l3.1-1.8c-.4 1.3-.7 2.5-1.2 3.6l-.3.3-3 1.6Zm-4.7 3.2h.1l-1 3.5-.3.2-3.1 1.9 1-3.5c.2 0 .3-.2.4-.3 1-.8 2-1.3 3-1.8Zm7.8-4.4-.6 2.4c-.3 1-.8 1.6-1.7 2l-2 1.2 1-3.4.4-.3c.8-.8 1.8-1.2 3-1.9Zm-30.4 17-1.1 3.5c-.1.1 0 .2-.2.2l-3.2 1.9 1.1-3.5c.1 0 .1-.3.4-.3a16 16 0 0 1 3-1.7Zm24.4-28-1.1 3.5c-.1 0-.1.3-.3.3-1 .5-2 1-3 1.7l1.1-3.5.3-.3c1-.5 2-1 3-1.7Zm13.6 6.7-1.2 3.5-.2.3-3.2 1.8 1.1-3.5c.1 0 .1-.3.4-.3l3.1-1.8Zm-22 12c.3-1.4.7-2.6 1.1-3.7l.2-.2 3.2-1.8-1.1 3.4-.4.4-3 1.8Zm-7.2.8s0 .1 0 0c-.2 1.3-.6 2.3-.9 3.5l-.2.2-3 1.6 1-3.6.3-.2 2.8-1.5Zm30-13.6c.4-1.3.7-2.5 1.2-3.6l3.2-2-1.2 3.7-.3.3-3 1.6Zm-40.7 29.8 1-3.4.1-.2 3-1.8-.8 3.5-.3.3-3 1.6Zm-.8-9.7.1.1-1 3.2v.3l-3.2 1.8 1-3.4.3-.2c.8-.7 1.8-1.2 2.8-1.8Zm22.6-2c.1 0 .1 0 0 0-.2 1-.5 2.2-.9 3.2 0 0 0 .3-.2.4l-3.1 1.8 1-3.4.3-.2c.8-.7 2-1.3 2.9-1.9Zm9.9-9.5.6-2.4c.2-1 .8-1.6 1.6-2 .7-.3 1.3-.7 2.1-1.3l-1 3.5c0 .2-.2.3-.4.3-.9.7-1.9 1.2-3 1.9Zm-26.8 14.9 1.2-3.6.2-.2 2.8-1.6.2.2-1 3c0 .3-.1.4-.2.5l-3.2 1.7Zm32.6-24.9-1 3.5c-.2 0-.2.3-.4.3-1 .5-2 1-3 1.7.4-1.3.7-2.4 1.2-3.5l.2-.2c.7-.6 1.8-1 3-1.8ZM549 150.3l-.2-.1c.5-1 .7-2.2 1.1-3.3.1 0 .1-.3.3-.2l3-1.7c-.2 1.3-.7 2.4-.9 3.4l-.2.3c-1.2.5-2.2 1-3.1 1.6Zm-18.5-3.5c-.2 1.3-.6 2.2-1 3.3-.1.1-.1.4-.2.2l-3.2 1.9 1.2-3.6.3-.2 2.9-1.6Zm23-12.8-1 3.4c0 .1 0 .3-.2.2-1 .6-2 1.1-3.1 1.9l1-3.5c.2 0 .2-.3.4-.3.9-.7 1.9-1.2 2.8-1.7ZM516 165l-.1-.1 1-3.3c.1 0 .1-.3.3-.2l2.9-1.6c-.2 1.3-.7 2.4-1 3.5l-.2.3c-1 .3-2 .8-3 1.4Zm20.5-18.2h.2c-.4.8-.6 1.5-.7 2.2-.1 1-.8 1.7-1.6 2-.7.3-1.3.7-2 1.3l1-3.5.1-.3 3-1.7Zm26.5-11.6c-.2 0-.2 0 0 0 .2-1.3.6-2.3 1-3.5l.2-.3 3-1.8-1.1 3.6-.2.2-3 1.8Zm-14.5-5.8-1.1 3.5c-.1.1-.1.3-.2.2-1 .6-2 1-3.2 1.9l1.2-3.6.4-.3 2.9-1.7Zm11.9 3.7 1-3.5c.2 0 .2-.3.4-.3 1-.6 2-1.1 3.1-1.9-.4 1.3-.7 2.5-1.2 3.6l-.2.2-3.1 1.9Zm1 6.6.6-2.4c.2-1 .7-1.6 1.6-2 .7-.3 1.3-.7 2-1.3l-1 3.5-.1.3-3.2 1.9ZM550 146c.4-1.3.7-2.5 1.2-3.6l.2-.2 3.1-1.9-1 3.5c-.2.1-.2.3-.4.3-1 .6-2 1.1-3.1 1.9Zm-15.2 8.4 1.2-3.5.2-.2 3.2-1.9-1.1 3.5-.3.2-3.2 2Zm11.4-6.4 1-3.4.3-.2 3.1-1.9-1 3.5c-.2 0-.2.3-.3.2l-3.1 1.8Zm15.7-11.8v.1l-1 3.3c-.1 0-.1.3-.4.4-1 .5-2 1-3 1.7l1.1-3.5.2-.2 3-1.8Zm-38 21c-.1 1-.5 1.7-.6 2.5-.2 1-.7 1.6-1.7 2.1-.7.2-1.3.7-2 1.1l1.1-3.4c.1-.2.1-.4.5-.5l2.8-1.7Zm20.3-4c-.4 1.3-.8 2.3-1 3.5-.2.1-.2.3-.3.4l-3.1 1.9 1-3.5.4-.3c.7-.8 1.7-1.3 3-2Zm-17.5-4.5-1.2 3.6-.2.2-3.2 1.9 1.1-3.5.4-.3c1-.8 2-1.3 3.1-1.9Zm25.1-10.4c-.2 1-.5 2.3-1 3.3v.4l-3.2 1.8 1-3.4c.2-.2.2-.4.4-.4l2.8-1.7Zm-5 6.3c-.4 1.3-.7 2.5-1.2 3.5 0 0 0 .2-.2.3-1 .5-2 1-3 1.7l.8-3.5c.2 0 .3-.2.3-.2a47 47 0 0 0 3.3-1.8Zm-12.7 10.7-1 3.5c-.2 0-.2.3-.4.3-1 .5-2 1-3 1.7l1-3.4.4-.3a16 16 0 0 1 3-1.8Zm3 1.3c.5-1.3.7-2.4 1.2-3.5l.3-.3c1-.5 2-1 3-1.7-.4 1.3-.7 2.5-1.2 3.5 0 .2 0 .2-.2.3a16 16 0 0 1-3 1.7Zm-18.9 10.5c.4-1 .7-1.7.9-2.6.2-.8.5-1.4 1.3-1.7.8-.3 1.4-.8 2.3-1.2l-1.1 3.5c-.1 0-.1.3-.5.4-.7.6-1.7 1-2.9 1.6Zm21.8-19.2.5-1.6a4 4 0 0 1 2.6-3.2l1.5-.8-1.1 3.5c0 .2-.3.4-.5.4-1 .7-2 1.2-3 1.7Zm-2.2 5.2c-.4 1.3-.7 2.5-1.2 3.6l-.2.2-3 1.7v-.1l1-3.5.3-.2 3.1-1.7Zm18.5-7.2c0-.5.3-1 .3-1.3.2-1.8 1.1-3 2.9-3.6l1.2-.6-1.1 3.5-.2.4-3 1.6Zm8.3-7.6-1.1 3.4c-.1.1-.1.4-.2.2l-3 1.7 1-3.5.2-.3 3-1.5Zm-33.2 15c-.2 1.3-.5 2.2-.8 3.4-.1.1 0 .2-.2.2l-3 1.8c.1-1.3.5-2.3.8-3.5l.3-.3 3-1.6Zm-5.4 9.5v-.1c.2-1.2.7-2.3 1-3.5l.2-.2c1-.5 2-1 3.2-1.8l-1.2 3.5-.3.2c-1 .8-2 1.3-2.9 1.9Zm4.8 4.5c.4-1.3.7-2.5 1.2-3.5 0-.2.2-.3.2-.3 1-.5 2-1 3-1.7l-1.2 3.6-.2.2c-1 .5-2 1-3 1.7Zm23-23.5 1.1-3.5.3-.2c1-.5 2-1 3.1-1.8l-1.2 3.5-.2.3c-1 .5-2 1-3 1.7Zm-31.8 21.3c.2-.7.4-1.1.4-1.5a4 4 0 0 1 2.7-3.3l1.4-.8-1.1 3.5-.2.4c-1 .6-2.1 1-3.2 1.7Zm25.2-10.6.5-1.5c.2-1.7 1-2.8 2.8-3.5.3 0 .7-.3 1.3-.6l-1 3.3-.2.5-3.4 1.8Zm-15 8.4c-.1-.1-.1-.1 0-.2l.3-1.2a4 4 0 0 1 2.8-3.5l1.3-.6-1 3.3c0 .1 0 .3-.2.4-1 .7-2.2 1.2-3.2 1.8Zm5 11.8h.1l-1 3.3-.3.2c-1 .6-2 1.1-3.1 1.9l1.2-3.6.3-.3 2.8-1.5Zm-6.2-18.2 1.2-3.6.2-.2 3-1.7c-.2 1.3-.6 2.4-.8 3.4l-.2.3-3.4 1.8Zm30.6-9.5.1.1-1 3.3c-.2 0 0 .2-.3.2l-3.1 1.8 1-3.4c.2-.1.2-.3.4-.3l3-1.7Zm-4.7-4.5-1.2 3.6h-.1l-3.2 2 1.1-3.5c0-.3.2-.5.5-.5l2.9-1.6Zm-15 29.2.9-2.8c.2-.6.5-1 1-1.3 1-.4 1.6-.9 2.5-1.4l-1 3.5c-.2 0-.2.3-.4.3-1 .5-2 1-3 1.7Zm17-23.6h-.2c.1-.6.4-1.2.6-1.7.2-1.3 1-2.3 2.2-2.7l1.7-1-1.1 3.5c-.1 0-.1.3-.4.3l-2.9 1.6Zm-41.3 19.9-1.2 3.6-.2.2c-1 .5-2 1-3.2 1.8l1.2-3.5.2-.3c1-.5 2-1 3.2-1.8Zm6.9-.7 1-3.4c.2-.1 0-.2.3-.2l3.1-1.9a62.5 62.5 0 0 0-1.4 3.8l-3 1.7Zm14-15 .5-1.6a4 4 0 0 1 2.6-3.3l1.3-.7-1 3.5c-.2.1-.2.3-.3.4l-3.1 1.7Zm4.7 15.1 1-3.5c.2 0 .2-.3.3-.2l3-1.6v.1l-1 3.5c-.2 0-.3.2-.3.2-1 .3-2 .8-3 1.5Zm15.8-12c-.4 1.4-.8 2.3-1 3.5-.2.1-.2.4-.3.5l-3 1.6 1-3.6s.2 0 .3-.2c.8-.4 2-1 3-1.7Zm-48.4 26.7v-.1c.2-1.2.6-2.2.9-3.4l.2-.2 3.2-1.8c-.5 1.2-.8 2.2-1 3.3l-.2.4-3 1.8Zm17.7-17 1-3.5.3-.2c1-.6 2-1.1 3.1-1.9l-1 3.5-.4.3a16 16 0 0 1-3 1.8Zm10.4 5.3v.1l-.3 1.2a4 4 0 0 1-2.8 3.5l-1.2.5 1.1-3.4c.1-.1.1-.3.3-.3l2.9-1.6ZM559 145c.3 0 .3 0 0 0-.3 1.2-.5 2.2-1 3.3 0 .1 0 .4-.2.2-1 .6-2 1.1-3.1 1.9l1-3.5c.2 0 .3-.2.4-.3 1.1-.7 2-1.2 3-1.6Zm-42.8 27.5-1 3.4c-.1.1-.1.3-.2.2l-3 1.6 1-3.4.1-.2 3-1.6Zm4.5-3 1.1-3.5.2-.2c1-.5 2-1 3.2-1.8l-1.1 3.4-.4.4c-1 .5-2 1-3 1.7Zm28.1-11.7h.2l-1 3.2-.1.3-3 1.8c.1-1.3.5-2.3.8-3.5l.2-.2 3-1.6Zm7.5-4.3.1.1-1 3.3c-.2 0-.2 0-.3.2-1 .5-2 1-3.1 1.8l1-3.4.4-.4 3-1.6Zm4.1-2.2-1 3.5-.3.2c-1 .6-2 1.1-3.1 1.9.4-1.3.7-2.5 1.2-3.6l.3-.3c.8-.6 1.7-1.1 3-1.7Zm-30.7 20.2h-.1l1-3.4.2-.2 3.1-1.9c-.4 1.3-.8 2.3-1 3.5a18 18 0 0 1-3.1 2Zm19.6-24.6-1.2 3.6-.2.2-3.2 1.9 1.1-3.5.3-.2c1-.9 2-1.4 3.2-2Zm-25.6 21.3-.6 2.4c-.1 1-.8 1.6-1.6 2l-2.1 1.2 1-3.4c.2-.1.2-.4.4-.4l3-1.8ZM513.6 181l-1 3.3c0 .1 0 .4-.2.5l-3 1.7 1.1-3.5.2-.2 3-1.8Zm37-7 1.1-3.5.2-.2 3-1.7-1 3.4-.3.3-3 1.7Zm-2.6-22.8-1.1 3.4c-.1.1-.1.3-.2.2l-3.2 1.9 1.2-3.6.3-.2 3-1.7Zm7.3 6.4-1 3.5-.4.3-3 1.8 1-3.5.4-.3 3-1.8Zm-31 31.1 1-3.4c.1-.1.1-.4.3-.4 1-.5 2-1 3.2-1.8l-1.2 3.6-.2.2-3.2 1.8Zm27-28.8.1.1-1 3.4-.2.2c-1 .5-2 1-3.1 1.8l1.2-3.5.2-.3 2.8-1.7Zm-10 2.2.2.1-1 3.1c-.1.2-.1.4-.3.4l-3 1.6 1-3.5.1-.2c1.1-.4 2-1 3-1.5Zm10-9.8 1-3.4.1-.2 3.2-1.9-1.1 3.5c0 .2-.2.4-.5.4a18 18 0 0 1-2.7 1.6Zm-5.2 6.5 1-3.3c.1-.1 0-.2.2-.2l3-1.8c-.3 1.2-.5 2.3-1 3.4 0 .1 0 .3-.2.3l-3 1.6Zm-14.6 5.2-1 3.4c-.2.1-.2.3-.3.2-1 .6-2 1.1-3.1 1.9l1-3.5c.2 0 .2 0 .3-.2l3.1-1.8Zm4.5-3c.4-1.3.7-2.5 1.2-3.5l.2-.3 3.1-1.8-1 3.5c-.2 0-.2.3-.5.4-1 .5-2 1-3 1.7Zm9.7 8.7 1-3.5.3-.2 3-1.8-1.2 3.6-.2.2-3 1.7Zm-7-6.6-.1-.1 1-3.3.3-.2 2.9-1.6-.9 3.4-.2.3-3 1.5Zm-13 21.3v-.1l1-3.4 3-1.8c-.2 1.3-.5 2.3-1 3.4l-.1.2-2.9 1.7ZM522 176l1-3.5c.2 0 .2-.3.3-.2 1-.5 2-1 3.1-1.8l-1 3.4c-.2.1-.2.3-.4.3l-3 1.8Zm16.2-2c.4-1.3.8-2.3 1-3.5.2 0 .2-.3.4-.3 1-.5 2-1 3-1.7l-1 3.4c-.2.1-.2.4-.4.4-1 .5-2 1-3 1.7Zm-17.8 16.9 1.1-3.5.2-.2c1-.5 2-1 3-1.7l-1.1 3.6-.2.2c-1 .4-1.9 1-3 1.6Zm-3.5-8.5 1-3.5.3-.2 3.1-1.9-1 3.5c-.2.1-.2.3-.3.4l-3.1 1.7Zm10.8-16.3c-.4 1.3-.7 2.5-1.2 3.6l-.2.2c-1 .6-2 1.1-3.1 1.9.4-1.3.7-2.5 1.2-3.6l.2-.2 3.1-1.9Zm30.1-16.7.1.1c0 .5-.3 1-.4 1.5a4 4 0 0 1-2.6 3.3l-1.4.7 1-3.4c.2-.1.2-.4.4-.4l3-1.8Zm-42 26.6 1-3.5c.1 0 0-.2.2-.2l3.2-1.8-1.1 3.4c-.1.1-.1.4-.4.4-1 .5-2 1-3 1.7Zm2.4 2 1-3.4.3-.2 3.1-1.9-1 3.5c-.2 0-.3.2-.3.2-1 .8-2 1.3-3.1 1.8Zm12-9.6-1 3.3c0 .2 0 .4-.2.5-1 .5-2 1-3 1.7l1-3.5c.2 0 .2-.3.4-.3.6-.6 1.6-1.2 2.8-1.7Zm12.1-7.4v-.1c.2-.7.5-1.4.6-2.2.1-1 .7-1.6 1.6-2 .7-.2 1.3-.7 2-1.2l-1 3.4c0 .3-.1.4-.3.4l-2.9 1.7ZM520 181l-1 3.5c-.2.1-.2.3-.3.2-1 .6-2 1.1-3.1 1.9l1-3.5c.2 0 .2 0 .3-.2l3.1-1.8Zm16.9-2.8 1-3.5c.2 0 .2-.3.3-.2 1-.5 2-1 3-1.7l-1 3.5c-.2 0-.3.2-.5.4-.6.4-1.6 1-2.8 1.5Zm-24.4 7.1-1 3.5c-.2 0 0 .2-.3.2-1 .5-2 1-3 1.7.2-1.3.6-2.3.9-3.4 0-.2.2-.3.3-.4 1-.4 2-.8 3.1-1.6Zm32.6-14.7-1 3.5c-.2 0-.2 0-.3.2l-3 1.6 1-3.3.4-.3 3-1.7Zm9-8.4c-.5 1.3-.7 2.3-1.2 3.4 0 .1 0 .4-.2.2-1 .6-2 1.1-3.1 1.9.4-1.3.7-2.5 1.2-3.6l.2-.2c.8-.6 2-1 3-1.7Zm-3 8.5v.1c0 .6-.3 1-.4 1.5-.2 1.6-1 2.6-2.5 3.2l-1.4.7 1.1-3.4c.1-.1.1-.3.4-.3 1-.7 1.9-1.1 2.8-1.8Zm-1-14 .7-2.3c.2-.9.6-1.5 1.4-1.9l2.3-1.1-1.1 3.4c-.1.1-.1.3-.2.2l-3 1.8Zm-33.8 26.5-1 3.5-.3.2c-1 .6-2 1.1-3.1 1.9l1-3.5.3-.2c.9-.7 2-1.3 3.1-1.9Zm19.7-11.5 1-3.4.1-.3 3-1.7c-.3 1.2-.5 2.3-1 3.4l-.1.2-3 1.8Zm-6.6 10.7 1.1-3.4.2-.2 3.2-1.9-1.1 3.5c-.1 0-.1.3-.4.3l-3 1.7Zm-7.8-16.3c-.3 1-.6 1.4-.7 2.2-.2 1-.9 2-2 2.4-.6.2-1 .6-1.8 1l1.1-3.5.1-.3 3.3-1.8Zm10.8 15-1 3.5c-.2.1-.2.3-.3.4l-3 1.8 1.1-3.5c.1-.1.1-.3.2-.2 1-.8 2-1.3 3-2Zm2.6-15.9c-.1 0-.1 0 0-.2l1-3.1c0-.1 0-.2.2-.2l3.1-1.9-1 3.5-.5.4-2.8 1.5ZM536 179c-.4 1.3-.7 2.5-1.2 3.5 0 0 0 .2-.2.3-1 .5-2 1-3 1.7.3-1.2.5-2.3 1-3.4 0 0 0-.3.3-.3l3.1-1.8Zm-25 10.5c0 .6-.3 1-.4 1.3-.2 1.8-1.2 3-3 3.6l-1.1.5a68 68 0 0 1 1-3.3 26 26 0 0 1 3.6-2Zm28.6-20 .9-3.2.2-.4 3-1.8c-.4 1.3-.7 2.5-1.2 3.6l-.2.2c-.7.6-1.7 1.1-2.7 1.7Zm-19 10.6v-.1c.2-.7.4-1 .5-1.9.2-1.2.9-2.1 2.2-2.6.6-.2 1-.6 1.7-.8l-1 3.3c0 .1 0 .4-.2.5-1.2.5-2.1 1-3.1 1.6Zm12.5-10.5 1.1-3.5.2-.2c1-.5 2-1 3.2-1.8l-1.1 3.4c-.1.1-.1.3-.3.3-.8.6-1.8 1.1-3 1.8Zm18.7 0 1.1-3.4c.1-.1 0-.2.2-.2l3-1.8c-.1 1.3-.5 2.3-.9 3.4l-.2.2c-1 .8-2 1.2-3.2 1.8Zm-19.3.8-.4 1.6c-.3 1.7-1.1 2.8-2.8 3.3l-1.3.7 1.1-3.5c.1-.1.1-.3.2-.2l3.2-1.9Zm20.1-14.7.1.1-1 3.2-.3.3c-1 .5-2 1-3 1.7l1.2-3.6.2-.2 2.8-1.5Zm-35.3 23.2-1 3.5c-.2 0-.2 0-.3.2-1 .5-2 1-3.1 1.8l1-3.4c.2-.1.2-.3.3-.2l3.1-1.9Zm-3 1.3 1-3.4.3-.3c1-.5 2-1 3.1-1.8l-1 3.5c-.2 0-.2.3-.2.3-1 .4-2 1-3.2 1.7Zm6.6 7.2v.2l-1 3.2c-.1.1 0 .2-.2.2l-3.2 1.9 1.1-3.5.4-.3 2.9-1.7Zm2.3-5.3c.2-1.3.5-2.2.8-3.4l.3-.2 3-1.9-1 3.5-.3.3c-1 .8-1.9 1.2-2.8 1.7Zm-4 2.3 1-3.4.3-.3c1-.5 2-1 3.1-1.8l-1 3.5c-.2 0-.2 0-.3.2-.9.6-1.8 1.2-3.1 1.8Zm26-24.6c-.3 1-.6 1.7-.7 2.5-.2.9-.6 1.5-1.5 2-.8.3-1.3.6-2 1.2l1-3.5.2-.2c.8-.8 1.9-1.4 3-2Zm-16.5 12.7-1 3.5c-.2 0-.2.3-.4.3-1 .5-2 1-3 1.7l1-3.4.4-.4c1-.5 2-1 3-1.7Zm6 .2.2.1c-.4 1.2-.8 2.3-1 3.4l-.2.2c-1 .5-2 1-3.2 1.8l1.1-3.4.2-.2c1-.8 2-1.3 3-1.9Zm-20.5 18 1-3.5s.2 0 .3-.2l3.1-1.8c-.4 1.3-.8 2.3-1 3.4-.2.2-.2.4-.4.4-1 .5-2 1-3 1.7Zm17.7-16.9 1.1-3.5c.1 0 .1-.3.2-.2 1-.5 2-1 3-1.7-.4 1.3-.6 2.4-1 3.4l-.3.4-3 1.6Zm21.5-8.5-.1-.1 1-3.5h.2l3.1-2-1 3.6c-.2 0-.2.3-.3.2l-3 1.8Zm-14 14.9c-.1-.1 0 0 0 0 .3-1.2.5-2.3 1-3.4l.2-.2c1-.6 2-1.1 3.1-1.9l-1 3.5-.3.2-3 1.8Zm-4 2.1c.4-.7.5-1.3.6-1.8.3-1.3 1-2.3 2.3-2.7.5-.1 1-.6 1.5-.9l-1 3.4s0 .3-.2.4c-1 .4-2 1-3.1 1.6Zm-20.7 5-1 3.4c0 .1 0 .3-.3.3l-3 1.8 1-3.5.3-.2c1-.6 2-1 3-1.7Zm-9.2 11.9-.1-.1c.3-1.2.8-2.3 1-3.4l.2-.2c1-.6 2-1.1 3.1-1.9l-1 3.5-.3.2c-1 .8-2 1.3-2.9 1.9Zm39-25.4-.1-.1 1-3.4.2-.2 3.1-1.9c-.4 1.3-.8 2.3-1 3.5-.2.1-.2.3-.4.3-.9.7-1.8 1.2-2.8 1.8Zm2.9-1.2-1.2 3.5-.2.3c-1 .5-2 1-3.2 1.8l1.1-3.5.3-.2 3.2-2Zm-16.1 2-1.2 3.6-.2.3-3 1.6 1-3.5.1-.2 3.3-1.7ZM513 195c-.1 0 0 0 0 0 .3-1.2.5-2.2 1-3.3l.2-.2 3-1.8c-.3 1.2-.5 2.3-1 3.4l-.2.2-3 1.7Zm8.6-8.4 1.1-3.5.1-.1 3-1.7c-.3 1.2-.5 2.2-1 3.3l-.2.3c-.8.6-1.8 1.1-3 1.7Zm26.5-14.8c.2-.9.5-1.4.6-2.2.2-1 .9-2 2-2.3.6-.3 1-.7 1.8-1-.4 1.3-.8 2.3-1 3.4-.2.2-.2.4-.4.4a16 16 0 0 1-3 1.7Zm-30 16.8h-.1l1-3.3.3-.2 3-1.8-1.1 3.5-.3.3-2.8 1.5Zm-4.6 3-.5 2c-.2 1.2-.9 2-2.2 2.5l-1.7.9 1-3.4s0-.2.2-.2c1-.4 2-1 3.2-1.7Zm60.5-83.3-1 3.1c0 .1 0 .3-.3.3l-2.9 1.7.8-3.2c1.3-.6 2.3-1.2 3.4-2Zm2.1 2.2c-.2 1.3-.7 2.4-1 3.6l-.2.2-3 1.7 1.3-3.6.2-.2c1-.8 1.8-1.2 2.7-1.7Zm-2.6 8.7-1.2 3.6-.2.2-2.8 1.5 1.1-3.6c.2 0 .2 0 .3-.2l2.8-1.5Zm1.4-4.4-1 3.4c-.2.1-.2.3-.4.3l-2.8 1.6c.4-1.3.7-2.5 1.2-3.6l.2-.2 2.8-1.5Zm-8.9.8.8-2.9c.1 0 .1-.3.3-.3 1-.5 2-1 3-1.7l-1 3.1-.1.2-3 1.6Zm1.8 13.3 1.2-3.5.3-.2 2.8-1.6-1.1 3.5-.1.3-3 1.5Zm2.8-1-1.1 3.5-.4.3-2.6 1.6 1.2-3.6.4-.3c.7-.6 1.6-1 2.5-1.5Zm-8.6-10 1-3.1.2-.2 3.2-1.9-1 3.2-.2.2c-1 .5-2 1-3.2 1.8Zm3.2 19.7 1.2-3.6.2-.2 2.8-1.5-1 3.5c-.1 0-.1.3-.4.3l-2.8 1.5Zm-1.2 4.2c.2-1.3.6-2.3.9-3.4l.2-.3c.9-.4 1.6-1 2.6-1.5-.3 1.2-.6 2.4-1 3.4l-.3.3c-.9.6-1.6 1.2-2.4 1.5Zm-5.8-21.8.1-.5c.3-1 .4-1.9 1-2.6.5-.8 1.4-1 2.2-1.5.3 0 .5-.3 1-.5l-1 3c-.1 0-.1.2-.2.1-1 .8-2 1.3-3 2Zm8 21 .2.2c-.3 1.2-.8 2.2-1.2 3.3l-.2.2-2.6 1.6 1-3.5.4-.3c.8-.6 1.6-1 2.5-1.4Zm-1.1 4.3-1.2 3.5-.2.3c-.9.4-1.6 1-2.6 1.5.4-1.3.7-2.5 1.2-3.6l.2-.2 2.6-1.5Zm-1.4 4.2-1.2 3.6h-.1l-2.7 1.7 1-3.5c0-.2.2-.3.3-.4 1-.3 1.7-.9 2.7-1.4ZM506 195.9l-1 3.4s0 .3-.2.4l-2.6 1.5 1.1-3.4.2-.3c.7-.6 1.6-1 2.5-1.6Zm48.4-73.8c.5-1.1.7-2 1-3l.2-.2 3.2-1.8c-.5 1-.7 2-1 2.9-.1.1-.1.3-.2.2l-3.2 1.9Zm-50.2 80.8.5-1.6c.2-1 .9-2 2-2.4.6-.2 1-.6 1.8-1-.3 1.3-.5 2.1-1 3l-.3.3c-1 .6-1.8 1.2-3 1.7Zm50.7-83.6-.9 2.8c-.1 0 0 .2-.2.2l-3.2 1.8c.5-1 .7-2 1-2.8 0 0 0-.3.1-.2l3.2-1.8Zm3.7 39.6c.2-1.3.6-2.4 1-3.6l.2-.2 2.6-1.5-1.1 3.5c0 .2-.2.4-.5.4-.7.6-1.4 1-2.2 1.4ZM516 193.7l-.9 2.8c0 .2 0 .3-.2.3l-3.1 1.8.8-2.8a44.8 44.8 0 0 0 3.4-2Zm43.6-31.3c-.4 1.3-.7 2.5-1.2 3.5 0 .2-.2.3-.3.4l-2.5 1.4 1.2-3.6.2-.2 2.6-1.5Zm-47.4 33.4-1 3-.3.2-3 1.8 1-3 .3-.3c1-.5 2-1 3-1.7Zm48.6-37.6h.1c-.4 1.1-.7 2.3-1.2 3.4v.1l-2.8 1.7 1.1-3.5c.1-.1.1-.3.3-.3l2.5-1.4Zm-57.4 38.6 1.1-3.5c.1 0 0-.2.2-.2 1-.4 1.7-1 2.6-1.5l-1 3.3c0 .2 0 .4-.3.4-.8.6-1.6 1-2.6 1.5Zm5.1-9.4-1 3.4c-.2.1 0 .2-.3.2l-2.6 1.6 1.1-3.5c.1-.1.1-.3.2-.2l2.6-1.5Zm65.1-76 1-3.3.3-.2 3-1.7-1.2 3.3s0 .3-.3.3l-2.8 1.5Zm-22.6 10-.9 2.8c-.1.1-.1.4-.3.4-1 .5-2 1-3 1.7l.8-2.8.2-.2 3.2-1.9Zm-35.5 75.1c.5-1 .7-2 1-2.9l.2-.2c1-.5 2-1 3.2-1.8l-.9 2.8s0 .3-.2.2l-3.3 2Zm42.7-29.9-1 3.5c-.2 0-.2 0-.3.2-.9.4-1.6 1-2.6 1.5l1.1-3.5.3-.3 2.5-1.4Zm-10.9-43-.9 2.8c0 .1 0 .3-.2.2l-3 1.7v-.2c.3-1 .5-1.8 1-2.7l.2-.2c.8-.4 1.7-.8 2.9-1.6Zm-41.2 64.7 1-3.4.3-.2 2.5-1.4-1.1 3.4c-.1.1-.1.3-.4.3l-2.3 1.3Zm13.2 6 1-2.9.2-.3c1-.5 2-1 3-1.7l-.8 2.8-.2.2c-1 .8-2 1.3-3.2 1.9Zm-8-15.5-1.1 3.5c-.1 0-.1.3-.3.3-1 .4-1.6.9-2.5 1.4.4-1.3.7-2.5 1.2-3.6l.2-.2 2.5-1.4Zm27.9-48.2.8-2.8s.2 0 .3-.2l3.1-1.8-.9 2.8-.2.2-3.1 1.8Zm-16 61.6.8-2.8c.1-.1.1-.3.2-.2l3.2-1.9c-.4 1-.6 1.9-1 2.6 0 .1 0 .3-.3.5l-3 1.8Zm-10.7-17.6c-.5 1.3-.8 2.3-1 3.4l-.2.4-2.5 1.4 1-3.5c.2 0 .3-.2.3-.2l2.4-1.5Zm1.3-4.3-1.1 3.4-.2.3-2.5 1.4 1-3.5c.2-.1.2-.3.3-.2l2.5-1.4Zm25.7-42.4c-.3 1-.5 1.9-.9 2.6 0 .1 0 .4-.2.3l-3.1 1.8.8-2.6.3-.2c1-.6 2-1.1 3.1-1.9Zm-24.3 38.2-1.1 3.4c-.1.1-.1.3-.3.3l-2.2 1.3c.2-1.3.7-2.3 1-3.5l.2-.2c.8-.6 1.5-1 2.4-1.3Zm15.8 19.3-.7 2.7-.2.2-3.2 1.8.8-2.7.4-.4 3-1.6Zm-.3 2.5c.3-1 .4-1.8.8-2.5 0-.1 0-.4.2-.5l3.1-1.8-.8 2.6c-.2 0-.2.3-.3.2-1 .8-2 1.3-3 2Zm5-57.7c-.3 1-.4 1.8-.7 2.5-.2.1-.2.3-.3.4l-3.1 1.9c.3-1 .5-1.9.8-2.5l.4-.4c.9-.7 1.8-1.2 3-1.9Zm-19.2 31.5-1 3.5c-.2.1-.2.3-.4.3l-2.4 1.3 1.2-3.6.2-.2 2.4-1.3Zm21.7 22 .8-2.7c.2 0 .3-.2.3-.2 1-.5 2-1 3.1-1.8-.3 1-.5 1.8-.9 2.6l-.3.3c-1 .5-2 1-3 1.7ZM504.7 200l-1 3v.3c-1 .4-1.8 1-2.8 1.6l1-3c.1 0 .1-.2.3-.2.7-.7 1.6-1.1 2.5-1.7Zm27.1-67.6c-.3 1.6-.7 3.1-2.5 3.8-.5 0-1 .5-1.5.8l.8-2.4c0-.1 0-.4.3-.4.9-.6 1.8-1.2 3-1.8Zm-17.6 30c.5-1.2.8-2.4 1.1-3.4.1 0 0-.2.2-.2l2.4-1.3-1 3.5c-.2 0-.2.3-.3.4-.9.2-1.5.7-2.4 1Zm24.4 18.6c-.3 1-.5 1.9-.9 2.6 0 .1 0 .2-.2.2-1 .6-2 1.1-3.1 1.9.3-1 .5-1.9.8-2.5a101.6 101.6 0 0 0 3.5-2.2ZM528 134.7l-.8 2.6c-.2 0-.2 0-.3.2-1 .5-2 1-3.1 1.8l.8-2.5.2-.2c1-.7 2-1.4 3.2-2Zm-8.9 18.4-1 3.4-.3.3-2.4 1.3 1.1-3.5c.1-.1.1-.3.2-.2l2.4-1.3Zm23 28.3.7-2.4c.1-.1.1-.4.3-.5l3-1.7-.8 2.5-.3.3c-1 .8-1.8 1.2-3 1.8ZM517 153.7l1.1-3.5.3-.3c.6-.4 1.4-.7 2.1-1.3-.4 1.3-.7 2.5-1.2 3.6l-.3.3c-.6.5-1.3.9-2 1.2Zm32.9 21-.7 2.2c0 .2 0 .5-.3.5l-3.1 1.9.7-2.5c.1-.1.1-.3.3-.3l3-1.8Zm-31.3-25.4c-.2 0-.1.1 0 0 .2-1.3.5-2.3.9-3.5l.2-.2 2.1-1.3c-.4 1.3-.7 2.5-1.2 3.6l-.3.3c-.4.4-1.2.8-1.7 1Zm1-4.1 1.3-3.6.2-.2 2-1.2-1.1 3.6c-.2 0-.3.2-.4.3l-2 1Zm34 27.6c-.3 1.7-1 3-2.5 3.5l-1.6 1c.3-1 .6-1.7.7-2.5.1 0 .1-.3.3-.3l3-1.7Zm3.3-1.9-.8 2.3c0 .1 0 .3-.2.2l-2.6 1.5.7-2.1.3-.6 2.6-1.3Zm-32.8-34c-.3 2.2-1.2 3.3-2.8 3.6.2-1.5.7-2.8 2.3-3.3l.5-.4ZM434 188l-6 3.6-51.5 29c-.7.5-1.2 1-1.5 1.7l-22.2 68c0 .2 0 .5-.2.8l.9-.4a2385 2385 0 0 1 28-16.7l30.2-18.3c.6-.3.9-.6 1-1.2 7-21.8 14.2-43.7 21.4-65.5-.2-.2 0-.5 0-1Zm-70.9 90 .1.1-.3 1.2c-.2 1.7-1.2 3-3 3.6l-1.4.8 1-3.4c0-.2.3-.5.5-.5l3.1-1.8Zm-2.9 1.2c-.1-.1 0 0 0 0 .2-1.3.7-2.4 1-3.6l.2-.2 3.3-2c-.3 1.4-.7 2.4-1 3.4-.1.1-.1.3-.2.2-1.2 1-2.2 1.5-3.3 2.2Zm6.7-.5h-.1c.3-1.2.8-2.3 1-3.5l.3-.2 3.3-2-1 3.4-.4.3c-1 .9-2.1 1.5-3 2Zm.7-13.8-1.2 3.6-.2.2-3.3 2c.2-1.3.7-2.4 1-3.6l.2-.2 3.5-2Zm-3.1 1.2-.2-.1c.5-1 .7-2.2 1.1-3.2.1-.2.1-.4.3-.5l3.2-2c-.2 1.4-.7 2.4-1 3.6l-.2.3a64 64 0 0 1-3.2 2Zm2.7-8.5-.1-.1c.4-1.1.7-2.3 1.2-3.4l.2-.2 3.1-1.9c-.2 1.3-.6 2.4-1 3.5l-.3.2-3.1 1.9Zm6 .5c-.5 1.3-1 2.4-1.2 3.4 0 .2 0 .4-.2.5l-3.3 2c.4-1.3.7-2.4 1.2-3.5l.3-.4c.7-.7 1.8-1.4 3.1-2Zm-4.5 13-1 3.4c-.1.1-.1.4-.2.2l-3.2 1.9c.2-1.3.7-2.4 1-3.6l.2-.2c1.1-.4 2-1 3.2-1.6Zm0-17.9h-.1l1-3.3c.2-.1 0-.2.3-.2l3.2-2 .2.1c-.5 1.1-.8 2.3-1.2 3.4-.2 0-.2 0-.3.2l-3.1 1.8Zm-1.6 22.3.1.1-.7 2.5c-.2.9-.7 1.3-1.3 1.7l-2.5 1.4c.4-1.3.7-2.4 1.2-3.5l.3-.3c.9-.7 1.8-1.2 3-1.9Zm10-30.3c-.3 1-.6 1.7-.7 2.5-.2.9-.7 1.5-1.5 2-.8.3-1.4.7-2.2 1.3l1-3.4c0-.2.2-.4.4-.4 1-.8 2-1.3 3-2ZM361.6 275l-.1-.1 1.2-3.4.2-.2 3.2-1.9-1.1 3.5-.2.2-3.2 1.9Zm10-30.2-.2-.1c.5-1.1.8-2.3 1.2-3.4l.2-.2 3.2-1.8-1.1 3.4-.2.2-3.2 1.9Zm4.1 15.4-1 3.5c-.2.1-.2.3-.3.2l-3.1 1.9c.2-1.3.6-2.4 1-3.6l.3-.3c1-.4 2-1 3.1-1.7Zm-7.3 14.2v-.1c.2-1.2.7-2.3 1.1-3.3l.2-.3 3.2-1.8c-.2 1.3-.7 2.4-1.1 3.5l-.3.3-3 1.7Zm8.7-18.6-.6 2a4 4 0 0 1-2.3 2.9c-.7.2-1.1.6-1.6 1 .3-1.2.5-2.3 1-3.4 0-.2.2-.4.4-.4 1-.8 2-1.3 3.1-2.1Zm-6 20.6-.2-.2 1.2-3.5.1-.1 3.2-1.9-1 3.6-.2.2-3.2 1.9Zm4.5-44.5.5-1.6a4 4 0 0 1 2.6-3.3l1.4-.7c-.3 1.2-.5 2.2-1 3.3 0 .1 0 .4-.2.2-1 1-2 1.5-3.3 2.1Zm-3.9 30.6-1.2 3.6c-.1 0-.1.3-.2.2l-3.4 2 1.2-3.5.2-.2 3.4-2ZM381 243l.2.1c-.5 1.1-.7 2.2-1.1 3.3-.1.1-.1.3-.2.2l-3.2 1.9c.2-1.3.7-2.4 1.1-3.5l.2-.2 3-1.8Zm.2-10.4-1.1 3.4-.2.2-3 1.8c.2-1.3.6-2.4 1-3.6l.1-.2 3.2-1.6Zm-4 2.2v.1l-1.1 3.4-.2.2-3.4 1.9 1.2-3.6.2-.2 3.3-1.8Zm-.5 31.6s0 .1 0 0l-1 3.4-.2.4-3.2 1.8c.2-1.3.7-2.3 1.1-3.4l.2-.2c1-.8 2-1.5 3-2Zm-.9-16.9-.2.9c-.3 1-.4 2-1 2.7-.5.8-1.7 1-2.4 1.6-.3.3-.6.4-1 .5.5-1.3.9-2.3 1.2-3.5 0-.2.2-.4.4-.4.9-.5 1.9-1 3-1.8Zm3-19.1-.3 1a5 5 0 0 1-3.3 4l-1 .6a58 58 0 0 1 1.7-3.8c.9-.6 1.8-1.2 3-1.8Zm1 6.4-1 3.5-.1.1-3.4 1.9 1.1-3.5c.1 0 .1-.3.3-.3 1-.5 2-1 3-1.7Zm-.3 10.6h.1l-1 3.3c-.2.1 0 .2-.3.2l-3.1 1.9c.3-1.2.5-2.3 1-3.4l.3-.3 3-1.7Zm0-7.4c.3-1 .6-2.3 1-3.2v-.4l3.2-1.8-1 3.4c-.1 0-.1.3-.2.2l-3 1.8Zm5.7-9.7h.1l-1 3.2c0 .1 0 .3-.3.3l-3.1 1.9c.2-1.3.6-2.4 1-3.5 0 0 .2 0 .3-.2 1-.5 2-1 3-1.7Zm-10 33h-.1l1-3.3c.2 0 .2 0 .3-.2l3.2-2-1.2 3.6-.3.3-3 1.7Zm5.9-38.2c.3-1.2.5-2.3 1-3.4l.2-.2 3-1.7c-.2 1.3-.6 2.4-1 3.4l-.4.4-2.8 1.5Zm-1.6 4.4c.4-1.3.7-2.5 1.2-3.5 0-.2 0-.2.2-.3l3.3-1.8c-.4 1.3-.7 2.5-1.2 3.6l-.2.2-3.3 1.8Zm-9.3 37.3-1.2 3.6-.2.2-3.3 2 1-3.4c.1 0 .1-.3.3-.3l3.4-2Zm10.8-13.4c-.4 1.3-.7 2.5-1.2 3.6l-.2.2-3.2 2c.4-1.3.7-2.5 1.2-3.6l.2-.2 3.2-2Zm.5-31.6c-.2.7-.4 1.1-.4 1.6a4 4 0 0 1-2.6 3.2l-1.5.9 1-3.5c.2 0 .2-.3.4-.3 1-.6 2-1 3.1-1.9Zm-5.2 47.7 1.1-3.4.2-.2 3.2-1.9-1.1 3.5-.3.3-3 1.7ZM385 223l1-3.4c.2-.1.2-.4.4-.4 1-.5 2-1.2 3.2-1.7l-1 3.5c-.2 0-.3.2-.4.3a31 31 0 0 0-3.2 1.7Zm-1.7 43c-.3.8-.6 1.6-.7 2.3-.2.9-.7 1.5-1.5 2-.8.3-1.4.7-2.2 1.3l1-3.4c.1 0 .1-.3.2-.2 1.1-.9 2-1.4 3.2-2Zm.5-21.1-1.1 3.5-.2.1-3.2 2c.3-1.2.5-2.3 1-3.4 0 0 0-.3.3-.3l3.2-2Zm-4.3 23.3-.8 2.3c-.2 1-.8 1.8-1.8 2.3-.8.3-1.4.7-2.2 1.3l1.2-3.6.2-.2 3.4-2Zm4-30.4 1-3.3.2-.2 3-1.8c-.3 1.2-.5 2.3-1 3.4l-.1.2c-.9.4-2 1-3 1.7Zm1.7 3-1 3.5-.2.2-3.3 2 1.2-3.6.2-.2 3-2Zm-1.7 14.8h.1l-1 3.3-.3.2-3.2 2 1.1-3.6c.2 0 .2 0 .3-.2 1-.5 2-1 3-1.7ZM369.7 270v-.1l1-3.3c.1 0 .1-.3.3-.3l3.2-1.8-1 3.3-.3.3-3.2 1.9Zm13.7-42.7c.2-1 .6-1.6.6-2.2.2-1 .8-1.8 1.9-2.3.6-.2 1.3-.6 2-1.2-.4 1.3-.7 2.3-1.2 3.4 0 .2-.2.4-.4.4-.7.7-1.6 1.2-3 1.9Zm-5.2 34.7c-.1.5-.3.7-.3 1.2-.4 1.8-1.3 3.2-3 3.9-.4 0-.7.4-1.2.6l1.1-3.2c.1-.1.1-.4.4-.4.8-.8 1.8-1.4 3-2.1Zm6.3-7.6-.1-.1c.4-1.1.7-2.3 1.2-3.4l3.2-2c-.3 1.3-.5 2.3-1 3.4 0 .1 0 .4-.2.2a15 15 0 0 0-3.1 1.9Zm-1.3-6.3h-.1l1-3.3.3-.2 3.1-1.9c-.4 1.3-.7 2.5-1.2 3.6l-.2.2-2.9 1.6Zm-.1 10.5-.1-.1 1-3.2c.2-.2.2-.4.4-.4l3-1.7c-.2 1.3-.7 2.4-1 3.5-.2 0-.2 0-.3.2l-3 1.7Zm-13-2.3c.1 0 .1 0 0 0l-.3 1.6c-.3 1.5-1 2.5-2.4 3-.7.2-1.1.7-1.7 1.1l1-3.2c.1-.2.1-.4.4-.4 1-1 2-1.6 3-2.1Zm0-7.6v-.1l.2-1c.4-1.8 1.3-3 3-3.7.4 0 .8-.3 1.4-.6l-1.1 3.2c-.1.1-.1.3-.3.3l-3.2 1.9Zm14.4-4.7 1.2-3.6.2-.2 3.3-2-1.2 3.6-.2.3-3.3 2Zm4.8-16.2c-.2.8-.5 1.4-.5 2-.3 1.3-1 2-2.1 2.5-.7.2-1 .7-1.8 1 .3-1.2.5-2.3 1-3.3 0-.2 0-.4.3-.4 1-.5 2-1 3.1-1.8Zm-11.3 5.8 1.2-3.5.3-.2c1-.7 2-1.2 3.3-1.9-.3 1.2-.7 2.3-1.2 3.4a20.2 20.2 0 0 1-3.6 2.3Zm2.3 33.6v-.2l1-3.2c.1-.1 0-.2.2-.2l3.4-2-1 3.4c-.2 0-.2.3-.3.2l-3.3 2Zm11.7-47.8c-.4 1.3-.8 2.4-1 3.5-.2.1 0 .2-.3.2-1 .7-2 1.2-3.3 1.9l1-3.5c0-.2.3-.4.5-.4l3.1-1.6Zm-11.5 37.3c-.1-.1 0 0 0 0 .3-1.2.5-2.3 1-3.4 0 0 0-.3.3-.3l3.2-2c-.4 1.3-.7 2.5-1.2 3.6l-.3.3-3 1.8Zm14.6-8.2.1.1-1 3.3c-.2 0-.2.3-.3.2l-3 1.7h-.1l1-3.3.3-.2 3-1.8Zm-6.5-6.9 1-3.3c.1-.1.1-.4.2-.2l3.3-2-1.1 3.5-.3.3a16 16 0 0 0-3 1.7Zm-2.7 16-.9 3.2c-.1 0-.1.3-.2.2l-3.2 1.8 1-3.3.2-.2 3-1.8Zm9.7-29.8-1 3.3-.1.1-3.2 1.9 1-3.4c.1 0 0-.2.2-.2 1-.5 2-1 3-1.7Zm-2.6-2.2v.1l-1 3.3c-.1 0-.1.3-.2.2l-3.3 2 1.1-3.5.2-.2 3.2-1.9Zm3.5 18.7.1.1-1 3.3c-.2 0-.2 0-.3.2l-3.1 1.8c.3-1.2.5-2.3 1-3.3l.3-.4 3-1.7Zm-18.7 21-.2-.2c.5-1 .7-2.2 1.1-3.2.1-.1.1-.4.3-.3l3-1.8c-.2 1.2-.5 2.3-.9 3.4l-.2.2-3.1 1.8Zm11.2-44.8h-.1l1-3.3c.2-.1.2-.3.4-.3l3.1-1.9c-.4 1.3-.7 2.5-1.2 3.6l-.2.2c-1 .8-2 1.2-3 1.7Zm-1.7 14.9v-.2c0-.5.4-1 .5-1.6.2-1.3 1-2.3 2.4-2.8.6-.2 1-.5 1.5-.9l-1 3.4-.3.3-3 1.8Zm3.9 15.5.1.1-1 3.3c-.2 0-.2.3-.2.3l-3.2 2c.4-1.4.7-2.5 1.2-3.6l.2-.2c1-.8 2-1.3 2.9-1.9Zm-16.8 3-1 3.2c-.2.1-.2.3-.3.2l-3.3 2.1 1-3.2c.2-.2.2-.4.4-.4l3.2-2Zm12.8-8-.1-.2 1-3.2c.2-.1 0-.2.3-.2l3.3-2-1.1 3.5-.4.3-3 1.7Zm5.4.6c.1 0 .1 0 0 0-.2 1-.5 2.2-1 3.3 0 .1 0 .2-.2.2l-3.1 1.9c.3-1.2.5-2.3 1-3.4 0 0 0-.3.2-.2l3.1-1.8Zm-10.5-15.1 1.1-3.6.3-.2 3.1-1.9c-.4 1.3-.9 2.4-1 3.5l-.3.2c-1 .8-2 1.3-3.2 2Zm4-2.3.5-1.6c.2-1.6 1-2.6 2.5-3.2l1.5-.8c-.3 1.1-.8 2.2-1 3.2-.2.1-.2.3-.3.4-1 .8-2 1.3-3.2 2Zm-3.5 40.1 1.2-3.6.2-.2 3.2-1.8-1.2 3.5-.3.3c-.8.4-1.8 1.2-3 1.8Zm4.2-2.5v-.1c.2-1.2.7-2.3 1-3.5l.2-.2 3.3-2-1.1 3.5-.4.5-3 1.8Zm-1.3-6c.4-1 .7-1.8.8-2.5.2-.9.7-1.3 1.3-1.8.8-.3 1.5-.8 2.2-1.3l-1 3.4c-.1 0-.1.3-.2.2l-3 2Zm11.6-47.6h.1l-1 3.3-.4.3c-1 .6-2 1.1-3.1 1.9.4-1.3.8-2.4 1-3.5.2 0 .2 0 .3-.2l3.1-1.8Zm-.5 3.3 1-3.5c.2 0 .2-.3.4-.3 1-.5 2-1 3.1-1.8l-1 3.4-.4.4c-1 .5-2 1-3.1 1.8Zm-5.3 6.4 1-3.5c.2 0 .2-.3.3-.2l3.1-1.8c-.4 1.3-.8 2.3-1 3.4-.2.1-.2.4-.4.4l-3 1.7Zm-12.7 18c-.4.8-.6 1.5-.7 2-.2 1.3-.9 2-2 2.5-.7.2-1.2.8-2 1.1l1.1-3.2c.1-.1.1-.4.3-.4l3.3-2Zm21-25.7.1.1c0 .3 0 .6-.2.9-.2 2-1.4 3.3-3.3 3.9-.3 0-.5.3-1 .5l1.2-3.2c0-.1 0-.3.2-.2 1-.8 2-1.3 3-2Zm-.5 20.8h.1l-.6 2c-.2 1.1-.8 1.9-1.9 2.3l-2 1 1-3.2s0-.3.2-.2c1.3-.6 2.4-1.3 3.2-2Zm-6.3-7-.1-.2 1-3.2.3-.2 3-1.8-1 3.4-.2.2-3 1.8Zm4 5-1 3.4c-.1 0-.1.3-.2.2l-3.2 1.8 1.2-3.5.3-.4 3-1.6Zm-.4 3.2v-.1l1-3.3c.1-.1.1-.3.2-.2l3.2-1.9-1.2 3.6-.3.2-2.9 1.7ZM384.1 265c.1-.6.4-1 .5-1.3.2-1.8 1.2-3 2.9-3.6l1.3-.6-1.1 3.2-.2.4c-1.2.6-2.2 1.1-3.4 1.9Zm4-2.4c.1-.9.5-1.4.6-2.2.2-1 .9-2 2-2.4.6-.2 1.2-.6 2-1.2l-1.2 3.4-.2.4-3.3 2Zm5.7-9.6-.9 3.2c-.1.1 0 .2-.2.2l-3.1 1.9-.2-.1c.5-1.1.7-2.2 1.1-3.3l.4-.3 2.9-1.6Zm-20 4.1c0-.1 0 0 0 0 .3-1 .6-2.3 1-3.2l.2-.3 3.1-1.8c-.3 1.2-.5 2.3-1 3.4l-.3.3-3 1.6Zm8.6-18.2v.1l-1 3.3-.2.2-3.2 1.8 1-3.3.3-.3 3-1.8Zm16.7-10v-.2c.1-.6.5-1.2.5-1.8.2-1.3.8-2 2-2.4.6-.2 1-.7 1.7-.9l-1 3.3s0 .3-.2.3c-1.1.4-2 1-3 1.6Zm-3.8 9.3s.1.2 0 0c-.2 1.1-.5 2.3-1 3.4l-.2.2-3.2 2 1-3.5c.2-.1.2-.3.4-.3l3-1.8Zm-13 11.1-1 3.5c-.2 0-.2 0-.3.2l-3.1 1.8c.2-1 .5-2.2.9-3.2 0-.1 0-.3.3-.3l3.2-2Zm12.7-18 1.1-3.5.1-.4 3-1.7c-.2 1.3-.5 2.3-1 3.3 0 .2-.1.3-.3.4l-2.9 1.8Zm-.7-9.7.1.1-1 3.3c-.2 0 0 .2-.3.2l-3.3 2 1.1-3.5.4-.4 3-1.7Zm-8 15-1 3.2-.1.2-3.2 1.8 1-3.3.3-.3 3-1.7Zm8.5 15.2-.1-.1 1-3.2.1-.4 3.2-1.9-1.1 3.5-.2.2c-.9.7-2 1.3-3 1.9Zm1.4-4.3h-.1l1-3.3.3-.2 3.1-1.9-1.2 3.6-.2.2-3 1.6Zm7.9-7.7v.2l-.2 1.1a4.3 4.3 0 0 1-2.7 3.4c-.5.2-1 .4-1.5.8l1.1-3.3c0-.2.3-.4.5-.4 1-.6 2-1.1 2.8-1.8Zm-5-21.3.6-1.9c.2-1.3 1-2.3 2.4-2.8.5-.1 1-.5 1.6-1a58.1 58.1 0 0 1-1.6 3.8c-.9.7-1.9 1.2-3 1.9Zm-3.3 39.5 1.1-3.4c.1-.1.1-.4.3-.4l3.2-1.8c-.5 1.3-.9 2.4-1.1 3.5l-.2.2-3.3 2Zm2.6-8.4c.3-.4.3-.7.4-1a5 5 0 0 1 3.2-4.1l.9-.4c-.3 1.2-.8 2.2-1.1 3.2l-.2.4c-.9.7-1.9 1.2-3.2 1.9Zm-2 5-1.1 3.5-.2.5-3.3 2 1.1-3.5.2-.3 3.3-2.1Zm-1.9 7.5.3-1.8c.3-1.3 1-2.2 2.1-2.7.5-.3 1-.7 1.8-1l-1 3.4a24.7 24.7 0 0 1-3.2 2.2Zm6.3-40.7c-.1.7-.3 1.6-.7 2.3-.2 1-.6 1.3-1.4 1.7l-2.4 1.3 1.1-3.3c0-.2.2-.4.5-.4l2.9-1.6Zm-10.3 43.2 1.1-3.4.3-.4 3.3-2-1.1 3.6-.2.2-3.4 2Zm10-40.1-.2-.1 1-3.1c.1-.2.1-.4.2-.3l3-1.7c-.3 1.2-.5 2.3-1 3.4l-.1.2-3 1.6Zm4-12.4-.1-.1 1-3.3.3-.2 3-1.7c-.3 1.1-.5 2.2-1 3.3l-.2.2-3 1.8Zm-14.6 25.3v-.1c.2-1 .7-2 .9-3.2.1 0 .1-.3.2-.2l3-1.7-.8 3.2-.3.4c-1 .4-1.9 1-3 1.6Zm17-5.9c0 .1 0 .1 0 0l-1 3.4c-.2 0-.2 0-.3.2l-3 1.7c.3-1.2.5-2.3 1-3.3l.3-.4c1-.4 2-1 3-1.6Zm-1.9-22.8-1 3.5s-.2 0-.3.2l-3.1 1.8 1-3.4.3-.2c1-.6 2-1.1 3.1-1.9Zm-1.8 7.5-.1-.1 1-3.2s0-.2.2-.2l3-1.7-.9 3.2c0 .1 0 .3-.3.3l-3 1.7Zm-4.5 23 1-3.5c.2 0 0-.2.3-.2 1-.5 2-1.2 3.2-2l-1 3.5c-.2.1-.2.4-.4.4-1 .6-2 1.3-3.1 1.8Zm-12.4 7.8-1 3.3c-.2 0-.2.3-.3.2l-3.2 2 1-3.5.4-.3 3.1-1.7Zm11.9 13c.4-1.3.8-2.3 1-3.5.2-.1.2-.3.4-.3l3.2-1.9c-.5 1.3-1 2.4-1.1 3.5l-.3.2-3.2 2Zm1.9-25c.4-1.3.8-2.3 1-3.5.2 0 .3-.2.3-.2 1-.5 2-1 3.1-1.8l-1 3.4-.3.2-3.1 1.9Zm-1.8-15.7.1.1-1 3.2v.3l-3.1 1.7h-.1l1-3.3.3-.2c.7-.6 1.7-1.1 2.8-1.8Zm-.3 3.2-.1-.2.5-1.8c.2-1 .9-2 2-2.4l2-1-1.2 3.2s0 .3-.3.3c-1 .8-2 1.3-3 1.9Zm8-7.5-.5 1.8c-.2 1.3-.8 2.2-2.1 2.6-.7.2-1.1.7-1.6 1l.8-3.3c.1 0 .1-.3.2-.2 1.1-.8 2.2-1.3 3.3-2Zm-15.7 19.3-1 3.3-.3.3-3.2 1.9 1.1-3.5.3-.3c1-.5 2-1 3-1.7Zm13.3 8.8c.5-1.3 1-2.4 1.1-3.5h.1l3-1.8c-.3 1.2-.5 2.3-1 3.3 0 .1 0 .4-.2.4-.8.3-1.9 1-3 1.6Zm-17.8 7h-.1l1-3.2.2-.2 3.2-2-1 3.5-.3.2-3 1.8Zm20.7 2-.5 1.6c-.2 1.5-1 2.5-2.4 3l-1.5.9 1-3.3c0-.2.3-.4.4-.5 1-.6 2-1 3-1.7Zm-3.7-25.4 1.1-3.5c.1-.1 0-.2.2-.2l3.2-1.9-1.1 3.5c-.1.1-.1.3-.3.3l-3 1.8Zm5.3.7.1.1-1 3.3s-.2 0-.3.2l-3.1 1.8c.2-1 .5-2.3.9-3.2 0-.2.2-.5.4-.5l3-1.7Zm-.1 20.4-1.1 3.5-.4.3-3.1 1.9 1-3.5.3-.2 3.3-2Zm2.2 2s.1.2 0 0c0 .7-.3 1.3-.4 1.8-.2 1.3-1 2.3-2.2 2.8l-1.6 1c.4-1.3.8-2.3 1-3.5 0-.2.3-.4.5-.4l2.7-1.6Zm-12.6.9-.9 3.2-.1.3-3.3 2 1.1-3.5.2-.2 3-1.8Zm13.3-31.7-.6 2c-.2 1.2-1 2-2.2 2.5-.6.2-1 .7-1.8 1l1-3.3c0-.2.3-.4.5-.4l3.1-1.8Zm-9.2 29.3c-.3 1.2-.8 2.3-1.1 3.2l-.1.4-3.2 1.8c.3-1 .6-2.3 1-3.2 0-.2 0-.4.1-.3l3.3-2Zm4.9-13.5-.1-.2 1-3.2c.2-.1.2-.3.3-.2 1-.6 2-1.1 3.1-1.9l-1 3.5c-.2.1 0 .2-.3.2-1 .5-2.1 1.1-3 1.8ZM404 250c0 .1 0 .1 0 0l-1 3.3s0 .3-.1.2l-3 1.7c.3-1.2.5-2.3 1-3.3l.2-.4a8 8 0 0 0 2.9-1.5Zm8.6-45.5-.8 2.5c0 .7-.5 1.2-1.3 1.5l-2.3 1.3 1-3.5c.2 0 .2-.3.4-.3l3-1.5Zm-10 42.6-.2-.1c.5-1 .7-2.2 1.1-3.3.1 0 0-.2.3-.2 1-.5 2-1.2 3.2-2-.4 1.4-.8 2.3-1 3.5l-.4.4-3 1.7Zm9.2-11.8v.1l-1 3.2-.2.3-3 1.7.8-3.2c.1-.2.1-.4.3-.4l3-1.7Zm-14 4.9-.2 1.5a4 4 0 0 1-2.3 3c-.4.1-1 .5-1.6 1l1-3.3c.2-.1.2-.4.4-.4a12 12 0 0 1 2.7-1.8Zm10-9.9 1-3.3.3-.2c1-.6 2-1.1 3.1-1.9l-1 3.5c-.2 0-.2 0-.3.2l-3 1.7Zm3.2-21.6v.1l-.9 3.1c-.1.2-.1.4-.3.4-1 .5-2 1-3.2 1.8.5-1.3 1-2.4 1.2-3.6l.3-.2 2.9-1.6Zm.7 19.6c-.1-.1-.1-.1 0 0l.6-2.4c.3-.9.7-1.3 1.4-1.6l2.3-1.2-1 3.3c0 .1 0 .2-.2.2-1.2.4-2.1 1-3.1 1.7Zm-3.1-11.4-1.1 3.5-.2.2-3.2 1.8 1.2-3.3c.1-.1.1-.3.4-.3.7-.8 1.7-1.3 2.9-1.9Zm-.6 3.2 1-3.4.2-.2 3.2-1.9-1.1 3.5c-.1.1-.1.3-.2.2l-3 1.8Zm-14 22.3-1 3.3-.3.2-3.1 1.9 1-3.5s.2 0 .3-.2c1-.5 2-1 3-1.7Zm20.8-25.7c-.3 1.2-.6 2.2-1 3.1 0 .2 0 .4-.2.5l-3 1.7.9-3.2c.1-.2.1-.4.3-.4.9-.4 2-1 3-1.7Zm-.4 10.4h.1l-1 3.3-.3.2c-1 .6-2 1.1-3.1 1.9l1.1-3.6c.2 0 .3-.2.4-.3l2.8-1.5Zm-16.5 2.6.2.1-1 3.2-.2.2-3.2 1.8c.3-1.2.8-2.3 1.1-3.2l.3-.4c1-.5 2-1 2.8-1.7Zm12.7 9.8c-.4.8-.5 1.3-.7 2a3.4 3.4 0 0 1-2 2.7c-.7.2-1.1.6-1.9 1l1.1-3.5.2-.2 3.3-2Zm-8.8-12 .2.1-1 3.2-.2.2-3.2 1.8 1.2-3.3.2-.2c.9-.7 1.9-1.2 2.8-1.8Zm10.3-19.9h-.2l1-3.2c.1-.1.1-.4.2-.2l3-1.7-1 3.4-.2.2-2.8 1.5Zm6.2 7.1.1.1-1 3.2-.2.2-3 1.7c.2-1 .5-2.2.9-3.2 0-.1 0-.3.3-.3 1-.7 2-1.2 3-1.7Zm-7.6-3 1-3.2.1-.5c1-.5 2-1 3-1.7-.1 1-.5 2.3-1 3.4l-.1.2-3 1.8Zm-.7 1-.6 1.6c-.2 1.5-1 2.4-2.3 3l-1.6 1 1.1-3.3c.1-.1.1-.3.4-.3.7-.8 1.8-1.5 3-2Zm-2.5 38.3v-.1l1-3.3.3-.3c1-.5 2-1 3.2-1.8-.5 1.3-1 2.3-1.1 3.4l-.2.2c-1.3.7-2.3 1.2-3.2 1.9Zm10.9-26.2-1.1 3.5-.2.2c-1 .5-2 1-3 1.7l-.2-.1c.5-1 .7-2.2 1.1-3.2l.3-.3c1-.5 1.9-1 3-1.8Zm1-4.1h.2l-1 3.2c-.1.1 0 .2-.2.2l-3 1.8.8-3.3c.1 0 .1-.3.4-.3 1-.4 2-1 2.9-1.6ZM401 251.5l.6-1.8c.2-1.3.8-2.2 2-2.7l1.8-1.1-1.1 3.2-.1.4c-1 .7-2 1.4-3.2 2Zm12.6-40.8v.1l-1 3.2-.1.2-3 1.7.8-3.2c.1-.1.1-.3.2-.2l3-1.8Zm.8 26.6c-.4 1.2-.8 2.3-1 3.4-.1.1-.1.3-.3.3l-2.9 1.7 1-3.3.2-.2 3-1.9Zm1.5-24.6h.1l-1 3.3-.3.3c-1 .5-2 1-3.1 1.8.4-1.3.8-2.3 1-3.5 0 0 .2 0 .3-.2 1.2-.5 2-1.2 3-1.7Zm2.8-8.1-1 3.3-.1.1-3.2 1.9 1.1-3.3a29.8 29.8 0 0 1 3.1-2Zm-3 11.2c.2-1.2.5-2.3.9-3.3l.2-.3c1-.5 2-1 3.1-1.8l-1 3.4s0 .3-.2.2l-3 1.8Zm-4.4 22.8c.3-.6.5-1 .6-1.6.2-1.5 1-2.5 2.5-3.1l1.5-.9-1.1 3.3-.2.4-3.3 2Zm-9.5-.6-1 3.3c-.2 0-.2.3-.3.2l-3.1 1.8a58.1 58.1 0 0 1 1.4-3.6 16 16 0 0 1 3-1.7Zm3 11.2c.5-1.2.8-2.2 1.1-3.4l.2-.2 3.2-1.9-1.1 3.5-.2.2-3.2 1.8Zm15.4-49-1.1 3.5-.2.2-3 1.8.8-3.3.3-.3 3.2-1.9ZM401.4 241h-.1l1-3v-.3l3-1.8.2.2c-.3 1-.8 2-1 3.1l-.3.3-2.8 1.5Zm12-27.2-.2-.1 1-3.2.1-.3c1-.5 2-1 3.2-1.8l-1.1 3.2c-.1.1-.1.3-.4.3a12 12 0 0 1-2.7 1.9Zm4.7-6.1 1.1-3.5.2-.2c1-.5 2-1 3-1.7l-1 3.4-.3.3c-1 .5-2 1-3 1.7Zm5.5.7-.5 1.9c-.2 1.3-1 2-2.2 2.6l-1.7.9 1-3.3c0-.2.3-.4.4-.5l3-1.6Zm-1.5 4.2h.1l-1 3.3-.3.2-3 1.7 1-3.4.3-.2c1-.4 2-1 2.9-1.6Zm1.5-14.3h.2l-1.1 3.3-.2.3c-1 .5-2 1-3 1.7l1-3.5.2-.2 3-1.6Zm-22 32.5c.2-1.2.7-2.3 1-3.3.1 0 0-.2.2-.2l3-1.7-.8 3.2c-.1.1-.1.3-.2.2l-3.3 1.8Zm7.8-7.5.1.1-1 3-.2.4-3 1.7.9-3.3.3-.3c1-.6 2-1.2 3-1.6Zm7.4-11.5c.4-1.3.8-2.3 1-3.5.2 0 .2 0 .3-.2 1-.5 2-1 3-1.7l-1 3.5c-.2 0-.2 0-.3.2l-3 1.7Zm-8.2 35.2 1.1-3.5.2-.2 3.2-1.9-1.1 3.3c-.1.1-.1.3-.4.3-1 .8-2 1.3-3 2Zm13.4-41.5h-.1c.3-1 .8-2.1 1-3.2 0-.1 0-.3.2-.2l3-1.8-1 3.4-.2.2-2.9 1.6Zm1.4-4.2v-.1l.9-3.1.2-.3c1-.5 2-1 3-1.7l-1 3.5c-.2 0-.3.2-.4.3l-2.7 1.4Zm-10 19.8v.1c0 .6-.4 1.1-.5 1.7-.2 1.2-.9 1.9-2 2.4l-2 1 1-3.1c0-.2.3-.5.5-.5l3-1.6Zm-8.2 17.7-.1-.1 1-3.2.2-.2 3.1-1.8-.9 3c0 .2 0 .3-.2.4l-3.1 1.9Zm3.9-2.2-.1-.1 1-3.2s0-.3.2-.2l2.9-1.6-.9 3.2-.3.4c-1 .3-1.9 1-2.8 1.5Zm15.8-32.3-1 3.4-.2.2c-1 .5-2 1-3 1.7.2-1 .5-2 1-3.1 0-.2.2-.4.4-.4a14 14 0 0 1 2.8-1.8Zm-8 25-.9 3-.1.3c-1 .5-2 1-3 1.7l-.2-.1c.4-1 .8-2 1-3.1l.2-.3 3-1.6Zm.3-10.6-1 3.3s-.2 0-.3.2l-3.1 1.8 1-3.2c.2-.1.2-.3.3-.2 1-.6 2-1.1 3.1-1.9Zm-.3 3.2-.1-.1 1-3s0-.3.3-.3c1-.5 2-1 3-1.7l-1 3.2-.3.2-3 1.7Zm14.1-27.7c-.4 1.3-.8 2.2-1 3.3l-.2.2-3 1.7 1.2-3.3c0-.2.2-.4.4-.4.8-.6 1.6-1 2.6-1.5Zm-1.3 4c-.4 1.4-.8 2.3-1 3.5l-.3.2-2.8 1.6 1-3.5.3-.2 2.8-1.5Zm-8 17.5v-.1l1-3.2v-.3c1-.4 1.8-1 2.6-1.5l-.8 3.2c-.1.2-.1.4-.2.3a10 10 0 0 1-2.5 1.6Zm2.6-8.1 1-3.3c.2 0 .2-.3.4-.3l2.8-1.5a59 59 0 0 1-1.2 3.3l-.2.3-2.8 1.5Zm-1.4 11.2.2.1c-.5 1.1-.7 2.2-1.1 3.3-.1 0 0 .2-.2.2-1 .4-1.8 1-2.8 1.6.5-1.3.8-2.2 1-3.3.1-.1.1-.4.4-.4l2.6-1.5Zm0-7.1 1.2-3.3s0-.3.2-.4l2.8-1.5-1.1 3.5-.3.3c-.8.3-1.8.8-2.7 1.4Zm-5.3 16.5c.5-1.3.8-2.2 1-3.3.1-.1.1-.3.3-.3l2.7-1.7-1 3.5-.3.2c-.7.6-1.6 1-2.7 1.6Zm6.9-13.5-1.1 3.3c-.1 0 0 .2-.2.2l-2.8 1.7 1-3.2c.2-.1.2-.4.4-.4l2.7-1.6Zm-5.5 16.5-.6 2.3c-.4 1.9-2 2-3.2 2.8l1-3.2.2-.4c.8-.3 1.7-1 2.6-1.5Zm-13.3-23.4 1-2.9.2-.2 3.1-1.8-.9 2.8s0 .3-.2.2c-1 .9-2 1.4-3.2 2Zm7.8-4.3-.1-.1c.3-1 .5-1.9 1-2.7l.2-.2 3.1-1.9-.9 2.8c0 .1 0 .4-.3.4l-3 1.7Zm-4 2.2c.4-.8.5-1.3.7-2 .1-.7.7-1.3 1.4-1.6.8-.3 1.4-.8 2.4-1.3-.3 1-.5 1.8-1 2.7a101.6 101.6 0 0 1-3.5 2.2Zm11.8-9.1a31 31 0 0 0-1 3l-3 1.8.7-2.9.4-.3 2.9-1.6Zm-19 10.7-.4 1.3c-.2 1.3-.9 2-2 2.5-.7.2-1.1.6-2 1l1-2.8c0-.1 0-.4.2-.3l3.2-1.7Zm11.4 33.3 1-3 .2-.6 2.6-1.5c-.3 1.2-.5 2.3-.9 3.2 0 .1 0 .4-.3.4l-2.6 1.5Zm7.2-41.3v-.1l.8-2.9.2-.2c1-.5 2-1 3.2-1.8l-1 2.8c0 .2-.1.4-.3.4l-2.9 1.8Zm-7.4 48.6s0 .1 0 0l-1.1 3.5-.1.1-2.7 1.6 1-3.4.3-.2 2.6-1.6ZM401.8 210l.7-2.3.4-.7 3.2-2c-.3 1-.5 1.9-.9 2.8 0 .1 0 .4-.2.5l-3.2 1.7Zm-7.7 4.2.9-2.8.2-.2 3.1-1.8-.8 2.8c-.2 0-.3.2-.4.3a16 16 0 0 1-3 1.7Zm34.6-21.9-.8 2.8c-.1.1-.1.4-.2.3l-3 1.6.8-3 .2-.2c1-.3 2-.8 3-1.5Zm-50.2 30.9-.1-.2c.3-.7.5-1.6.9-2.3l.2-.3 3.3-1.8-.8 2.6c-.1.1-.1.3-.4.3l-3.1 1.7Zm36.4 20.5.1.1-1 3.2s0 .3-.2.2l-2.7 1.6c.4-1.3.8-2.3 1-3.5.2 0 .2-.3.4-.3.8-.3 1.5-.9 2.4-1.3Zm1.5-11.5 1.1-3.2c.1-.1.1-.3.2-.2l2.6-1.5-.8 3.2-.3.2-2.8 1.5Zm-21.9-20.5-.8 2.5c-.1.2-.1.4-.3.5l-3.3 1.8c.3-1 .5-1.8.9-2.6 0 0 .2-.4.4-.4 1-.7 2-1.2 3.1-1.8Zm-8.3 7c.3-1 .5-1.8.9-2.6 0-.1 0-.3.3-.3l3.1-1.9-.8 2.6c-.2.1-.2.4-.3.5l-3.2 1.7Zm30.1 20.8-1 3c0 .1 0 .5-.2.6l-2.7 1.6 1-3.3c.2 0 .2-.3.2-.3a15 15 0 0 0 2.7-1.6Zm-54.7 42.8.1.1-.4 1.6c-.1.7-.6 1.1-1.2 1.6-.9.4-1.6 1-2.7 1.6l.7-2.5c0-.2.3-.4.5-.4l3-2Zm20.7-61.4c.3-1 .5-1.9.9-2.6v-.4l3.4-1.8-.8 2.6c-.1.1-.2.3-.4.3-.8.7-2 1.3-3.1 1.9Zm-20.7 63.8.6-2.2.4-.7 3.3-2-.8 2.5-.4.3c-.8.7-2 1.3-3.1 2.1Zm70.6-94.3-.9 2.8v.3l-3 1.6.9-2.8s0-.3.3-.3l2.7-1.6Zm-62.4 87.2h.1c0 .6-.3 1-.4 1.6-.1.3-.1.7-.4.8l-3.3 2c.1-.8.2-1.3.5-2 0-.3.2-.6.3-.7 1-.4 2.1-1.1 3.2-1.7Zm0 2.1c0-.6.2-1.3.5-1.7 0-.3.2-.7.3-.8l3.2-2c0 .8-.3 1.5-.5 2.1l-.3.6-3.2 1.8Zm8.1-7-.7 2.2-.2.5-3.3 2 .8-2.6s0-.3.2-.2l3.3-2Zm-.3 2.2c.2-.6.5-1 .6-1.6.2-.8.6-1.3 1.3-1.7l2.5-1.4-.8 2.2c-.1.4-.3.6-.4.7l-3.2 1.8Zm8.4-7-.7 2.2c0 .2-.1.5-.3.5l-3.3 2 .8-2.5.3-.4c1-.5 1.9-1.2 3.2-1.8Zm3.6-2.2c0 .8-.2 1.3-.4 2l-.3.7-3.3 2 .8-2.3c0-.2.2-.4.3-.5.9-.7 2-1.3 3-1.9Zm4-2.5c-.3.8-.4 1.5-.7 2l-.2.7-3.3 2c.2-.9.6-1.6.8-2.3 0-.1 0-.3.2-.4l3.3-2Zm7.7-4.6-.7 2.2-.2.5-3.3 2 .9-2.5s0-.3.3-.3c1-.8 2-1.3 3-2Zm-3.8 2.2a27 27 0 0 1-1 2.7l-3 1.9c.1-.9.5-1.6.7-2.3.1-.3.3-.5.5-.5l2.8-1.8Zm3.6.1.8-2.2c0-.1 0-.4.2-.5l3.1-1.8-.7 2.3-.2.4-3.2 1.8Zm4-2.5c.2-.8.2-2 .8-2.4.9-1 2-1.4 3-2 0 .8-.3 1.4-.5 2 0 .3-.2.5-.4.6-1 .8-1.9 1.3-2.9 1.8Zm-44.3 17.4-1 2.6c-.1 1.6-1.4 1.8-2.4 2.3.3-1.2.6-2.4 1-3.4.2-.2.2-.4.4-.4l2-1Zm-1.8 4.6.1.1c-.3.8-.6 1.5-.7 2.3-.3 1.5-1.5 1.8-2.6 2.6.4-1.3.7-2.5 1.2-3.6a48.9 48.9 0 0 1 2-1.4Zm4.5-13.1-1.3 3.7-.2.2c-.6.3-1.2.8-1.8 1 .2-1.2.7-2.3 1-3.5l.2-.2c.8-.6 1.3-.9 2-1.2Zm1.4-4.4-1.2 3.5c-.1.1-.1.4-.2.2l-2 1.2 1.1-3.5.3-.4 2-1Zm-6 13.6-.2-.1 1-3.3c.2 0 .3-.2.4-.3l2-1-1.2 3.5-.3.2-1.8 1Zm8.8-22.3c-.4 1.3-.7 2.5-1.2 3.6l-.2.2c-.5.3-1.2.8-2 1 .4-.9.7-1.7.8-2.4.2-1.3 1.4-1.6 2.6-2.4Zm-1.8.6.7-2.5c.3-1.3 1.3-1.8 2.5-2.3l-.8 2.6c-.3 1.3-1.3 1.5-2.4 2.2Zm2.8-8.5c.3-1 .8-1.8.9-2.6.2-1.3 1.4-1.6 2.5-2.3l-1.2 3.6-.3.3c-.6.1-1.1.5-1.9 1Zm-2.5 12.4.1.2-.9 2.8v.3l-.3.2c-.5.3-1.2.8-2 1.1.5-1.3 1-2.4 1.3-3.6l.2-.2 1.6-.8Zm7.2-21.6-.9 2.6c-.3 1-1 1.7-2.3 2 .4-.7.7-1.4.8-2.2.1-1.4 1.2-1.8 2.4-2.4Zm-2.8 8.5c-.4 1-.7 1.7-.8 2.4-.2 1.3-1.4 1.7-2.5 2.3.4-1.3.9-2.4 1-3.4l.3-.3c.7-.2 1.2-.5 2-1Zm4.2-13c-.2 1-.6 1.8-.8 2.6-.2 1.3-1.3 1.7-2.4 2.2l.7-2.5c.2-1.2 1.3-1.7 2.5-2.2Zm-1.8.6.8-2.6c.3-1.3 1.2-1.6 2.4-2.1-.4 1.3-.7 2.4-1.2 3.5l-.2.2c-.5.4-1 .7-1.8 1Zm1.5-4.3.9-2.6c.2-1.3 1.3-1.5 2.3-2.2l-.7 2.5c-.5 1.3-1.5 1.7-2.5 2.3Zm37.6 23.3c0 .6-.3 1.2-.5 1.7 0 .3-.2.6-.3.7l-2.6 1.6a27 27 0 0 1 1-2.7 13 13 0 0 0 2.4-1.3Zm-57.3 36.5c.2-2 1-3.2 2.8-3.7-.2 1.8-1 3.2-2.8 3.7Zm21.1-64.2c.4-1.6.7-3.3 2.7-3.6-.4 1.3-.5 3.1-2.7 3.6ZM372.2 223.6l-.7.3-57.7 33.8c-.7.4-1.1.9-1.4 1.6l-21.7 67.2-.2.9 3.8-2.3c13-7.7 26.2-15.2 39.3-23a760 760 0 0 1 15.9-9.1c.3-.2.4-.5.5-.8l22-67.8.2-.8Zm-34.8 58.8c.2-1.3.6-2.4 1-3.6l.2-.2 3.2-2c-.4 1.3-.7 2.5-1.2 3.6l-.3.3c-1 .8-2 1.3-3 1.9Zm-7.8 4.6v-.3l1-3.2c.2-.1.2-.3.4-.3l3.3-2c-.5 1.3-.8 2.5-1.1 3.7l-.4.3-3.2 1.8Zm19.6-11.5h-.1l1-3.5.3-.2 3.2-2-1 3.7-.3.2c-1 .7-2.1 1.3-3.1 1.8Zm-23 10.4-1.3 3.8-3.2 2c.2-1.4.6-2.5 1-3.7l.2-.2 3.2-2Zm-12 7s.1 0 0 0c-.2 1.2-.6 2.3-1 3.5 0 .1 0 .2-.2.2l-3.2 2c.4-1.3.7-2.5 1.2-3.6 0-.1 0-.3.3-.3 1-.8 2-1.3 3-1.9ZM302.1 303h-.1l1-3.6c.2 0 .2 0 .3-.2l3.2-2c-.4 1.4-.7 2.6-1.2 3.6 0 .3-.2.5-.4.5l-2.8 1.7Zm34.2-37.5 1-3.4.1-.3 3.2-1.8c-.2 1.3-.7 2.4-.9 3.5-.1 0-.1.3-.3.3l-3 1.7ZM338 279l-1.2 3.8-.2.2-3.2 2 1-3.7c.2 0 .3-.2.3-.2l3.3-2Zm7.8-4.5-1 3.7s-.2 0-.3.2l-3.1 1.8c.2-1.3.6-2.4 1-3.6l.3-.3 3.1-1.8Zm4-2.4-1.3 3.6s0 .3-.2.2l-3 1.7c.2-1.3.6-2.4 1-3.6l.2-.2c1-.4 2-1 3.2-1.7ZM330 283.6c-.4 1.3-.7 2.5-1.2 3.6l-.2.2-3.1 1.8 1-3.6.3-.3 3.2-1.7ZM314 296.2l-.1-.1 1-3.5.3-.2 3.2-2-1.2 3.8-.2.2-3 1.8Zm-5-14.6 1.1-3.6c.1 0 .2-.3.4-.3l3-1.7c-.2 1.3-.7 2.3-1 3.5l-.2.2c-1.2.6-2.2 1.1-3.4 1.9Zm13.4 6.6c-.4 1.3-.7 2.4-1.2 3.5 0 .1 0 .4-.2.2l-3.2 2 1-3.7c.2 0 .3-.2.4-.3l3.2-1.7Zm6.2-18.1 1-3.6.2-.2 3-1.7c-.1 1.3-.6 2.3-.9 3.5l-.2.2-3 1.8Zm-7.7 4.5c-.2 0 0 0 0 0 .2-1.3.5-2.2.8-3.4.1-.1.1-.3.4-.3l3.2-2-1.2 3.6c-.1 0-.1.3-.2.2-1.1.9-2 1.4-3 2Zm-15 26.1 1.3-3.7c0-.2.2-.3.2-.3l3.1-1.8c-.4 1.3-.7 2.5-1.2 3.6l-.2.2c-.8.8-2 1.5-3.1 2Zm15.3-29.4c0 .1 0 .1 0 0-.2 1.3-.7 2.4-1 3.6h-.1l-3.3 2 1.2-3.5c.2-.2.2-.4.3-.3l2.9-1.8Zm23-10.2c.2-1.3.6-2.4 1-3.6l.1-.2 3.2-1.9-1 3.6-.2.2-3.2 1.9Zm11.7-6.9 1-3.5.2-.3 3.3-2-1.2 3.7c-.1 0 0 .2-.2.2l-3 2Zm-26.7 12.5c-.2.9-.5 1.4-.5 2a3.4 3.4 0 0 1-2.1 2.8c-.7.2-1 .6-1.8 1l1.1-3.6c.2-.1.2-.3.3-.4.7-.6 1.7-1.1 3-1.8Zm23.3-13.5c-.2.8-.6 1.4-.7 2.1a3.4 3.4 0 0 1-2 2.7l-1.7 1 1-3.5.2-.3c1.1-.8 2-1.4 3.2-2Zm-.5 3.2v-.1l1-3.4s0-.3.1-.2l3.3-2-1.2 3.6-.2.3-3 1.8Zm-15 5.8-1.2 3.5-.2.3-3.3 2 1.1-3.8.3-.3c1.1-.4 2.1-1 3.3-1.7Zm-19.6 11.4-.5 1.8a4 4 0 0 1-2.7 3.3l-1.5.8 1.1-3.4.3-.6 3.3-2Zm15.2 12.2h.1l-1 3.5-.3.2-3 1.8c.2-1.3.6-2.4 1-3.6l.2-.2 3-1.7Zm7.7-22.4v-.2l1-3.3v-.3l3.2-1.9-1 3.6c-.1.1-.1.3-.3.3l-2.9 1.8Zm-31.8 39.4c.4-1.3.7-2.5 1.2-3.6l.2-.2c1-.7 2-1.2 3.1-1.8-.3 1.1-.5 2.2-1 3.3 0 .1 0 .3-.2.2-1 .9-2 1.4-3.3 2Zm-7.6 4.5c-.1 0-.1 0 0 0 .2-1.3.6-2.3 1-3.5v-.1l3.2-1.9c-.2 1.3-.6 2.4-1 3.4 0 0 0 .3-.2.2l-3 2Zm35.3-20.6h-.1l1-3.4c0-.2 0-.3.2-.3l3.1-1.8c-.2 1.3-.5 2.3-.9 3.5l-.3.3c-1 .5-2 1-3 1.7Zm7.9-4.7h-.1l1-3.3c.2-.1.2-.3.2-.3l3.1-1.9c-.2 1.3-.5 2.3-.9 3.5l-.2.2-3.1 1.8Zm-19.4 8.4.1.1-.6 2c-.3 1-1 2-2 2.4l-2 1 1.1-3.4c.2-.1.2-.3.4-.3l3-1.8Zm-20 14.6 1-3.5.2-.2 3-1.8c-.2 1.3-.7 2.4-1 3.6l-.2.2-3 1.7Zm23.9-6.4v.1l-1 3.3c-.1 0-.1.3-.2.2L324 304l1-3.4.1-.2a31 31 0 0 0 3.3-1.8Zm15.7-19.8c.1.1.1.1 0 0-.2 1.3-.7 2.4-.9 3.5l-.2.2-3 1.7c.2-1.3.6-2.4 1-3.5 0 0 0-.2.2-.3l2.9-1.6Zm-31.7 21.6-.1-.1c.2-.7.5-1.2.5-1.8.2-1.3 1-2.1 2.2-2.6.6-.3 1-.7 1.8-1l-1 3.4c-.2.1-.2.4-.4.4-1 .5-2 1-3 1.7Zm3.9-2.2c0-.5.3-1 .4-1.3.3-1.8 1.3-3 3-3.7.4 0 .8-.3 1.3-.6l-1 3.5c-.2 0-.2.3-.3.4-1.3.4-2.3 1-3.4 1.7Zm11.7 3.6v-.1c0-.4.2-.7.3-1 .3-1.9 1.3-3 3-3.7l1-.7c-.2 1.2-.7 2.3-.9 3.4l-.2.4-3.2 1.7Zm19.8-22h-.1l1-3.4.2-.2 3.2-2-1 3.5c-.2.1-.2.3-.4.3-.9.7-2 1.3-3 1.9Zm-19.4 8.2s.1.1 0 0c-.3 1.2-.5 2.3-1 3.4 0 .1 0 .3-.2.4l-3.2 2 1-3.5c.2-.1.2-.3.3-.2 1-.9 2.1-1.5 3.1-2Zm-27.4 26.6-1.2 3.6-.2.2-3.2 1.8 1-3.3.2-.2 3.4-2.1Zm35.5-31.2c-.4 1.3-.7 2.5-1.2 3.5v.1l-3.3 2 1-3.5c.2 0 .2-.3.3-.2l3.2-2ZM320.8 303l-1.1 3.4c-.1.2-.1.4-.3.4l-3.3 2 1.1-3.5.3-.4 3.3-2Zm12.6-7.8-.2-.1c.5-1.1.7-2.2 1.1-3.3l.3-.2 3-1.9.2.2-1 3.2-.3.2-3.1 1.9Zm-1.4 4.3v-.1l1-3.3c.1 0 .1-.3.2-.2l3.2-1.8-1 3.3-.2.2-3.2 1.9Zm-27.7 16c.5-1.2.8-2.4 1.1-3.4l.2-.2 3.3-2-1.2 3.6-.3.3-3 1.8Zm40-26.3c-.2.9-.6 1.6-.8 2.3-.2 1-.6 1.7-1.7 2.1l-2.2 1.3 1.1-3.4c.1-.1.1-.4.2-.2l3.4-2.1Zm-14.4 4.9-1 3.5c-.2 0-.3.2-.3.2l-3.2 1.8 1-3.4.1-.3c1.2-.5 2.2-1 3.4-1.8Zm9.2-8.8-1 3.5s-.2 0-.3.2l-3.2 2 1-3.5c.1-.1.1-.3.4-.3 1-.6 2-1.1 3.1-1.9Zm11.6-6.8h.1l-1 3.2c0 .1 0 .3-.2.5l-3.1 1.8c.2-1.3.5-2.3 1-3.4l.2-.2 3-2ZM320 306.4l1.1-3.4.2-.2 3.3-2-1.1 3.5-.3.3c-.9.6-2 1.3-3.2 1.8Zm-17.7 4v.2l-.3 1c-.3 1.7-1.2 2.9-3 3.5l-1.3.7 1.1-3.5c.1 0 .1-.3.2-.2 1.2-.5 2.2-1 3.3-1.7Zm39.8-54.7c-.4 1.3-.8 2.2-1 3.3 0 .1 0 .4-.2.5l-3 1.7.8-3.5c.2 0 .2 0 .3-.2 1-.5 2-1 3.1-1.8Zm-4.7 37.3-.1-.1.3-1.2c.2-1.7 1.2-3 2.9-3.6l1.3-.6c-.3 1.1-.8 2.2-1 3.3 0 .1 0 .3-.2.4l-3.2 1.8ZM305 312.2l-1.2 3.6-.2.2-3.3 2 1.1-3.5.3-.3 3.3-2Zm-1.4-6.2.1.1-1 3.2v.3l-3.2 1.9c.2-1.3.5-2.3 1-3.4l.2-.2c.8-.7 1.8-1.2 2.9-1.9Zm38.7-19.5 1.2-3.6c.2 0 .2 0 .3-.2l3-1.7c-.2 1.3-.7 2.3-.9 3.4l-.2.2c-1 .7-2 1.2-3.4 1.9ZM313 307.7l-1.2 3.6-.2.2-3.3 2 1.1-3.5c.1 0 .1-.3.3-.3 1-.8 2.1-1.4 3.3-2Zm-2.7-2-.4 1.3a4 4 0 0 1-2.9 3.5l-1.3.6c.5-1.3.8-2.3 1-3.3 0-.3.2-.5.5-.5 1-.4 2-1 3-1.6Zm28.5-17-.1-.2 1-3.2.3-.2 3.2-2-1 3.5-.4.3-3 1.8Zm-21 15.7c0-.1-.2 0 0 0l1-3.5.2-.2 3-1.8-1 3.4-.2.2c-.9.7-2 1.3-3 1.9Zm13.6-14.4-.6 2.1c-.2 1.2-1 2-2 2.4-.6.2-1.2.8-2 1.1.5-1.3.8-2.3 1-3.3 0-.3.1-.4.5-.5 1-.5 2-1 3.1-1.8Zm-14.5 15.4-1.1 3.4c-.1.1-.1.3-.2.2l-3.3 2 1.2-3.6.2-.2c1-.5 2-1 3.2-1.8Zm31.4-18.3c-.2.9-.6 1.4-.6 2-.2 1.4-.8 2-2 2.6-.7.2-1.2.7-2 1 .5-1.2.7-2.3 1.1-3.4.1-.1.1-.3.2-.2l3.3-2Zm-7.8 4.6c-.2.8-.6 1.4-.7 2.1-.2 1.1-.7 1.9-1.8 2.3-.7.2-1.3.7-2 1.2.4-1.3.6-2.4 1-3.4.1-.2.1-.4.2-.3l3.3-2ZM309.6 309l1.2-3.6.3-.2 3.1-1.9-1.2 3.6-.2.2c-1 .6-2 1-3.2 1.9Zm24.7-48.9-1.2 3.6-.2.2-3.3 2 1.1-3.5c.1-.1.1-.3.4-.3l3.2-2Zm-15.2 39.9c-.2 0-.1 0 0 0l.8-3.5.2-.1 3.2-2-1 3.5c-.2.1-.2.3-.3.2-1 .8-2 1.3-3 1.9Zm-8 4.7 1-3.4c.2-.1.2-.4.4-.4 1-.6 2-1.1 3.2-2l-1 3.6c-.2 0-.3.2-.4.3l-3.2 2Zm.5-3.3-.6 2.1c-.3 1.1-1 2-2 2.4-.6.2-1.3.7-2 1.1l1.1-3.4c.1-.2.1-.4.3-.3l3.2-2Zm22.3-9.6-.8 2.7c0 .8-.5 1.2-1.3 1.5l-2.5 1.4 1.1-3.4c0-.2.1-.3.5-.5l3-1.7Zm-3.4 1.4 1.1-3.4c.1-.1.1-.4.4-.4l3.2-2-1 3.5-.3.3c-1 .8-2 1.4-3.4 2Zm19-10.5-1 3.3-.1.4-3.2 2c.4-1.4.6-2.5 1-3.5l.4-.4 2.9-1.8Zm-19.2-20.3-1 3.5c-.2 0-.2.3-.4.3l-3.2 1.8 1.2-3.5.4-.3 3-1.8ZM313.5 307l1.1-3.5.2-.2 3.3-2-1.1 3.5-.3.3-3.2 1.9Zm1.5-4.5 1-3.3c0-.1 0-.3.2-.4l3.2-2c-.4 1.3-.8 2.3-1 3.5-.2 0-.2.3-.4.3-1 .8-2 1.3-3 2Zm30.6-45.7c-.2 0-.2 0 0 0 .2-1.3.5-2.2.8-3.4l.1-.1 3.2-1.9-1 3.4c-.1 0-.1.3-.2.2l-3 1.8ZM322.8 298c.3-1 .6-1.7.7-2.5.2-.9.7-1.3 1.3-1.7l2.4-1.3c-.4 1.3-.8 2.2-1 3.4-.2.1-.2.3-.4.3-.8.6-1.8 1.1-3 1.8Zm-.4-30.7s.1 0 0 0c-.2 1.3-.7 2.4-.9 3.4 0 0 0 .2-.2.3l-3.2 2 1-3.5c.2-.2.2-.4.4-.4l2.9-1.8Zm-7.8 4.5.1.2-1 3.2-.3.2-3 1.8c.3-1.2.6-2.4 1-3.4l.2-.2 3-1.8Zm7.4-1.3 1-3.4c.2-.1.2-.4.3-.5 1-.5 2-1.2 3.2-2l-1 3.5-.3.3c-1 .8-2.2 1.5-3.2 2.1Zm16-12.4-1 3.4-.2.2-3.3 2 1.1-3.5.4-.3 3-1.8Zm3 32.8.4-1.2c.2-2 1.3-3 3-3.9.3 0 .7-.4 1-.6-.2 1.2-.7 2.2-1 3.2l-.2.5-3.2 2Zm-19.6 11.4 1.1-3.4c.1-.2.1-.4.2-.3l3.3-2-1 3.5-.4.4-3.2 1.8Zm28-47.7-.2-.1c.5-1.1.7-2.2 1.1-3.3.1 0 .1-.3.2-.2l3.3-2-1.1 3.5-.2.2-3.2 1.9Zm7.7-4.6 1-3.5.1-.2 3.3-2-1.1 3.5-.2.3-3 2ZM302 313.5l.8-3.2c.1-.1.1-.4.4-.4l3.2-2-1 3.5-.3.3-3.1 1.8Zm1.4-4.2c-.1-.1-.1-.1 0 0 .3-1.2.6-2.4 1-3.4l3.3-2-1 3.4c-.2.1-.2.4-.3.2l-3 1.8Zm47.2-38.2-.1-.1 1-3.2.3-.3 3.2-2-1 3.6-.3.2-3.1 1.8Zm-17 3v-.1l1-3.3.2-.2 3.3-2-1.1 3.5-.2.2-3.2 1.9Zm1.7 3-1 3.5s-.2 0-.3.2l-3.1 1.8c.2-1 .5-2.3.9-3.2l.3-.3c1-.8 2-1.5 3.2-2Zm10.7-23.6-1 3.5c-.2 0 0 .2-.3.2l-3.1 1.8c.3-1.2.5-2.2 1-3.3l.3-.4c1-.7 2-1.3 3.1-1.8Zm-35.3 31c-.2.9-.6 1.4-.7 2.2-.2 1-.8 2-2 2.4-.6.2-1.1.7-1.9 1 .5-1.3.8-2.2 1-3.3.1-.1.1-.3.3-.3l3.3-2Zm46.8-37.7-1 3.3-.2.2-3.2 1.9 1.2-3.6.3-.2 2.9-1.6Zm-48.2 42c-.5 1.2-.8 2.2-1.1 3.4-.1.1-.1.3-.2.2l-3.3 2c.4-1.3.8-2.3 1-3.5.2-.1.2-.3.3-.2l3.3-2Zm6.4-.3c0 .5-.3 1-.4 1.3a4 4 0 0 1-2.8 3.5l-1.3.6 1-3.3c0-.1 0-.4.2-.3a33 33 0 0 0 3.3-1.8Zm-1.5-13.5c.4-1.3.7-2.5 1.2-3.6l.2-.2 3.1-1.8-1.2 3.5-.2.2-3.1 1.9Zm4.2 5c0 .7-.3 1.4-.5 2-.2 1.3-.8 2-2 2.4-.6.2-1.1.7-1.9 1 .5-1.2.8-2.2 1-3.3 0-.2.1-.3.4-.4 1-.4 2-1.1 3-1.6Zm27.5-16-1.1 3.5-.2.2-3 1.7c.1-1.3.5-2.3.9-3.3l.2-.3c1-.5 2-1 3.2-1.8Zm-9.4 8.9v.5c-1 3-1 3-3.9 4.7 0 0-.3 0-.5.3l1-3.2c0-.3.3-.5.5-.5l3-1.8Zm7.8-4.6.1.1-1 3.3c-.2 0 0 .2-.3.2l-3.2 2c.4-1.4.8-2.3 1-3.4 0-.1 0-.3.3-.3l3.1-1.9Zm-40.7 30.2s-.2 0 0 0l.9-3.3s0-.2.2-.2l3.3-2c-.5 1.4-.8 2.3-1 3.4 0 .2-.2.4-.5.4l-2.9 1.7Zm41.8-31.3.9-3.2c.1-.1 0-.2.2-.2l3.3-2c-.5 1.3-.8 2.3-1 3.4-.1 0-.1.3-.3.3l-3 1.7Zm-2.5 5.3.1.1-1 3.3c-.2.1-.2.3-.3.2l-3.2 2 1-3.5.3-.2c1.2-.6 2.3-1.2 3.1-1.9Zm-26.9-5 .1.1-1 3.3s-.2 0-.3.2l-3.1 1.8c.3-1.2.5-2.2 1-3.3l.3-.3 3-1.8Zm-5.8 20.3v-.2l1-3.2c.1-.1.1-.3.2-.2l3.3-2-1.1 3.5c-.1.1-.1.3-.3.3l-3 1.8Zm37.5-18.5 1-3.4s0-.2.2-.2l3.1-1.8-.8 3.2c-.2.1-.2.3-.4.3-.8.7-1.8 1.2-3.1 1.9ZM330 273v.1l-.2.9c-.2 2-1.3 3.2-3 3.9-.3 0-.5.3-.9.4.3-1 .6-2.3 1-3.2 0-.1 0-.4.2-.4l2.9-1.7Zm-6.9 14-.1-.1 1-3.3c.2 0 .3-.2.4-.3l3.2-1.9-1.1 3.5-.3.2-3 1.9Zm-15.7 9.2c-.1-.1-.1-.1 0 0l1-3.4.2-.2 3.3-2-1.1 3.5-.1.4c-1.2.5-2.2 1-3.3 1.7Zm12.1-10.2-1 3.5c-.2 0-.2.3-.3.2l-3 1.7 1-3.3.3-.4c.9-.4 2-1 3-1.7Zm23.2-20.8v-.1l.9-3.2c.1 0 .1-.3.3-.3l3-1.7c-.2 1-.5 2.3-1 3.3l-.1.3-3 1.7Zm4.2 4.8-1 3.5-.3.2-3.1 1.9 1-3.5.3-.2 3.1-1.9Zm-35 10c-.2.7-.5 1.2-.5 1.6a4.3 4.3 0 0 1-2.7 3.4l-1.4.7 1.1-3.2.2-.5 3.3-2Zm10.5-2.4c-.5 1.3-.8 2.2-1 3.3l-.1.3-3.2 1.9 1-3.4.4-.3c.6-.6 1.6-1.2 2.9-1.8Zm-5.6 6.6s.2 0 0 0l-.8 3.2-.1.3-3.2 1.9 1-3.4c.1 0 .1-.3.3-.3l2.8-1.7Zm4.8-3.3.4-1.3c.3-1.7 1.2-2.9 3-3.6l1.3-.6c-.4 1.2-.8 2.3-1 3.4-.1 0-.1.3-.3.3-1.2.5-2.2 1-3.4 1.8Zm-8.4 5.4c-.3.7-.5 1.1-.5 1.6a4 4 0 0 1-2.6 3.2l-1.5.9c.4-1.3.8-2.3 1-3.4.1 0 .1-.3.3-.3l3.3-2Zm3.3 1 1-3.3.2-.3 3.3-2-1 3.4-.2.5c-1.2.5-2.2 1-3.3 1.7Zm14.5-25.9 1-3.4.3-.2 3-1.8-1 3.4-.2.2c-.9.6-2 1.3-3.1 1.8Zm26.5-4.2-1.1 3.4-.3.2-3 1.8c.2-1.3.6-2.3 1-3.4l.2-.2c.9-.6 2-1.3 3.2-1.8Zm-9.1 8.6-1.1 3.5-.3.2-3.2 2 1-3.5.3-.2 3.3-2Zm-24 17-.2-.2 1-3.2.3-.2 3.3-2-1.1 3.5-.3.2-3 1.9Zm26.5-15-1 3.4c-.2.1 0 .2-.3.2l-3.2 2c.4-1.3.8-2.3 1-3.4 0 0 0-.3.3-.3l3.2-2Zm.7-.9 1-3.5s.2 0 .3-.2l3.2-2-1 3.5c-.2.1-.2.4-.3.2l-3.2 2ZM339 257l1-3.4c.2 0 0-.2.3-.2l3.1-1.8c-.2 1-.5 2.2-.9 3.2l-.3.3-3.2 2Zm-15.6 27-.8 3.3-.1.3-3.3 2c.4-1.3.8-2.3 1-3.5.2-.1.2-.3.4-.3.9-.7 1.9-1.2 2.8-1.8ZM313 268.8c0-.5.3-1 .3-1.4a4.3 4.3 0 0 1 2.7-3.3l1.4-.8-1 3.2c0 .3-.2.4-.5.5l-3 1.8Zm15.3 11.9 1.1-3.5.2-.2 3.2-1.8-1.1 3.4c-.1.1 0 .2-.3.2l-3 1.9Zm25.1-21h.1l-.2 1a4.7 4.7 0 0 1-3 3.8l-1 .7c.2-1.2.7-2.3.9-3.4l.2-.4 3-1.8ZM335 269.8s0-.2-.2 0l1.3-3.5 3.2-1.9-1 3.4-.3.3c-1.1.5-2 1.1-3 1.7ZM320.6 285l1-3.3.2-.2 3.3-2-1.1 3.5-.2.2-3.2 1.8Zm30.6-38.1c-.3 1-.7 1.7-.8 2.5-.2.9-.6 1.5-1.4 1.8l-2.4 1.3c.5-1.3.8-2.2 1-3.3.1-.1.1-.3.4-.3 1-.8 1.9-1.3 3.2-2Zm-15 29c-.1 0 0 0 0 0l.9-3.2.2-.2 3.2-2-1 3.5c-.1 0-.1.3-.4.3l-2.9 1.6Zm18.3-17.7.9-3.2c.1-.1.1-.3.2-.2l3.3-2-1.1 3.5c-.1.1-.1.3-.2.2l-3 1.7Zm-20.4 12.5-1.1 3.5-.2.2-3 1.7.9-3.3.2-.2 3.2-1.9Zm-6.9 3.6 1-3.3.2-.3 3.3-2-1.1 3.6-.2.2c-1.2.5-2.2 1.3-3.2 1.8Zm14.7-8.1-.7 2.1c-.2 1.1-.8 1.9-1.7 2.2-.7.2-1.3.7-2 1.2l.9-3.4c.1 0 .1-.3.3-.3l3.2-1.8Zm-30.5 17.2 1.1-3.2.2-.4 3.3-2-1.1 3.5c-.1 0-.1.3-.3.3l-3.2 1.8Zm15.6 1.3-.1-.1 1-3.2s0-.3.2-.2l3.2-2c-.4 1.4-.6 2.5-1 3.5l-.3.3c-1 .5-2 1-3 1.7Zm12.2-10-1 3.4c-.2 0-.2 0-.3.2-1 .5-2 1.2-3.2 2l1-3.5.3-.2 3.2-2Zm23.6-34.6-1.1 3.4c-.1.1-.1.3-.2.2l-3 1.8c.2-1.1.5-2.3 1-3.4l.3-.3 3-1.7Zm-47.4 41 1-3.2.1-.2 3.2-1.9-1 3.4-.3.3-3 1.7Zm7.7-4.4c.5-1.3.8-2.3 1-3.4l.1-.3 3.3-2c-.5 1.4-.8 2.3-1 3.4-.1.1-.1.3-.3.3l-3 2Zm24.9-28.5 1-3.5h.2l3.2-2c-.4 1.3-.8 2.3-1 3.4l-.3.3-3.1 1.8Zm-24.3 25.1-1.1 3.5c-.1.1 0 .2-.2.2l-3.3 2a62.2 62.2 0 0 0 1.4-3.8l3.2-1.9Zm-3-9.1c.4-.8.5-1.3.6-1.9.2-1.3.9-2.1 2-2.7.7-.2 1.2-.6 2-1l-1.2 3.5c0 .1 0 .3-.2.2-1 .6-2 1.1-3.1 1.9Zm11-5.9v.1l-1 3.3s-.2 0-.3.2l-3.2 2 1-3.5c.2-.1.2-.4.4-.4 1-.5 2-1 3-1.7Zm15 4.5v-.1l.9-3.1c.1-.1.1-.4.2-.3l3.3-2-1.1 3.6-.2.2-3 1.7Zm-26.8 2.2.1.1-1 3.2s0 .3-.3.3l-3 1.7 1-3.3.2-.2 3-1.8Zm8-4.6-1.2 3.4-.2.2-3 1.8c.3-1.2.5-2.3 1-3.4l.2-.2c1-.5 2-1 3.1-1.8Zm22.7.2 1-3.3.2-.2 3.3-2c-.5 1.3-.8 2.3-1 3.4-.1 0-.1.3-.3.3l-3.2 1.8Zm-10.3-8v-.2l1-2.9s0-.3.2-.4l3-1.7c-.2 1-.5 2.2-1 3.3l-.3.3-3 1.7Zm-5.3 6.7 1-3.5.3-.2 3.2-2-1 3.5-.4.3c-1 .6-2 1.1-3.1 1.9Zm20-14.7-1.1 3.5-.2.2-3.3 2 1.1-3.5.4-.3 3-1.9Zm-16 22.8c0-.8.4-1.5.5-2.3.2-.9.6-1.5 1.4-1.8l2.4-1.3c-.5 1.2-.8 2.2-1 3.3l-.1.3-3.3 1.8Zm3.7-12.7 1.1-3.5.3-.2 3.1-1.8-1 3.4-.3.3c-1 .5-2 1-3.2 1.8Zm-23.1 13.5-.1-.1 1-3.3s.2 0 .3-.2l3-1.7c-.3 1.2-.5 2.2-1 3.3l-.2.2-3 1.8Zm34-29.5h.1c-.3 1-.6 2.3-1 3.2l-.2.2-3.2 2 1-3.4s0-.3.4-.4l2.9-1.6Zm10.5-2.7-1.1 3.4-.2.2-3.2 1.9 1-3.3.1-.2 3.4-2Zm-12.2 10 1-3.4.3-.2 3.2-2c-.4 1.3-.8 2.3-1 3.5-.2 0-.3.2-.4.3-1 .5-2 1-3.1 1.8Zm3.9-2.4c.2-.6.4-1 .4-1.5a4 4 0 0 1 2.6-3.2l1.5-.9-1 3.3c0 .2-.2.3-.5.4-1 .8-1.9 1.4-3 2Zm-20.3 23c-.5 1.2-.8 2.2-1.1 3.4l-.2.2-3.3 2 1.1-3.5.2-.2 3.3-2Zm-13.2-6.8c-.1 0-.1 0 0 0l.9-3.2c0-.1 0-.2.2-.2l3-1.8c-.2 1.1-.5 2.3-1 3.4l-.3.3c-1 .3-1.8 1-2.8 1.5Zm-7.8 4.6c-.1-.1-.1-.1 0 0l.9-3.2c0-.2 0-.4.2-.5l3-1.7c-.2 1-.5 2.3-1 3.3l-.2.3c-1 .5-2 1-2.9 1.8Zm6.8-3.6-1 3.5c-.2 0-.3.2-.3.2l-3.1 1.8c.4-1.3.9-2.3 1-3.4l.3-.2 3.1-1.9Zm15.5-9 .1.1c-.3 1-.6 2.2-1 3.1 0 .2 0 .4-.2.3-1 .5-2 1.2-3.2 2l1-3.5.3-.3c1-.5 2-1 3-1.7Zm21.9-9.3c.2 0 0 0 0 0l-1 3.3-.2.2-3.2 1.9 1-3.4.2-.2 3.2-1.8Zm-17 6-.1-.2 1-3.2.3-.2 3.1-1.9c-.2 1.1-.5 2.3-.9 3.3l-.3.3-3.1 1.8Zm-12 6.9.8-2.7c.3-.7.5-1.1 1.1-1.3l2.6-1.5-1 3.2c-.2.1-.2.3-.4.3-.8.8-1.7 1.3-3 2Zm-11.5 6.8c.4-1.3.8-2.2 1-3.4.2-.1.2-.4.3-.3l3.1-1.8-1 3.2-.3.5c-1 .5-2 1-3.1 1.8Zm43.3-28.2c-.4 1.3-.8 2.3-1 3.5 0 0-.2 0-.3.2l-3.3 2 1.1-3.5.3-.2 3.2-2Zm-12.9 11-1 3.4-.3.2-3.1 1.9 1-3.5c.2 0 .3-.2.4-.3.8-.4 2-1 3-1.7Zm4.6-3.3 1-3.5s.2 0 .3-.2l3.2-2-1 3.4c0 .1 0 .4-.3.4-1 .8-2 1.4-3.2 2Zm7.6-4.4c.3-1 .6-1.5.7-2.2.2-1 .8-1.8 1.8-2.3.7-.2 1.3-.6 2.1-1.2l-1 3.3c0 .2-.2.3-.5.4-.8.8-1.8 1.3-3 2Zm-36 24.4-.1-.1.7-2.3c.3-.9.6-1.4 1.5-1.8l2.3-1.4-1 3.4-.3.3-3.1 1.9Zm25-21c-.4 1.3-.8 2.3-1 3.4l-.2.2-3.2 2 1-3.4.4-.4 3-1.8Zm-9 8.8-1 3.5s-.2 0-.3.2l-3.2 2 1-3.4c0-.1 0-.3.4-.4l3.1-1.9Zm-10.3 2.5c-.2.7-.4 1.3-.4 1.8-.2 1.3-1 2.2-2.3 2.9-.6.2-1 .5-1.7.9.4-1.3.8-2.3 1-3.4 0-.1 0-.3.2-.2l3.2-2Zm-1.8 7.5c-.1-.1 0 0 0 0 .2-1 .5-2.3.9-3.2 0-.2.2-.3.2-.3l3.1-1.8-1 3.5c-.2 0-.3.2-.3.2l-3 1.6Zm9.4-11.8.1.1c-.3 1-.6 2.2-1 3.1l-.2.3-3.1 1.8c.2-1 .5-2.3.9-3.2 0-.2.2-.3.3-.4l3-1.7Zm-.5 3.1 1-3.4.3-.3 3.1-1.8-1 3.5c-.2 0-.2 0-.3.2-.9.6-1.8 1.2-3.1 1.8Zm31.6-21.2L368 233l-.2.2-3 1.8 1-3.5c.2 0 .2 0 .3-.2 1-.5 2-1 3-1.7Zm-5.6 17h.1l-.7 2.5c-.2 1-.7 1.3-1.4 1.7-.7.2-1.3.6-2 1.2l1.1-3.6c.1-.1.1-.3.3-.3l2.6-1.6Zm4.3-13-1.1 3.5c-.1.1-.1.4-.3.4-1 .5-2 1-3 1.7l1-3.5.2-.2 3.2-1.8Zm-5.7 9.8 1.1-3.4.2-.3c1-.5 2-1 3.2-1.8l-1.1 3.5c-.1 0-.1.3-.3.3-1 .5-2 1-3 1.7Zm-1.4 4.2c.2-.8.6-1.4.7-2.1.2-1.1.7-1.9 1.8-2.3.7-.2 1.1-.7 1.6-1-.3 1.2-.5 2.3-1 3.4 0 0 0 .3-.3.3l-2.8 1.7Zm1.6 3.2-1 3.4c-.2.1 0 .2-.3.2l-2.8 1.8 1.1-3.5.3-.3 2.7-1.6Zm-5.5 9.6 1-3.5c.2 0 .2 0 .3-.2l2.8-1.7-1 3.4-.2.4-2.9 1.6Zm-3.7 12.8c-.2 0-.2 0 0 0 .2-1.3.6-2.4 1-3.6l.2-.2 2.7-1.6-1.2 3.5-.3.4c-.9.6-1.8 1-2.4 1.5Zm6.5-13.9c-.4 1.3-.8 2.3-1 3.5-.2 0-.2.3-.3.2-.9.4-1.6 1-2.7 1.6.4-1.3.8-2.3 1-3.4.2-.1.2-.4.3-.3l2.7-1.6Zm6.9-31.2-.8 2.4c0 .3 0 .6-.2.7l-3.2 2 .8-2.9c.2 0 .3-.2.5-.4l2.9-1.8Zm-8.3 35.4c-.4 1.3-.8 2.3-1 3.4 0 .1 0 .3-.2.4-.8.6-1.6 1-2.6 1.5l1-3.4c.2-.1.2-.3.3-.2.5-.6 1.4-1 2.5-1.7Zm4.2-33c-.1 1-.5 1.9-.7 2.8l-.2.2-3.2 2 .8-2.9.5-.4c.8-.7 1.8-1.2 2.8-1.8Zm7.8-4.6c-.6 2.7-.7 2.8-3 4.2a2 2 0 0 0-.7.5c-.1.2-.3.2-.4.3l.8-2.6c0-.2.1-.4.5-.5.7-.7 1.7-1.3 2.8-2Zm-15 46.4.2.1c-.5 1-.7 2.2-1.1 3.3-.1 0-.1.3-.4.3l-2.4 1.4 1-3.5c.2 0 .3-.2.4-.3l2.4-1.3Zm3.5-39.7c-.3 1-.5 1.9-.9 2.8 0 .1 0 .4-.2.5l-3.1 1.8.8-2.8.4-.3c.8-.7 1.8-1.2 3-2Zm-8.1 7.3c.3-1 .5-1.9.9-2.8 0-.1 0-.4.2-.3 1-.6 2-1.1 3.2-2l-.9 3-.3.2-3.1 1.9Zm-3.5-.4-.6 2.3c0 .2-.1.6-.4.6l-3.1 1.8c.1-1 .4-1.7.7-2.6l.2-.2c1-.8 2-1.3 3.2-2Zm-11.9 9.3-.1-.1c.3-.8.4-1.5.8-2.3 0-.1 0-.3.2-.4l3.2-2-.8 2.6c-.2.1-.2.3-.4.3-1 .8-2 1.3-2.9 1.9Zm11.5-6.8c.3-1 .5-1.8.9-2.5 0-.2 0-.4.3-.4l3.1-1.8-.7 2.7c-.2 0-.2.3-.4.3a31 31 0 0 0-3.2 1.7Zm-7.8 4.6.9-2.8.2-.2 3.1-1.9c-.3 1-.5 1.9-.9 2.8 0 .2-.2.3-.2.3l-3.1 1.8Zm-3.6-.3-.7 2.7c-.2.1-.2.3-.3.2l-3.2 2c.3-1 .5-1.9.9-2.8 0-.2.2-.3.3-.4 1-.5 2-1 3-1.7Zm-3.8 2.3-.6 2.4c0 .2-.1.5-.4.5l-3.2 2c.3-1 .5-1.9.9-2.6 0-.2 0-.4.3-.4l3-2Zm-4 2.3-.5 1.8c-.1.3-.2.9-.5 1-1 .8-2 1.3-3.2 2 .3-1 .5-1.8.9-2.6 0 0 0-.3.3-.3 1-.8 2-1.3 3-2Zm22.8 31c.4-1.4.6-2.5 1-3.5.2-.1 0-.3.3-.3l2.6-1.5-1.1 3.5-.4.3-2.4 1.4Zm-30.6-26.5v.6c-.7 2.3-.7 2.3-2.8 3.5l-1.4.8c.3-1 .5-1.9.9-2.6 0-.1 0-.3.3-.3 1-.8 2-1.3 3-2Zm-.3 2.5.8-2.5c0-.1 0-.3.2-.4l3.2-2-.8 2.6-.3.2c-.8 1-1.8 1.4-3.1 2.1Zm33.1 23-1 3.2c-.2.1-.2.3-.3.4-.7.6-1.5.9-2.5 1.4l1.1-3.4.2-.2c1-.5 1.7-.8 2.5-1.5Zm-1.4 4.4c0 1-.5 1.8-.6 2.6-.3 1.5-1.8 1.5-2.7 2.3l.8-3.3.2-.4c.8-.3 1.4-.8 2.3-1.2Zm-54.1 31.5-1.1 3.4-.1.4-2.3 1.4 1.2-3.6.3-.3c.5-.5 1.2-.8 2-1.3Zm45.9-21.1-.1-.1.5-1.9c.1-.3.2-.6.4-.6l3-1.8c0 .8-.3 1.7-.6 2.4l-.2.2-3 1.8Zm0-2.2-.6 2c0 .3 0 .6-.3.6l-3.2 2 .5-2c0-.3.2-.5.3-.6l3.3-2Zm-44.5 19c-.4 1.3-.8 2.3-1 3.5-.2.1-.2.3-.3.2l-2.2 1.3 1.2-3.5.2-.3 2.1-1.2ZM339 296c-.2.9-.6 1.6-.8 2.3-.1 0-.1.3-.2.2l-3.3 2a27.1 27.1 0 0 1 1-2.8c1.1-.4 2.2-1 3.3-1.7Zm-36.6 3.8c.1 0 .1 0 0 0-.2 1.3-.6 2.3-1 3.5 0 .1 0 .4-.3.4l-2 1.2 1.2-3.8.2-.2 2-1.1Zm-6 13.6.8-2.8c.3-1.4 1.6-1.4 2.5-2-.2 1-.7 2-1 3 0 .3 0 .4-.3.6l-2 1.2Zm4.8-9.4-.8 2.6c-.3 1.5-1.6 1.7-2.5 2.3l1-3.4.4-.4c.6-.2 1.2-.6 2-1.1Zm33.9-5.6c-.4.7-.5 1.3-.6 1.8 0 .4-.2.7-.3.8l-3.2 2 .6-2c0-.2.1-.5.4-.7l3-2Zm-19.7 13.4c-.1 0 0 0 0 0 0-.5 0-1 .3-1.4.1-.3.1-.7.4-.8l3.2-1.9c-.1.8-.4 1.4-.6 2.3l-.2.2c-1 .4-2.2 1.1-3.1 1.6Zm7.9-6.6-.6 1.7c0 .3-.2.6-.3.7l-3.2 2 .6-2c0-.2.2-.4.3-.5l3.2-1.9Zm-12 9 .5-1.6.3-.7 3.3-2-.7 2.2s0 .3-.2.4c-1 .4-2 1-3.2 1.7Zm16-11.3c-.2 1-.5 1.6-.7 2.2 0 .2 0 .3-.4.4l-3.1 1.9c0-.6.3-1 .4-1.3.1-.3.2-.9.4-1 1-.8 2-1.5 3.4-2.2Zm-15.8 9.2c-.2.6-.5 1-.5 1.5 0 .3 0 .7-.3 1l-3.2 2 .7-2.4.3-.3 3-1.8Zm15.6-7c0-.5.3-1 .4-1.3.2-.9.5-1.4 1.4-1.8l2.4-1.3a10 10 0 0 1-.7 2l-.3.5-3.2 2Zm-23.6 13.7.5-1.6.3-.8 3.3-2-.6 1.9c0 .3-.2.6-.4.6l-3.1 1.9Zm-8 4.6.4-1.6c0-.3.2-.8.4-.8l3.3-2-.8 2c0 .3-.2.5-.3.6-.8.6-1.8 1.1-3 1.8Zm4-2.3.6-2.2c.1-.1.1-.3.3-.3l3.2-1.9-.6 1.9c0 .3-.2.6-.3.7l-3.3 1.8Zm1-20.8c.4-1 .7-1.7.8-2.5.3-1.5 1.5-1.8 2.6-2.4l-1 3.5c-.2.1-.2.3-.4.3-.5.4-1 .7-2 1.1Zm4.6-9h.2l-1 3.2-.2.4c-.6.3-1.2.8-2 1l1.2-3.5.2-.2 1.6-1Zm4.4-13c-.3 1-.8 1.8-.8 2.6-.2 1.3-1.4 1.7-2.3 2.2.3-1 .6-1.7.7-2.5.2-1.3 1.2-1.8 2.4-2.4Zm-2.8 8.6c-.4 1-.7 1.7-.8 2.5-.2 1.5-1.4 1.8-2.6 2.4.3-1 .7-1.8.8-2.5.3-1.4 1.5-1.8 2.6-2.4Zm1.3-4.1c-.1 1-.5 1.7-.6 2.5-.2 1.3-1.4 1.6-2.5 2.2l1.1-3.2.2-.4c.6-.6 1.1-.9 1.8-1.1Zm2.7-8.8.1.1c-.3.8-.6 1.5-.6 2.4-.3 1.3-1.3 1.5-2.4 2.2l1-3.5c.2-.1.2-.3.4-.3l1.5-.9Zm-1.4.3.6-2.3c.3-1.3 1.4-1.8 2.3-2.3l-1 3.4-.3.3-1.6 1Zm4.2-8.7c-.3 1-.6 1.7-.7 2.5-.3 1.3-1.3 1.5-2.3 2.2l.8-2.4c.2-1.3 1.3-1.8 2.2-2.3Zm1.4-4.2-.6 2.3c-.2 1.3-1.2 1.7-2.2 2.2.2-.9.6-1.4.7-2.2 0-1.2 1-1.8 2.1-2.3Zm31.9 32.2c.2-2 1.3-3.2 3-3.7-.3 1.4-.5 2.7-2.2 3.3-.3 0-.5.3-.8.4Zm-51.1 27.8c0 2-1.3 3-3 3.7.1-.7.4-1.3.6-2 0 0 0-.3.3-.3l2-1.4ZM316 258c-.5 1.4-.5 3.1-2.5 3.6.4-1.6.5-3.3 2.5-3.6ZM640.8 69.5l-6 3.4-52.3 30c-.4.2-.8.5-.9 1l-22 68.2-.2.9c.4-.2.8-.4 1-.7l57.7-33.4c.3-.1.5-.6.6-.9l22-67.8.1-.7Zm-53 34.2s.2.1 0 0l-.9 3.6c-.1 0 0 .2-.2.2l-3.3 2 1.2-3.6.3-.2c1-.8 2-1.3 3-2ZM570 159.3c.1 0 0 0 0 0-.3 1.2-.5 2.3-1 3.4 0 0 0 .3-.2.2l-3.1 1.8c.2-1.3.6-2.3 1-3.5l.3-.4 3-1.5Zm7.8-4.5h.1l-1 3.3c-.2.1 0 .2-.3.2l-3.1 1.9c.3-1.2.6-2.4 1-3.4 0 0 0-.3.3-.3l3-1.7Zm4.1-2.4c-.4 1.3-.7 2.5-1.2 3.5 0 .2 0 .2-.2.3l-3.2 2 1-3.5c.2-.2.2-.4.4-.4l3.2-2Zm-12.2 10 .1-1.1c.2-2 1.4-3.2 3.1-3.8.4-.1.6-.3 1.1-.7l-1 3.5c0 .2-.2.3-.4.5-.9.7-2 1.1-3 1.7Zm17.6-55.3 1.2-3.6.3-.2 3.1-1.9-1.2 3.6-.4.4c-.8.6-1.8 1.1-3 1.7Zm4-2.2c.2-.9.5-1.4.6-2.2a3 3 0 0 1 2-2.5c.7-.2 1.1-.6 1.9-1l-1.1 3.5-.2.5-3.3 1.7Zm-6 48.7-.1-.2.3-1c.2-1.9 1.4-3 3.3-3.8l1-.6-1.2 3.5c0 .1 0 .3-.2.4l-3.1 1.7ZM599.7 97l-1.1 3.4c-.1.2-.1.4-.3.4-1 .5-2 1-3 1.7v-.2c.3-1 .6-2.2 1-3.1 0-.2 0-.4.3-.4l3-1.8Zm3.2 1.3 1.2-3.6.2-.2 3.4-1.9-1.2 3.6c-.1.1 0 .2-.2.2a26 26 0 0 0-3.4 1.9Zm-17.2 52h.1l-1 3.3c-.2 0 0 .2-.3.2l-3.2 2c.4-1.4.7-2.6 1.2-3.6l.3-.4 3-1.6Zm7.5-1.3-.1-.1 1-3.5s.2 0 .3-.2l3.1-1.8c-.3 1.2-.6 2.4-1 3.3l-.4.5-3 1.8ZM615 88.4v.1l-1 3.5-.2.2-3.2 1.8 1.2-3.5.2-.3 3-1.8Zm-26 63c.4-1.2.7-2.4 1.2-3.5l3.3-2-1 3.4c-.2.1-.2.3-.4.3-1 .6-2 1.1-3.1 1.9Zm16.2-12.3-1 3.5c-.2.1-.2.3-.3.4l-3.2 2c.4-1.3.7-2.5 1.2-3.6l.2-.2c.8-.9 1.8-1.4 3.1-2Zm-6.3-38.6 1.2-3.5.2-.2 3.2-1.9-1.2 3.6-.3.3-3 1.7ZM623 84.1c-.3.8-.6 1.4-.6 2-.2 1.3-.9 2.2-2.2 2.6-.6.2-1 .7-1.8 1l1-3.5c.2 0 .2-.3.3-.2 1-.7 2-1.4 3.3-2Zm-11.6 6.4-1.1 3.4c-.1.1-.1.4-.2.2l-3 1.8c.2-1.3.6-2.4 1-3.6l.2-.3c1-.2 2-.9 3-1.5Zm-38.4 60.2-1 3.3-.2.2-3 1.8-.2-.1c.5-1.1.8-2.3 1.2-3.4l.2-.2 3-1.6Zm41.7-59v-.2c.2-1.2.7-2.2 1-3.4l.2-.2L619 86l-1.1 3.5c-.1 0-.1.3-.4.3-1 .8-1.9 1.3-2.9 1.8Zm-13.2 49.6-1 3.5c-.2 0-.2.3-.3.2l-3.1 1.8 1-3.4.5-.5 3-1.6Zm15.5-8.8-1.2 3.6-.2.2-3.2 1.8 1.2-3.5.3-.2c.8-.7 1.8-1.2 3.1-1.9Zm-37.3-3h.1l-1 3.3c-.2.1 0 .2-.3.2l-3.1 1.9c.3-1.2.5-2.3 1-3.4 0 0 0-.3.3-.3 1-.7 2-1.2 3-1.7Zm54.6-51.9.1.2-.6 1.9c-.2 1-.9 2-2 2.4l-2 1c.5-1.2.7-2.3 1.2-3.4 0-.1 0-.3.3-.3l3-1.8Zm-8.2 7.6.3-1.2c.3-1.8 1.3-3 3.2-3.7l1-.6-1.2 3.5s0 .3-.2.4l-3.1 1.6Zm-21.2 57.3-.1-.1 1-3.5.3-.2 3.2-2c-.4 1.3-.7 2.5-1.2 3.6l-.3.3c-1 .8-2 1.3-3 1.9Zm-28-4.5.2.1-1 3.2-.2.4-3.1 1.8c.3-1.2.5-2.2 1-3.3l.2-.2c1-1 2-1.4 3-2Zm36.2-3.3c-.1.5-.3.7-.3 1.2-.2 2-1.3 3.2-3.3 3.9-.3 0-.5.3-1 .5l1.1-3.5c.1 0 .1-.3.4-.3 1-.5 2-1 3.1-1.8Zm-36.6 17v-.2l.3-1.5c.3-1.5 1.1-2.4 2.5-3 .5-.1 1-.5 1.7-.9-.5 1.3-.8 2.3-1 3.4a101.6 101.6 0 0 1-3.5 2.2Zm1.8-18h.1l-1 3.2c0 .1 0 .4-.2.2L574 139c.3-1.2.5-2.3 1-3.4l.2-.2 3-1.7Zm4.1-12.8.1.1-.3 1c-.3 1.8-1.3 3-3 3.7-.3 0-.8.3-1.2.5l1-3.3c0-.1 0-.4.3-.4 1.2-.5 2.2-1 3.1-1.6Zm1 16.9h.2l-1.1 3.3-.2.2-3.2 1.9 1-3.4c.1 0 .1-.3.2-.2l3.2-1.8Zm-12 9.8.7-2.3c.2-.9.7-1.3 1.4-1.7.8-.3 1.5-.8 2.4-1.3l-1.1 3.5c-.1.1-.1.3-.3.3l-3 1.5ZM626.8 82l-1.2 3.6c-.2 0-.2 0-.3.2-1 .5-2 1-3 1.7-.1-.1 0-.2 0-.2l1-3.1c.1-.2.1-.4.3-.4 1-.7 2-1.3 3.2-1.8Zm-49 65.5 1-3.3.1-.1 3.2-1.9-1 3.4c-.1 0-.1.3-.3.3-1 .5-2.1 1-3 1.6ZM570 152v-.1l1-3.3.2-.2 3.2-1.9-1 3.4-.2.2-3.2 1.9Zm27.8-36.6-.1-.2.6-1.9a3 3 0 0 1 1.8-2.2c.6-.2 1.3-.6 2-1.2l-1 3.5c-.2.1-.2.3-.4.3l-2.9 1.7Zm-11.7 6.5-.1-.1 1-3.3c.2 0 .2-.3.3-.2l3.3-2c-.5 1.3-1 2.4-1.1 3.5l-.3.2-3 1.9Zm-5.4 17h-.1l1-3.3.3-.2 3.1-1.9c-.3 1.2-.5 2.3-1 3.4l-.2.2-3.1 1.9Zm-13.4 21.6h-.1l.5-1.7c.3-1.3 1-2.3 2.3-2.7.7-.2 1.1-.7 1.9-1-.5 1.3-.8 2.3-1 3.3l-.1.4c-1.4.5-2.4 1-3.5 1.7Zm13.7-35.3.1.1c-.2.7-.4 1.1-.4 1.8-.2 1.3-1 2-2.2 2.6-.6.2-1 .6-1.8 1l1-3.5.3-.2 3-1.8Zm7.6-11.7 1.1-3.4c.1-.1 0-.2.2-.2l3.2-1.9-1 3.4-.3.3-3.2 1.8Zm-9 8.6v-.1l.3-1.3a4 4 0 0 1 2.7-3.3l1.4-.7-1.1 3.2a24.8 24.8 0 0 1-3.2 2.2Zm2.7-8.5v-.2c.2-.6.5-1.1.5-1.8.2-1.3.8-2 2-2.5.7-.2 1.1-.6 2-1l-1.1 3.4c-.1.1-.1.3-.3.3l-3 1.8Zm-1.3 4.3v-.1l1-3.2.1-.2 3.2-1.8-1 3.3-.3.4-3 1.6Zm6.5 7.1.1.1-.6 2c-.3 1-1 2-2 2.3l-2 1.1 1.1-3.4c.2-.1.2-.4.3-.3l3.1-1.8Zm7.5-1.2-.1-.1 1-3.3c.2 0 .3-.2.4-.3 1-.5 2-1 3.1-1.8-.4 1.3-.7 2.5-1.2 3.5l-.2.3-3 1.7Zm-11.2 3.4-.5 1.8c-.2 1.3-1 2.3-2.2 2.8-.5.1-1 .6-1.5.9.3-1.2.5-2.3 1-3.4 0 0 0-.3.2-.2l3-2Zm-1.8 7.4h-.1l1-3.2c0-.2.3-.3.4-.4l2.6-1.6h.3l-1 3c0 .2 0 .4-.2.5-1 .7-2 1.2-3 1.7Zm18.1.6.1.1c0 .6-.3 1-.4 1.6-.2 1.5-1 2.3-2.4 3l-1.4.8.9-3.3c0-.1 0-.3.3-.3 1-.8 2-1.3 3-1.9Zm-1-24.2h-.1l.7-2c.2-1.1.7-1.9 1.8-2.3l2-1c-.5 1.2-.8 2.2-1.1 3.4-.2 0-.2.3-.4.3l-2.9 1.6Zm-19.8 39.6.1.2-1 3c0 .2 0 .4-.3.4l-3.2 2 1-3.5.3-.2 3.1-1.9Zm5.4-24.5-.1-.1 1-3.3s.2 0 .3-.2l3-1.7c-.3 1.2-.5 2.3-1 3.3l-.2.3c-1 .7-2 1.3-3 1.7Zm3.5 18.9-.1-.1.4-1.3a4.3 4.3 0 0 1 2.8-3.4l1.3-.6c-.4 1.2-.6 2.3-1 3.2 0 .2 0 .4-.4.5l-3 1.7Zm3.7-32.8c-.5 1.3-1 2.4-1.2 3.6l-.3.2-3 1.9a62.4 62.4 0 0 0 1.2-3.7c1-.8 2-1.3 3.3-2Zm-1.9-2.9 1.1-3.4c.1-.2.1-.4.2-.3l3.3-2c-.5 1.4-.9 2.5-1.1 3.5l-.2.3-3.3 2Zm-1.6 32.7c.1-.1.3 0 0 0-.2 1-.5 2.2-1 3.3l-.2.2-3.2 2 1-3.5c.2 0 .3-.2.4-.3l3-1.7Zm4.3-30.8 1-3.4.2-.2 3.2-1.9-1.1 3.5-.5.4-2.8 1.6Zm-12.3 38.4v-.1l1-3.3.2-.2 3.3-2-1.1 3.5c-.1.1-.1.3-.4.3l-3 1.8Zm20.1-42.8v-.1l1-3.2.2-.3 3.2-1.8c-.5 1.3-1 2.4-1.1 3.5l-.2.2-3 1.7Zm-6.8 21.3h-.1l1-3.3.3-.2 3.1-1.9c-.4 1.3-.9 2.4-1 3.5-.2 0-.2 0-.3.2-1 .5-2 1-3 1.7Zm-9-12.4 1.2-3.6h.1l3.3-2-1.1 3.4c-.1.1-.1.4-.3.4-1 .6-1.9 1.2-3.2 1.8Zm11.9 11.2v.1c-.1.7-.5 1.2-.5 1.9-.2 1.3-.8 2-2 2.5-.7.2-1.1.6-1.7.8l.8-3.2c.1-.1.1-.3.4-.3l3-1.8Zm-19.6 21.6c-.3.6-.5 1-.5 1.7-.2 1.5-1 2.5-2.4 3l-1.6 1 1.1-3.4c.1-.1.1-.4.3-.4l3-2Zm5-24.2.3-1.2c.3-1.9 1.2-3.2 3.2-3.8l1-.7-1 3.3c0 .2-.2.3-.5.4-.8.7-1.8 1.2-3 2Zm3.6 18.8v-.1l1-3.3.2-.2 3.3-2-1.1 3.5c-.1.1 0 .2-.2.2l-3.2 1.9Zm9 1.8-.1-.1c.2-.7.5-1.4.6-2.2.3-.9.8-1.6 1.6-2l2.2-1.1-1 3.2c-.2.1-.2.3-.3.4l-3 1.8Zm-.5-30.6h.1l-1 3.3-.3.3-3 1.7c.3-1.2.5-2.3 1-3.4l.2-.2 3-1.7Zm2.3 5.3-.1-.1c.3-.8.6-1.5.7-2.3.3-.9.7-1.3 1.6-1.7l2.3-1.3-1 3.4c-.2.1-.2.3-.4.3l-3.1 1.7Zm-1.1 1 .1.2-1 3.2c-.2.1-.2.3-.4.3l-3.1 1.9c.4-1.3.8-2.4 1-3.5.2 0 .3-.2.3-.2l3.1-1.8Zm-14.4 15.1v.1l-1 3.3-.2.2-3 1.7c.3-1.2.6-2.4 1-3.3l.2-.2 3-1.8Zm6.4-7.5h-.1c0-.6.4-1.1.5-1.7.2-1.3 1-2.3 2.3-2.7.6-.2 1-.5 1.7-.9l-1 3.3c0 .2-.2.3-.5.4l-3 1.6Zm5.5-9.6.1.1-1 3.3c-.2 0 0 .2-.3.2l-3.1 1.8c.3-1.2.5-2.2 1-3.3l.2-.2 3.1-1.9Zm-7 13.9v-.1c.2-.7.4-1.1.5-1.9a3 3 0 0 1 2-2.5c.7-.2 1.1-.6 1.9-1-.4 1.3-.8 2.3-1 3.4 0 .1 0 .3-.3.3l-3 1.8Zm-1.4 4.2v-.1l1-3.2s0-.3.1-.2l3-1.7c-.3 1.2-.5 2.3-1 3.3l-.2.4c-.8.3-1.9 1-2.9 1.5Zm6.5-.2v-.2l1-3 .1-.3 3.2-1.9-1 3.4c-.1.1-.1.3-.3.3l-3 1.7Zm-7.5-16.5.4-1.3a4 4 0 0 1 2.9-3.4l1.3-.7-1.1 3.3c0 .2-.2.4-.4.5-1 .3-2 1-3 1.6Zm3.4 18.8.8-2.2c.2-1.1.7-1.7 1.6-2l2.2-1.4-1.1 3.5c-.1 0-.1.3-.2.2l-3.3 2Zm-8.6 5.5c0 .3 0 .6-.2 1-.2 1.9-1.3 3.2-3.1 4-.3 0-.5.3-1 .5.5-1.3.8-2.3 1-3.4a24.6 24.6 0 0 1 3.2-2.2Zm8-32.8c.1-.7.4-1 .5-1.6.2-1.5 1-2.4 2.5-3l1.5-.8c-.3 1.2-.8 2.2-1.1 3.2 0 .2-.2.5-.4.5-1 .5-2 1-3 1.7Zm-2.8 36.8-1 3.4c-.2.1 0 .2-.3.2l-3.1 1.9c.3-1.2.5-2.3 1-3.4l.3-.3c1-.5 2-1 3.1-1.8Zm24.8-46h-.1l1-3.3.3-.2 3-1.8.1.2-1 3.2-.3.2-3 1.8ZM592.7 129l-1.2 3.6h-.1l-3.2 2c.4-1.3.6-2.4 1-3.4l.2-.3 3.3-2Zm21-36-1 3.3-.3.2c-1 .5-2 1.2-3 1.9l1-3.5.2-.2c.9-.7 2-1.2 3-1.8Zm-34.2 47v.2l-1 3.2-.2.2-3 1.8c.3-1.2.5-2.3 1-3.4l.1-.2 3-1.8Zm2.8-8.6c-.4 1.3-.8 2.3-1 3.5-.2 0-.2.3-.3.2l-3 1.7-.1-.1c.4-1 .7-2.3 1.2-3.4l.2-.2 3-1.7Zm16-29.9-1.1 3.6-.2.2-3.2 1.8 1.1-3.4.2-.2c1-.8 2-1.3 3.3-2Zm-12.2 38.2c-.7 2-.8 4-3 4.8-.4 0-.7.4-1.2.6l-.3.1c.5-1 .7-2.1 1-3.1l.2-.4 3.3-2Zm1-4.1.2.1-1 3.1c-.1.2-.1.4-.2.3l-3 1.7c.3-1.2.5-2.3 1-3.4l.1-.2 3-1.6Zm6.7-18-.1-.2 1-3.2.3-.2 3-1.8c-.3 1.2-.5 2.3-1 3.4 0 0 0 .3-.3.3l-2.9 1.6Zm-8.7 5.4-1 3.4c-.2.1-.2.3-.3.2l-3 1.8c.3-1.2.5-2.3 1-3.4 1-.9 2-1.4 3.3-2Zm21.7-9v.1l-1 3.3-.2.2-3 1.7c.3-1.1.5-2.2 1-3.3l.2-.2 3-1.8Zm8.8-15.9 1-3.3c0-.1 0-.4.3-.4l3-1.7c-.3 1.2-.5 2.3-1 3.4l-.2.2c-1 .7-2 1.3-3.1 1.8Zm-17 23.6 1.1-3.4.3-.2 3-1.8-1 3.4-.3.3c-1 .5-2 1-3 1.7Zm-23.3 31.1.1.1-1 3.2s0 .3-.2.2l-3 1.8c.2-1.2.5-2.2.9-3.3l.3-.4 3-1.6Zm24.6-25v-.1l1-3.2s0-.3.1-.2l3-1.7c-.3 1.2-.5 2.3-1 3.3l-.1.3-3 1.6Zm-13.1 21.5c-.1 0-.1 0 0 0l1-3.3v-.1l3.2-1.9c-.3 1.2-.5 2.3-1 3.4 0 0 0 .3-.3.3l-2.9 1.6Zm.4-3.2-.7 2.5c-.2.8-.7 1.5-1.5 2-.8.2-1.4.7-2.3 1.1.4-1.3.8-2.3 1-3.4.2-.2.2-.4.3-.3l3.2-2Zm14.5-43.6v-.1l1-3.3.2-.2 3.3-2-1.1 3.5c-.1.1-.1.3-.3.3l-3 1.8Zm-1.2 1.2h.1l-1 3.3-.3.2-3 1.8 1-3.4.3-.3 3-1.6Zm-5 6.4c0 .6-.4 1.2-.5 1.7-.2 1.3-1 2.3-2.3 2.7l-1.7.9c.4-1.3.8-2.3 1-3.5.2-.1.2-.3.3-.2 1-.4 2-1 3.1-1.6Zm-1.9 25.3h.2c-.3.5-.4.8-.5 1.4a4.3 4.3 0 0 1-2.7 3.3l-1.4.8c.4-1.3.8-2.3 1-3.4 0 0 0-.3.3-.3l3.1-1.8Zm7.8-4.4.2.1c-.5 1.1-.7 2.2-1.1 3.3l-.3.2-3 1.7 1-3.3.3-.3 3-1.7Zm-12-.7c.5-1.3 1-2.4 1.1-3.5l.3-.2 3.2-2c-.4 1.4-.8 2.3-1 3.5-.2.1-.2.3-.4.3-.9.7-2 1.4-3.2 1.9Zm17.4-23.6-.1-.1.3-.8c.4-2 1.4-3.3 3.4-4l.8-.4-1 3.2c0 .2-.2.3-.5.5l-2.9 1.6Zm-5.4 6.5 1-3.5c.2 0 0-.2.3-.2l3.1-1.8c-.3 1.1-.5 2.2-1 3.3 0 .1 0 .3-.4.4l-3 1.8Zm4 5.2h.2l-1 3.2c-.1.1-.1.3-.2.2l-3 1.8c.3-1.2.5-2.3 1-3.4l.2-.2 2.9-1.6Zm-8.8-2 .1.1-1 3.3c-.2.1 0 .2-.3.2l-3.1 1.9c.3-1.2.5-2.3 1-3.4 0-.1 0-.3.3-.3l3-1.8Zm18-6.8c-.2 1-.5 1.8-.8 2.6 0 .7-.5 1.2-1.3 1.5l-2.4 1.3 1-3.4.2-.2c1.2-.5 2.3-1.2 3.4-1.8Zm-16 22.5v-.1l.4-1.3a4.3 4.3 0 0 1 2.7-3.4l1.4-.7-1.1 3.2c-.1.1-.1.4-.3.4l-3 2Zm-2.5 5.3.1.1-1 3.2s0 .3-.2.4l-3.1 1.8c.4-1.3.9-2.3 1-3.4l.3-.2c.9-.7 1.8-1.2 3-1.9Zm7.5-1.2-.1-.1 1-3.2.3-.3 3-1.7c-.3 1.2-.5 2.3-1 3.4l-.2.2c-1 .5-2 1-3 1.7Zm-3.6-18.8.5-1.6c.2-1.5 1.1-2.6 2.5-3.2l1.5-.8-1 3.2c-.2.1-.2.3-.4.3-1 1-2 1.6-3.1 2.1Zm9.6-11.8.1.1c-.2.7-.5 1.4-.6 2.2-.2.8-.7 1.5-1.4 1.8-.8.3-1.4.8-2.1 1.2.3-1.2.5-2.3 1-3.4 0 0 0-.3.2-.2.7-.6 1.7-1 2.8-1.7Zm-12.4 20.4 1.1-3.5.2-.2 3-1.8c-.2 1.2-.5 2.3-.9 3.4l-.3.3-3 1.8ZM604 115h-.1l.6-2a3 3 0 0 1 2-2.4c.6-.2 1.3-.7 1.8-1-.2 1-.5 2.3-.9 3.3 0 0 0 .3-.2.2l-3.2 2Zm4.3-15.8s.1.1 0 0c-.2 1.1-.5 2.3-1 3.4l-.2.2c-1 .5-2 1-3.1 1.8.4-1.3.8-2.2 1-3.4l.4-.3 3-1.7Zm-5.4 9.6-.1-.2 1-3c0-.2 0-.4.3-.4l3-1.8c-.3 1.2-.5 2.3-1 3.4l-.2.2-3 1.8Zm14.4-7.8s.1.2 0 0l-1 3.4v.1l-3.1 1.7c.2-1 .5-2.2.9-3.2l.3-.3 2.9-1.7Zm-22.4 12.3.6-2a3 3 0 0 1 2.1-2.4c.7-.2 1-.7 1.8-1l-1 3.4s0 .3-.3.3c-1 .4-2 1-3.2 1.7Zm26.4-25 .1.2-1 3.2-.2.1-3.1 1.9.9-3.3s0-.3.3-.3c1-.5 2-1 3-1.7Zm-15.8 12 1-3.3.2-.3L610 95l-1.1 3.5-.4.3-2.9 1.6Zm-5.3 24.4-1 3.3-.2.2-3.2 1.9 1.1-3.5.3-.3 3-1.6Zm3.6.8v-.1l1-3.2.2-.3 3.2-1.8-1.1 3.5-.2.2-3 1.7Zm8-7.5v.1l-1 3.2-.1.4-3 1.7c.1-1 .5-2.2.8-3.2l.2-.2c1.1-.9 2-1.4 3-2Zm-2.6 1.1h-.2l1-3.2.2-.2 3-1.8c-.3 1.2-.5 2.3-1 3.4l-.1.2c-1.1.4-2 1-3 1.6Zm9.4-22.2.1.1c-.2.7-.5 1.4-.6 2.2-.3 1-.8 1.6-1.7 2-.7.4-1.3.7-2 1.3l1-3.5.3-.2c.9-.7 2-1.3 3-1.9Zm-28.1 50.2 1-3.5.3-.2 3.2-2-1 3.5c-.2 0-.2.3-.4.3l-3.1 1.9Zm14.5-15.2-.1-.1 1-3.3s.2 0 .3-.2l3-1.7c-.3 1.2-.5 2.3-1 3.3l-.2.2-3 1.8Zm-7.4-27.1.8-2.5c.2-.9.6-1.5 1.5-2 .8-.3 1.4-.7 2-1.2l-.8 3.3c-.1 0-.1.3-.3.3-1 .9-1.9 1.4-3.2 2Zm0 28.3v.1c-.3 1-.6 2.2-1 3.1 0 .3 0 .4-.4.5-1 .5-2 1-3.1 1.8l1.2-3.6.2-.2c1-.5 2-1 3-1.7Zm9-16h-.1l1-3.2s0-.3.3-.3c1-.5 2-1 3.1-1.8l-1.2 3.5-.2.3-3 1.6Zm18-17.2 1-3.2.3-.3 3.1-1.9c-.4 1.3-.9 2.4-1.1 3.5l-.2.2c-1 .5-2 1-3 1.7ZM606.5 135l.1.1-1 3.3c-.2 0 0 .2-.3.2l-3.1 1.8c.3-1.2.5-2.2 1-3.3l.3-.3 3-1.8Zm13.1-11-1 3.5-.3.2-3 1.8c.3-1.2.5-2.3 1-3.4l.2-.2 3.1-1.8Zm1.3-21.9c-.1 0 0 0 0 0 .3-1.2.5-2.3 1-3.3 0-.1 0-.3.2-.3l3-1.7-1 3.4-.2.2c-1 .5-2 1-3 1.7ZM604 133l-.7 2.2c-.2 1.1-.8 1.7-1.8 2.2-.6.2-1.3.7-2 1.2l1-3.5c.2 0 .3-.2.5-.4 1-.5 2-1 3-1.7Zm14.4-25.6v.1l-.9 3.2c-.1 0-.1.3-.3.3-1 .5-2 1-3.2 1.8l1.2-3.5.2-.3c1-.4 2-1 3-1.6Zm-9.1 1.3h-.1l1-3.2c0-.1 0-.3.3-.3l3.1-1.9-1 3.5c-.2 0-.2.3-.3.2l-3 1.7Zm7-13.8c-.5 1.3-.8 2.5-1.3 3.5 0 0 0 .2-.2.3l-3.1 1.8 1-3.5c.2 0 .3-.2.3-.2l3.2-2Zm-10 32.8v-.1l.9-3.2c.1-.1.1-.3.2-.2l3-1.7c-.3 1.1-.5 2.2-1 3.3l-.2.2-2.9 1.7Zm5.5-17h-.1l1-3.3s.2 0 .3-.2l3-1.7-.9 3.2c0 .1 0 .3-.2.2l-3.1 1.9ZM621 99l-1 3.3-.2.3-3 1.7c.3-1.2.5-2.3 1-3.4 0 0 0-.3.2-.2l3-1.7Zm-5.5 16.9h.2l-1 3.2-.2.4-3 1.8c.3-1.2.5-2.3.9-3.4l.2-.2c1-.8 2-1.3 3-1.8Zm11.8-24.5-.1-.1c.3-1 .6-2.2 1-3.1 0-.2 0-.4.3-.4l2.9-1.6c-.3 1.2-.5 2.3-1 3.4l-.2.2-3 1.6Zm-4 12.7-.2-.2c.5-1 .7-2.1 1.1-3.2l.1-.1 3.2-1.9-.9 3.3c-.1.1-.1.3-.2.2l-3.1 1.9Zm-8 4.4c.5-1.3 1-2.4 1.1-3.5l.3-.2 3-1.7-.9 3.2c-.1.1-.1.4-.3.4-1 .7-2 1.3-3.2 1.8Zm14.8-18.2.1.1-1 3.3h-.2l-3 1.8.8-3.2c.2-.1.2-.4.4-.4l2.9-1.6Zm-7.8 4.4h.1l-1 3.2c0 .1 0 .3-.2.4l-3 1.8c.3-1.2.5-2.3 1-3.4l.2-.2 2.9-1.8Zm-19.7 42.5c-.4 1.3-.7 2.5-1.2 3.6l-.2.2-3.1 1.8 1-3.4.3-.3c1-.8 2-1.4 3.2-2Zm14.4-25.6v.1c-.3 1-.5 2.1-1 3.2l-.1.4-3 1.8c.3-1.2.5-2.3 1-3.4l.1-.2c1-.8 2-1.3 3-1.9Zm-2.4-12.5s.1.1 0 0c-.2 1-.5 2.3-1 3.4 0 0 0 .2-.2.2l-3 1.7c.3-1.2.5-2.3 1-3.3 0-.2.2-.3.2-.3l3-1.7Zm8.7-5.4 1-3.5c.2 0 .2-.3.3-.2l3-1.7c-.3 1.2-.5 2.2-1 3.3l-.2.2-3.1 1.9Zm-1.1 11.4v.1l-1 3.2-.1.4-3.2 1.9c.5-1.3 1-2.4 1.1-3.5l.2-.2 3-1.9Zm-17 16.2-.2-.1c.5-1.1.7-2.2 1.1-3.3.1 0 .1-.3.3-.2l3-1.8-1 3.4-.2.3-3 1.7Zm-10.8 13.1.3-1.2c.4-1.8 1.3-3.2 3.2-3.8.3 0 .5-.3 1-.5l-1.1 3.2-.2.5c-1 .5-2 1-3.2 1.8Zm13.4-21.5-.1-.2 1-3.2.3-.2 3.1-1.9c-.4 1.3-.8 2.3-1 3.5-.2.1 0 .2-.3.2l-3 1.8Zm3.7 15.6.1.1-1 3.2s0 .3-.2.4l-3 1.7c.3-1.2.5-2.2 1-3.3l.2-.2c.9-.7 2-1.3 3-1.9Zm1.7-32.5v-.1l1-3.3c.1 0 .1-.3.2-.2l3.2-1.8-1.1 3.4c-.1.1-.1.3-.4.3l-2.9 1.7Zm1 34.6c-.4 1.3-.8 2.2-1 3.2-.2.1-.2.3-.3.4l-3.1 1.9c.4-1.3.8-2.4 1-3.5 0 0 .2 0 .3-.2.8-.6 2-1.3 3.1-1.8Zm-11.8-.8.9-3.2c.1-.1.1-.3.3-.3l3.2-1.9-1.2 3.6-.2.2-3 1.6Zm11.4 3.8-.1-.1 1-3.2s0-.2.2-.2l3.1-1.8c-.3 1.2-.5 2.3-1 3.3 0 .1 0 .4-.3.4l-3 1.6Zm14.9-46.4-.1-.1 1-3.2s0-.3.2-.2l3-1.7c-.3 1.2-.5 2.2-1 3.3l-.2.2-2.9 1.7Zm-9.1 8.6h-.1l1-3.3c.2-.1 0-.2.3-.2l3.1-1.9-1 3.4s0 .3-.3.3c-1 .7-2 1.2-3 1.7Zm6.6 7c-.2.7-.5 1.1-.5 1.6a4 4 0 0 1-2.6 3.2l-1.3.7 1-3.4.2-.2c1-.5 2-1 3.2-1.8Zm-5.7 9.8v-.1l1-3.3.2-.2 3.2-1.8-1.1 3.4-.2.3c-1 .5-2 1-3 1.7Zm-5 13.6-1 3.5c-.2.1-.2.3-.3.2l-3.1 1.9 1-3.5c.2-.1 0-.2.3-.2l3.1-1.9Zm1-1h-.1l1-3.2s0-.3.3-.3l3.1-1.9-1 3.5c-.2.1-.2.3-.3.2l-3 1.8Zm-6 7.4-1.2 3.5-.2.2-3 1.7c.3-1.1.5-2.2 1-3.3l.2-.2c1-.6 2-1.1 3.1-1.9ZM622 98l.8-2.6c.1-.8.6-1.2 1.3-1.5.8-.3 1.5-.9 2.4-1.3l-1 3.3c0 .1 0 .4-.3.4-1 .5-2 1.2-3.2 1.7Zm2.7-8.3 1-3.5c.2-.1 0-.2.3-.2l3-1.8c-.3 1.2-.5 2.3-1 3.4l-.3.3-3 1.8Zm.4-3.3.1.1c-.2.7-.5 1.4-.6 2.2-.2.9-.7 1.5-1.5 2l-2 1 1-3.3c.1-.1.1-.4.2-.2.9-.7 1.8-1.2 2.8-1.8Zm-24 47.8-.1-.2 1-3c0-.2 0-.4.3-.4l3.2-1.9c-.5 1.3-1 2.4-1.2 3.6l-.3.2-2.9 1.7Zm18.1-17.3h-.1l1-3.3.3-.2 3.1-1.9-1 3.5-.3.2c-1 .5-2 1-3 1.7Zm-2.5-2v-.1l1-3.3.2-.2 3-1.7c-.2 1-.5 2.2-1 3.3l-.2.3-3 1.7Zm1.8 3-1.1 3.5-.3.2-3.1 1.8 1-3.3c0-.1.1-.4.2-.2 1-.8 2-1.3 3.3-2Zm-5.5 6.5.1.1c-.3 1-.6 2.2-1 3.1 0 .2 0 .4-.3.4l-3 1.7c.3-1.2.5-2.3 1-3.3 0-.2 0-.2.2-.3l3-1.7Zm4-2.2v.1l-1 3.2s0 .3-.2.4l-3.1 1.9c.4-1.3.8-2.3 1-3.5.2-.1.2-.3.3-.2.9-.7 1.8-1.2 3-1.9Zm-1.6-3.2v-.1c.1-.7.5-1.4.6-2.2.2-.9.6-1.5 1.5-2l2-1c-.3 1-.6 2.3-1 3.2 0 .1 0 .3-.3.4l-2.8 1.7Zm4-12.7 1-3.3.3-.2 3-1.8-1 3.4-.2.2-3 1.7Zm-5 13.8c-.3 1-.5 2.1-1 3.2 0 .1 0 .3-.2.4l-3 1.8 1-3.4.2-.2 3-1.8Zm3.5 1-.1-.2.8-2.5c.2-.6.5-1.2 1.3-1.5l2.4-1.4-1 3.4s0 .3-.3.3l-3.1 1.8Zm-49.3 42.5.1.2-1 2.9s0 .3-.2.4l-3.2 2 1-3.3c.2 0 .2-.3.4-.3.8-.7 2-1.3 3-1.9Zm-.3 3.2c0-.6.3-.8.3-1.2.2-1.7 1.2-3 3-3.6l1.2-.6-1 3.1v.3c-1.3.6-2.3 1.2-3.5 2Zm3.9-2.4c.3-1 .6-1.7.7-2.5.3-.6.6-1.2 1.2-1.4l2.5-1.4-1 3.1-.2.2c-1 .8-2 1.4-3.2 2Zm8.4-7.6c-.3 1.2-.6 2.2-1 3.1l-.2.3-3.1 1.8 1-3.2.4-.4c.8-.3 1.7-.8 3-1.6Zm3.7-2.2c.1.1.1.1 0 0-.2 1.1-.5 2-.9 3 0 .2 0 .4-.3.4l-3.1 1.8 1-3.1.2-.2 3.1-1.9Zm-.3 3c0-.4 0-.6.2-1 .2-1.9 1.3-3.2 3.1-3.7.4-.1.6-.3 1.1-.7l-1 3s0 .3-.2.4l-3.2 2ZM633.7 81c.4-1.3.7-2.5 1.2-3.6l.2-.2c.9-.4 1.7-1 2.6-1.5-.2 1.3-.7 2.4-1 3.6l-.2.2-2.8 1.5Zm-41.5 69c-.3 1.3-.6 2-1 3 0 .1 0 .3-.3.3l-3.1 1.9c.4-1.1.6-2.2.8-3 .1-.2.1-.4.4-.4 1.2-.5 2.1-1 3.2-1.7Zm4-2.2a23 23 0 0 1-1 3l-.3.2-3.1 1.9c.4-1 .6-2.2.8-3l.4-.4 3.2-1.7Zm-.5 3c.4-1.2.5-2.1 1-3 0-.1 0-.3.3-.3l3.1-1.9c-.4 1.1-.8 2-1 3l-.3.3-3.1 1.8ZM636.2 80v.1l-1 3.2-.1.2c-.9.4-1.8 1-2.7 1.6l1-3.4c.2-.2.2-.4.4-.4a13 13 0 0 0 2.4-1.3Zm-1.3 4.1c0 .1 0 .1 0 0l-1 3.4-.2.2c-1 .4-1.8 1-2.7 1.6l1-3.4c.2-.1.2-.4.4-.4.8-.4 1.7-.8 2.5-1.4Zm-31.1 59.4c0 .2-.1.3 0 .4l-.6 1.8c-.2.7-.5 1-1 1.3l-2.6 1.5.8-2.8c.1 0 .1-.3.5-.4l2.9-1.8Zm31.8-69.6-1 2.9s0 .3-.3.3c-1 .6-2 1-3 1.7.2-1 .4-1.9.8-2.9l.2-.2 3.3-1.8Zm-2 14.6-1 3.3c-.1.1-.1.3-.2.2l-2.8 1.7 1.1-3.5.4-.3c.7-.6 1.6-1 2.5-1.4Zm-6.2-7.5 1-2.9.2-.2 3.1-1.9-.8 2.8-.2.5a31 31 0 0 0-3.3 1.7Zm4.7 11.7h.1l-1 3.3-.3.3-2.7 1.6 1.1-3.5.3-.3 2.5-1.4Zm-5 9.3c0-.1 0-.1 0 0l1-3.3s0-.3.2-.3c.9-.4 1.7-1 2.7-1.6l-1 3.5c-.2 0-.3.2-.3.2l-2.6 1.5Zm-19.3 39.2-.9 2.8c0 .1 0 .3-.2.4l-3.2 2 1-3s0-.3.3-.3c.7-.7 1.7-1.3 3-2Zm21.8-40.2-1.2 3.6-.2.2c-.9.4-1.6 1-2.6 1.5l1.1-3.4.2-.3 2.7-1.6Zm-6-17.8.9-3 .2-.1 3.3-2-1 2.8c0 .1 0 .3-.2.3-1.1.9-2.1 1.4-3.3 2Zm.1-2.6.1.1-.8 2.6-.2.2-3 1.8c0-1 .4-2 .7-2.8l.3-.3c1-.6 2-1.2 3-1.6Zm-16.4 63.3.8-2.8.1-.4 3.3-2-.9 2.9c-.1.1-.1.3-.3.3-.9.9-1.9 1.4-3 2Zm17.1-33.6.9-3.2c.1-.1.1-.3.2-.2l2.6-1.6c-.4 1.3-.8 2.3-1 3.5l-.4.3-2.3 1.2Zm-9 26.4-.7 2.5c0 .2 0 .6-.2.7l-3.2 2 .8-2.9c.1-.1.1-.3.4-.3.8-.7 1.9-1.3 3-2Zm11.4-27.2c-.4 1.3-.8 2.2-1 3.4-.2.1 0 .2-.3.2l-2.7 1.7 1-3.4c0-.1 0-.3.3-.3l2.7-1.6Zm-10.5-24.7-.8 2.5c0 .2-.1.6-.3.6l-3.2 1.8c.1-1 .5-1.7.7-2.6l.4-.4 3.2-1.9Zm3.9-2.1-1 2.8-.1.2-3.2 1.8c.5-1 .7-2 1-2.9l.3-.3 3-1.6Zm-.3 48c-.3 1.3-.5 2.3-1 3.4l-.3.3c-.7.6-1.5 1-2.5 1.5l1.2-3.6.3-.2 2.3-1.3Zm1.9-12s-.2 0 0 0c.2-1 .5-2.2 1-3.3l.2-.2c.9-.4 1.6-1 2.7-1.6-.4 1.3-.8 2.2-1 3.2 0 .2-.3.4-.5.4-.9.7-1.6 1.2-2.4 1.6Zm2.4-.8L623 121l-.2.5c-.9.4-1.6 1-2.6 1.5l1-3.5c.2 0 .3-.2.3-.2l2.6-1.5Zm-16-26 .8-2.8.2-.3 3.2-1.8-1 2.6c0 .2-.1.4-.3.4l-3 1.9Zm10.7 35.4 1-3.5c.2 0 .2-.3.3-.2l2.6-1.5-1.1 3.5-.4.3-2.4 1.4Zm-10.3-38-.2.8c-.3 1.6-1.1 2.6-2.5 3.2l-1.6.9c.4-1 .6-1.9 1-2.6l.1-.3c.9-.8 2-1.3 3.2-2Zm9 42.3 1-3.3c0-.1 0-.3.1-.2l2.6-1.6-1 3.5c-.1.1-.1.3-.5.4-.6.3-1.4.6-2.2 1.2Zm-17.3-35.4.8-2.5.2-.4 3.3-2-.9 2.6-.3.4c-.9.8-1.9 1.4-3 2Zm-3.6 2.2-.1-.1.8-2.4.3-.3 3.2-1.9-.9 2.6-.3.4-3 1.7Zm.2-2.4-.9 2.6c-.1.1-.1.3-.3.3l-3.2 1.9.8-2.3.2-.4c1.1-.9 2.2-1.5 3.4-2ZM639 71.8l-1 3-.2.1c-.9.5-1.7 1.1-3 1.7a23 23 0 0 1 1-3c.2 0 .3-.2.4-.3 1-.4 1.8-1 2.8-1.5Zm-76.5 94.8 1.2-3.6c.2 0 .2-.3.4-.3l2.3-1.3-1.1 3.6c-.2 0-.3.2-.4.3l-2.4 1.3ZM593 98.2l-.8 2.5s0 .3-.3.3c-1 .5-2 1-3.1 1.8l.8-2.6.2-.2 3.2-1.8Zm-8.1 6.8.7-2.5c.1 0 .1-.3.3-.3l3.2-1.8-.9 2.6-.2.2-3.1 1.8Zm-19.5 53 .8-2.7c.4-1.6 1.8-1.7 2.8-2.2l-1 3.3c-.1.1-.1.3-.4.3l-2.2 1.2Zm2.1-.7h.1l-1 3.3c-.1.1-.1.4-.4.4l-2.3 1.3c.4-1.3.8-2.4 1-3.5l.3-.2 2.3-1.3Zm1-8c-.2-.1-.2-.1 0 0 .3-1.2.5-2.3 1-3.4l.1-.2 2-1.2c-.2 1.2-.5 2.3-.9 3.4l-.3.3-2 1Zm-1.7 4.4.9-2.8c.3-1.4 1.7-1.5 2.6-2.2l-1 3.2-.2.4-2.3 1.4Zm2.8-8.6 1.1-3.5c.1-.1 0-.2.2-.2l2.2-1.3-1 3.3-.3.4-2.2 1.3Zm1.5-4.4 1-3.3.2-.2 2.2-1.3-1 3.4-.4.3-2 1.1Zm-6.2 25-1 3.3c-.2 0-.2.3-.3.2-.7.5-1.5.8-2.4 1.3l1.1-3.3c0-.2.1-.3.5-.4l2.1-1Zm11-34.3c-.4 1.3-.7 2.5-1.2 3.6l-.2.2-2.2 1.3 1.1-3.5c.1 0 .1-.3.4-.3.6-.4 1.3-.6 2.1-1.3Zm-2.1.9c.4-1.3.7-2.5 1.2-3.6l.2-.2 2.1-1.3c-.4 1.3-.7 2.5-1.2 3.6l-.2.2c-.6.4-1.4.7-2.1 1.3Zm1.5-4.3-.1-.1 1-3.3.3-.2 2.2-1.3c-.5 1.3-1 2.4-1.1 3.4l-.4.4-2 1Zm9-22.1-1 2.8c-.3 1.4-1.5 1.5-2.6 2.2l1-3.4c.1-.1.1-.3.3-.3.8-.6 1.3-.9 2.2-1.3Zm-4.3 12.9c-.5 1.3-1 2.3-1.1 3.4l-.2.2-2.1 1.2 1-3.3.2-.2a19 19 0 0 1 2.2-1.3Zm-2.1.7c.3-1 .8-1.8.8-2.7.3-1.4 1.5-1.5 2.6-2.2l-1 3.2-.2.4-2.2 1.3Zm1.6-4.4v-.1l1-3.3.2-.2c.7-.4 1.4-.7 2.2-1.3-.4 1.3-.8 2.3-1 3.5-.2 0-.2.3-.4.3l-2 1Zm35.4 24.3.8-2.2c.1-.4.1-.6.3-.8l2.5-1.4c0 1-.5 1.8-.7 2.7-.2.1 0 .2-.3.2-.7.6-1.6 1-2.6 1.5ZM582 106.5c.4-.7.6-1.6.8-2.2l.2-.3 2-1.1c-.1 1.7-.9 3-3 3.6Z"/><path fill="#5C5F63" fill-rule="evenodd" d="M478.3 170.8c2-.2 3.4.3 4.4 1.2 1 1 1.4 2.5 1.2 4.4 0 2-.8 4.3-2 7a64 64 0 0 1-12.8 17.4 64 64 0 0 1-17.4 12.8c-2.7 1.2-5 2-7 2-2 .2-3.4-.3-4.4-1.2-1-1-1.4-2.4-1.2-4.4.1-2 .8-4.3 2-7a64 64 0 0 1 12.8-17.4 64 64 0 0 1 17.4-12.8c2.7-1.2 5-1.9 7-2Zm-7.4 1a65 65 0 0 0-17.8 13 65 65 0 0 0-13 17.8c-1.2 2.7-2 5.2-2.1 7.3-.2 2.2.3 4 1.5 5.3 1.3 1.2 3.1 1.7 5.3 1.5 2.1-.1 4.6-.8 7.3-2.1a65 65 0 0 0 17.8-13 65 65 0 0 0 13-17.8c1.2-2.7 2-5.2 2.1-7.3.2-2.2-.3-4-1.5-5.2-1.3-1.3-3.1-1.8-5.3-1.6-2.1.1-4.6.9-7.3 2.1Z" clip-rule="evenodd"/><path fill="#5C5F63" fill-rule="evenodd" d="M479.2 174.5c2-.5 3.7-.5 5-.2l.3-1a11 11 0 0 0-5.5.1c-2.1.6-4.4 1.5-6.9 2.8-4.9 2.6-10.4 6.8-15.6 12a68.4 68.4 0 0 0-11.9 15.5 31 31 0 0 0-2.8 6.8c-.5 2-.6 4-.2 5.5l1-.3c-.3-1.3-.2-3 .3-5a30 30 0 0 1 2.7-6.5 67.4 67.4 0 0 1 11.6-15.2 67.9 67.9 0 0 1 15.4-11.8c2.4-1.3 4.7-2.2 6.6-2.7Z" clip-rule="evenodd"/><path fill="#394149" d="M457.3 188.8c10-10 21-15.8 27-14.9 1 5.9-4.8 16.9-15 27-10 10-21 15.8-26.9 14.8-1-5.8 4.8-16.8 14.9-27Z"/><path fill="#5C5F63" fill-rule="evenodd" d="M472.3 177.2a68 68 0 0 0-15 11.5c-5 5-9 10.4-11.7 15.1-2.6 4.8-3.8 9-3.2 12 3 .5 7.2-.7 12-3.3 4.7-2.6 10-6.5 15-11.6 5-5 9-10.3 11.6-15 2.6-4.8 3.9-9 3.3-12-3-.5-7.3.7-12 3.3Zm11.9-3.2c.5 2.9-.7 7-3.3 11.8-2.6 4.7-6.5 10-11.6 15-5 5-10.3 9-15 11.6-4.7 2.6-8.9 3.8-11.8 3.3-.5-2.9.7-7 3.2-11.8 2.6-4.8 6.6-10 11.6-15 5-5.1 10.3-9 15-11.6 4.8-2.6 9-3.8 11.9-3.3Z" clip-rule="evenodd"/><path fill="#5C5F63" d="M451.6 183.3a15 15 0 0 1 21.2 0l5 4.9s-6.5 15.7-21.3 21.2l-5-5a15.1 15.1 0 0 1 0-21.1Z"/><defs><linearGradient id="b" x1="514.8" x2="1081.2" y1="268.2" y2="595.3" gradientUnits="userSpaceOnUse"><stop stop-color="#5C5F63"/><stop offset="1" stop-color="#5C5F63" stop-opacity="0"/></linearGradient><clipPath id="a"><path fill="#fff" d="M1270 268H421v655h849z"/></clipPath></defs></svg>