<svg width="1232" height="1212" viewBox="0 0 1232 1212" fill="none" xmlns="http://www.w3.org/2000/svg">
<path d="M1430.72 947.131C1586.99 800.904 1780.54 594.173 1623.48 426.323C1466.42 258.472 1018.24 193.063 861.965 339.29C705.688 485.517 706.319 740.127 863.375 907.978C1020.43 1075.83 1274.44 1093.36 1430.72 947.131Z" stroke="#313D49" stroke-width="2" stroke-linecap="round" stroke-linejoin="round" stroke-dasharray="9 9"/>
<g clip-path="url(#clip0_2332_11230)">
<path opacity="0.2" d="M809.5 415.26L-0.083773 415.019L404.916 1116.5L809.5 415.26Z" fill="url(#paint0_linear_2332_11230)"/>
</g>
<g clip-path="url(#clip1_2332_11230)">
<g opacity="0.2" clip-path="url(#clip2_2332_11230)">
<circle cx="759.229" cy="441.231" r="59.7457" transform="rotate(-6.15694 759.229 441.231)" fill="#5C5F63"/>
<circle cx="759.231" cy="441.23" r="115.508" transform="rotate(-6.15694 759.231 441.23)" fill="#5C5F63" fill-opacity="0.2"/>
<circle cx="759.229" cy="441.229" r="87.9243" transform="rotate(-6.15694 759.229 441.229)" fill="#5C5F63" fill-opacity="0.4"/>
</g>
<mask id="mask0_2332_11230" style="mask-type:alpha" maskUnits="userSpaceOnUse" x="504" y="193" width="450" height="450">
<rect x="504" y="449.999" width="363.451" height="271.873" transform="rotate(-45 504 449.999)" fill="#C4C4C4"/>
</mask>
<g mask="url(#mask0_2332_11230)">
<path d="M836.771 449.155L858.265 456.758L877.617 445.026L855.699 430.228L853.464 415.143L844.797 412.553L842.988 402.931L841.254 402.933L839.522 401.375L836.598 383.169L820.822 379.375L758.264 409.372L755.491 408.682L754.628 405.041L743.796 399.94L741.379 391.965L731.067 387.21L711.893 395.646L725.065 401.525L658.604 432.481L666.55 456.923L659.002 459.794L671.703 494.375L692.215 523.222L700.544 519.569L711.45 534.469L714.402 531.517L751.198 508.231L748.526 496.008L753.721 501.377L779.06 486.256L783.131 489.633L786.953 485.119L786.178 480.524L792.86 476.96L793.636 480.167L804.484 473.13L817.499 466.176L816.38 460.021L833.627 466.155L833.287 461.299L838.58 458.431L836.771 449.155Z" fill="#252E36"/>
<path fill-rule="evenodd" clip-rule="evenodd" d="M658.308 432.352L724.482 401.529L711.295 395.644L731.069 386.944L741.579 391.791L743.997 399.766L754.837 404.871L755.692 408.482L758.239 409.116L820.795 379.119L836.811 382.971L839.747 401.251L841.347 402.69L843.189 402.688L845.007 412.363L853.681 414.955L855.923 430.086L878.066 445.036L858.292 457.023L837.09 449.524L838.851 458.558L833.539 461.437L833.895 466.506L816.693 460.389L817.769 466.305L804.606 473.338L793.481 480.556L792.698 477.32L786.446 480.655L787.21 485.188L783.161 489.971L779.037 486.551L753.68 501.683L748.944 496.788L751.47 508.343L714.554 531.707L711.421 534.839L700.463 519.868L692.132 523.522L671.487 494.488L658.692 459.653L666.248 456.778L658.308 432.352ZM658.901 432.609L666.851 457.066L659.312 459.934L671.919 494.26L692.299 522.921L700.625 519.269L711.479 534.098L714.25 531.327L750.925 508.116L748.107 495.226L753.762 501.071L779.084 485.96L783.102 489.293L786.695 485.048L785.91 480.392L793.021 476.599L793.791 479.778L804.361 472.921L817.23 466.045L816.067 459.652L833.36 465.802L833.035 461.161L838.308 458.303L836.452 448.785L858.238 456.491L877.168 445.015L855.475 430.368L853.247 415.331L844.586 412.743L842.787 403.173L841.161 403.175L839.297 401.497L836.384 383.367L820.848 379.63L758.29 409.627L755.289 408.881L754.42 405.21L743.596 400.112L741.179 392.139L731.064 387.475L712.49 395.647L725.648 401.52L658.901 432.609Z" fill="#5C5F63"/>
<path fill-rule="evenodd" clip-rule="evenodd" d="M659.676 432.782L697.565 415.6L724.181 429.103L683.447 449.29L659.676 432.782ZM660.653 432.87L683.489 448.73L723.101 429.098L697.552 416.137L660.653 432.87Z" fill="#5C5F63"/>
<path fill-rule="evenodd" clip-rule="evenodd" d="M698.566 415.344L731.124 399.694L761.483 410.546L725.29 428.414L698.566 415.344ZM699.675 415.347L725.29 427.875L760.245 410.618L731.15 400.218L699.675 415.347Z" fill="#5C5F63"/>
<path d="M683.469 449.01L693.661 478.825L731.407 458.399L723.641 429.101L683.469 449.01Z" fill="#394149"/>
<path fill-rule="evenodd" clip-rule="evenodd" d="M683.171 448.887L723.8 428.752L731.69 458.519L693.525 479.173L683.171 448.887ZM683.766 449.131L693.798 478.475L731.124 458.276L723.483 429.448L683.766 449.131Z" fill="#5C5F63"/>
<path d="M725.29 428.144L733.663 457.008L767.503 439.448L760.864 410.582L725.29 428.144Z" fill="#394149"/>
<path fill-rule="evenodd" clip-rule="evenodd" d="M725.001 428.018L761.032 410.23L767.781 439.576L733.513 457.358L725.001 428.018ZM725.579 428.272L733.814 456.658L767.225 439.32L760.697 410.935L725.579 428.272Z" fill="#5C5F63"/>
<path d="M763.455 418.73L768.197 439.274L808.372 418.15L804.669 398.645L763.455 418.73Z" fill="#394149"/>
<path fill-rule="evenodd" clip-rule="evenodd" d="M763.175 418.597L804.847 398.29L808.642 418.281L768.031 439.634L763.175 418.597ZM763.734 418.863L768.362 438.914L808.1 418.02L804.489 399.002L763.734 418.863Z" fill="#5C5F63"/>
<path d="M805.71 398.124L809.586 417.629L839.522 401.375L836.598 383.169L805.71 398.124Z" fill="#394149"/>
<path fill-rule="evenodd" clip-rule="evenodd" d="M805.436 397.988L836.785 382.81L839.788 401.505L809.412 417.997L805.436 397.988ZM805.983 398.26L809.759 417.259L839.256 401.244L836.41 383.528L805.983 398.26Z" fill="#5C5F63"/>
<path d="M674.878 453.443L696.085 481.249L842.12 403.799L839.522 401.375L695.136 478.042L674.878 453.443Z" fill="#394149"/>
<path fill-rule="evenodd" clip-rule="evenodd" d="M674.686 453.591L675.065 453.289L695.198 477.736L839.561 401.08L842.534 403.853L696.017 481.559L674.686 453.591ZM696.154 480.94L841.707 403.745L839.483 401.669L695.074 478.349L682.94 463.613L696.154 480.94Z" fill="#5C5F63"/>
<path d="M709.483 513.401L700.591 484.191L738.597 463.678L747.49 492.02L709.483 513.401Z" fill="#394149"/>
<path fill-rule="evenodd" clip-rule="evenodd" d="M700.301 484.073L738.74 463.326L747.78 492.135L709.339 513.76L700.301 484.073ZM700.88 484.31L709.627 513.043L747.201 491.906L738.453 464.03L700.88 484.31Z" fill="#5C5F63"/>
<path d="M709.309 514.268L747.836 492.539L751.197 508.23L714.402 531.516L709.309 514.268Z" fill="#394149"/>
<path fill-rule="evenodd" clip-rule="evenodd" d="M709.022 514.152L748.004 492.168L751.47 508.344L714.26 531.892L709.022 514.152ZM709.595 514.384L714.543 531.141L750.925 508.116L747.669 492.912L709.595 514.384Z" fill="#5C5F63"/>
<path d="M739.898 463.243L774.693 444.555L782.801 476.627L777.248 479.582L779.06 486.256L753.721 501.377L751.911 493.142L748.525 496.008L739.898 463.243Z" fill="#394149"/>
<path fill-rule="evenodd" clip-rule="evenodd" d="M739.615 463.12L774.851 444.195L783.082 476.751L777.532 479.704L779.342 486.369L753.556 501.757L751.76 493.586L748.389 496.44L739.615 463.12ZM740.18 463.365L748.662 495.575L752.061 492.698L753.885 500.997L778.778 486.143L776.964 479.459L782.52 476.502L774.534 444.914L740.18 463.365Z" fill="#5C5F63"/>
<path d="M775.647 444.119L798.902 431.429L805.453 461.249L782.719 473.591L775.647 444.119Z" fill="#394149"/>
<path fill-rule="evenodd" clip-rule="evenodd" d="M775.369 443.996L799.07 431.062L805.729 461.374L782.557 473.954L775.369 443.996ZM775.926 444.243L782.881 473.228L805.178 461.123L798.735 431.796L775.926 444.243Z" fill="#5C5F63"/>
<path d="M799.596 431.082L836.734 411.263L840.524 430.508L803.993 450.412L799.596 431.082Z" fill="#394149"/>
<path fill-rule="evenodd" clip-rule="evenodd" d="M799.319 430.955L836.909 410.896L840.796 430.635L803.828 450.777L799.319 430.955ZM799.873 431.208L804.158 450.047L840.252 430.38L836.56 411.63L799.873 431.208Z" fill="#5C5F63"/>
<path fill-rule="evenodd" clip-rule="evenodd" d="M802.934 450.719L819.777 441.973L831.095 446.912L833.528 461.27L833.895 466.507L816.338 460.262L805.177 460.189L802.934 450.719ZM803.492 450.974L805.56 459.708L816.424 459.779L833.361 465.802L833.047 461.329L830.661 447.252L819.794 442.509L803.492 450.974Z" fill="#5C5F63"/>
<path fill-rule="evenodd" clip-rule="evenodd" d="M802.934 450.716L815.138 444.647L815.522 449.325L803.996 455.279L802.934 450.716ZM803.492 450.978L804.327 454.564L815.013 449.043L814.714 445.398L803.492 450.978Z" fill="#5C5F63"/>
<path d="M844.796 412.553L846.349 418.968L853.464 415.143L844.796 412.553Z" fill="#394149"/>
<path fill-rule="evenodd" clip-rule="evenodd" d="M844.463 412.2L854.095 415.079L846.188 419.329L844.463 412.2ZM846.511 418.606L852.834 415.207L845.132 412.906L846.511 418.606Z" fill="#5C5F63"/>
<path d="M856.392 430.921L857.509 438.463L844.32 445.764L858.612 457.278L877.617 445.027L856.392 430.921Z" fill="#394149"/>
<path fill-rule="evenodd" clip-rule="evenodd" d="M856.073 430.418L878.059 445.029L858.595 457.576L843.887 445.727L857.245 438.333L856.073 430.418ZM856.711 431.424L857.773 438.593L844.752 445.801L858.628 456.979L877.175 445.024L856.711 431.424Z" fill="#5C5F63"/>
<path d="M792.177 468.464L792.867 471.064L791.479 471.76L792.86 476.96L785.918 480.438L786.436 482.171L780.883 485.127L779.418 478.452L782.802 476.627L782.112 473.853L792.177 468.464Z" fill="#394149"/>
<path fill-rule="evenodd" clip-rule="evenodd" d="M781.831 473.729L792.333 468.106L793.152 471.192L791.764 471.887L793.144 477.088L786.208 480.563L786.725 482.291L780.715 485.49L779.142 478.326L782.521 476.503L781.831 473.729ZM782.392 473.977L783.082 476.75L779.693 478.578L781.051 484.763L786.147 482.051L785.628 480.313L792.575 476.832L791.195 471.631L792.583 470.936L792.021 468.821L782.392 473.977Z" fill="#5C5F63"/>
<path fill-rule="evenodd" clip-rule="evenodd" d="M678.131 450.259L662.623 439.961L662.891 439.557L678.399 449.855L678.131 450.259Z" fill="#5C5F63"/>
<path d="M667.415 457.788L679.251 490.809L700.544 519.569L687.673 482.734L667.415 457.788Z" fill="#394149"/>
<path fill-rule="evenodd" clip-rule="evenodd" d="M666.709 456.533L687.888 482.614L701.3 520.997L679.036 490.925L666.709 456.533ZM679.467 490.694L699.789 518.142L687.458 482.855L668.123 459.044L679.467 490.694Z" fill="#5C5F63"/>
<path fill-rule="evenodd" clip-rule="evenodd" d="M723.126 390.648L733.951 395.093L735.549 401.804L731.15 400.218L726.352 402.579L724.843 401.674L723.126 390.648ZM725.286 401.375L726.376 402.028L731.122 399.693L734.87 401.045L733.537 395.447L723.736 391.422L725.286 401.375Z" fill="#5C5F63"/>
<path d="M733.744 395.271L741.379 391.966L743.796 399.94L738.243 402.548L735.21 401.425" fill="#394149"/>
<path fill-rule="evenodd" clip-rule="evenodd" d="M741.226 392.295L733.84 395.492L733.648 395.048L741.532 391.635L744.089 400.069L738.254 402.81L735.125 401.652L735.295 401.198L738.233 402.286L743.504 399.81L741.226 392.295Z" fill="#5C5F63"/>
<path fill-rule="evenodd" clip-rule="evenodd" d="M760.105 373.289L762.826 372.658L770.263 403.347L766.939 404.66L760.105 373.289ZM760.68 373.652L767.291 404.001L769.693 403.052L762.469 373.237L760.68 373.652Z" fill="#5C5F63"/>
<path fill-rule="evenodd" clip-rule="evenodd" d="M799.213 376.234L801.625 388.37L801.15 388.466L798.738 376.33L799.213 376.234Z" fill="#5C5F63"/>
<path d="M780.406 353.068C778.226 344.894 772.851 339.238 768.401 340.436C763.951 341.634 762.111 349.231 764.292 357.405C766.472 365.579 771.846 371.235 776.296 370.037C780.746 368.839 782.586 361.242 780.406 353.068Z" fill="#394149"/>
<path fill-rule="evenodd" clip-rule="evenodd" d="M769.618 367.068C771.765 369.328 774.135 370.368 776.234 369.803C778.333 369.238 779.867 367.147 780.602 364.112C781.334 361.088 781.254 357.187 780.172 353.131C779.09 349.075 777.218 345.656 775.079 343.404C772.932 341.145 770.562 340.105 768.463 340.67C766.364 341.235 764.83 343.326 764.095 346.361C763.363 349.385 763.443 353.286 764.525 357.342C765.607 361.398 767.479 364.817 769.618 367.068ZM769.267 367.402C767.062 365.082 765.156 361.586 764.058 357.468C762.959 353.35 762.87 349.365 763.625 346.248C764.377 343.141 765.988 340.835 768.339 340.202C770.69 339.569 773.232 340.758 775.43 343.071C777.635 345.391 779.541 348.887 780.64 353.005C781.738 357.123 781.827 361.108 781.072 364.225C780.32 367.332 778.709 369.638 776.358 370.271C774.007 370.903 771.465 369.715 769.267 367.402Z" fill="#5C5F63"/>
<path d="M781.404 350.641C781.092 349.746 780.475 349.149 780.028 349.307C779.58 349.464 779.471 350.317 779.783 351.211C780.096 352.105 780.712 352.703 781.16 352.545C781.607 352.388 781.717 351.535 781.404 350.641Z" fill="#5C5F63"/>
<path d="M660.965 417.824L759.266 373.212L758.402 370.612L754.15 372.786L748.168 372.013L747.393 367.939L746.446 362.997L681.26 348.169L679.621 341.148L596.164 373.86L598.149 380.881L660.965 417.824Z" fill="#394149"/>
<path fill-rule="evenodd" clip-rule="evenodd" d="M595.871 373.715L679.794 340.82L681.461 347.966L746.654 362.796L747.631 367.892L748.374 371.795L754.108 372.536L758.543 370.268L759.564 373.342L660.95 418.096L597.942 381.041L595.871 373.715ZM596.457 374.005L598.356 380.721L660.98 417.551L758.968 373.082L758.261 370.956L754.193 373.035L747.964 372.23L747.156 367.985L746.238 363.198L681.059 348.371L679.449 341.475L596.457 374.005Z" fill="#5C5F63"/>
<path d="M660.965 417.823L657.856 407.769L747.393 367.938L748.168 372.013L754.15 372.785L758.662 370.698L759.266 373.212L660.965 417.823Z" fill="#252E36"/>
<path fill-rule="evenodd" clip-rule="evenodd" d="M657.562 407.636L747.574 367.594L748.373 371.796L754.113 372.537L758.829 370.355L759.548 373.35L660.814 418.158L657.562 407.636ZM658.151 407.903L661.115 417.49L758.984 373.075L758.495 371.042L754.188 373.035L747.963 372.231L747.212 368.284L658.151 407.903Z" fill="#5C5F63"/>
<path fill-rule="evenodd" clip-rule="evenodd" d="M688.457 350.119L603.35 384.135L603.171 383.685L688.278 349.67L688.457 350.119Z" fill="#5C5F63"/>
<path fill-rule="evenodd" clip-rule="evenodd" d="M696.088 351.668L609.505 387.679L609.32 387.233L695.904 351.221L696.088 351.668Z" fill="#5C5F63"/>
<path fill-rule="evenodd" clip-rule="evenodd" d="M702.504 353.22L614.098 390.361L613.911 389.915L702.318 352.774L702.504 353.22Z" fill="#5C5F63"/>
<path fill-rule="evenodd" clip-rule="evenodd" d="M712.558 355.461L620.248 394.082L620.063 393.635L712.373 355.015L712.558 355.461Z" fill="#5C5F63"/>
<path fill-rule="evenodd" clip-rule="evenodd" d="M722.702 358.482L628.222 398.753L628.033 398.308L722.513 358.037L722.702 358.482Z" fill="#5C5F63"/>
<path fill-rule="evenodd" clip-rule="evenodd" d="M733.538 360.289L634.633 402.56L634.444 402.115L733.349 359.844L733.538 360.289Z" fill="#5C5F63"/>
<path fill-rule="evenodd" clip-rule="evenodd" d="M743.856 362.616L642.173 406.971L641.981 406.528L743.663 362.172L743.856 362.616Z" fill="#5C5F63"/>
<path fill-rule="evenodd" clip-rule="evenodd" d="M658.376 409.642L651.262 412.426L651.087 411.975L658.2 409.191L658.376 409.642Z" fill="#5C5F63"/>
<path fill-rule="evenodd" clip-rule="evenodd" d="M698.725 476.035L688.533 446.394L688.99 446.235L699.183 475.877L698.725 476.035Z" fill="#5C5F63"/>
<path fill-rule="evenodd" clip-rule="evenodd" d="M706.88 471.683L697.468 441.954L697.929 441.807L707.342 471.536L706.88 471.683Z" fill="#5C5F63"/>
<path fill-rule="evenodd" clip-rule="evenodd" d="M714.514 467.681L705.622 437.951L706.086 437.811L714.978 467.541L714.514 467.681Z" fill="#5C5F63"/>
<path fill-rule="evenodd" clip-rule="evenodd" d="M722.585 463.077L713.606 433.954L714.068 433.811L723.048 462.933L722.585 463.077Z" fill="#5C5F63"/>
<path fill-rule="evenodd" clip-rule="evenodd" d="M724.61 432.959L684.611 452.521L684.4 452.086L724.398 432.524L724.61 432.959Z" fill="#5C5F63"/>
<path fill-rule="evenodd" clip-rule="evenodd" d="M726.857 441.278L687.637 461.273L687.419 460.842L726.638 440.847L726.857 441.278Z" fill="#5C5F63"/>
<path fill-rule="evenodd" clip-rule="evenodd" d="M729.186 449.859L690.487 469.506L690.269 469.075L728.967 449.428L729.186 449.859Z" fill="#5C5F63"/>
<path fill-rule="evenodd" clip-rule="evenodd" d="M737.508 454.903L729.135 426.213L729.6 426.076L737.973 454.766L737.508 454.903Z" fill="#5C5F63"/>
<path fill-rule="evenodd" clip-rule="evenodd" d="M744.71 451.687L736.077 422.911L736.541 422.77L745.174 451.547L744.71 451.687Z" fill="#5C5F63"/>
<path fill-rule="evenodd" clip-rule="evenodd" d="M752.52 447.167L744.147 418.824L744.611 418.686L752.984 447.029L752.52 447.167Z" fill="#5C5F63"/>
<path fill-rule="evenodd" clip-rule="evenodd" d="M753.375 414.603L761.141 442.86L760.675 442.99L752.908 414.732L753.375 414.603Z" fill="#5C5F63"/>
<path fill-rule="evenodd" clip-rule="evenodd" d="M761.918 414.874L726.431 432.003L726.221 431.567L761.708 414.438L761.918 414.874Z" fill="#5C5F63"/>
<path fill-rule="evenodd" clip-rule="evenodd" d="M763.817 423.021L728.85 440.322L728.636 439.889L763.603 422.587L763.817 423.021Z" fill="#5C5F63"/>
<path fill-rule="evenodd" clip-rule="evenodd" d="M765.46 430.388L731.186 448.382L730.962 447.954L765.236 429.96L765.46 430.388Z" fill="#5C5F63"/>
<path fill-rule="evenodd" clip-rule="evenodd" d="M805.293 401.809L764.426 422.413L764.209 421.981L805.076 401.377L805.293 401.809Z" fill="#5C5F63"/>
<path fill-rule="evenodd" clip-rule="evenodd" d="M806.673 408.916L765.718 430.127L765.497 429.698L806.452 408.487L806.673 408.916Z" fill="#5C5F63"/>
<path fill-rule="evenodd" clip-rule="evenodd" d="M774.208 436.027L769.465 416.177L769.936 416.063L774.679 435.914L774.208 436.027Z" fill="#5C5F63"/>
<path fill-rule="evenodd" clip-rule="evenodd" d="M780.283 432.726L775.367 412.876L775.837 412.759L780.753 432.609L780.283 432.726Z" fill="#5C5F63"/>
<path fill-rule="evenodd" clip-rule="evenodd" d="M786.444 429.509L781.614 409.745L782.085 409.629L786.914 429.393L786.444 429.509Z" fill="#5C5F63"/>
<path fill-rule="evenodd" clip-rule="evenodd" d="M792.864 426.203L788.294 406.526L788.766 406.415L793.336 426.092L792.864 426.203Z" fill="#5C5F63"/>
<path fill-rule="evenodd" clip-rule="evenodd" d="M799.72 422.468L794.976 403.312L795.446 403.194L800.19 422.351L799.72 422.468Z" fill="#5C5F63"/>
<path fill-rule="evenodd" clip-rule="evenodd" d="M805.533 419.427L800.789 400.444L801.259 400.325L806.003 419.308L805.533 419.427Z" fill="#5C5F63"/>
<path fill-rule="evenodd" clip-rule="evenodd" d="M837.05 385.639L806.335 401.113L806.118 400.681L836.833 385.206L837.05 385.639Z" fill="#5C5F63"/>
<path fill-rule="evenodd" clip-rule="evenodd" d="M838.258 392.747L807.802 408.655L807.579 408.226L838.035 392.318L838.258 392.747Z" fill="#5C5F63"/>
<path fill-rule="evenodd" clip-rule="evenodd" d="M812.647 415.596L808.51 396.698L808.983 396.594L813.12 415.491L812.647 415.596Z" fill="#5C5F63"/>
<path fill-rule="evenodd" clip-rule="evenodd" d="M818.111 412.718L814.668 393.646L815.144 393.559L818.588 412.631L818.111 412.718Z" fill="#5C5F63"/>
<path fill-rule="evenodd" clip-rule="evenodd" d="M824.62 409.33L821.089 390.518L821.565 390.428L825.096 409.239L824.62 409.33Z" fill="#5C5F63"/>
<path fill-rule="evenodd" clip-rule="evenodd" d="M831.127 405.94L827.596 387.475L828.072 387.383L831.603 405.848L831.127 405.94Z" fill="#5C5F63"/>
<path fill-rule="evenodd" clip-rule="evenodd" d="M836.421 403.072L832.977 384.867L833.452 384.776L836.897 402.98L836.421 403.072Z" fill="#5C5F63"/>
<path fill-rule="evenodd" clip-rule="evenodd" d="M712.114 511.82L703.395 482.61L703.859 482.47L712.578 511.68L712.114 511.82Z" fill="#5C5F63"/>
<path fill-rule="evenodd" clip-rule="evenodd" d="M720.881 506.871L711.641 478.182L712.101 478.032L721.342 506.721L720.881 506.871Z" fill="#5C5F63"/>
<path fill-rule="evenodd" clip-rule="evenodd" d="M729.21 502.174L720.317 473.485L720.779 473.341L729.673 502.03L729.21 502.174Z" fill="#5C5F63"/>
<path fill-rule="evenodd" clip-rule="evenodd" d="M736.758 497.91L728.559 469.047L729.024 468.913L737.224 497.777L736.758 497.91Z" fill="#5C5F63"/>
<path fill-rule="evenodd" clip-rule="evenodd" d="M741.216 471.951L703.037 492.812L702.805 492.387L740.985 471.527L741.216 471.951Z" fill="#5C5F63"/>
<path fill-rule="evenodd" clip-rule="evenodd" d="M743.72 480.185L705.714 501.045L705.482 500.621L743.488 479.761L743.72 480.185Z" fill="#5C5F63"/>
<path fill-rule="evenodd" clip-rule="evenodd" d="M746.054 488.071L708.307 509.364L708.07 508.943L745.817 487.649L746.054 488.071Z" fill="#5C5F63"/>
<path fill-rule="evenodd" clip-rule="evenodd" d="M717.382 529.59L712.201 512.601L712.664 512.459L717.845 529.447L717.382 529.59Z" fill="#5C5F63"/>
<path fill-rule="evenodd" clip-rule="evenodd" d="M726.758 523.691L721.056 507.57L721.512 507.408L727.214 523.528L726.758 523.691Z" fill="#5C5F63"/>
<path fill-rule="evenodd" clip-rule="evenodd" d="M734.479 518.733L729.298 502.959L729.757 502.806L734.939 518.581L734.479 518.733Z" fill="#5C5F63"/>
<path fill-rule="evenodd" clip-rule="evenodd" d="M742.028 513.777L737.279 498.435L737.742 498.291L742.49 513.633L742.028 513.777Z" fill="#5C5F63"/>
<path fill-rule="evenodd" clip-rule="evenodd" d="M748.648 496.216L710.639 518.464L710.396 518.046L748.404 495.798L748.648 496.216Z" fill="#5C5F63"/>
<path fill-rule="evenodd" clip-rule="evenodd" d="M750.119 503.061L712.89 526.261L712.634 525.851L749.863 502.65L750.119 503.061Z" fill="#5C5F63"/>
<path fill-rule="evenodd" clip-rule="evenodd" d="M755.136 500.136L744.783 460.61L745.251 460.486L755.605 500.012L755.136 500.136Z" fill="#5C5F63"/>
<path fill-rule="evenodd" clip-rule="evenodd" d="M763.121 495.272L752.593 456.44L753.06 456.312L763.588 495.144L763.121 495.272Z" fill="#5C5F63"/>
<path fill-rule="evenodd" clip-rule="evenodd" d="M771.538 490.666L760.75 451.921L761.217 451.79L772.004 490.535L771.538 490.666Z" fill="#5C5F63"/>
<path fill-rule="evenodd" clip-rule="evenodd" d="M777.611 486.663L768.124 448.003L768.594 447.886L778.081 486.547L777.611 486.663Z" fill="#5C5F63"/>
<path fill-rule="evenodd" clip-rule="evenodd" d="M776.793 452.308L742.084 471.429L741.852 471.006L776.561 451.884L776.793 452.308Z" fill="#5C5F63"/>
<path fill-rule="evenodd" clip-rule="evenodd" d="M778.779 460.368L744.243 479.663L744.008 479.241L778.544 459.946L778.779 460.368Z" fill="#5C5F63"/>
<path fill-rule="evenodd" clip-rule="evenodd" d="M780.848 468.863L746.486 487.985L746.251 487.562L780.614 468.441L780.848 468.863Z" fill="#5C5F63"/>
<path fill-rule="evenodd" clip-rule="evenodd" d="M782.573 476.317L752.028 493.353L751.793 492.93L782.338 475.895L782.573 476.317Z" fill="#5C5F63"/>
<path fill-rule="evenodd" clip-rule="evenodd" d="M800.741 439.097L777.573 451.527L777.345 451.101L800.513 438.671L800.741 439.097Z" fill="#5C5F63"/>
<path fill-rule="evenodd" clip-rule="evenodd" d="M802.294 447.071L779.472 459.674L779.239 459.25L802.06 446.648L802.294 447.071Z" fill="#5C5F63"/>
<path fill-rule="evenodd" clip-rule="evenodd" d="M804.449 455.653L781.541 468.169L781.31 467.744L804.218 455.228L804.449 455.653Z" fill="#5C5F63"/>
<path fill-rule="evenodd" clip-rule="evenodd" d="M789.078 469.999L782.006 440.874L782.477 440.759L789.549 469.884L789.078 469.999Z" fill="#5C5F63"/>
<path fill-rule="evenodd" clip-rule="evenodd" d="M796.973 465.735L790.336 436.002L790.808 435.896L797.446 465.629L796.973 465.735Z" fill="#5C5F63"/>
<path fill-rule="evenodd" clip-rule="evenodd" d="M809.136 447.678L805.26 428L805.734 427.905L809.611 447.583L809.136 447.678Z" fill="#5C5F63"/>
<path fill-rule="evenodd" clip-rule="evenodd" d="M815.818 443.943L811.768 424.438L812.242 424.339L816.292 443.843L815.818 443.943Z" fill="#5C5F63"/>
<path fill-rule="evenodd" clip-rule="evenodd" d="M822.933 439.946L818.796 420.528L819.27 420.426L823.406 439.844L822.933 439.946Z" fill="#5C5F63"/>
<path fill-rule="evenodd" clip-rule="evenodd" d="M829.615 436.382L825.565 417.224L826.038 417.123L830.088 436.28L829.615 436.382Z" fill="#5C5F63"/>
<path fill-rule="evenodd" clip-rule="evenodd" d="M836.296 432.647L831.986 413.75L832.458 413.641L836.768 432.539L836.296 432.647Z" fill="#5C5F63"/>
<path fill-rule="evenodd" clip-rule="evenodd" d="M838.143 418.15L801.351 438.488L801.118 438.065L837.91 417.726L838.143 418.15Z" fill="#5C5F63"/>
<path fill-rule="evenodd" clip-rule="evenodd" d="M839.777 426.733L803.159 446.551L802.93 446.126L839.547 426.308L839.777 426.733Z" fill="#5C5F63"/>
<path fill-rule="evenodd" clip-rule="evenodd" d="M669.588 406.767L668.726 402.953L669.198 402.845L670.06 406.659L669.588 406.767Z" fill="#5C5F63"/>
<path fill-rule="evenodd" clip-rule="evenodd" d="M688.583 398.481L688.069 394.32L688.549 394.259L689.064 398.42L688.583 398.481Z" fill="#5C5F63"/>
<path fill-rule="evenodd" clip-rule="evenodd" d="M704.461 391.086L704.033 387.185L704.514 387.131L704.943 391.032L704.461 391.086Z" fill="#5C5F63"/>
<path fill-rule="evenodd" clip-rule="evenodd" d="M728.06 380.65L727.632 376.575L728.114 376.523L728.542 380.598L728.06 380.65Z" fill="#5C5F63"/>
<path fill-rule="evenodd" clip-rule="evenodd" d="M742.468 373.552L741.692 370.344L742.162 370.229L742.938 373.436L742.468 373.552Z" fill="#5C5F63"/>
<path d="M823.079 442.93L834.967 436.411L838.06 457.911L826.345 464.603L823.079 442.93Z" fill="#394149"/>
<path fill-rule="evenodd" clip-rule="evenodd" d="M822.815 442.799L835.157 436.031L838.324 458.039L826.159 464.988L822.815 442.799ZM823.344 443.06L826.533 464.218L837.798 457.782L834.778 436.79L823.344 443.06Z" fill="#5C5F63"/>
<path d="M802.501 464.201L804.483 473.129L817.499 466.175L815.605 455.426L818.296 453.775L817.952 451.521L805.196 458.734L805.626 461.248L802.329 462.987L802.501 464.201Z" fill="#394149"/>
<path fill-rule="evenodd" clip-rule="evenodd" d="M804.929 458.608L818.139 451.138L818.56 453.897L815.873 455.546L817.768 466.306L804.317 473.493L802.263 464.245L802.066 462.853L805.359 461.117L804.929 458.608ZM805.464 458.861L805.895 461.381L802.593 463.122L802.74 464.157L804.651 472.766L817.231 466.045L815.339 455.306L818.033 453.653L817.766 451.904L805.464 458.861Z" fill="#5C5F63"/>
<path d="M754.15 372.786L748.168 372.013L743.259 346.267L751.675 342.18L767.973 344.76L773.75 369.985L763.425 375.115L762.647 372.948L760.392 373.471L759.265 373.212L758.401 370.612L754.15 372.786Z" fill="#252E36"/>
<path fill-rule="evenodd" clip-rule="evenodd" d="M742.987 346.13L751.639 341.929L768.174 344.546L774.029 370.116L763.289 375.452L762.492 373.232L760.392 373.719L759.079 373.418L758.261 370.956L754.193 373.035L747.963 372.23L742.987 346.13ZM743.532 346.403L748.373 371.795L754.108 372.536L758.543 370.268L759.453 373.007L760.393 373.222L762.803 372.663L763.561 374.777L773.472 369.853L767.775 344.973L751.713 342.431L743.532 346.403Z" fill="#5C5F63"/>
<path d="M754.15 372.786L750.097 355.536L755.211 356.83L758.662 370.699L754.15 372.786Z" fill="#394149"/>
<path fill-rule="evenodd" clip-rule="evenodd" d="M749.771 355.204L755.412 356.631L758.945 370.834L753.983 373.13L749.771 355.204ZM754.319 372.442L758.379 370.564L755.012 357.029L750.425 355.869L754.319 372.442Z" fill="#5C5F63"/>
</g>
</g>
<defs>
<linearGradient id="paint0_linear_2332_11230" x1="809.5" y1="415.26" x2="202.416" y2="765.76" gradientUnits="userSpaceOnUse">
<stop stop-color="#5C5F63"/>
<stop offset="1" stop-color="#5C5F63" stop-opacity="0"/>
</linearGradient>
<clipPath id="clip0_2332_11230">
<rect width="910" height="702" fill="white" transform="translate(0 415)"/>
</clipPath>
<clipPath id="clip1_2332_11230">
<rect width="309" height="245" fill="white" transform="translate(579 318)"/>
</clipPath>
<clipPath id="clip2_2332_11230">
<rect width="231.017" height="231.017" fill="white" transform="translate(632 338.777) rotate(-6.15694)"/>
</clipPath>
</defs>
</svg>
