<svg xmlns="http://www.w3.org/2000/svg" width="1920" height="983" fill="none"><path stroke="#212A33" stroke-dasharray="9 9" stroke-linecap="round" stroke-linejoin="round" stroke-width="2" d="m1920 1-86.4 32.5c-85.2 32-258 97-483.9 141C1123.9 218.6 842.6 242.8 609 284c-232.4 41-420 99.8-513.4 129l-1.4.4L0 443"/><g clip-path="url(#a)"><path fill="url(#b)" d="M471.4 344.4h737.7L840.2 983.3 471.4 344.4Z"/></g><path fill="#394149" d="m428.8 350.8-266.1 73.7-41-78.6 278.9-40.8 28.2 45.7Z"/><path fill="#5C5F63" fill-rule="evenodd" d="M121.3 345.7 400.7 305l28.5 46-266.6 73.9-41.3-79Zm.8.4 40.7 78 265.6-73.5-28-45.2-278.3 40.7ZM370.7 400.6l3.9 6.6-23.5 23-3.4-5.7 23-24Zm-22.5 24 3 5 22.9-22.4-3.5-6-22.4 23.4Z" clip-rule="evenodd"/><path fill="#394149" d="M370.7 400.9 632 321.5l2 3.6-259.8 82-3.6-6.2Z"/><path fill="#5C5F63" fill-rule="evenodd" d="m369.9 400.6 262.4-79.7 2.6 4.5-260.8 82.4-4.2-7.2Zm1.6.6 3 5.4 258.9-81.8-1.6-2.7-260.3 79Z" clip-rule="evenodd"/><path fill="#252E36" d="m351.1 430 260.7-87.4 22.4-17.5-259.9 82-23.2 22.8Z"/><path fill="#5C5F63" fill-rule="evenodd" d="m374 406.7 262.8-83L612 343l-262.9 88.2 25-24.5Zm.6 1-21.5 21 258.4-86.6 20-15.7-257 81.2Z" clip-rule="evenodd"/><path fill="#252E36" d="m441.2 290.6 24.1-27.1 57 91.3-34.8 10.5-46.3-74.7Z"/><path fill="#5C5F63" fill-rule="evenodd" d="m465.4 262.6 57.8 92.5-35.9 10.8-46.7-75.4 24.8-27.9Zm-23.5 28 45.9 74.1 33.8-10.2-56.4-90.2-23.3 26.3Z" clip-rule="evenodd"/><path fill="#252E36" d="m465.3 263.5 27.1-2.3 57 85.4-27 8.2-57.1-91.3Z"/><path fill="#5C5F63" fill-rule="evenodd" d="m464.4 263 28.3-2.3 57.5 86.2-28 8.5-57.8-92.4Zm1.8 1 56.4 90.2 26-7.8-56.5-84.6-26 2.1Z" clip-rule="evenodd"/><path fill="#394149" d="m445.4 292.7 19-20.8 11.2 17.3-2.7 2 4.3 6.7-15.4 14.6-3.6-5.6-2.5 2-10.3-16.2Z"/><path fill="#5C5F63" fill-rule="evenodd" d="m464.4 271.5 11.5 17.8-2.6 2 4.3 6.6-15.8 15-3.7-5.6-2.5 2-10.6-16.6 19.4-21.2Zm-18.7 21.3 10 15.7 2.5-2 3.7 5.6 15-14.3-4.3-6.6 2.6-2-10.8-16.9-18.7 20.4Z" clip-rule="evenodd"/><path fill="#394149" d="m515.4 343.5-5.7 3-11.5-18 4.3-2.7-1.4-2.4-4.3 2.5-13.4-21.5 4.1-2.4-1.7-3-7 4-18.7 18.2 27.5 44.3 12.1-3.6 10-9 2.7-2.9 5.3-2.8-2.3-3.7Zm-52-21.3 15.3-14.7 13.4 21.6-15.9 13.7-12.9-20.6Zm28.5 41.6-1 .1-12-18.3L494 332l12.2 19.6-14.4 12.2Z"/><path fill="#5C5F63" fill-rule="evenodd" d="m478.6 302.8 7.3-4.2 2 3.5-4.2 2.4 13.2 21 4.3-2.4 1.6 2.7-4.2 2.7 11.2 17.7 5.7-3 2.6 4-5.5 3-2.7 3-10 9-12.4 3.6-27.7-44.7 18.8-18.3Zm.3.4-18.5 18 27.4 44 3.7-1.1-.8.1-12.2-18.6 15.6-14 12.6 20-14.5 12.3 7.4-2.2 10-8.9 2.6-3 5.2-2.7-2.1-3.2-5.7 3-11.7-18.5 4.2-2.7-1-2-4.4 2.6-13.7-22 4.2-2.4-1.5-2.6-6.8 3.9Zm-.1 4 13.7 22-16.3 14-13.2-21 15.8-15Zm-15.1 15 12.6 20.2 15.5-13.4-13.1-21-15 14.2Zm15.5 23.5 11.7 18 1-.2 14-12-11.9-19-14.8 13.2Z" clip-rule="evenodd"/><path fill="#394149" d="m472.5 267.2 2.2 3.8 18.7-2.2-2.5-4.3-18.7 2.2.3.5Z"/><path fill="#5C5F63" fill-rule="evenodd" d="m471.8 266.5 19.3-2.3 2.7 4.8-19.2 2.3-2.8-4.8Zm.8.4 2.2 3.8 18.2-2-2.2-4-18.2 2.2Z" clip-rule="evenodd"/><path fill="#394149" d="m482.6 285.9 20.5-3.2-7.4-11.1-20 2.9 6.9 11.4Z"/><path fill="#5C5F63" fill-rule="evenodd" d="m475.3 274.3 20.6-3 7.6 11.6-21 3.3-7.2-12Zm.9.4 6.5 10.9 20-3.1-7.1-10.6-19.4 2.8Z" clip-rule="evenodd"/><path fill="#394149" d="m500.2 315 11-2.2-9.3-14.8-11.1 2.1 9.4 15Z"/><path fill="#5C5F63" fill-rule="evenodd" d="m490.4 300 11.6-2.3 9.5 15.3-11.5 2.4-9.6-15.5Zm.8.3 9 14.5 10.5-2.1-9-14.4-10.5 2Z" clip-rule="evenodd"/><path fill="#394149" d="m512.1 312.5 10.5-2.2-9.3-14.6-10.3 1.9 9.1 14.9Z"/><path fill="#5C5F63" fill-rule="evenodd" d="m502.6 297.4 10.8-2 9.7 15-11 2.4-9.5-15.4Zm.9.4 8.8 14.4 10-2.1-9.1-14-9.7 1.7Z" clip-rule="evenodd"/><path fill="#394149" d="m503 318.3 10 16 21.6-5.5-10-15.3-21.6 4.8Z"/><path fill="#5C5F63" fill-rule="evenodd" d="m502.5 318.1 22.1-4.9L535 329l-22.2 5.6-10.3-16.5Zm.9.3L513 334l21-5.3-9.7-14.9-21 4.6Z" clip-rule="evenodd"/><path fill="#5C5F63" d="M460.4 382.5c1.7-1 1.6-4.2 0-7.2-1.8-3-4.6-4.6-6.3-3.6-1.7 1-1.6 4.1 0 7.1 1.8 3 4.6 4.6 6.3 3.7ZM517.4 357c1.2-.7 1.1-3-.1-5.2-1.3-2.2-3.3-3.4-4.5-2.7-1.2.7-1.1 3 .1 5.2 1.3 2.2 3.3 3.4 4.5 2.7ZM463.3 326.3l-2.3 1.3-2.6-4.5 2-1.1-5.2-8-2 1-2.9-5 1.8-1-2-3-3.5 2.1 1.4 2.5-2.7 1.6 2 3.6-2.4 1.5 4.2 6.9 4-.5 4.3 6.5 6.1-3.6-.2-.3Z"/><path fill="#394149" d="M444.9 317.3 400.6 305l-5.8 1.7 2.7 4 31.4 40.1 5.8-2 14.5-24.5-4.3-7.1ZM426.3 346l-28.1-35.4 1.6-1 28.3 35.3-1.8 1Zm8.2-8.4-9.9-2.4-14.4-17.1 3.8-5.1 28.8 9.5-8.3 15.1Z"/><path fill="#5C5F63" fill-rule="evenodd" d="m394.4 306.7 6.2-1.8L445 317l4.5 7.3-14.6 24.7-6 2.2-31.6-40.3-3-4.2Zm.8.3 2.6 3.6 31.2 40 5.5-2 14.4-24.2-4.2-7-44.1-12-5.4 1.6Zm2.6 3.5 2-1.2 28.7 35.7-2.3 1.3-28.4-35.8Zm.8.2 27.8 35 1.3-.8-28-34.9-1.1.7Zm15.3 2 29.3 9.7-8.6 15.5-10.1-2.5-14.6-17.3 4-5.4Zm-3.4 5.4 14.3 16.8 9.6 2.4 8-14.6-28.3-9.4-3.6 4.8ZM404 323.6v.2l-.6.4-.1-.2.7-.4ZM130.2 351l67.8-11.5 34.4 60.7-68.1 17-34.1-66.2Zm1.2.6 33.3 64.7 66.5-16.6-33.6-59.4-66.2 11.3ZM201.5 338.8l56.2-9.3 35.7 55.4-57.9 14.4-34-60.5Zm1.3.6 33.1 59 56.2-14-34.8-54-54.5 9ZM261.7 328.8l48.4-8.2 34.9 51.6-48.7 12-34.6-55.4Zm1.3.6 33.7 53.9 47-11.6-34-50.2-46.7 7.9ZM312.9 320l41.6-7 35.3 47.2-41.4 10.4-35.5-50.5Zm1.4.6 34.5 49.1 39.7-10-34.4-45.9-39.8 6.8Z" clip-rule="evenodd"/><path fill="#5C5F63" d="m506.1 277 2.4 4.2-2 1.2 4.8 7.3 2-1.1 3.2 5.3 4.4-2.5-3.1-5.4-4.4-7.6-3.3-5.7-4 4.4Z"/><path fill="#394149" d="m513.6 278.3-7 4 .5 1 7-4-.5-1Z"/><path fill="#5C5F63" fill-rule="evenodd" d="m506.2 282.3 7.5-4.3.7 1.3-7.4 4.3-.8-1.3Zm.7.2.2.4 6.6-3.8-.2-.4-6.6 3.8Z" clip-rule="evenodd"/><path fill="#394149" d="m517.5 285.1-7 4.1.5 1 7-4.2-.5-.9Z"/><path fill="#5C5F63" fill-rule="evenodd" d="m510.1 289.1 7.5-4.3.8 1.3-7.5 4.4-.8-1.4Zm.7.2.3.5 6.6-3.8-.3-.5-6.6 3.8Z" clip-rule="evenodd"/><path fill="#394149" d="m631.5 248.4-105.2 12-8 18-4.1 1 4.4 7.5 5.2-1.8 37 12.5 101.6-20.7-30.9-28.5Zm-82.7 42.2-24-8-1.6-2.6 4.5-11.8 8.2 3 14.2 15-1.3 4.4Z"/><path fill="#5C5F63" fill-rule="evenodd" d="m526.1 260.1 105.5-12 31.4 29-102.2 20.8-37-12.5-5.4 1.9-4.6-8 4.3-1 8-18.2Zm.4.5-8 18.1-3.9.9 4 7 5.2-1.7 37 12.4 101-20.6-30.4-28-104.9 12Zm1 7.3 8.6 3 14.3 15.3-1.4 4.7-24.4-8-1.7-3 4.7-12Zm-4 12 1.4 2.5 23.7 7.9 1.3-4-14.1-15-8-2.7-4.3 11.3Z" clip-rule="evenodd"/><path fill="#5C5F63" fill-rule="evenodd" d="m530.2 262 23.5-2.9 31 32-23.4 4.7-31.1-33.9Zm1.6.5 29.8 32.4 21.4-4.4-29.6-30.5-21.6 2.5ZM556.3 258.9l19.9-2.4 29.7 29.7-19.3 4.3-30.3-31.6Zm1.7.6 28.9 30.1 17.4-3.9-28.4-28.4-18 2.2ZM579.3 256.1l18.3-2.2 28.7 29-18.7 3.1-28.3-29.9Zm1.6.6 27 28.5 16.8-2.9-27.4-27.5-16.4 2ZM598.8 253.8l17.3-2.4 28.3 27.7-16.5 3.2-29.1-28.5Zm1.7.5 27.6 27.1 14.7-2.8-27-26.3-15.3 2Z" clip-rule="evenodd"/><path fill="#5C5F63" d="m232.1 399.8-67.3 17-34-65.8c.9-.3 1.9-.6 2.8-.7 21-3.5 42.2-6.8 63.5-10.5 1-.1 1.5.1 2 1a3016652.8 3016652.8 0 0 0 33 59Zm-65.3 6.5c.8 1.2 1.2 2.4 2 3.7 0 .1.4.4.6.3 1.7-.5 3.3-1 5-1.2l-1.7-3.6c-.1-.2-.5-.4-.7-.3l-5.2 1Zm5.3-1.9c-.8-1.2-1.2-2.4-1.8-3.5-.1-.2-.5-.4-.7-.3l-5 1.2 1.7 3.6c.1.1.5.4.7.3 2-.4 3.4-.8 5-1.3Zm-11.1 3.3c.7 1.3 1.2 2.7 1.9 3.7 0 .2.3.3.5.2l4.8-1.3-1.9-3.7c-.1-.2-.4-.3-.7-.4-1.2.8-2.7 1.1-4.6 1.5Zm-2.2-4.5c.8 1.3 1.2 2.4 1.8 3.5.1.2.5.5.7.4 1.5-.4 3.1-.9 4.9-1.2-.8-1.2-1.2-2.4-2-3.7a42 42 0 0 0-5.4 1ZM170 400l-1.8-3.5c0-.2-.4-.3-.6-.3-1.7.4-3.3.6-5.1 1.2l1.8 3.5c0 .2.4.3.7.4 1.6-.5 3-.9 5-1.3Zm-9.8-7 1.8 3.5c0 .2.4.3.4.3 1.7-.3 3.4-.8 5-1.3l-1.8-3.5c0-.2-.5-.4-.6-.3-1.4.5-2.9.9-4.8 1.3Zm-6 1.3 1.8 3.5c0 .2.5.4.7.3 1.4-.3 3.2-.6 4.8-1.1-.7-1.3-1.1-2.4-1.9-3.7 0-.2-.3-.3-.5-.2-1.5.4-3.2.9-5 1.2Zm26.2 13.2c-.8-1.3-1.2-2.4-1.8-3.5l-.5-.5c-1.7.5-3.2.9-5 1.2 1 1.4 1.5 2.8 2.2 4 1.5-.3 3.2-.6 5-1.2Zm-23.8-8.6 2.1 4 5.3-1.3c-.8-1.3-1.2-2.4-1.8-3.5-.1-.2-.4-.3-.4-.3-1.9.1-3.5.6-5.2 1Zm1.4-10.4c.6.9.8 1.7 1.2 2.4.8 1.4.8 1.4 2.3 1l3.9-.7-1.7-3.4c-.1-.2-.5-.4-.7-.3l-5 1Zm-4 5.4c2-.4 3.6-.9 5.3-1.1-.7-1.3-1-2.3-1.7-3.4 0-.2-.5-.4-.5-.4l-5 1 1.9 4Zm9.2-7-1.8-3.5c-.1-.2-.4-.3-.4-.3l-5.2 1.1c.8 1.3 1.2 2.5 1.8 3.5.1.2.4.3.6.2 1.6-.2 3.2-.7 5-1Zm14.8 16.2c-.7-1.3-1.1-2.5-1.8-3.6l-.6-.3c-1.5.4-3.2.9-5 1.2.8 1.2 1.4 2.6 2 3.8l5.4-1.1Zm-28.3-17.8c.8 1.3 1.2 2.5 1.8 3.5.1.2.4.3.4.3l5.2-1c-.7-1.3-1-2.3-1.7-3.4-.1-.2-.5-.4-.7-.3l-5 1Zm18.7 10.6c.7 1.3 1.1 2.5 1.8 3.6 0 .1.4.2.5.1 1.7-.5 3.3-.7 5-1.1-.8-1.3-1.3-2.5-1.9-3.6 0-.1-.5-.4-.6-.3-1.4.6-3 1-4.8 1.3Zm-7.5-13.4c-.8-1.3-1.2-2.4-1.8-3.5-.1-.2-.4-.3-.4-.3-1.8.3-3.4.8-5.2 1 .8 1.3 1.2 2.5 1.7 3.4.1.2.5.5.7.4l5-1Zm25.2 23.3c-.7-1.2-1.4-2.5-1.9-3.7h-.3c-1.4.3-3 .8-4.8 1l1.7 3.4c.3.6.6.7 1 .6l4.3-1.3Zm-34.6-30.4 1.8 3.6.4.2c1.7-.3 3.4-.8 5.1-1-.6-1.1-1-2.3-1.7-3.4 0-.2-.3-.5-.4-.4l-5.2 1Zm-4 5.7c.8 1.2 1.3 2.6 2 3.9l5.4-1.2-2-3.9-5.4 1.2Zm5.2-1.8-1.7-3.6c-.2-.1-.5-.4-.7-.3-1.6.2-3.2.7-5 1l1.8 3.5c.1.2.4.3.7.3 1.5-.2 3.3-.5 5-1Zm13.6 12.3c.8 1.2 1.2 2.4 1.8 3.5.1.2.4.3.7.3 1.5-.3 3.2-.6 4.9-1.1l-2-3.9c-2 .4-3.7.7-5.4 1.2Zm4.9-1.6-1.8-3.5c-.1-.2-.4-.3-.7-.4-1.5.2-3.2.7-4.8 1.2.7 1.2 1.2 2.6 2 3.8l5.3-1.1Zm3.2 4.6c.3.6.6 1.1.7 1.8 1 2.2 1 2.2 3.7 1.7.8-.3 1.7-.3 2.7-.6-.7-1.3-1.1-2.5-1.8-3.6 0-.2-.5-.4-.6-.3-1.6.2-3 .6-4.7 1Zm10 7.4 2 3.4c0 .2.4.3.5.5 1.5-.4 3.1-.9 4.9-1.2l-2-3.4c-.1-.2-.5-.4-.7-.3-1.4 0-2.9.5-4.7 1Zm-.7-.3c-.7-1.3-1.1-2.4-1.8-3.5 0-.2-.3-.3-.3-.3-1.5.4-3.2.9-5 1.2.8 1.2 1.3 2.4 1.9 3.5 0 .2.4.2.5.1 1.5-.3 3.2-.8 4.7-1Zm-34.5-30.7 1.8 3.5c0 .2.4.3.4.3l5.1-1c-.6-1.1-1-2.3-1.7-3.4 0-.2-.5-.4-.6-.3l-5 1Zm-4.1 5 5.4-1c-.7-1.2-1.1-2.4-1.8-3.5 0-.2-.3-.3-.3-.3l-5 1c.5 1.4 1 2.7 1.7 3.8Zm9.3-6.3c-.7-1.3-1-2.3-1.7-3.4 0-.2-.4-.2-.4-.2l-5 .7 1.6 3.4c.1.2.5.4.7.3l4.8-.8Zm7.4 13.2c.8 1.3 1.2 2.5 1.8 3.5.1.2.4.3.6.2l5-1-2-3.4c-.1-.2-.4-.2-.7-.3-1.6.2-3 .5-4.7 1Zm-20.6-15c.7 1.3 1 2.3 1.7 3.4 0 .2.2.4.4.4 1.8-.3 3.4-.4 5-1-.6-1-1-2.2-1.6-3 0-.3-.5-.5-.7-.6-1.6.2-3.2.4-4.8.9Zm6.7-10.8c-.6-1-1-2.2-1.7-3.3l-.5-.5-5 .8 1.6 3.4c.1.1.5.4.7.3l4.9-.7Zm22 28.9c.7 1.2 1 2.2 1.6 3.3l.5.4c1.5-.3 3.3-.6 4.9-1.1-.6-1-1-2.3-1.7-3.3 0-.2-.5-.5-.7-.4-1.5.2-3 .6-4.7 1Zm17.4 9.8-2-3.4c0-.2-.5-.5-.6-.4-1.5.4-3 .8-4.7 1l2 3.5c0 .2.3.3.6.3 1.6-.2 3-.5 4.7-1Zm2.3 4.4-2-3.4c0-.2-.4-.4-.6-.3-1.5.3-3.1.8-4.9 1.1l2 3.4c0 .2.4.3.6.4 1.7-.5 3.2-.9 5-1.2Zm-47.6-42-.8-1.8c-1-2-1-2-3.2-1.8l-3.1.4c.6 1.1 1 2.3 1.7 3.4 0 .1.3.5.5.4 1.4 0 3.1-.4 4.9-.7Zm37.4 34.7-1-1.8c-1.2-2-1.2-2-3.3-1.5-.8.3-2 .4-3 .8.8 1.2 1.1 2.2 1.7 3.3.2.2.5.5.7.4 1.7-.5 3.1-.9 4.9-1.2Zm-36.7-34.4c.7 1.2 1 2.2 1.6 3.3l.5.4 5.1-.7c-.7-1.3-1-2.3-1.7-3.4 0-.2-.4-.2-.4-.2-1.6 0-3.2.2-5.1.6Zm2.2 4.2c.7 1.3 1 2.3 1.7 3.3 0 .2.4.5.4.5l5.1-.8c-.6-1-1-2.3-1.6-3.2 0-.1-.4-.4-.6-.3-1.6-.3-3.3.2-5 .5Zm-8.2-3.2c.7 1 1.1 2.2 1.7 3.3l.5.5 5.1-.8c-.7-1.3-1-2.3-1.7-3.4 0-.1-.5-.4-.8-.2-1.5 0-3.1.1-4.8.6Zm2.3 4.2 1.6 3.4.7.3c1.6-.2 3.2-.7 5-1-.6-1-1-2.2-1.7-3.3 0-.2-.4-.3-.5-.4a47 47 0 0 0-5.1 1Zm27.9 17.5-2-3.4-.5-.4c-1.6.1-3.2.6-5 1l1.7 3.3c.1.1.5.4.7.3 1.8-.1 3.3-.5 5-.8Zm.7.5c.8 1.3 1.2 2.5 1.8 3.5.1.2.4.3.4.3l4.9-1.1c-.6-1.1-1-2.3-1.7-3.4l-.5-.4c-1.5.4-3.2.6-4.9 1.1Zm-5.2-9c-.6-1-1-2.2-1.7-3.3 0-.2-.2-.4-.4-.5-1.8.3-3.4.5-5 1 .7 1.3 1 2.3 1.7 3.3 0 .2.5.5.6.4l4.8-.9Zm27.8 27.7 2.2 3.8 5-1.5-2-3.4a.4.4 0 0 0-.6-.1c-1.4.5-2.9.9-4.6 1.2ZM157.2 374c.6 1.1 1 2.3 1.7 3.4l.5.4c1.6-.2 3.2-.6 5-1-.8-1.2-1.1-2.2-1.7-3.3-.1-.2-.4-.2-.7-.3l-4.8.8Zm12 36.6c.6 1 1 2 1.4 3l.5.4 5-1.2-1.6-3.4c-.1-.2-.4-.2-.6-.1-1.3.5-3 1-4.7 1.3Zm13.6-23.5-2-3.4c0-.2-.4-.3-.7-.3-1.4.3-3 .5-4.8 1l2 3.5c0 .2.3.3.6.3l4.9-1Zm-17.6-10 1.7 3.3c.1.2.4.3.4.3 1.6-.2 3.2-.7 5-1-.6-1-1-2.2-1.7-3.3-.1-.2-.5-.4-.7-.3l-4.7 1Zm19.8 14.3-1.9-3.3c0-.2-.4-.2-.5-.4-1.4.3-3.2.6-4.8 1.1l2 3.4c0 .2.4.5.6.4 1.2-.5 2.7-.9 4.6-1.2Zm3.2 18.5-2-3.6c-1.7.5-3.3 1-5.1 1.2.6 1.1 1 2.3 1.6 3.2 0 .2.5.4.8.2 1.6-.2 3-.5 4.7-1Zm-13-.9c.6 1 1 2.3 1.7 3.3.1.2.4.3.6.2 1.4-.4 3.1-.8 4.9-1.1-.7-1.1-1.1-2.3-1.7-3.4-.1-.2-.4-.2-.7-.3-1.6.6-3 1-4.8 1.3Zm17.2-4.4c.6 1 1 2.3 1.7 3.3.1.2.5.5.7.4l4.6-1.2-2-3.5a.4.4 0 0 0-.6-.1l-4.4 1ZM161 368.9c.7 1.2 1 2.2 1.7 3.3l.5.5c1.6-.2 3.2-.7 5-1l-1.9-3.2c-.1-.2-.5-.5-.7-.4-1.4.1-3 .3-4.6.8Zm33 39.7-2.1-3.8-5.1 1.3 1.9 3.2c0 .2.4.3.5.2l4.8-.9ZM180.6 383l-2-3.5c-.1-.1-.4-.2-.6-.1l-4.7 1c.8 1.3 1.1 2.3 1.7 3.4l.7.3 4.9-1.1Zm14.3 15.7-1.8-3.3-.7-.3-4.6 1.2c.7 1.3 1 2.3 1.7 3.4.1.1.5.4.7.3l4.7-1.3Zm-34.8-30.3-1-2.1c-.7-1.7-.7-1.7-2.6-1.3l-3.5.6c.7 1.2 1 2.2 1.7 3.3 0 .2.3.3.6.3l4.8-.8Zm-6.2-12.5-2-3.4c0-.2-.4-.3-.4-.3l-4.9.7c.6 1 1 2.3 1.7 3.3.1.2.5.5.7.4 1.5 0 3-.3 4.9-.7Zm2 4-1.8-3.2c0-.2-.4-.2-.7-.3l-4.8.8c.7 1.1 1.1 2.3 1.6 3.2.1.2.5.4.8.5 1.6-.2 3-.5 5-1ZM171 376c.7 1 1 2.3 1.7 3.3.1.2.5.5.7.4 1.6-.2 3-.6 5-1l-1.9-3.2c-.1-.2-.4-.3-.7-.4l-4.8.9Zm-.8-.2c-.8-1.3-1.2-2.5-2-3.7l-5.3 1.1 1.9 3.3c.1.2.5.4.7.3 1.6-.5 3.1-.8 4.7-1Zm40.1 28.6-2-3.4c0-.2-.4-.2-.6-.3l-4.6 1.2 2 3.4c0 .2.3.3.5.2 1.6-.2 3-.8 4.7-1Zm-12.5-1.2 2 3.5c.1.1.4.2.6.1l4.6-1.2-2-3.4c-.1-.2-.4-.3-.6-.2l-4.6 1.2Zm-5-8.8-2-3.2a2 2 0 0 0-.4-.4l-4.7 1c.7 1.2 1 2.2 1.7 3.3 0 .2.5.5.6.4 1.5-.4 3-.8 4.7-1Zm-42-33c.8 1.3 1.1 2.4 1.7 3.4l.4.3c1.6-.2 3.3-.7 5-1-.6-1-1-2.2-1.6-3.1 0-.2-.5-.5-.6-.4l-4.8.9Zm7.9 3.2c.6 1.1 1 2.3 1.7 3.4 0 .2.4.2.7.3l5-1-2-3.2c0-.2-.3-.2-.5-.1-1.7 0-3.2.3-5 .6Zm-2.1-4c.6 1 1 2.2 1.6 3.1 0 .2.5.5.6.4 1.6-.2 3-.6 5-1L162 360c-.1-.2-.4-.3-.4-.3-1.6.2-3.4.5-5 1Zm38.8 38.5 2 3.4c.1.2.4.3.4.3l4.6-1.2-1.9-3.3c0-.2-.5-.4-.7-.3-1.2.3-2.5.5-4.4 1.1Zm-12-11.6c.8 1.3 1.1 2.3 1.8 3.4 0 .2.4.4.4.4l5-1.1-2-3.4-.7-.4-4.4 1.1Zm-28.8-31.3 1.5 3.2c.2.2.5.4.7.3 1.6-.2 3-.5 5-1l-1.9-3.2c0-.2-.4-.2-.4-.2-1.8.6-3.4.7-5 1Zm12.1 11.5c.6 1 1 2.3 1.7 3.3.1.2.5.5.7.4l4.8-.9-1.9-3.2c-.1-.2-.4-.3-.6-.2-1.5 0-3 .3-4.7.6Zm9.3 6.9-1.9-3.3-.4-.2-4.8.8c.6 1.1 1 2.3 1.7 3.4.1.2.5.4.7.3l4.7-1ZM159.6 355l-1.9-3.3-.3-.2-5 .7c.8 1.2 1.1 2.2 1.7 3.3.1.2.5.4.7.3 1.6-.1 3-.5 4.8-.8Zm40.8 42.2-2-3.4c-.1-.2-.4-.3-.4-.3l-4.6 1.3 2 3.4c0 .2.4.2.7.3l4.3-1.3Zm-9.4-6.6 1.9 3.3c0 .1.5.4.7.3l4.4-1.1-2.2-3.8c-1.5.4-3 .7-4.8 1.3Zm4.8-1.8-2-3.2c0-.2-.3-.3-.4-.4l-4.7 1 1.9 3.2c0 .2.5.5.6.4a27 27 0 0 0 4.6-1Zm19.6 14.1-1.8-3.2c-.1-.2-.4-.3-.7-.4l-4.4 1.2 2 3.4a59.7 59.7 0 0 0 5-1ZM179 379.2c.6 1 1 2.2 1.7 3.3 0 .2.4.4.4.4 1.5-.3 3-.5 4.7-1l-1.8-3.2c-.1-.2-.5-.5-.7-.4-1.2 0-2.7.4-4.3.9Zm29.2 21-2-3.4c0-.2-.4-.3-.4-.3l-4.6 1.2 2 3.3c0 .2.3.2.6.3 1.2-.4 2.6-.8 4.4-1.1Zm-26.8-16.9c.6 1 1.2 2.2 1.5 3.2.4.5.6.6 1 .4l3.6-.9.7-.4c-.6-1.1-1.2-2.2-1.8-3 0-.3-.5-.5-.6-.4l-4.4 1.1Zm2.4-5.7-1.9-3.3c0-.2-.3-.2-.5-.1-1.5.3-3 .5-4.7 1l1.8 3.2c.2.2.5.5.7.4 1.4-.6 3-.8 4.6-1.2Zm-19-14 1.5 3.2.5.4c1.6-.2 3-.5 5-1l-1.9-3.2-.7-.3c-1.4.4-2.8.5-4.5 1Zm-1.3 48.7 1 1.8c1 1.7 1 1.7 2.6 1.2l3.4-.8-1.6-3.1c0-.2-.4-.3-.7-.4l-4.7 1.3Zm40.1-20.5-1.9-3.2c0-.2-.4-.3-.4-.3l-4.6 1.2 2 3.3c0 .1.4.4.6.3a19 19 0 0 1 4.3-1.3Zm-21.9-18.3-1.9-3.2c0-.2-.3-.3-.3-.3l-4.6 1c.7 1 1.1 2.2 1.7 3.3l.7.3c1.2-.4 2.7-.8 4.4-1.1Zm-16.4-19.3c-.7-1.1-1.1-2.3-1.6-3.2-.1-.2-.5-.4-.7-.3l-4.6.7c.6 1.1 1 2.3 1.7 3.4 0 .2.4.2.7.3 1.1-.4 2.7-.6 4.5-1Zm4.4 8-2-3.2c0-.2-.3-.3-.5-.2l-4.8.9c.6 1 1 2.2 1.6 3.1.1.2.5.5.7.4 1.6-.5 3.2-.7 5-1Zm-2.3-4c-.6-1-1-2.2-1.6-3.1-.1-.2-.5-.5-.7-.3-1.6.1-3 .5-4.6.7.6 1 1 2.3 1.7 3.3 0 .2.4.3.7.4 1.3-.6 2.9-.8 4.5-1Zm38.4 37.9-1.9-3.3c0-.2-.5-.4-.5-.4l-4.6 1.2 2 3.2c0 .2.3.3.6.4 1.4-.6 2.8-1 4.4-1.1ZM194 385l2 3.3c.1.2.4.3.6.2l4.7-1-1.9-3.3c0-.2-.5-.4-.7-.3l-4.7 1Zm-5.3.6c1.4-.3 3.1-.8 4.9-1.1l-2-3.2c0-.2-.1-.4-.3-.3l-4.7 1 2 3.6Zm25 13.4 1.9 3.2c.3.6.6.7 1 .5 1-.4 2-.5 3.3-1l.7-.4-1.8-3c0-.2-.5-.5-.7-.4l-4.4 1.1Zm-.5-.4-1.8-3.3-.5-.4-4.6 1.2 2 3.4c0 .2.3.3.6.4 1.2-.5 2.7-.9 4.3-1.3Zm-21.8-18.2-1.8-3.2c-.1-.2-.2-.4-.4-.3l-4.7 1 1.9 3.3c0 .2.5.4.6.3 1.2-.4 2.7-.8 4.4-1Zm10.4 7.5 1.8 3.2c.2.2.5.5.7.4l4.4-1.1-1.8-3.3c-.1-.2-.4-.2-.6-.1a27 27 0 0 0-4.5.9ZM170 362.6l1.8 3.3c.1.2.4.2.7.3l4.8-.8-1.9-3.3c0-.2-.5-.4-.6-.3l-4.8.8Zm19.2 13.9-1.8-3.3c-.1-.2-.4-.2-.4-.2-1.5.3-3 .5-4.7 1l1.9 3.2c0 .2.4.5.6.4 1.2-.5 2.7-.8 4.4-1.1Zm-9.9-7.3-1.9-3.2c0-.2-.4-.2-.4-.2-1.5.1-3 .5-4.8.8l1.8 3c.1.2.5.5.8.6 1.3-.3 2.8-.5 4.5-1Zm32.1 25.7 2 3.4c0 .2.4.2.4.2l4.4-1-1.9-3.3c0-.2-.4-.3-.5-.2-1.4.1-3 .5-4.4.9Zm-21.7-18 2 3.2c0 .2.3.3.5.2l4.5-1-1.9-3.2c0-.2-.4-.2-.4-.2-1.5.2-3 .5-4.7 1ZM173 357.2l-1.9-3.3c0-.2-.4-.2-.6-.3l-4.8.8 1.8 3.3c.1.2.4.2.6.1 1.7 0 3.1-.3 4.9-.6Zm19 23.8 2 3.2c0 .2.3.3.5.2 1.5-.4 3-.8 4.5-1l-1.9-3.2c0-.2-.4-.3-.6-.3-1.2.4-2.8.6-4.5 1Zm-11.8-11.4c.6 1 1 2.2 1.7 3.3 0 .2.4.3.6.4l4.6-1-2-3.2c0-.2-.4-.5-.6-.3l-4.3.8Zm-9.2-16.3L169 350c0-.1-.2-.3-.5-.4l-4.8.9 2 3.2c0 .2.4.4.6.3l4.6-.7Zm33 39 2 3.2c0 .2.3.2.5.1l4.4-1-1.8-3.3c-.1-.2-.4-.3-.6-.2l-4.4 1.1Zm-9.2-17-1.8-3c0-.2-.5-.5-.7-.4-1.4.4-2.8.5-4.5 1l1.9 3.2c.1.2.4.2.7.3a24 24 0 0 1 4.4-1.1Zm-19.7-14c-.6-1.2-1-2.3-1.6-3.2 0-.2-.5-.5-.7-.4l-4.6.8 1.9 3.2c.1.2.4.3.7.3l4.3-.8Zm38.8 28-1.9-3.3c0-.2-.4-.3-.4-.3-1.4.4-3 .8-4.5 1l2.1 3.6c1.6-.2 3-.6 4.7-1Zm-21.5-18.1-1.8-3.1c0-.2-.5-.4-.6-.3-1.3.2-3 .4-4.6.9l2 3.2c0 .2.4.5.6.4l4.4-1.1Zm-19-13.6 2 3.2c0 .2.4.3.4.3l4.8-.9-1.8-3c-.1-.2-.5-.5-.7-.4-1.4.1-2.8.5-4.6.8Zm5-1.4-1.7-3c-.1-.3-.4-.3-.7-.4l-4.6.7 1.9 3.3c0 .1.3.2.5.1l4.6-.7Zm-.5 9.4 2 3.6c1.5-.4 3.1-.5 5-1l-1.7-3c-.1-.2-.5-.4-.7-.3-1.4 0-2.9.4-4.6.7Zm-2.1-4 1.9 3.2c0 .2.3.3.3.3l4.8-.9-1.7-3c-.1-.2-.5-.5-.7-.4l-4.6.8Zm19.5 14.1 1.8 3.3.5.4 4.6-1-1.8-3c-.1-.2-.5-.4-.7-.3-1.5-.1-3 .3-4.4.6Zm30.3 24.6-2-3.3c0-.2-.3-.2-.6-.3-1.3.2-2.8.6-4.2 1l2 3.4c0 .2.3.3.5.2 1.6-.2 2.8-.7 4.3-1Zm-26-16.5 2 3.2c0 .2.4.4.6.3l4.4-1-1.8-3.3c-.1-.2-.4-.3-.7-.3-1.4.5-2.9.9-4.4 1Zm-9.2-16.5-1.9-3.3-.4-.2-4.8.8 1.8 3c.1.3.5.5.7.4 1.4 0 2.8-.4 4.6-.7Zm7 12.5 1.9 3.2c0 .2.3.3.5.2l4.5-1-1.8-3.2c-.1-.2-.5-.4-.7-.3l-4.4 1.1Zm5.3-1.2 1.9 3.3c.1.2.4.2.7.3l4.5-1-1.9-3.2c0-.1-.5-.4-.7-.3-1.5.2-3 .6-4.5 1Zm14 15 1.8 3.3.5.4 4.4-1.1-1.8-3.3-.7-.3-4.2 1Zm-7.4-2.7 1.9 3.2c.1.2.4.3.7.4l4.4-1.1-1.9-3.3c0-.2-.4-.2-.6-.1a27 27 0 0 0-4.5.9Zm-32.9-38.6-1.7-3c-.1-.3-.2-.4-.5-.5-1.6.2-3 .6-5 .7l1.8 3c.2.2.5.5.7.4 1.5 0 3-.3 4.7-.6Zm21.3 18-2-3.3a.4.4 0 0 0-.5-.1c-1.3.3-2.8.4-4.5 1l1.9 3.2c0 .1.5.4.8.2a16 16 0 0 1 4.3-1Zm30.5 24.6-1.8-3.3-.4-.2-4.3 1 1.9 3.2.5.5c1.4-.6 2.7-.9 4.1-1.2Zm-51.3-42.2 1.8 3c.1.3.4.3.5.5l4.6-.7-1.7-3c-.2-.3-.5-.5-.7-.4-1.4 0-2.8.2-4.5.6Zm16 18.9 1.9 3.2c0 .2.3.3.3.3 1.5-.4 3-.5 4.6-1l-1.8-3c-.1-.2-.5-.4-.7-.3l-4.3.8ZM145.7 353l-.8-1.5c-1-1.8-1-1.8-3-1.4l-3.3.5c.6 1 .8 1.9 1.3 2.8.1.2.4.3.7.3l5-.7Zm35.4 7.6 1.9 3.2c.1.2.4.3.6.2 1.4-.4 2.8-.5 4.6-.8l-1.8-3c0-.2-.4-.3-.7-.4l-4.6.8Zm-24.8-13 1.5 3 .5.4c1.5-.2 3.1-.4 4.8-.9-.7-1-1-2-1.5-3-.1-.1-.5-.4-.7-.3l-4.6.8Zm22.5 9 1.8 3c.1.2.4.3.7.4l4.6-.7-1.8-3.1c0-.2-.5-.4-.6-.3l-4.7.7Zm47.3 43.5 4.4-1-2-3.5c0-.2-.3-.3-.3-.3l-4.2 1.2 2.1 3.6ZM157.5 351l-1.7-2.9-.3-.2-4.8.8 1.4 3c.1.2.4.3.7.4 1.5-.4 3-.8 4.7-1Zm24.1.5c-.6-1-1.2-2.2-1.8-3 0-.2-.3-.3-.6-.4-1.4.1-2.9.5-4.6.8l1.8 3.2c.1.2.4.3.6.2l4.6-.8Zm30 33.9-2-3.3c0-.2-.4-.2-.6-.3l-4.3 1 1.8 3c.1.2.5.5.7.4 1.4 0 2.7-.6 4.3-.8Zm7.3 2.7-1.8-3c-.1-.3-.5-.5-.7-.4l-4.2 1 1.7 3c.2.2.5.5.7.4 1.3-.3 2.6-.5 4.3-1Zm-67.1-36.2-1.8-3c0-.2-.4-.3-.4-.3-1.5.2-3.3.5-4.8.9l1.4 2.8c.1.2.4.2.7.3 1.4 0 3-.3 4.9-.7Zm46.4 18.8 1.8 3c.1.3.4.3.5.5l4.5-1-1.9-3.2c0-.1-.3-.2-.5-.1-1.4 0-2.9.4-4.4.8Zm16 19 2 3.3c0 .2.3.3.3.3l4.3-1-1.8-3.1c0-.2-.5-.4-.7-.3-1 .1-2.4.4-4 .9Zm2.4-5.6-1.9-3.2c-.1-.2-.4-.3-.4-.3l-4.2 1 1.7 3c.1.3.5.5.7.4l4-.9Zm-21.1-17.8-1.8-3-.5-.5c-1.5.4-2.9.5-4.5 1l1.7 3c.2.2.5.4.7.3l4.4-.8Zm.4.5 1.8 3c.1.2.4.3.7.3l4.3-.8-1.7-3c-.1-.2-.5-.5-.7-.4-1.4.1-2.7.4-4.4.9Zm-34.2-20.1 1.7 2.8.5.5 4.8-.9-1.8-3c0-.2-.4-.3-.6-.4-1.4.6-3 .8-4.6 1ZM207 377l-1.9-3.3c0-.2-.3-.2-.3-.2l-4.6.9 2 3.2c0 .2.3.3.5.2a33 33 0 0 0 4.3-.8Zm-27-29.3 1.8 3c0 .2.4.3.6.4 1.4-.1 3-.5 4.5-.7l-1.8-3c0-.2-.4-.3-.7-.4l-4.4.7Zm34.3 32.3-1.9-3.3c0-.2-.4-.2-.7-.3l-4.2 1 1.9 3.2c0 .2.4.3.4.3l4.5-1Zm-25.4-25.7-1.8-3c0-.2-.4-.3-.5-.5l-4.6.8 1.8 3c0 .2.4.3.6.4 1.6-.2 3-.3 4.5-.7Zm4.3 7.9-1.7-3-.5-.4-4.6.8 1.8 3c0 .2.5.5.6.4 1.3-.3 2.8-.7 4.4-.8Zm-9-6.7 1.9 3c0 .3.2.4.4.5l4.7-.7-1.8-3c-.1-.3-.4-.3-.7-.4-1.4 0-2.8.4-4.4.6Zm39.5 31.3a5096.5 5096.5 0 0 0-2.2-3.5l-4.3 1 2 3.2c0 .2.3.3.6.3l4-1Zm-16-18.6-.8-1.5c-1.3-2.1-1.3-2.1-3.6-1.5l-2.4.4 1.8 3c.1.2.5.5.7.4a33 33 0 0 1 4.3-.8Zm-74.9-16.8 1.4 2.8c.1.2.4.3.6.2l5-.8c-.5-1-.8-2-1.3-2.8-.1-.2-.4-.3-.4-.3l-5.3.9Zm67.8 13.7L199 362c-.2-.2-.4-.3-.7-.3-1.3.2-2.9.4-4.4.8l1.8 3c.1.2.4.3.7.4 1.4-.1 2.8-.5 4.3-.8Zm-33.3-19.4 1.5 3 .6.3 4.7-.8-1.8-3c-.1-.2-.4-.3-.4-.3-1.5.4-3 .6-4.6.8Zm47.7 34.6 1.7 3c.1.2.3.6.5.5l4.2-1-1.7-3c-.1-.3-.5-.5-.9-.3-1.2 0-2.4.4-3.8.8Zm-2.8-4.4-1.8-3c-.1-.2-.4-.3-.7-.4l-4.3.8 1.9 3.3c0 .2.4.2.6.3l4.3-1Zm-18-22.5-1.7-2.8c-.1-.2-.5-.5-.7-.4-1.4.1-2.9.5-4.4.7l1.7 3c.1.2.4.3.7.4 1.3-.3 2.8-.7 4.3-.9Zm4.1 7.7-1.7-3a2 2 0 0 0-.5-.5c-1.4 0-2.9.5-4.5.6l1.8 3.1c.1.2.4.3.7.3 1.5.1 2.8-.1 4.2-.5Zm-13-14.1 1.8 3c.1.2.4.3.7.4 1.4-.1 2.9-.5 4.4-.7l-1.7-3c-.1-.2-.4-.3-.6-.2-1.7 0-3 .1-4.5.5Zm34 41.3 1.8 3c.1.3.5.5.5.5 1.3-.2 2.8-.6 4.2-1l-1.7-3c-.1-.2-.5-.5-.9-.3l-3.9.8Zm-29.7-33.7 1.7 3.1c.1.2.4.3.7.3 1.3-.2 2.9-.4 4.3-.8l-1.7-3c-.1-.2-.4-.3-.6-.2-1.6.2-2.9.5-4.4.6Zm-17-9.6 1.8 3c.1.2.4.3.4.3l4.6-.8-1.6-2.9c-.1-.1-.5-.4-.7-.3-1.2 0-2.7.4-4.4.7Zm44.5 29.8-1.8-3c-.1-.3-.4-.3-.7-.4-1.3.2-2.6.5-4.2 1l1.7 3c.2.2.5.5.7.4l4.3-1Zm2.2 4-1.7-3.1c-.1-.2-.4-.3-.4-.3l-4 1 2 3.3a35 35 0 0 0 4.1-1ZM210 372l-1.8-3c0-.2-.5-.5-.7-.3l-4.3.8 1.8 3c0 .2.5.5.7.4 1.3-.1 2.8-.5 4.3-.9Zm2.7-4.9-1.8-3c0-.2-.5-.5-.7-.4-1.2.3-2.5.6-4.1.8l1.8 3c0 .2.3.3.6.3 1.4 0 2.7-.3 4.2-.7Zm-9.2-6.7-1.7-3-.7-.4c-1.3.3-2.6.6-4.2.7l1.8 3.1c0 .2.4.3.6.2l4.2-.6Zm-4.2-7.6-1.7-3.1c-.1-.2-.4-.3-.4-.3l-4.5.7 1.8 3c.1.2.4.3.7.4 1.3-.3 2.6-.6 4.1-.7ZM215 371l-1.8-3c-.1-.3-.4-.3-.7-.4l-4.1.7 1.7 3c.1.3.5.5.7.4 1.4 0 2.6-.5 4.2-.7Zm-15.9-9.6 1.8 3c0 .3.4.3.6.4l4.2-.7c-.6-1-1.2-2.2-1.8-3 0-.2-.4-.3-.5-.5a33 33 0 0 1-4.3.8Zm-3.6-16.2 1.8 3.1c.1.2.4.3.4.3 1.3-.3 2.7-.4 4.2-.8l-1.8-3c-.1-.2-.5-.5-.7-.3-1 .3-2.3.6-3.9.7Zm-5 1 1.8 3 .5.5c1.4 0 2.9-.5 4.5-.6l-1.8-3.1c-.1-.2-.5-.4-.7-.3-1.4 0-2.8.1-4.2.5Zm-12.3-2.2 1.7 2.9c0 .1.2.3.4.2l4.6-.7-1.7-3-.5-.4c-1.3.6-3 .8-4.5 1Zm30.3 15.4-1.7-3c0-.1-.2-.3-.5-.4l-4.3.9 1.8 3c0 .2.4.3.6.4 1.2-.5 2.5-.7 4.1-1Zm-13.8-5.5 1.7 2.8.5.5 4.3-.8-1.6-3c-.1-.1-.5-.4-.7-.3l-4.2.8Zm-11.4-10.7 1.7 2.9c0 .2.4.4.4.4 1.4 0 3-.4 4.5-.6l-1.7-3s-.5-.3-.7-.2l-4.2.5Zm27.4 20-1.8-3.1c0-.2-.4-.3-.7-.3l-4.1.7 1.8 3c0 .2.3.3.6.4 1.4-.1 2.6-.6 4.2-.8Zm-22-20.7 1.7 3c.1.2.2.4.4.3 1.4 0 2.9-.4 4.5-.6l-1.7-3-.8-.4c-1.4 0-2.7.3-4.1.7Zm17.6 13-1.7-3-.4-.2c-1.3.2-2.7.3-4.2.7l1.7 2.9.5.4 4.1-.7Zm-8.6-6.5 1.8 3c0 .3.4.3.4.3 1.3-.2 2.7-.3 4.1-.7l-1.7-3c-.1-.2-.4-.3-.7-.4-1 .4-2.3.6-3.9.8Zm2.4-4.7-1.7-2.9-.7-.3c-1.4 0-2.7.4-4.2.5l1.6 3 .7.3 4.3-.6ZM293.2 384.7a513 513 0 0 0-17 4.3c-13 3.2-26 6.3-38.9 9.7-1 .3-1.4 0-2-.8l-30-53.4-3.1-5.4 7.8-1.4c15.5-2.8 30.9-5.4 46.5-8 .9 0 1.5.2 2 1 7.5 11.8 15.1 23.8 22.8 35.4l11.4 17.7.5.9Zm-50 6.7-1.8-3.2c-.2-.2-.4-.3-.7-.3l-4.3 1 2 3.2c0 .2.4.4.6.3l4.2-1Zm2.4 4.2-2-3.4c0-.2-.4-.3-.4-.3l-4.2 1 2.2 3.8 4.4-1.1Zm4.9-1.2-1.9-3.2c0-.2-.4-.3-.7-.3l-4 .9 1.9 3.2c0 .2.4.3.6.3l4-.9Zm-4.1-8 2 3.5c0 .2.3.3.5.2l4-1-1.8-3.2c-.1-.2-.4-.2-.7-.3-1.4 0-2.7.6-4 .9Zm1.7 3.9-1.9-3.2c0-.2-.5-.5-.6-.4l-4.1 1 2.2 3.7c1.4-.5 2.6-.8 4.4-1.1Zm.7.3 1.8 3.3c.1.2.4.2.7.3a22 22 0 0 0 4-1l-2-3.3c0-.2-.3-.3-.6-.3-1.5.3-2.6.8-4 1Zm-14.6-6 2 3.3.4.4 4-.9-1.8-3.2c-.1-.2-.5-.5-.7-.4l-3.9.8Zm5-1.1 1.8 3.2c0 .2.4.3.7.4l4-1-1.9-3.2c0-.2-.4-.2-.6-.3l-4 .9Zm-.8-.3-1.8-3.3c-.1-.2-.5-.4-.7-.3a92 92 0 0 0-4 .9l2 3.4c0 .2.3.3.5.2l4-1Zm16.8.6-1.9-3.2c0-.2-.5-.5-.7-.4l-3.8.8 1.8 3.3c.1.2.4.2.6.1 1.5.1 2.5-.2 4-.6Zm-18.4-4.3 1.9 3.3.7.3 4-.9-1.8-3.2-.7-.4c-1.4.1-2.6.6-4 1Zm19 4.6 2 3.3c0 .2.3.2.3.2l4-.9-1.8-3.2c-.1-.2-.4-.3-.7-.3l-3.7 1Zm-2.2 5.4 2.1 3.6 4.3-1-2-3.3-.6-.3c-1.3.3-2.6.5-3.7 1Zm-3.3-4.6-1.9-3.2c0-.2-.4-.2-.4-.2l-4 .9 1.9 3.2c0 .2.5.4.6.3 1.3-.2 2.5-.7 3.8-1Zm-8.6-6.5 1.9 3.2c0 .2.4.3.4.3 1.3-.3 2.5-.5 4-1l-1.9-3.2c0-.1-.4-.4-.6-.3l-3.8 1Zm-7.3-3 2 3.2c0 .2.3.3.6.4l4-1-1.8-3.2a.4.4 0 0 0-.6-.1c-1.4 0-2.6.5-4.2.7Zm-4.8 1.1 1.8 3.3.4.2 4-.9-1.7-3c-.1-.2-.4-.3-.7-.4l-3.8.8Zm33.5 10.6 1.9 3.3c.1.2.4.2.4.2 1.3-.2 2.6-.5 3.7-1l-1.8-3.2c-.1-.2-.4-.2-.7-.3-1 .3-2.2.8-3.5 1Zm-5.5.8-1.9-3.2c-.1-.2-.4-.2-.4-.2l-4 .9 2 3.6 4.3-1Zm-21.6 1-4 .9 1.9 3.4c.1.2.4.3.6.2l3.7-1c-.8-1-1.5-2.2-2.2-3.5Zm-8.7-16.3 1.7 3c.1.2.5.5.7.4l4-1c-.6-1-1-2-1.7-3-.1-.2-.5-.4-.7-.3l-4 .9Zm19.1 4.8 1.9 3.2c0 .2.4.3.6.3l4-.8-2-3.2c0-.2-.3-.3-.6-.3-1.2 0-2.4.4-3.9.8Zm-18.7-13.7 1.7 3 .7.4 4-1-1.9-3.3-4.5.9Zm39.2 22-2-3.2c0-.2-.3-.3-.3-.3l-3.9.8 1.9 3.2c.1.2.5.5.7.4l3.6-.9Zm-27.7-11.2 1.8 3.1c.1.2.5.4.7.3a92 92 0 0 0 4-.9l-1.7-3c-.1-.2-.5-.5-.7-.4-1.4.1-2.6.6-4 1Zm-5 .5 4.3-1-1.8-3-.5-.5-4 1 2 3.5Zm24.2 13.2 1.9 3.2c.1.2.4.3.6.2l3.7-1-2-3.4a.4.4 0 0 0-.5-.2c-1 .6-2.4 1-3.7 1.2Zm-21.8 9.7 4-.9-2-3.4c0-.2-.3-.3-.4-.5l-3.8 1 2.2 3.8Zm31.1-12 1.8 3c0 .3.5.5.5.5 1.3-.2 2.6-.5 3.7-1l-1.8-3.2c-.1-.2-.4-.2-.7-.3-.9.5-2.2.8-3.5 1Zm3.8-1.4-2-3.2c0-.2-.3-.3-.5-.2l-3.6.9 1.9 3.2c.1.2.4.3.6.2 1.3-.3 2.4-.5 3.6-1Zm-11.6-1.7-1.9-3.3-.4-.2-3.9.8 1.8 3c.1.2.5.5.7.4l3.7-.7Zm-30-15.2 1.8 3.1.5.4 4-.9c-.5-1-1-2-1.7-3 0-.2-.5-.5-.7-.3l-3.8.7Zm27.6 11-1.8-3c0-.2-.5-.5-.7-.4l-3.8.8 1.8 3.3.4.2c1.4 0 2.6-.5 4-.9Zm15 6.2 2 3.2c0 .2.5.5.6.4l3.8-1-1.9-3.2c0-.2-.4-.3-.6-.4l-3.8 1Zm-14.2-5.7 1.8 3.3c.1.2.4.2.6.1 1.3-.2 2.6-.5 3.8-1l-1.9-3.2c-.1-.2-.4-.2-.6-.1-1.3.2-2.5.5-3.7 1Zm22.3 3.3-1.9-3.3c-.1-.2-.4-.2-.6-.1-1.3.2-2.4.4-3.7 1l2 3c.1.3.4.3.6.2 1.3-.2 2.5-.7 3.6-.8Zm-24.7-7.4 1.7 3 .5.5 4-.8-1.9-3c0-.2-.5-.5-.6-.4l-3.7.7Zm20.3 8.5-2-3.3c0-.2-.3-.2-.3-.2-1.3.2-2.6.5-3.8 1l1.9 3.2c.1.2.4.2.6.1l3.6-.8Zm.8.2 1.9 3.2c0 .2.4.3.5.2l3.6-.9-1.8-3.2c-.1-.2-.4-.3-.7-.4-1.2.5-2.2.8-3.5 1Zm-41.2 4.8-1.9-3.2c-.1-.2-.4-.3-.7-.3-1 .1-2.3.6-3.6.8l2 3.3c0 .2.3.2.3.2l3.9-.8Zm-8.5-6.8 1.8 3.2c.1.2.4.3.7.4l3.6-.9-1.9-3.2c0-.2-.5-.5-.7-.4l-3.5.9Zm39.4-5c-.6-1.1-1.2-2.2-1.8-3 0-.3-.4-.3-.6-.4-1.3.3-2.6.5-3.6.9l1.7 3c.1.2.4.3.7.3l3.6-.8Zm-14-5.9-1.7-3c-.1-.2-.4-.3-.7-.4l-3.9.8 1.8 3c0 .3.4.3.7.4 1.4 0 2.5-.5 3.8-.8ZM263 378l1.8 3.3c.1.2.4.2.4.2 1.3-.2 2.6-.5 3.8-1l-1.8-3c0-.2-.5-.4-.7-.3l-3.5.8Zm-18.8-4.5 1.8 3c0 .2.4.3.4.3l3.8-.8-2-3.4-4 .9Zm-14.8-6-1.8-3.1c0-.2-.5-.5-.6-.4l-4 .8 2 3.3c0 .1.3.2.5.1l3.9-.8Zm2.2 3.7-1.8-3c0-.2-.5-.5-.7-.4l-3.8.8 1.7 3c.1.2.4.3.7.4l3.9-.8Zm11.8 1.8-1.8-3.3-.4-.2-4 .9 1.7 3c.1.2.4.3.7.4 1-.2 2.4-.4 3.8-.8Zm11.7 1.9-1.7-3c-.1-.3-.4-.3-.5-.5l-4 .8 1.8 2.9c0 .1.4.4.6.3 1.3.2 2.5-.3 3.8-.5Zm-7-3-1.7-3c-.1-.2-.4-.3-.7-.3l-3.9.8 1.8 3c.1.2.5.5.7.3 1.4 0 2.5-.5 3.8-.7Zm24 4 2 3.1c.1.2.4.3.4.3 1.3-.3 2.6-.5 3.6-.9l-1.8-3c0-.2-.4-.3-.6-.4-1 .4-2.3.6-3.6.9Zm-33.3-10.5-1.7-3c0-.1-.5-.4-.6-.3l-3.7.7 1.7 3c.1.3.5.5.7.4l3.6-.8ZM265 373l1.9 3.3c0 .2.3.2.5.1l3.6-.8-1.9-3.3c0-.2-.3-.2-.5-.1-1.1.1-2.3.6-3.6.8Zm8.5 6.4-1.9-3.2a.4.4 0 0 0-.6-.2c-1.2.3-2.4.5-3.5.9l1.8 3.2c.1.2.4.3.6.2 1.3-.3 2.4-.4 3.6-.9Zm-42.4.8-1.8-3.1-.5-.4-3.9.8 2 3.2c0 .2.3.2.6.3 1-.1 2.1-.5 3.6-.8Zm20-12.8 1.9 3.2c.1.2.4.3.6.2l3.8-.8-1.7-3a.4.4 0 0 0-.6-.2c-1.5-.1-2.7.3-4 .6Zm-25.7-7.5 1.8 3c0 .2.4.3.5.2l4-.9-1.6-2.9-.6-.3c-1.3.3-2.6.5-4.1 1Zm53.5 18.8c.6 1.1 1.4 2 2 3.2.1.1.5.4.7.3l3.4-.8-1.9-3.2c0-.2-.4-.3-.6-.2-1.2 0-2.2.4-3.6.7Zm-44.3-12 1.7 3c.1.2.4.2.6.1l3.9-.8-1.8-3c-.1-.2-.4-.3-.7-.4-1 .4-2.3.6-3.7 1Zm53.2 18.4c-.6-1.1-1.4-2-2-3.2l-.7-.3-3.6.9 2 3.1c.2.2.4.3.7.3 1.1-.1 2.3-.6 3.6-.8Zm-69.3-28 2 3.5c1.3-.3 2.8-.7 4.3-.8l-1.7-3.1c-.1-.2-.4-.3-.7-.3-1.1.1-2.4.4-3.9.8Zm10.3 19-1.8-3-.7-.3a68 68 0 0 0-3.6.7l1.7 3c.1.2.5.5.7.4 1.2 0 2.4-.4 3.7-.7Zm8.5-14.4 1.6 2.9c.1.2.5.4.7.3l3.9-.8-1.8-3a.4.4 0 0 0-.6-.2c-1.4.4-2.5.5-3.8.8Zm-14.8-5.9-1.7-3c-.1-.2-.4-.3-.4-.3l-4.2.7 1.7 2.9c.1.2.5.4.7.3 1.4 0 2.7-.3 4-.6Zm.7.3 1.8 3c0 .3.4.3.4.3l4.1-.7-1.6-2.9c-.1-.1-.5-.4-.7-.3-1.2 0-2.5.3-4 .6Zm36.4 17.6-1.7-3c-.2-.2-.4-.3-.6-.2a67 67 0 0 1-3.7.7c.6 1.1 1.2 2.2 1.8 3 0 .3.3.3.6.4l3.6-.9Zm-18.5-13.3-1.7-2.8c0-.2-.4-.5-.4-.5l-4 .8 1.7 2.9c.1.2.5.4.7.3a67 67 0 0 0 3.7-.7Zm-10.9-1.3 1.7 2.8c0 .2.5.5.6.4l4-.8-1.8-3-.6-.2c-1.4 0-2.4.4-3.9.8Zm11.6 1.7 1.6 2.9c.1.1.5.4.7.3l3.9-.8-1.7-2.9c0-.2-.5-.4-.6-.3l-4 .8Zm33.7 13.8-1.7-3c-.1-.2-.4-.3-.4-.3l-3.9.8 2 3.2.4.2 3.6-.9ZM227 363.4l-1.7-3-.4-.4-4.1 1 2 3.4 4.2-1Zm31.1 6.7 1.8 3c0 .3.4.3.4.3 1.3-.2 2.5-.5 3.7-1l-1.7-3c-.1-.2-.7-.3-.9-.2-.9.5-2 .7-3.3 1Zm10.7 1.5c-.7-1.3-1.5-2.2-2.1-3.3l-4 .9 1.6 2.9c0 .2.5.4.7.3 1.4 0 2.5-.5 3.8-.8ZM227.4 355l-1.6-2.8c-.1-.2-.5-.5-.7-.4l-3.9.8 1.8 3c.1.3.4.3.6.2 1.2-.4 2.5-.7 3.8-.8Zm7 2.8-1.8-3a.4.4 0 0 0-.6-.2l-3.9.8 1.7 2.9c0 .1.5.4.7.3l3.8-.8Zm-16.1 8 1.8 3.1c0 .2.4.4.4.4l4-.7-1.8-3.1c-.2-.2-.5-.4-.7-.3-1.1.1-2.4.4-3.7.7Zm64.4 11.6-1.9-3.3-.4-.2c-1.3.3-2.4.4-3.7 1 .6 1 1.2 2.1 2 3l.6.3c1.1-.2 2.1-.6 3.4-.8Zm-57.4-26.1-1.7-3c-.1 0-.4-.2-.6 0l-3.8.7 1.6 3 .5.3c1.4-.5 2.7-.8 4-1Zm14.2 14.3 1.8 3c.1.2.4.3.7.4l3.9-.8-1.8-3c-.1-.3-.4-.3-.6-.2a28 28 0 0 0-4 .6Zm-23-20.8-1.7-2.9-.5-.4c-1.3.3-2.5.5-4 .6l1.8 3c.1.3.4.3.6.2 1 .1 2.3-.1 3.8-.5Zm4.2 7.4-1.6-2.9-.5-.4-4.2.7 1.7 2.9c.1.2.4.2.7.3l4-.6Zm5.9 20.1-1.8-3c0-.2-.4-.3-.6-.4l-3.7.7 1.7 3c.1.3.4.3.7.4 1.1-.1 2.4-.4 3.7-.7Zm47.6-1.3 1.8 3c0 .2.4.3.6.4l3.6-.9-1.7-3c-.1-.2-.5-.5-.7-.4l-3.6 1Zm-55.6-22.6-1.7-2.9-.5-.4c-1.3.3-2.6.5-4 .6l1.7 2.9c.1.2.4.2.6.1a8 8 0 0 0 3.9-.3Zm2.5-4.3-1.8-3.1c0-.2-.3-.3-.3-.3-1.3.3-2.6.6-4 .7l1.6 2.8c.1.2.4.3.7.4l3.8-.5Zm46.2 24.2 1.8 3c0 .2.4.3.7.4l3.5-1-1.7-3c-.1-.2-.4-.2-.6-.1-1.4 0-2.6.5-3.7.7Zm-51.3-6.4c.6 1 1.2 2.2 1.8 3 0 .2.4.3.6.4l3.7-.7-1.7-3c-.1-.2-.5-.5-.7-.4-1.1.2-2.1.5-3.7.7Zm29.7-2.3-1.7-3a.4.4 0 0 0-.6-.2l-3.7.7 1.9 3.2c.9 0 1.9-.4 2.8-.4.5 0 .9-.3 1.3-.3Zm10.2 6.8 1.8 3.1c0 .2.5.4.5.4l3.6-.8-1.8-3c-.1-.3-.4-.3-.7-.4-1 .1-2 .5-3.4.7Zm-35.8-5.7-1.7-3c-.1-.2-.4-.3-.4-.3l-3.9.8 1.8 3c0 .2.5.5.6.4 1-.4 2.3-.6 3.6-.9Zm44.8 3.7 1.7 3c.1.2.2.4.4.3l3.9-.8-1.8-3c0-.2-.4-.3-.7-.4-1.1.5-2.3.6-3.5 1Zm1.5 3.5c-.7-1.1-1.2-2-2-3 0-.2-.4-.3-.7-.3-1.2.2-2.4.4-3.5.8l1.7 3.1c.1.2.4.3.7.3 1.3-.2 2.6-.5 3.8-1ZM217 345l1.6 3c.1.1.4.2.6 0l3.9-.7-1.7-2.9c0-.2-.5-.4-.7-.3l-3.7 1Zm29.6 14.6 1.6 3c.1.1.5.4.7.3l3.7-.7-1.8-3.1a.4.4 0 0 0-.5-.2l-3.7.7Zm7 3 1.6 2.8c.1.2.4.3.7.4 1.3-.3 2.4-.4 3.6-.9l-1.7-2.9c0-.2-.4-.2-.7-.3-1.2.3-2.4.4-3.5.9Zm-9.4 1.7 1.8 3.1c.1.2.4.3.6.2l3.8-.8-1.7-3.1c-.1-.2-.4-.3-.4-.3l-4 1Zm-5.2-7.7-1.6-3-.7-.3-3.7.7 1.7 3 .6.3 3.7-.7Zm5.4-.7 1.7 2.8c0 .2.3.3.6.4l3.7-.7-1.6-2.9c-.1-.2-.4-.3-.7-.3l-3.7.7Zm13.6 5.6 1.6 2.8c.1.2.4.3.7.4l3.6-.9-1.7-2.9c0-.2-.5-.4-.6-.3l-3.6.9Zm-22.7-11.9 1.6 2.9.5.4 3.9-.8-1.7-2.8c0-.2-.5-.5-.7-.4-1.2 0-2.4.5-3.6.7ZM255 366l-1.8-3c-.1-.2-.4-.3-.6-.2a68 68 0 0 1-3.7.7l1.8 3c.1.3.4.3.6.2 1.2 0 2.4-.4 3.7-.7Zm-43-11.6c.6 1.3 1.3 2.3 1.9 3.4l4-.9-2-3.4c-1.2.3-2.5.5-4 1Zm3.8-1.3-1.7-2.8c-.1-.2-.4-.3-.4-.3l-3.9.8 1.8 3c.1.2.4.3.6.2l3.6-.9Zm67.6 24.6c.7 1.3 1.4 2 2 3.2.1.1.4.2.6.1 1.1-.2 2.3-.6 3.3-1l-1.8-3c0-.2-.4-.3-.6-.3-1.2.4-2.2.8-3.5 1Zm-32.1-18.9 1.7 3c.1.2.4.3.4.3l3.9-.8-1.7-2.9c0-.1-.5-.4-.6-.3l-3.7.7Zm40.7 25.5a19 19 0 0 0-2-3c0-.2-.5-.4-.7-.3-1 .1-2 .5-3.4.8l2.3 3.4 3.8-1Zm-14.2-14.6c-.7-1.1-1.2-2-2-3 0-.2-.5-.4-.7-.3-1 .1-2.3.6-3.4.8l1.8 3c.1.2.5.4.7.3l3.6-.8Zm-34.3-13.9L242 353c-.1-.2-.5-.5-.7-.4l-3.9.8 1.7 2.9c.1.2.4.3.7.3l3.8-.8Zm-17-12.4 1.5 2.7.5.4 3.9-.8-1.7-2.9c0-.2-.3-.2-.3-.2l-4 .8Zm42 19.8-1.6-2.8c-.1-.2-.5-.5-.7-.4l-3.7.7 1.7 3s.4.3.6.2l3.7-.7Zm-12.7-5.3 1.7 2.9.6.3 3.7-.7-1.7-3-.7-.4c-1.2.5-2.5.7-3.6.9Zm-29.9-6.3 1.7 2.9c.1.2.4.2.7.3l3.7-.7-1.7-2.9-.4-.2c-1.4 0-2.5.2-4 .6Zm43.5 11.9 1.7 3c.1.2.4.3.4.3l3.6-.9-2-3c0-.1-.3-.2-.5 0-1 0-2 .3-3.2.6Zm-40.8-16.5 1.6 2.8c.1.2.4.3.6.2l3.7-.7-1.7-2.9c0-.2-.5-.4-.7-.3l-3.5.9Zm52.3 26.9c.6 1 1.1 2 2 3 0 .1.4.4.6.2 1.1-.1 2.1-.5 3.4-.7-.7-1.3-1.5-2.3-2.1-3.3l-3 .5-.9.3Zm-50.3-23.3 1.7 2.8c.1.2.4.3.4.3l3.9-.8-1.7-2.9c-.1-.2-.4-.2-.7-.3l-3.6.9Zm-.6-.4c-.5-.7-.8-1.2-1-1.8-1-1.4-1-1.4-2.4-1l-2.6.5 1.7 2.9c.1.2.5.4.7.3l3.6-.9Zm-18.3-4.5-1.7-3-.7-.2a68 68 0 0 0-3.6.6l1.6 3c.1.1.5.4.9.2l3.5-.6Zm54.4 13.7-1.8-3c-.1-.2-.4-.3-.6-.2l-3.5.6 1.8 3c0 .2.4.3.5.2 1.3 0 2.4-.2 3.6-.6Zm-11.2-1.7-1.6-3a.4.4 0 0 0-.6 0l-3.7.6 1.7 2.9c0 .2.5.4.7.3l3.5-.8Zm-6.8-2.8-1.7-2.9a.4.4 0 0 0-.6-.1l-3.7.7 1.7 2.8c.1.2.5.5.7.4l3.6-.9Zm5.3-.7 1.6 2.7c0 .2.5.4.7.3l3.5-.6-1.8-3a.4.4 0 0 0-.6-.2c-1 .4-2.3.6-3.4.8Zm-14.3-5.6-1.7-3-.5-.4-3.8.8 1.6 3 .7.2 3.7-.6Zm18 4.4-1.7-2.8c0-.2-.4-.3-.6-.4l-3.6.6 1.8 3c.1.3.4.3.6.2l3.5-.6Zm-27-10.8-1.6-2.9c-.1-.2-.4-.2-.7-.3l-3.7.7 1.7 2.9.7.3c1.3 0 2.4-.4 3.6-.7Zm31.3 10-1.6-2.9-.7-.3-3.5.6 1.5 2.7c.1.2.5.4.7.3 1.3.2 2.5-.2 3.6-.4Zm-26.6-10.7-1.7-3c-.1-.1-.4-.2-.6 0l-3.7.6 1.7 2.9c.1.2.5.4.7.3 1.2-.4 2.3-.6 3.6-.8Zm-13.1 2.7 1.6 2.9c.1.2.5.4.7.3l3.7-.7-1.7-2.8c0-.2-.3-.3-.6-.4a68 68 0 0 0-3.7.7Zm-2.1-3.6 1.7 2.9c0 .2.3.3.5.4 1.2-.2 2.5-.5 4-.6l-1.7-2.9c-.1-.1-.5-.4-.7-.3-1.2 0-2.5.3-3.8.5Zm59 29.3 1.8 3c0 .2.5.5.7.4l3.4-.8c-.7-1-1.5-2-2-3l-.7-.3-3.2.7ZM258 353.2l1.7 2.9.5.4 3.7-.7-1.7-2.9c0-.2-.4-.2-.6-.3l-3.6.6Zm-20.2-8a4531 4531 0 0 0 2.2 3.3l3.6-.7-1.6-2.9-.7-.3c-1 0-2.2.3-3.5.6Zm9.1 6.2 1.8 3c.1.3.4.3.4.3l3.7-.6-1.8-3.1c0-.2-.4-.3-.4-.3-1.3.3-2.6.6-3.7.7Zm-1.1-.3-1.7-2.9-.6-.3-3.7.7 1.6 2.9c.1.2.4.2.7.3 1.4 0 2.7-.3 3.7-.7Zm21.3 8.6 1.7 2.9c0 .2.5.4.6.3 1.2-.1 2.4-.4 3.6-.9l-1.8-2.7c-.1-.2-.4-.3-.7-.4l-3.4.8Zm-16.7-9.3-1.5-2.7c-.1-.2-.5-.5-.7-.4a58 58 0 0 0-3.5.6l1.6 3 .7.2c1-.3 2.3-.6 3.4-.7Zm-35.9-9.3-1.4-2.5-.5-.4c-1.3.2-2.6.5-4 .6l1.5 2.7c.1.2.4.2.7.3 1 0 2.2-.3 3.7-.7Zm32.3 2.2 1.7 3 .7.2 3.7-.6c-.7-1.1-1.2-2-1.9-2.8 0-.2-.4-.3-.4-.3l-3.8.5Zm-39.1 3.4 1.6 3c.1.1.5.4.7.3l3.7-.7-1.7-3-.7-.2-3.6.6Zm25.8-8.6 1.5 2.7c.1.2.5.4.7.3 1.1-.1 2.4-.4 3.7-.7l-1.7-2.8c0-.2-.4-.3-.7-.4-1 .4-2.3.6-3.5.9Zm42.9 28c.6 1.1 1 2 1.7 3 .1.3.4.3.6.2 1.1-.1 2.1-.5 3.4-.7-.6-1.1-1.4-2-2-3.2-.2-.1-.4-.2-.6-.1-1 .3-2 .7-3.1.8ZM248 346.6l-1.6-2.9c-.1-.2-.4-.2-.7-.3l-3.5.6 1.7 2.9.6.3c1.2 0 2.2-.3 3.5-.6Zm-4.5-7-1.6-2.9c-.1-.2-.4-.2-.7-.3l-3.5.6 1.5 2.7c.1.2.5.4.7.3a9 9 0 0 0 3.6-.4Zm-12.6 2.7 1.7 3 .5.4c1.2-.3 2.5-.6 3.6-.7l-1.6-3c-.1-.1-.5-.4-.7-.3l-3.5.6Zm33.8 13.6 1.7 2.9c0 .2.5.4.7.3l3.7-.7c-.7-1-1.2-2-1.9-2.7 0-.2-.4-.3-.7-.4-1.4.1-2.4.5-3.5.6Zm-5.7-7.5-1.7-2.8c-.1-.2-.4-.3-.7-.4a67 67 0 0 0-3.7.7c.7 1.1 1.2 2 1.9 2.8 0 .2.4.3.7.3a11 11 0 0 0 3.5-.6Zm-4.3 1-1.6-2.8c-.1-.2-.4-.3-.4-.3l-3.7.7 1.7 2.9c0 .2.3.2.3.2l3.7-.6Zm5.4-.6 1.7 2.8c0 .2.4.3.4.3l3.6-.7-1.6-2.9c-.1-.2-.4-.2-.6-.1-1.4 0-2.4.4-3.5.6Zm13.4 13.6 2 3 .3.2 3.6-.9c-.7-1.2-1.4-2-2.1-3.3l-3.8 1ZM241.4 344l-1.7-2.8c-.1-.2-.4-.3-.4-.3l-3.7.7 1.7 2.9.7.3 3.4-.8Zm3-4.2 1.7 3 .7.2 3.5-.5-1.6-3-.7-.3-3.5.6Zm6.8 2.6 1.8 3c.1.2.4.3.6.2l3.5-.6-1.7-2.9-.4-.2c-1.4 0-2.6.3-3.8.5Zm17 12.3c-.6-1-1.1-2-1.8-2.8a68 68 0 0 0-4.3.5l.7 1.3c1.2 2 1.2 2 3.3 1.5 1 0 1.5-.4 2.1-.5Zm6.5 3-1.6-3-.7-.3-3.4.8 2 3c0 .1.3.2.5.1l3.2-.7Zm-65-15.7-1.7-2.7c0-.2-.3-.3-.4-.5-1.3.3-2.4.5-4 .6l1.5 2.7c.1.2.5.5.7.4a18 18 0 0 0 3.8-.5Zm53.9 5.5-1.7-2.9-.7-.3a58 58 0 0 0-3.5.6l1 1.6c1 1.6 1 1.6 2.8 1.2.8 0 1.4 0 2-.2Zm-21.1-11 1.7 2.8c0 .2.3.3.3.3l3.7-.7-1.5-2.7c-.1-.2-.4-.3-.7-.4a11 11 0 0 0-3.5.6Zm27.5 13.8-1.7-2.9c0-.2-.4-.2-.5-.4l-3.6.7c.6 1 1.1 2 1.8 2.7.1.2.5.5.7.4 1.2 0 2.3-.2 3.3-.5Zm-52.3-13 1.6 2.7c0 .2.4.2.4.2l4-.6-1.6-2.7a.4.4 0 0 0-.6-.1c-1.2 0-2.5.2-3.8.5Zm22.4 3.4 1.7 2.8c.1.2.4.3.4.3l3.7-.7-1.7-2.9c0-.2-.4-.2-.7-.3l-3.4.8Zm-21.2-.5-1.5-2.7a.4.4 0 0 0-.6-.2c-1.3.3-2.6.6-4 .6l1.5 2.6c0 .1.5.4.6.3 1.4 0 2.7-.4 4-.6Zm58.4 21c-.7-1-1.2-2-2-3 0-.1-.4-.2-.5 0-1.2 0-2.3.5-3.5.7.7 1 1.5 2 2.1 3.1l3.9-.8ZM252.6 338l-1.6-2.7c0-.1-.5-.4-.7-.3l-3.5.6 1.7 2.9c.1.2.4.2.6.1l3.5-.6Zm2.1 3.4-1.5-2.7-.5-.5-3.5.6 1.6 2.9c.1.2.4.2.6.1 1 .2 2-.2 3.3-.4Zm12 10.1c.5 1.1 1.2 1.9 1.9 3 0 .2.4.2.5.1l3.3-.6-1.7-3c-.1 0-.5-.3-.7-.2-1 .1-2 .5-3.4.7Zm1.2-4.8c-.6-1-1-1.8-1.7-2.6l-.5-.4-3.5.6 1.5 2.7c.1.1.5.4.7.3 1.2 0 2.2-.3 3.5-.6Zm-12.5-5c.6 1 1.1 2 1.8 2.8l.5.4 3.5-.6-1.5-2.7c-.1-.2-.5-.4-.7-.3-1-.1-2.3.1-3.6.4Zm-4.2-7 1.8 2.8c.1.2.4.3.6.2l3.5-.6-1.6-2.7c0-.2-.4-.2-.6-.3l-3.7.7Zm7.9 5.8-1.6-2.7c-.1-.2-.5-.4-.7-.3l-3.5.6 1.9 2.8c0 .1.4.2.5.1 1.3 0 2.4-.1 3.4-.5Zm4.3-.8-1.8-2.8c-.1-.2-.4-.2-.4-.2-1.1.1-2.2.3-3.4.7l1.5 2.7c.1.2.5.5.7.4l3.4-.8Zm-35.2-1-1.5-2.5c0-.2-.4-.3-.7-.4l-3.7.7 1.5 2.5c.1.2.4.3.7.4 1.3-.3 2.3-.6 3.7-.7Zm37.5 4.5-1.9-2.8c0-.2-.4-.2-.6-.1-1 .1-2.2.3-3.4.7l1.6 2.7c.1.2.5.5.7.4l3.6-.9Zm-4.5-6.8-1.8-2.8c-.1-.2-.4-.2-.4-.2l-3.5.5 1.6 2.7c0 .2.5.5.6.4a58 58 0 0 0 3.5-.6Zm-34.3-.8 1.4 2.5c.1.2.4.3.7.4l3.7-.7-1.4-2.4c0-.2-.5-.4-.6-.3-1.3 0-2.5.2-3.8.5Zm10.1 1.3-1.4-2.5c-.1-.2-.4-.2-.4-.2-1.1.1-2.4.4-3.7.7l1.4 2.5c.1.2.4.2.6.1l3.5-.6Zm4.6-.7-1.3-2.4-.7-.3-3.5.6 1.5 2.5c0 .2.4.3.6.4 1-.4 2.2-.5 3.4-.8Zm4.4-.8-1.5-2.6c0-.1-.3 0-.4-.2l-3.7.7 1.4 2.3c.1.2.4.3.7.4a58 58 0 0 0 3.5-.6Zm-1.1-2.8 1.2 2.2c.1.2.5.4.7.3l3.5-.6-1.2-2.1c-.1-.2-.5-.5-.7-.3l-3.5.5Zm4.3-.8c.5 1 1 1.6 1.6 2.2 0 .2.3.3.5.2l3.5-.6-1.3-2.3a.4.4 0 0 0-.6-.2l-3.7.7Zm4.5-.6 1.2 2.1c.1.2.5.5.7.4l3.5-.6c-.5-1-1.1-1.5-1.5-2.3a26315.4 26315.4 0 0 0-3.9.3ZM345.2 372.2l-48 11.8c-.8-1.4-1.9-2.7-2.7-4.2-7.7-12-15.2-24.3-23-36.4l-8.5-13.5c-.5-1-.3-1 .5-1.3l46.2-7.5c.7-.1 1 .2 1.4.7l13.8 20.6c5.5 8.3 11.2 16.5 16.8 24.6 1.2 1.7 2.3 3.2 3.5 5.2Zm-46.4 6.3-1.7-3c-.2-.2-.4-.3-.6-.2l-3.4.8 2 3c0 .1.3.2.5.1 1.2 0 2.2-.3 3.2-.7Zm4.3-1c-.7-1-1.5-2-2-3-.1-.1-.4-.2-.6 0-1 0-2 .4-3 .8.5 1 1 2 1.7 3 0 .2.4.3.5.2 1.2-.5 2.3-.6 3.4-1Zm-2.4-3.6c-.6-1.1-1.4-2.1-2-3a.4.4 0 0 0-.5-.1c-1.1.1-2.1.5-3.4.7.6 1.1 1.2 2.2 2 3 0 .2.3.2.5.1 1.3-.2 2.3-.6 3.4-.7Zm-4.2 1-1.8-3.1c-.1-.2-.4-.3-.6-.2-1 .2-2.1.6-3.4.8.6 1.1 1.4 2 2 3.2.2.1.5.2.6.1l3.2-.8Zm-4-7.2 2 3c.1.2.2.4.4.2 1.3-.2 2.4-.4 3.6-.8-.6-1.1-1.4-2-2-3 0-.2-.3-.2-.5-.1-1.1.1-2.1.5-3.4.7Zm8.9 6.5 2 3.1c.1.2.3.1.4.3l3.4-.8-1.7-2.9c0-.1-.4-.4-.6-.3-1.2 0-2.4.1-3.5.6ZM290.2 364l2 3c0 .1.4.2.5 0 1.1 0 2.2-.4 3.4-.7l-2-3c0-.1-.3-.2-.5-.1l-3.4.8Zm8.8 6.4 2 3 .3.2c1.1-.1 2.1-.5 3.4-.7-.6-1.1-1.1-2-1.8-2.8-.1-.2-.5-.5-.7-.3-1 0-2 .2-3.2.6Zm2.2 11.7-1.7-2.9-.4-.2c-1 .1-2.3.6-3.6.8.7 1.1 1.2 2 1.9 2.8 0 .2.5.5.7.4l3-.9Zm-7-11.1c-.6-1.1-1.4-2-1.9-3 0-.2-.4-.2-.6-.3l-3.3.7c.8 1.2 1.6 2.2 2.2 3.3 1.2 0 2.4-.5 3.7-.7Zm-8.7-14.4c.6 1 1.1 2 1.8 2.8.1.2.4.2.7.3 1.1-.1 2.1-.5 3.4-.8l-2-2.9c0-.2-.3-.3-.5-.2l-3.4.8Zm20 16.5 1.8 2.9.6.3 3.4-.8-2-3a.4.4 0 0 0-.5 0c-1 0-2.2.2-3.2.6Zm-16.3-17.6-2-3c0-.2-.4-.3-.6-.2l-3.2.7 1.8 3c0 .3.4.3.6.2l3.4-.7Zm7.4 11.2c.7 1.1 1.5 2 2 3 0 .2.4.2.5.1 1.2-.1 2.2-.5 3.5-.7-.7-1.1-1.2-2-2-3 0-.2-.4-.2-.6-.1-1 .1-2 .5-3.4.7Zm-3-4-1.8-2.7c-.1-.2-.4-.3-.6-.2l-3.4.8c.6 1 1.1 2 2 3 0 .1.3.2.5 0l3.3-.9Zm6.2 16.1 1.6 3c.1.1.4.2.6 0 1.1 0 2.3-.5 3.4-.7-.7-1.3-1.4-2-2-3.1-1.3.2-2.4.4-3.6.8Zm4-1c.5 1 1 2 1.8 2.7 0 .2.4.3.4.3l3-.8-1.6-3-.7-.3c-.7.5-1.7.8-3 1Zm5.2-6-2-2.9c0-.2-.4-.3-.5-.2l-3.3.7 1.8 3c.1.2.4.3.7.4l3.3-1Zm-22.7-7a4806 4806 0 0 1 2.2 3.3l3.4-.8-2-3a.4.4 0 0 0-.5-.1c-1.1.2-2.2.3-3 .6Zm-7-11 1.6 2.8c.1.2.5.4.7.3 1.1-.1 2.1-.5 3.4-.7-.6-1.1-1.1-2-1.8-2.8-.1-.2-.5-.4-.7-.3-1.1.1-2.1.5-3.2.6Zm36 20.6-2-3s-.4-.2-.5 0l-3.3.6c.7 1 1.2 2 2 3 0 .1.4.2.6.1.9 0 1.9-.4 3.2-.7Zm-2.4-3.6c-.6-1.1-1.4-2-2-3 0-.2-.3-.2-.3-.2-1.1.1-2.1.5-3.2.6.6 1.1 1.4 2 2 3 0 .2.3.2.5.1.7 0 1.8 0 3-.5ZM287.2 360c-.6-1.1-1.3-2-2-3 0-.2-.4-.3-.4-.3l-3.2.7 1.7 2.9c0 .2.5.4.7.3 1-.1 2-.5 3.2-.6Zm13 5.4-2-3c0-.1-.3-.2-.5-.1l-3.4.8 2 3c0 .1.3.2.5 0 1.1 0 2.1-.4 3.4-.7Zm.7.3c.6 1.1 1.1 2 1.8 2.8.1.2.4.3.7.3 1-.1 2.1-.5 3.2-.6-.6-1.1-1.1-2-2-3 0-.2-.3-.2-.5-.1-1.1.1-2.1.5-3.2.6Zm-11.4-2c-.6-1.2-1.4-2.1-1.9-3-.1-.2-.4-.3-.6-.2l-3.2.7 1.8 3c0 .2.4.3.5.2 1.2-.4 2.2-.5 3.4-.8Zm18.5 13 1.6 3c.1.1.5.4.7.3l3.4-.8c-.6-1-1.1-2-1.8-2.8-.1-.2-.4-.2-.7-.3-1.1.2-2.2.3-3.2.7Zm-12.4-18.5c-.7-1-1.4-1.8-2-3l-.4-.2-3.4.8c.7 1 1.4 1.9 2 3 0 .1.4.2.5 0l3.3-.6Zm8.5 6.4-1.7-2.9c-.1-.2-.4-.2-.7-.3l-3.2.7 2 3s.3.2.5 0c1 0 2-.3 3-.5Zm-19.6-16.3c-.6-1.1-1.4-2-2-3 0-.2-.3-.2-.5-.1-1 .1-2.2.3-3.2.6l1.7 3c0 .1.4.4.6.3 1.1-.2 2.1-.6 3.4-.8Zm-7.5 2 1.6 2.6c0 .2.5.5.5.5l3.2-.7-1.7-2.9c0-.2-.5-.4-.7-.3l-2.9.7Zm33.6 16.8c-.7-1-1.2-2-2-3l-.4-.2c-1 .1-2 .5-3.4.8.6 1 1.2 2 1.9 2.7 0 .2.5.5.6.4 1 0 2-.3 3.3-.7Zm-17.4-12.5c-.6-1.1-1.1-2-1.8-2.8-.1-.2-.4-.3-.7-.4-1.1.2-2.1.6-3.2.7l2 3c0 .1.3.2.5.1 1 0 2-.4 3.2-.6Zm-18.6-8c.7 1 1.5 2 2 3l.7.2 3-.5-1.7-2.9c0-.2-.3-.2-.6-.3l-3.4.5Zm12.2 5.2c-.6-1.1-1.3-1.9-2-3 0-.2-.3-.2-.3-.2-1.1.1-2.3.3-3.3.6l1.7 3c.1 0 .4.2.6 0 1 .2 2-.2 3.3-.4Zm10.6 2c-.7-1-1.2-2-1.9-2.7 0-.2-.5-.5-.5-.5-1 .2-2.2.3-3.4.8.6 1 1.2 2 1.9 2.8l.6.3 3.3-.7Zm-3.5 1c.6 1.2 1.3 2 2 3 0 .2.3.3.5.2l3.2-.7-1.6-2.8c-.1-.2-.4-.3-.7-.4l-3.4.8Zm18 20.9c.6 1 1.1 2 1.8 2.8l.4.2c1.1-.1 2.2-.5 3.2-.8l-1.7-3a.4.4 0 0 0-.6 0l-3.1.8Zm-3.8-12-1.5-2.7-.5-.4c-1.1.1-2.1.5-3.4.7.6 1.1 1.1 2 1.8 2.8.1.2.5.4.7.3l3-.7Zm-10.3-2-2-3-.3-.2-3.4.8 2 3c0 .1.3.2.5 0 1 0 2-.3 3.2-.6Zm-1.7-3.3c.7 1 1.4 1.9 2 3 0 .1.4.2.6 0 1 0 2-.4 3-.5l-1.7-2.8c0-.2-.3-.3-.6-.4-1 .4-2.1.5-3.3.7Zm-7.6-10.7-1.7-3s-.3-.2-.5 0l-3.4.4c.7 1.1 1.2 2 2 3 .1.2.4.2.6.1l3-.5Zm-3.3 1 2 2.9c0 .2.3.2.5.1 1.1-.1 2.1-.5 3.3-.6-.7-1.1-1.2-2-1.9-2.8-.1-.2-.4-.3-.7-.3-1 .1-2 .5-3.2.6Zm-3-4c-.5-1-1.2-1.8-1.8-2.7a.4.4 0 0 0-.5-.1c-1.1.1-2.3.3-3.3.6l1.7 2.9c.1.2.4.3.6.2 1-.4 2-.5 3.4-.8Zm7 3c.7 1 1.2 2 1.9 2.8.1.2.5.4.7.3 1-.1 2-.5 3.2-.6l-1.8-2.8c-.1-.2-.4-.3-.6-.2l-3.3.5Zm24.6 23.3 1.6 2.9c.1.2.4.2.6.1 1.1-.1 2-.4 3.1-.8-.6-1-1.1-2-1.8-2.8-.1-.2-.4-.2-.7-.3-.9.5-2 .7-2.8.9Zm-13.5-13.3 1.6 2.7c0 .1.4.4.6.3l3.3-.7c-.7-1-1.2-2-1.9-2.7 0-.2-.4-.3-.7-.4l-2.9.8Zm-2.4-3.7 1.6 2.7c.1.2.5.4.7.3 1-.1 2-.5 3.2-.6l-1.8-2.8-.7-.4c-.7.5-1.9.6-3 .8Zm-23.7-15.3 1.6 2.8c.1.2.4.3.4.3l3.5-.6-1.8-2.8-.7-.3-3 .6Zm6.7 2.8a4531 4531 0 0 0 2 3.2 58 58 0 0 0 3.5-.6c-.6-1.1-1.1-2-1.8-2.8-.1-.2-.4-.3-.7-.3l-3 .5Zm14.8 9a3997.9 3997.9 0 0 1 2 3.1c1.1-.1 2.1-.5 3.4-.7-.6-1.1-1.3-2-2-3a.4.4 0 0 0-.5-.1l-3 .7Zm-23.3-7.4 1.8 2.7c.1.2.4.3.4.3 1.1-.2 2.2-.3 3.2-.7-1.7-3.3-1.7-3.3-5-2.5l-.4.2Zm14.6 1.1c.6 1.1 1.1 2 2 3 0 .2.3.2.3.2l3.5-.6c-.6-1-1.3-1.8-1.9-3l-.4-.2-3.5.6Zm26.4 26.5c1.1-.1 2.3-.6 3.4-.7-.6-1.1-1.3-1.9-1.9-2.8a2 2 0 0 0-.4-.4c-1.2.1-2.2.5-3.3.6.8 1.3 1.4 2.4 2.2 3.3Zm-35.7-33-1.9-2.9-.5-.4-3.3.5 1.5 2.7c.2.2.5.4.7.3 1.2.3 2.2 0 3.5-.3Zm13.3 5.9 1.8 2.8c.1.2.4.2.6.1 1.1-.1 2.1-.5 3-.5l-1.6-3-.7-.2-3.1.8Zm-15.5-9.3-1.7-2.6c-.1-.2-.2-.4-.5-.4l-3.4.5 1.6 2.7c.1.1.5.4.7.3.9 0 2-.4 3.3-.5Zm3.1 3.7 1.6 2.7c0 .2.4.3.5.5l3.5-.6c-.6-1.1-1.2-2-1.8-2.6 0-.2-.5-.5-.6-.4-1.3 0-2.4.2-3.2.4Zm35.8 28.3-1.8-2.8c-.1-.2-.4-.2-.6-.1-1 .1-2.1.5-3.2.6.6 1.1 1.3 2 2 3 0 .2.3.3.5.1l3.1-.8Zm1.7 8.4 1.6 2.7.5.4c1.1-.1 2.1-.5 3.1-.8-.6-1.1-1.1-2-1.8-2.8-.1-.2-.4-.3-.6-.2l-2.8.7ZM299 349.6c-.6-1-1.2-2-1.9-2.7 0-.2-.4-.3-.4-.3a58 58 0 0 0-3.5.6l1.9 2.8c0 .2.4.2.7.3l3.2-.7Zm16.1 17.1c.6 1.1 1.1 2 1.8 2.8l.4.3 3.3-.7c-.7-1-1.2-2-1.9-2.8 0-.2-.4-.2-.7-.3l-2.9.7Zm2.3 3.5c.6 1.1 1.3 2 2 3 0 .2.3.2.5.1 1-.3 2-.4 3.1-.8l-1.8-2.8c-.1-.2-.4-.2-.6-.1-1.1.1-2 .4-3.2.6Zm-32.7-29.4c.7 1.1 1.2 2 1.9 2.8 0 .2.4.3.7.3l3.3-.5-1.9-2.7c0-.2-.3-.3-.5-.2a21 21 0 0 0-3.5.3Zm-2.2-3.5c.6 1.1 1.1 2 1.8 2.8.1.2.4.3.7.3l3.3-.4c-.6-1.1-1.1-2-1.8-2.8-.1-.2-.4-.3-.6-.2-1.2 0-2.3.2-3.4.3Zm44.4 34.4c-.7-1-1.2-2-1.9-2.8 0-.2-.4-.2-.6-.3l-3.2.8 1.9 2.8c0 .2.4.3.5.4l3.3-.9Zm-2.5-3.4-2-3c0-.1-.3-.2-.5-.1l-3 .7 2 3c.1.2.4.3.6.1l3-.7Zm-48-33.7 1.5 2.7c.1.2.4.3.4.3l3.5-.6c-.6-1-1.1-2-1.7-2.6-.1-.2-.4-.3-.7-.3l-3 .5Zm-6.1 5 1.7 2.8c0 .2.4.3.4.3 1-.2 2.2-.3 3.2-.7l-1.6-2.7c0-.1-.5-.4-.7-.3-1 .2-2 .2-3 .6Zm9.4-6c-.7-1-1.4-1.8-1.9-2.7 0-.2-.4-.3-.4-.3l-3.3.5 1.6 2.7c0 .2.3.3.6.4 1 0 2-.3 3.4-.5Zm26.7 26.9c.7 1 1.2 2 1.9 2.7 0 .2.4.3.4.3l3.2-.7c-.6-1-1.2-2-1.9-2.7 0-.2-.4-.5-.6-.4l-3 .8Zm-1.3-8.2-1.8-2.7c-.1-.2-.4-.3-.6-.2l-3.2.7 1.8 2.8c.1.1.4.2.6.1l3.2-.7Zm-10.6-9.6c-.7-1.1-1.2-2-1.8-2.6 0-.2-.4-.3-.5-.5l-3.3.5 1.8 2.8c.1.2.4.2.7.3l3-.5Zm29.2 30.1 1.8 2.8c.1.2.4.3.7.3l3-.7c-.7-1-1.5-2-2.1-3.1-1 .3-2.3.6-3.4.7Zm1.7 3.4-1.9-2.8c0-.2-.4-.3-.5-.2-1.2.2-2 .4-3 .8l1.9 2.8c0 .1.3.2.5.1l3-.7Zm-12.6-13 1.9 2.8c0 .2.4.3.7.3 1-.1 1.9-.4 2.9-.7l-1.8-2.8c-.1-.1-.4-.2-.6-.1-1-.1-2 .2-3 .5ZM280.3 334l1.9 2.8c0 .2.4.2.4.2l3.5-.5c-.7-1.1-1-1.8-1.8-2.6 0-.2-.4-.3-.5-.5l-3.5.6Zm-2.2-3.5 1.7 2.6.5.4 3.3-.4-1.5-2.7a.4.4 0 0 0-.6-.2 21 21 0 0 0-3.4.3Zm50.1 36.8-1.8-2.7c-.1-.2-.4-.3-.7-.4l-3.2.7 2 3.1c1.4 0 2.4-.4 3.7-.7Zm-3.2 1.2c.5.9 1 1.8 1.7 2.6l.8.5c1 0 2-.4 3.1-.9-.8-1-1.3-2.3-2-2.8-.8-.4-1.8.3-3 .4l-.6.2Zm-59.3-36.1 1.5 2.7c.1.2.2.4.5.4l3.4-.5-1.6-2.7-.7-.3c-.9 0-2 .2-3.1.4Zm51 29.9c.5 1 1.2 1.8 1.8 2.7 0 .2.3.3.5.2l3-.7c-.7-1.1-1.2-2-1.9-2.8 0-.2-.4-.3-.7-.4-.7.5-1.7.8-2.8 1Zm-43.4-23.8-1.5-2.7-.7-.3-3.2.4 1.7 2.9c.1.1.4.2.6.1 1 .1 2-.2 3.1-.4Zm37.2 21 1.8 2.8c.1.2.4.3.4.3l3.2-.7-1.8-2.7c-.1-.2-.4-.3-.6-.2-.9 0-2 .4-3 .6Zm-3-3.8-1.8-2.7c-.1-.2-.4-.3-.4-.3l-3.2.7c.6 1 1.1 2 1.8 2.7.1.2.5.5.7.4l3-.8Zm-4-6.5 1.9 2.8.6.3 3.3-.7-1.9-2.8a.4.4 0 0 0-.5-.1c-1.3 0-2.2 0-3.4.5Zm-17-12.5 1.8 2.8c.1.2.4.2.7.3l3.2-.6c-.6-1.1-1.1-2-1.7-2.6-.1-.2-.4-.3-.6-.2-1-.1-2.1 0-3.4.3Zm17.9 20.2 1.5 2.7c.1.1.5.4.7.3l3.2-.7c-.6-1-1-1.8-1.7-2.6-.1-.1-.5-.4-.7-.3l-3 .6Zm25.2 18.3c1.1-.2 2.3-.6 3.3-1-.6-1-1.1-2-1.7-2.6-.1-.2-.5-.4-.7-.3-1 0-2 .4-3 .7.7 1.1 1.3 2.2 2.1 3.2Zm-39.7-39.5-1.7-2.6c-.1-.2-.2-.4-.4-.3l-3.5.6c.6 1 1 1.8 1.7 2.6.1.2.5.4.7.3 1.1-.1 2-.4 3.2-.6Zm-7.7-5.9 1.6 2.7c0 .2.5.4.7.3 1-.1 2-.2 3.3-.5l-1.9-2.7a.4.4 0 0 0-.5-.2l-3.2.4Zm20.5 19.2-1.7-3c-.1-.1-.4-.2-.6 0-1 0-1.9.3-3.2.6l1.9 2.8c0 .1.3.2.5.1 1.3-.3 2.1-.5 3-.5Zm8.7 6-1.8-2.8c-.1-.2-.4-.3-.6-.2l-3 .6c.6 1 1.1 2 1.8 2.7.1.2.4.3.6.2 1 0 1.7-.3 3-.6Zm14.5 8.8-1.8-2.7c-.1-.2-.4-.3-.6-.2l-3 .6c.6 1 1.3 1.8 1.7 2.6.1.1.5.4.7.3 1 0 2-.4 3-.6Zm-12.2-5.4c-.6-1-1.2-2-1.9-2.7 0-.2-.4-.3-.6-.4-1 0-2 .4-3 .6.5 1 1.2 1.9 1.8 2.8l.6.3c1 0 1.8-.3 3-.6ZM295 343c.7 1 1.2 2 1.9 2.8l.6.3c1 0 2-.4 3.1-.6-.6-1-1.1-2-1.8-2.7a.4.4 0 0 0-.6-.2c-1-.1-2 .2-3.2.4Zm19.3 15.8 1.8 2.7c.1.2.4.3.6.2l3-.7-2-2.8c0-.2-.4-.5-.6-.4-1 .6-1.7.8-2.8 1Zm9.3 1.5-1.9-2.7c0-.2-.3-.3-.5-.2l-3 .6c.5 1 1 2 1.8 2.7 0 .2.4.3.5.2l3-.6Zm-4.7-6.8c-.6-1.1-1.3-2-1.8-2.6 0-.2-.3-.3-.6-.4l-3 .6 1.5 2.7c0 .2.5.4.7.3 1.2-.2 2-.5 3.2-.6Zm-2.3-3.5-1.7-2.6c-.1-.2-.4-.3-.7-.4-1 0-2 .4-3 .6l1.8 2.8c.1.1.4.2.6.1 1 0 2-.4 3-.5Zm17.5 19.9-1.7-2.6c-.1-.2-.5-.5-.7-.4-1 0-2 .4-3 .8l2 2.7c0 .2.3.3.6.4.9-.6 1.8-.6 2.8-1Zm-24.5-18 1.8 2.8.5.4 3.2-.7c-.6-1-1.1-2-1.7-2.6-.1-.1-.5-.4-.7-.3-1-.1-2.1 0-3.1.4Zm-8.4-6.2 1.8 2.8.4.2c1.1-.1 2-.4 3.2-.6-.6-1.1-1-1.8-1.7-2.6-.1-.2-.5-.5-.7-.4-1 0-1.7.3-3 .6Zm-2.3-3.5 1.9 2.8c0 .1.3.2.5.1l3-.5c-.6-1.1-1-1.8-1.7-2.6 0-.2-.5-.5-.6-.4-1 0-2 .4-3 .6Zm33 24.2-1.9-2.8c0-.2-.4-.3-.5-.2-1 0-2 .4-3 .8l1.9 2.7c0 .2.4.5.8.3l2.7-.8Zm-.7 4.7c.6 1 1.2 2 1.8 2.5 0 .2.4.5.6.4l2.8-.7-2-3s-.2 0-.3-.2c-.8.5-1.9.6-2.9 1Zm-19.2-15.8 1.8 2.7c.1.2.4.3.6.2 1 0 2-.4 3-.6l-1.8-2.7c0-.2-.4-.3-.6-.2-1 .2-2 .2-3 .6Zm-4.7-7c.6 1.2 1.3 2 1.8 2.9l.4.2 3.3-.6-1.9-2.8c0-.2-.4-.3-.7-.4l-2.9.8ZM338 369l-1.8-2.8c-.2-.2-.4-.3-.6-.2-1 .4-2 .4-3 .8.6.9 1 1.8 1.8 2.6 0 .2.5.4.7.3.9 0 1.9-.4 2.9-.7Zm-29.6-25c-.6-1-1.3-1.8-1.7-2.6l-.5-.4-3.2.7c.6 1 1.1 2 1.7 2.6.1.1.5.4.7.3l3-.6Zm3.7-.6-1.8-2.8c-.1-.2-.4-.3-.7-.4l-2.9.5 1.6 2.7c.1.2.5.4.9.2 1 .1 1.8 0 3-.2Zm9 13.5-1.7-2.6-.5-.5-3.2.7 1.8 2.8c.1.2.4.2.6.1 1.1-.1 2-.2 3-.5Zm-28-17.4 1.5 2.7c.1.2.4.2.4.2 1.1-.1 2-.4 3.2-.6l-1.7-2.6c-.1-.2-.5-.5-.7-.4-1 .4-1.8.6-2.7.7Zm31.2 21c.6 1.2 1.3 2 1.8 2.9l.4.2 3-.5c-.6-1.1-1-1.8-1.7-2.6-.1-.2-.5-.5-.8-.5l-2.7.6Zm-9.8-14c-.7-1-1-1.7-1.8-2.5 0-.2-.4-.3-.4-.3l-3.2.7 1.8 2.6c0 .1.4.4.6.3.9-.2 1.9-.6 3-.7ZM290.8 336l1.6 2.7c0 .2.3.2.5.1 1.1-.1 2-.2 3.3-.6l-1.9-2.8a.4.4 0 0 0-.6-.2c-.9.6-2 .7-2.9.8Zm11.5 5.3c-.6-1-1.3-1.8-1.7-2.6l-.7-.3c-1 0-2 .4-3 .6.6 1 1.1 2 1.8 2.7.1.2.4.3.6.2l3-.6Zm33.3 24.3-1.9-2.8c0-.2-.4-.2-.7-.3l-2.9.7 1.8 2.8c.1.2.4.2.4.2 1.1-.1 2.3-.3 3.3-.6Zm-8.3-6-1.8-2.6c0-.2-.4-.3-.6-.4l-3 .6c.5 1 1.2 1.9 1.8 2.8 0 .2.3.2.6.3 1-.3 1.9-.6 3-.7Zm-16.7-12.2-1.8-2.8c-.2-.2-.3-.4-.4-.3l-3.4.5c.7 1 1 1.8 1.8 2.6 0 .2.5.4.6.3 1 .2 2-.2 3.2-.3Zm17.3 12.5c.6.9 1 1.8 1.8 2.6 0 .2.5.4.8.5.9 0 1.9-.4 2.9-.7l-1.8-2.8c-.1-.2-.4-.3-.9-.2-1 0-1.8.3-2.8.6Zm12.4 12.6-1.9-2.8a.4.4 0 0 0-.6-.2c-.8.3-1.9.4-2.9.8l2 3.1c1-.3 2.2-.5 3.4-1Zm-20.6-18.6 1.7 2.6c.1.2.4.2.6.1.9 0 1.9-.4 3-.7-1.3-3-1.7-3.2-4.6-2.4l-.7.4Zm-19.6-16-1.8-2.7-.4-.2c-1 .2-2 .2-3.3.5l1.8 2.8.4.2 3.3-.7Zm.6.3 1.9 2.8c0 .1.4.2.5.1 1 0 2-.4 3-.6-.5-1-1.2-1.8-1.8-2.7a.4.4 0 0 0-.5-.2l-3 .6Zm9.2 1.7L308 337c0-.2-.4-.3-.4-.3l-3.2.7 1.9 2.8.3.2c1.2-.1 2.2-.5 3.3-.6Zm-18.4-8.1-1.6-2.7c0-.2-.4-.3-.5-.2l-3.2.4 1.8 2.8.4.2c1.1-.1 2-.2 3-.5Zm31 20.9c-.6-1.1-1-1.8-1.7-2.6 0-.2-.5-.4-.6-.3-1 0-2 .4-3 .5.5 1 1.1 1.7 1.7 2.6 0 .2.3.3.6.3l3-.5ZM294 335c-.6-1-1-1.8-1.7-2.6l-.7-.3c-1.1.2-2 .2-3.3.5.6 1 1 1.8 1.7 2.6.1.2.4.3.7.3l3.3-.5Zm21.2 11.8 1.9 2.8c0 .1.4.2.6.1.9 0 1.9-.4 3-.5l-1.8-2.8c-.1-.2-.4-.3-.7-.3l-3 .7Zm-2.3-3.2c.5.9 1 1.8 1.7 2.6.1.2.4.2.7.3 1 0 2-.4 3-.5-2-3.5-2-3.5-5.4-2.4.2-.1.2-.1 0 0ZM292.4 332c.7 1 1.3 1.7 1.8 2.6l.4.2 3-.5-1.5-2.7c-.2-.2-.5-.5-.7-.4-1 .4-2 .4-3 .8Zm11.4 5.1c-.6-1-1-1.8-1.7-2.6-.1-.1-.5-.4-.7-.3-.9 0-1.9.4-3 .6.6 1 1.3 1.8 1.7 2.6.1.1.4.2.6.1l3.1-.4Zm-1.5-3.1c.5.9 1 1.8 1.6 2.4.1.2.5.4.7.3.9 0 1.9-.4 3-.5-.5-1-1-1.8-1.6-2.5-.1-.1-.5-.4-.7-.3-1 0-2 .4-3 .6Zm-12.1-5.5 1.8 2.7c.1.2.4.3.6.2 1 0 2-.4 3-.6l-1.7-2.6-.7-.3-3 .6Zm40.7 30-1.9-2.8a.4.4 0 0 0-.6-.1c-.9 0-1.9.4-2.9.7l1.8 2.8c.2.2.4.2.7.3l2.9-.9Zm13 12.9-1.9-2.8a.4.4 0 0 0-.6-.1l-3 .7.4.6c.5.9 1 2 1.8 2.3.9.2 2-.3 3.2-.7Zm-42.3-37.8-1.8-2.6c0-.1-.3-.2-.5-.1-1.1.2-2 .2-3 .6.5.9 1 1.8 1.7 2.5 0 .2.4.3.5.2 1 0 2-.4 3-.6Zm14.4 8.8-1.8-2.8c-.1-.2-.4-.3-.4-.3-1 0-2 .4-3 .6.5 1 1.2 1.9 1.8 2.8l.4.2c.9 0 1.9-.4 3-.5Zm23.1 22.1-1.8-2.8-.7-.3-2.7.6 1.8 2.8c.1.2.4.3.6.2 1 0 1.8-.1 2.8-.5Zm-10.4-9.3-1.7-2.6c-.1-.2-.4-.3-.4-.3-1 0-2 .4-3 .6.6 1 1 1.8 1.7 2.6 0 .2.4.2.6.3.9-.2 1.7-.5 2.8-.6Zm-28.6-24.5c.5.9 1 1.8 1.7 2.6l.4.2c1.1-.2 2-.2 3.3-.7-.7-1-1.3-1.7-1.8-2.6l-.7-.3-2.9.8ZM294 328c.6 1 1 1.8 1.7 2.6.1.1.4.2.6.1l3.1-.4-1.7-2.6c-.1-.2-.4-.2-.6-.1-1 0-1.8 0-3.1.4Zm24.8 18 1.9 2.8c0 .2.4.2.5.1 1 0 2-.4 2.8-.6-1.3-3-1.6-3.2-4.8-2.5.1.2-.2.1-.4.2Zm7.6 5.7-1.8-2.8c-.1-.2-.4-.2-.4-.2-1 0-2 .4-3 .5l1.7 2.6c.1.2.5.4.7.3 1 0 1.7-.3 2.8-.4ZM337 361l-1.9-2.8a.4.4 0 0 0-.5-.1l-2.8.6c.5 1 1 1.8 1.6 2.4.1.2.5.5.8.6 1-.1 1.8-.3 2.8-.7Zm4.5 7-1.8-2.8-.4-.2-3 .7 1.8 2.6c0 .2.5.4.6.3 1 0 2-.4 2.8-.6Zm-21.7-26.3-1.8-2.8a.4.4 0 0 0-.6-.2c-1 0-2 .4-3 .6l1.8 2.8c0 .2.4.2.5.1 1 0 2-.4 3-.5Zm-16.5-11.9c-.6-1-1-1.8-1.7-2.6-.1-.2-.4-.2-.6-.1l-3.1.3c.5 1 1.2 1.7 1.7 2.6.1.2.5.5.7.4 1-.4 2-.4 3-.6Zm5.2 6.9 1.7 2.6.7.3c1 0 2-.4 3-.6-.5-.9-1-1.8-1.6-2.4 0-.2-.5-.4-.7-.3-1.2 0-2 .2-3.1.4Zm26 21c-.5-1-1-1.9-1.7-2.7l-.7-.3-2.5.5c1.4 3 1.8 3.3 4.8 2.5h.1Zm-2.1-3.4-1.9-2.8-.3-.2c-1 0-2 .4-3 .7.6 1.1 1 1.8 1.8 2.6 0 .2.3.3.5.2 1 0 1.8-.3 2.9-.5Zm-20.9-18.7-1.7-2.5c-.1-.2-.4-.3-.6-.2-1 0-2 .4-3 .6l1.7 2.6c.1.1.4.2.6.1l3-.6Zm11.3 9.6c1.2 3 1.6 3.2 4.4 2.5l.6-.1-1.8-2.8c-.2-.2-.4-.2-.6-.1l-2.6.5Zm-6-2.5 1.7 2.6c.1.2.5.4.7.3 1 0 1.7-.3 2.9-.4l-1.8-2.6c0-.2-.4-.3-.6-.2-1-.1-2 0-3 .3Zm8 6 1.7 2.5c.1.2.4.3.7.4 1-.1 1.7-.3 2.8-.7-.6-.9-1.3-1.7-1.8-2.6 0-.2-.5-.4-.7-.3-.8.2-1.6.5-2.7.6ZM315 335c-.5-1-1.2-1.7-1.7-2.6-.1-.2-.4-.3-.7-.4-1 0-2 .4-2.9.5.5.9 1 1.8 1.8 2.6 0 .2.4.2.6.3 1 0 1.9-.1 2.9-.4Zm-11.3-5 1.7 2.6.4.2c1 0 2-.4 3-.5-.4-1-1-1.8-1.7-2.6 0-.2-.4-.3-.6-.4-.6.3-1.5.4-2.8.7Zm-2-3.2c.5 1 .9 1.6 1.6 2.4 0 .2.5.5.8.6l2.8-.5-1.7-2.6a.4.4 0 0 0-.6-.1c-1-.2-2-.1-3 .2Zm15.6 11.7c-.6-1-1.3-1.7-1.8-2.6 0-.2-.4-.3-.5-.5-.9 0-2 .4-3 .6l1.7 2.6.5.4c1-.3 2-.4 3-.5Zm-6.7-9.9-1.7-2.6c-.1-.2-.4-.2-.4-.2-1 0-2 .4-3 .5.5 1 1 1.8 1.6 2.4 0 .2.5.5.6.4.9-.3 2-.4 3-.5Zm-3.1.9 1.7 2.5c.1.2.4.3.4.3 1 0 2-.4 3-.6-.5-.9-.9-1.6-1.6-2.4 0-.1-.5-.4-.6-.3-.8 0-1.6.2-3 .5Zm15.6 11.6c-.5-1-1.2-1.7-1.8-2.8-.1-.2-.4-.3-.6-.2l-2.9.5c1.7 2.9 2 3.1 5.3 2.5Zm-2.8.9c.5.9 1 1.8 1.6 2.4.1.2.5.4.7.3 1 0 1.7-.3 2.6-.5l-.3-.3c-1.5-2.7-1.5-2.7-4.6-1.9Zm.5-4.4c-.5-1-1.2-1.7-1.7-2.6-.1-.2-.4-.3-.7-.3-.9 0-1.7.2-2.8.4.5 1 1 1.8 1.7 2.6.1.2.4.3.7.3 1 0 1.8 0 2.8-.4Zm-6.5-9.7-1.7-2.6c-.1-.2-.4-.2-.6-.1-1 0-1.8.3-2.9.4.6 1 1.3 1.7 1.8 2.6 0 .2.4.3.6.4l2.8-.7Zm4.2 6.5c-.5-1-1.2-1.7-1.7-2.6-.1-.2-.4-.3-.6-.2-1 0-1.8.3-2.9.5.7 1 1.3 1.7 1.8 2.6 0 .2.4.2.7.3l2.7-.6Zm-2-3.2c-.7-1-1.3-1.7-1.8-2.6l-.7-.3c-.9 0-1.7.3-2.8.5l1.7 2.6c.1.1.4.2.6.1l3-.3Zm-19.3-4.2c-.5-.9-1-1.6-1.7-2.4 0-.2-.3-.3-.3-.3-1.2.2-2 .3-3.3.7.5.9 1.1 1.5 1.7 2.4 0 .2.4.3.5.2 1 0 2-.4 3-.6Zm-1.4-2.8 1.5 2.2c.1.2.5.5.7.4 1 0 2-.4 3-.6-.5-.9-1-1.8-1.6-2.4 0-.2-.4-.3-.6-.2-1 .4-1.9.4-3 .6Zm8.9 1.6-1.7-2.4c0-.2-.4-.3-.5-.2-1 0-2 .4-3 .6.4.9 1 1.8 1.5 2.4.2.2.4.3.6.2l3-.6Zm3.8-.5c-.6-1-1-1.8-1.7-2.4 0-.2-.5-.5-.6-.4l-3 .5c.6.9 1.3 1.7 1.8 2.6.1.2.3 0 .6.1 1 0 1.7-.2 2.9-.4Zm-23 3.6c-.5-.9-.9-1.6-1.5-2.2-.1-.2-.4-.3-.4-.3l-3 .6c1.2 2.6 1.2 2.6 3.6 2.2l1.3-.3Zm-4.2.6a2394.3 2394.3 0 0 0-1.7-2.4l-3.5.5c.5 1 1 1.7 1.6 2.3 0 .2.3.2.5.1 1 0 2-.4 3-.5Zm-4 .6c-.5-1-.8-1.5-1.4-2-.1-.3-.4-.3-.5-.5l-3.4.5 1.2 2c0 .1.5.4.7.3 1.2 0 2.1 0 3.4-.3Zm10.8-4.6c.6 1 1 1.6 1.6 2.2 0 .2.4.3.6.4 1 0 2-.4 3-.6-.4-.9-1-1.5-1.6-2.4 0-.2-.3-.3-.5-.1-1 .3-2 .3-3 .5Zm-15 5.3-1.1-2c-.1-.2-.5-.4-.7-.3l-3.3.5 1.1 2 .7.3c1 0 2-.2 3.3-.5Zm16.1-2.6L288 326c-.1-.2-.4-.3-.7-.3-1.1.1-2 .2-3 .5.5 1 .9 1.6 1.5 2.3l.7.3c.9 0 1.7-.3 2.8-.5Zm17.9-5.7 1.6 2.4.5.4c1 0 1.8-.3 2.9-.4a11 11 0 0 0-1.6-2.2c0-.2-.4-.5-.7-.6l-2.7.4Zm-43 7 1 2c.2.3.6.5.7.4l3.4-.5-1.5-2c0-.2-.3-.3-.3-.3-1.3.3-2.4.4-3.4.5ZM313.4 320c5.7-1 11.1-2 16.4-2.8 7.9-1.4 15.8-2.6 23.8-4.2.7 0 1 .2 1.6.6l22.5 30.2 11.5 15.4.3.6c-.3.2-.6.1-1 .3a2736 2736 0 0 0-39.2 10c-.7 0-1-.2-1.4-.7-3-4.5-6.1-9-9.4-13.3-3.6-5.1-7-10.3-10.8-15.4l-10.5-15c-1-1.8-2.4-3.7-3.8-5.7Zm34.4 42c.8 1 1.3 2 2 2.7 0 .2.4.3.7.3l2.7-.6-.7-1.3c-1-1.8-1-1.8-3.2-1.3-.5-.1-1 0-1.5.2Zm2.9-1.2-2-2.6-.7-.4c-.8.3-1.8.3-2.8.7l2 2.6c.1.2.4.3.6.2 1 0 1.9-.1 2.9-.5Zm-.5 4.6c.5 1 1.2 1.7 1.7 2.6.1.2.4.3.7.4.8-.3 2-.4 3-.8l-2-2.5c0-.2-.5-.4-.6-.3-1 0-1.8.3-2.8.6Zm6.5-2c-.8-1-1.3-2-2-2.7-.1-.2-.4-.3-.6-.2l-2.8.7c.9 1 1.4 1.8 2 2.6.2.2.5.3.6.2.9-.2 1.7-.5 2.8-.6Zm-12.3-.6a19 19 0 0 1 1.8 2.8l.5.4 2.8-.6-1.9-2.8a.4.4 0 0 0-.6-.1c-.8-.3-1.6 0-2.6.3Zm4.5-5c.8 1 1.3 1.9 1.9 2.8 0 .1.3.2.5.1l2.8-.6c-.8-1-1.3-2-2-2.7a.4.4 0 0 0-.6-.2 7 7 0 0 0-2.6.6Zm-6.8 1.5 1.8 2.8c.1.2.4.2.6.1l2.8-.6-1.9-2.8a.4.4 0 0 0-.5-.1c-1 0-1.8.3-2.8.6Zm18 3.1c-.8-.8-1.3-1.7-2-2.5-.1-.2-.4-.2-.6-.1l-2.6.5c1.6 3.2 2 3.2 5 2.2h.1Zm-1 4.2c-.9-1-1.4-2-2-2.7l-.5-.3c-.8.3-2 .4-3 .8.7 1 1.3 1.7 1.8 2.6.1.2.4.2.7.3l3-.7Zm-10.9-9.2c-.8-1-1.2-1.7-1.9-2.4 0-.2-.4-.3-.7-.4-.8.3-1.7.3-2.7.7l1.9 2.4c.1.2.4.3.4.3 1.1-.2 2.2-.3 3-.6Zm-12-12.2 1.7 2.6c0 .2.4.3.5.2.9-.3 1.8-.3 2.8-.7-.6-1-1.3-1.8-1.7-2.6l-.4-.2-3 .7Zm8.1 5.9a16 16 0 0 0 2 2.5l.6.3 2.6-.5c-1.5-3-1.9-3.3-5.2-2.3Zm13.3 8-2-2.6c0-.2-.3-.2-.5-.1l-2.6.5c1.6 3.2 1.9 3.2 4.7 2.3l.4-.2Zm-.3 4.4c.8 1 1.3 1.9 1.7 2.6.1.2.4.3.6.2l2.7-.7c-.8-1-1.3-1.9-1.9-2.5 0-.2-.4-.2-.7-.3l-2.4.7ZM346 354l-1.8-2.5c0-.2-.3-.3-.6-.4-.9.3-1.8.3-2.8.7.8 1 1.2 1.7 2 2.4 0 .2.3.3.6.4a7 7 0 0 0 2.6-.6Zm12.2 5.4 2 2.7c.2.2.5.3.6.2.9-.3 1.8-.3 2.8-.7-.3-.5-.6-1-1-1.3-1.1-1.5-1.1-1.5-3-1.1l-1.4.2Zm-11.5-5 2 2.7c0 .1.4.2.5.1.9-.2 1.7-.5 2.8-.6-.8-1-1.3-2-2-2.7-.1-.2-.4-.3-.6-.2-.8.3-1.8.6-2.7.7Zm19.2 10.4-1.9-2.4c-.1-.2-.4-.3-.7-.4l-2.7.7 2 2.6c.1.2.4.3.7.4l2.6-.9Zm-14 3.8-1.7-2.6c0-.2-.4-.3-.5-.2l-2.8.7c.3.5.6 1 1.1 1.5.8 1.4.8 1.4 2.5 1 .4-.3.8-.3 1.5-.4Zm-12.2-12.6 1.8 2.8c.1.2.4.2.6.1l2.7-.6-2-2.7a.4.4 0 0 0-.6-.1c-.6.1-1.4.4-2.5.5Zm-6-14c.7.7 1.2 1.6 1.7 2.5.1.2.5.5.7.4 1 0 1.8-.3 2.8-.7-.7-1-1.3-1.7-1.8-2.6 0-.1-.4-.2-.5-.1-1 0-2 .4-3 .4Zm22.1 14c.8 1 1.3 2 1.7 2.7l.7.3c.8-.3 1.7-.5 2.6-.5-.6-1.1-1.3-2-1.9-2.8 0-.2-.3-.3-.5-.2l-2.6.6Zm-12.2-5.2-1.7-2.6c-.1-.1-.4-.2-.6-.1l-2.7.6c1.5 3 1.8 3.3 4.9 2.2h.1Zm1.1-4-1.7-2.5c-.1-.2-.4-.3-.4-.3-1 0-2 .4-3 .7.8 1 1.3 1.7 1.8 2.6 0 .2.4.3.4.3l3-.7Zm-2.3 8.1-2-2.7-.4-.2-2.8.6c.6 1.1 1.3 1.9 1.9 2.8 0 .2.3.3.6.3l2.7-.8Zm12.7.8-1.7-2.6a.4.4 0 0 0-.6-.1l-2.6.5c1.6 3.2 1.8 3 4.7 2.3.2.2 0 0 .2 0Zm-13.2-8a19 19 0 0 1 1.8 2.9l.4.2 3-.7c-.9-1-1.3-1.7-1.8-2.6 0-.2-.4-.3-.6-.2-.9 0-1.7.3-2.8.5Zm.7-4.2c-.7-.8-1.3-1.7-1.8-2.6l-.7-.3c-.9 0-1.7.3-2.5.5.5 1 1.2 1.7 1.7 2.6.1.2.4.3.7.4l2.6-.6Zm-11.1-4.6c.8 1 1.2 1.7 1.7 2.6.1.2.5.4.7.3 1 0 1.7-.3 2.7-.6l-1.7-2.6c-.1-.2-.4-.2-.6-.1-.9 0-1.8 0-2.8.4Zm35.2 21.9-1.9-2.5c-.1-.2-.4-.3-.6-.1l-2.4.7c1.3 2.8 1.8 3.2 4.7 2.3 0-.3 0-.3.2-.4Zm-31.2-15.8c-.6-.9-1.3-1.7-1.8-2.6 0-.2-.4-.3-.5-.1-.9.2-1.8.2-2.6.5 1.7 3 1.8 3.2 4.7 2.3l.2-.1Zm23.1 10.1-1.7-2.6-.7-.3-2.7.6 1.8 2.8c.1.2.4.3.6.2 1-.4 1.8-.6 2.7-.7Zm10.6 9c-.7-1-1.3-1.6-1.8-2.5 0-.2-.4-.3-.6-.2-.8.3-1.6.5-2.5.6l1.9 2.5.7.3c.6-.1 1.3-.6 2.3-.6Zm-16.4-11.6-2-2.7c-.1-.1-.4-.2-.6-.1l-2.6.5c.6 1.1 1.3 1.9 1.9 2.8 0 .2.4.3.5.1 1.1-.1 2-.4 2.8-.6Zm6.4 2.8c.8 1 1.3 1.9 2 2.5 0 .2.3.2.6.3.8-.2 1.7-.5 2.6-.5-.8-1-1.4-2-2.3-3l-2.9.7Zm-24.1-6c.5 1 1.3 1.9 1.8 2.8.1.2.4.2.6.1l2.7-.6-1.7-2.6c-.1-.2-.4-.2-.7-.3-1 .1-2 .4-2.7.6Zm16 .3c.5 1 1.2 1.7 1.8 2.6 0 .2.4.3.6.4.9-.3 1.8-.3 2.6-.6-1.3-3-2-3.4-5-2.4.2 0 .2 0 0 0Zm-16-11.6 1.7 2.6c0 .2.4.3.6.2.8-.3 1.7-.3 2.7-.6-.7-.8-1.2-1.7-1.7-2.6-.1-.2-.4-.3-.6-.2-.8.2-1.8.6-2.8.6Zm-2.4 8.1 1.8 2.6c0 .2.4.3.6.3l2.8-.6-1.7-2.6c-.1-.2-.4-.3-.7-.3-1.1.1-2 .4-2.8.6Zm-.6-11.4c-.7-.8-1.2-1.7-1.8-2.3 0-.2-.5-.5-.6-.4-1 0-1.8.3-3 .5.6.9 1.3 1.7 1.8 2.6.1.2.4.2.6.1l3-.5Zm13.5 12.4 1.7 2.6c.1.2.4.2.6.1l2.7-.6-1.9-2.5c0-.2-.4-.2-.6-.1-.9 0-1.7.2-2.5.5Zm19.5 10.8c1.7 3 2 3.1 4.7 2.3h.1c-.5-1-1.2-1.8-2-2.7a.4.4 0 0 0-.5-.2c-.5 0-1.3.3-2.3.6Zm-30.6-20-1.8-2.6c0-.2-.3-.3-.3-.3-1 0-2 .4-3 .6.4.9 1.1 1.7 1.6 2.6l.4.2 3-.5Zm8.7 6c.7 1 1.4 1.8 1.8 2.6l.4.2 2.7-.6-1.9-2.5c-.1-.2-.4-.3-.7-.3l-2.3.6Zm19.4 10.6 2 2.7c.1.2.4.3.6.1.8-.2 1.5-.3 2.5-.7l-2-2.6a.4.4 0 0 0-.6-.2l-2.5.7Zm-8.6-6-1.9-2.6-.6-.3c-.9.2-1.7.5-2.6.5.5 1 1.2 1.7 1.7 2.6.1.2.4.3.7.4 1 0 1.7-.3 2.7-.7Zm-4.6-6.5c-.7-.8-1.2-1.7-2-2.5 0-.2-.3-.2-.5-.1l-2.8.6c.7.8 1.2 1.7 1.8 2.6 0 .2.4.3.6.3l2.9-.9Zm-24.7-12.6c.6.9 1.3 1.6 1.7 2.4 0 .1.5.4.6.3 1 0 1.8-.3 3-.5l-1.7-2.4c-.1-.2-.4-.2-.7-.3-1 0-1.9.1-2.9.5Zm22 13.7c.5 1 1.2 1.7 1.7 2.6 0 .2.4.3.7.3l2.5-.5c-1.7-3-2-3.1-5-2.4Zm15.2 11-1.7-2.5c-.1-.2-.4-.3-.4-.3-.8.3-1.7.3-2.6.6 1.3 3 1.9 3.2 4.7 2.3-.1 0-.1 0 0 0Zm-29-19c.4.8 1.1 1.6 1.7 2.5 0 .2.3.3.5.2 1-.1 1.8-.3 2.8-.7-.7-.8-1.2-1.7-1.8-2.6 0-.2-.3-.2-.3-.2l-3 .7Zm37.8 25c.8 1 1.2 1.8 2 2.6l.6.3 2.5-.7-1.4-1.9c-.5-.9-1.2-1.2-2.2-.9-.4.5-.9.5-1.5.7Zm-11-9.1c-.7-1.1-1.3-1.7-1.8-2.6-.1-.2-.4-.3-.6-.2-.8.3-1.7.5-2.6.6l2 2.6c.1.2.4.3.6.2l2.3-.6Zm13.7 8-2-2.6c-.1-.2-.4-.2-.4-.2l-2.7.6c.8 1 1.3 1.9 1.9 2.5 0 .2.4.2.5.1.9.3 1.7 0 2.7-.3Zm-6 2.1c.5 1 1.2 1.7 1.7 2.6l.5.5 2.8-.7c-.8-1-1.2-1.7-2-2.5l-.6-.3c-.8 0-1.4 0-2.4.4ZM346 342.7l-2-2.5c0-.2-.3-.3-.5-.2-.8.3-1.8.3-2.6.6l1.7 2.6c.1.1.4.2.6.1 1 0 1.8-.3 2.8-.6Zm25 13c-.7-1-1.2-2-2.2-2.7-.4-.2-1.6.2-2.4.4-.2.2-.2.2-.7.2l2 2.7c.2.1.4.2.6.1 1 0 1.8-.3 2.8-.6ZM335.8 334c-.7-.8-1.3-1.7-1.7-2.4 0-.2-.4-.3-.7-.4l-2.8.5 1.7 2.6c.1.2.4.2.6.1 1 0 1.7-.3 2.9-.4Zm11.3 4.7c-.7-.8-1-1.5-1.8-2.3 0-.2-.4-.3-.5-.5-.9.1-1.7.3-2.7.7 1.6 2.9 1.7 3 4.9 2.2l.1-.1Zm-19.4-10.4c-.5-.9-1.2-1.7-1.8-2.6l-.3-.2c-1 0-1.8.3-3 .4.6 1 1.3 1.7 1.7 2.5.1.1.5.4.7.3 1 0 1.8-.3 2.7-.4Zm16 11.2c-.7-.8-1.2-1.7-1.8-2.3 0-.2-.4-.3-.7-.4-.9 0-1.7.3-2.5.6 1.3 2.8 1.7 3 4.7 2.3l.3-.2Zm-12.4-.8-3 .6 1.7 2.6c0 .2.4.2.6.3l2.6-.5-2-3Zm21 6.9 2 2.6c.1.2.1.2.3.1l2.8-.6c-.8-1-1.2-1.7-1.8-2.3-.1-.2-.5-.5-.9-.3-.7 0-1.4.1-2.4.5Zm-7.5-10.1c-.5-1-1.1-1.5-1.6-2.4-.1-.2-.4-.3-.6-.2-1 0-1.8.3-2.6.5 1.4 2.9 1.8 3.1 4.7 2.4l.1-.3Zm10.2 9L353 342c0-.2-.4-.3-.7-.4-.8.3-1.7.3-2.5.6l1.9 2.5c0 .1.4.2.6.1 1 .1 1.8-.1 2.6-.3Zm-34.5-21.6 1.7 2.6c.1.2.4.3.4.3l2.8-.5-1.7-2.6c-.1-.2-.4-.3-.6-.1l-2.6.3Zm61.9 37.7-2-2.7c-.1-.2-.4-.2-.6-.1l-2.5.7c.8 1 1.2 1.7 2 2.5 0 .1.3.2.8.2l2.3-.6ZM357.9 348c.6.9 1.3 1.7 1.8 2.6 0 .2.4.3.6.1l2.5-.5-1.9-2.5c0-.2-.4-.2-.7-.3l-2.3.6Zm-34.3-15c.5 1 1.2 1.7 1.6 2.5.1.1.4.2.6.1.9 0 1.7-.3 2.6-.5-1.4-2.8-2-3-4.8-2.3.1.1.1.1 0 .2Zm2.2 3c.5 1 1.2 1.8 1.7 2.7.1.2.4.2.7.3 1 0 1.8-.3 2.8-.6-.7-.8-1.2-1.7-1.8-2.3-.1-.2-.5-.5-.7-.4-1 0-1.8.3-2.7.4Zm45.8 20.2 1.9 2.5c.1.2.4.3.4.3.8-.3 1.6-.5 2.6-.6l-2-2.7a.4.4 0 0 0-.6-.1c-.5 0-1.3.3-2.3.6Zm2.6-1.3c-.8-1-1.3-1.9-2-2.5 0-.1-.3-.2-.5-.1-.8.2-1.4.4-2.6.5l2 2.5c0 .2.4.3.6.3.9-.2 1.5-.3 2.5-.7Zm-14-3.7c.8.8 1.3 1.7 1.8 2.6.1.2.4.3.6.2.8-.3 1.6-.5 2.6-.6l-2-2.5c0-.1-.3-.2-.5-.1-.8 0-1.4 0-2.4.4Zm19.6 6.3c-.8-1-1.2-1.7-2-2.5 0-.2-.3-.3-.3-.3l-2.8.7c.7.8 1.2 1.7 1.8 2.3.1.2.5.4.7.3 1 0 1.8-.3 2.6-.5Zm-5.7 1.8c.7.8 1.2 1.7 2 2.5 0 .2.3.3.5.2l2.5-.8c-1.7-2.8-1.8-3-4.7-2.3l-.3.4Zm-45.8-30.6 1.6 2.4c0 .2.4.2.6.1.9 0 1.7-.3 2.8-.4-.7-.8-1.2-1.7-1.6-2.4-.1-.2-.4-.3-.7-.4-.8.3-1.7.3-2.7.7Zm19.5 10.5c.5 1 1.2 1.7 1.8 2.6 0 .2.3.3.3.3.9-.3 1.8-.3 2.8-.7-2-3-2-3-4.7-2.3-.1-.2 0 0-.2.1Zm-26.4-9.5c.5 1 1.2 1.7 1.8 2.6 0 .2.3.3.5.2 1 0 1.8-.3 2.6-.5-.5-1-1.2-1.7-1.7-2.6-.1-.2-.4-.3-.6-.2-.8.2-1.7.5-2.6.5Zm16 .6c.5 1 1.2 1.7 1.7 2.6.1.2.4.3.6.2l2.6-.5c-.7-.8-1.2-1.7-1.7-2.6l-.4-.3c-.9.2-1.7.5-2.8.6Zm15.9 11.3 1.9 2.5c.1.1.4.2.6.1.8-.2 1.6-.5 2.5-.5l-1.9-2.5c0-.2-.4-.3-.5-.2-.9.3-1.8.3-2.6.6Zm24.1 12.7c-1.3-2.8-2-3-4.7-2.4l-.1.1 1.9 2.5c0 .2.4.3.5.2.8 0 1.6-.2 2.4-.4Zm-16.7-7.4c-.7-.8-1.2-1.7-2-2.5 0-.2-.3-.2-.6-.3-.8.2-1.7.5-2.6.5.7.8 1.2 1.7 2 2.5 0 .2.3.3.5.2a7 7 0 0 0 2.7-.4Zm24.7 12.8c-.8-1-1.2-1.7-2-2.5l-.6-.3-2.5.7 2 2.7c.2.2.5.3.6.1.7 0 1.5-.3 2.5-.7Zm-24.2-12.6 2 2.4c0 .2.4.3.5.2.9-.2 1.5-.4 2.6-.5l-1.9-2.5c-.1-.2-.4-.3-.6-.2-.8.3-1.6.5-2.6.6Zm2.5 3.3c.8 1 1.3 2 2 2.7.1.2.4.3.6.2.8-.3 1.6-.5 2.6-.6l-2-2.5c0-.1-.3-.2-.5-.1-1-.1-1.9.1-2.7.3Zm-28.5-23 1.7 2.5c.1.2.1.2.4.3l3-.6c-.8-1-1.2-1.7-1.8-2.3 0-.2-.4-.3-.6-.3l-2.7.3Zm-11.1 1.5c-.8-1-1.3-1.7-1.8-2.6 0-.2-.4-.2-.5-.1-1 0-1.8.3-2.7.3.5 1 1 1.5 1.6 2.4.1.2.5.5 1 .4l2.4-.4Zm2-3.6c.7.8 1.2 1.7 1.7 2.6.1.2.4.3.6.2 1 0 1.8-.3 2.8-.6-.7-.8-1.3-1.7-1.8-2.6 0-.2-.4-.3-.5-.2-1 .4-1.9.6-2.8.6Zm45.8 26.4c-.8-1-1.2-1.7-2-2.5a.4.4 0 0 0-.5-.1l-2.6.5c.7.8 1.2 1.7 2 2.5 0 .2.3.2.5.1a7 7 0 0 0 2.6-.5ZM339 333.2l-2-2.5a.4.4 0 0 0-.5-.1c-1 0-1.8.3-2.6.5.5 1 1.2 1.7 1.7 2.6.1.2.4.3.6.2 1-.4 1.8-.3 2.8-.7Zm-2.9 1 1.8 2.5c0 .2.4.3.5.2 1 0 1.8-.3 2.8-.6l-1.8-2.4-.7-.3c-.8.2-1.5.4-2.6.5Zm-7.2-9.6c-.7-.8-1.2-1.7-1.7-2.6-.1-.2-.4-.2-.4-.2-1 0-1.7.3-2.9.4.7.8 1.3 1.7 1.7 2.4 0 .2.4.3.7.4.7 0 1.5-.2 2.6-.4Zm9 1.8c-.7-.8-1.2-1.7-1.6-2.4-.1-.2-.4-.3-.6-.2-1 0-1.8.3-2.9.5l1.7 2.4c0 .2.4.2.6.3l2.8-.6Zm12.4 11.8-1.8-2.3-.4-.3c-1 .1-1.8.3-2.8.7.8 1 1.2 1.7 1.7 2.6.1.2.4.2.4.2 1.1-.6 2-.8 2.9-.9Zm27.6 16.2c.7.8 1.2 1.7 2 2.5 0 .2.4.4.6.3.8-.2 1.5-.3 2.5-.7-.8-1-1.2-1.7-2-2.5 0-.1-.3-.2-.5-.1-.8.2-1.7.5-2.6.5Zm-27-16 1.9 2.5c0 .1.3.2.5.1l2.6-.5c-.7-.8-1.2-1.7-2-2.5 0-.2-.3-.3-.5-.2-.8.3-1.5.4-2.6.6Zm18.4 10.2-1.7-2.4c0-.2-.4-.3-.6-.3-.7 0-1.5.3-2.3.6 1.2 2.6 1.9 3 4.4 2.2h.2Zm11.2 4.8-2-2.5c0-.2-.3-.2-.6-.3-.9.2-1.5.4-2.6.5.8 1 1.2 1.7 2 2.5 0 .2.3.3.5.2 1 0 1.8-.1 2.7-.4Zm-26.4-15.7 1.9 2.5c0 .2.4.2.4.2.8-.2 1.7-.2 2.6-.5l-2-2.5c0-.2-.4-.2-.5-.1l-2.4.4Zm7.4 5.3c-1.8-3-2-3-4.7-2.3l-.2.1 1.9 2.5c.1.2.4.3.6.2.7 0 1.5-.2 2.4-.5Zm-2.6 1c.7.8 1.2 1.7 1.8 2.3.1.2.4.3.6.2.8-.3 1.7-.5 2.6-.5-1.4-2.9-1.8-3.1-4.6-2.2l-.4.2Zm11 5 2 2.4c0 .2.3.3.5.2.8-.3 1.7-.5 2.6-.5-.7-.8-1.2-1.7-2-2.5 0-.2-.3-.3-.8-.3l-2.3.6ZM331 321c.5 1 1.2 1.7 1.6 2.5l.7.3c1 0 1.8-.3 2.6-.5-.7-.8-1.2-1.7-2-2.5a.4.4 0 0 0-.5-.2l-2.4.4Zm6 9c-.8-.7-1.3-1.6-1.9-2.2 0-.2-.4-.3-.7-.4-.9.1-1.7.3-2.5.6l1.6 2.4c.1.2.4.2.7.3 1-.3 1.8-.6 2.7-.6Zm35.9 17.7-2-2.6c-.2-.2-.4-.3-.6-.2-.8.3-1.5.4-2.6.5.7.8 1.2 1.7 2 2.5 0 .2.3.3.5.2 1 .1 1.7 0 2.7-.4Zm-12-11.5c.8 1 1.2 1.7 2 2.5 0 .1.3.2.5.1l2.6-.5-2-2.5c0-.2-.3-.3-.5-.2-.8.3-1.7.5-2.6.6Zm-33.4-14.6c.7.8 1.2 1.7 1.6 2.4.1.2.4.3.7.4 1 0 1.7-.3 2.7-.4-.7-.8-1.1-1.5-1.7-2.4 0-.2-.5-.4-.6-.3l-2.7.3Zm34.8 21.7 2 2.4c0 .2.4.3.5.2.9-.2 1.5-.4 2.6-.5-.7-.8-1.2-1.7-2-2.5a.4.4 0 0 0-.5-.2c-1 0-1.7.3-2.6.6ZM348 335l-1.7-2.6c-.1-.2-.4-.2-.6-.1-.8.2-1.7.2-2.6.5.7.8 1.3 1.7 1.7 2.4 0 .2.4.3.7.3l2.5-.5Zm5.8 2.4c-.7-.7-1.2-1.6-2-2.4 0-.2-.3-.3-.5-.2l-2.6.5c.7.8 1.2 1.7 1.7 2.6.1.2.4.3.6.2l2.8-.7Zm3.2-.6c-.7-.8-1.2-1.7-1.8-2.3-.1-.2-.5-.5-.7-.4-.8.3-1.6.2-2.6.6.6.9 1.3 1.7 1.8 2.6 0 .1.4.2.5.1 1.2-.1 2-.4 2.8-.6Zm7.8 5.6c-.7-.8-1.2-1.7-1.8-2.3-.1-.2-.5-.5-.7-.4-.8.3-1.6.2-2.6.6.7.7 1.2 1.6 2 2.4 0 .2.3.3.6.4l2.5-.7ZM334.5 327c-.5-1-1.1-1.5-1.6-2.4-.1-.2-.4-.3-.4-.3-1 0-1.8.3-2.7.4 1.7 2.8 1.8 3 4.7 2.3 0 0-.2 0 0 0Zm-17.7-3.5c.6.9 1.3 1.7 1.8 2.6 0 .2.4.2.7.3.9 0 1.7-.3 2.5-.5-.5-1-1.2-1.7-1.7-2.6-.1-.2-.4-.3-.7-.3-.6 0-1.4.3-2.6.5Zm56.6 24.7 1.9 2.3c0 .2.4.4.6.3.9-.2 1.7-.5 2.6-.5-.8-1-1.2-1.7-2-2.5a.4.4 0 0 0-.5-.2l-2.6.6Zm2.6-1c-.7-.8-1.2-1.7-2-2.5a.4.4 0 0 0-.5-.2c-.8.3-1.6.5-2.6.6.8 1 1.2 1.7 2 2.5 0 .1.3.2.5.1.8-.2 1.5-.4 2.6-.5ZM345.8 332c-.5-1-1.2-1.7-1.6-2.4-.1-.2-.4-.3-.6-.2-1 0-1.8.3-2.6.5.8 1 1.2 1.7 2 2.5 0 .2.3.3.5.2.5-.3 1.4-.6 2.3-.6Zm11.9 5.1c1.4 2.8 2 3 4.4 2.3l.2-.1c-1.1-2.8-1.7-3-4.4-2.3l-.2.1Zm-19-10.4 1.9 2.5c.1.2.4.3.6.2.8-.3 1.7-.3 2.6-.6l-1.7-2.4c0-.2-.4-.2-.6-.1-1.2 0-1.8 0-2.8.4Zm12.7 7.5c-.7-.8-1.2-1.7-1.7-2.6-.1-.1-.4-.2-.6-.1l-2.5.5c.5 1 1.2 1.7 1.6 2.4 0 .2.4.3.6.2.8.2 1.6 0 2.6-.4Zm19.8 6.8c-.7-.8-1.2-1.7-1.8-2.3 0-.2-.4-.2-.6-.3-.9.2-1.6.2-2.6.5l2 2.7c.1.2.3 0 .3 0l2.7-.6Zm-1 3.7c-.6-.8-1.2-1.7-1.8-2.3 0-.2-.3-.2-.6-.3-.9.2-1.5.4-2.6.5l1.9 2.5c.1.2.4.3.6.2.9 0 1.7-.3 2.6-.6Zm-33.9-21.2 1.9 2.3c0 .2.4.3.5.5l2.8-.5-1.6-2.4c-.1-.2-.4-.3-.7-.3l-2.9.4Zm32.3 18.4c.7.7 1.2 1.6 2 2.4 0 .2.3.3.5.2.8-.2 1.4-.4 2.6-.5l-2-2.5c0-.2-.3-.3-.5-.2-.9.3-1.7.5-2.6.6Zm-18.7-10.4c.7.8 1.2 1.7 1.8 2.3.1.2.4.3.4.3l2.7-.6c-.7-.8-1.2-1.7-1.8-2.3 0-.2-.4-.3-.5-.2-1 0-1.8.3-2.6.5Zm13.5 3.8-1.9-2.3a.4.4 0 0 0-.5-.2c-.9.3-1.6.2-2.4.4 1.5 2.7 1.6 3 4.6 2.2 0 .2 0 .2.2-.1Zm-29.2-14.6c.7.8 1.2 1.7 1.8 2.3.1.2.4.2.6.1 1 0 1.8-.3 2.6-.5-.7-.8-1.2-1.7-1.7-2.4 0-.2-.3-.3-.6-.4l-2.7.9Zm30 15 1.7 2.7c0 .2.4.2.5.1l2.6-.5c-.7-.8-1.2-1.7-1.8-2.3-.1-.2-.4-.3-.7-.3-.7 0-1.5.2-2.4.4Zm-15-4.5c-.7-.8-1.2-1.7-1.6-2.4-.1-.2-.4-.3-.4-.3-.8.3-1.8.3-2.6.6l1.7 2.6.4.2c.6-.3 1.5-.4 2.5-.7Zm18.7 10.3L366 339a.4.4 0 0 0-.6-.1l-2.4.4c1.7 2.9 2 3 4.6 2.1.2.4.1.2.3.1Zm-20.4-12.9 1.9 2.5c0 .2.4.3.4.3.8-.3 1.7-.3 2.6-.6-.7-.8-1.3-1.7-1.7-2.4a.4.4 0 0 0-.5-.1c-.9-.3-1.7 0-2.7.3Zm2.7-1c-.7-.9-1.2-1.8-1.8-2.4-.1-.2-.4-.3-.6-.2-.8.3-1.7.3-2.6.6l2 2.5.3.2 2.7-.8Zm-32-7.5c.5.9 1.1 1.5 1.7 2.4l.4.2c.9 0 1.7-.3 2.8-.4-.5-1-1.1-1.5-1.5-2.3-.1-.1-.5-.4-.7-.3a7 7 0 0 0-2.7.4Zm8.5 1.3-1.6-2.4a.4.4 0 0 0-.6-.2c-1 0-1.8.3-2.9.5l1.7 2.4c0 .2.4.3.5.2 1-.1 1.9-.2 2.9-.5Zm28.6 12.5 2 2.5c0 .2.3.3.5.1l2.6-.5c-.7-.8-1.2-1.7-2-2.5 0-.2-.3-.2-.5-.1l-2.6.5ZM341 319.4c.5 1 1.2 1.7 1.6 2.4 0 .2.4.3.4.3 1 0 1.7-.3 2.7-.4l-1.9-2.3c0-.2-.3-.2-.6-.3-.5 0-1.3.3-2.2.3Zm2.2 3 1.8 2.4c.1.1.4.2.6.1.9 0 1.7-.3 2.6-.5l-1.9-2.3c0-.2-.4-.3-.5-.2l-2.6.5Zm3.8 5.8c-.7-.8-1.2-1.7-1.8-2.3-.1-.2-.4-.3-.6-.2l-2.6.5 1.8 2.4c.1.1.4.2.6.1.6-.1 1.6-.2 2.6-.5Zm-7.1-5.3c.7.8 1.2 1.7 1.8 2.3 0 .2.4.3.4.3.9 0 1.7-.3 2.5-.5l-1.8-2.4a.4.4 0 0 0-.5-.1c-.7.1-1.5.4-2.4.4Zm19 6.3L357 327c-.1-.2-.4-.3-.6-.1l-2.4.4c1.4 2.8 1.8 2.8 4.6 2.1.1.2.1.2.2 0Zm-2.6 1c.7.8 1.1 1.5 1.7 2.4 0 .2.4.3.5.5.9-.1 1.7-.3 2.5-.6-.7-.8-1.2-1.7-1.8-2.3 0-.2-.4-.2-.6-.3-.5 0-1.3.3-2.3.3Zm-13.8-8c-.7-.9-1.2-1.8-1.8-2.4-.1-.2-.4-.3-.6-.2-.9.1-1.7.3-2.6.6l1.9 2.3c0 .2.4.2.5.1.9-.2 1.6-.2 2.6-.5Zm24.2 12.6c-.7-.8-1.2-1.7-2-2.5 0-.2-.3-.3-.5-.1-.7 0-1.5.3-2.4.4.8 1 1.2 1.7 2 2.5 0 .1.3.2.5.1.7 0 1.6-.2 2.4-.4Zm-41.5-16 1.6 2.3c0 .2.4.3.7.3.9 0 1.7-.2 2.6-.3-.5-1-1-1.5-1.5-2.2-.1-.2-.4-.3-.7-.4a7 7 0 0 0-2.7.4Zm8.3 1.5c-.7-.8-1-1.5-1.5-2.2 0-.2-.4-.3-.7-.3-.9 0-1.7.3-2.6.3.5 1 1 1.5 1.5 2.2 0 .2.4.3.7.4.9 0 1.7-.3 2.6-.4Zm24.5 12.8c-.7-.8-1.2-1.7-1.6-2.4l-.5-.5c-1 .1-1.8.3-2.6.6.7.8 1.2 1.7 1.8 2.3.1.2.4.2.7.3.4 0 1.3-.3 2.2-.3Zm25.6 23.9 1.9 2.5c0 .1.5.4.7.3l2-.5c-.6-.8-1.1-1.7-1.8-2.5-.1-.2-.4-.3-.7-.3-.7 0-1.3.2-2.1.5Zm-32.7-29.2 1.8 2.4c.1.1.4.2.6.1.6-.1 1.4-.4 2.4-.4l-1.9-2.3a.4.4 0 0 0-.5-.2c-.7.1-1.5.4-2.4.4Zm8.8 2 1.6 2.3c.1.2.4.3.6.2l2.6-.5c-1.7-3-1.7-3-4.7-2.2l-.1.1Zm-7.8-5.7 1.8 2.4c0 .1.4.2.6.1l2.5-.5c-.7-.8-1.2-1.7-1.8-2.3 0-.2-.4-.3-.5-.2-.9.3-1.7.5-2.6.5Zm-19.6-6.4 1.6 2.4c.1.2.4.3.4.3 1 0 1.8-.3 2.6-.6-1.3-2.6-1.6-2.7-4.2-2.1 0-.2-.2-.1-.4 0Zm-17.4 2.8c.5 1 1.2 1.7 1.6 2.5.1.1.4.2.6.1 1 0 1.8-.3 2.7-.3-.5-1-1.1-1.6-1.6-2.5l-.4-.2c-1 0-1.8.3-2.9.4Zm38.6 6.5c-.7-.8-1.2-1.7-1.8-2.3 0-.2-.4-.2-.4-.2-.8.2-1.5.1-2.6.5l1.9 2.3c0 .2.4.3.5.2l2.4-.5Zm30 25.7-1.8-2.3c-.1-.2-.5-.5-.9-.3l-2 .5c.1.4.5.7.7 1 1.3 1.9 1.3 1.9 3.6 1.3l.4-.2ZM362 328.8c-.4-.7-1-1.5-1.7-2.1 0-.2-.5-.4-.8-.2l-2.2.3c1.1 2.4 1.9 3 4.4 2.2.2 0 .3-.2.3-.2Zm-14.5-10.5c.7.8 1.2 1.7 1.8 2.3.1.2.4.2.6.1 1 0 1.6-.2 2.6-.5l-1.8-2.3c-.1-.2-.4-.3-.7-.3-.7.4-1.6.6-2.5.7Zm7 5c-.7-.8-1.2-1.7-1.6-2.4a.4.4 0 0 0-.6-.1c-.8.2-1.6.2-2.6.5l1.9 2.3c0 .2.3.3.5.2a9 9 0 0 0 2.4-.5Zm21.7 23.8c.8-.3 1.6-.5 2.6-.6l-2-2.4c0-.2-.4-.3-.6-.4l-2.3.6c1 .9 1.6 2 2.3 2.8Zm9.6 8.8-1.3-1.9c0-.2-.3-.5-.6-.6 0-.2-.4-.3-.5-.2l-2.2.6c.3.5.6.9 1 1.1 1.3 1.9 1.3 1.9 3.6 1Zm-41.5-37c.5 1 1.1 1.5 1.5 2.3l.4.2c1 0 1.8-.3 2.6-.5-1.6-2.7-1.9-2.8-4.4-2.3l-.1.3Zm15.5 7c-1.4-2.6-2.8-3.3-4.5-2l1.4 2c.1.2.4.3.7.3 1 0 1.6-.2 2.4-.4Zm-13.4-4.1c.7.8 1.2 1.7 1.6 2.4.2.2.4.2.6.1 1 0 1.6-.1 2.6-.5l-1.8-2.3c-.1-.2-.4-.3-.7-.3-.5.3-1.4.5-2.3.6Zm23.2 16.4c.7.8 1.2 1.7 1.8 2.3l.4.2 2.3-.6c-1.6-2.7-2-3-4.3-2.3 0 .3 0 .3-.2.4Zm-26-19.6c-.5-1-1.1-1.5-1.5-2.2-.1-.2-.4-.3-.7-.4-1 0-1.6.2-2.4.5 1.3 2.6 1.6 2.7 4.1 2.1h.5Zm-3.3.5-1.7-2.2-.4-.2c-1 0-1.8.3-2.7.3.7.8 1.1 1.6 1.7 2.2.1.2.4.2.7.3.7 0 1.6-.2 2.4-.4Zm40.7 30.5-1.3-1.9c-.1-.2-.2-.4-.5-.4-.1-.2-.4-.3-.7-.4l-2.1.5.7 1.3c1.7 1.7 1.7 1.7 3.9.9Zm-25.6-29.7c-.7-.8-1-1.5-1.8-2.3a.4.4 0 0 0-.5-.1c-1 0-1.6.1-2.6.5.7.8 1.2 1.7 1.8 2.3.1.2.4.3.6.2 1-.4 1.7-.3 2.5-.6Zm16.5 21.5c.5.9 1.1 1.5 1.7 2.4 0 .2.3.2.6.3l2.1-.5c-1.2-2.9-1.8-3.2-4.4-2.2.2-.1.2-.1 0 0ZM357.7 323l-1.8-2.4c-.1-.1-.4-.2-.6-.1l-2.4.4 1.8 2.3c.1.2.4.3.7.4.5-.4 1.4-.6 2.3-.6Zm9.6 12c.7.7 1.2 1.6 1.9 2.4 0 .2.4.3.5.2.7-.1 1.5-.4 2.4-.4-.7-.8-1.2-1.7-1.8-2.3 0-.2-.4-.3-.6-.4-.9.3-1.7.5-2.4.4Zm2.1-.8c-1.2-2.7-2.2-3-4.5-2l1.9 2.3c0 .2.3.3.5.2l2.1-.5Zm-4.3-6c-1.3-2.5-2.2-3-4.5-1.9l1.7 2.1c.1.2.4.3.6.2.6-.1 1.4 0 2.2-.3Zm-6.7-9c-1.5-2.5-2.4-3-4.3-2 1.3 2.7 1.7 3 4.3 2Zm4.5 6c-1.2-2.4-2.3-3-4.5-2 .4.8 1 1.4 1.4 2.1 0 .2.5.5.7.4.9 0 1.5-.2 2.4-.5Zm-6.9-5.1c.7.8 1.2 1.7 2 2.5 0 .1.2 0 .3.2l2.4-.4c-.7-.8-1-1.5-1.8-2.3 0-.2-.4-.3-.7-.3l-2.2.3Zm6.6 8.9 1.8 2.3c.1.2.4.3.4.3.8-.3 1.6-.2 2.4-.5l-1.7-2.1c-.1-.2-.5-.4-.7-.3l-2.2.3Zm-17.2-13.6c.7.8 1.1 1.5 1.5 2.2.1.2.4.3.6.2 1 0 1.6-.2 2.6-.5l-1.7-2.2c-.1-.1-.4-.2-.6-.1-.7.1-1.5.4-2.4.4Zm1.5 2.7c-.7-.8-1-1.5-1.7-2.1 0-.2-.4-.3-.5-.2-.9.3-1.6.2-2.4.5.7.8 1 1.5 1.7 2 0 .3.4.3.5.2l2.4-.4Zm1.6-3c.6.8 1.2 1.4 1.6 2.2 0 .1.4.2.5.1l2.4-.4c-.7-.8-1-1.5-1.7-2.1 0-.2-.4-.3-.6-.4-.5 0-1.2.2-2.2.5Zm7.6 1.3c-1.2-2.4-2-2.6-4.5-2 .4.8 1 1.4 1.4 2.1.1.2.4.3.7.4l2.4-.5Z"/><path fill="#5C5F63" fill-rule="evenodd" d="m356.7 312.5 38-6.2 34.8 44.2-38.2 9.3-34.6-47.3Zm1.4.6 33.5 45.8 36.5-8.9-33.8-42.8-36.2 5.9Z" clip-rule="evenodd"/><path fill="#5C5F63" fill-rule="evenodd" d="m396.6 309.6-36.9 6.6v-.4l36.8-6.6v.4ZM399 312.7l-37 6-.1-.3 37.1-6v.3ZM401.4 315.4l-37.3 6.7v-.4l37.2-6.6v.3ZM403.4 318.1l-37.3 6.7v-.4l37.3-6.7v.4ZM405.8 321l-37.6 6.6v-.4l37.6-6.5v.3ZM407.9 323.7l-37.4 7-.1-.4 37.4-7v.4ZM410 326.8l-37.2 7v-.3l37.2-7.1v.4ZM412.5 329.7l-37.7 7.1-.1-.4 37.7-7.1.1.4ZM414.6 332.5l-37.4 7.3-.1-.4 37.5-7.3v.4ZM417.2 335.4l-38 7.5v-.4l38-7.5v.4ZM419.5 338.4l-38 7.7v-.4l37.9-7.7v.4ZM421.8 341.1l-38 8v-.4l37.9-8v.4ZM424 344.2l-37.9 8.1v-.3l37.8-8.2v.4ZM426.4 347l-37.8 8.5v-.4l37.7-8.4.1.4Z" clip-rule="evenodd"/><path fill="#5C5F63" fill-rule="evenodd" d="m395.5 358.5-34.9-45.9.4-.2 34.8 45.8-.3.3ZM398.2 357.7 363.9 312l.3-.3 34.3 45.7-.3.3ZM401.6 356.9l-34.2-45.5.3-.3 34.2 45.6-.3.2ZM404.4 356l-34-45.2.3-.2 34 45.1-.3.3ZM407.8 355.2l-34.3-45 .3-.2 34.4 45-.4.2ZM410.5 354.4l-33.8-44.3.3-.3 33.8 44.4-.3.2ZM414 354.1l-34.5-44.7.3-.2 34.4 44.7-.3.2ZM417 353l-34.8-44.2.4-.2 34.7 44.2-.3.3ZM420 352.5l-34.6-44 .3-.3 34.6 44-.3.3ZM422.8 351.9l-34.4-44 .4-.3 34.3 44-.3.3ZM425.6 351l-34.3-43.6.3-.2 34.3 43.5-.3.3ZM617.4 251.4l14.4-1.6 28 26.2-14.3 3-28.1-27.6Zm1.8.6 26.5 26.2 12.4-2.7-26.6-24.9-12.3 1.4ZM531 263l23-3.8 29.6 32.1-22 4.5L531 263Zm.4.1 30.3 32.5 21.5-4.4-29.4-31.7-22.4 3.6Z" clip-rule="evenodd"/><path fill="#5C5F63" fill-rule="evenodd" d="m555.8 261.5-22.7 3.7v-.2l22.7-3.7v.2ZM557.7 263.5l-22.6 3.9v-.2l22.5-3.9v.2ZM559.7 265.7l-22.4 3.8v-.2l22.3-3.8v.2ZM561.7 268l-22.5 3.5v-.2l22.4-3.6v.2ZM563.6 270l-22.4 3.7v-.2l22.3-3.7v.1ZM565.6 272.2l-22.4 3.7v-.2l22.3-3.7v.2ZM567.6 274.4 545 278v-.2l22.4-3.6v.2ZM569.5 276.4l-22.4 3.8v-.2l22.3-3.8v.2ZM571.6 278.5l-22.5 3.9v-.2l22.5-3.9v.2ZM573.6 280.7l-22.6 3.7v-.2l22.6-3.7v.2ZM575.5 282.7l-22.5 4v-.3l22.5-3.9v.2ZM577.5 285l-22.5 3.8v-.2l22.5-3.9v.2ZM579.5 287.1l-22.5 3.7v-.2l22.5-3.7v.2ZM581.4 289.2 559 293v-.2l22.4-3.8v.2ZM583.4 291.4l-21.8 4.4v-.2l21.8-4.4v.2Z" clip-rule="evenodd"/><path fill="#5C5F63" fill-rule="evenodd" d="m563.3 295.5-30-32.6v-.1l30.2 32.5-.2.2ZM565.2 295 535 262.7l.1-.1 30.3 32.4-.2.2ZM567 294.8l-30.1-32.6.1-.1 30.1 32.5-.1.2ZM569 294.4l-30.3-32.5.1-.1 30.3 32.4-.2.2ZM570.6 293.9l-30-32.4.1-.1 30 32.4-.1.1ZM572.3 293.6l-29.9-32.2.2-.1 29.9 32.2-.2.1ZM573.9 293l-29.5-32 .1-.1 29.5 32h-.1ZM575.8 292.6l-29.7-31.9.2-.1 29.7 31.8-.2.2ZM577.6 292.3l-29.5-32 .1-.1 29.5 32h-.1ZM579.6 292 550 260l.2-.2 29.6 32.1-.2.1ZM581.6 291.6l-29.7-31.8.1-.1 29.7 31.8-.1.1ZM583.3 291.3l-29.5-31.9.2-.1 29.5 32h-.2ZM599.6 254.2l16.3-2.2v.2l-16 2 29 27.8-.1.1-29.2-28Z" clip-rule="evenodd"/><path fill="#5C5F63" fill-rule="evenodd" d="m617.9 254-16.3 2.1v-.1l16.2-2.2v.1ZM620 255.9l-16.4 2.2v-.2l16.3-2.2v.2ZM621.7 257.7l-16.1 2.1v-.1l16.1-2.1v.1ZM623.7 259.5l-16.2 2.3v-.1l16.2-2.4v.2ZM625.6 261.5l-16.1 2 16-2.2v.2ZM627.5 263.2l-16.2 2.2v-.1l16.2-2.2v.1ZM629.4 265.3l-16 2v-.1l16-2.1v.2ZM631.4 267l-16.1 2.1v-.2l16-2 .1.1ZM633.4 268.7l-16.2 2.4v-.1l16.2-2.4v.1ZM635.3 270.8l-16.1 2 16-2.2v.2ZM637.2 272.5l-16.3 2.2v-.1l16.3-2.2v.1ZM639.1 274.5l-16 2.1-.1-.1 16.1-2.1v.1ZM641.1 276.3l-16.3 2.2v-.2l16.3-2.2v.2ZM642.9 278.1l-16 2.3v-.1l16-2.3v.1ZM644.4 279.4l-15.5 2.8v-.2l15.4-2.7v.1Z" clip-rule="evenodd"/><path fill="#5C5F63" fill-rule="evenodd" d="M629.9 282 601 254.2l.1-.1 28.8 27.8h-.1ZM631.3 281.9 602.5 254l.1-.1 28.8 27.8h-.1ZM632.8 281.5l-29-27.7h.1l29 27.6-.1.1ZM634.2 281.4l-29-27.6v-.2l29 27.7v.1ZM635.4 281.2l-29-27.7.2-.1 29 27.7h-.2ZM636.8 281l-29-27.8L637 281ZM637.7 280.6 609.2 253l28.6 27.3v.2ZM639.1 280.5l-28.7-27.6.2-.1 28.6 27.6ZM640.4 280.2l-28.6-27.4.2-.1 28.5 27.4v.1ZM641.7 280l-28.6-27.5h.1l28.6 27.3v.1ZM643 279.7l-28.5-27.3h.1l28.5 27.2ZM644.2 279.2l-28.4-27 .1-.1 28.4 27-.1.1ZM618.3 252l13.8-1.9v.2l-13.5 1.8 27.6 26.6v.1L618.2 252Z" clip-rule="evenodd"/><path fill="#5C5F63" fill-rule="evenodd" d="m633.3 252-13.1 1.8v-.2l13.1-1.8v.2ZM635.3 253.7l-13.4 1.8v-.2l13.4-1.7v.1ZM637 255.6l-13.2 1.6v-.1l13.3-1.7v.2ZM639.2 257.2l-13.6 1.9v-.2l13.6-1.8v.1ZM641 258.9l-13.4 1.9v-.2l13.3-1.9v.2ZM642.9 260.6l-13.6 1.9v-.2l13.6-1.8v.1ZM644.7 262.5l-13.6 1.8v-.1l13.5-1.9v.2ZM646.8 264l-13.8 2 13.8-2ZM648.6 266l-13.8 1.9v-.1l13.8-2v.1ZM650.6 267.7l-14 1.8v-.2l14-1.8v.2ZM652.3 269.4l-13.8 2v-.2l13.7-2v.2ZM654.2 271.1l-14 2 14-2.2v.2ZM656 273l-13.9 1.7v-.1l13.9-1.8v.1ZM658 274.7l-14 1.9-.1-.2 14-1.9v.2Z" clip-rule="evenodd"/><path fill="#5C5F63" fill-rule="evenodd" d="m647.4 278.6-27.9-26.7h.1l28 26.6h-.2ZM648.5 278.4l-27.7-26.7.1-.1 27.7 26.7v.1ZM649.8 278.1l-27.6-26.5.1-.1L650 278v.1ZM650.8 277.8l-27.3-26.5h.1l27.3 26.4v.1ZM652 277.4l-27.4-26.2.1-.1 27.4 26.1v.2ZM653.4 277.3 626 251l.1-.1 27.4 26.2ZM654.5 277.1l-27.2-26.3h.1l27.2 26.2v.1ZM655.5 276.8l-27-26.1v-.1l27.1 26v.2ZM656.8 276.5l-27-26h.1l27 25.9v.1ZM599 256.2l-16.2 2.9v-.2l16.1-2.8v.1ZM600.7 258l-16.1 3v-.2l16.1-2.9v.2ZM602.8 260l-16.6 2.9v-.2l16.6-2.9v.2ZM604.6 261.8l-16.6 3v-.3l16.6-2.8v.1ZM606.5 263.9l-16.7 2.7v-.2l16.7-2.7v.2ZM608.5 265.6l-16.8 3v-.2l16.7-3v.2ZM610.3 267.5l-16.8 3v-.2l16.7-3v.2ZM612.1 269.5l-17 2.9v-.2l17-2.9v.2ZM614.1 271.2l-17.3 3v-.1l17.3-3v.1ZM616 273.3l-17.4 2.8v-.2l17.4-2.8v.2ZM617.8 275.1l-17.3 3v-.2l17.3-3v.2ZM619.8 276.8l-17.5 3.2v-.2l17.4-3.1v.1ZM621.7 278.9l-17.8 3v-.2l17.7-3v.2ZM623.4 280.7l-17.7 3v-.1l17.7-3v.1ZM625.5 282.6l-18 3v-.2l18-3v.2Z" clip-rule="evenodd"/><path fill="#5C5F63" fill-rule="evenodd" d="M609 285.4 582.5 257l.1-.1 26.5 28.4h-.1ZM610.6 285.2 584 256.6h.1l26.6 28.5-.1.1ZM612 284.8l-26.4-28.4 26.6 28.3-.2.1ZM613.6 284.6 587 256.1l.1-.1 26.6 28.5v.1ZM615 284.3l-26.4-28.4.1-.1 26.5 28.4h-.1ZM616.7 284l-26.5-28.3.1-.1 26.5 28.4h-.1ZM618.2 283.9l-26.6-28.6h.2l26.6 28.5h-.2ZM619.7 283.5l-26.5-28.4h.1l26.5 28.3v.1ZM621.3 283.3 594.8 255l.1-.2 26.5 28.4-.1.1ZM622.8 283l-26.5-28.4v-.1l26.6 28.4h-.1ZM530.4 262.3l23.5-2.8 31 31.9-23.4 4.7-31.1-33.8Zm1.6.6 29.8 32.4 21.4-4.4-29.6-30.6L532 263ZM556.5 259.2l19.9-2.4 29.7 29.7-19.2 4.5-30.4-31.8Zm1.7.6 29 30.3 17.3-4-28.4-28.4-18 2.1Z" clip-rule="evenodd"/><path fill="#5C5F63" d="m578 259-19.1 2.8 19.1-3.2v.3ZM580 260.8l-19.1 3.2-.1-.2 19.1-3.1.1.1ZM581.9 262.9l-19 3v-.2l19.2-3-.2.2ZM584 265l-19.2 3 .1-.4 19-2.8.2.2ZM586.1 266.9l-19.2 3 19.1-3.2.1.2ZM588 269l-19.1 3v-.2l19-3 .1.1ZM590.1 270.8 571 274l-.1-.2 19.2-3ZM592.1 273l-19 2.9-.2-.2 19.3-3-.1.3ZM594.2 275l-19.3 3v-.3l19.2-3v.3ZM596 277l-19 2.8 19.1-3v.2ZM598.1 279l-19 3v-.2l19-3v.1ZM600.2 280.8l-19.1 3.2-.1-.2 19.2-3ZM602.2 283l-19.2 3v-.3l19.3-3v.4ZM604.3 285l-19.3 3v-.3l19.2-3v.3Z"/><path fill="#5C5F63" d="m588.7 290.1-30.3-30.5h.2l30.3 30.4-.2.1ZM590.4 289.6 560 259.4h.1l30.5 30.1-.2.1ZM591.7 289l-30.2-29.7.2-.1L592 289h-.2ZM593.3 288.9l-30-30 30.2 29.9-.2.1ZM594.9 288.7l-30-30v-.2l30.2 30.1-.2.1ZM596.6 288.4l-30.3-30 .2-.1 30.1 30.1ZM598.2 288.2l-30.3-30h.2l30.2 29.7v.3ZM599.7 287.9l-30-30 30.2 29.9h-.2ZM601.3 287.7l-30-30h.1l30 29.9h-.1ZM603 287.2l-30.2-29.7v-.2l30 29.7.1.2ZM604.3 286.6l-30-29.4.2-.1 30 29.4-.2.1ZM605.4 286.5 575.9 257l.1-.1 29.6 29.5h-.2Z"/><path fill="#5C5F63" fill-rule="evenodd" d="m579.6 256.7 18.2-2.4 28.7 28.9-18.6 3.4-28.3-29.9Zm1.7.6 27 28.4 16.6-3-27.4-27.6-16.2 2.2ZM599 254.1l17.4-2.1 28.3 27.6-16.5 3.2-29.2-28.7Zm1.7.6 27.7 27.3 14.7-2.9-27-26.3-15.4 1.9ZM617.7 252l14.3-1.8 28 26.1-14.2 3.3-28-27.7Zm1.8.5 26.6 26.2 12.2-2.8-26.6-24.9-12.2 1.5ZM438 288.8l3.1 1.3 4.7 8.2-8.4-6.7.7-2.8Zm-.4 2.7 7.5 6-4.1-7.2-2.8-1.2-.6 2.4Z" clip-rule="evenodd"/><path fill="#394149" d="m434.5 282.2-1.8 1 4.8 8.3 1.8-1-4.8-8.3Z"/><path fill="#5C5F63" fill-rule="evenodd" d="m432.3 283.2 2.3-1.3 5 8.7-2.2 1.3-5-8.7Zm.7.1 4.6 7.9 1.3-.8-4.5-7.8-1.4.7Z" clip-rule="evenodd"/><path fill="#394149" d="M531.4 335.4s7.2-6.3 9-6.6c1.9-.4 7 2.2 7 2.2l-3 6s-4.5-2.6-6.8-.3l-3.5 3-2.5-4.4-.2.1Z"/><path fill="#5C5F63" fill-rule="evenodd" d="m531.4 335.5 2.6 4.6.2-.2.2-.2a105.7 105.7 0 0 0 3.4-2.8c1-1.1 2.6-1 4-.6a10.8 10.8 0 0 1 2.4 1l.3.1 3.2-6.5-.2-.1a18 18 0 0 0-.8-.4 36.6 36.6 0 0 0-4.4-1.6 5 5 0 0 0-2-.2c-.3 0-.6.2-1 .4l-1.2.8a54.2 54.2 0 0 0-5.7 4.5l-.9.7-.2.2v.3ZM547 331l-.6-.2a35.3 35.3 0 0 0-4.2-1.6c-.7-.2-1.4-.3-1.8-.2a3 3 0 0 0-.8.3l-1.2.8a53.7 53.7 0 0 0-6.5 5.2l2.2 3.9.6-.5 2.8-2.3c1.2-1.3 3-1.1 4.4-.7a11.3 11.3 0 0 1 2.4 1l2.7-5.7Z" clip-rule="evenodd"/><path fill="#252E36" d="M555.4 338.5c2.3-4.7 2.4-9.3.4-10.3-2.1-1-5.6 2-7.9 6.7-2.2 4.6-2.4 9.2-.3 10.2 2 1 5.6-2 7.8-6.6Z"/><path fill="#5C5F63" fill-rule="evenodd" d="M547 343.6c.2.5.5.9.8 1 .4.2.9.2 1.4 0 .6-.1 1.2-.5 2-1 1.3-1.2 2.7-3 3.8-5.4 1-2.2 1.6-4.5 1.7-6.2 0-1 0-1.7-.3-2.2-.2-.6-.5-1-.9-1.1-.3-.2-.8-.2-1.4 0l-1.9 1.1c-1.3 1.2-2.7 3-3.8 5.3a16.3 16.3 0 0 0-1.7 6.3c0 .9 0 1.6.3 2.2Zm-1.4-2.2c0-2 .7-4.4 1.9-6.7 1.1-2.4 2.6-4.4 4-5.7.8-.6 1.6-1 2.3-1.3.8-.2 1.5-.3 2.2 0 .6.4 1.1 1 1.4 1.7.3.7.4 1.6.3 2.6 0 2-.6 4.3-1.8 6.7a17.4 17.4 0 0 1-4.1 5.6c-.7.6-1.5 1.1-2.2 1.3-.8.3-1.5.3-2.2 0-.7-.3-1.1-1-1.4-1.7-.3-.7-.4-1.6-.4-2.5Z" clip-rule="evenodd"/><path fill="#394149" d="M554.6 328c-2.1.6-4.9 2.9-6.9 7-1.8 3.9-2.2 7.7-1 9.4l-.4-.7-2.3-6.4 3-6 6-2.6 1.6-.6Z"/><path fill="#5C5F63" fill-rule="evenodd" d="m546.8 331 6-2.5 1.7-.7.2.5-1.6.7c-1.8 1-3.7 3-5.2 6-.9 2-1.4 3.9-1.6 5.5-.1 1.4 0 2.5.3 3.3l.3.5-.4.2c-.2-.1-.2-.3-.3-.5l-.2-.2-2.3-6.5 3.1-6.3Zm-1 10.4-1.5-4.1 3-5.9 3.8-1.6a17 17 0 0 0-3.6 5 18.7 18.7 0 0 0-1.8 6.6Z" clip-rule="evenodd"/><defs><linearGradient id="b" x1="471.4" x2="1024.7" y1="344.4" y2="663.8" gradientUnits="userSpaceOnUse"><stop stop-color="#fff" stop-opacity=".1"/><stop offset="1" stop-color="#fff" stop-opacity="0"/></linearGradient><clipPath id="a"><path fill="#fff" d="M403 344h806v639H403z"/></clipPath></defs></svg>