<svg xmlns="http://www.w3.org/2000/svg" width="1232" height="1105" fill="none"><path stroke="#313D49" stroke-dasharray="9 9" stroke-linecap="round" stroke-linejoin="round" stroke-width="2" d="M1586.6 634c37.2-210.8 67.8-492.3-158.5-532.3C1201.7 61.8 804 278.6 766.8 489.3c-37.2 210.8 116.2 414 342.6 454 226.3 40 440-98.6 477.2-309.3Z"/><g clip-path="url(#a)"><path fill="url(#b)" d="M809.5 403.3-.1 403l405 701.5 404.6-701.2Z" opacity=".2"/></g><g clip-path="url(#c)"><g fill="#5C5F63" clip-path="url(#d)" opacity=".2"><circle cx="782.8" cy="393.4" r="59.7" transform="rotate(-6.2 782.8 393.4)"/><circle cx="782.8" cy="393.4" r="115.5" fill-opacity=".2" transform="rotate(-6.2 782.8 393.4)"/><circle cx="782.8" cy="393.4" r="87.9" fill-opacity=".4" transform="rotate(-6.2 782.8 393.4)"/></g><path fill="#252E36" d="m723.8 369.7 54.8-31.5 16.2-9.5 14.8-.6 4.6 3.6 5.6 14.1 10.3 6.7 15-11.7 2.5.4 1.2 1.5-.3 2.3-14.4 11.8 1.8 20.8 6.7 11.2-3 9.8-39.5 51.1-4.8 4-6.3-2-.6-7.6 4.9-5-22.7 7.2-2.7 11.4-5 5.1-8.5-10.1 7.8-9-7.5-6-22.1-15-9 6.5-3.6-4.3-2.2 1.8-5.4-5.9 1.1-2.9 6-3.7 10.2-.7-9.3-38.4h-10l-.3-2.2 13.7-3.2Z"/><path fill="#5C5F63" fill-rule="evenodd" d="m795.8 453.2 5-4.1 40.2-51.5 3.2-10.1-6.6-11.2-1.6-20.5 14.4-11.8.5-2.7-1.5-1.7-2.8-.5-15.1 11.7-9.8-6.3-5.5-14-4.8-3.7-15.2.7-16.4 9.7-55.1 32-14.2 3.3.5 3h10l8.7 37.4-9.7.7-6.3 3.9-1.3 3.3 5.8 6.4 2.2-1.8 3.5 4.2 9.2-6.7 21.8 14.6 7 5.6-7.8 9 9 10.8 5.5-5.7 2.8-11.3 20.8-6.7-3.8 3.9.6 8.2 6.8 2Zm-.2-1-5.8-1.6-.5-7.2 6.1-6.2-24.8 8-2.8 11.6-4.7 4.7-7.8-9.4 8-9.1-7.8-6.2-22.4-15-9 6.6-3.6-4.3-2.2 1.8-4.8-5.3 1-2.5 5.8-3.6 10.6-.8-9.1-39.2h-10l-.2-1.3L725 370l55.2-32 16.3-9.6 14.6-.7 4.3 3.4 5.5 14 10.6 6.8 15.3-11.9 2.1.4 1 1.2-.3 2-14.6 11.8 1.7 21.2 6.5 11-3 9.6-40 51.2-4.6 3.8Z" clip-rule="evenodd"/><path fill="#5C5F63" fill-rule="evenodd" d="m783 391.2 11.3 1.3v.6l-12-1.4-.7-12.3 18.5 2.7 34.2-26.7.4.4-34.5 26.9-18-2.6.7 11Z" clip-rule="evenodd"/><path fill="#394149" d="m736.2 513.9 25.1-51.5-46.4-38.2-19.9 55.3 41.2 34.4Z"/><path fill="#5C5F63" fill-rule="evenodd" d="m736.2 513.9 25.1-51.5-46.4-38.2-19.9 55.3 41.2 34.4Zm-.2-1-40.3-33.6 19.5-54.1 45.4 37.3L736 513Z" clip-rule="evenodd"/><path fill="#5C5F63" fill-rule="evenodd" d="m736.4 513.8 11.3-23.2-43.8-36.7-9.2 25.2 41.7 34.7Zm-.2-1L695.4 479l8.8-24 42.8 35.9-10.8 22ZM747.8 490.3l12-25.2-46.7-37.6-9.2 26.4 43.9 36.4Zm-.2-.9-43-35.6 8.8-25.3 45.8 36.8-11.6 24.1ZM850 462.1l-3.8-64.5-48.7-7.7L803 450l47 12Zm-.6-.8-45.9-11.7-5.4-59 47.6 7.5 3.7 63.2Zm57.4 16.5-.6-67.7-56-10.8 4.1 64.6 52.5 14Zm-.6-.7-51.3-13.6-4.1-63.4 54.8 10.4.6 66.6Z" clip-rule="evenodd"/><path fill="#394149" d="M757.5 350.6 726 368.9l-13.5 3.3.3 2.1h9.8l24.5 8 10.4-31.7Z"/><path fill="#5C5F63" fill-rule="evenodd" d="m747.4 383.4 10-33.6-32.2 18.4-14 3.2.4 2.7 10.3.2 25.5 9Zm-.3-.8-25.1-9H712l-.3-1.8 13.6-3 31-17.8-9.3 31.6Zm10.4-28.3 33.8 29.8.4-.4-33.8-29.8-.4.4Z" clip-rule="evenodd"/><path fill="#394149" d="m702.3 374.4 39.2-24.7L682 253l-35.4 33.3 55.8 88.1Z"/><path fill="#5C5F63" fill-rule="evenodd" d="m741.8 352.2-60.6-97.7-35.4 33.4 56.6 88.9 39.4-24.6ZM702.6 376l-56-88 34.5-32.6L741 352l-38.4 24Z" clip-rule="evenodd"/><path fill="#5C5F63" fill-rule="evenodd" d="m740.4 349.8-28.5-45.6-37.2 28.8 25.7 40.6 40-23.8Zm-39.8 23-25.1-39.7 36.2-28 27.8 44.5-39 23.2Zm7.6-71.5-28-45.9-34.4 32 26.6 41.8 35.8-27.9Zm-35.7 27-26-40.8 33.6-31.2 27.3 44.9-34.9 27.2Z" clip-rule="evenodd"/><path fill="#5C5F63" fill-rule="evenodd" d="m727.9 316.3 61 15.5v.5L727.6 317l-11.6-4.9.3-.5 11.5 4.8Z" clip-rule="evenodd"/><path fill="#5C5F63" fill-rule="evenodd" d="M766.2 346 728 316.4l-.4.5 38.2 29.4.4-.5Z" clip-rule="evenodd"/><path fill="#394149" d="m779.5 355.9 9.4-7.7 24.2 17-9.6 7.8-24-17.1Z"/><path fill="#5C5F63" fill-rule="evenodd" d="m803.9 374 10.2-8.3-24.4-16.8-10.1 8.2 24.3 17Zm0-.7-23.4-16.2 9.2-7.5 23.4 16.2-9.2 7.5Z" clip-rule="evenodd"/><path fill="#394149" d="m813.8 367 15.6-12.8-29.8-21.3-13.1 10 3 2.3-2.8 2.3 27 19.4Z"/><path fill="#5C5F63" fill-rule="evenodd" d="m814 366.7 16.3-13.3-30-21-13.8 10.4 3 2.4-2.8 2.3 27.3 19.2Zm0-.7-26.4-18.6 2.8-2.3-3-2.3 13-9.7 29 20.4L814 366Z" clip-rule="evenodd"/><path fill="#394149" d="m816 335.6 8.3-7.5-7-5-6.5 2.5 5.3 10Z"/><path fill="#5C5F63" fill-rule="evenodd" d="m816 335.6 8.3-7.5-7.7-5.9-6.6 2.4 6 11Zm.2-1-5.4-9.6 5.7-2 6.9 5-7.2 6.7ZM804 374.2l10.2-8.4-24.4-16.8-10.1 8.2 24.3 17Zm0-.8-23.4-16.2 9.2-7.5 23.5 16.2-9.3 7.5Z" clip-rule="evenodd"/><path fill="#5C5F63" fill-rule="evenodd" d="m814 366.7 16.3-13.3-31.2-22.4-13.4 10.8 3.1 2.5-2.8 2.3 28 20.1Zm0-.7-27-19.5 2.7-2.2-3-2.5 12.4-10.1 30.3 21.8L814 366Z" clip-rule="evenodd"/><path fill="#5C5F63" fill-rule="evenodd" d="m827 351.8-15.3 12.6 15.4-12.5Zm-.4-3.1L810.3 362l16.4-13.2-.1-.1Zm-2.3-.4-15.4 12.5.1.1 15.4-12.5-.1-.1Zm-2.7-.6L805.2 361l.1.2 16.4-13.3-.1-.2Zm-1.4-1.1L804 359.9l.1.1 16.3-13.3v-.1Zm-1.4-2.4-16.3 13.3.1.1 16.3-13.3v-.1Zm-1.3-1.2-16.3 13.3.1.2 16.3-13.3v-.2Zm-1.3-1.1L800 355.2v.1l16.4-13.3v-.1Zm-3.9-2.3L796 353l.1.2 16.3-13.3v-.2Zm-1.3-1.1-16.3 13.3.1.1 16.3-13.3v-.1Zm-1.2 0L793.5 352l16.4-13.2-.1-.1Zm-1.3-1-16.3 13.2v.1l16.4-13.3h-.1Zm-2.7-2.4-16.3 13.3.1.1 16.3-13.3Zm-2.5-1L787 347.2v.1l16.4-13.3h-.1Zm-1.3-1.2-16.3 13.3 16.4-13.2-.1-.1Zm-1.6-.8-12.5 10.2v.1l12.6-10.1-.1-.2Z" clip-rule="evenodd"/><path fill="#5C5F63" fill-rule="evenodd" d="m787 344 28 20.3v-.2L787 344Zm.8-3.3 31.5 20.6v-.1L788 340.5v.2Zm1.2-1.3 31.4 20.6.1-.1-31.4-20.7-.1.2Zm1.1-1.4 31.5 20.7v-.1l-31.4-20.7v.1Zm2.4-1.3 31.5 20.6v-.1l-31.4-20.7v.2Zm2.4-1.4 31.5 20.6v-.1L795 335l-.1.2Zm1.2-1.4 31.4 20.7.1-.2-31.4-20.6-.1.1Zm2.3-1.4 31.5 20.7.1-.2-31.4-20.6-.2.1Zm12.1 31-9.6 7.7.1.2 9.6-7.9Zm-1.2 0-9.6 7.8v.1l9.7-7.8-.1-.1Zm-1.3-1.2-9.6 7.9 9.7-7.7-.1-.2Zm-1.3-1.1L797 369v.1l9.7-7.8-.1-.1Zm-1.4-2.4-9.6 7.8v.1l9.7-7.8-.1-.1Zm-3.8-1-9.6 7.8v.1l9.7-7.8h-.1Zm-1.3-1.2-9.6 7.9 9.7-7.7-.1-.2Zm-1.4-2.3-9.6 7.8v.1l9.7-7.8-.1-.1Zm-1.3 0-9.6 7.9h.1l9.6-7.7v-.2Zm-1.3-1.1-9.6 7.8.1.1 9.6-7.8v-.1Zm-2.5-1.1-9.6 7.8v.1l9.7-7.8-.1-.1Zm-2.7-2.3-9.6 7.8.1.1 9.6-7.8v-.1Zm-1.3-1.2-9.6 7.9h.1l9.6-7.7v-.2Z" clip-rule="evenodd"/><path fill="#5C5F63" fill-rule="evenodd" d="m782 355.8 23.8 17.2.1-.1-23.8-17.3-.1.2Zm1.2-1.4 23.8 17.3v-.1l-23.8-17.3v.1Zm1.1-1.3 23.9 17.3v-.1L784.4 353v.1Zm2.4-1.4 23.8 17.3.1-.1-23.8-17.3-.1.1Z" clip-rule="evenodd"/><path fill="#5C5F63" d="m700.3 372.4 38.4-22.5c-9.6-15.2-19.3-30.2-28.8-45.4-11.9 9.2-23.7 18.2-35.5 27.5l26 40.4Zm-6.5-11.3-2-3.1-2-3 2.5-1.5c.3-.3.7-.2.7.2l1.1 1.8c.3.3.3.5-.1.7l-2 1.2s0 .3-.2.4h.6l1.9-1.2h.6c.6.7 1 1.4 1.3 2.1.1.1 0 .5-.1.6-.6.7-1.5 1.1-2.3 1.8Zm41.5-14.8 2 3c.2.4 0 .6-.2.8l-3 1.8c-.3.2-.5.2-.7 0l-1.7-2.8c-.2-.3-.2-.5.2-.8l3-1.8c.1-.3.3-.3.4-.2Zm-4.2 2.5 1.9 3c0 .1 0 .4-.2.5l-2.7 1.7c-.3.1-.6 0-.8-.2l-1.6-2.7c-.2-.2-.3-.6.2-.8l2.7-1.6s.3.2.5 0Zm-7.6 4 2.8-1.6c.2-.1.5 0 .7.3.6 1 1 1.8 1.7 2.7.1.2 0 .6-.2.6l-2.7 1.6c-.1 0-.4 0-.5-.2l-1.7-2.7-.1-.6Zm-10.7-38.4 1.2-1c.2-.2.4-.2.7 0 .4.9 1 1.7 1.5 2.3.2.3.1.5-.2.8l-2 1.4c-1.3.8-1.3.8-2.2-.5-.2-.6-1-1.2-.8-1.8.1-.3 1-.6 1.8-1.3Zm-2.6-3.6c.6-.3 1.1-.6 1.5-1 .2-.1.4-.1.6.1.5.9 1.2 1.6 1.5 2.3.2.2.1.6 0 .7-1 .8-1.8 1.5-2.9 2.1-.1.1-.6 0-.5-.1-.7-.8-1-1.5-1.6-2.3-.3-.4 0-.6.2-.8l1.2-1Zm20.5 28 1.6 2.7c.1.2 0 .5-.1.6l-3 1.8c-.1 0-.4 0-.5-.2-.5-.8-1.2-1.6-1.5-2.3-.2-.1-.1-.6 0-.7l3-1.8h.5Zm-13.6-17 1.5-1c.2-.2.4-.1.6.1.5.8 1.1 1.6 1.4 2.4v.7l-2.9 1.9c-.2.2-.5.2-.8-.2l-1.4-2.2c-.3-.4-.2-.7.2-.8.6-.2 1-.6 1.4-1Zm10.4 13.1c-1 .6-2 1.2-2.8 1.9-.4.3-.6.2-.8-.2l-1.4-2.2c-.3-.4-.2-.5.2-.8 1-.5 2-1.1 2.8-1.8.3-.3.5-.3.7.2l1.4 2.2c.3.3.3.6-.1.7Zm-4.4-7.4c-1 .7-2 1.5-3 2-.4.3-.6.3-.8-.2l-1.4-2.2v-.6l3-2c.2-.1.4-.1.7.3l1.5 2.3s-.1.3 0 .4Zm2.4 3.6-3.2 2h-.7l-1.5-2.3v-.7l3-2 .6.1 1.5 2.3c.3.2.2.5.3.6Zm-8.4-9.9-1.5 1c-.2.2-.4.2-.6 0l-1.4-2.3c-.3-.2-.2-.4.1-.7l2.8-2c.2-.3.5-.3.7 0l1.5 2.3c.2.2.2.5-.2.8-.6.2-1 .6-1.4 1Zm-9.2-13.9c.5-.2 1-.6 1.3-.9.4-.3.7-.3 1 .1.3.8.8 1.4 1.2 2 .3.5.2.8-.2 1-.8.8-1.8 1.3-2.6 2-.4.3-.6.3-.8-.2l-1.4-2.1c-.2-.3 0-.6.2-.8l1.3-1Zm23 40.4-1.5-2.6s0-.4.3-.6l3-1.8h.7l1.5 2.4s0 .4-.2.5l-3 1.8c-.3.3-.6.2-.8.3Zm-2.4-12.2 1.5 2.3c.3.2.2.5-.1.8l-2.9 1.7c-.2.2-.6.2-.8-.2-.3-.7-.8-1.6-1.4-2.2-.2-.3 0-.6.2-.8 1-.5 2-1.1 2.8-1.8.3 0 .5 0 .7.2Zm-5.5 18 1.8 2.9c0 .1 0 .4-.2.5l-2.6 1.5c-.1.1-.5 0-.5-.1-.6-1-1.2-1.7-1.6-2.7v-.6l2.6-1.5h.5Zm-5.3 7.3L716 358c-.4-.4-.2-.7.1-.8l2.4-1.3c.2-.2.5-.2.8.2l1.6 2.7c.2.2.2.4 0 .6l-2.6 1.4h-.6Zm-2.3-2.8 1.8 3s0 .4-.2.5l-2.5 1.4s-.4 0-.5-.2c-.5-.8-1-1.7-1.7-2.5-.3-.4-.3-.6.2-.8l2.3-1.3h.6Zm-6.8-40.6 1.2-1c.3-.3.6-.3.8.2.3.7.8 1.5 1.4 2.1.3.4 0 .6-.2.8l-2.4 1.8c-.4.3-.6.2-.8-.2l-1.4-2.2c-.2-.3-.3-.6.2-.8.4-.1.8-.4 1.2-.7Zm6.7 10.2-1.4 1c-.3.2-.5.2-.8-.2l-1.4-2.2c-.2-.2 0-.5.2-.7 1-.6 1.6-1.2 2.5-1.9.2-.2.4-.2.7 0 .4 1 .8 1.6 1.5 2.4.2.2.1.5-.2.7l-1.1 1Zm8 10.1-2.5 1.6c-.4.3-.6.3-.8-.1l-1.4-2.2c-.2-.3 0-.6.2-.8l2.6-1.7c.4-.3.6 0 .8.2l1.4 2.2c0 .3 0 .5-.3.8Zm-17-23.8c.3-.3 1-.6 1.3-1 .2-.1.4 0 .6.2l1.4 2.1c.3.3.2.5-.1.8l-2.6 1.9c-.3.2-.5.2-.7-.2l-1.4-2.2c-.2-.3-.2-.7.1-.8l1.4-.8Zm16.8 29.5 2.9-1.7c.2-.2.5-.1.8.2l1.5 2.3c0 .1 0 .6-.2.6-1 .5-1.8 1-2.6 1.7-.3.2-.5.2-.8-.2l-1.4-2.2c-.3-.1-.3-.6-.2-.7Zm-3.3-12.4c.5.9.8 1.6 1.5 2.3.2.3.1.5-.2.8l-2.6 1.7c-.3.2-.5.2-.8-.2l-1.4-2.1c-.2-.3-.2-.7.2-.8.8-.5 1.6-1.2 2.5-1.6.2-.4.6-.5.8 0ZM704 310.2c.4-.1 1-.5 1.3-.8.2-.2.4-.2.7 0l1.5 2.4v.6l-2.6 1.9c-.4.3-.6.2-.8-.2l-1.3-2c-.3-.5-.2-.8.2-1l1-.9Zm13.6 20.8-1.4 1c-.4.3-.6.3-.8-.2l-1.3-2c-.3-.4-.3-.6.2-.8l2.2-1.6c.6-.5.6-.5 1.2.3l.5.8c.9 1.6.9 1.6-.6 2.5Zm-6.8-10 1.4-.9c.1 0 .6 0 .5.2l1.6 2.3c0 .1 0 .6-.2.5l-2.5 1.9c-.4.3-.6.3-.8-.2-.4-.7-1-1.3-1.4-2.2-.3-.4-.2-.7.2-.7l1.2-.8Zm10 19 3-1.9s.4 0 .5.2l1.5 2.3c0 .1 0 .4-.2.5-1 .6-1.8 1.3-2.7 1.6-.1.1-.6 0-.6-.1l-1.4-2.2c-.3-.2-.3-.4-.2-.5Zm-16-19.8 1.1-1c.3-.2.6-.3.7 0l1.4 2.3c.3.3.2.7-.2.7-.4.4-1 .8-1.5 1-1.5 1-1.5 1-2.2-.4-1-1.5-1-1.5.6-2.6Zm23.9 25 1.4 2.6c.1.1 0 .4-.1.5l-2.6 1.5c-.4.3-.6.1-.8-.1l-1.4-2.2c-.2-.3-.2-.5.2-.8l2.7-1.6.6.2Zm-19.6-17.8 1.4-1c.3-.1.5-.1.8.2l1.4 2.2c.3.4 0 .6-.2.8-.4.4-1 .7-1.6 1.1-1.3 1-1.3 1-2.3-.4-.2-.6-.9-1.1-.8-1.6.1-.7 1-1 1.3-1.3Zm10 12.8-2.2 1.4c-.4.3-.6.3-1 0-.3-.8-.7-1.5-1.3-2.3-.3-.3-.1-.5.1-.7.9-.5 1.7-1.2 2.7-1.7.2-.2.4-.2.7.1.4.8.7 1.4 1.2 2 .3.6.3 1-.2 1.2Zm-14.4-20.6-1.2 1c-.4.3-.5.2-.8-.2l-1.3-2c-.3-.4-.2-.7.2-1l1.3-1.1c1.3-1 1.3-1 2.2.5 1 1.6 1 1.6-.4 2.8ZM719 346l.4-.3 2.5-1.6c0-.1.4 0 .6.3l1.4 2.1v.7c-1 .6-1.7 1.2-2.8 1.6 0 .1-.5 0-.5-.2l-1.4-2.1c-.2 0-.2-.3-.2-.5Zm-7.6-15c.5-.4 1-.5 1.5-1 .3-.2.5-.2.7.3.4.7.8 1.4 1.4 2.1.3.4.2.7-.1.8l-1.6 1c-1.4 1-1.4 1-2.3-.5-1.1-1.6-1.1-1.6.4-2.7Zm5.8 5.5-2.8 1.8c-.2.2-.4.2-.7-.2l-1.4-2.2c-.4-.3-.2-.7.1-.7l2.4-1.6c.4-.3.7-.1.9.4l1.3 2c.3.2.2.5.2.5ZM707 323.8l1.3-.9c.4-.3.6-.2.8.2.4.8.8 1.5 1.3 2 .3.5.2.8-.2.9l-1.5 1c-1.7 1.2-1.4 1.1-2.2-.5-1-1.6-1-1.6.5-2.7Zm3.5 41.3-1.8-2.9s0-.4.2-.5c.8-.5 1.5-1 2.3-1.3h.7l1.7 2.6c.2.3 0 .6-.2.8l-2.3 1.3h-.6Zm-10.2-52 1.2-1c.3-.2.6-.3.7 0 .4.8.8 1.5 1.4 2.2.3.4.2.7 0 1l-1.5 1.1c-1.6 1-1.1 1.1-2.1-.3-1.2-1.7-1.2-1.7.3-3Zm16.6 29.2 2.6-1.7c.4-.3.7-.2.8.2.4.7 1 1.3 1.3 2 .3.4 0 .6-.2.8l-2.5 1.6c-.2.2-.4.2-.7-.2-.4-.7-1-1.3-1.4-2.2l.1-.5Zm4.5 7.1 2.7-1.6c.3-.2.6-.3.8.2.4.7 1 1.3 1.4 2.2.3.3 0 .5-.2.7l-2.6 1.5c-.2.2-.5 0-.7-.2-.4-.7-1-1.3-1.4-2.1v-.7Zm-18.3-23.5-1 .7c-.3.2-.5.2-.7 0l-1.4-2.2c-.2-.3-.2-.5.1-.8.5-.4 1-.8 1.6-1 1.2-1 1.2-1 2.2.4.9 1.8.9 1.8-.8 3Zm2.5 4 1.3-.8c.4-.3.6-.3.8.2.4.7 1 1.3 1.3 2 .3.4.3.6 0 .9-.9.5-1.6 1-2.4 1.7-.2.2-.4.1-.7-.2l-1.4-2.2c-.3-.4-.3-.6.1-.8.2-.3.6-.5 1-.8Zm-6.7-10.5 1.2-1c.4-.3.6-.2.8.2.4.8.8 1.5 1.4 2.2.2.3.2.5-.2.8l-1.4 1c-1.5.9-1.5.9-2.2-.5-1.1-1.6-1.1-1.6.4-2.7Zm15.4 24-1.3.8c-.3.3-.6.3-.8-.2-.3-.7-1-1.4-1.4-2.2l.1-.6 1.4-1c1.5-1 1.5-1 2.4.6 1.3 1.6 1.3 1.6-.4 2.5ZM712 336c.6 1 1.1 1.6 1.5 2.5 0 .2 0 .6-.2.6-.7.6-1.5 1-2.5 1.6-.2.2-.5.2-.7 0l-1.4-2.2v-.7l2.6-1.6c.2-.2.6 0 .7-.2Zm-3.8 26.3 1.8 2.9c.1.1 0 .4-.1.5l-2.2 1.3c-.2.2-.4.2-.7-.1l-1.6-2.5c-.2-.2-.1-.5.1-.7l2.2-1.4h.5Zm10.5-15.8 1.5 2.5c0 .2 0 .5-.2.6-.8.4-1.7 1.1-2.6 1.5-.1 0-.4 0-.5-.2l-1.4-2.2c-.2-.2-.2-.4 0-.6.8-.5 1.8-1 2.5-1.7l.7.1Zm-8.9-14.1c.6 1 1.1 1.6 1.5 2.5v.7l-2.5 1.7c-.3.3-.4.2-.7-.2l-1.4-2.1v-.7l2.6-1.7.5-.2Zm-4.2-3-1.3.8c-.3.3-.4.2-.7-.2-.4-.7-1-1.3-1.4-2.1-.3-.3-.2-.5.1-.8l1.6-1c1.7-1.2 1.1-1.2 2.2.4 1 1.7 1 1.7-.5 2.9Zm-8.8-13.6c.1.1 0 0 0 0l1.3-.8c.4-.3.5-.2.8.2.4.7 1 1.3 1.3 2 .3.4.2.7 0 .9l-2.3 1.6c-.4.3-.6.3-.8-.2-.4-.7-1-1.3-1.4-2.1-.2-.3 0-.6.1-.8l1-.8ZM718 346l-2.8 1.6s-.5 0-.5-.2c-.6-.7-1-1.4-1.4-2.2l.1-.5 2.5-1.6h.7l1.4 2.2v.7Zm2.8 4.1 1.5 2.5c0 .2 0 .5-.2.6l-2.6 1.5c-.2.2-.5.2-.8-.2l-1.4-2.2c-.2-.2-.2-.5 0-.7 1-.4 1.9-1 2.7-1.5.5-.1.7-.1.8 0Zm-17.4 19c-.6-1-1-1.9-1.7-2.6-.3-.4-.3-.6.2-.8.7-.3 1.4-.7 2-1.2.4-.3.6 0 .8.2.5.8 1 1.7 1.6 2.4.2.3.2.5 0 .7L704 369c-.3.2-.6 0-.6 0Zm-5.8-43.6 1.2-1c.3-.2.5-.2.7 0l1.4 2.2v.7c-.5.4-1 .8-1.5 1-1.3.8-1.3.8-2.2-.5-1.1-1.4-1.1-1.4.4-2.4Zm18.7 26.4-2.7 1.6c-.1 0-.4 0-.6-.3l-1.3-2c-.3-.4-.1-.6.1-.8.9-.5 1.7-1 2.4-1.6.3-.2.5-.1.7.1l1.4 2.2v.8Zm-9.1-8.1c1-.6 1.8-1.3 2.6-1.7.3-.2.6 0 .7.3l1.4 2.1c.2.3.2.5-.2.8l-2.4 1.5h-.7l-1.4-2.2v-.8ZM695.4 322l1.1-1c.5-.3.6-.2 1 .3.2.5.6 1 1 1.3.7 1.2.7 1-.5 1.8l-.8.7c-1.3 1-1.3 1-2.2-.5-1.1-1.6-1.1-1.6.4-2.6Zm6.7 10.2 1-.7c.4-.3.6-.3.8.2l1.4 2.1c.3.4 0 .6-.2.8l-1.3.9c-1.4 1-1.4 1-2.3-.6-1-1.5-1-1.5.6-2.7Zm3 8c1-.6 1.8-1.3 2.6-1.7h.7l1.5 2.3c.1.2 0 .5-.2.6-.8.7-1.6 1.1-2.6 1.7-.1.1-.4 0-.5-.2l-1.4-2.1c-.2-.3-.1-.6-.1-.6Zm-5.3-11.2 1.3-.9c.4-.3.5-.2.8.2l1.4 2.2c.2.2.2.4-.2.7l-1.5 1c-1.3 1-1.3 1-2-.4-1.3-1.8-1.3-1.8.2-2.8Zm3.5 7.5 2-1.4c.2-.2.5-.2.8.2l1.4 2.1c.2.3.2.5-.2.8l-2.4 1.5c-.4.3-.7.2-.8-.2l-1-1.6c-.3-.8-.5-1.2.2-1.4Zm-10-18 1.1-1c.4-.2.5 0 .7.2l1.4 2.1c.2.3.2.5-.2.8L695 322c-1.2 1-1.2 1-2-.5-1.1-1.8-1.1-1.8.3-2.7Zm16.3 28.4 2.4-1.6c.3-.2.5-.1.8.2l1.4 2.2c.2.3.2.5-.2.8l-2.4 1.5c-.3.3-.6.3-.7-.2l-1.2-2c-.4-.4-.5-.8 0-1Zm4.2 7 2.7-1.7c.2 0 .5 0 .6.2l1.4 2.2c.2.2.2.5-.2.8l-2.5 1.4c-.1 0-.5 0-.7-.2-.6-.7-1-1.4-1.5-2.2.2-.1.2-.3.2-.6Zm-19.7-26 1.2-.9c.3-.2.5-.2.8.2.4.7 1 1.3 1.3 2 .3.4.3.6-.2.8-.7.6-1.5 1-2.1 1.6-.4.3-.6.2-.8-.2l-1-1.7c-.5-.8-.5-.8.2-1.4l.6-.3Zm9.6 18 2.5-1.6c.4-.3.5-.2.8.2.4.7 1 1.3 1.3 2 .3.4.3.6-.2.8l-2.2 1.4c-.4.3-.6.3-.8-.2-.4-.7-1-1.3-1.3-2-.2 0 0-.4 0-.6Zm-6.1-10.6 2-1.3c.2-.2.5-.3.6 0l1.4 2.2v.7l-2.4 1.6c-.3.3-.4.2-.7-.2l-1-1.6c-.5-.9-.5-.9 0-1.4Zm-3.7-7.8-.2.2c-1.3.9-1.3.9-2.2-.5-1-1.4-1-1.4.4-2.6l.4-.3c1.2-1 1.2-1 2.2.5.9 1.5.9 1.5-.6 2.7Zm17.2 23.6 1.5 2.3v.6c-.9.5-1.7 1-2.4 1.6-.3.2-.5.1-.8-.2l-1.4-2.2v-.7l2.4-1.5c.2 0 .6.2.7 0Zm-8.5-10c-.3.4-.8.5-1.1.8-.4.3-.8.4-1-.2-.4-.7-.9-1.2-1.2-2-.2-.2-.2-.4.1-.7l1.7-1.1c1.3-1 1.1-1 1.8.4l.2.2c1.1 1.6 1.1 1.6-.5 2.7Zm3.4 2.7c-1 .5-1.6 1.1-2.5 1.6-.2.2-.4.2-.7-.2-.4-.7-1-1.3-1.3-2-.2-.3-.2-.5.1-.8l2.3-1.4c.4-.3.6-.3.8.2l1.3 2v.6Zm-9.8-12.3 1.3-.9c.3-.2.5-.2.7 0l1.4 2.3v.6l-1.5 1c-1.4 1-1.4 1-2.2-.5-1.1-1.6-1.1-1.6.3-2.5Zm-6.4-10.4 1.2-1c.3-.2.5-.1.7.1.4.7 1 1.3 1.3 2 .2.3.3.7-.2.8l-1.3 1.1c-1.2 1-1.2 1-2-.4-1.1-1.4-1.1-1.4.3-2.6Zm20.5 29.6c-1 .5-1.7 1-2.5 1.6-.2.2-.4.2-.7-.2-.4-.7-1-1.4-1.2-2-.3-.3-.3-.5.1-.7l2.3-1.4c.4-.3.6-.3.8.2l1.3 2v.5Zm4.5 6.7L712 359c-.2.2-.5 0-.7-.2-.4-.7-1-1.3-1.3-2-.1-.1-.1-.6.1-.6.9-.4 1.6-1 2.4-1.5.3-.2.5-.2.8.2l1.3 2v.6Zm-14.5 13.7-1.8-3c-.2-.2-.2-.4 0-.6.8-.4 1.5-.7 2-1.2.3-.2.5-.2.9.2l1.4 2.5v.7l-2.5 1.4Zm-9.8-40.6.4-.3c1.2-.8 1.2-.8 1.9.3.3.6 1 1.3.9 1.6-.2.5-.9.9-1.4 1.3-1.4 1-1.4 1-2.2-.5-.9-1.3-.9-1.3.4-2.4Zm4.4 6.8 1.2-.8c.4-.3.6-.3 1 .1l1.1 2c.3.3.2.6-.1.7l-1.2.8c-1.5 1-1.5 1-2.4-.6-1-1.3-1-1.3.4-2.2Zm5 11c1-.5 1.8-1.2 2.8-1.8l.5.2 1.4 2.2v.7l-2.3 1.4c-.1 0-.6 0-.6-.2-.7-.6-1.2-1.5-1.8-2.4Zm-9.4-18.4-1.4.9c0 .1-.5 0-.5-.2-.5-.6-1-1.3-1.4-2.1v-.7l1.3-1c1.3-1 1.3-1 2.3.4 1.1 1.8 1.1 1.8-.3 2.7Zm13.8 25c1-.5 1.7-1.1 2.5-1.6h.7l1.4 2.2v.7l-2.4 1.5c-.1.1-.5 0-.6-.1l-1.4-2.2c-.2 0 0-.4-.2-.5Zm-7.9-13.9 1.8-1.2c.4-.3.6-.3.8.2.4.7 1 1.3 1.3 2 .3.4 0 .6-.2.8l-2 1.4c-.4.3-.6 0-.8-.2l-1-1.6c-.6-.8-.6-.8.1-1.4Zm-3.7-7.1.5-.4c1.3-.9 1-.8 1.8.4 1 1.8 1 1.8-.6 3-1.3.8-1.3.8-2.2-.5-.8-1.4-.8-1.4.5-2.5Zm-6.4-10.1 1-.8c.4-.3.6-.3.9 0l1.1 1.9c.3.3.2.7-.2 1l-1.2 1c-1.2 1-1.2 1-2.1-.4-.8-1.7-.8-1.7.5-2.7Zm20.5 29.1c-1 .6-1.8 1-2.4 1.6-.4.3-.6 0-.8-.2l-1.2-2c-.2-.2-.3-.5.2-.7.7-.4 1.4-1 2.1-1.3.4-.3.6-.3.8.1l1.2 2v.5Zm-8.5-8.2 2-1.4c.4-.3.6-.3.8.2l1.2 1.9c.3.4.3.6-.2.8l-2.2 1.4c-.4.3-.6 0-.8-.2l-1.1-1.8c-.1-.4-.2-.7.3-.9Zm11.3 12.1 1.4 2.2c.3.4.2.7-.3.9-.7.4-1.4.7-2.1 1.3-.4.3-.6.3-.8-.2-.4-.7-1-1.3-1.3-2-.2-.3-.2-.5.2-.8.7-.4 1.4-1 2.1-1.3.4-.1.7-.2.8 0Zm-22.2-23.7 1-1c.4-.2.5 0 .7.2l1.1 1.8c.5.8.5.8-.3 1.3l-.8.7c-1.4.8-1.4.8-2.3-.5-.9-1.6-.9-1.6.6-2.5Zm4.2 6.5.4-.3c1.1-.8 1.1-.8 2 .4.2.6.9 1.2.8 1.6 0 .4-.8 1-1.4 1.2-1.5 1-1.5 1-2.2-.5-1-1.4-1-1.4.4-2.4Zm5.2 10.9 2.4-1.5c.3-.3.4-.2.8.2.3.7.9 1.3 1.3 2l-.1.7c-.7.6-1.4 1-2.1 1.3-.3.2-.5.2-.8-.2-.4-.7-1-1.3-1.3-2-.3-.2-.3-.4-.2-.5Zm7 5 1.5 2.3c.1.2 0 .5-.1.6-.7.6-1.5 1-2.3 1.4-.2.2-.4.2-.7 0-.3-.8-.9-1.4-1.3-2.1l.1-.7c.7-.6 1.4-1 2.3-1.4h.5Zm-18.5-26 1-.7c.3-.3.5-.3.7.2.4.7 1 1.3 1.3 2 .2.3.2.5-.1.8l-2 1.5c-.4.3-.7.2-.9-.2l-.8-1.6c-.5-.8-.5-.8.2-1.4l.6-.5Zm9.5 17.4c.9-.5 1.5-1 2-1.4.4-.3.7-.3.8.2.4.7 1 1.3 1.3 2 .2.3.2.5-.1.8l-2.2 1.3c-.3.3-.6.3-.8-.2-.2-.6-.8-1.2-1-1.8-.4-.4-.3-.6 0-.9Zm-10.3-21.9 1.7 2.8c.1.1 0 .4-.1.5l-2.2 1.6h-.7l-1.3-2.1v-.6l2.6-2.2Zm5 11.3 1-.9c.3-.1.5-.1.7.1l1.3 2v.7l-1.3.9c-1.3.9-1.3.9-2.1-.3-1-1.5-1-1.5.4-2.5Zm7.4 8.7-2.4 1.5c-.3.3-.4.2-.8-.2-.3-.7-.9-1.3-1.3-2-.3-.4 0-.6.2-.8.7-.3 1.5-1 2-1.4.3-.2.5-.2.7 0 .4.8 1 1.4 1.3 2.1.3.4.2.7.3.8Zm4.8 7.3 1.5 2.3c.1.1 0 .4-.1.5-.7.6-1.6 1-2.4 1.5-.1.1-.5 0-.6-.1l-1.4-2.2c0-.1 0-.4.2-.5.7-.6 1.4-1 2.3-1.5.2-.2.4-.1.5 0Zm4.3 6.6c.5.9 1.2 1.6 1.5 2.3.2.1 0 .5-.1.6-.8.4-1.4 1-2.3 1.4h-.6c-.6-.7-1-1.4-1.3-2.1-.1-.2-.1-.6.1-.6.7-.6 1.4-1 2.3-1.4 0-.2.3 0 .4-.2Zm-22-23.5.3-.2c1.3-.9 1.3-.9 2 .3 1.1 1.5 1.1 1.5-.4 2.7-1.4 1-1.4 1-2.3-.4-1-1.4-1-1.4.4-2.4Zm4.2 6.5c.2 0 .3-.2.4-.3 1.3-.8 1-1 2 .5.4.5 1 1 .9 1.5-.2.6-1 .8-1.5 1.2-1.3.9-1.3.9-2.2-.5-.9-1.3-.9-1.3.4-2.4Zm9.2 12.2c-.7.4-1.3 1-2 1.3-.4.3-.6.3-.8-.2l-1.2-2c-.2-.2-.2-.4 0-.6l2.2-1.3c.4-.3.5-.2.8.2.3.5.8 1.2 1 1.8.5.2.5.7 0 .8Zm1.6 7.9-1.4-2.2v-.7l2.2-1.3c.3-.2.5-.2.8.2l1.3 2c.2.3.2.5-.3.7-.7.3-1.4 1-2.1 1.3h-.5Zm-17-29.9.3-.3c1.2-1 1-1 1.9.4 1 1.6 1 1.6-.5 2.8-1.2 1-1.2 1-2.2-.4-.9-1.6-.9-1.6.4-2.5Zm13.5 18.6-2.2 1.4c-.3.2-.5.2-.8-.2l-1.2-2c-.3-.3-.3-.5 0-.8.8-.4 1.4-.9 2.1-1.4.3-.2.5-.2.8.1l1.3 2.1c.2.2 0 .6 0 .8Zm-3.1-2.6-1.1.7c-.4.3-.6.2-1-.1-.2-.6-.7-1.3-1-1.8-.3-.4-.3-.6.2-.8l2-1.5c.4-.3.7-.1.8.2 0 .4.4.8.6 1 .9 1.3.9 1.3-.5 2.3Zm-7-8.9 1.8-1.2c.4-.3.6-.3.8.2l1.2 2c.2.2.2.4-.2.7l-2 1.4c-.3.2-.5.2-.8-.2l-1.1-1.8c-.2-.4-.3-.8.3-1Zm-5.6-10.3 1.1-1c.1 0 .6 0 .6.3l1.3 2-.1.7-1.2 1c-1.2 1-1.2 1-2.1-.4-.9-1.8-.9-1.8.4-2.6Zm15.6 27c1-.5 1.6-1 2.4-1.5l.7.1 1.3 2c.2.3.2.5-.2.8-.7.4-1.4 1-2.1 1.3-.3.2-.5.2-.8-.2l-1.2-1.9v-.5Zm7.2 5.2 1.4 2.2c0 .1 0 .6-.2.5l-2.1 1.4c-.3.2-.6 0-.8-.2l-1.2-2s0-.5.2-.5c.7-.6 1.4-1 2.1-1.3.3-.2.5-.2.6 0Zm-21.2-19.6-1.6-2.7.1-.5 2-1.5c.3-.1.6-.1.8.1.3.7.9 1.4 1.3 2l-.1.7-2.5 1.9Zm4.2 6.5a18 18 0 0 0-1.6-2.4c-.2-.3-.2-.5 0-.7l2-1.3c.3-.3.5-.3.7.2.4.7 1 1.3 1.3 2v.7l-2.4 1.5Zm-6.3-9.8c-.5-.8-1.1-1.6-1.5-2.5-.1-.1 0-.4.1-.5l1.9-1.5c.3-.3.5-.3.7.2.4.7 1 1.3 1.2 2v.6c-.8.6-1.6 1-2.4 1.7Zm4.2 6.6c-.5-.9-1.1-1.9-1.7-2.6-.1-.1 0-.4.1-.5l2-1.5h.7c.6.7 1 1.4 1.4 2.3.1 0 0 .4 0 .4l-2.5 1.9Zm4.4 7 2.5-1.7c.1 0 .4 0 .5.2.5.6 1 1.3 1.3 2 .2.3.2.5-.1.8l-2.4 1.5-1.8-2.9Zm-11.2-20.6.3-.3c1.1-.9 1.1-.9 2 .3 1 1.7 1 1.7-.5 2.7-1.2 1-1.2 1-2.2-.5-.8-1.2-.8-1.2.4-2.2Zm10.8 20-1.6-2.4.1-.5 2-1.5c.3-.2.5-.1.7.1.4.7 1 1.3 1.3 2v.7l-2.5 1.7Zm8.3 13-1.7-2.6c-.1 0 0-.4 0-.4.7-.4 1.4-1 2.1-1.3.2-.1.5 0 .6.1l1.3 2c.1.2 0 .6-.2.6-.3.5-1.2 1-2.1 1.6Zm.4.5c.8-.5 1.5-1 2.5-1.4h.7l1.3 2c0 .2 0 .5-.2.6l-2.6 1.5-1.7-2.7Zm12-63.5-28-45.9-2.2 2-6.9 6.5c-3.9 3.6-7.8 7.1-11.5 10.8l-9.8 9.2-3.4 3.2c-.3.3-.2.4 0 .9l7.2 11.4 8.6 13.6 8 12.5 2.3 3.9c12-9.6 24-18.9 35.7-28.1Zm-43.2 7.6c.6 1 1.2 1.7 1.6 2.6l-.1.7-1.9 1.5-.2.4c0 .2 0 .2.2.3l2.6-2.1 1.5 2.6c.1.1.1.3 0 .4l-2.6 2.2-4-6.3 2.9-2.3Zm38.9-4.9-2.2-3.6 3.5-2.8 2.1 3.6-3.4 2.8Zm-6-.7 3.2-2.6 2.2 3.6-3.2 2.6-2.2-3.6Zm-17-36.7-1.8-3v-.5l3.2-3 1.9 3c0 .2 0 .5-.2.6-.9 1-1.9 2-3 2.9Zm15.6 43c-.5-.8-1-1.7-1.6-2.4-.8-1.2-.8-1.2.4-2l2.1-1.7c1 1.3 1.5 2.5 2.2 3.6l-3.1 2.5ZM684.7 264l1.8 3c.1.1.1.3 0 .4l-3.2 2.9-2-3.4c1.1-.9 2.2-1.8 3.4-3Zm.7 9.9-1.8-3s0-.4.2-.5l2.1-1.9.9-.7 1.8 2.9v.7l-3.2 2.5Zm-6.7-11-2-3.4c1.2-1.2 2.3-2 3.4-3.2l1.8 2.9v.7l-3.2 3Zm10.7 8.8 1.8 2.9v.4l-3.3 2.6-1.8-2.9v-.4l3.3-2.6Zm6.8 11.1 1.8 3v.4l-3.4 2.7-2-3.1 3.6-3Zm-4.5-7.4 1.7 2.9c.1.1.1.3 0 .4l-3.2 2.6-1.8-2.8c-.1-.2 0-.5.2-.6l3-2.5Zm2.2 3.7 1.9 3.2-3.5 2.9-1.8-3v-.4l3.4-2.7Zm4.5 7.3c.2.6.7 1.1 1 1.7.8 1.6.8 1.6-.5 2.7-.7.5-1.4 1-2.1 1.7l-1.8-2.9c-.1-.1 0-.4 0-.4l3.4-2.8Zm2.2 3.8 1.8 2.8v.5l-3.2 2.6-2-3.1c1-1 2.3-2 3.4-2.8Zm-9.9 18.7 3.1-2.5 2.1 3.5-3 2.5c-.9-1.2-1.5-2.4-2.2-3.5Zm12.2-15 1.4 2.1c.7 1.4.7.9-.3 1.7l-2.6 2.1-1.8-2.9s0-.4.2-.5l3.1-2.5Zm-15.7 17.7 3-2.5c.9 1.2 1.6 2.3 2.1 3.5l-3 2.5c-.6-1.2-1.4-2.4-2.1-3.5Zm-8.6-47.9 2 3c0 .2-.1.5-.3.6l-1 1-1.7 1.6-1.8-2.8c0-.2 0-.5.2-.6.8-1 1.5-1.9 2.6-2.8Zm2.3 3.7 1.9 3v.5c-1 1-2 1.7-3 2.6l-2-3 .2-.5 2.9-2.6Zm-4.5-7.4c.7 1 1.3 2 1.7 2.9.1.1.1.3 0 .4l-2.9 2.8-1.9-3c0-.1 0-.5.2-.6l2.9-2.5Zm6.8 11.2 1.7 2.9c.2 0 .1.3 0 .4l-3 2.5-1.8-2.7c0-.2 0-.5.2-.6l2.9-2.5Zm7.7 20.7L689 289v-.4l3.1-2.5 1.8 2.8v.5l-3.1 2.5Zm-3-13.2 1.6 2.8c0 .1.2.5 0 .6l-3 2.5-1.7-2.8c-.1-.1 0-.4 0-.4l3-2.7Zm-2.4-3.7a154 154 0 0 1 1.8 3.3l-3.1 2.6-2-3.2 3.3-2.7Zm.4 42.8c-.9-1.3-1.6-2.4-2.2-3.6l3-2.4 2 3.1c0 .2 0 .5-.2.6-.7.8-1.6 1.5-2.6 2.3Zm-13-54.5 1.7 2.9c.1 0 .1.3 0 .4l-2.9 2.8-1.9-3v-.5c1-.8 2-1.6 3-2.6Zm4.5 7.4 1.9 3v.5l-3 2.6-2-3 .1-.4 3-2.7Zm-3.4 2.4-1.8-2.9c-.1-.1-.2-.5 0-.6l2.8-2.7 2 3-.1.4-3 2.8Zm16 9.4 1.9 2.8v.5l-3.2 2.5-2-3.1 3.4-2.7Zm-11.7-2.2-1.7-2.8v-.4l3-2.7c.8 1.1 1.3 2 1.8 3 .1 0 .1.3 0 .4l-3 2.5Zm20.7 16.6 1.8 3c.1.1.1.3 0 .4l-3 2.4-1.7-2.8v-.5c.8-.8 1.7-1.6 2.9-2.5Zm-20.3-16.1 3.2-2.6 1.7 2.7v.5l-3.1 2.5c-.4-1-1-2-1.8-3.1Zm5.5 1 1.7 2.8v.5l-3.2 2.5-1.6-2.8c-.1 0-.1-.3 0-.4l3.1-2.5Zm10.3 8 1.8 2.9v.4l-3.1 2.5-1.8-2.9.1-.5 3-2.4Zm-8.1-4.3 1.7 2.9c.1 0 .1.3 0 .4l-3 2.4-2-3.1 3.3-2.6Zm-3 29 2 3.2v.4l-3 2.1-2.1-3.4c1-.7 2-1.4 3-2.3Zm12-15.4c-.2-.6-.7-1-.8-1.5-1-1.7-1-1.7.4-2.7l1.9-1.5 2 3.1-3.5 2.6Zm-8.1-4.3c-.6-1-1-1.8-1.7-2.7 0-.2-.2-.5 0-.6l3-2.4 1.6 2.7v.5c-1 1-2 1.7-2.9 2.5Zm-15.7-24.5 1.8 2.8v.5c-1 1-2 1.7-2.8 2.7l-1.8-3a.3.3 0 0 1 0-.4l2.8-2.6Zm-2.2-3.8 1.7 3c.1 0 .1.3 0 .4l-2.8 2.6-2-3.1c1-.8 2-1.8 3-2.9Zm9.8 56.4-2.2-3.4 2.8-2.3a275 275 0 0 1 2.2 3.4l-2.8 2.3Zm-6.4-43-1.8-3c-.1 0 0-.3 0-.4 1-1 2-1.7 2.9-2.5l1.8 2.9v.4l-3 2.6Zm16.8 18.6-1.8-2.8v-.5l3-2.4 1.8 2.9v.4l-3 2.4Zm4.4 7.1-2-3 3.3-2.7 1.7 2.9c.1.1.1.3 0 .4l-3 2.4Zm-18-28c.8 1 1.2 1.9 1.8 2.9.1 0 .1.3 0 .4l-2.8 2.3-1.7-2.7v-.5l2.8-2.4Zm17 18.7 1.9 2.9v.4l-3 2.4-2-3c1-1 2-1.8 3.2-2.7Zm-14.6-14.9 1.7 2.8c.1.1 0 .3 0 .4l-3 2.5-1.7-2.8c0-.1 0-.5.2-.6.9-.9 1.8-1.5 2.8-2.3Zm2.3 3.5 1.9 3-3 2.5-1.9-2.8a.3.3 0 0 1 0-.5c1-.6 2-1.3 3-2.2Zm-15.7-9.2-.1-.1-1.2-2c-.6-1-.6-1 .3-1.8l2-2 1.9 3s0 .4-.2.5l-2.7 2.4Zm16.6 18.4-1.8-2.8v-.5l3-2.4 1.7 2.8v.4c-1 1-2 1.7-3 2.5Zm-13.4-20.7 1.8 3v.5c-.8 1-1.8 1.7-2.8 2.5l-1.7-2.7.1-.7a26 26 0 0 1 2.6-2.6Zm2.2 3.6 1.8 3v.4l-2.8 2.4-1.8-2.9c0-.1 0-.4.2-.5a28 28 0 0 0 2.6-2.4Zm13.3 20.7L682 295a.3.3 0 0 1 0-.5l3-2.4 1.7 2.8c.1 0 .1.3 0 .4-.8 1-1.8 1.6-2.9 2.5Zm-11.1-17 1.8 2.8v.5l-3 2.3-1.6-2.8c-.1-.1 0-.4.2-.5a27 27 0 0 0 2.6-2.4Zm14.6 15 1.9 3-3 2.5c-.8-1-1.4-2-2-3l3.1-2.5Zm4.5 7.1 1.7 2.9c.1.1.1.3 0 .4l-2.8 2.4-1.8-3c-.1 0-.1-.3 0-.4l2.9-2.3Zm-13 20.3-2.9 2.3-2-3.1.1-.5c.9-.7 1.7-1.4 2.7-2l2 3.3Zm-.5-26-1.7-2.8v-.4l2.9-2.3c.6 1 1 1.8 1.7 2.7 0 .2.2.5 0 .6l-3 2.2Zm-4.5-7.1-1.8-3 3-2.5 1.7 2.7v.5l-2.9 2.3Zm9 14.2-1.8-2.9c-.1-.1-.1-.3 0-.4l3-2.5 1.7 2.8v.4l-3 2.6Zm5.5.6-1.7-2.7v-.5l3-2.4 2 3.1-3.3 2.5Zm-3.5 2.9-1.7-2.8v-.4l3-2.4 1.8 3-3 2.6Zm-8.8-14.1-1.9-3 3.1-2.5 1.9 3-3.1 2.5ZM662.7 273l1.8 2.9v.4l-2.7 2.6-1.7-2.8v-.4c.7-1 1.6-1.9 2.6-2.7Zm2.2 3.6 1.7 2.9c.1.1.1.3 0 .4-.9 1-1.7 1.7-2.7 2.5l-1.7-2.8v-.7c1-.7 1.7-1.5 2.7-2.3Zm1.3 9.3-1.7-2.8c-.1-.1-.1-.3 0-.4l2.8-2.5 1.6 2.8c.1.1 0 .4 0 .4l-2.7 2.5Zm15.3 9.1 1 1.8c.8 1.3.8 1.3-.3 2.2l-2 1.6-1.6-2.8v-.7c1-.5 1.9-1.3 2.9-2Zm-12.2-11.3 1.8 2.9c.1.1 0 .3 0 .4l-2.9 2.3c-.5-.8-1-1.8-1.7-2.7v-.5l2.8-2.4Zm8.8 14.3 1.7 2.7v.5l-2.9 2.3c-.6-1-1-1.8-1.7-2.7v-.5l3-2.3Zm2.2 3.4 1.7 2.7v.5l-2.8 2.2-1.7-2.8a.3.3 0 0 1 0-.4l2.8-2.2Zm-7.6 26.5-2-3 .1-.5 2.6-2.2 2 3.2v.4l-2.7 2.1Zm12.3-19.6 3-2.6 2 3-3.1 2.6-1.9-3Zm-13.4-20.9 1.9 3-3.1 2.5-1.7-2.7v-.5l2.9-2.3Zm9.8 23-1.7-2.8a.3.3 0 0 1 0-.4l2.9-2.3 1.7 2.7v.5l-3 2.3Zm-8.7-14-1.7-2.7v-.5l2.9-2.3 1.6 2.6c0 .2 0 .5-.2.6l-2.6 2.3Zm10.7 17.5-1.8-3 3-2.5 1.8 3-3 2.5Zm-25-32-1.7-3c-.1 0-.1-.3 0-.4.9-1 1.8-1.6 2.6-2.6l1.7 2.8c.1.1.1.3 0 .4-.8 1.1-1.6 2-2.6 2.7Zm3.2-2.2 1.8 2.8v.5l-2.8 2.4-1.7-2.7v-.5l2.7-2.5Zm1.2 9.1L661 286a.3.3 0 0 1 0-.4c.8-.9 1.8-1.7 2.8-2.5l1.8 3v.4a28 28 0 0 1-2.8 2.4Zm2.2 3.4-1-1.7c-.8-1.2-.8-1.2.3-2.3.7-.5 1.3-1 1.8-1.7l1.7 2.8-.1.7-2.7 2.2Zm11.8 12 1.7 2.7v.5l-2.8 2.2-1.8-3 3-2.4Zm-4-7.3 3.1-2.5 1.7 2.7v.5l-2.9 2.3-1.8-3Zm2 3.8 1.9 3-3 2.4-1.7-2.7v-.5l2.8-2.2Zm-6.6-10.3 1.6 2.6c.1.1 0 .3 0 .4l-2.9 2.4-1.9-3c1.3-.8 2.2-1.6 3.2-2.4Zm-.7 5.7 3-2.4 1.5 2.7v.5l-2.7 2.3-1.8-3Zm2.1 3.6 3-2.4 1.7 2.8v.4l-2.8 2.3-1.9-3Zm-12.1-11.5-1.8-3v-.4l2.6-2.4 1.7 2.7v.5c-.8 1.2-1.6 1.9-2.5 2.6Zm-2.2-3.4-1.7-2.8a.3.3 0 0 1 0-.4l2.6-2.5 1.7 2.8v.4l-2.6 2.5Zm4.4 7L658 289c-.1-.1-.1-.3 0-.4.8-.9 1.7-1.6 2.6-2.4l1.7 2.8c.1.1.1.3 0 .4a27 27 0 0 0-2.6 2.4Zm13.8 15.1 1.6 2.6v.5l-2.8 2.2-1.6-2.6c0-.2 0-.5.2-.6l2.6-2.1Zm-8.8-14.3-3 2.4-1.5-2.6v-.5l2.6-2.3c.6 1 1.2 2 2 3Zm1.4 9.4-1.6-2.6v-.5l2.8-2.2 1.8 2.9-3 2.4Zm-4-6.4 2.9-2.4 1.6 2.6c0 .2.2.5 0 .6l-2.7 2.2-1.9-3Zm16 17.5c-.8-1-1.4-2-2-3l3-2.4 1.7 2.7c.1.2 0 .5-.2.6L678 313Zm.1.5 3-2.4 1.8 2.8-3 2.5-1.8-3Zm-10-8.2-1.5-2.7v-.4l2.8-2.2 1.5 2.6v.7c-1 .6-1.9 1.3-2.7 2Zm-13-20 1.7 2.8c.1.2.2.5 0 .6-.7.8-1.5 1.5-2.5 2.3l-1.7-2.7v-.5l2.5-2.4Zm1.3 9.1-1.6-2.7v-.5l2.6-2.3 1.7 2.7v.5l-2.7 2.3Zm15 9 1.5 2.6c.1 0 0 .3 0 .4l-2.8 2.2-1.5-2.6c-.1-.1 0-.5.1-.6l2.6-2ZM653 282l1.6 2.8c.1 0 .1.3 0 .4l-2.5 2.5-1.7-2.8c-.1-.1 0-.4 0-.4l2.6-2.5Zm21.5 33.6-1.7-2.8v-.4l2.8-2.2c.6 1 1 1.8 1.7 2.7v.5l-2.8 2.2Zm-15-23.3 1.7 2.8v.5l-2.8 2.2-1.6-2.7v-.4c1-.7 1.7-1.6 2.7-2.4Zm17.2 26.7-1.9-3 2.8-2.3 1.6 2.6v.7l-2.5 2Zm-15-23 1.5 2.6c.1.1.1.3 0 .4l-2.7 2.2-1.6-2.6c-.1-.1 0-.3 0-.4l2.8-2.3Zm3.2 12.1-1.5-2.6v-.5l2.6-2 1.7 2.7v.4c-.9.5-1.8 1.2-2.8 2Zm2.1 3.3-1.5-2.7c-.1 0-.1-.3 0-.4l2.7-2.2 1.8 2.9-3 2.4Zm-6-9.8 2.8-2.3 1.8 2.9-2.8 2.3-1.8-2.9Zm13.4 14.7 1.6 2.6v.5l-2.6 2-2-3c1.2-.6 2-1.3 3-2.1Zm-22.4-28 1.7 2.8v.4c-.8.9-1.7 1.6-2.5 2.3l-1.7-2.8c-.1-.1-.1-.3 0-.4.9-.7 1.7-1.4 2.5-2.3Zm2.2 3.4 1.7 2.8v.3c-.7.8-1.6 1.5-2.6 2.4l-1.5-2.7c-.1-.1-.1-.3 0-.4.6-.8 1.5-1.5 2.4-2.4Zm17 26.5-1.5-2.6v-.5l2.6-2 1.8 2.8-2.8 2.3ZM650 285l1.7 2.7v.5l-2.5 2.2-1.6-2.6v-.5l2.4-2.3Zm6.4 10.3 1.6 2.7v.5l-2.6 2.1-1.6-2.6v-.5c1-.7 1.8-1.4 2.6-2.2Zm6.2 9.7-2.8 2.4-1.6-2.7a.3.3 0 0 1 0-.4l2.6-2.1 1.8 2.8Zm-2.2-3.3-2.8 2.3-1.6-2.7v-.4l2.7-2.1 1.7 2.9Zm2.5 4 1.8 2.8-2.9 2.3-1.7-2.8 2.8-2.4Zm6.4 9.1c-.6-1-1-1.8-1.7-2.7v-.5l2.8-2.2 1.6 2.7v.4c-1 1-1.8 1.6-2.7 2.3Zm-1.1 6-1.8-3 2.9-2.3 1.7 2.9-2.8 2.3Zm3-2 1.8 3-2.8 2.3-1.6-2.7c-.1 0 0-.4 0-.4l2.6-2.1ZM713 428.4l-.4.5c-3 8.5-6 17-9.2 25.6-.1.3 0 .4.2.6l20.8 17.1 21.8 18c.1.1.2.3.5.3l.2-.4 11.8-24.3c.1-.3.1-.5-.2-.7l-15.1-12.2-30.3-24.4Zm15.4 46.1 1-2 2.8 2.4.1.3c-.2.6-.3.9-.6 1.3-.1.3-.2.6.3.6l.9-2 2.8 2.5c.1 0 .2.2 0 .3l-.8 2c-.1-.2-.1-.2-.3-.2l-4-3.2a62 62 0 0 1-2.2-2l-3.3-2.6c0-.2-.2-.3-.2-.3l1-2 2.4 2.1c.8.6.8.4.4 1.4l-.3.6c-.3.2-.3.7 0 .8Zm24.7-9.7a225.5 225.5 0 0 0 3.7 3.3l-1 2-3.6-2.9c-.1-.1-.2-.2-.1-.3l1-2Zm-1.3 2.5 3.7 3s.2.2 0 .3c-.2.6-.5 1.3-1 2l-3.6-3v-.3l1-2Zm1.6 7.7s-.2 0 0 0l-3.5-2.8c-.1-.2-.3-.3-.1-.4l1-2 3.6 2.9c.2.1.3.2.1.3a8 8 0 0 0-1 2Zm1-12.6 3.6 2.9c.1.1.2.2.1.3l-1 2-3.7-2.9v-.3c.2-.6.5-1.3 1-2Zm-2.2 15-3.6-2.8c-.1-.1-.2-.2 0-.3.2-.7.5-1.3.9-2l3.7 2.9s.2.2 0 .3c-.5.6-.7 1.3-1 2Zm-1.3 2.5-3.5-3s-.2-.2 0-.3l.8-1.9 3.6 2.8v.3c-.2.7-.5 1.3-1 2ZM747 477a37 37 0 0 1 3.4 2.9c.1 0 .2.2.1.3l-.8 2c-1.3-1-2.5-2-3.5-3v-.3l.8-2Zm1.5 7.5c-1.3-1-2.4-1.9-3.4-2.9l-.1-.3.8-2c1.3 1 2.5 2 3.5 3v.3l-.8 2Zm-3.8-2.8 3.5 2.9v.3l-.8 2c-1.2-1-2.4-1.8-3.4-2.8 0-.1-.2-.3 0-.4.1-.7.3-1.3.7-2Zm-1.1 2.3 3.4 3c.1 0 .2.2 0 .3l-.8 2-3.4-3c-.1 0-.2-.2-.1-.3l.9-2Zm1.8-25.4 3.2 2.6c0 .1.2.2 0 .3-.2.7-.7 1.4-1 2l-3.1-2.5v-.3l1-2Zm3.8 3 3 2.5c.2.1.3.2.1.3l-1 2-3.1-2.5-.1-.3c.5-.6.8-1.3 1.1-2Zm-11.2-9c0 .2.2 0 0 0l3 2.5c.1.1.2.2 0 .3l-.8 2.2-3-2.4c-.2-.2-.3-.3-.1-.4l.9-2.1Zm6 8-3-2.4c-.2-.1-.3-.2-.2-.3l1-2c1.2.8 2.1 1.7 3.2 2.5v.3c-.4.4-.7 1-1 2Zm-11.1-9-3-2.5c-.2-.1-.3-.3-.2-.4.3-.6.5-1.4 1-2.1l3 2.5c.2.1.2.4.2.4-.5.7-.7 1.4-1 2Zm3.7 3-3-2.5c-.1 0-.2-.2 0-.3l.8-2.2 3.2 2.6c0 .1.2.2 0 .3-.5.6-.8 1.3-1 2Zm7.7 6.6 3.1 2.6c.1 0 .2.2 0 .3-.2.6-.5 1.3-1 2-1-.7-1.9-1.6-3-2.5-.2-.1-.1-.3-.1-.3l1-2Zm3.7 3 3.2 2.6v.3c-.2.7-.5 1.3-1 2-1-.7-2-1.7-3-2.5 0 0-.2 0-.2-.3l1-2Zm-21-20.5 3 2.4v.3l-.8 2.2-3-2.4c-.2-.2-.3-.3-.1-.4.1-.7.4-1.4.9-2.1Zm10 11.4 3 2.6s.2.1 0 .2c-.2.7-.7 1.4-.8 2.2l-3.1-2.5c-.1 0-.2-.2 0-.3.1-.8.4-1.4.8-2.2Zm6.2 8.6 3.2 2.5c0 .2.2.3 0 .4-.2.6-.5 1.3-1 2l-3-2.4v-.3c.1-.8.4-1.5.8-2.2Zm-17.7-18-3-2.5-.2-.2.8-2.2 3.1 2.5c.1 0 .2.2 0 .3 0 .5-.4 1.2-.7 2Zm15 12.6 3.1 2.4.1.4-1 2-3-2.4c-.1-.1-.2-.3-.1-.4l1-2Zm-24.7-23.5 3 2.4.3.2-.8 2.3-3-2.4c-.2-.1-.2-.1-.2-.4l.7-2.1Zm6 8-3-2.5c-.1-.1-.2-.2-.1-.3l.9-2.2 3 2.4.1.4-.9 2.1Zm25 24 3 2.3c.1.2.2.3.1.4l-1 2-3-2.4s-.2-.1-.1-.3l1-2Zm-7.4-6.1 3.2 2.5v.3l-.8 2h-.2l-2.9-2.4c0-.2-.2-.3 0-.4l.7-2Zm-1.4 2-3-2.5c-.2 0-.3-.2-.1-.3l.9-2.2 3.1 2.6v.3c-.2.7-.6 1.2-1 2Zm-8.5-13.5 3.1 2.5c.1.1.1.1 0 .4l-.8 2.1-3-2.4s-.2-.1-.1-.3c.2-.8.4-1.5.8-2.3Zm6 8-3-2.5c-.2-.1-.3-.2-.2-.3l1-2.2 3 2.4c0 .2.2.3 0 .4l-.8 2.1Zm-4.7-.5-3.1-2.4-.2-.3.9-2.1 3 2.4c.1.1.2.2.1.3-.3.7-.6 1.3-.7 2.1Zm-6.3-8.6c-1.1-.7-2-1.6-3-2.4-.2-.1-.3-.2-.2-.3l.8-2 3 2.3c.2.2.3.3.1.4l-.7 2Zm3.5 3-3-2.3-.1-.4.9-2.2 3 2.5c.1 0 .2.2.1.3-.2.8-.5 1.4-.9 2.2Zm4 3.7 3.1 2.4c.1.1.2.3.1.4a28 28 0 0 0-.9 2.1l-3-2.4-.1-.3.9-2.2Zm-19.9-23 3 2.5c.2 0 .3.2.2.3l-.8 2s-.1.2-.2 0l-3-2.3s-.2-.2 0-.3c.4-.7.6-1.4.8-2.2Zm11.3 19-3-2.4c-.2 0-.2 0-.1-.3l.9-2.2 3 2.4c.1.2.2.3 0 .4l-.8 2.1Zm-6.2-8.4-3-2.4-.1-.3.8-2.1s0-.1.2 0l3 2.3v.4l-.9 2.1Zm33.1 17c1.2.8 2.1 1.7 3.2 2.5.1 0 .2.2 0 .3-.2.6-.5 1.3-.9 1.8h-.2l-3-2.4c-.2-.1-.3-.3-.2-.4.6-.6.9-1.2 1.1-1.9Zm-29.5-14.2-3-2.4c-.2-.1-.3-.2-.1-.3l.7-2.1 3 2.4c.2.1.2.1.2.4l-.8 2Zm23.4 25.9-3-2.4c-.2-.2-.3-.3-.2-.4l1-2c1 .9 2 1.9 3 2.6.2.1 0 .2.2.4-.3.4-.7 1-1 1.8Zm-19.4-22.2c1.1.7 2 1.6 3 2.4 0 0 .2 0 .3.2l-.9 2.2-3-2.4c-.2-.2-.3-.3-.1-.4 0-.7.3-1.3.7-2Zm23 25.1-3-2.4c0-.1-.2-.2 0-.3l.8-2 3 2.4c.2.2.3.3.1.4l-.8 2Zm1.1-13c-1.1-.8-2-1.7-3.1-2.4-.1-.2-.2-.3-.1-.4l.7-1.8h.3l3 2.4c.1.1 0 .4 0 .4l-.8 1.9Zm-12 4-3.1-2.4c-.1-.1-.2-.2 0-.3l.8-2 3 2.4.1.4-.9 2Zm-23-25 3 2.5v.2c-.4.7-.5 1.4-1 2.2l-3-2.4c-.1-.2-.2-.3 0-.4l1-2Zm3.6 3 3 2.4c.1.1.2.3.1.4l-.9 2.1-3-2.4c-.1-.1-.2-.2-.1-.3.4-.8.7-1.4.9-2.2Zm20.8 20.2 3 2.5a25.6 25.6 0 0 1-1 2.4l-3-2.5v-.3l1-2Zm-27-28.6 3 2.4.1.3-.9 2.2-3-2.4-.1-.4.9-2.1Zm28.5 36.2 1-2.3 3 2.4c.2.2.3.3.1.4l-.8 2c-1.2-.7-2.2-1.6-3.3-2.5Zm-6.6-8.7-3-2.4s-.2-.2 0-.3l.8-2.1 3 2.4c.2.1.3.2.2.3l-1 2Zm11.3 9.6 3 2.4v.3c-.2.7-.5 1.3-1 2-1-.7-1.9-1.6-3-2.3 0-.2-.2-.3 0-.4l1-2Zm-11-8.9c.1.1.1.1 0 0 1.2.9 2.2 1.5 3 2.4.2.1.3.3.2.4l-.9 1.9-3-2.4c-.2-.1-.3-.3-.1-.4l.8-1.9Zm-3.8-3.6-3-2.4c-.1-.2-.2-.3-.1-.4l.8-2 3 2.4c.1.1.2.2 0 .3l-.7 2ZM712.6 442c-1-.8-2-1.7-3-2.3 0-.1-.2-.2 0-.3l.7-2.1 3 2.4c.2.1.2.4.2.4l-1 1.9Zm26.8 28.4c-1.1-.7-2-1.6-3-2.4-.2-.1-.3-.2-.2-.3l.9-2 3 2.4c.2.2.1.4.1.4l-.8 2ZM745 458l-3-2.4c-.1 0-.2-.2 0-.3l.8-2 3.1 2.6c.1.1.2.2.1.3l-1 1.8Zm-25-9.6 3 2.4c.2.1.2.1.2.4-.3.6-.5 1.4-1 2.1l-3-2.4c-.1-.1-.2-.2 0-.3l.8-2.2Zm6 7.9-3.1-2.5-.1-.3.8-2 3 2.4.1.3-.8 2Zm13-6c1.2.9 2.1 1.8 3.2 2.5 0 .2.2.3 0 .4l-.8 2-3.2-2.6c0-.1-.2-.3 0-.4l.8-1.9Zm.5 20.8 3 2.4c.2.2.3.3.2.4l-1 2-3-2.5c0-.1-.2-.2 0-.4l.8-1.9ZM730 460l3 2.4s.1.1 0 .2l-.9 2-3-2.5-.1-.3c.4-.5.7-1.2 1-1.8Zm13.4 14.1 3 2.5c.2 0 .2 0 .1.3-.2.6-.5 1.3-1 2l-3-2.4v-.3l1-2Zm-24.5-23.7-3-2.4c-.2-.1-.3-.3-.1-.4l.7-2 3 2.4c.2.1.2.1.2.3l-.8 2.1Zm17.3 17.8 3 2.4.2.2-1 2-3-2.3c-.1-.2-.2-.3 0-.4 0-.5.5-1 .8-2Zm-7.6-6.3-3-2.5c-.1 0-.2-.2 0-.3l.7-2 3 2.4.1.3-.8 2Zm-13.3-14.3-3-2.3-.1-.2.7-2.1 3 2.4c.2.1.3.3.2.4-.3.4-.6 1-.8 1.8Zm17.3 17.8 3 2.4c.2.1.2.1.1.3l-.8 2-3-2.4-.2-.4.9-2Zm-11.2-9.5-3-2.4c-.1-.1-.2-.2-.1-.3l.8-2.1 3 2.4c.1.1 0 .4 0 .4-.1.7-.4 1.4-.7 2Zm19.4 22.4-3-2.4c-.1-.2-.1-.2 0-.4l.8-2 3 2.5c.1.1.2.2.1.3l-.9 2Zm-18-24.2c1 .8 2 1.7 3 2.3 0 .2.2.3 0 .4l-.7 2-3-2.4s-.2-.1-.1-.3l.8-2Zm19.5 22.4 3 2.4c.1.1.2.3.1.4l-.9 1.9-3-2.4c-.1-.1-.2-.3-.1-.4l.9-1.9Zm-11.1-9.3-3-2.5s-.2 0 0-.2l.7-2 3 2.4c.2 0 .3.2.2.3l-1 2Zm.3.5 3 2.5c.1 0 .2.2 0 .3l-.8 2-3-2.5c-.1-.1-.2-.2-.1-.3l.9-2Zm-3.9-3.6-3-2.4c-.1-.1-.2-.2-.1-.3l.9-2 3 2.4.1.4-.9 2Zm-12-16 3 2.5c.2.1.3.3.1.4-.3.6-.6 1.2-.7 2l-3-2.4c-.2-.1-.2-.1-.2-.4.3-.6.6-1.2.8-2Zm-6-8.2 2.9 2.3s.2.2 0 .3l-.7 2c-1-.7-2-1.6-3-2.2 0-.1-.2-.3 0-.4.1-.5.3-1.3.7-2Zm4.7 10.2-3-2.4c-.2-.2-.3-.3-.1-.4l.7-2 3 2.4c.2.1.2.3.2.3-.2.8-.5 1.4-.8 2Zm6 8.3-2.9-2.3c0-.1-.2-.2 0-.3l.7-1.9 3 2.3v.4l-.7 1.8Zm15.1-11c1.2.8 2.1 1.7 3.2 2.5v.3l-.8 2-3-2.4c-.2-.2-.3-.3-.1-.4.1-.8.4-1.4.7-2Zm1.9 27.8c-.1.1 0 0 0 0l-3-2.2c0-.2-.2-.3 0-.4l.8-2 3 2.5c.2.1 0 .2.2.3l-1 1.8Zm-13.3-13.9L721 459l-.2-.2.9-2.2a29.4 29.4 0 0 1 3.1 2.8c-.4.5-.7 1.2-.9 2Zm13.7 14.7 3 2.4c.1.1.2.2.1.3l-.9 2-3-2.5-.1-.3.9-2Zm-13.4-14 3 2.3c.2.2.3.3.2.4l-1 2c-1-.9-2-1.7-2.7-2.5-.1-.1-.2-.2-.1-.3 0-.7.3-1.3.6-2Zm5.7 7.5-3-2.4v-.3l.8-2 3 2.4.1.4-.9 2Zm13.4 14-2.8-2.3c-.1-.2-.2-.3-.1-.4l.9-2 3 2.5c.1.1.2.2 0 .3a8 8 0 0 0-1 2Zm-26.5-28L714 453c-.1-.1-.2-.2 0-.3l.7-2.1 3 2.4.1.4-1 2Zm14.7-11.2 3.1 2.4c.1.1.2.3 0 .4l-.8 1.9-3.1-2.5c-.1-.2-.3-.3-.1-.4.4-.5.8-1 1-1.8Zm-18.3 8.4-3-2.4c-.1-.1-.1-.1 0-.4l.7-2 3 2.3v.3c0 .7-.3 1.3-.7 2.2Zm-2.6-5.4-2.8-2.4-.1-.4.8-2 3 2.3v.3l-.9 2.2Zm23.3 25.7c.1.2.1.2 0 0 1 .8 2 1.7 3 2.3v.4l-.9 2-2.8-2.5v-.3c.1-.6.4-1.2.7-1.9Zm-1.4 1.8-2.9-2.4c0-.1-.2-.2 0-.3l.8-2 3 2.5c0 .2.2.3 0 .4l-1 1.8Zm-13-13.9-3-2.3v-.3l.7-2.1 3 2.3v.3c-.3.7-.6 1.3-.7 2.1Zm3.4 3-2.8-2.5c-.1-.1-.2-.2-.1-.3l.8-2 2.8 2.3c.1.1.2.2 0 .3l-.7 2.1Zm.3.5 3 2.3v.3l-.9 2-2.8-2.4v-.4l.7-1.8Zm5.8 7.5-2.8-2.4c-.1-.1-.2-.2 0-.3l.7-1.9h.2l2.8 2.4c.1.2.2.3 0 .4l-.9 1.8Zm-15.4-18.7c1.1.7 2 1.5 2.9 2.4l.2.2-.8 2-2.8-2.3c-.1-.1-.2-.3-.1-.4l.6-2Zm-4-3.5-2.9-2.3c0-.2-.2-.3 0-.4l.7-2c1 .7 2 1.5 2.9 2.4 0 0 .2.2 0 .3 0 .7-.3 1.3-.6 2Zm29 33.2c-1-.8-2-1.5-2.8-2.4-.1-.1-.2-.2-.1-.3l.9-2 3 2.4c.1.2 0 .3 0 .4-.6.7-.7 1.3-1 1.9Zm1.4-1.6c1 .8 2 1.7 3 2.3 0 .2.1.3 0 .4l-.9 2-2.8-2.5c0-.1-.2-.2 0-.3 0-.7.3-1.3.7-1.9ZM712.3 455l-2.8-2.4c-.1-.1-.2-.3 0-.4l.7-2 3 2.4s.1.1 0 .2l-.9 2.2Zm6 8.2-2.8-2.4-.1-.4.8-2 3 2.3v.3l-.9 2.2Zm12-17.3-3.2-2.6v-.3l.7-1.8 3 2.4c.1.1.2.2.1.3 0 .7-.4 1.3-.7 2Zm-21.6 6.3c-1-.8-2-1.7-3-2.3v-.4l.8-2 3 2.3v.3c-.2.8-.3 1.3-.8 2Zm11 9.2c1 .8 2 1.5 2.8 2.3 0 0 .2.2.1.4l-.7 2c-1.1-.7-2-1.4-2.9-2.3 0-.1-.2-.2 0-.3.1-.8.4-1.5.7-2.1Zm4.5-23c1.2.8 2 1.7 3.1 2.5l.1.3-.7 1.9-3-2.4c-.2-.2-.3-.3-.2-.4.1-.7.4-1.3.7-2Zm-9.3 21.9c-1.1-.8-2-1.7-3-2.3 0 0-.1-.2 0-.4l.7-2c1 .7 2 1.6 2.8 2.4.1 0 .2.2.1.3 0 .7-.4 1.3-.6 2Zm-5.7-7.5 2.9 2.4.2.2-.8 2c-1-.7-1.9-1.4-2.8-2.3-.1-.1-.2-.3-.1-.4 0-.5.2-1.2.6-2Zm15.2 18.5c-1-1-1.9-1.6-2.7-2.3l-.2-.5.9-2 3 2.5.1.3c-.6.8-.8 1.3-1 2Zm-7-5.8-2.8-2.3-.1-.4.8-2 2.8 2.3v.4c-.1.8-.4 1.4-.7 2Zm-9.5-10.8-2.8-2.4-.2-.3.8-2 2.7 2.2.2.5-.7 2Zm15-14.7-3-2.4c-.2-.1-.3-.2-.1-.3l.6-1.8v.1l3.1 2.5c.1 0 .2.2.1.3-.3.4-.4 1-.7 1.6Zm-2 28.5L718 466v-.4l.7-2 2.8 2.3.1.4c-.2.8-.5 1.4-.8 2Zm-1.7-31.4-3-2.4-.1-.4.7-1.8 3 2.4c.2.1.3.3.2.4-.3.4-.6 1-.8 1.8Zm-7.4 21c1 .7 2 1.6 2.8 2.4.1 0 .2.2 0 .3l-.7 1.8-3-2.3.1-.2c.2-.7.4-1.3.8-2Zm-1.3 1.6c-.1.1 0 0 0 0l-3-2.3v-.3l.6-2h.2l2.8 2.3c0 .2.2.3 0 .4l-.6 2Zm5-25.7-3-2.5v-.3l.6-2 3 2.4.2.5c-.4.8-.6 1.3-.7 1.9Zm-10.7 18.4c1 .7 1.8 1.5 2.8 2.4v.3l-.6 2c-.1-.2-.2 0-.2 0l-2.7-2.3c-.1-.2-.2-.3-.1-.4l.8-2Zm31.3 61.5.6-.8 10.1-21c.2 0 .2-.2.3-.3L705 456.3l-.2.6c-2.7 7.6-5.7 15.3-8.8 22.8-.3.6-.2.8.3 1.1l8.7 7.2 12.8 10.7 13.6 11.4 4.8 3.8Zm8.1-18-3.3-2.7v-.3l.7-1.8 3.3 2.7v.3c0 .7-.4 1.2-.7 1.8Zm-3.5-2.5c1.1.9 2.1 1.9 3.2 2.6 0 .1.2.3 0 .4l-.7 1.8-3.3-2.8v-.3l.8-1.7Zm-1 2.2 3.1 2.7c.1 0 .2.2.1.3l-.7 1.8-3.2-2.6c-.1-.1-.2-.2-.2-.5.4-.5.6-1 .8-1.7Zm3-6.7 3.3 2.8v.3l-.7 1.8-3.3-2.7v-.3l.7-1.9Zm-4 9 3.2 2.7.1.4c-.3.6-.5 1.1-.9 1.6L738 500s-.2-.2 0-.3c.2-.8.4-1.2.7-1.8Zm-2.1 4.2c1.1 1 2 1.8 3.2 2.6.1.2.2.3 0 .4l-.8 1.7c-1.1-.9-2-1.8-3-2.5-.2-.1-.3-.2-.1-.3l.7-1.9Zm3.5 2.6c-1-1-2.1-1.9-3.2-2.6v-.2l.7-1.8c1.1.9 2 1.8 3.2 2.6.1.1 0 .4 0 .4l-.7 1.6ZM710.8 465l-2.9-2.5v-.2c.4-.7.5-1.4.8-2 1 .8 2 1.5 2.8 2.3.1.1.2.2 0 .3-.1.8-.4 1.4-.7 2Zm-3.4-2.9-2.8-2.3c0-.2-.2-.3 0-.4l.7-2 2.8 2.3c.1.2 0 .4 0 .4-.1.7-.4 1.4-.7 2Zm4.8 1.1 3 2.5v.3l-.8 2-2.8-2.3c0-.1-.2-.2 0-.3 0-1 .2-1.5.6-2.2Zm5.5 7.6-2.8-2.4s-.2-.2 0-.3l.7-2 2.8 2.3c.1.1.2.2 0 .3l-.7 2Zm16.9 35.6 3.3 2.7-.9 2-3-2.6c-.2 0-.3-.2-.2-.3l.8-1.8Zm1-2 3.2 2.6c0 .1.2.2 0 .3-.1.6-.5 1-.8 1.7l-3-2.5c-.2 0-.2-.3-.2-.3.2-.8.6-1.3.8-1.8ZM719 468.9l2.8 2.4c.1 0 .2.2 0 .3l-.7 1.8c-.9-.9-2-1.6-2.7-2.3l-.1-.4.7-1.8Zm5.5 7.6-2.8-2.4c0-.1-.2-.2 0-.3l.8-2c1 1 1.9 1.6 2.8 2.4a1624.9 1624.9 0 0 1-.8 2.3Zm-14.6-9.2-2.9-2.5v-.2l.8-2 2.8 2.3c0 .2.2.3 0 .4-.1.7-.4 1.4-.7 2Zm-1 2.4c-.8-.9-1.9-1.6-2.7-2.4-.1-.1-.2-.2 0-.3l.7-1.8 2.7 2.3c.1.1.2.3.1.4a17 17 0 0 1-.7 1.8Zm23.3 10.3-1 2-2.8-2.3v-.3l.8-2c1 1 2 1.9 3 2.6Zm-4.3-.7-2.8-2.3v-.4l.7-1.8 2.8 2.4v.4l-.7 1.7ZM710.2 468c.9.9 2 1.6 2.7 2.3v.3l-.8 1.9-2.8-2.4-.1-.3c.5-.4.8-1 1-1.8Zm4.4.6 2.8 2.4s.2.2 0 .3l-.8 2c-1-1-2-1.7-2.8-2.4-.1-.2-.2-.3 0-.4l.8-1.9Zm-11.2-6.3c.9.9 2 1.6 2.8 2.3v.4c-.3.6-.6 1.3-.7 2-1-.8-2-1.5-2.8-2.3-.1-.1-.2-.3-.1-.4.3-.6.6-1.2.8-2Zm12.4 13.2L713 473c-.1-.1-.2-.2 0-.3l.7-1.8 2.8 2.4v.3l-.7 1.8Zm-4.6-9.7 2.9 2.4v.2l-1 2c-.8-.9-1.9-1.6-2.7-2.4-.1-.1-.2-.2 0-.3l.8-2Zm-4.7-1.2-2.8-2.4c0-.1-.2-.2 0-.3l.7-1.8 2.8 2.3c0 .1.2.3 0 .4l-.7 1.8Zm-.7 2.9 3 2.5-.1.2-.7 1.8-2.8-2.3c-.1-.2-.2-.3-.1-.4l.7-1.8Zm14.7 9.2 2.7 2.3.1.1-.8 2c-1-1-1.9-1.5-2.8-2.4-.1-.1-.2-.2 0-.3l.8-1.7Zm.9-2.4 2.8 2.4v.3l-.7 1.8-.1.1-2.7-2.2c-.1-.1 0-.4 0-.4l.7-2Zm-8.8-1.1 2.8 2.4s.1 0 0 .2l-.9 1.9-2.8-2.4v-.3c.4-.5.7-1.2 1-1.8Zm6.6 5.1-2.8-2.3v-.3l.9-1.9 2.8 2.4c0 .1.2.2 0 .3l-1 1.8Zm-10-8c1 1 2 1.7 2.8 2.4l.1.3-.7 1.9-2.8-2.4c-.1-.1-.2-.2-.1-.3l.7-1.8Zm8.8 1.2 2.8 2.3v.3l-.7 1.9-2.8-2.4v-.2c.1-.7.4-1.3.7-2Zm17.9 41.8-2.9-2.5-.2-.5.8-1.6c1.1.9 2 1.8 3 2.5 0 0 .2.1.1.4-.1.5-.5 1-.8 1.7Zm-8.7-31c.9.8 1.8 1.4 2.7 2.3.1.1.2.2.1.3l-.7 1.8-2.8-2.3c-.1-.1-.2-.2 0-.3l.7-1.9Zm3 2.2-2.7-2.3c0-.2-.2-.3 0-.4l.7-1.8c1 .8 2 1.6 3 2.6l-1 2Zm2.4-3.9 2.8 2.4v.3l-.7 1.8-2.8-2.3v-.4l.7-1.8Zm-5.7 1-2.8-2.3v-.3l.7-1.8 2.8 2.3c0 .1.2.2 0 .3-.1.6-.4 1.2-.7 1.9Zm-1 2.3-2.8-2.4c-.1 0-.2-.2 0-.3l.8-2c1 1 1.8 1.6 2.8 2.4 0 .2.2.3 0 .4l-.8 1.9Zm-23.4-19.2c.9.8 1.8 1.4 2.7 2.3.1.1.2.2.1.3-.3.7-.5 1.2-.6 2-1-.9-2-1.5-2.8-2.4l-.1-.3.7-2Zm31.5 23.2 2.6 2.3c.1 0 .2.2.1.3l-.7 1.8-2.8-2.3c-.1-.1-.2-.3 0-.4l.8-1.7Zm-12.4-4.5c-1-.9-2-1.5-2.8-2.3-.1-.2-.2-.3-.1-.4l.7-1.8c1 .9 2 1.5 2.8 2.3l.1.4-.7 1.8Zm4.6 1.2 2.8 2.3c.1.2.2.3.1.4l-.8 1.8-2.7-2.4c-.1 0-.2-.2-.1-.3l.7-1.8Zm5.4-1.8c.9 1 1.8 1.5 2.8 2.4 0 .1.2.2 0 .3l-.7 1.9h-.2l-2.7-2.3c-.1-.1-.2-.2 0-.3l.8-2Zm-13.4-2.2c-1-.9-2-1.5-2.7-2.3-.1-.1-.2-.2-.1-.3l.7-1.8 2.8 2.3c.1.1.2.3.1.4-.3.4-.6 1-.8 1.7Zm-13.3-10.7 2.8 2.3s.1.1 0 .2l-.8 1.8c-.9-.8-1.8-1.4-2.7-2.3-.1-.1-.2-.2-.1-.3l.8-1.7Zm18 11.8 2.7 2.4c.1.1.2.2.1.3l-.8 1.8c-.9-.8-1.8-1.4-2.7-2.3-.1-.1-.2-.2-.1-.3l.7-1.9Zm14 8.4c-.8-.9-1.9-1.6-2.7-2.4v-.3l.7-1.8 2.8 2.3v.4c0 .6-.4 1.1-.7 1.8Zm-.9-6.6 2.8 2.3v.4l-.7 1.8-2.8-2.4v-.3c.1-.8.4-1.2.7-1.8Zm-4.4 8.3-2.7-2.3c-.1-.1-.2-.3-.1-.4l.9-1.9 2.7 2.4c.1 0 .2.2.1.3l-.9 2Zm-19.9-16.2c1 .8 1.9 1.4 2.8 2.3.1.1.2.2 0 .3l-.7 1.9-2.7-2.4c-.1-.1-.2-.2-.1-.3l.7-1.8Zm-3.4-2.9 2.8 2.4c.1 0 .2.2 0 .3l-.7 1.8-2.7-2.3-.1-.4.7-1.8Zm31.1 13.6 2.8 2.4s.2.2 0 .3l-.7 1.8-2.8-2.3v-.4c.1-.7.4-1.2.7-1.8Zm-8.8-1.2 2.7 2.3c.1.2.2.3.1.4l-.7 1.8-2.8-2.4c-.1 0-.2-.2 0-.3l.7-1.8Zm-12.2-4 2.8 2.4c.1.1.2.2 0 .3l-.7 1.8-2.7-2.3c-.1-.1-.2-.3-.1-.4l.7-1.8Zm16.5 13.5-2.7-2.4c-.1-.1-.2-.2-.1-.3l.9-2c.9 1 1.8 1.5 2.7 2.4.1.1.2.2.1.3-.2.8-.6 1.3-.9 2Zm3.5-6 2.8 2.3c0 .1.2.2 0 .3l-.7 1.9-2.8-2.4v-.3c.1-.8.4-1.2.7-1.9Zm1 6.6-2.8-2.4c-.1-.1-.2-.2 0-.3l.7-1.8 2.7 2.3.1.4-.7 1.8Zm-34.2-16.3-2.8-2.4v-.3l.7-1.9c1 1 2 1.7 2.8 2.4 0 .1.2.2 0 .3l-.7 1.9Zm10-.5c.8.9 1.9 1.6 2.7 2.4v.3l-.7 1.8-2.7-2.3-.1-.4.7-1.8Zm-3.2 6.2-2.8-2.4c0-.1-.2-.2 0-.3.1-.6.4-1.2.7-1.9l2.8 2.4v.3c-.2.7-.5 1-.7 1.9Zm-5.5-7.4 2.8 2.3c0 .2.2.3 0 .4l-.7 1.8-2.7-2.2c0-.1-.2-.3 0-.4 0-.6.3-1.3.6-1.9Zm31.8 20.2c-.9-.9-1.8-1.5-2.6-2.2-.1-.1-.2-.3-.1-.4l.7-1.8 2.7 2.2c.1.2.2.3.1.4a17 17 0 0 1-.8 1.8Zm-14.4-9c-.9-.8-1.8-1.4-2.7-2.3-.1 0-.2-.2-.1-.3l.7-1.8 2.8 2.3c.1.1.2.3 0 .4 0 .5-.4 1.1-.7 1.8ZM704 472.2l2.8 2.4v.3l-.7 1.8-2.8-2.3c0-.2-.2-.3 0-.4l.7-1.8Zm23.2 19-2.8-2.3c0-.2-.1-.3 0-.4l.7-1.8 2.8 2.4c.1 0 .2.2 0 .3 0 .5-.3 1-.7 1.8Zm-10.6-5.6 2.8 2.4v.3l-.7 1.8-2.8-2.3c0-.1-.2-.3 0-.4l.7-1.8Zm-7-6.3-2.8-2.3s-.1-.1 0-.2l.7-1.8 2.8 2.3c.1.1.2.3 0 .4l-.8 1.6Zm1.1-1.5 2.8 2.3c0 .2.2.3.2.3l-.8 1.8-2.7-2.4c-.1 0-.2-.2-.1-.3l.6-1.7Zm2.5 5 2.8 2.3.2.3-.8 1.8-2.7-2.4c-.1 0-.2-.2-.1-.3 0-.4.4-1 .6-1.7Zm-11.7-15.8 2.8 2.4c.1 0 .2.2 0 .3l-.7 1.8-2.6-2.2-.1-.4.6-1.9Zm-.3 12c.9.8 1.8 1.4 2.7 2.3l.2.2-.7 1.8c-1-.8-1.9-1.4-2.8-2.3v-.3c.2-.5.5-1.1.6-1.8Zm22.1 12.2 2.7 2.2c0 .2.2.3 0 .4l-.7 1.8-2.8-2.4s-.2-.2 0-.3l.8-1.7Zm5.2-1.6 2.7 2.2c.1.1.2.2 0 .3l-.7 1.8-2.7-2.2c0-.1-.2-.2 0-.3l.7-1.8Zm-10.9-6.2 2.8 2.3c.1.2.2.3 0 .4l-.7 1.8-2.7-2.4c-.1 0-.2-.2-.1-.3l.7-1.8Zm14.3 9 2.8 2.4v.3l-.7 1.8-2.8-2.3v-.4l.7-1.8Zm-25.1-6.2-2.7-2.2c0-.2-.2-.3-.2-.3l.8-1.8 2.7 2.4c.1 0 .2.2.1.3l-.7 1.6Zm3.3 2.7-2.8-2.3c0-.1-.2-.3 0-.4l.7-1.8 2.8 2.4v.3l-.7 1.8Zm10-.4 2.7 2.3c0 .1.2.3 0 .4l-.7 1.8-2.8-2.4v-.3c.1-.8.4-1.2.7-1.8Zm12 12.7c-1-.9-2-1.5-2.8-2.3 0 0-.2-.2 0-.3l.7-1.8 2.7 2.2c0 .1.2.2 0 .3a17 17 0 0 1-.7 1.9Zm-27.8-20-2.8-2.3c0-.2-.2-.3 0-.4l.7-1.8 2.8 2.4v.3a17 17 0 0 1-.7 1.8Zm9.8-.6 2.8 2.4c0 .1.2.2 0 .3-.1.6-.4 1.2-.7 1.8-1-.8-1.9-1.4-2.8-2.3v-.3l.7-1.9Zm12.2 12.8-2.7-2.4s-.1-.1 0-.2l.7-1.8 2.8 2.3c.1.1.2.3 0 .4l-.8 1.7Zm7 6.1 2.7 2.2c0 .2.2.3 0 .4-.1.5-.4 1.2-.8 1.7l-2.7-2.3v-.3l.8-1.7Zm-16.5-5-2.8-2.3v-.4l.7-1.8 2.8 2.3c0 .2.2.3 0 .4a17 17 0 0 1-.7 1.8Zm4.1-8.4 2.8 2.4v.3l-.7 1.8-2.6-2.2c-.1-.1-.2-.2-.1-.3 0-.7.3-1.3.6-2Zm14.3 9 2.8 2.4v.3l-.7 1.8-2.8-2.3c0-.1-.2-.2 0-.3l.7-1.9ZM709 482.2l2.7 2.2.2.3-.8 1.8-2.8-2.4c0-.1-.2-.2 0-.3l.7-1.6Zm2.5 5 2.7 2.2.2.2-.8 1.9-2.8-2.4v-.3l.7-1.6Zm17.2 11-2.8-2.3c0-.2-.2-.3 0-.4l.7-1.8 2.8 2.4v.3c-.1.8-.3 1.3-.7 1.8Zm2.4-3.8 2.8 2.4v.3l-.7 1.8-2.8-2.3v-.3c.1-.6.4-1.2.7-1.9Zm-9.6 1c1 1 1.8 1.6 2.8 2.4v.4l-.7 1.8-2.7-2.3s-.2-.2 0-.3c0-.6.3-1.3.6-2Zm-13.8-11.6-2.7-2.2c0-.1-.2-.2 0-.3.1-.6.4-1.2.7-1.8l2.8 2.3c0 .1.2.2 0 .3l-.8 1.7Zm10.5 9 2.7 2.2c0 .1.2.2 0 .3l-.7 1.8-2.8-2.3v-.4l.8-1.7Zm11.9 12.5-2.7-2.2c0-.1-.2-.3 0-.4l.7-1.8 2.7 2.3s.2.2 0 .3c0 .7-.4 1.2-.7 1.8Zm-.4-9.3-2.6-2.3c-.1 0-.2-.2-.1-.3l.7-1.8 2.7 2.2c.1.1 0 .4 0 .4-.1.7-.3 1.3-.7 1.8Zm-11.8-3.8-2.8-2.4c0-.1-.2-.2 0-.3.1-.6.4-1.2.7-1.8l2.8 2.3c0 .1.2.3 0 .3l-.7 1.9Zm-5.5-7.2 2.7 2.3s.2.2 0 .3l-.7 1.8-2.7-2.2c0-.1-.2-.3 0-.4l.7-1.8Zm14.4 17.6-2.7-2.2c0-.2-.2-.3 0-.4l.7-1.8 2.7 2.2c0 .2.2.3 0 .4a17 17 0 0 1-.7 1.8Zm-2.3-5-2.8-2.3c0-.1-.2-.3 0-.4l.7-1.8 2.8 2.4s.2.2 0 .3l-.7 1.8Zm7 6.2 2.8 2.3v.4c-.2.6-.4 1.1-.8 1.7l-2.7-2.3s-.2-.2 0-.3c.1-.8.3-1.3.7-1.8Zm3-6.6 2.7 2.3c.1.1.1.1 0 .4-.2.6-.4 1.1-.8 1.7l-2.7-2.4-.1-.3.8-1.7Zm-15.4-6.6c.9.9 1.8 1.5 2.7 2.2 0 .2.2.3 0 .4a17 17 0 0 1-.7 1.8l-2.8-2.4v-.3l.8-1.7Zm12 12.5-2.7-2.2c0-.2-.2-.3 0-.4.1-.5.5-1 .8-1.7l2.8 2.4v.3l-.9 1.6Zm-3.3-2.7L725 498c0-.1-.2-.2 0-.3.1-.6.4-1.2.8-1.7l2.7 2.2c0 .1.2.3 0 .4l-.8 1.7Zm-25-26.6-2.6-2.1c0-.2-.2-.3 0-.4l.6-2c1 1 1.9 1.6 2.7 2.3 0 .1.2.3 0 .4a17 17 0 0 1-.7 1.8Zm31.6 32-2.7-2.2c0-.1-.2-.3 0-.4.1-.5.4-1.1.8-1.7l2.7 2.3s.2.2 0 .3c-.2.7-.4 1.2-.8 1.7ZM702 476l-2.6-2v-.3l.7-2 2.6 2.2s.2.2 0 .3c-.2.6-.5 1-.7 1.8Zm25 27.2c1 .8 2 1.5 2.7 2.2l.1.3c-.1.6-.5 1.1-.7 1.6l-2.7-2.2v-.3l.7-1.6Zm3.4 2.7c.9.9 1.8 1.5 2.7 2.3v.3c-.3.6-.4 1.1-.8 1.7l-2.8-2.4.9-1.9Zm-10-8.2c1 .9 2 1.5 2.8 2.4.1 0 .2.2.1.3-.1.5-.5 1-.7 1.6l-2.7-2.2v-.4c.1-.7.4-1.2.6-1.7Zm2.6 4.6.8-1.9 2.6 2.3.2.2-.7 1.8c-1-1-2-1.6-2.9-2.4Zm-5.8-7.3 2.7 2.3c.1.2.2.3.1.4-.1.5-.5 1-.7 1.6l-2.7-2.3s-.2-.2 0-.3c0-.7.4-1.2.6-1.7Zm-3.3-2.7c.9.8 1.8 1.4 2.7 2.3.1.1.2.2.1.3-.1.6-.4 1-.7 1.6l-2.8-2.3v-.4c.1-.5.4-1.1.7-1.5Zm-13-14c-.7-.8-1.7-1.4-2.5-2.1 0-.2-.2-.3 0-.4l.6-2 2.6 2.2c0 .1.2.2 0 .3 0 .7-.3 1.3-.6 2Zm11.7 15.4-2.7-2.2v-.4l.6-1.7c.9.9 1.8 1.5 2.6 2.2.1.2.2.3.1.4 0 .6-.3 1-.6 1.7Zm-3.2-2.8-2.8-2.4v-.3c.1-.6.3-1.1.6-1.7 1 .8 1.9 1.4 2.8 2.3v.3l-.6 1.8Zm-9.2-10.4-2.5-2v-.3l.6-2c.8.8 1.8 1.4 2.5 2v.4c-.1.7-.3 1.3-.6 2Zm3.7 3.4 2.7 2.4s.1.1 0 .2c-.1.6-.4 1.2-.6 1.7l-2.7-2.2c0-.1-.2-.2 0-.3 0-.7.3-1.3.6-1.8Zm-3.4-2.8c.9.9 1.8 1.5 2.8 2.3 0 .2.1.3 0 .4l-.6 1.7-2.8-2.3c0-.2-.2-.3 0-.4l.6-1.7Zm-3.1-2.5 2.5 2c0 .1.2.2 0 .3-.1.6-.4 1-.6 1.5l-2.5-2s-.2-.2 0-.3l.6-1.5Zm63-20.5c.5-.4 1.3-.3 1.7.2.5.5.4 1.3-.2 1.8-.5.4-1.3.3-1.7-.2-.4-.5-.4-1.3.2-1.8Zm-45.8-36.7c.5-.4 1.3-.4 1.7.2.4.5.4 1.3-.2 1.7-.5.4-1.3.4-1.7-.2-.5-.5-.4-1.3.2-1.7Zm98.4-98.6c1.3-1 3.3-.9 4.4.5a3 3 0 0 1-.4 4.3c-1.4 1-3.3.9-4.4-.4a3 3 0 0 1 .4-4.4Z"/><path fill="#394149" d="m775.5 424.1 19.9 12.7-23.9 7.4-2.6 11.5-5 5.1-8.6-10.2 7.8-9-9.4-7.2 13.2-11.2 8.6 1Z"/><path fill="#5C5F63" fill-rule="evenodd" d="m795.2 437.3-20.1-12.5-8.8-.7-13.7 11.6 9.2 6.9-7.9 9 8.7 10.4 5.4-5.4 2.9-11.4 24.3-7.9Zm-1.4-.1-23.4 7.6-3 11.5-4.7 4.9-8-9.6 8-9.1-9.2-6.8 13-11 8.4.7 19 11.8Z" clip-rule="evenodd"/><path fill="#394149" d="M731.1 390c7.7-6.2 22.1-1.5 32.2 10.6 10 12 12 27 4.3 33.2-7.7 6.3-22 1.6-32.2-10.5-10-12.1-12-27-4.3-33.3Z"/><path fill="#5C5F63" fill-rule="evenodd" d="M752.7 434.8a37 37 0 0 1-16.8-11.9c-5-6-7.8-12.6-8.5-18.6-.7-6 .8-11.1 4.6-14.2 3.8-3.1 9.3-3.6 15-1.8a37.1 37.1 0 0 1 16.8 11.9c5 6 7.8 12.6 8.5 18.5.7 6-.8 11.2-4.6 14.3-3.8 3-9.3 3.6-15 1.8Zm-.2.5c5.9 1.9 11.6 1.4 15.6-1.9 4-3.2 5.5-8.7 4.8-14.7-.7-6.1-3.6-12.9-8.6-18.9-5-6-11.2-10.2-17-12-6-1.9-11.7-1.4-15.7 1.8-4 3.3-5.5 8.7-4.8 14.8a37 37 0 0 0 8.7 18.9c5 6 11.1 10.2 17 12Z" clip-rule="evenodd"/><path fill="#5C5F63" fill-rule="evenodd" d="M766.5 434.9a15 15 0 0 0 5.4-2.8c4.4-3.5 6-9.3 5.3-15.8A39.4 39.4 0 0 0 768 396a39.6 39.6 0 0 0-18.2-12.7c-6.3-2-12.4-1.4-16.7 2a15 15 0 0 0-5 9.2l.6.2c.7-2 2-3.8 3.6-5.2 3.7-3 9.1-3.4 14.9-1.5 5.7 2 11.8 6 16.8 12s8 12.7 8.8 18.7c.7 6-.7 11.1-4.4 14.2l-2.1 1.3.2.6Zm2.7-1.8c3.7-3.2 5-8.5 4.2-14.4-.8-6-3.8-12.9-8.9-19-5-6-11.2-10.3-17.1-12.2-6-2-11.6-1.6-15.5 1.6-1 .8-1.7 1.7-2.4 2.6.9-2.2 2.2-4.2 4-5.7 4.1-3.3 10-3.9 16.1-2a38.9 38.9 0 0 1 17.9 12.5 38.8 38.8 0 0 1 9 19.8c.8 6.4-.9 12-5 15.3a13 13 0 0 1-2.3 1.5Z" clip-rule="evenodd"/><path fill="#5C5F63" fill-rule="evenodd" d="M756.9 419.6c-3.4-1.1-7-3.6-10-7.1-3-3.6-4.7-7.5-5.1-11-.5-3.5.4-6.5 2.6-8.3 2.1-1.8 5.3-2 8.7-1 3.4 1.2 7 3.6 9.9 7.2 3 3.5 4.7 7.5 5.1 11 .5 3.5-.4 6.5-2.5 8.3-2.2 1.7-5.4 2-8.7.9Zm-.3.7c3.6 1.2 7 1 9.5-1 2.4-2 3.3-5.3 2.8-9-.4-3.7-2.3-7.8-5.3-11.4-3-3.6-6.7-6.2-10.3-7.3-3.5-1.2-7-1-9.4 1-2.5 2-3.3 5.3-2.9 9 .5 3.6 2.3 7.7 5.3 11.4 3 3.6 6.8 6.2 10.3 7.3Z" clip-rule="evenodd"/><path fill="#5C5F63" d="M748.7 397.2c2.9-2.4 8.3-.7 12 3.8 3.7 4.4 4.4 10 1.4 12.4-2.9 2.3-8.3.6-12-3.8-3.7-4.5-4.3-10-1.4-12.4Zm8 21-2 1.6c-.4.4-.7 1-.5 1.2.2.3.9.1 1.4-.3l2-1.5c.4-.4.7-1 .5-1.3-.2-.2-.7-.2-1.4.3ZM743.3 403l-1.9 1.5c-.5.4-.8 1-.6 1.3.2.2 1 0 1.4-.3l2-1.6c.4-.4.7-1 .5-1.3-.3-.3-.9 0-1.4.4Z"/><path fill="#5C5F63" d="m752.6 393.7-1.9 1.5c-.5.4-.7 1-.5 1.3.2.2.8 0 1.3-.3l2-1.6c.4-.4.7-1 .5-1.2-.2-.3-.9-.1-1.4.3Zm14.8 16.4-2 1.6c-.4.3-.7 1-.5 1.2.2.3.8.1 1.3-.3l2-1.6c.4-.4.7-1 .5-1.2-.2-.3-.9-.1-1.3.3Z"/><path fill="#394149" d="m809.7 379.9 20.7-16.3 12.4 27.6-13.7 11-8.3 2-11.1-24.3Z"/><path fill="#5C5F63" fill-rule="evenodd" d="m843.5 390.6-12.1-27.8-21.6 17 11 24.4 8.6-2.3 14.1-11.3Zm-14.4 10.8-8 2.2-10.6-23.7 20.6-16.2 11.7 26.7-13.7 11Z" clip-rule="evenodd"/><path fill="#5C5F63" fill-rule="evenodd" d="m825.4 395.2-10-22-7.8 6 10.1 22 7.7-6Zm-7.5 5.3-9.7-21 7-5.6 9.6 21.1-6.9 5.5Zm25.6-9.6-11.9-28.2-14.2 11.2 10.7 25.2 2.5-1.9 1.3 2.8 11.6-9Zm-11.4 8.4-1.2-2.8-2.6 1.9L818 374l13.4-10.5 11.5 27.3-10.8 8.5Z" clip-rule="evenodd"/><path fill="#5C5F63" fill-rule="evenodd" d="m829.9 366.2-12.7 10 12.8-9.9h-.1Zm2.5 1.1-12.6 10 12.7-9.9Zm-1 2.6-12.7 9.9 12.7-9.8v-.1Zm.1 2.4-12.7 10h.1l12.7-9.9Zm1.3 1.2-12.6 10 12.7-10Zm.1 1.2-12.7 10h.1l12.7-9.9Zm2.6 1.1-12.7 10 12.8-9.9h-.1Zm-1.1 2.6-12.7 9.9h.1l12.7-9.8-.1-.1Zm2.6 1-12.7 10 12.7-9.9Zm0 1.3-12.6 9.9v.1l12.7-10Zm1.3 1.1-12.6 10 12.7-9.9Zm.2 2.5-12.7 10h.1l12.7-9.9v-.1Zm1.3 1.2-12.7 9.9h.1l12.7-9.8v-.1Zm.1 1.2-12.7 10h.1l12.7-10h-.1Zm1.3 1.1-12.7 10h.1l12.7-9.9Zm.6 2.7-10.6 8.5 10.7-8.4v-.1Z" clip-rule="evenodd"/><path fill="#5C5F63" fill-rule="evenodd" d="m830 396.7-11.7-25.5 11.6 25.6h.2Zm1.5 2.4L819 371h-.1l12.3 28.3h.2Zm1.2 0-12.4-28.3 12.3 28.3Zm2.4-1.5-12.4-28.2 12.3 28.3Zm2.3-2.6L825 366.8l12.3 28.3h.1Zm2.4-1.4-12.4-28.2 12.3 28.3Zm1.2 0-12.3-28.3h-.1l12.3 28.3h.1Zm1.2-1.4L829.8 364l12.3 28.3ZM819 376l-8.7 7 8.8-6.9Zm.2 2.5-8.7 7 8.8-6.9-.1-.1Zm1.3 1.2-8.7 6.9 8.8-6.8v-.1Zm0 1.2-8.6 7 8.8-7h-.1Zm.2 1.2-8.8 7h.1l8.7-6.9Zm1.4 2.4-8.8 7h.1l8.7-6.9Zm0 1.3-8.7 6.9 8.8-6.8v-.1Zm1.4 1.1-8.8 7h.1l8.7-6.9Z" clip-rule="evenodd"/><path fill="#5C5F63" fill-rule="evenodd" d="m823.5 387-8.8 6.8.1.1 8.7-6.9Zm1.3 1-8.8 7h.1l8.8-6.8-.1-.1Zm.2 3.8-8.7 6.9 8.8-6.8v-.1Zm1.3 1.1-8.7 7 8.8-6.9Zm.1 1.3-8.7 6.9 8.8-6.8v-.1Z" clip-rule="evenodd"/><path fill="#5C5F63" fill-rule="evenodd" d="m819.1 400-9.4-22.8L819 400h.1Zm2.5-.3L813 378h-.1l8.6 21.8Zm1.1-1.3-8.5-21.7h-.2l8.6 21.8h.1Zm1.2-1.3-8.6-21.7h-.1l8.6 21.8Z" clip-rule="evenodd"/><path fill="#394149" d="m802.4 451.1 105.3 28.2-.8-67.3-112-21.3 7.5 60.4Z"/><path fill="#5C5F63" fill-rule="evenodd" d="m908.2 479-.7-68.2-113-21.3 7.5 61.1L908.2 479Zm-.6-.8-105-28-7.4-60 111.7 21 .7 67Z" clip-rule="evenodd"/><path fill="#5C5F63" d="M850.7 399.2v.8l3.6 62.4c0 .5.2.8.8 1l18 4.6c6.8 1.7 13.3 3.5 19.8 5 4.4 1.3 8.6 2.3 13 3.5l.7.1v-.7l-.1-66c0-.7-.2-1-.8-1-6.3-1-12.6-2.3-19-3.4l-32.8-6a10 10 0 0 1-3.2-.3Zm3 38.3c0-1.6-.2-3.3-.4-5l4.2 1c.2 0 .4.2.3.3l.2 4.3-.8-.2-2.9-.7-.6.3.8.4 3.2.9.4.2.3 4.3a47 47 0 0 0-4.2-.9c-.1.6.2.7.4.7l3.1.7c.3 0 .5.3.5.3l.2 4.3-4-.9c-.4 0-.6-.3-.5-.7l-.2-5.3a11 11 0 0 0 0-4Zm51.8-16.7-4.9-.9c-.4 0-.4-.3-.4-.7V414.8l5 .9c.3 0 .5.3.4.4v4.7Zm0-5.9-5-1c-.1-.1-.4-.1-.4-.3v-4.9l5.4 1v5.2Zm-5.3 5.5 5 1 .2.3v4.7l-5-1-.3-.4.1-4.6Zm0 5.8 5 1c.2 0 .3.4.4.5v4.5l-5-1.1-.2-.4-.2-4.5Zm5.5 50c-1.6-.6-3.2-1-4.6-1.4-.2 0-.3-.4-.4-.5a18 18 0 0 1 0-3.5v-1.2l5 1.2v5.3Zm0-38.4c-.1.1-.2 0-.2 0l-4-.8c-1-.2-1-.2-1-1.2l-.1-3.9c1.8.4 3.3.8 5 1 .2 0 .3.2.3.4v4.5Zm-6.2-24-3.6-.6c-1.5-.3-1.5-.3-1.5-1.7v-3.6l5.1.9v5Zm0 .8c0 1.7.2 3.4.1 5.1l-4.6-1c-.3-.1-.4-.2-.5-.6v-4.5l5 1Zm1 27.7-.1-4.8 5.2 1v4.8c-1.8-.2-3.4-.6-5.2-1ZM888.7 407a61.8 61.8 0 0 1 4.9 1.1v4.9l-4.7-.9-.3-.3c.2-1.6.1-3.2 0-4.8Zm10.7 13.5v5l-4.6-.8c-.2 0-.3-.4-.3-.6v-3l-.1-1.4 5 .8Zm-5.6-6.8v5l-4.7-.8-.2-.3c0-1.5 0-3-.2-4.7 1.8.1 3.4.5 5 .8Zm6.4 29.4c1.5.2 2.8.6 4.2 1 1 .2 1 .2 1 1.2 0 1.3.2 2.4 0 3.8l-4.9-1.2c-.2 0-.3-.3-.3-.3.2-1.6.1-3 0-4.5Zm-.2 31.6c-1.6-.3-3-.8-4.3-1.2-.3 0-.3-.3-.3-.5V470l-.1-1.8 4.8 1.2-.1 5.2Zm.4-26.2 4.9 1.1.3.4v4.4l-4.8-1.1-.3-.4-.1-4.4ZM883.2 406l4.6.7c.2 0 .3.2.3.4l.1 4.7-4.6-.8-.4-.4V406Zm11.5 19.1 4.8 1 .2.3v4.6l-4.7-1-.3-.4v-4.5Zm-.7-1h-.1l-4.5-.8c0-.1-.3-.1-.3-.3v-4.7c1.5.4 3 .5 4.6.9.3 0 .3.4.3.4v4.5Zm-10.6-12.6c1.5.4 3.1.5 4.7.9 0 .1.3.1.3.3 0 1.6 0 3 .2 4.8l-5-.9-.2-5Zm11.4 61.7-4.4-1.1c-.2 0-.3-.4-.2-.6l-.1-2.6v-2c1.5.3 3 .8 4.4 1l.3.4v5ZM889 424l4.6 1c.2 0 .3 0 .3.3v4.6l-4.5-1-.2-.2-.2-4.7Zm10.6 12.6-3.8-.8c-1.3-.2-1.3-.2-1.3-1.4v-3.6l4.8 1 .3.3v4.5Zm-22-31.7 5 1v4.9l-4.9-.9c.1-1.7 0-3.3-.1-5Zm28 54.8-4.8-1.2c-.2 0-.4-.2-.3-.4v-4.3c1.6.5 3.3.8 4.9 1.1l.3.4-.1 4.4Zm-22.1-42.4 4.5 1c.1 0 .4 0 .3.3l.1 4.6-4.5-1c-.3 0-.3-.2-.4-.3v-4.6Zm22.2 47.8-5.1-1.4-.1-4.6 4.8 1.2c.2 0 .3.2.3.4v4.4ZM878 410.6c1.6.4 3 .6 4.5.8.2 0 .3.4.3.4v2.2l.2 2.3-4.5-.8c-.2 0-.3-.2-.3-.4 0-1.3-.3-2.8-.2-4.5Zm21.8 31.4h-.3l-2.9-.7c-.5-.2-1.3-.1-1.6-.5-.3-.3-.1-1.1-.3-1.8l-.1-3c1.5.4 3.1.8 4.6 1 .2 0 .3.4.3.4.3 1.7.3 3.2.3 4.6Zm-15 23.6c1.6.4 3 .7 4.4 1.2.2 0 .3.1.3.3v4.9c-1.5-.4-2.9-.7-4.3-1.2l-.3-.3v-4.9Zm3.8-37c-1.5-.3-3-.5-4.5-1-.1 0-.4 0-.3-.3l-.1-4.6c1.5.4 3 .6 4.4.8.3 0 .5.3.4.4 0 1.8.2 3.3.1 4.8Zm5.6 6.7c-.1.1-.1.1-.2 0l-3-.6c-1.6-.3-1.6-.3-1.7-2v-3l4.5.9c.2 0 .3.3.3.3.2 1.5.1 3 .1 4.4Zm-17-30.5.1 5c-1.6-.4-3-.5-4.4-.8-.2 0-.4-.2-.3-.3l-.2-4.6 4.7.7Zm17.7 37 4.7 1 .3.4v4.5l-4.7-1.1c-.1-.1-.4-.2-.3-.4v-4.5Zm-12-19.7c-1-.2-1.9-.3-2.7-.6-.7 0-1.5 0-2-.5-.2-.4-.1-1.3 0-2l-.1-2.8 4.5.9c.2 0 .4.2.3.3v4.7Zm11.4 18.9-5-1.1V435l4.5 1c.2 0 .4.3.3.4.2 1.4.1 2.9.2 4.5Zm6.3 23.4 4.8 1.2c0 .1.3.2.3.4v4.3l-4.8-1.2-.3-.4v-4.3Zm-23.1-48.9-3-.5c-.5-.1-1.3 0-1.6-.5-.3-.3-.1-1.1-.1-1.7 0-1 0-2-.2-3.1l4.5.8c.2 0 .3.2.3.4v4.6Zm6.8 55-3.5-1c-1-.2-1-.2-1-1.2l-.2-4.2 4.3 1c.2.1.2.3.3.5.1 1.7.2 3.2.1 5Zm4.4-36.2-2.8-.6c-.5-.1-1.5-.1-1.8-.5-.4-.4-.3-1.2-.2-2v-2.7l4.4.8c.3 0 .5.3.3.4l.1 4.6Zm-5.5-6.7c-1.3-.2-2.5-.4-3.6-.8-1.2-.2-1.2-.2-1.2-1.4l-.1-3.6 4.5.8c.2 0 .3.2.3.4v4.6Zm11.8 19.5c1.1.4 2.2.5 3.3.8 1.6.3 1.6.3 1.7 2v3c-1.6-.4-3-.6-4.5-1.1-.2 0-.4-.3-.4-.5v-4.2Zm-23-38.3-4.6-.8c-.2 0-.3-.4-.2-.6l-.1-2.2-.1-2.3 4.3.7c.3 0 .4.1.3.4l.3 4.8Zm5.6 12.1c-.1.1-.1.1-.2 0l-3-.6c-1.6-.4-1.6-.4-1.7-2v-3.1l4.6.9.3 4.8Zm12 19.7 4.5 1c.1 0 .3 0 .3.3 0 1.5.2 3 .1 4.4l-4.5-1c-.2 0-.3-.2-.4-.3v-4.4Zm-17.4-26.1-3.2-.6c-1.5-.3-1.5-.3-1.5-1.9a30 30 0 0 1-.1-3.4c1.7.3 3.1.5 4.7 1l.1 4.9Zm11.8 19.4 4.6 1s.2.2.1.4l.1 2.2v2.2l-4.8-1V434Zm-9.4 29 2.7.7c.6.2 1.4.1 1.8.6.3.4.2 1.3.2 1.8l.1 3.2-4.5-1.2-.3-5Zm15-17 4.5 1 .3.3.1 4.4a203 203 0 0 1-4.4-1c-.1-.2-.3-.2-.2-.3-.3-1.4-.3-2.9-.3-4.4ZM873 420.7l3.3.8c1.3.3 1.3.3 1.4 1.7l.1 3.4-4.3-1c-.3 0-.2-.2-.3-.3-.2-1.5-.2-3-.2-4.6Zm-6.6-17.7.3 5-4.3-1c-.2 0-.3-.3-.4-.4v-2.4l-.2-2.1 4.6 1Zm16.9 30.1-4.4-.9c-.2 0-.3-.4-.4-.5v-2.4c-.1-.5-.2-1-.1-1.8l4.3 1c.3 0 .5.2.3.3.3 1.3.2 2.8.3 4.3Zm11.7 19.4 4.7 1.1c0 .2.2.3.3.4l.1 4.4c-1.6-.4-3.1-.7-4.6-1.2l-.3-.4c-.3-1.3-.2-2.8-.2-4.3ZM872.3 420l-4.2-.8c-.2 0-.4-.3-.4-.3l-.2-4.5 4.2.8c.2 0 .4.3.3.4.3 1.4.4 3 .3 4.4Zm-10.2-12.3 4.3.8c.2 0 .3.2.3.4l.2 4.5-4.6-1-.2-4.7Zm27 37.4-.2.1-2.7-.6c-.6-.1-1.4 0-1.7-.4-.3-.4-.1-1.2-.2-1.7v-2.9c1.6.4 3 .6 4.4 1.1.3 0 .4.1.3.4v4Zm-19.5 16.7 3.3.8c1 .3 1 .3 1.2 1.5v3.8l-4-1.1c-.3 0-.5-.3-.4-.4v-4.6Zm13.9-23.1c-1.6-.4-3-.6-4.5-1.1 0-.1-.3-.4-.1-.5l-.2-3v-1.3l4.3 1c.2 0 .4.2.4.5v4.4Zm11.6 19.2 4.8 1.2v4.7l-4.5-1.2-.3-.4v-4.3ZM861.2 402l.3 4.9-4.2-.8c-.2 0-.3-.2-.3-.4-.2-1.5-.2-3-.2-4.5l4.4.8Zm6.6 17.7 4.4 1s.3.1.2.2l.2 4.5-4.4-1c-.2 0-.3-.3-.3-.3l-.1-4.4Zm16.4 25 4.4 1 .4.4v4.4l-4.6-1-.2-4.8Zm10.4 12.3-4.4-1-.2-.3-.1-4.4 4.4 1 .3.4v4.3ZM878 432l-2.5-.6c-.6-.1-1.6-.1-2-.5-.2-.3-.1-1.2 0-1.9-.2-1-.1-1.8-.2-2.7l4.3 1c.2 0 .3 0 .3.3l.1 4.4Zm-21-25.3 4.2.8.3.4c.2 1.5.2 3 .2 4.5l-4.2-.8-.3-.4-.2-4.5Zm5.3 6.5c1.5.2 3 .4 4.3.8l.3.3c.2 1.5.1 3 .2 4.6-1.5-.3-3-.5-4.2-.9-.3 0-.3-.2-.4-.3l-.2-4.5Zm2.3 47.2 4.1 1.2c.1.1.4.1.3.4l.2 4.7c-1.5-.4-2.9-.7-4.3-1.2 0-1.8-.2-3.5-.3-5Zm19.1-16.5-4.3-1a51.2 51.2 0 0 1-.3-4.6l4.3 1 .3.3c-.1 1.3-.2 2.8 0 4.3Zm16.4 25-2.6-.7c-.8-.2-1.7-.3-2-.6-.4-.5-.1-1.4-.1-2.2v-2.2c1.5.3 3 .8 4.4 1 .2 0 .3.2.3.4v4.3Zm-5.5-11.2v4.6c-1.5-.4-3-.8-4.4-1 0-.2-.2-.3-.3-.4l-.1-4.4 4.8 1.2Zm-21.2-26 4.3 1c.3 0 .3.3.2.4v2l.1 2.4-4.3-1c-.3 0-.4 0-.3-.3.1-1.6.2-3 0-4.5Zm-10.8-13c1.4.2 3 .6 4.3 1l.3.3.2 4.5-4.2-.8-.3-.4-.3-4.6Zm-11-18.4c1 .2 2 .3 2.8.6.6.1 1.4 0 1.6.3.3.4.2 1 .1 1.7l.3 3-4.3-.7c-.2 0-.2-.3-.3-.4l-.2-4.5Zm16.4 25 4.5.8.2.2.1 4.5-4.4-1c-.2 0-.3-.4-.4-.5v-4Zm11 18.2 3.3.7c1.3.4 1.3.4 1.3 1.6l.1 3.4-4.4-1c-.1-.2-.3-.2-.3-.5v-4.2Zm5.4 6.5c1.3.2 2.4.6 3.4.8 1.3.3 1.3.3 1.4 1.7 0 1 .1 2.1 0 3.2l-4.5-1c-.2 0-.4-.3-.3-.4V450ZM862.1 418l-4.3-.9c-.2 0-.3-.1-.3-.3-.2-1.5-.1-3-.2-4.5 1.5.2 3 .4 4.3.8.2 0 .2.2.3.3l.2 4.6Zm2.1 47.4-4-1c-.2 0-.3-.2-.3-.4l-.1-4.8 4 1c0 .2.2.3.3.4l.1 4.8Zm-7.5-53.9-4.2-.8c-.3 0-.3-.4-.2-.5l-.2-3v-1.3c1.4.3 2.7.6 4.1.7.2 0 .3.2.3.4l.2 4.5Zm11.6 19.2 4.5 1 .2 4.7a47 47 0 0 1-4.1-1c-.2 0-.4-.2-.4-.4-.2-1.5-.3-2.9-.2-4.3Zm10 12.1-4.2-1c-.2 0-.3-.4-.4-.5V438c-.2-.3-.1-.5 0-1l4.1 1c.3 0 .5.3.3.4l.3 4.3Zm16.4 24.7c-1.6-.4-3-.8-4.5-1 0-.2-.3-.2-.3-.5v-4.1c1.5.3 2.9.8 4.4 1 0 .2.2.3.3.4v4.2Zm-32.4-44-4.3-.8c-.2 0-.3-.4-.4-.5a980.9 980.9 0 0 1-.2-4.3l4.3.8c.2 0 .4.3.3.4.2 1.2.2 2.8.3 4.4Zm22.3 31.8 4.4 1c.2.1.3.2.3.5.1 1.3 0 2.8.2 4.1l-4.5-1-.2-.3c-.2-1.5-.3-2.8-.2-4.3Zm-17-25.4c-1.4-.2-2.7-.5-4-.9-.3 0-.4-.3-.5-.5v-2.3c-.1-.6 0-1.3-.2-2l4.6 1 .1 4.7ZM857 417l-4.1-1c-.2 0-.3-.1-.3-.3-.2-1.5-.1-3-.2-4.6l4.2.9c.3 0 .2.2.3.3l.1 4.7Zm21.6 31-4.2-1.1c-.2 0-.4-.3-.3-.4-.1-1.3 0-2.8-.3-4.3l4.4 1c.2 0 .3.1.3.3l.1 4.4Zm.7.8 4.4 1s.3 0 .3.3v4.4l-4.3-1-.3-.3v-4.4ZM859.5 464l-4-1-.2-.3c0-1.6-.3-3-.3-4.9l4 1c0 .2.3.2.3.4 0 1.6 0 3 .2 4.8Zm13.6-22.6-4-1c-.3 0-.5-.2-.4-.3 0-1.4 0-2.8-.2-4.3l4.3 1 .3.3v4.3Zm-5.2-6.3-4.4-1-.3-.3-.2-4.3 4.2.8c.1.1.4.1.4.3l.3 4.5Zm21.6 31a51 51 0 0 1-4.4-1.2c0-.2-.3-.2-.3-.4v-4.2l4.4 1c0 .2.2.3.3.4v4.3Zm-37-49.5 4.3.8c.2 0 .3.2.3.4l.2 4.5c-1.5-.2-2.8-.6-4.2-1 0 0-.3 0-.3-.3-.1-1.5-.1-3-.3-4.4Zm26.8 37.3 4.5 1c.1.2.3.4.2.5v2.4c.1.5.2 1.1.1 1.8l-4.2-1c-.2 0-.3-.2-.3-.4l-.3-4.3Zm-16.8-25.3c-1.4-.2-2.8-.6-4.1-1-.2 0-.3 0-.3-.3 0-1.3-.3-2.8-.2-4.3l4.2.9c.2 0 .2.2.3.3l.1 4.4Zm6.2 12.5h.3l2.5.6c1.8.4 1.8.4 1.8 2.2 0 1 0 1.8.2 3l-4.1-1c-.3 0-.5-.3-.3-.4-.3-1.6-.3-3-.4-4.4Zm5.3 6.3 4.2 1c.2.1.3.2.3.4.1 1.4 0 2.9.2 4.3l-4.2-1-.3-.4-.2-4.3Zm-15.9-19c1.5.2 2.8.5 4.1.9.3 0 .5.2.3.3l.3 4.3c-1.5-.2-2.8-.5-4.2-.9-.2 0-.2-.2-.3-.4-.2-1.4-.1-2.9-.2-4.3Zm5.3 6.3c1.4.2 2.8.5 4 .9.3 0 .5.3.4.4 0 1.3 0 2.8.2 4.3l-4.2-1-.3-.5-.1-4.1Zm20.7 30-4.2-1c0-.2-.3-.2-.3-.5 0-1.3-.2-2.7-.1-4.1l4.3 1.1.3.4v4ZM852.7 422c1.5.2 2.8.6 4.2 1 .2 0 .3 0 .3.3l.2 4.3c-1.5-.2-2.8-.6-4.1-1l-.3-.3c0-1.5 0-2.8-.3-4.3Zm26.2 36.4c-.9-.3-1.8-.3-2.6-.5-.5-.2-1.6-.2-1.9-.5-.4-.5-.2-1.3-.2-2l-.1-2.5c1.6.4 2.9.8 4.2 1 .2.1.3.2.3.5l.3 4Zm-10.5-12.8-4.2-1-.2-.3c-.1-1.4 0-2.8-.3-4.3 1.5.2 2.8.6 4.1 1 .3 0 .4 0 .3.3.1 1.3 0 2.8.3 4.3Zm-10-12 4.2 1c.2 0 .3.1.3.3l.2 4.3c-1.4-.2-2.8-.5-4.2-1l-.3-.4c0-1.3-.2-2.7-.1-4.1Zm15.2 18.3-4.2-1c0-.2-.2-.3-.3-.4l-.2-4.3 4.2 1 .3.4.2 4.3Zm-20.2-20c0-1.6-.2-3.1-.3-4.7l4.1 1c.1 0 .4 0 .3.3.1 1.4.3 2.8.3 4.3-1.5-.2-2.8-.6-4.4-1Zm20.4 25.2-4.2-1c-.1-.2-.4-.2-.4-.4v-4.2l4.1 1 .2.3c.2 1.5.3 2.8.3 4.3Zm.6.7 2.9.7c1.6.5 1.6.5 1.7 2 0 .9 0 1.9.2 2.8-1.5-.5-3-.7-4.3-1-.2 0-.3-.2-.3-.4-.2-1.3-.2-2.5-.2-4Zm-15.8-19 4.1 1c.1.1.3.1.3.3l.3 4.3a47 47 0 0 1-4.2-.9l-.3-.3c0-1.5 0-2.9-.2-4.3Zm5.3 6.4c1.4.2 2.7.6 4 .9.3 0 .4.4.5.5l.1 3.2v1l-4-1c-.2 0-.4-.3-.4-.5 0-1.4 0-2.6-.2-4.1Zm-.4 4.3-2.9-.7c-1.3-.3-1.3-.3-1.5-1.8l-.1-3 4 1c.3 0 .5.3.4.4 0 1.3.2 2.7.1 4.1Zm5.3 6.4-4.2-1c-.1-.2-.4-.2-.4-.5l-.2-4.3 4.1 1c.3 0 .5.2.3.3.3 1.6.3 3.1.4 4.5Zm5.2 6.3-2.9-.7c-1.6-.5-1.6-.5-1.7-2l-.1-2.8 4.2 1c.2 0 .3.2.3.4 0 1.4 0 2.6.2 4Zm-10.2-7.6-4-1c-.2 0-.3-.1-.3-.4l-.3-4.3 4.2 1 .3.3v4.4Zm5.2 6.3-4-1.1-.4-.4-.2-4 4.2 1 .3.4.1 4.2Zm-10-7.5-3-.8c-1.3-.3-1.3-.3-1.4-1.7l-.3-3 4 .8c.2 0 .4.3.3.5l.4 4.2Zm5 6.3-4-1-.3-.4-.2-4 4 1 .3.3c.2 1.3.2 2.5.2 4.1Zm-9.4-6.8 4 1c.1.2.3.2.3.4 0 1.4.2 2.7.3 4l-4-1c-.1 0-.4 0-.3-.3l-.3-4Zm-4.3 9.9-.5-7-4-56c0-.5-.1-.7-.6-.8l-44.4-7.8c-1-.3-2.1-.4-3.1-.6l.1 1 6.3 58c0 .4.2.7.7.8l45.3 12.3h.2ZM806.9 436l-3.2-.7c-.4 0-.6-.3-.7-.9l-.7-7.6-.1-.6a31.3 31.3 0 0 1 3.8 1l.4 4c-1.2-.2-2.3-.5-3.5-.6 0 .4.1.5.4.7 1 0 1.8.4 2.7.7.2 0 .4.3.4.3.2 1.2.2 2.5.5 3.7Zm37.8 24.5-.3-5c1 .1 1.9.5 2.8.5.5.2 1.3.2 1.6.5.3.4.2 1.2.2 1.7l.2 3.2c-1.6-.1-3-.6-4.5-.9Zm.5-55.5.4 4.6-4.4-.8c0-.1-.3-.1-.3-.3-.2-1.5-.1-3-.4-4.5l4.7 1Zm0-.7c-1.4-.3-2.7-.4-4-.8-.3 0-.5-.2-.3-.3l-.3-4.3 4.2.6.3.4.2 4.4Zm1 10.6-4.4-.7c-.1-.2-.4-.2-.2-.3l-.3-4.3c1.5.4 3.1.6 4.6.8 0 1.5 0 3 .2 4.5Zm-4.4 4.5-.2-4.5 4.3.8.2.2.4 4.5c-1.6-.5-3-.8-4.7-1Zm-2.2 34.8 4 1c.2 0 .4.2.2.3l.4 4.6-4-1c0-.2-.2-.3-.3-.4l-.3-4.5ZM842 420c1.5.3 2.9.5 4.2.9.3 0 .4.1.3.4l.3 4.3-4.2-1c-.2 0-.3 0-.3-.3-.1-1.3 0-2.8-.3-4.3Zm5.4 10.7-4.4-1c-.2 0-.3-.4-.3-.4l-.3-3v-1c1.5.2 3 .4 4.3.8.2 0 .3.1.3.4 0 1.3.2 2.7.4 4.2ZM835.5 398c1.5.3 2.8.4 4.2.8 0 .1.3.1.2.2l.4 4.4c-1.5-.2-2.8-.3-4-.6-.3 0-.4-.3-.4-.3a50 50 0 0 1-.4-4.5Zm7.4 36.8-.3-4.5c1.6.4 3 .5 4.4 1 .2 0 .3.4.3.6l.2 2.7v1.3l-4.6-1Zm-8 18.2 4 1 .3.3c0 1.6.3 3.1.3 4.7l-4.2-1.1c0-1.6-.4-3.2-.3-4.9Zm5.7-44.2-4-.7c-.3 0-.4-.1-.4-.3 0-1.4-.3-2.9-.2-4.3 1.4.2 2.6.5 4 .6.2 0 .4.3.3.4l.3 4.3Zm2.4 26.6 4.3 1c.1.1.3.1.3.4l.2 4.1-4.6-1-.2-4.5Zm-2-21.4-4.1-.8c-.3 0-.4-.1-.3-.4l-.3-4.2 4.1.7c.2 0 .3.1.3.4 0 1.4 0 2.8.3 4.3Zm2.3 26.5 4.5 1c.3 1.5.2 3 .4 4.4a182 182 0 0 1-4.2-1c-.2 0-.3-.2-.3-.4l-.4-4Zm-12.7-43.2 4.4.8c0 1.6.3 3 .3 4.6-1.4-.2-2.6-.5-4-.6a50.4 50.4 0 0 1-.7-4.8Zm4.2 60.4-3.8-1c0-.2-.3-.2-.3-.4-.2-1.5-.3-3-.3-4.6l3.8.9c.1.1.4.1.3.4 0 1.7.2 3.1.3 4.7Zm-3.7-55.2 4.3.8c0 1.6.3 3 .4 4.6l-4-.7a23.6 23.6 0 0 1-.8-4.7Zm12.6 43 4.4 1s.3.1.3.3c0 1.4.2 2.8.3 4.1l-4.2-1c-.1-.2-.4-.2-.3-.5-.4-1.1-.5-2.5-.5-4Zm-2.4-26.2c-1.5-.3-2.7-.5-4-.9-.2 0-.3-.1-.3-.3l-.3-4.3 4.3.7.3 4.8Zm2.8 31.3 2.6.7c.6.1 1.4.1 1.8.6.3.4.2 1.3.3 1.8v2.4l-4.1-1.1c-.1-.1-.4-.1-.3-.4l-.3-4ZM836 413l-4.4-.8-.2-4.5 3.9.8c.2 0 .3.1.3.3.2 1.3.4 2.8.4 4.2Zm-9.8-12c0-1.5-.3-3-.4-4.6l4.3.6c0 1.6.3 3.1.3 4.7l-4.2-.7Zm15.5 23.4c-1-.2-2.1-.3-3.2-.7-1.2-.2-1.2-.2-1.2-1.4l-.3-3.3 4.4.7c0 1.6.2 3.1.3 4.7Zm-15.9 26.1 3.7 1s.3.1.3.3c.2 1.5.2 3 .3 4.7l-3.7-1c-.1-.2-.4-.2-.2-.3l-.4-4.7Zm16.2-21-2.4-.5c-.6-.2-1.4-.1-1.7-.5-.3-.4-.2-1.3-.3-1.8v-2.6l4 .8c.2 0 .3.2.3.4l.1 4.2Zm-5.9-15.8.3 4.5a279 279 0 0 1-4-.7l-.3-.3-.4-4.2c1.6.1 3 .5 4.4.7Zm-9.8-12.1c.8 0 1.6.3 2.5.4.6.1 1.3 0 1.6.4.3.3.2 1 .3 1.6l.2 2.9-4-.7c0-.2-.3-.2-.2-.4a34 34 0 0 1-.4-4.2Zm4.6 6c0 1.7.2 3 .3 4.6l-4.2-.7c0-1.6-.1-3-.3-4.5 1.4 0 2.8.4 4.2.7Zm6.8 21.7 3 .6c1.5.3 1.5.3 1.6 1.8l.2 3c-1.4-.4-2.7-.5-4-.9-.3 0-.5-.2-.3-.3-.3-1.5-.4-2.9-.5-4.2Zm-.9-5.9-3.9-.7c-.2 0-.3-.1-.3-.4l-.4-4.1 3.9.7c.2 0 .4.2.3.3l.4 4.2ZM825.6 401c-1.4-.3-2.8-.4-4-.8l-.5-4.4 4 .7.2.4.3 4Zm1.5 11.1 3.9.7c.2 0 .3.4.4.5.2.7.1 1.4.1 2.2l.2 2a33 33 0 0 1-3.8-1c-.2 0-.4-.2-.4-.4l-.4-4Zm-5.7 37.4 3.6 1c.2 0 .2.2.3.3l.4 4.4-3.6-.9c-.1-.1-.4-.1-.3-.4a50 50 0 0 1-.4-4.4Zm21.3-9.7-4-.9c-.1-.1-.3-.1-.3-.4l-.3-4 4 .8c0 .1.3.2.3.4.2 1.2.3 2.6.3 4Zm-5.4-11.3a45 45 0 0 1-4-.8c-.3 0-.4-.2-.4-.4 0-1.3-.2-2.7-.4-4.2 1.5.3 2.7.5 4 .9l.4.3c0 1.4.2 2.8.4 4.2Zm-15.4-23c0-1.7-.1-3-.3-4.5 1.4.3 2.8.4 4 .8.2 1.5.4 3 .4 4.6-1.4-.5-2.7-.6-4-1Zm21.2 39.2a56 56 0 0 0-3.9-1c-.2 0-.3-.3-.4-.4l-.2-3.3v-.4l3.9 1c.2 0 .4.2.3.3l.3 3.8Zm-5.5-11-2-.5c-.8-.2-1.6-.2-2.1-.6-.4-.4-.4-1.3-.3-2l-.1-2.2c1.3.4 2.6.5 3.7.9.3 0 .5.2.4.3l.4 4Zm-5.6-11.2c-1.3-.4-2.6-.5-3.9-.7-.2 0-.3-.4-.3-.4V419c-.2-.5-.1-1-.2-1.5a33.2 33.2 0 0 1 4.2 1c0 1 0 2.5.2 4Zm-5.5-11.1-3.7-.7c-.3-.2-.4-.3-.5-.6l-.2-3v-1c1.4.3 2.8.4 4.1.8l.3 4.5Zm12.7 37.3-.2-4.3 3.8 1c.3 0 .4.1.3.4l.3 4c-1.4-.5-2.8-.7-4.2-1ZM821 400.3l-3-.6c-1-.2-1-.2-1.3-1.2l-.4-3.4c1.4.1 2.6.3 3.8.6.2 0 .4.2.3.3.5 1.3.6 2.7.6 4.3Zm17 38.4-3.9-1s-.3 0-.3-.3c0-1.4-.2-2.7-.4-4.2 1.3.3 2.7.5 3.9 1 .2 0 .3 0 .3.3.3 1.4.3 2.6.4 4.2Zm-5.4-11.2-2.2-.5c-.6-.1-1.5 0-2-.5-.2-.4-.2-1.2-.2-1.8 0-.8 0-1.6-.2-2.5 1.3.4 2.5.6 3.7.8.3 0 .5.3.4.4.3 1.4.4 2.7.5 4Zm-15.6 20.9 3.7 1s.3 0 .3.3c.2 1.5.2 3 .5 4.5-1.3-.3-2.4-.7-3.7-.9l-.3-.4c-.3-1.6-.4-3-.5-4.5Zm4.1-47.6c0 1.6.2 3 .4 4.5l-4.1-.8-.4-4.4c1.4.2 2.8.6 4.1.7Zm1.8 14.8-.4-4.4 3 .5c1.1.3 1.1.3 1.3 1.4l.2 3.3c-1.4-.3-2.8-.4-4-.8Zm21 39-4-1c0-.1-.3-.1-.3-.4l-.3-4 4 1c0 .2.2.3.3.4 0 1.4.2 2.7.3 4Zm-5.6-11-3.8-1c-.3 0-.4-.1-.3-.3l-.3-4.1 3.8 1 .3.3.3 4Zm-5.4-11-3.2-.7c-1-.2-1-.2-1-1.2l-.3-3.3c1.3.4 2.5.6 3.8.8.2 0 .3.2.3.4l.4 4Zm-10-16.3 3.8.7c.1.1.4.2.4.4 0 1.3.2 2.7.4 4.2-1.4-.4-2.7-.5-3.8-.8-.2 0-.2-.3-.3-.4l-.6-4.1Zm-5.5-11 3.7.7c.2 0 .3.1.3.4 0 1.3.2 2.7.4 4.2l-3.7-.7c0-.2-.3-.2-.3-.4l-.4-4.2Zm-5.3-10.9 3.8.6c.2 0 .3.4.4.5v2.4l.3 1.7a42 42 0 0 0-3.6-.6c-.2 0-.4-.3-.3-.4-.4-1.5-.5-2.8-.6-4.2Zm16.6 37.9 3.8.8c.2 0 .3.1.3.4l.3 4-3.9-1-.3-.3c0-1.2 0-2.6-.2-4Zm-5.4-11 3.8.8c.2 0 .3.1.3.4l.3 4-3.8-.8-.3-.4a30 30 0 0 0-.3-4Zm11 21.9 3.9 1s.3 0 .3.3l.3 4-3.9-.9c-.2 0-.3-.1-.3-.4-.1-1.3-.3-2.6-.3-4ZM816.4 400l.4 4.5-4-.7-.4-4.4 4 .6Zm1.4 10.4c1 0 1.7.3 2.5.5 1.7.3 1.7.3 1.8 1.8 0 1 .1 2 .3 2.9-1.4-.4-2.5-.5-3.7-.7-.2 0-.3-.2-.3-.4-.4-1.4-.5-2.7-.6-4.1Zm16.7 37.6 4 1a75060.4 75060.4 0 0 1 .6 4.4 56 56 0 0 0-4-1l-.2-.2-.4-4.2Zm-17.7 5-2.4-.7c-1.3-.4-1.3-.4-1.4-1.7l-.3-3.3 3.7 1 .3.3c-.1 1.3 0 2.9.1 4.4Zm12.3-15.7 3.9 1s.3 0 .3.3l.3 4-4-.9-.2-.4-.3-4Zm-5.5-11 3 .6c1.3.2 1 0 1 1.2l.3 3.3-3.8-.8c-.2 0-.4-.3-.3-.4 0-1.2 0-2.5-.2-4Zm-6.3-16.9-.2.1-2.3-.3c-1.5-.3-1.5-.3-1.7-1.7l-.2-3 3.6.6c.2 0 .4.1.5.3l.3 4Zm1.4 10.4a50 50 0 0 1-.4-4.4l3.8.8c.2 0 .3.4.3.4 0 .8 0 1.6.2 2.3l.1 1.5-4-.6Zm-7-21.1c-1.1-.3-2.4-.5-3.5-.6-.2 0-.3-.2-.3-.4 0-1.3-.2-2.7-.4-4.2l4 .6.3 4.6Zm22.3 48.7-4-1-.4-4.3 4 1c0 .1.3.1.2.4 0 1.2 0 2.4.2 4Zm-15.3-27 3.7.7c.2 0 .4.3.4.5l.2 2.5.1 1.5-3.7-.7c-.2 0-.3-.1-.3-.3l-.4-4.2Zm5.4 10.8 3.9 1 .2.2c0 1.4.2 2.8.3 4.1l-3.8-.8c-.1-.1-.3-.2-.3-.4l-.3-4Zm-11.8-27.4-2.6-.5c-1.3-.3-1.3-.3-1.5-1.5l-.3-3 3.6.5c.2 0 .3.2.3.4l.5 4Zm1 5.7 2.2.3c.7.1 1.5 0 1.8.4.3.4.2 1.3.3 1.9 0 .7 0 1.5.2 2.5l-3.7-.8c-.2 0-.4-.2-.4-.4-.1-1.2-.3-2.4-.3-3.9Zm11.6 31c0-1.4-.3-3-.4-4.3l3.8.9c.1 0 .3.1.3.3.1 1.4.3 2.6.3 4.1-1.4-.5-2.6-.7-4-1Zm9.5 11.8-4.1-1-.4-4.2 3.6 1c.2 0 .5.2.4.4.3 1 .4 2.4.5 3.8Zm-26.1-6.1c1.2.2 2.3.5 3.4.9.1.1.4.1.3.3l.4 4.5-3.5-1-.3-.4c0-1.5-.1-2.9-.3-4.3Zm0-42.5 3.8.7.2.3c0 1.3.2 2.7.4 4.2l-3.7-.7c-.1-.2-.3-.2-.3-.4l-.3-4Zm10.9 21.7 3.7.7.4.2c0 1.4.2 2.8.3 4.1l-3.8-.8c-.2 0-.2-.3-.3-.4l-.3-3.8Zm-1-5.8-3.8-.7s-.3-.1-.3-.3l-.3-4.1 3.7.7c.2 0 .4.3.3.4l.3 4ZM807.2 398l-3.9-.7a50 50 0 0 1-.4-4.5l3.8.7c.3 1.6.4 3 .5 4.5Zm22 48.3c-1-.4-2-.6-3-.8-1.1-.3-1 0-1.1-1.3l-.3-3.3 3.6 1c.3 0 .5.2.5.4l.4 4Zm-9.8-16 2.3.4c.5.1 1.3.1 1.6.5.3.3.1 1.1.2 1.7 0 .8 0 1.6.2 2.5-1.3-.4-2.4-.5-3.5-.8-.3 0-.5-.3-.5-.5l-.3-3.9Zm-6.3-16.5-3.6-.8c-.3 0-.4-.1-.4-.3 0-1.4-.3-2.6-.4-4l3.7.7c.2 0 .2.3.3.4l.4 4Zm-9.6-15.8 3.6.5c.2 0 .3.2.4.3 0 1.4.3 2.8.4 4.2l-4-.7-.4-4.3Zm15 26.6c-1.3-.2-2.5-.4-3.8-.8-.1-.1-.3-.1-.3-.4-.1-1.3-.3-2.6-.3-4l3.7.7c.2 0 .3.1.3.3l.4 4.2Zm6.7 21.3 4 1 .2.3c.1 1.3.3 2.6.3 4l-4-1c-.3-1.6-.4-3-.5-4.3Zm-1-5.6-3.6-1-.3-.3c0-1.4-.2-2.5-.4-4 1.3.4 2.5.6 3.8.8l.3.4.3 4ZM804 402.9l3.5.7c.2 0 .3.2.4.3l.3 4-3.6-.5c-.2 0-.3-.2-.3-.4l-.3-4Zm15 26.6a35.5 35.5 0 0 1-4-1l-.5-4 3.7.6c.2 0 .3.2.3.4.3 1.4.4 2.5.4 4Zm-5.3-10.8-3.7-.7c-.1 0-.3-.1-.3-.3l-.4-4 3.6.7c.3 0 .4.1.3.4.3 1.2.4 2.6.5 4Zm-15-26.5 3.6.5.4.2c0 1.4.2 2.7.4 4.2l-3.6-.6c-.2 0-.3-.1-.3-.3l-.4-4Zm26 53-3.6-1c-.1-.1-.4-.1-.3-.4l-.5-4 3.7 1c.2 0 .3.4.4.5.2 1.2.2 2.5.3 3.8Zm-5.2-10.8c-.8-.2-1.3-.4-2-.4-.6-.2-1.6-.2-1.9-.6-.3-.3-.2-1.2-.3-1.8l-.2-2.3 3.5.8c.3 0 .5.3.4.5l.5 3.8Zm-11.3 16.1c-1-.3-2.3-.5-3.4-.9l-.3-.3-.5-4.4 3.4 1c.2 0 .4.2.4.4l.4 4.2Zm6-26.8c-1.3-.2-2.5-.4-3.6-.8l-.3-.3-.5-4 3.6.8c.2 0 .3.1.3.4l.4 4Zm-10.7-21.4c-.7 0-1.2-.2-1.9-.3-.7 0-1.5 0-1.8-.4-.3-.3-.2-1.2-.2-1.8 0-.8-.1-1.6-.3-2.3l3.4.6c.2 0 .4.3.4.5l.4 3.7Zm1 5.5 2.8.5c1 .1 1 .1 1.2 1.3l.3 3.3a194 194 0 0 1-3.5-.7c-.2 0-.4-.3-.3-.4a40 40 0 0 1-.4-4Zm16.4 37c1.3.3 2.6.5 3.7.9.2 0 .3.1.3.3l.3 3.9-3.7-1-.3-.3-.3-3.9Zm-1-5.6-3.7-.9c-.1-.1-.4-.1-.2-.2l-.5-4 3.6.8c.2 0 .3.1.3.4l.4 4Zm-10.7-21.4-2.9-.5c-.7 0-1-.4-1-1.2l-.3-3.3 3.5.7c.2 0 .3.1.3.4l.4 4Zm5.4 10.7-3.6-.8c0-.1-.3-.2-.3-.4l-.4-4 3.6.8c0 .2.2.3.3.4l.4 4Zm-15-26.3c1.3.2 2.4.3 3.5.6.2 0 .4.2.5.3 0 1.4.3 2.6.4 4l-3.5-.7c-.2 0-.2-.2-.3-.4-.2-1.2-.2-2.5-.5-3.8Zm11.1 26.1 3.6.8c.2 0 .4.3.4.5l.2 2.5c0 .5.2 1 .1 1.4l-3.5-.8c-.3 0-.5-.3-.4-.5l-.4-3.9Zm-1-5.6c-1.1-.2-2.4-.4-3.5-.8 0-.1-.3-.1-.2-.2 0-1.4-.3-2.6-.4-4l3.7.7.2.3c0 1.3 0 2.5.3 4Zm10.6 21.3-3.7-1s-.3 0-.3-.3c-.2-1.2-.2-2.5-.3-3.8l3.7.9c.2 0 .3.4.4.5 0 1.2 0 2.3.2 3.7Zm-20-37 3.8.8.5 4.3c-1.3-.4-2.5-.6-3.7-.8-.4-1.4-.5-2.8-.7-4.2Zm20.5 41.8-3.7-1c-.2 0-.3-.1-.3-.3l-.4-4 3.6 1c.1 0 .3 0 .3.3l.5 4Zm-5.4-10.7-3.6-.8c0-.1-.3-.1-.3-.4 0-1.3-.3-2.6-.4-4l3.6.9c.2 0 .4.2.3.3.3 1.4.3 2.7.4 4Zm-9.5-15.5 3.5.7c.2 0 .4.2.4.4l.3 3.3c0 .2 0 .4.2.5l-3.6-.8c-.2 0-.4-.3-.3-.4-.2-1.2-.2-2.5-.5-3.7Zm-1-5.6-3.4-.7c0-.1-.3-.2-.2-.3 0-1.3-.3-2.6-.4-4l3.5.7c.2 0 .4.3.4.5-.1 1.2 0 2.4.2 3.8Zm11 25.9-2.6-.6c-1.3-.4-1.3-.4-1.5-1.8-.2-1-.2-1.7-.2-2.8l3.5.8c.2 0 .4.2.3.4.4 1.4.4 2.6.5 4Zm-9-11.4-.5-4.2 3.6.8c0 .2.2.3.3.4 0 1.4.2 2.5.4 4a28 28 0 0 0-3.9-1Zm-5.7-14.7 3.4.7c.2 0 .3.1.4.3l.5 4-3.8-.9-.5-4.1Zm9.9 20.3-2.6-.6c-1.3-.3-1.3-.3-1.3-1.6-.2-.9-.2-1.9-.3-2.8l3.5.8c.3 0 .5.3.3.4.3 1.2.3 2.5.4 3.8Zm1 5.5 3.7 1 .3.3.3 3.9-3.6-1-.3-.3c-.1-1.4-.4-2.6-.4-3.9Zm-6.2-16.1c-1.3-.4-2.5-.6-3.8-.8 0-1.4-.2-2.8-.4-4.2l3.5.7c.2 0 .3.1.3.3l.4 4Zm1.4 10.4 3.6.8c.1 0 .3.1.3.3l.3 3.9-3.5-.8-.3-.4c-.1-1.3-.1-2.6-.4-3.8Zm4.7 9.5-2.3-.5c-1.3-.4-1.3-.4-1.5-1.9 0-.8-.2-1.7-.4-2.6 1.3.2 2.4.6 3.5 1 .2 0 .3.3.3.3l.4 3.7Zm-8.9-10.6c1.3.2 2.4.5 3.5.9l.3.3.3 3.9c-1.2-.2-2.3-.6-3.4-1l-.3-.3c0-1.2-.3-2.5-.4-3.8Zm4.6 9.6-3.3-.8c-.3 0-.5-.2-.5-.2l-.4-3.8 3.3.8c.2 0 .3.2.3.4.4 1.1.5 2.3.6 3.6Zm-1.1-52.8c-1.6.1-8.2-1.1-8.5-1.5l8.5 1.5Z"/></g><defs><clipPath id="a"><path fill="#fff" d="M0 403h910v702H0z"/></clipPath><clipPath id="c"><path fill="#fff" d="M908.3 253H633l1.5 267.6h275.3z"/></clipPath><clipPath id="d"><path fill="#fff" d="m655.5 291 229.7-24.8L910 495.8l-229.7 24.8z"/></clipPath><linearGradient id="b" x1="809.5" x2="202.4" y1="403.3" y2="753.8" gradientUnits="userSpaceOnUse"><stop stop-color="#5C5F63"/><stop offset="1" stop-color="#5C5F63" stop-opacity="0"/></linearGradient></defs></svg>