<svg width="1919" height="842" viewBox="0 0 1919 842" fill="none" xmlns="http://www.w3.org/2000/svg">
<path d="M1940.26 1.00024L1842.62 45.2629C1746.45 88.865 1551.17 177.39 1329.6 204.024C1108.03 230.658 857.242 196.722 631.704 214.609C407.291 232.406 204.992 302.819 104.327 337.857L102.821 338.381L1.22043 373.896" stroke="#313D49" stroke-width="2" stroke-linecap="round" stroke-linejoin="round" stroke-dasharray="9 9"/>
<circle cx="27.0368" cy="27.0368" r="27.0368" transform="matrix(0.736451 -0.676491 -0.676491 -0.736451 219.235 336.058)" fill="#5C5F63"/>
<circle cx="52.2712" cy="52.2712" r="52.2712" transform="matrix(0.736451 -0.676491 -0.676491 -0.736451 217.722 371.712)" fill="#5C5F63" fill-opacity="0.2"/>
<circle cx="39.7885" cy="39.7885" r="39.7885" transform="matrix(0.736451 -0.676491 -0.676491 -0.736451 218.471 354.076)" fill="#5C5F63" fill-opacity="0.4"/>
<g clip-path="url(#clip0_2066_11525)">
<mask id="mask0_2066_11525" style="mask-type:alpha" maskUnits="userSpaceOnUse" x="-236" y="-155" width="906" height="905">
<g opacity="0.3">
<circle cx="216.875" cy="297.205" r="233.829" transform="rotate(-120.026 216.875 297.205)" fill="#2F8FFC"/>
<circle cx="216.871" cy="297.199" r="452.07" transform="rotate(-120.026 216.871 297.199)" fill="#2F8FFC" fill-opacity="0.2"/>
<circle cx="216.871" cy="297.204" r="344.113" transform="rotate(-120.026 216.871 297.204)" fill="#2F8FFC" fill-opacity="0.4"/>
</g>
</mask>
<g mask="url(#mask0_2066_11525)">
<path d="M218.023 297.359L218.245 779.762L475.57 742.969L635.907 538.368L218.023 297.359Z" fill="#5C5F63"/>
</g>
</g>
<defs>
<clipPath id="clip0_2066_11525">
<rect width="476.576" height="494.235" fill="white" transform="matrix(-0.866025 0.5 0.5 0.866025 426.293 174.928)"/>
</clipPath>
</defs>
</svg>
