<svg width="1920" height="959" viewBox="0 0 1920 959" fill="none" xmlns="http://www.w3.org/2000/svg">
<path d="M-9 113L88.6334 165.109C184.81 216.441 380.076 320.659 601.644 352.014C823.212 383.37 1074 343.418 1299.53 364.475C1523.94 385.428 1726.23 468.323 1826.9 509.572L1828.4 510.189L1930 552" stroke="#313D49" stroke-width="2" stroke-linecap="round" stroke-linejoin="round" stroke-dasharray="9 9"/>
<path opacity="0.2" d="M471.415 319.417L1209.08 319.417L840.246 958.251L471.415 319.417Z" fill="url(#paint0_linear_2331_11227)"/>
<circle cx="27.0368" cy="27.0368" r="27.0368" transform="matrix(0.736451 -0.676491 -0.676491 -0.736451 468.235 360.057)" fill="#5C5F63"/>
<circle cx="52.2712" cy="52.2712" r="52.2712" transform="matrix(0.736451 -0.676491 -0.676491 -0.736451 466.722 395.712)" fill="#5C5F63" fill-opacity="0.2"/>
<circle cx="39.7885" cy="39.7885" r="39.7885" transform="matrix(0.736451 -0.676491 -0.676491 -0.736451 467.471 378.076)" fill="#5C5F63" fill-opacity="0.4"/>
<defs>
<linearGradient id="paint0_linear_2331_11227" x1="471.415" y1="319.417" x2="1024.66" y2="638.834" gradientUnits="userSpaceOnUse">
<stop stop-color="#5C5F63"/>
<stop offset="1" stop-color="#5C5F63" stop-opacity="0"/>
</linearGradient>
</defs>
</svg>
