<svg xmlns="http://www.w3.org/2000/svg" width="832" height="726" fill="none"><g fill="#5C5F63" opacity=".2"><circle r="64" transform="scale(1 -1) rotate(42.6 474.2 551.4)"/><circle r="123.7" fill-opacity=".2" transform="scale(1 -1) rotate(42.6 474.2 551.4)"/><circle r="94.2" fill-opacity=".4" transform="scale(1 -1) rotate(42.6 474.2 551.4)"/></g><path fill="#394149" d="M528.6 222.7 772 353.2l57.3-67.6L566 184.4l-37.5 38.3Z"/><path fill="#5C5F63" fill-rule="evenodd" d="M829.7 285.5 566 184l-38 38.7 244 130.7 57.6-68Zm-.9.2L772 352.8l-243-130.2 37.3-37.9 262.6 101ZM574.3 284l-5.2 5.7 17.8 27.7 4.5-4.9-17.1-28.4Zm16.6 28.4-4 4.3-17.3-27 4.6-5 16.7 27.7Z" clip-rule="evenodd"/><path fill="#394149" d="m574.3 284.4-237.6-135-2.8 3.1 235.4 137.3 5-5.4Z"/><path fill="#5C5F63" fill-rule="evenodd" d="M575 284.3 336.7 148.8l-3.5 3.8 236.3 137.8 5.7-6.1Zm-1.6.2-4.2 4.6-234.5-136.7 2.1-2.3 236.6 134.4Z" clip-rule="evenodd"/><path fill="#252E36" d="M587 317 351.9 174.6l-18-22 235.4 137.3L587 317Z"/><path fill="#5C5F63" fill-rule="evenodd" d="m569.7 289.4-238-138.8 19.8 24.3 237.1 143.8-18.9-29.3Zm-.7.7 16.3 25.3-233-141.3-16.2-19.7L569 290.1Z" clip-rule="evenodd"/><path fill="#252E36" d="m529.7 161.3-17.5-31.8-75.8 76.6 31.7 18 61.6-62.8Z"/><path fill="#5C5F63" fill-rule="evenodd" d="m512.3 128.7-76.7 77.5 32.6 18.5 62.1-63.4-18-32.6Zm16.7 32.5-61 62.2-30.7-17.4 74.8-75.6 17 30.8Z" clip-rule="evenodd"/><path fill="#252E36" d="m512.2 129.5-26-8-74.4 70.7 24.6 14 75.8-76.7Z"/><path fill="#5C5F63" fill-rule="evenodd" d="m513.1 129.3-27-8.5-75.1 71.5 25.5 14.5 76.6-77.5Zm-1.9.5-74.9 75.7-23.6-13.4 73.7-70 24.8 7.7Z" clip-rule="evenodd"/><path fill="#394149" d="m525.2 162.5-14-24.5-14.7 14.4 2.1 2.6-5.6 5.5 11.8 17.6 4.8-4.6 2 2.5 13.6-13.5Z"/><path fill="#5C5F63" fill-rule="evenodd" d="M511.3 137.6 496 152.4l2.2 2.5-5.7 5.5 12.1 18.1 4.9-4.6 2 2.4 13.9-13.8-14.2-25Zm13.6 24.8-13.3 13.2-2-2.5-4.8 4.6-11.5-17.2 5.7-5.5-2.2-2.6 14.3-14 13.8 24Z" clip-rule="evenodd"/><path fill="#394149" d="m445.7 196.6 5 4.2 15-15.1-3.5-3.6 1.9-2 3.6 3.4 17.8-18-3.5-3.3 2.4-2.6 6 5.5 14.1 21.9-36.6 37.2-11-6.2-7.8-11-1.9-3.4-4.6-4 3.1-3Zm55.5-9.3-11.8-17.7-17.8 18 12.5 17 17-17.3Zm-37 34.2 1 .4 15.7-15.2-11.9-16.6-16.2 16.4 11.3 15Z"/><path fill="#5C5F63" fill-rule="evenodd" d="m490.6 165-6.2-5.7-2.8 3 3.6 3.2-17.5 17.7-3.7-3.4-2.1 2.3 3.5 3.6-14.8 14.8-4.9-4.2-3.5 3.4 4.8 4.1 1.9 3.4 7.9 11 11.2 6.3 36.9-37.5-14.3-22Zm-.4.3 14 21.6-36.3 37-3.4-2 .8.3 16-15.4-12.2-17-16.7 16.7 11.5 15-6.8-3.7-7.8-10.8-1.9-3.5-4.4-3.8 2.7-2.7 5 4.2 15.4-15.5-3.5-3.6 1.5-1.6 3.6 3.4 18.2-18.4-3.5-3.3 2-2.2 5.8 5.3Zm-.8 3.9-18.2 18.4L484 205l17.5-17.7-12-18.1Zm11.4 18-16.7 17-12.2-16.5 17.4-17.7 11.5 17.2Zm-20.2 19.5-15.5 15-.8-.4-11.2-14.8 15.9-16 11.6 16.2Z" clip-rule="evenodd"/><path fill="#394149" d="m504.3 131.6-3 3.2-17.7-6.2 3.3-3.7 17.8 6.3-.4.4Z"/><path fill="#5C5F63" fill-rule="evenodd" d="m505.2 131-18.3-6.4-3.8 4.1 18.3 6.4 3.8-4Zm-1 .3-3 3.2-17.2-6 3-3.3 17.3 6Z" clip-rule="evenodd"/><path fill="#394149" d="M490.4 147.6 471 140l9.6-9.2 18.9 7.2-9.2 9.6Z"/><path fill="#5C5F63" fill-rule="evenodd" d="m500 137.9-19.4-7.4-10 9.6 19.9 7.8 9.5-10Zm-.9.2-8.8 9.2-18.8-7.4 9.3-8.8 18.3 7Z" clip-rule="evenodd"/><path fill="#394149" d="m466.8 172.2-10.2-4.6 12.3-12.4 10.4 4.5-12.5 12.5Z"/><path fill="#5C5F63" fill-rule="evenodd" d="m479.7 159.6-10.9-4.7-12.6 12.8 10.7 4.9 12.8-13Zm-.9.2-12 12.1-9.7-4.4 11.9-12 9.8 4.3Z" clip-rule="evenodd"/><path fill="#394149" d="m455.7 167-9.8-4.4 12.4-12.1 9.5 4-12.1 12.6Z"/><path fill="#5C5F63" fill-rule="evenodd" d="m468.3 154.4-10.1-4.2-12.7 12.5 10.3 4.7 12.5-13Zm-.9.2-11.8 12.2-9.2-4.3 12-11.7 9 3.8Z" clip-rule="evenodd"/><path fill="#394149" d="M463.4 174.7 450 188.2l-19.9-10.1 13.2-12.8 20 9.4Z"/><path fill="#5C5F63" fill-rule="evenodd" d="m463.8 174.7-20.4-9.7-13.6 13.1 20.3 10.4 13.7-13.8Zm-.9.1-12.9 13-19.3-9.8 12.8-12.3 19.4 9.1Z" clip-rule="evenodd"/><path fill="#5C5F63" d="M490.8 246.7c-1.4-1.3-.7-4.4 1.6-7 2.4-2.5 5.4-3.5 6.9-2.2 1.4 1.4.7 4.5-1.7 7-2.3 2.6-5.3 3.5-6.8 2.2ZM440.8 209.3c-1-1-.4-3.2 1.3-5 1.7-1.9 3.9-2.6 5-1.7 1 1 .4 3.2-1.4 5-1.7 2-3.9 2.7-4.9 1.7ZM500.3 191.3l2 1.8 3.5-3.8-1.7-1.6 6.8-6.7 1.7 1.5 4-4.2-1.6-1.4 2.6-2.5 3 2.8-2 2.2 2.4 2-2.9 3.1 2.2 2-5.7 5.8-3.9-1.3-5.5 5.4-5.2-4.8.3-.3Z"/><path fill="#394149" d="m520.3 186.5 45.8-2 5.3 2.8-3.5 3.3-39.5 32.3-5.1-3.4-8.8-27 5.8-6Zm11.8 32.1 35.2-28.3-1.4-1.3-35.4 28.2 1.6 1.4Zm-6.2-10 10.2-.2 17.8-13.5-2.6-5.8-30.2 3 4.8 16.6Z"/><path fill="#5C5F63" fill-rule="evenodd" d="m571.9 187.3-5.7-3.1-46 2-6 6.2 8.8 27.3 5.4 3.5 39.6-32.4 3.9-3.5Zm-1 0-3.2 3-39.3 32.2-5-3.1-8.6-26.8 5.6-5.8 45.7-2.1 4.9 2.7Zm-3.2 3-1.8-1.6-35.8 28.5 2 1.7 35.6-28.6Zm-.8 0-34.8 28-1.2-1.1 35-27.8 1 .9Zm-15.4-1.4-30.7 3 5 17 10.4-.2 18-13.7-2.7-6.1Zm2 6L536 208.1l-9.9.2-4.7-16 29.8-3 2.4 5.4ZM558.8 201.7l-.2.1.6.6.2-.2-.6-.5ZM819.9 288.6l-63.7-26.2-46.9 51.8 62.7 31.5 47.9-57.1Zm-1.3.3-46.8 55.8-61.2-30.8 45.8-50.5 62.2 25.5ZM753 261l-52.8-21.4-47 46.2 53.2 26.8L753 261Zm-1.4.3-45.3 50.3-51.8-26 45.9-45 51.2 20.7ZM696.5 238 651 219.4l-45.4 42.7 44.9 22.3 46-46.4Zm-1.4.3-44.8 45.2-43.3-21.6 44.2-41.6 43.9 18ZM648.4 218.3l-39-16.1-44.9 38.3 38.1 19.3 45.8-41.5Zm-1.5.2-44.4 40.3-36.6-18.4 43.6-37.3 37.4 15.4Z" clip-rule="evenodd"/><path fill="#5C5F63" d="m469.3 133.9-3.2 3.5 1.7 1.5-6.2 6.2-1.7-1.6-4.4 4.4-3.7-3.4 4.3-4.5 5.9-6.4 4.5-5 2.8 5.3Z"/><path fill="#394149" d="m461.8 133.4 6 5.5-.7.8-6-5.5.7-.8Z"/><path fill="#5C5F63" fill-rule="evenodd" d="m468.2 139-6.4-6-1 1.2 6.3 5.9 1-1.2Zm-.8 0-.3.3-5.6-5.1.3-.4 5.6 5.1Z" clip-rule="evenodd"/><path fill="#394149" d="m456.5 139.2 6 5.5-.8.8-6-5.5.8-.8Z"/><path fill="#5C5F63" fill-rule="evenodd" d="m462.8 144.7-6.4-5.9-1 1.2 6.3 5.9 1.1-1.2Zm-.7 0-.4.4-5.6-5.1.4-.4 5.6 5.1Z" clip-rule="evenodd"/><path fill="#394149" d="m353.3 78.3 100 34.8 4 19.5 3.7 1.7-6 6.4-4.6-2.9-38.9 4L317 99.3l36.3-21Zm71.4 59.3 25.3-2.4 2-2.3-1.8-12.4-8.6 1-17.2 11.6.3 4.5Z"/><path fill="#5C5F63" fill-rule="evenodd" d="M453.5 113 353.3 78l-37 21.3 95.2 42.8 38.8-4 4.8 3 6.3-6.9-4-1.8-3.9-19.5Zm-.4.3 3.9 19.4 3.5 1.7-5.5 6-4.6-2.8-38.9 4-94-42.4 35.9-20.6 99.7 34.7Zm-2.6 6.9-9 1-17.4 11.8.4 5 25.6-2.6 2.3-2.4-2-12.8Zm1.3 12.6-2 2.1-24.8 2.5-.3-4.2 17-11.4 8.3-1 1.8 12Z" clip-rule="evenodd"/><path fill="#5C5F63" fill-rule="evenodd" d="m449.2 113.8-22.3-7.9-37.2 24.3 21.7 9.7 37.8-26.1Zm-1.7.2-36.1 25-20-9 35.6-23.2 20.5 7.2ZM424.4 105l-18.9-6.7-35.5 22.5 17.9 8.4 36.5-24.2Zm-1.8.3-34.8 23-16.1-7.6 34-21.5 17 6ZM402.6 97.3l-17.4-6.1-34.4 21.8 17.6 7.3 34.2-23Zm-1.8.3-32.5 21.8-15.8-6.5L385.3 92l15.5 5.5ZM384 90.7l-16.3-6-33.7 20.7 15.5 6.8L384 90.7Zm-1.7.2-32.9 20.4-13.7-6 32.1-19.8 14.5 5.4Z" clip-rule="evenodd"/><path fill="#5C5F63" d="M709.7 313.8c20.6 10.5 41.2 21 62 31.4 15.6-18.8 31.7-37.7 47.5-56.7-.7-.5-1.6-1-2.5-1.3L757 263c-1-.4-1.4-.2-2.1.6L710 313c0 .3-.3.6-.4.8Zm62.2 20.7c-1 1-1.7 2.1-2.6 3.2-.2.1-.6.3-.8.1l-4.6-2.3c1-1 1.6-2.1 2.5-3 .1-.2.6-.3.7-.2l4.8 2.2Zm-4.7-3c1-1 1.7-2 2.6-3 .1-.1.5-.3.7-.2 1.5.9 3 1.4 4.7 2.4-1 1-1.7 2-2.6 3-.1.2-.5.3-.7.2l-4.7-2.3Zm10.1 5.7c-1 1-1.8 2.3-2.6 3.2-.2.2-.5.2-.6 0l-4.4-2.3c1-1 1.7-2.1 2.7-3.2.1-.2.4-.2.7-.2 1 1 2.4 1.7 4.2 2.5Zm3.1-4-2.5 3.1c-.1.2-.6.3-.7.2l-4.5-2.2c1-1 1.6-2.1 2.6-3.2.2-.2.5-.2.6 0 1.7.7 3 1.3 4.5 2.2Zm-10-5.6 2.4-3c.2-.2.5-.2.8-.2l4.6 2.3c-1 1-1.6 2.1-2.5 3-.1.2-.4.2-.7.2a64 64 0 0 0-4.7-2.3Zm11-4.7c-1 1-1.6 2.1-2.5 3-.1.2-.4.2-.4.2l-4.7-2.3c1-1 1.7-2.1 2.6-3 .1-.2.5-.4.7-.2 1.2.8 2.6 1.5 4.4 2.3Zm5.6 2.6c-1 1-1.7 2.1-2.5 3-.1.2-.6.4-.7.2-1.4-.7-3-1.3-4.5-2.2 1-1 1.6-2.1 2.6-3.2h.6l4.5 2.2Zm-28.4 7.1c1-1 1.7-2 2.5-3l.6-.3a42 42 0 0 0 4.5 2.2l-3 3.5c-1.3-.7-3-1.4-4.6-2.4Zm25-3.1c-1 1-1.8 2.2-2.9 3.5-1.5-.9-3.3-1.7-4.8-2.5 1-1 1.7-2.1 2.5-3l.4-.2c1.8.5 3.3 1.3 4.8 2.2Zm1-10.5c-.8.7-1.2 1.5-1.7 2-1.2 1.3-1.2 1.3-2.5.6l-3.6-1.6c1-1 1.7-2.1 2.4-2.9.1-.1.5-.3.7-.2l4.6 2Zm2.7 6.2c-1.8-.8-3.3-1.7-5-2.3 1-1 1.6-2 2.4-3l.6-.2c1.7.6 3 1.3 4.7 2l-2.7 3.5Zm-7.4-8.9c1-1 1.6-2 2.5-3 .1-.2.4-.2.4-.2l4.8 2.2c-1 1-1.7 2.1-2.5 3-.1.2-.4.2-.6 0-1.5-.5-3-1.3-4.6-2Zm-18 12.5c1-1 1.6-2.1 2.5-3 0-.2.4-.2.7-.2 1.3.7 2.8 1.5 4.5 2.2-1 1-1.8 2.3-2.8 3.3-1.7-.6-3.2-1.5-5-2.3Zm31.4-11c-1 1-1.7 2-2.5 3l-.4.1c-1.7-.6-3-1.3-4.8-2.1 1-1 1.5-2 2.3-3 .2 0 .6-.2.8 0l4.6 2Zm-20.5 6.2c-1 1-1.7 2.1-2.5 3-.1.2-.4.2-.6 0l-4.5-2.1c1-1.1 1.7-2.2 2.5-3 .2-.2.6-.4.8-.3 1.2.9 2.7 1.7 4.3 2.4Zm10.3-11.5c1-1 1.7-2 2.5-3 .2-.2.5-.2.5-.2l4.8 2.2c-1 1-1.7 2.1-2.4 2.9-.2.1-.6.3-.8.2l-4.6-2Zm-29.8 17.2c1-1 2-2 2.7-3.1h.3l4.5 2.1c-.9 1-1.7 1.9-2.4 3-.4.4-.7.4-1.2.3l-3.9-2.3Zm40.5-22c-1 1-1.7 2.1-2.5 3-.2.2-.5.2-.5.2l-4.8-2.2 2.4-2.8c.2-.2.4-.5.6-.4l4.8 2.2Zm2.6 6.4c-1 1-1.8 2.3-2.8 3.3-1.6-.6-3.1-1.5-5-2.3l2.9-3.3c1.6.6 3.1 1.5 5 2.3Zm-4.7-3c1-1 1.7-2 2.6-3 0-.1.5-.3.7-.1 1.5.5 3 1.3 4.6 2-1 1-1.6 2.1-2.5 3-.1.2-.4.2-.7.2-1.5-.5-3.2-1.2-4.7-2Zm-16 9c-1 1.2-1.6 2.2-2.5 3.1-.1.2-.4.2-.7.2-1.4-.7-3-1.3-4.5-2.2 1-1 1.8-2.3 2.8-3.3l5 2.3Zm-4.3-2.5c1-1.1 1.7-2.2 2.5-3 .1-.2.4-.2.7-.3 1.5.6 3 1.4 4.5 2.2-1 1-1.8 2.3-2.8 3.4-1.8-.8-3.3-1.7-5-2.3Zm-4.1 3.8-1.2 1.5c-1.5 2-1.5 2-3.9 1-.7-.5-1.6-.8-2.5-1.3 1-1 1.6-2.1 2.5-3 .1-.2.6-.4.7-.2 1.5.5 2.9 1.2 4.4 2Zm-11.5 5c-1 1-1.8 2-2.6 3-.2 0-.5 0-.6.2l-4.5-2.2 2.6-2.9c.2-.1.6-.3.8-.1 1.3.4 2.7 1 4.3 2Zm.8-.2c1-1 1.6-2 2.5-3 .1-.2.4-.2.4-.2l4.5 2.2c-1 1-1.6 2.1-2.5 3-.1.2-.4.2-.6 0l-4.3-2ZM797 304c-1 1-1.7 2.1-2.5 3-.1.2-.4.2-.4.2l-4.8-2.2 2.3-2.9c.2-.1.6-.3.8-.1 1.5.8 3 1.3 4.6 2Zm3 5.8-5.2-2.2c1-1 1.7-2.1 2.5-3 .2-.2.5-.2.5-.2l4.6 2c-.8 1.3-1.6 2.5-2.5 3.4Zm-7.8-8.3c1-1 1.5-2 2.4-2.9l.4-.1 4.8 1.9c-1 1-1.5 2-2.4 2.8-.1.2-.5.4-.7.2l-4.5-1.9Zm-10.1 11.3c-1 1.1-1.7 2.2-2.6 3a66.7 66.7 0 0 0-5.2-2l2.7-2.8c.1-.2.4-.2.7-.2 1.5.5 2.9 1.2 4.4 2Zm23.4-10c-1 1-1.5 2-2.4 2.9-.1.1-.3.3-.5.3-1.7-.7-3.2-1.2-4.7-2l2.2-2.8c.2-.1.6-.3 1-.3 1.4.5 3 1 4.4 1.9Zm-4.2-12 2.4-3 .6-.3 4.8 1.9c-1 1-1.6 2-2.4 2.9-.1.1-.6.3-.7.2l-4.7-1.8Zm-27.7 23.2-2.4 3-.6.2-4.5-2.1 2.4-3c.1 0 .6-.2.7-.1 1.5.5 2.9 1.2 4.4 2Zm-19.2 5.8 2.7-3c.1 0 .5-.2.7 0l4.3 2-2.6 2.9-.8.1c-1.5-.5-2.8-1.2-4.3-2Zm-3.3 3.8 2.7-2.9c.2-.2.6-.3.8-.2 1.3.7 2.8 1.5 4.5 2.2l-2.7 2.9c-.2.2-.4.2-.7.2a42 42 0 0 0-4.6-2.2Zm55.8-30.6c.4-.4.8-.9 1-1.5 1.5-1.8 1.5-1.8 3.6-1l3 1-2.4 3c-.1 0-.4.4-.6.2-1.3-.3-3-1-4.6-1.7Zm-44.2 25.7 1.4-1.5c1.6-1.7 1.6-1.7 3.5-.7l2.8 1.3-2.4 3c-.2 0-.6.3-.8.1a42 42 0 0 0-4.5-2.2Zm43.4-25.5c-1 1-1.5 2-2.3 2.9-.2.1-.5.1-.6.3l-4.8-1.9c1-1 1.5-2 2.4-2.9l.4-.1c1.7.3 3.1.9 5 1.7Zm-3 3.6-2.4 3-.6.3-4.8-2c.9-.8 1.5-1.9 2.3-2.7 0-.1.5-.3.7-.1 1.6 0 3.1.9 4.8 1.5Zm8.6-1.3c-.9.9-1.5 2-2.4 2.9a2 2 0 0 1-.6.3l-4.8-1.9c1-1 1.6-2 2.4-2.9.2-.1.6-.3 1 0 1.4.2 2.9.8 4.4 1.6Zm-3.1 3.6-2.4 3-.7.1c-1.5-.5-3-1.4-4.7-2l2.4-3c.2 0 .5 0 .6-.2 1.7.6 3.3 1.3 4.8 2.1Zm-31 11 2.6-3c.2-.1.5-.1.6-.3l4.6 2c-1 1.1-1.6 2.2-2.3 3-.2.1-.6.3-.8.1-1.8-.5-3.1-1.2-4.8-1.8Zm-1 .3c-1 1-1.6 2.1-2.5 3-.1.2-.4.2-.4.2l-4.5-2.2c.8-1 1.5-2 2.4-2.9l.6-.3 4.5 2.2Zm7.1-7.7 2.4-2.8c.1-.2.3-.3.6-.4 1.6.7 3.1 1.2 4.6 2l-2.4 3c-.1.1-.5.3-.7.1-1.5-.5-2.8-1.2-4.5-1.9Zm-33.1 21-3 3.1-4.5-2.4 2.7-3h.5c1.3.9 2.6 1.5 4.3 2.2Zm37.8-18.3c-.9.9-1.5 2-2.4 2.9l-.6.3-4.6-2 2.4-3 .7-.1c1.5.5 2.8 1.2 4.5 1.9Zm-19.7 33-2.1 2.6-.6.3-4.6-2.3 2.3-3h.6c1.2.9 2.7 1.7 4.4 2.4Zm-8.1-26 2.6-2.8c.2-.2.5-.2.8-.2 1.3.7 2.8 1.2 4.5 2.2l-2.7 2.9-.7.2a106 106 0 0 0-4.5-2.2Zm19.3-5.8c-1 1-1.7 2.1-2.4 2.9l-.4.1c-1.5-.5-3-1.3-4.7-2l2.4-2.9c.2-.1.6-.3.7-.2 1.4.7 2.8 1.4 4.4 2Zm-22.4 9.5 2.5-2.7c.1-.2.4-.2.6-.3 1.3.7 3 1.3 4.5 2.2l-2.7 2.9c-.1.1-.6.3-.7.1-1-.7-2.4-1.3-4.2-2.2Zm-7.3 17.4 2.9-3 4.6 2.3c-.8.9-1.5 2-2.2 2.7-.2.2-.6.3-1 0-1.4-.5-2.8-1.2-4.3-2Zm13 2c-1 1-1.6 2-2.5 2.9-.1.1-.4.2-.5 0l-4.6-2.2c.9-.9 1.6-2 2.4-2.9l.8-.1c1.3 1 2.7 1.6 4.3 2.3Zm-15.9-8-2.4 2.8c-.1.2-.5.3-.7.2a138 138 0 0 1-4.2-2.2l2.7-2.9a60.5 60.5 0 0 1 4.7 2Zm38.6-28c-1 1-1.5 1.9-2.3 2.8l-.6.3c-1.5-.5-3-1.3-4.7-2l2.6-2.7c.1-.2.5-.4.7-.2 1.3.4 2.8.9 4.3 1.7Zm-41 31.4 3-3.2a64 64 0 0 0 4.7 2.3l-2.5 2.8h-.6c-1.5-.5-2.9-1.2-4.5-1.9Zm18.7-22 2.7-3h.6c1.4.7 2.9 1.2 4.4 2l-2.4 3-.7.1-4.6-2.2Zm-17.4 12 2.5-2.7.7-.1c1.4.7 2.8 1.3 4.3 2.2-1 1-1.6 2-2.4 2.9-.2.1-.6.3-.8.1l-4.3-2.3Zm40.6-21.8c.6-.6 1-1 1.4-1.8 1.1-1.5 1.1-1.5 3-.7l3.2 1.3c-1 1-1.5 2-2.4 3h-.7c-1.5-.4-2.8-1.1-4.5-1.8Zm8.8-10.8 2.7-3h.5c1.4.5 3 1 4.6 1.7-.9.9-1.6 2-2.4 2.9-.1.1-.6.3-.7.1-1.5-.2-2.9-.9-4.7-1.7Zm-3 3.5 2.6-2.8.8-.1c1.5.5 2.8 1.2 4.5 1.9-.9.9-1.6 2-2.3 2.7-.1.2-.6.3-.9.3-1.5-.5-2.8-1.2-4.6-2ZM774.6 304l-2.4 3c-.1 0-.6.2-.7.1-1.5-.5-2.9-1.2-4.7-2l2.6-2.8.7-.2 4.5 2Zm.9 0c1-1 1.7-2.1 2.6-3.2l5 2.3-2.5 2.8c-.2.1-.6.3-.8.1-1.5-.8-2.8-1.5-4.3-2Zm-45.5 19.1 2.7-2.9.7-.1c1.4.6 2.7 1.3 4.2 2.2l-2.6 2.9h-.6c-1.5-.5-2.7-1.4-4.4-2Zm12.5 1.6-2.7 3h-.6l-4.2-2.2 2.7-3h.5l4.3 2.2Zm6.9-7.5 2.5-2.7c.1-.2.6-.3.6-.3l4.3 2c-1 1-1.5 2-2.3 2.9-.2.2-.6.3-.8.2-1.3-.7-2.7-1.4-4.3-2Zm48-22.9c-1 1-1.5 2-2.3 2.9-.2.2-.5.2-.5.2l-4.6-2 2.2-2.8c.2-.2.6-.3.8-.2l4.5 2Zm-8.3 1.4c-.8.9-1.5 2-2.4 2.9l-.7.1c-1.5-.5-2.8-1.2-4.6-2l2.5-2.7c.1-.2.4-.2.6 0 1.6.3 3 1 4.6 1.7Zm3-3.5c-.9.9-1.6 2-2.3 2.7-.1.2-.5.3-.7.2l-4.6-2 2.5-2.8c.1-.2.4-.2.4-.2 1.5.6 3.2 1.2 4.7 2Zm-46.4 29-2.7 3h-.4a138 138 0 0 1-4.2-2.1l2.5-2.8c.2-.1.6-.3.7-.1 1.2.5 2.4 1 4.1 2Zm14.2-8.6c-1 1-1.5 2-2.4 2.8l-.5.4-4.5-2.2c1-1 1.8-2 2.6-3h.8l4 2Zm35.1-24.2c-.8.9-1.5 2-2.2 2.7-.2.2-.6.3-.8.2-1.5-.5-2.8-1.2-4.6-2l2.5-2.8.5-.2c1.6 1 3.1 1.5 4.6 2Zm-14.4 8.5c-.8.9-1.5 2-2.4 2.9 0 .1-.5.3-.7.1l-4.5-1.8 2.6-2.8c.1-.1.4-.2.5 0 1.5.2 2.9 1 4.5 1.6Zm-10.5 4.7 2.5-2.8.4-.2 4.5 2c-.8.9-1.5 2-2.3 2.8-.2.2-.6.3-.8.2-1.3-.7-2.7-1.4-4.3-2Zm20.2-15.6 2.6-2.7c.1-.2.4-.2.4-.2l4.7 1.8c-1 1-1.6 2-2.4 2.9-.2.1-.6.3-.8.1-1.5-.5-2.8-1.2-4.5-1.9Zm-49 32.3 2.7-3h.4l4.2 2.1c-1 1-1.8 2-2.6 3h-.8l-3.9-2.1Zm10.6-4.4-2.6 2.8c-.1.1-.5.3-.7.1l-4-2 3-3.2a78 78 0 0 1 4.3 2.3Zm-4.3-2.8 2.6-2.7c.1-.2.4-.2.6-.3l4.3 2-2.5 2.7c-.2.2-.6.4-.8.2a27 27 0 0 1-4.2-1.9Zm-22.3 9.4 2.6-2.7c.1-.2.4-.2.7-.2l4 2-2.6 3h-.6a60 60 0 0 1-4-2Zm41-15.1-2.4 2.9-.6.3c-1.4-.7-2.9-1.2-4.4-2l2.6-2.8c.1-.1.6-.3.7-.2 1.2.3 2.5 1 4 1.8Zm-33.2 14 2.7-2.8c.1-.2.4-.2.4-.2l4.2 2.2-2.5 2.8-.7.1a24 24 0 0 0-4-2Zm30-10.5a19 19 0 0 0-2.3 2.7c-.5.5-.7.5-1 .2-1.3-.5-2.2-1-3.4-1.6l-.6-.6 2.4-2.6c.2-.1.6-.3.8-.1l4 2Zm-1.2-6.1 2.5-2.8h.6c1.4.7 2.9 1.2 4.4 2l-2.6 2.8c-.1.1-.6.3-.7.2-1.2-.9-2.7-1.4-4.2-2.2Zm21.7-9.4c-.9.9-1.6 2-2.3 2.7-.1.2-.5.3-.5.3-1.5-.5-2.9-1.2-4.7-2l2.5-2.7c.2-.2.5-.2.8-.2 1.3.7 2.7 1 4.2 1.9Zm-9.5 47.8-1.4 1.5c-1.3 1.4-1.3 1.4-2.8.5l-3.2-1.5c.9-.9 1.4-1.8 2.3-2.7l.7-.2 4.4 2.4Zm-34.7-28.9 2.6-2.7c.1-.2.4-.2.4-.2l4.2 2.2-2.5 2.8c-.1.1-.6.3-.7.1a19 19 0 0 0-4-2.2Zm25.4-13 2.6-2.8.4-.2 4.2 2c-.8.9-1.5 2-2.4 2.8-.1.2-.4.2-.7.2a24 24 0 0 0-4-2ZM785 284c.9-.9 1.5-2 2.3-2.7 0-.1.5-.3.7-.2l4.3 1.8c-.8.9-1.5 2-2.4 2.9l-.7.1c-1-.7-2.5-1.2-4.2-1.9Zm-6 6.9 2.5-2.7c.1-.2.4-.2.6 0l4.5 1.8-2.3 2.8c-.1.1-.5.3-.7.1-1.5-.8-3-1.3-4.6-2Zm3-3.4c1-.9 1.6-2 2.3-2.7.1-.1.6-.3.7-.2l4.4 1.8c-.9.9-1.6 2-2.4 2.9l-.7.1a18 18 0 0 0-4.2-1.9ZM736.4 316a7928.1 7928.1 0 0 0 3-3l4.3 2.1-2.6 2.8-.7.1c-1.2-.8-2.5-1.5-4-2Zm13.8-8.2-2.7 2.9h-.6c-1.4-.7-2.7-1.4-4.4-2l2.6-2.8c.1-.1.5-.3.7-.2 1.4.7 2.7 1.4 4.4 2Zm5 1.8c-1.3-.6-2.8-1.5-4.5-2.1a5276.7 5276.7 0 0 1 3-3l4.4 2-2.9 3.1Zm-27.3 7.6-2.6 2.7c-.4.5-.7.5-1 .2l-3-1.6-.6-.6 2.4-2.6c.1-.1.5-.3.7-.2l4 2Zm.5-.3 2.6-2.8.6-.3 4.2 2.2-2.7 2.9c-.2.2-.4.2-.7.2l-4-2.2Zm25.3-13 2.5-2.7c.2-.1.3-.3.5-.1l4.3 2-2.5 2.7c-.2.2-.6.4-.8.2a24 24 0 0 0-4-2Zm-11.7 5c-1 1.2-1.7 2-2.6 2.8-.1.2-.6.4-.7.2l-4-2 2.5-2.8c.1-.1.4-.2.6 0 1.4.5 2.6 1 4.2 1.9Zm36.5-17.7-2.6 2.8-.7.1-4.5-1.8 2.6-2.8c.1-.1.5-.3.7-.2l4.5 2Zm-21.9 9.3 2.6-2.8.4-.1 4.4 2-2.6 2.7c-.1.2-.6.4-.7.2a24 24 0 0 0-4-2Zm11.3-4.9 2.6-2.7c0-.2.4-.2.4-.2 1.5.5 2.8 1.2 4.5 1.9l-2.4 2.6-.9.3c-1.2-.5-2.7-1-4.2-1.9Zm-37 18-2.6 2.8c-.2.2-.5.2-.5.2l-4-2 2.5-2.8c.2-.2.4-.2.6 0 1.3.4 2.7 1 4 1.7Zm25.2-12.8-2.6 2.7c-.1.2-.4.2-.6 0a36 36 0 0 0-4.2-1.8l2.6-2.8.4-.2 4.4 2Zm20.8-15.6 2.5-2.7c.2-.2.5-.2.8-.2 1.5.6 2.7 1 4.5 2L782 287h-.6c-1.6-.4-3-1-4.6-1.8Zm-23.8 19-2.5 2.8c-.2.2-.5.2-.6 0a36 36 0 0 0-4.2-1.8l2.5-2.8.7-.2c1.1.7 2.6 1.3 4.1 2Zm14-8.4-2.3 2.9-.7.1c-1.4-.6-2.9-1.2-4.2-1.9l2.5-2.7c.1-.2.6-.3.7-.2 1.2.6 2.6 1.3 4 1.8Zm12.6-13.9 2.6-2.8c0-.1.2-.3.5-.3l4.5 2-2.5 2.7c-.2.1-.6.3-.7.1l-4.4-1.7Zm-40.8 30.7-2.6 2.8c-.1.1-.4.2-.6 0l-4-2 2.5-2.8a60.5 60.5 0 0 1 4.6 2Zm12.8-14.4 2.4-2.6c.1-.2.5-.4.7-.2 1.3.7 2.7 1 4.2 1.9l-2.5 2.7c-.2.2-.5.2-.8.2a24 24 0 0 0-4-2Zm22.3-9.5c.8-.9 1.5-2 2.2-2.7.1-.1.6-.3.7-.2l4.4 1.8-2.6 2.7c-.1.2-.4.2-.7.2l-4-1.8Zm-44 18.8 2.5-2.7c.1-.2.4-.2.4-.2 1.4.7 2.7 1.4 4.2 2l-2.8 3-4.3-2Zm25-12.9 2.3-2.6c.1-.1.6-.3.7-.1 1.2.5 2.7 1 4.2 1.9l-2.5 2.7c-.1.2-.6.3-.7.2l-4-2Zm21.3-9-2.5 2.7c-.1.2-.4.2-.4.2l-4.5-2 2.4-2.5c.1-.2.5-.3.7-.2 1.3.4 2.7 1 4.3 1.8Zm-4.5-2.5 2.4-2.6c.1-.2.4-.2.7-.2 1.5.5 2.7 1 4.4 1.8l-2.6 2.7c-.1.2-.4.2-.5 0l-4.4-1.7Zm-1.5 9.3-2.8 3c-1.4-.6-2.9-1.1-4.7-2l2.4-2.5c.2-.2.6-.4.7-.2 1.4.4 2.7 1 4.4 1.7Zm3-3.5-2.6 2.8-.4.1c-1.5-.5-2.9-1.2-4.5-1.9l2.4-2.5c.1-.2.5-.4.7-.2l4.3 1.7Zm-22.2 9.6-2.5 2.7-.6.3a36 36 0 0 0-4.2-1.9l2.4-2.6c.1-.1.6-.3.7-.1 1.5.2 2.8.9 4.2 1.6Zm-35 17.2 2.6-2.7c.1-.2.4-.2.7-.2l4 2-2.7 2.8c-.2.2-.5.2-.6 0-1.5-.5-2.6-1.2-4-1.9Zm29-10.4-2.6 2.8c-.1.1-.6.3-.7.2l-4-2.1 2.5-2.7c.1-.2.4-.2.7-.2 1.2.8 2.6 1.5 4 2Zm12.6-14 2.6-2.8.4-.1c1.5.5 2.8 1.2 4.5 1.9l-2.4 2.6c-.1.1-.6.3-.7.1-1.4-.4-2.7-1-4.4-1.7ZM748 302l-2.5 2.7c-.1.2-.4.2-.6 0l-4.2-1.9 2.6-2.7c.1-.2.5-.3.7-.2l4 2Zm-5-2.3-2.4 2.7c-.2.2-.5.2-.8.2l-4.2-2 2.6-2.7c.1-.1.5-.3.7-.1 1.5.5 2.8 1.2 4.2 1.9Zm-16.8 11.5-2.5 2.8-.6.3-4-2c.9-1.1 1.6-2 2.5-2.8 0-.2.4-.2.7-.2l3.9 2Zm7.8-1-2.6 2.7c-.1.2-.4.2-.7.2l-4-2 2.5-2.8c.1-.2.4-.2.5 0 1.5.5 2.7 1 4.3 1.9Zm40.5-30.5a3941 3941 0 0 1 3-2.9l4.6 1.8-2.4 2.6c-.1.1-.5.3-.7.1-1.5-.2-2.8-.9-4.5-1.6Zm-24.6 13 2.5-2.8c.1-.2.4-.2.6 0 1.2.5 2.7 1 4.2 1.8l-2.5 2.8c-.2.1-.6.3-1 0-1.1-.8-2.3-1.3-3.8-1.9Zm-35.3 17.2a7928.1 7928.1 0 0 0 3-3l4 2a8775 8775 0 0 0-3.2 3c-1.2-.8-2.4-1.3-3.8-2ZM774 280l-2.4 2.5c0 .2-.4.2-.5.4l-4.4-1.8 2.4-2.6c.2-.1.6-.3.8-.2 1.3.4 2.6.8 4.1 1.7ZM754.2 295l-2.5 2.7c-.1.2-.4.2-.4.2-1.4-.7-2.7-1.1-4.2-2l2.4-2.5c.1-.2.5-.3.7-.2l4 1.8Zm50-7.9 1.2-1.2c1.4-1.5 1.4-1.5 3.2-.7l3.2 1.2-2 2.4c-.1.2-.4.2-.7.2l-4.8-1.9Zm-36.2-.3-2.5 2.7c-.1.2-.4.2-.6 0l-4.3-1.7 2.4-2.6c.1-.2.4-.2.7-.2 1.5.5 2.8 1.2 4.3 1.8Zm27.1-7.3-2 2.6-.6.3c-1.5-.5-3-1-4.5-1.9l2-2.5c.2-.2.6-.4.8-.2l4.3 1.7Zm-24 3.9-2.4 2.6c-.1.2-.4.2-.7.2l-4.3-1.8 2.4-2.6c.1-.1.5-.3.7-.1l4.3 1.7Zm-55.6 32-4.1-2a8720.4 8720.4 0 0 0 3.1-3c1.2.5 2.6 1.2 3.8 2l-2.8 3Zm77.7-32.9 2.2-2.4.5-.2 4.5 2c-.9.8-1.4 1.7-2.1 2.5-.2.2-.5.2-.8.2-1.3-.7-2.7-1.4-4.3-2Zm-23.6-4.8 2.4-2.6.7-.2c1.3.4 2.7 1.1 4.3 1.8l-2.5 2.7c-.1.2-.4.2-.6 0l-4.3-1.7ZM733 304.2l2.5-2.8.7-.1 4 1.9-2.5 2.6c-.1.1-.5.3-.7.1-1.3-.4-2.5-1.2-4-1.7Zm-7.8 1 2.4-2.6c.1-.1.6-.3.7-.2l4 2-2.5 2.5c-.1.2-.5.4-.7.2-1.2-.5-2.4-1-3.9-1.9Zm73.4-20.5 2.4-2.6c.1-.2.4-.2.4-.2 1.5.6 3.2 1.2 4.5 2-.8.8-1.2 1.6-2 2.4l-.7.1c-1.3-.4-2.8-.9-4.6-1.7Zm-49.5 8.1-2.4 2.6-.5.3-4.2-1.9 2.5-2.7c.1-.2.4-.2.6 0 1.3.3 2.7 1 4 1.7Zm-19.8 15-2.5 2.8c-.2.2-.5.2-.5.2l-3.9-2 2.4-2.5c.1-.2.6-.4.7-.2l3.8 1.8Zm-1-6 2.5-2.7.5-.2 3.9 2-2.4 2.5c-.2.2-.6.4-.7.2l-3.8-1.7Zm24.5-12.7 2.4-2.6.6-.3c1.3.7 2.7 1 4.2 2l-2.4 2.5c-.1.2-.6.3-.7.2l-4-1.8Zm-.6.3-2.4 2.6c-.1.2-.4.2-.7.2-1.2-.5-2.5-1.2-4-1.7l2.4-2.6c.1-.2.5-.4.7-.2 1.3.4 2.5 1 4 1.7Zm37.8-12-2.2 2.4-.6.3c-1.5-.5-2.8-1.2-4.5-1.9l2.4-2.6.7-.1c1.2.8 2.7 1.3 4.2 1.9Zm-50.8 19.8 2.5-2.8.4-.2 4.2 2-2.5 2.7c-.1.1-.4.2-.6 0a33 33 0 0 1-4-1.7Zm32.7-22.7-2.3 2.6c-.2.2-.5.2-.8.2l-4.2-1.6 2.4-2.6.8-.2c1.2.6 2.5 1 4.1 1.6Zm-40.5 24 2.5-2.8.8-.1 3.9 1.9-2.6 2.7c-.1.2-.4.2-.4.2-1.6-.7-2.7-1.4-4.2-2Zm30.4-19.4 2.4-2.6c.2-.2.5-.2.6-.4l4.3 1.8-2.4 2.6-.7.2-4.2-1.6Zm-5.9 6.7 2.3-2.5.5-.3 4.4 1.7-2.4 2.6c-.1.2-.6.4-.7.2l-4-1.7Zm10.1-4.6-2.4 2.6c-.1.2-.2.3-.5.4l-4.4-1.8 2.4-2.6.8-.2 4.1 1.6ZM720.7 303l2.4-2.6c.1-.1.3-.3.6-.3l3.9 2-2.6 2.7-.7.2c-1-.7-2.3-1.3-3.6-2Zm19.7-14.6 1.1-1.2c1.7-1.8 1.7-1.8 3.8-.7l2.3 1-2.4 2.5c-.1.2-.6.3-.7.2a33 33 0 0 0-4-1.8Zm76.8.1-2 2.5h-.6l-4.8-1.9 2-2.4c.1-.2.4-.2.4-.2l5 2ZM748 287l2.4-2.5c.2-.2.4-.2.7-.2 1.2.5 2.7 1 4 1.7l-2.3 2.6c-.1.2-.4.2-.7.2-1.4-.4-2.7-1-4-1.8Zm36.8-11.5-2.1 2.5c-.1.2-.4.2-.7.2l-4.4-1.7 2.4-2.6c.2-.2.5-.2.5-.2 1.3.7 2.8 1.2 4.3 1.8Zm-54.1 23.3a5661 5661 0 0 0-3 2.9l-3.9-2 2.4-2.5c.1-.2.6-.3.9 0 1.2.2 2.2.9 3.6 1.6Zm3.7-3.7 2.4-2.6c0-.2.4-.2.7-.2l4 1.8-2.5 2.7c-.1.2-.4.2-.7.2l-4-2Zm22.5-18 2.2-2.4c.2-.2.6-.3.8-.2l4.2 1.6-2.4 2.6c-.2.2-.5.2-.8.2l-4-1.8Zm-5.8 6.6 2.4-2.6.6-.3 4.2 1.6-2.4 2.6-.7.2c-1.5-.3-2.7-.8-4-1.5Zm15.8-11-2.4 2.7-.8.1c-1.3-.3-2.7-1-4.2-1.6l2.4-2.6h.6c1.7.4 3 .8 4.4 1.5Zm-42.3 33-2.4 2.5c-.1.2-.5.3-.5.3l-4-1.9 2.4-2.6c.2-.1.6-.3 1 0l3.5 1.6Zm36.5-26.4-2.4 2.6c-.1.2-.4.2-.7.2-1.2-.5-2.7-1-4-1.8l2.3-2.6h.6l4.2 1.6Zm18.6-5.7-2.4 2.6-.4.2c-1.5-.6-2.9-1.3-4.4-1.8l2.3-2.4c.1-.2.6-.3.7-.2 1.2.2 2.6 1 4.2 1.6Zm-49.9 19.3 2.4-2.6.8-.2c1.2.6 2.4 1.1 3.9 2l-2.4 2.5c-.2.2-.6.4-.7.2l-4-1.9Zm-3 3.4 2.3-2.6c.2-.2.5-.2.5-.2l3.7 1.8-2.6 2.9-4-2Zm10.7-4.6 2.4-2.6c0-.1.5-.3.7-.1 1.2.5 2.5 1.2 4 1.7l-2.4 2.6c-.1.2-.5.3-.7.2-1.3-.4-2.7-1-4-1.8Zm-1.6-5.4 2.4-2.6c.1-.1.6-.3.7-.1l4 1.6-2.5 2.6-.7.2c-1.3-.4-2.5-1-3.9-1.7Zm10.4-4.5 2.4-2.6.7-.2 4 1.7-2.5 2.6h-.5c-1.4-.4-2.6-1-4-1.5Zm5.8-6.5 2.4-2.6c.1-.2.4-.2.4-.2l4.2 1.6-2.4 2.6c-.1.2-.4.2-.7.2-1.2-.6-2.4-1.1-4-1.6Zm-19.3 14.4 2.4-2.6.7-.2c1.2.6 2.4 1.1 4 1.6l-2.5 2.6c-.1.2-.5.4-.7.2-1.3-.4-2.4-1-3.9-1.6Zm17.6-5.8-2.4 2.6-.7.1-4-1.6 2.5-2.6c.1-.1.4-.1.5-.3l4 1.8Zm7-15-2.4 2.6-.4.1c-1.2-.5-2.6-.9-3.9-1.6l2.4-2.6c.1-.1.6-.3.7-.2 1 .6 2.1 1.1 3.6 1.7Zm4.7 2-2.4 2.6-.6.3-4.2-1.6 2.4-2.6c.1-.1.6-.3.7-.2 1.4.4 2.7.8 4 1.5Zm12.5.5-2.2 2.5c-.2.1-.3.3-.5.1l-4.3-1.7 2.2-2.4.6-.4a18 18 0 0 0 4.2 2Zm-33 8.4 2.3-2.5c.2-.1.3-.3.6-.3 1.2.6 2.7 1.1 4 1.8l-2.3 2.6-.8.2c-1-.7-2.2-1.3-3.7-1.8Zm14.7-2.3-2.3 2.4-.5.3c-1.2-.5-2.7-1-4-1.7l2.2-2.5c.1-.1.6-.3.7-.2l3.9 1.7Zm13.5-8a29758 29758 0 0 1-2.8 2.8c-1.4-.4-2.7-1-4.2-1.6l2.3-2.4c.1-.2.5-.3.7-.2l4 1.5Zm-31 13.5 2.3-2.6c.2-.2.4-.2.7-.2 1.2.6 2.4 1.1 4 1.6l-2.5 2.6c-.1.2-.4.2-.7.2-1.3-.4-2.4-1-3.9-1.6Zm26-15.3a5661 5661 0 0 1-2.9 2.8l-4.2-1.6 2.3-2.5c.1-.1.5-.3.8-.3 1.4.4 2.6 1 4 1.6Zm-20.2 8.9 2.4-2.6c.2-.2.5-.2.5-.2l3.9 1.6-2.3 2.5-.6.3-3.9-1.6Zm9.9-4.5-2.4 2.6-.5.1c-1.2-.5-2.5-.9-3.9-1.6l2.4-2.6.8-.2c.9.6 2 1.1 3.6 1.7Zm-1.3-5.1 2.3-2.5.7-.2 4 1.5-2.2 2.5-.7.1-4-1.4ZM653.4 285.6c5.3 2.6 10.5 5.2 15.7 8 12 6 23.9 11.8 35.8 18 .9.6 1.3.4 2-.4 13.7-15 27.5-30.3 41.1-45.5l4.2-4.5-7.3-3.1c-14.5-6.1-29-12-43.6-18-.9-.2-1.5-.2-2.2.6-9.9 9.8-20 19.8-30 29.4l-15 14.7-.7.8Zm47.3 17.6 2.5-2.7c.2-.2.4-.2.7-.2l4 1.9-2.6 2.8c-.1.1-.6.3-.7.1l-4-1.9Zm-3.3 3.5 2.7-2.9.4-.1 4 1.9-3 3.2-4-2Zm-4.5-2.1 2.6-2.8c.1-.2.4-.2.7-.2l3.7 1.8-2.5 2.7c-.1.2-.4.2-.7.2-1.2-.5-2.4-1-3.8-1.8Zm5.8-6.9-2.7 2.9a90.7 90.7 0 0 1-4.3-1.7l2.5-2.8.7-.2c1.4.4 2.6 1.3 3.8 1.8Zm-2.5 3.3 2.5-2.7c.1-.2.6-.3.7-.2l3.8 1.8-3 3.2c-1.2-.8-2.4-1.4-4-2Zm-.8.2L693 304l-.7.1c-1.2-.5-2.4-1-3.6-1.9l2.5-2.7c.1-.2.4-.2.7-.2l3.6 2Zm15.5-2.7-2.5 2.8c-.1.2-.6.3-.6.3l-3.7-1.8 2.5-2.7c.1-.2.6-.3.7-.2l3.6 1.6Zm-4.5-2.1L704 299c-.1.2-.4.2-.7.2-1.2-.6-2.4-1-3.8-1.8l2.5-2.7c.2-.2.5-.2.8-.2l3.7 1.8Zm.8-.2 2.5-2.8c.1-.1.6-.3.7-.1l3.8 1.7-2.7 3h-.6l-3.7-1.8Zm-16.5-3 2.5-2.8c.2-.2.6-.3.8-.2l3.6 1.7-2.6 2.7c-.1.2-.4.2-.6 0-1.5-.2-2.4-.8-3.7-1.5Zm18.8-.2-2.5 2.8-.7.1-3.8-1.7 2.5-2.8.8-.2c1.3.4 2.4 1.1 3.7 1.8Zm-19.5.3-2.6 2.8-.4.1-3.8-1.7 2.6-2.8.7-.2c.9.6 2.1 1.1 3.5 1.8Zm1 5.7-2.9 3-3.9-1.8 2.5-2.8.8-.1c1.2.5 2.4 1 3.4 1.7Zm4.2-3.7 2.5-2.7c.2-.2.5-.2.5-.2l3.7 1.8-2.5 2.7c-.2.2-.6.4-.7.2-1.2-.5-2.3-1.2-3.5-1.8Zm9.8-4.5-2.5 2.8-.5.1-3.7-1.7 2.5-2.8c.2-.1.6-.3.8-.2 1.2.6 2.2 1.3 3.4 1.8Zm7.8-1.3-2.6 2.7c-.1.2-.4.2-.7.2l-3.7-1.7 2.5-2.8c.1-.2.4-.2.6 0 1.3.4 2.4 1 3.9 1.6Zm4.5 2.2-2.6 2.7c-.1.2-.4.2-.4.2l-3.7-1.8 2.4-2.6.7-.2 3.6 1.7Zm-35 3-2.6 2.7c-.2.2-.5.2-.5.2-1.2-.6-2.4-1.1-3.4-1.8l2.5-2.8.7-.1 3.2 1.8Zm5.1 2 2.6-2.8.4-.2 3.8 1.8-2.8 3-4-1.8Zm20.9 5.6 3.8 1.8-2.7 2.9c-.2.2-.5.2-.6 0-1.2-.5-2.1-1-3.5-1.8 1-.7 2-1.8 3-2.9Zm12-14L718 291c-.2.2-.6.3-.7.2l-3.8-1.8 2.4-2.6c.1-.1.6-.3.7-.2l3.8 1.8Zm-19.6.5-2.6 2.7c-.1.2-.4.2-.7.2l-3.6-1.6 2.5-2.8.8-.1c1.2.2 2.2.9 3.6 1.6Zm21.2-9.2-2.4 2.6-.7.1-3.7-1.7 2.6-3c1.4.8 2.7 1.4 4.2 2Zm-43 12.8 2.5-2.7c.1-.2.4-.2.4-.2l3.6 1.6-2.5 2.8c-.1.1-.6.3-.7.2-1-.4-2.1-1.1-3.3-1.7Zm29.4-4.8-2.4 2.6c-.2.2-.6.3-.7.2l-3.8-1.8 2.4-2.6c.1-.1.6-.3.7-.2 1.4.4 2.4 1.1 3.8 1.8Zm4.8 1.6-4-2a5661 5661 0 0 0 3-2.8l3.8 1.7-2.8 3Zm-26.5 7.5-2.6 2.7c-.1.2-.4.2-.6 0-1.2-.5-2.4-1-3.4-1.7l2.7-3h.5c1 1 2.2 1.5 3.4 2Zm19.1 14.3-3.7-1.8 2.6-2.9.6-.3c1.2.5 2.4 1 3.5 1.8l-3 3.2ZM678 292.5l-2.4 2.6-.6.3c-1.2-.6-2.4-1.1-3.4-1.8l2.5-2.8.7-.1c.8.7 2 1.2 3.2 1.8Zm-3.3-2.3 2.5-2.7c.1-.2.4-.2.6 0l3.3 1.6-2.5 2.8h-.6c-1.2-.6-2.3-1-3.3-1.7Zm11.6 1c.9-1 1.7-2 2.6-2.8.1-.2.4-.2.4-.2l3.6 1.6-2.4 2.6c-.1.2-.6.3-.7.2l-3.5-1.5Zm32.5-8.3-2.4 2.6a2 2 0 0 1-.5.3l-3.8-1.7 2.4-2.6c.1-.2.6-.3.7-.2l3.6 1.6Zm-29.2 4.7 2.4-2.6c.1-.2.5-.3.7-.2l3.6 1.7-2.5 2.7c-.2.2-.5.2-.5.2-1.3-.4-2.4-1.1-3.7-1.8Zm-16.1 2.7-2.6 2.7c-.1.2-.5.3-.7.2-1.2-.5-2.2-1.2-3.4-1.8l2.5-2.7c.1-.2.4-.2.7-.2 1.4.7 2.6 1.2 3.5 1.8Zm15.2-2.4-2.5 2.8h-.6c-1.2-.5-2.4-1-3.5-1.8l2.6-2.7c0-.2.4-.2.5 0 1.2.5 2.4 1 3.5 1.7Zm-22.5-1.8 2.6-2.7c.1-.2.4-.2.6 0 1.2.5 2.2 1 3.4 1.8l-2.7 2.6h-.6c-1.2-.6-2.2-1.3-3.3-1.7Zm25.7-1.7-2.4 2.6c0 .2-.4.2-.5.3l-3.6-1.6 2.4-2.6c.1-.2.5-.3.7-.2l3.4 1.5Zm-21.6 3.8 2.5-2.8.5-.1c1.2.5 2.4 1 3.4 1.8l-2.5 2.7c-.1.2-.4.2-.6 0l-3.3-1.6Zm-.9 0L667 291h-.6l-3.3-1.6 2.5-2.8.8-.2c1 .7 2 1.3 3.1 1.8Zm39.2 13.8 2.5-2.7c.2-.2.5-.2.7-.2l3.4 1.6-2.6 2.8-.4.2-3.6-1.7Zm9.8-4.8-2.5 2.8-.8.2-3.3-1.7 2.6-2.7c.1-.2.5-.4.7-.2l3.3 1.6ZM681 283.7l2.4-2.6c.1-.2.4-.2.7-.2 1.2.5 2.4 1 3.3 1.6-.8 1-1.6 1.9-2.4 2.6 0 .2-.4.2-.7.2-.9-.6-2-1.1-3.3-1.6Zm15-2.7 2.3-2.6.8-.2 3.6 1.7-2.4 2.6-.8.1c-1.3-.3-2.4-1-3.6-1.6Zm-11.5 4.7-2.6 2.8-.4.1c-1.2-.5-2.4-1-3.4-1.7l2.3-2.6c.2-.2.6-.3.8-.2l3.3 1.6Zm19.3-.3-2.4 2.6c-.2.2-.5.2-.5.2l-3.6-1.6 2.7-3 3.8 1.8Zm15.8-2.6 2.4-2.6c.1-.2.5-.4.7-.2l3.6 1.6-2.5 2.8h-.6l-3.6-1.6Zm-3 3.2 2.4-2.6c.1-.2.6-.4.7-.2l3.6 1.6-2.4 2.6c-.1.2-.4.2-.7.2l-3.6-1.6Zm-12-.9 2.6-2.8.4-.1c1.2.5 2.4 1 3.8 1.8l-2.4 2.6-.8.1-3.6-1.6Zm-11.8-.7 2.4-2.6.6-.3 3.6 1.6c-.8 1-1.6 1.7-2.3 2.4-.1.2-.5.4-.7.2-1.3 0-2.4-.8-3.6-1.3Zm7.5-1.3 2.4-2.6c.1-.2.4-.2.7-.2l3.6 1.6-2.4 2.6c-.1.2-.6.3-.7.2-1.4-.4-2.4-1.1-3.6-1.6Zm-24.2-1.5-2.7 2.6c-.2.2-.5.2-.5.2-1.2-.5-2.4-1-3.3-1.6l2.4-2.6c.2-.2.5-.2.8-.2.9.6 2 1.1 3.3 1.6Zm34.8-3 2.2-2.4c.1-.1.6-.3.7-.1l3.5 1.4-2.4 2.6c-.2.2-.6.4-.7.2l-3.3-1.6Zm-27.5 1.9-2.6 2.7c0 .2-.4.2-.5 0-1.2-.5-2.4-1-3.3-1.6l2.5-2.7c.1-.2.4-.2.6 0 1 .3 2 1 3.3 1.6Zm-9.7 4.3 2.5-2.7c.2-.2.5-.2.6 0 1.2.5 2.3.9 3.3 1.6l-2.5 2.7c-.1.2-.4.2-.6 0-1.2-.5-2.2-.9-3.3-1.6Zm41.2 10 2.4-2.5c.1-.2.4-.2.6-.4l3.6 1.7-2.6 2.7c0 .2-.4.2-.7.2l-3.3-1.6ZM698.2 278l-2.6 2.7c-.1.2-.4.2-.6 0l-3.6-1.6 2.4-2.6h.6c1.5.2 2.6 1 3.8 1.5Zm26.7-1.6-2.4 2.6h-.6l-3.7-1.8 2.2-2.4c.2-.2.4-.2.7-.2 1.2.5 2.4 1 3.8 1.8Zm-56.3 6.6-2.7 2.6c-.1.1-.6.3-.7.1l-3.2-1.5 2.6-2.7c.1-.2.4-.2.6 0 1.2.2 2 .8 3.4 1.5Zm45.9-2.1-2.4 2.6h-.6l-3.6-1.6 2.4-2.6c.1-.2.4-.2.7-.2l3.5 1.8Zm-56 6.3c.8-1 1.8-1.7 2.7-2.6.1-.2.4-.2.7-.2l3.3 1.6c-.8 1-1.8 1.7-2.7 2.6-.1.2-.4.2-.7.2l-3.3-1.6Zm73.7-12-2.7 2.9-4-1.8 2.4-2.6.7-.1 3.6 1.6ZM718 291.5l2.4-2.6.7-.2 3.5 1.5-2.4 2.6c-.2.2-.6.3-.7.2-1.2-.3-2.3-1-3.5-1.5Zm-5-16-2.3 2.4c-.2.2-.6.4-.8.2l-3.6-1.6 2.4-2.6c.2-.2.5-.2.6 0l3.6 1.6Zm15.6-2.5 2.4-2.6c.1-.2.4-.2.4-.2 1.2.6 2.4 1.1 4 1.6l-2.3 2.5c-.2.1-.6.3-.8.2-1.3-.4-2.5-1-3.7-1.5Zm-.7.2-2.4 2.5c-.2.2-.5.2-.5.2l-3.9-1.6 2.3-2.4c.1-.2.6-.4.7-.2 1.2.2 2.4.8 3.8 1.5Zm-39.4 9.1 2.4-2.6h.6l3.4 1.5-2.4 2.6c-.1.2-.4.2-.7.2a32 32 0 0 0-3.3-1.7Zm21-8.9 2.2-2.4.6-.3 3.6 1.6-2.3 2.4c-.1.2-.5.4-.7.2l-3.4-1.5Zm10.9 1-2.3 2.5c-.1.2-.5.3-.7.2l-3.6-1.6 2.3-2.5.7-.2c1.3.4 2.2 1 3.6 1.7Zm-11.7-.8-2.2 2.4c-.2.2-.6.4-.8.2l-3.6-1.6 2.3-2.5c.1-.1.6-.3.7-.1l3.6 1.6Zm-36 6.1a23982 23982 0 0 1 2.9-2.8l3.6 1.7c-.9.9-1.7 1.8-2.7 2.6l-.4.1c-1.1-.6-2.3-1.2-3.4-1.6Zm50-.3 2.2-2.5c.2-.1.5-.1.6-.3l3.8 1.8-2.7 2.9-4-2Zm-31.9-.2-2.4 2.6-.4.1c-1.2-.5-2.4-1-3.5-1.8l2.4-2.6h1c.7.7 1.7 1.1 3 1.7Zm-10.7-1 2.8-2.7 3.7 1.8-2.2 2.4c-.2.2-.6.3-.7.2-1.4-.4-2.4-1.1-3.6-1.7Zm44-7.1 2.2-2.5c.2-.1.6-.3.8-.1l3.6 1.6-2.4 2.6c-.2.1-.5.2-.6 0-1-.7-2.3-1.2-3.6-1.6Zm-7.3 1.2 2.4-2.6c.1-.2.4-.2.6 0l3.6 1.6-2.3 2.4c-.1.2-.6.3-.7.2l-3.6-1.6Zm13.8 11.3-2.4 2.6c0 .2-.5.4-.5.4l-3.6-1.7 2.4-2.6c.1-.1.5-.3.7-.1l3.4 1.4Zm-65.3-2.9a6347.3 6347.3 0 0 1 3-2.9c1.2.6 2.2 1 3.4 1.8-.8 1-1.7 1.8-2.5 2.5l-.8.1-3.1-1.5ZM727 268l2.3-2.5h.6l3.6 1.6-2.3 2.5-.5.3-3.7-2Zm-17 10.8-2.4 2.6c-.2.2-.5.2-.8.2l-3.6-1.6 2.4-2.6c.2-.2.5-.2.6 0 1.4.3 2.6.9 3.8 1.4Zm27-15.2a29758 29758 0 0 1 2.9-2.7l3.7 1.4-2.4 2.6c-.1.2-.4.2-.6 0-1 0-2.2-.6-3.6-1.3Zm-5.8 6.3 2.3-2.5.6-.3c1.2.6 2.4 1.1 3.9 1.6l-2.3 2.5-.7.2-3.8-1.5Zm-10 18.3 2.3-2.6.7-.1 3.5 1.5-2.4 2.6-.7.1-3.5-1.5ZM675 276.4l-2.4 2.6-.8.2c-1-.4-2-1.1-3.3-1.7l2.4-2.6c.2-.1.6-.3.8-.2l3.3 1.7Zm59.2-9.8 2.3-2.5.5-.3c1.2.6 2.4 1.1 3.8 1.5l-2.3 2.4c-.1.2-.4.2-.6 0a8 8 0 0 1-3.7-1.1Zm-1.5-4.8 2.4-2.6c.1-.2.4-.2.4-.2 1.2.6 2.4 1.1 3.8 1.5l-2.3 2.4c-.1.2-.4.2-.7.2-1-.4-2.3-1-3.6-1.3Zm-50.4 13.4-2.4 2.6c-.2.2-.4.2-.7.2l-3.4-1.7 2.4-2.5c.2-.2.5-.2.6 0 1.4.3 2.4 1 3.5 1.4Zm51.4 5-2.3 2.7-.8.2-3.4-1.5 2.4-2.6c.1-.2.5-.3.7-.2 1 .4 2 1 3.4 1.5Zm-28.4-8.7 2.4-2.6h.5l3.5 1.5-2.6 2.7c-.8-.2-1.8-.8-2.6-1l-1.2-.6Zm-11.5 4.4-2.4 2.6a2 2 0 0 1-.6.4c-1.2-.6-2.4-1.1-3.3-1.7l2.4-2.6.7-.2 3.2 1.5Zm36.2 2.3 2.4-2.6.4-.1 3.6 1.6-2.4 2.6c-.1.1-.6.3-.7.2l-3.3-1.7Zm-44.5-6.2-2.4 2.6c-.1.1-.2.3-.4.2l-3.6-1.7 2.4-2.6.7-.1c1 .7 2.1 1 3.3 1.6Zm-2.2 3a20 20 0 0 1 2.6-2.4c.1-.2.4-.2.7-.2l3.3 1.6-2.4 2.6c-.1.2-.4.2-.7.2-1.2-.5-2.4-1-3.5-1.8Zm53.2-11.2-2.3 2.5h-.6l-3.6-1.6 2.3-2.5c.1-.1.5-.3.7-.1 1 .7 2.1 1 3.5 1.7Zm-32.1 7.8L702 274c-.1.2-.6.3-.7.2l-3.5-1.5 2.4-2.6c.2-.2.5-.2.6 0l3.5 1.5Zm-7.5 1.3-2.2 2.4c-.2.2-.5.2-.8.2l-3.3-1.6 2.3-2.5.7-.2c1.2.6 2.3 1 3.3 1.7Zm8.7 3.8-2.4 2.6h-.6l-3.6-1.6 2.4-2.6c.2-.2.5-.2.5-.2l3.7 1.8Zm6.8-6.5 2.3-2.4c.1-.2.4-.2.7-.2l3.4 1.5-2.2 2.4c-.1.2-.4.2-.7.2l-3.5-1.5Zm-5-1.8-2.3 2.4-.8.2-3.4-1.5 2.3-2.5.7-.1 3.4 1.5Zm-14.5 2.4-2.3 2.5-.7.1c-1.2-.5-2.3-.9-3.3-1.6l2.2-2.4c.2-.2.6-.4.7-.2 1.1.7 2.2 1 3.4 1.6Zm24.7-6.5-2.2 2.4-.6.3-3.6-1.6 2.2-2.4c.2-.2.6-.4.8-.2 1.2.2 2.2 1 3.4 1.5Zm-22.8 11.5 2.4-2.6c.2-.2.5-.2.6 0l3.5 1.4-2.4 2.6c-.2.2-.5.2-.6 0-1.2-.2-2.3-.9-3.5-1.4Zm44.6-2-2.7 3-3.8-1.8 2.7-2.9 3.8 1.8Zm-3.5-2c.8-1 1.6-1.7 2.3-2.4.1-.2.4-.2.4-.2l3.6 1.6-2.4 2.6c-.1.2-.4.2-.6 0l-3.3-1.6Zm-71.3 9.1-2.7 2.6c-.2.2-.5.2-.6 0-1-.4-2.1-1-3-1.6l2.4-2.6c0-.2.4-.2.7-.2 1 .7 2 1.3 3.2 1.8Zm35.4-11.4-2.4 2.6c-.1.2-.4.2-.4.2l-3.6-1.6 2.2-2.5c.2-.1.6-.3.8-.2l3.4 1.5Zm-45.3 16c.9-1 1.7-2 2.6-2.5.1-.2.5-.4.7-.2l3.2 1.5-3 2.9c-1-.7-2.3-1.2-3.5-1.8Zm17-11.2c1-1 1.6-1.7 2.6-2.5.2-.1.6-.3.8-.1l3.1 1.5-2.4 2.6c-.1.1-.6.3-.7.1l-3.3-1.6Zm36.5-6 2.3-2.4c.1-.2.5-.3.7-.2l3.6 1.6-2.3 2.5-.7.1-3.6-1.6Zm19.4-8.4-2.1 2.3a2 2 0 0 1-.6.3l-3.6-1.6 2.3-2.5.4-.1 3.6 1.6Zm-45.4 10.2 2.3-2.5c.1-.1.5-.3.7-.2l3.4 1.5-2.2 2.5c-.1.1-.6.3-.7.1l-3.5-1.4Zm13.6-2.5-2.2 2.5-.8.1-3.4-1.4 2.4-2.6c.1-.2.4-.2.7-.2 1 .7 2.3 1.2 3.3 1.6Zm30.5.5-2.2 2.4c-.2.2-.5.2-.8.2l-3.4-1.5 2.2-2.5.5-.1c1.3.4 2.4.8 3.7 1.5Zm-45 2-2.4 2.6-.4.2-3.3-1.7 2.5-2.4c.2-.2.5-.2.6 0 1 .2 1.8.8 3 1.3Zm43.5-7.1-2.3 2.4c-.1.2-.4.2-.6 0l-3.4-1.5 2.2-2.4c.2-.2.6-.3.8-.2.9.6 2 1.1 3.3 1.7Zm-57 14.7c-.8 1-1.5 1.7-2.5 2.4-.2.2-.6.4-.8.2l-3.1-1.5 2.8-2.7 2.9 1.2c.1.1.3.3.7.4ZM722 266l-2.3 2.5-.4.1-3.6-1.6 2.2-2.4c.2-.2.5-.2.8-.2l3.3 1.6Zm.7-.2 1.4-1.5c1.1-1.2 1.1-1.2 2.5-.5l2.4 1-2.3 2.5c-.1.2-.5.3-.7.2l-3.3-1.7Zm18.8-.4 2.3-2.4c.1-.2.4-.2.7-.2l3.5 1.5-2.3 2.4c-.1.2-.6.3-.9 0-.9-.2-2-.8-3.3-1.3Zm-56 1.4 2.4-2.6h.6l3.3 1.4-2.4 2.6h-.6a9.2 9.2 0 0 1-3.3-1.4Zm11.2.8 2.3-2.5h.5l3.5 1.5-2.3 2.4c-.1.2-.5.4-.7.2a32 32 0 0 0-3.3-1.6Zm7.3-1.2 2.3-2.4c.1-.2.4-.2.6 0l3.4 1.4-2.3 2.5c0 .1-.5.3-.7.2l-3.3-1.7Zm-5-1.8-2.2 2.2c-.1.2-.6.4-.7.2l-3.3-1.3 2.4-2.6c.1-.2.4-.2.6 0l3.1 1.5Zm15.1-2.4 2.3-2.4c.1-.2.4-.2.6-.4l3.6 1.7-2.3 2.4c-.1.2-.4.2-.7.2l-3.5-1.5Zm-18.5.4 2.3-2.4c.1-.2.4-.2.7-.2 1 .4 2.2 1 3.3 1.3l-2.4 2.6c-.2.2-.4.2-.6 0l-3.3-1.3Zm28.7-4.6 2.2-2.5.8-.1 3.4 1.4-2.2 2.5-.8.2c-1.3-.4-2.2-1-3.4-1.5Zm-32.7 2.9 2.2-2.5.7-.2 3.3 1.4-2 2.3c-.2.1-.7.3-.8.2-1.3-.1-2.4-.8-3.4-1.2Zm28.3-4.7 2.3-2.4c.1-.2.4-.2.6 0l3.4 1.4-2.2 2.5c-.2.1-.6.3-.8.2-1-.7-2-1.1-3.3-1.7Zm12.2 5.6c-.8 1-1.6 1.7-2.3 2.4-.1.2-.5.4-.7.2l-3.4-1.5 2.2-2.4c.2-.2.5-.2.7-.2l3.5 1.5Zm2.8-3-2.2 2.4c-.2.1-.5.1-.6.3l-3.8-1.5 2.3-2.4c.1-.2.6-.3.7-.2 1.2.3 2.4.8 3.6 1.3Zm-64 15.5-2.4 2.6c-.1.2-.6.3-.7.2l-3.2-1.5 2.6-2.5.7-.1c1 .4 2 1 3 1.3Zm23.8-11.6-2.2 2.4-.6.3-3.5-1.5 2.3-2.4c.1-.2.4-.2.7-.2l3.3 1.4Zm21.5-3.4-2.2 2.5a2 2 0 0 1-.6.3l-3.4-1.5 2.2-2.5.7-.1c1 .2 2.1.8 3.3 1.3Zm-10.3 4.1-2.3 2.6-.5.2-3.4-1.5 2.4-2.6c.1-.2.4-.2.4-.2l3.4 1.5Zm1.2 0 2.3-2.5.7-.2 3.5 1.5-2.3 2.5-.7.1c-1.4-.4-2.6-.9-3.5-1.4Zm-22.7 3.6-2.2 2.5c-.1.1-.6.3-.7.1-1-.4-2.3-.9-3.3-1.6l2.4-2.3.7-.2 3.1 1.5Zm18.4-5.4 2.1-2.3c.1-.1.6-.3.7-.2l3.3 1.4-2.2 2.4c-.2.2-.5.2-.8.2l-3.1-1.5Zm37-1.1 2-2.2.6-.3c1.2.6 2.4 1 3.7 1.5l-2 2.3-.8.1c-.9-.2-2.1-.8-3.5-1.4Zm-32-5-2.2 2.5-.8.1-3.4-1.4c.8-1 1.5-1.7 2.4-2.3.1-.2.4-.2.4-.2l3.6 1.3Zm37.5 12-2.3 2.4c-.1.2-.5.3-.7.2l-3.4-1.5 2.2-2.4c.2-.2.4-.2.7-.2l3.5 1.5ZM722 253.3l-2 2.3c-.2.2-.7.4-.8.2l-3.5-1.5 2.3-2.4c.1-.2.4-.2.7-.2a32 32 0 0 0 3.3 1.7Zm-48 18-2.4 2.6h-.6l-3.1-1.5c.8-1 1.8-1.7 2.7-2.6.1-.2.4-.2.6 0l2.8 1.5Zm31.7-12.9 2.3-2.4c.1-.2.4-.2.7-.2l3.3 1.3-2.2 2.5-.8.1c-1.2-.2-2-.8-3.3-1.3Zm6-5.8 2.2-2.5.8-.1 3.3 1.3-2.1 2.3c-.2.1-.6.3-.8.2a9 9 0 0 1-3.4-1.2Zm11.7 5.4-2.3 2.5c-.1.1-.4.1-.5.3l-3.5-1.5 2.3-2.5c.1-.1.5-.3.7-.1l3.3 1.3Zm-36 5.8-2.2 2.5c-.2.1-.6.3-.8.1L681 265c.8-1 1.5-1.7 2.4-2.3.1-.2.4-.2.7-.2 1.4.4 2.3 1 3.3 1.3Zm7.3-6 2.2-2.4c.2-.2.5-.2.8-.2l3.4 1.5c-.8.9-1.5 1.6-2.4 2.3l-.7.1c-1.2-.2-2.4-.7-3.3-1.3Zm3.9 2 2.2-2.5c.2-.2.5-.2.5-.2l3.4 1.5-2.2 2.4c-.2.2-.5.2-.5.2l-3.4-1.5Zm-5.1-2-2.3 2.5-.4.2-3.4-1.5 2.2-2.5h.6c1.3.4 2.2 1 3.3 1.3Zm-16 10.4c-1 .9-1.8 1.8-2.6 2.4-.2.2-.5.2-.5.2l-3.3-1.6 2.9-2.8c1 .7 2 1.1 3.4 1.8Zm35.4-10.8 2.3-2.5.4-.1 3.5 1.5-2.3 2.4c-.1.2-.4.2-.7.2-1-.6-2.1-1.1-3.2-1.5Zm-2.1-4.8-2.3 2.5-.7.1c-1-.4-2.2-1-3.3-1.3l2.3-2.5.7-.1 3.3 1.3Zm-7.2 1-2.4 2.6c-.1.2-.4.2-.6 0l-3.3-1.3 2.3-2.4c.1-.2.4-.2.4-.2l3.6 1.3Zm-19.2 8.3c.8-1 1.5-1.7 2.4-2.3.1-.2.4-.2.6 0l3.4 1.4-1 1.1c-1.5 1.7-1.5 1.7-3.5.7-.9-.2-1.3-.6-2-1Zm-7 1.4 2.2-2.4c.2-.2.5-.2.8-.2 1 .4 2 1.1 3.1 1.5-.8 1-1.7 1.5-2.5 2.5h-.6c-1-.6-2-1-3-1.4Zm67-1 2-2.2c.2-.2.5-.2.6-.4 1.2.6 2.3 1 3.8 1.5l-2.1 2.3c-.2.2-.6.3-.8.2a18 18 0 0 1-3.6-1.3Zm-54-6.4 2.3-2.4c.2-.2.5-.2.8-.2l3.2 1.3-1.2 1.4c-1.3 1.4-1.3 1.4-3 .6l-2-.7Zm23-6.2-2.2 2.4c-.1.2-.4.2-.4.2l-3.5-1.5 2.2-2.3.7-.1c1.2.2 2.4.8 3.3 1.3Zm-29.8 7.5c.8-1 1.5-1.7 2.3-2.4l.5-.4 3.5 1.5c-.9 1-1.6 1.7-2.4 2.3-.2.2-.6.3-.8.2a9.8 9.8 0 0 1-3.1-1.2Zm53.9-1.2a4777.4 4777.4 0 0 0-2.6 2.4l-3.7-1.4 2-2.3c.2-.2.5-.2.7 0 1.2.2 2.4.7 3.6 1.3Zm-22.6-1.6-2.3 2.4c-.1.2-.4.2-.4.2l-3.5-1.5 2.3-2.5.7-.1 3.2 1.5Zm20.7 4.2 2.2-2.3c.1-.2.4-.2.5 0 1.2.5 2.4 1 3.8 1.4l-2 2.2c-.1.1-.6.3-.7.1-1.4-.4-2.6-.9-3.8-1.4Zm-61.5 7.7c.9-1 1.6-1.7 2.6-2.5.1-.2.4-.2.5 0l3.2 1.5-2.7 2.6-3.6-1.6Zm29.2-17.2 2.1-2.3c.1-.2.6-.3.7-.2l3.3 1.3-2.2 2.5a57.3 57.3 0 0 1-3.9-1.3Zm-2.8 2.7 2-2.3.7-.3 3.2 1.4-2.2 2.4c-.1.2-.4.2-.6 0-1 0-2-.6-3.1-1.2Zm-13.9 7.3c-.8 1-1.7 1.6-2.5 2.5-.2.1-.5.2-.6 0-1-.4-2-1-3-1.3l2.2-2.5c.2-.1.6-.3.8-.2l3.1 1.5Zm-.2-5c.9-.9 1.4-1.5 2.3-2.1.1-.2.6-.3.6-.3 1 .4 2.2 1 3.3 1.3l-2.2 2.3c-.1.2-.5.3-.7.2-1.2-.3-2-.8-3.3-1.4Zm13.3-2c-.8.8-1.5 1.6-2.4 2.2-.1.2-.4.2-.6.3l-3.2-1.3 2-2.3c.2-.2.6-.3.8-.2 1 .1 2.2.7 3.4 1.2Zm5.7-6-2.4 2.4a57 57 0 0 1-3.9-1.3l2.1-2.3c.1-.2.4-.2.7-.2l3.5 1.5Zm-9 4 2.1-2.3c.2-.2.6-.3.8-.2l3.3 1.4c-.9.9-1.8 1.5-2.5 2.3h-.5a9.8 9.8 0 0 1-3.2-1.2Zm-4-1.8 2.4-2.3.4-.2 3.2 1.5-2.2 2.3c-.1.2-.5.4-.7.2l-3.1-1.5Zm34.6 6.8 2-2.2.7-.1 3.4 1.4-2 2.2-.7.2c-1.2-.6-2.1-1.1-3.4-1.5Zm-37.6-3.9 2.4-2.3h.6c1 .4 2 .8 3.1 1.5l-2 2.3c-.2.1-.6.3-.8.2l-3.3-1.7Zm5.8-5.6c.8-1 1.7-1.6 2.4-2.3.1-.2.4-.2.4-.2l3.3 1.3-2 2.3c-.2.2-.7.3-.8.2l-3.3-1.3Zm33.7 6.7-2 2.2-.7.2-3.4-1.5 1.8-2c.1-.2.6-.3.7-.2 1.2.3 2.4.8 3.6 1.3Zm-10.2-.9 2-2.1c.1-.2.4-.2.4-.2l3.5 1.5-2 2.1c-.1.2-.4.2-.6 0l-3.3-1.3Zm-4.3-1.7 1.8-2c.1-.2.4-.2.7-.2l3.3 1.4-2 2c0 .2-.4.3-.7.3-.9-.6-2-1-3.1-1.5Zm-4-1.8 1.9-2.1c.1-.2.3 0 .4-.2l3.5 1.5-1.9 2-.7.2a57 57 0 0 1-3.3-1.4Zm1.6-2.4-1.7 1.8c-.2.2-.6.3-.7.2l-3.3-1.3c.5-.7 1-1.3 1.7-1.9.1-.1.5-.3.7-.2l3.3 1.4Zm-4-1.8a11 11 0 0 1-2 1.9h-.6l-3.3-1.3 1.8-2c.1-.2.4-.2.6 0l3.4 1.4Zm-4.3-1.6c-.5.6-1 1.3-1.7 1.9 0 .1-.5.3-.7.1l-3.3-1.3 2-1.9h.6l3.1 1.2ZM605.4 262l44.3 22.1c1-1.2 2.4-2.3 3.5-3.5l30.4-30.5 11.3-11.3c.7-.8.6-1-.2-1.3L651.3 220c-.6-.3-1 0-1.5.4l-18 17c-7.2 7-14.6 13.7-21.8 20.3-1.6 1.4-3 2.6-4.6 4.3Zm43.9 16.4 2.4-2.6c.1-.1.4-.2.6 0l3.1 1.5-2.5 2.4c-.2.2-.5.2-.6 0-1.2-.2-2.1-.7-3-1.3Zm-4-1.9c1-1 2-1.7 2.6-2.5h.6c1 .4 2 1 2.9 1.5l-2.4 2.6c-.2.2-.5.2-.6 0-1-.6-2.1-1-3-1.6Zm3.2-3c.8-1 1.8-1.8 2.5-2.5.2-.2.5-.2.6 0l3.2 1.5c-.9.9-1.7 1.8-2.6 2.4-.1.2-.4.2-.6 0l-3.1-1.5Zm3.9 1.8 2.4-2.6h.6l3.1 1.5c-.8 1-1.8 1.7-2.7 2.6-.1.2-.4.2-.5 0l-3-1.5Zm5.3-6-2.5 2.4c-.2.2-.3.3-.5.2-1.2-.6-2.2-1-3.3-1.7l2.6-2.4c.1-.2.4-.2.6 0 1 .3 2 .9 3.1 1.4Zm-10 4.3c-.8 1-1.8 1.7-2.6 2.6-.2.2-.3 0-.5.2l-3.1-1.5 2.2-2.5c.2-.1.6-.3.8-.1 1.1.2 2.2.6 3.3 1.3Zm13.1-7.4c-.8.9-1.6 1.8-2.5 2.4-.1.2-.4.2-.6 0-1-.3-2-.9-3.1-1.4.8-1 1.8-1.7 2.5-2.5.1-.1.4-.2.6 0l3.1 1.5Zm-10 4.3c-.8 1-1.8 1.7-2.5 2.5-.1.2-.4.2-.4.2l-3.2-1.5c.9-1 1.6-1.7 2.4-2.3.2-.2.6-.4.8-.2.9.2 1.9.6 3 1.3Zm-4.6 11 2.2-2.5.5-.1 3.3 1.6c-.9 1-1.6 1.7-2.4 2.3-.2.2-.6.3-.8.2-.9-.6-2-1-2.8-1.5Zm9.1-9.4 2.6-2.4c.1-.2.4-.2.7-.2l3 1.4-2.8 2.7c-1.2-.2-2.3-1-3.5-1.5Zm11.8-12-2.4 2.3-.8.1-3.1-1.5 2.5-2.4c.2-.2.5-.2.6 0l3.2 1.4Zm-23.3 11.6-2.2 2.4c-.2.2-.4.2-.7.2l-3.2-1.5c.8-.9 1.8-1.7 2.6-2.4 0-.2.4-.2.5 0 1 .3 2.1.7 3 1.3Zm20-13.6 2.5-2.4c.1-.2.4-.2.6 0 1 .3 2 .7 3 1.3l-2.4 2.6c-.1.1-.4.2-.6 0l-3.1-1.5Zm-9.8 9.4-2.6 2.4c-.1.2-.4.2-.6 0-1-.3-2-.9-3.1-1.4a20 20 0 0 1 2.5-2.5c.2-.1.5-.2.6 0l3.2 1.5Zm3.8-3.3 2.4-2.3h.6l3.2 1.5c-.9 1-1.6 1.7-2.6 2.5h-.6c-1-.7-2-1.3-3-1.7Zm-9.5 14.4L646 281c-.1.2-.4.2-.6 0-1-.3-2.1-1-3.1-1.4l2.6-2.6c1.2.5 2.3.9 3.4 1.6Zm-3.7-2c-.8 1-1.5 1.8-2.4 2.4l-.4.1c-1-.4-2-1-2.9-1.5l2.3-2.4c.1-.2.4-.2.7-.2.6.6 1.5 1.1 2.7 1.7Zm-3.8-6.8 2.6-2.5c.1-.2.4-.2.6 0 1 .4 2 1 3 1.3l-2.4 2.6c-.2.2-.5.2-.8.2-1-.7-1.8-1.1-3-1.6Zm23.6-2-2.3 2.6c-.2.2-.5.2-.5.2l-3.1-1.5c.8-1 1.8-1.7 2.5-2.5h.6l2.8 1.2Zm9.4-9.2-2.3 2.5c-.1.1-.5.3-.7.1l-3.2-1.5 2.5-2.3c.1-.1.5-.3.7-.1 1 .4 2 1 3 1.3ZM634 271c.8-1 1.7-1.5 2.5-2.5h.6l3 1.4c-.8.9-1.5 1.7-2.5 2.4-.2.2-.5.2-.6 0-.9-.2-1.8-.8-3-1.3Zm3.1-3c.8-1 1.8-1.8 2.6-2.5 0-.2.4-.2.4-.2l3 1.4-2.6 2.4c-.1.2-.4.2-.5 0-.8 0-1.8-.5-2.9-1.2Zm27.5-5 2.5-2.4c.2-.2.5-.2.5-.2l3 1.4-2.3 2.4c-.1.2-.6.3-.7.2l-3-1.4Zm-13.9 2.5c.8-1 1.7-1.5 2.5-2.5h.6l3.2 1.5-2.6 2.5h-.5l-3.2-1.5Zm-.7.2-2.4 2.3-.8.1c-1-.4-2-1-3-1.3a20 20 0 0 1 2.6-2.5h.6l3 1.4Zm11.5.4c.8-1 1.8-1.7 2.5-2.5h.6l3 1.4-2.4 2.6h-.6c-1-.7-2-1-3.1-1.5Zm-20.9 8.8-2.2 2.4c-.2.2-.6.3-.8.2l-3.1-1.5c.8-1 1.5-1.7 2.4-2.3.1-.2.4-.2.7-.2 1 .4 2.1.8 3 1.4Zm16.2-15.4 2.5-2.4c.2-.2.5-.2.5-.2l3.1 1.5c-.8 1-1.7 1.5-2.5 2.4-.2.2-.5.2-.6 0l-3-1.3Zm-9.7 4.4 2.3-2.5.7-.2 3 1.4-2.6 2.5h-.6l-2.8-1.2Zm22.6-11.7 2.6-2.4c.1-.2.4-.2.6 0l3 1.3-2.3 2.5c-.1.1-.6.3-.7.1l-3.2-1.5Zm7 3.6-2.2 2.3-.5.3c-1-.4-2.1-.8-3-1.4l2.2-2.4c.2-.1.6-.3.8-.2.7.4 1.8.8 2.7 1.4Zm-36.5 9 2.6-2.4.4-.2 3.2 1.5c-.9 1-1.6 1.7-2.5 2.3 0 .2-.5.4-.7.2a7 7 0 0 1-3-1.3Zm19.7-8.4c.8-.9 1.5-1.6 2.4-2.3l.7-.1c1 .4 2 1 3 1.3-.8 1-1.8 1.7-2.5 2.5h-.6c-.9-.3-1.8-.8-3-1.4Zm19.9-3.7-2.6 2.5-.7.2-2.9-1.3 2.3-2.4c.1-.2.4-.2.7-.2l3.2 1.2Zm-13 2.4 2.5-2.4c.2-.2.5-.2.5-.2 1 .4 2 .8 3 1.4l-2.3 2.4c-.1.2-.4.2-.6 0-1 0-2-.6-3.1-1.2Zm-10.8-.3 2.4-2.3.6-.3c1 .4 2 .8 3.1 1.5-.8 1-1.5 1.7-2.4 2.3-.1.2-.4.2-.7.2l-3-1.4Zm3.2 1.8-2.6 2.5h-.6l-3-1.4 2.3-2.4c.1-.2.4-.2.7-.2 1.2.6 2.1 1.1 3.2 1.5ZM637 272.8c-.8 1-1.5 1.7-2.4 2.3-.1.2-.4.2-.4.2-1-.4-2-1-2.9-1.5l2.3-2.4c.1-.2.4-.2.6 0l2.8 1.4Zm6.3-10.8 2.2-2.3.5-.3 3.2 1.5c-.9.9-1.6 1.7-2.4 2.3-.2.1-.6.3-.8.2-.7-.4-1.6-1-2.7-1.4Zm10.5.3 2.6-2.4c.1-.2.4-.2.4-.2l3.2 1.5-2.6 2.5h-.6c-.9-.3-1.8-.8-3-1.4Zm2.4-2.9c-.8 1-1.7 1.6-2.6 2.5 0 .1-.4.2-.5 0-1-.4-2-1-2.9-1.2l2.3-2.4c.1-.2.4-.2.7-.2.9.5 2 1 3 1.3Zm9.8-8.7 2.3-2.5h.5l3.2 1.2c-.9 1-1.6 1.7-2.6 2.5h-.6l-2.8-1.2Zm3 1.6c-.8 1-1.7 1.5-2.5 2.5h-.6l-3-1.4c.8-.9 1.5-1.6 2.4-2.3l.7-.1c1 .4 2 1 3 1.3Zm3.7-3 2.4-2.4h.6c1 .4 2.1.8 3 1.4l-2.2 2.4c-.2.1-.5.2-.6 0l-3.2-1.5Zm-7.4 1.2c-.9 1-1.6 1.7-2.5 2.3-.1.2-.5.4-.7.2-1-.4-2-1-3-1.3l2.4-2.3c.2-.2.5-.2.6 0l3.2 1.1Zm-29 17.4-2.3 2.4c-.2.2-.5.2-.6 0-1-.4-1.8-.8-2.9-1.5.9-.9 1.6-1.7 2.4-2.3l.8-.2c.7.8 1.8 1.2 2.5 1.6Zm16-10-2.1 2.2c-.2.2-.6.3-.7.2l-3-1.4c.8-.9 1.5-1.7 2.4-2.3l.7-.1c.7.4 1.7 1 2.7 1.3Zm3.1-3.1-2.1 2.2c-.1.2-.6.4-.7.2-1-.4-2-1-3-1.3.8-1 1.7-1.6 2.4-2.3.1-.2.4-.2.7-.2a9 9 0 0 0 2.7 1.4Zm26.6-9.8-2.3 2.5-.4.1-3.3-1.3c.8-1 1.7-1.5 2.4-2.3.1-.2.4-.2.7-.2l2.9 1.2Zm-7.2 1.3-2.3 2.5-.4.2a58 58 0 0 1-3.3-1.4c.9-1 1.6-1.7 2.4-2.3l.8-.2 2.8 1.2Zm-16.4 5.5-2.3 2.5-.4.1-3.2-1.5 2.6-2.4c.1-.2.4-.2.6 0 .7.4 1.6 1 2.7 1.3Zm24.3-2-2.4 2.2c-.1.2-.4.2-.4.2-1-.4-2-.8-3-1.4 2.4-2.9 2.4-2.9 5.5-1.4l.3.3Zm-14.5-2.2c-.8 1-1.5 1.7-2.5 2.5l-.5.1-3.3-1.3 2.6-2.5.4-.1 3.3 1.3Zm-31.5 20.1-3.2-1.5c.8-1 1.7-1.5 2.4-2.3l.6-.3c1 .4 2 1 3 1.3-1 1.1-1.8 2-2.8 2.8Zm42.1-24.5 2.4-2.3.6-.3 3.1 1.2-2 2.3c-.2.2-.7.3-.8.2-1.2 0-2.1-.5-3.3-1Zm-14.3 3-2.4 2.3h-.6c-1-.4-2-1-2.9-1.2l2.3-2.5.7-.2 2.9 1.6Zm17.1-5.7c.9-1 1.7-1.6 2.3-2.2.1-.1.3-.3.6-.3l3.1 1.2-2.1 2.3c-.1.2-.6.3-.7.2-1-.3-1.8-.8-3.2-1.2Zm-3.8 3-2.1 2.2-.6.3-3.3-1.3c.8-1 1.5-1.7 2.3-2.2 0-.1.5-.3.7-.1 1.2.2 2.2.6 3 1ZM636.7 263l2.4-2.3h.6l3 1.4-2.5 2.4c-.2.2-.5.2-.6 0l-2.9-1.5Zm-3.5 7.8-2.1 2.3c-.1.2-.6.3-.6.3-1-.4-2-1-2.8-1.5.8-.9 1.5-1.6 2.4-2.3h.6l2.5 1.2Zm22.3-20.7c.8-1 1.5-1.7 2.4-2.3.1-.2.4-.2.4-.2l3.3 1.4-2.4 2.3-.7.1c-1-.5-2-1-3-1.3ZM636 263.3c-.9 1-1.6 1.7-2.4 2.3-.2.2-.5.2-.5.2l-3-1.4c.9-.9 1.6-1.7 2.4-2.3l.8-.2c.7.5 1.8.9 2.7 1.4Zm-3 3-2.5 2.4h-.6c-1-.5-1.8-.8-2.9-1.5l2.4-2.3c.2-.2.5-.2.6 0l3 1.3Zm38.3-21.6c-.8 1-1.6 1.7-2.4 2.3-.2.2-.4.2-.7.2L665 246l2.4-2.3c.2-.2.5-.2.6 0 1.2.2 2.3.6 3.3 1Zm3-2.9c-.9 1-1.6 1.7-2.4 2.3-.2.2-.5.2-.8.2L668 243c.8-1 1.5-1.7 2.4-2.3.1-.2.4-.2.6 0 1.2.2 2.2.6 3.3 1Zm-50.9 23.8c.9-1 1.6-1.7 2.4-2.3.2-.2.5-.2.7-.2 1.1.4 1.9.8 3 1.5-1 1-1.8 1.5-2.5 2.3-.1.2-.4.2-.6.3l-3-1.6Zm3.1-2.8 2.6-2.5h.6c1 .4 1.8.8 2.7 1.4l-2.6 2.4c-.1.2-.4.2-.6 0-.9-.5-1.6-.9-2.7-1.3Zm54.3-22.3-2 2.3c-.2.2-.5.2-.5.2l-3.3-1.4c.8-.9 1.5-1.7 2.3-2.1.1-.2.4-.2.7-.2l2.8 1.2Zm4.9 6.2-2.3 2.4c-.1.2-.4.2-.4.2-1-.4-2.1-.8-3-1.4l2-2.3c.2-.1.7-.3.8-.2 1 .4 2 .7 2.9 1.3Zm-7.9-7.8 2.4-2.3c.2-.2.5-.2.5-.2l3.1 1.2-2.1 2.3-.7.2-3.2-1.2Zm-32 20.2c-.8 1-1.5 1.7-2.4 2.3-.1.2-.4.2-.4.2l-3-1.4c.8-.9 1.5-1.7 2.4-2.3.1-.1.6-.3.7-.2.6.3 1.5.9 2.7 1.4Zm3.1-7.6c.8-1 1.7-1.6 2.4-2.3.1-.2.4-.2.6 0l3 1.3-2.4 2.3c-.2.2-.4.2-.6 0-1-.4-2-1-3-1.3Zm12.5-7.1c.9-1 1.6-1.7 2.3-2.2l.6-.3 3.1 1.2c-.8 1-1.7 1.5-2.4 2.3-.1.2-.4.2-.7.2l-2.9-1.2Zm-35.1 23-2.4 2.3-.8.2c-.7-.5-1.8-.9-2.7-1.4l2.7-2.6 3.2 1.5Zm-2.4 2.9c.8-1 1.7-1.6 2.4-2.3.2-.2.4-.2.6 0 1 .3 1.8.8 2.7 1.3-.8 1-1.7 1.5-2.4 2.3-.1.2-.4.2-.6 0l-2.7-1.3Zm15-9.9c-.8 1-1.6 1.5-2.4 2.3 0 .2-.4.2-.7.2-1-.4-1.8-.8-2.7-1.4l2.4-2.3c.2-.1.5-.2.6 0 1 0 2 .6 2.9 1.2Zm38.2-21.4c-.8 1-1.7 1.6-2.4 2.3-.1.2-.4.2-.4.2l-3.3-1.3c.8-1 1.4-1.6 2.2-2.2l.6-.3 3.3 1.3Zm3-2.9c-.9 1-1.7 1.6-2.3 2.2l-.6.3-3.1-1.2 2.1-2.3c.1-.2.4-.2.6 0 1.2.2 2.2.6 3.3 1Zm-57 25c.8-1 1.7-1.6 2.4-2.4l.7-.2 3 1.4c-.8 1-1.8 1.7-2.7 2.6-1.3-.4-2.2-1-3.4-1.5Zm2.8 1.7-2.2 2.2-.9.3c-.9-.3-1.8-.8-2.8-1.5 1-.8 1.8-2 2.7-2.3.7-.2 1.6.6 2.6 1l.6.3Zm65.9-22.1-2.2 2.3c-.1.1-.2.3-.5.3l-3.2-1.2 2.1-2.3c.2-.2.5-.2.8-.2l3 1Zm-56.3 18-2.4 2.2c-.2.2-.4.2-.6 0l-2.7-1.3c.8-1 1.5-1.7 2.4-2.3.1-.2.4-.2.7-.2.6.6 1.5 1.1 2.6 1.5Zm47.4-13.7 2.2-2.3.7-.2c1 .4 2 .8 3 1l-2.3 2.5c-.1.2-.4.2-.6 0-1 0-2-.6-3-1Zm-40.8 12.3-2.4 2.3c-.2.2-.5.2-.5.2l-3-1.4 2.4-2.3h.6c1 .3 1.8.8 2.9 1.2Zm3.7-3c.8-1 1.7-1.6 2.4-2.4l.4-.1c1 .4 2 1 3 1.3-.8 1-1.5 1.7-2.4 2.3-.1.2-.6.4-.7.2l-2.7-1.4Zm5.3-5.6c-.8 1-1.7 1.6-2.4 2.3-.1.2-.4.2-.7.2l-3-1.3c.8-1 1.7-1.6 2.4-2.3.1-.2.4-.2.6 0 1.2.2 2 .4 3.1 1.1Zm19.4-8.4c-.8 1-1.7 1.6-2.4 2.3-.1.2-.4.2-.7.2l-3-1.4c.8-.9 1.5-1.6 2.3-2.1.1-.2.4-.2.5 0 1 0 2.1.5 3.3 1Zm-21.9 15.8-2 2.2c-.2.2-.6.4-.8.2-1-.4-2-1-3-1.3.8-1 1.4-1.6 2.3-2.2.1-.1.5-.3.7-.2l2.8 1.3ZM620 268.4c-1-.4-2.1-1.1-3-1.7.8-1 1.5-1.7 2.2-2.1.2-.2.6-.4.8-.2.9.2 1.8.8 2.7 1.3-.9 1-1.7 1.9-2.7 2.7Zm47.4-29.9 2.2-2.1c.2-.2.3-.3.5-.2l3.3 1.4-2.3 2.1c-.1.2-.6.3-.7.2l-3-1.4Zm8.8-4-2.1 2.3c-.2.2-.6.3-.8.2l-3.1-1.2c.8-1 1.7-1.6 2.4-2.3.1-.2.4-.2.6 0l3 1ZM652 248.7l2.3-2.4c.1-.2.4-.2.6 0 1 .3 1.8.8 3 1.3l-2.4 2.3c-.2.1-.5.2-.6 0-1.2-.5-2-1-2.9-1.2Zm-9.8 4c.8-1 1.7-1.6 2.4-2.4h.6l2.8 1.2c-.8 1-1.5 1.7-2.4 2.3-.1.2-.4.2-.6 0-.9-.2-1.6-.6-2.8-1.2ZM626 258c.9-1 1.8-1.5 2.5-2.3.1-.2.4-.2.5 0l2.9 1.2c-.9 1-1.7 1.5-2.3 2.1-.1.2-.6.4-.7.2-.9-.2-1.8-.8-2.9-1.2Zm13.2-2.6c.8-.9 1.5-1.6 2.4-2.3l.7-.1c1 .2 1.8.8 2.9 1.2l-2.4 2.3-.8.1c-.8-.2-1.6-.6-2.8-1.2Zm21.5-11c-.9 1-1.6 1.7-2.4 2.3-.2.2-.5.2-.8.2-.8-.2-1.8-.8-2.8-1.2.8-1 1.6-1.7 2.4-2.3.1-.2.4-.2.6 0 1 0 2 .6 3 1Zm-22.2 11.2L636 258c-.2.2-.5.2-.6 0l-2.7-1.3c.8-1 1.7-1.6 2.4-2.3.1-.2.5-.4.7-.2.8.7 1.5 1.1 2.6 1.5Zm-9.5-.5 2.4-2.3c.2-.2.5-.2.6 0l2.9 1.2c-.9.9-1.6 1.7-2.4 2.3h-.6l-2.9-1.2Zm6.1-5.7c.9-1 1.7-1.5 2.3-2.1.1-.2.4-.2.7-.2l2.9 1.2-2.2 2.3c0 .1-.5.3-.7.2l-3-1.4Zm3-3 2.3-2c.1-.2.4-.2.7-.2.9.2 1.8.8 2.8 1.2l-2.4 2.3h-.6l-2.8-1.2Zm-21.5 15.7c.9-1 1.6-1.4 2.3-2.2.2-.2.6-.3.7-.2 1 .3 1.8.8 2.7 1.4-.8 1-1.7 1.5-2.4 2.3l-.7.2c-.8-.7-1.7-1-2.6-1.5Zm28-12.2-2.4 2.3-.6.3-3-1.3c.8-1 1.5-1.7 2.2-2.2.2-.1.6-.3.8-.1 1 0 2 .5 3 1Zm9.5-4.2c-.8 1-1.7 1.6-2.4 2.3-.1.2-.4.2-.4.2l-3-1.4c.8-.9 1.4-1.5 2.2-2.1.2-.2.6-.3.8-.2l2.8 1.2Zm3-2.9-2.4 2.3c-.2.2-.5.2-.6 0l-2.9-1.2c.9-.9 1.4-1.5 2.3-2.1.1-.2.6-.3.7-.2 1 .3 1.8.8 2.9 1.2Zm-37.5 16.3 2.4-2.3h.6c1 .3 1.8.8 2.7 1.4l-2.4 2.3c-.1.1-.6.3-.9 0l-2.4-1.4Zm-.4 4.8c-.8.9-1.5 1.6-2.2 2.1-.2.2-.6.3-.8.2l-2.5-1.2c.8-1 1.7-1.6 2.5-2.5.2-.1.3 0 .5-.2.6.6 1.6 1 2.5 1.6Zm22.2-11.2c-.8 1-1.7 1.5-2.4 2.3-.1.2-.4.2-.6 0-.9-.2-1.8-.8-2.8-1.2.8-1 1.7-1.5 2.4-2.3.1-.2.4-.2.6 0 1 .4 2 .6 2.8 1.2Zm6.1-5.7c-.8 1-1.7 1.5-2.4 2.3-.1.2-.4.2-.4.2l-3-1.4 2.4-2.3.7-.2c.8.5 1.7 1 2.7 1.4Zm-34.3 13.3c.8-1 1.7-1.6 2.4-2.3.1-.2.4-.2.6 0l2.7 1.3c-.7.8-1.4 1.5-2.3 2.2-.1.1-.6.3-.7.1a12 12 0 0 1-2.7-1.3Zm34.3-17.9c.8-.9 1.7-1.5 2.3-2.1.1-.2.4-.2.5-.3l3 1.3c-.8 1-1.5 1.7-2.2 2.2-.2.1-.6.3-.8.2-.7-.5-1.8-.9-2.8-1.3Zm-3.5-1.4c.9-1 1.8-1.6 2.5-2.3.1-.2.4-.2.7-.2.9.2 1.8.8 2.7 1l-2.1 2.3c-.2.2-.6.4-1 0-1 0-1.7-.4-2.8-.8Zm-11.7 11.2c.8-1 1.5-1.4 2.3-2.2.1-.1.4-.1.5-.3l3 1.4-2.4 2.3h-.6c-1-.4-2-.7-2.8-1.2Zm31.2-10.8a4777.4 4777.4 0 0 1-2.5 2.4l-3-1.3c.8-1 1.7-1.6 2.2-2.2.2-.1.6-.3.8-.1.9.5 1.6 1 2.5 1.2Zm-35 13.7-2.5 2.3c-.1.2-.4.2-.4.2l-2.9-1.2c.9-1 1.4-1.6 2.3-2.2l.9-.3c.7.4 1.6 1 2.5 1.2Zm12.6-11.5c.8-1 1.4-1.5 2.2-2.2l.5-.1 3 1.3c-.9 1-1.6 1.4-2.3 2.2-.1.1-.6.3-.7.1-.8-.4-1.7-1-2.7-1.3Zm25.4-5.1-2.1 2.3h-.6c-1-.4-2-.7-3-1.4l2.4-2.3h.6c.7.7 1.8 1.1 2.7 1.4Zm-12.4 2.7c.8-1 1.7-1.6 2.2-2.2l.8-.2c.9.3 1.8.8 2.8 1.3-.8.9-1.5 1.6-2.4 2.3h-.6l-2.8-1.2Zm-37.8 16.3 2.4-2.3c.2-.2.4-.2.7-.2l2.8 1.4c-.9.9-1.8 1.5-2.5 2.3l-.4.2c-1-.4-2-.8-3-1.4Zm9.4-4c.9-1 1.7-1.6 2.3-2.2.1-.2.4-.2.7-.2l2.9 1.2c-.9 1-1.7 1.6-2.5 2.3 0 .2-.4.2-.7.2-.9-.5-1.6-1-2.7-1.3Zm19-8.3c.8-1 1.7-1.5 2.4-2.3.1-.1.3-.3.4-.2l3.2 1.2c-.9 1-1.5 1.6-2.3 2.2-.2.1-.6.3-.7.2-1-.1-2-.7-3-1Zm-19.7 8.4c-.7.8-1.4 1.6-2.3 2.2l-.9.3c-.8-.3-1.8-.8-2.7-1.4l2.4-2.3h1l2.5 1.2Zm-14.8 9.6 2.4-2.3c.2-.2.5-.2.6 0l2.7 1.3c-.8 1-1.8 1.7-2.7 2.6l-3-1.6Zm24.2-13.6-2.3 2.1c-.1.2-.4.2-.6 0a12 12 0 0 1-2.7-1.3c1.8-2.6 2.3-2.8 5-1.4l.6.6Zm22.6-11.4 2.3-2.1.4-.2 3.2 1.2-2.4 2.3c-.2.2-.5.2-.5.2-.9-.6-2-1-3-1.4Zm-.7.2c-.8 1-1.7 1.6-2.4 2.3-.1.2-.4.2-.6 0-.9-.2-1.8-.8-2.8-1.2l2.4-2.3h.6l2.8 1.2Zm-9.3-.4 2.4-2.3.5-.1 3 1.3-2.4 2.3c-.2.2-.5.2-.5.2l-3-1.4Zm19.7-3.8 2.2-2.3c.1-.2.4-.2.5 0l3 1c-.8 1-1.7 1.6-2.4 2.3-.1.2-.4.2-.4.2-1-.4-2-.7-2.9-1.2Zm-34.9 13.6c.9-1 1.4-1.6 2.3-2.2.1-.1.6-.3.7-.2l2.9 1.3c-.9.9-1.6 1.3-2.3 2.1-.2.2-.4.2-.7.2l-2.9-1.2Zm31.8-10.8c.9-1 1.4-1.6 2.3-2.2l.7-.2 3.2 1.2c-.9 1-1.5 1.6-2.3 2.2l-.7.2-3.2-1.2Zm-23.3 6.8-2.4 2.3h-.6l-2.8-1.2c.8-1 1.7-1.6 2.4-2.3.1-.2.4-.2.7-.2 1 .5 1.7 1 2.7 1.4Zm3-2.7c-.7.8-1.4 1.6-2.3 2.2l-.7.2c-.9-.3-1.8-.9-2.8-1.3 2.7-2.9 2.7-2.9 5.8-1-.1-.2-.1-.2 0 0Zm22.4-6.7-2.2 2.1c-.2.2-.5.2-.5.2l-2.8-1.2 2-2.3c.2-.2.7-.3.8-.2 1 .6 1.8.8 2.7 1.4Zm-12.2 2.5c.8-.9 1.4-1.5 2.2-2.1.2-.2.6-.4.7-.2 1 .2 1.9.8 2.9 1.2-.8 1-1.7 1.5-2.3 2.2h-.6l-3-1Zm2.2-2.7c-.7.7-1.4 1.5-2.1 2-.2.1-.6.3-.8.1-.9-.2-1.8-.8-2.8-1.2.7-.7 1.4-1.5 2.1-2 .2-.1.6-.3.7-.1 1 .2 1.8.8 2.9 1.2Zm13-2.7-2.4 2.3h-.6l-2.9-1.2c.9-1 1.6-1.4 2.3-2.2l.7-.2c1 .6 1.8.9 2.9 1.3Zm-46.3 20.3 2.4-2.3c.2-.1.4-.2.6 0 .9.2 1.8.8 2.7 1.4l-2.4 2.3-.7.1-2.6-1.5Zm-15.5 9.7 2.4-2.3h.6c.8.4 1.8.8 2.7 1.4l-.4.4c-.7.8-1.4 1.9-2.3 1.9-.9 0-2-.7-3-1.4Zm49.5-27.5c.9-1 1.6-1.4 2.3-2.2h.6c1 .4 2 .7 2.8 1.2-.7.8-1.4 1.6-2.2 2.2-.2.1-.5.2-.6 0-1-.2-1.8-.8-2.9-1.2Zm-16 5.3 2.5-2.3.4-.1c.9.2 1.8.8 2.8 1.2l-2.4 2.3-.4.1c-.9-.2-1.8-.8-2.9-1.2ZM613 256l2.4-2.3c.1-.2.4-.2.7-.2l2.6 1.2-2.4 2.3c-.2.2-.5.2-.6 0-1 0-1.8-.5-2.7-1Zm12.2-6.8c.9-1 1.6-1.4 2.3-2.2l.4-.2c1 .3 1.8.9 2.9 1.3-.9.9-1.4 1.5-2.3 2.1-.1.2-.4.2-.7.2l-2.6-1.2Zm33.3-17.7-2.2 2.2-.5.1c-1-.4-2-.6-3-1.3.9-1 1.6-1.4 2.3-2.2l.7-.2c.8.5 1.7 1 2.7 1.4Zm6.6-1.3c-.8 1-1.4 1.6-2.3 2.2h-.6l-3-1c.9-1 1.8-1.6 2.3-2.2.2-.2.5-.2.6 0 1 .2 1.8.5 3 1Zm-28.2 12.2-2.4 2.3h-.6c-1-.3-1.8-.8-2.6-1.2 2-2.8 2.3-2.8 5.3-1.4-.2.1.1.1.3.3Zm-8.7 3.8 2.4-2.3.5-.1c.8.2 1.8.8 2.8 1.2-.8.9-1.6 1.4-2.3 2.1-.1.2-.5.4-.7.2-.9-.2-1.6-.7-2.7-1ZM616 253l2.4-2.3h.6l2.5 1.2c-.7.8-1.4 1.6-2.1 2-.1.2-.6.4-.9.4-.9-.3-1.6-.7-2.5-1.3Zm-6 5.9 2.4-2.3c.2-.2.5-.2.5-.2.7.4 1.8.8 2.7 1.4l-2.3 2.1c-.1.2-.6.3-.7.2-1-.3-1.8-.8-2.6-1.2Zm27-21 2.4-2.3h.6l2.8 1.2c-.8 1-1.7 1.6-2.4 2.3-.1.2-.4.2-.6 0-.8-.2-1.8-.8-2.8-1.2Zm18.7-7.9c.8-1 1.4-1.5 2.2-2.1.2-.2.5-.2.6 0 1 .2 2 .6 3 1-.7.8-1.6 1.4-2.3 2.1-.1.2-.5.4-.7.2-.9-.5-1.8-.8-2.8-1.2Zm-6.6 5.6-2.2 2.1c-.2.2-.5.2-.8.2l-2.8-1.2c.7-.8 1.4-1.6 2.1-2 .1-.2.6-.3.7-.2 1.2.2 2 .7 3 1Zm-30 14.7c.7-.8 1.4-1.6 2.3-2.2l.7-.2c.7.5 1.6.7 2.4 1.1-2.1 2.6-2.5 2.8-5.3 1.4l-.1-.1Zm2.8-2.8 2.4-2.3.5-.2c.9.3 1.8.9 2.7 1.4-.9 1-1.4 1.5-2.3 2.2h-.6c-.9-.3-1.6-.7-2.7-1Zm24.5-13.6c.8-1 1.6-1.4 2.3-2.2h.6l2.8 1.2c-.8 1-1.6 1.4-2.3 2.2-.1.1-.4.2-.5 0l-2.9-1.2Zm-13.1 6.8c-1.8 2.6-2.3 2.8-4.8 1.6l-.6-.3c.8-1 1.7-1.6 2.4-2.3.1-.2.4-.2.6 0l2.4 1Zm6.4-1-2.3 2c0 .2-.5.4-.7.2-.9-.2-1.6-.6-2.7-1 .9-1 1.7-1.6 2.3-2.2.1-.1.4-.2.6 0 1 0 2 .4 2.8 1Zm-9.1 4c-.8.9-1.6 1.3-2.3 2-.1.2-.4.3-.7.3-.9-.3-1.6-.7-2.5-1.3l2.2-2.1c.2-.2.6-.3.7-.2l2.6 1.2Zm12.4-11.3 2.2-2.1c.2-.2.5-.2.7-.2 1 .2 1.9.8 2.7 1-.7.8-1.4 1.6-2.2 2.2-.2.2-.5.2-.8.2-.8-.3-1.7-.5-2.6-1Zm12-2.4c-.8 1-1.5 1.4-2.2 2.2l-.4.1c-1-.2-1.8-.8-2.9-1.2.7-.7 1.4-1.5 2.3-2.1.1-.2.4-.2.7-.2.5.4 1.4.7 2.6 1.2Zm2.8-2.6c-.7.8-1.3 1.4-2.2 2-.1.2-.5.3-.8.3-1-.2-1.7-.6-2.7-1l2.2-2.2h.6c1 .1 2 .4 2.9 1Zm-17.8 8 2.2-2.2.6-.3c1 .2 1.8.8 2.9 1.2l-2.3 2.1c-.1.2-.6.3-.6.3-.9-.5-1.8-.8-2.8-1.2Zm8.6-8.2 2.3-2.2.4-.1c1 .2 1.8.8 2.9 1.2-.7.8-1.4 1.5-2.1 2-.2.1-.6.3-.8.2-.7-.5-1.8-.9-2.7-1.1Zm2.9 1.5c-.9 1-1.6 1.4-2.3 2.1-.1.2-.4.2-.4.2-1-.3-1.8-.8-2.9-1.2.7-.8 1.3-1.4 2.2-2 .1-.2.5-.3.7-.2.7.1 1.5.6 2.7 1.1Zm-17.8 7.9 2.4-2.3c.1-.2.4-.2.6 0 .9.2 1.6.6 2.7 1-2.3 2.5-2.7 2.7-5.7 1.3Zm2.6 1.5c-.7.8-1.4 1.5-2.2 2-.1.2-.5.3-.7.2l-2.4-1 .3-.4c2.1-2.3 2.1-2.3 5-.8Zm.4-4.4 2.2-2.2.8-.1c.9.2 1.6.6 2.7 1-.7.8-1.4 1.6-2.3 2.2l-.7.2c-1-.3-1.8-.6-2.7-1.1Zm8.5-8 2.2-2.1c.2-.2.5-.2.6 0 1 .2 1.7.6 2.7 1l-2.2 2.2-.8.1-2.5-1.2Zm-5.5 5.4 2.2-2.2h.6l2.7 1c-.8 1-1.6 1.5-2.3 2.2-.1.2-.4.2-.7.2-.9-.6-1.8-.8-2.5-1.2Zm2.6-2.6c.9-1 1.6-1.4 2.3-2.2l.7-.2 2.7 1.1-2.2 2.2h-.6c-1-.3-1.8-.5-2.9-1Zm19.8 0 2.1-2h.4c1.1.3 2 .6 3 1.3-.7.7-1.4 1.2-2 2h-.7l-2.8-1.2Zm2-2.4c-.8.8-1.3 1.4-2 1.9-.2.1-.6.3-.8.2l-2.8-1.2c.7-.8 1.4-1.6 2.1-2 .2-.2.4-.2.6 0l2.8 1.1Zm-9-.3 2-2c.2-.2.5-.2.7 0 .9.2 1.8.8 2.8 1.2-.7.7-1.4 1.5-2.1 2h-.6c-1-.4-2-.7-2.9-1.2Zm-3.6-1.4 2-2c.2-.1.7-.3.8-.1 1 .2 1.7.6 2.7 1l-2.3 2.2h-.5l-2.7-1ZM673 233a11 11 0 0 1 2-1.8c.1-.2.4-.2.4-.2 1 .4 2 .7 2.9 1.2-1.8 2.3-1.8 2.3-4 1.4l-1.3-.6Zm4 1.5 1.8-1.9.4-.1 3.3 1.3c-.7.8-1.3 1.4-2 1.9h-.6l-2.8-1.2Zm3.8 1.5c.7-.8 1.1-1.3 1.8-1.7.2-.2.5-.2.6-.4l3.2 1.2-1.6 1.7c-.1.2-.6.3-.7.2-1.2-.2-2.1-.5-3.3-1Zm-9.6-6.9a11 11 0 0 1-2 1.9l-.7.1c-.9-.2-1.8-.8-2.8-1.2l2.1-2h.6c.9.5 1.8.8 2.8 1.2Zm13.5 8.5 1.5-1.7c.2-.2.6-.3.8-.2l3.1 1.2-1.5 1.7-.8.2-3.1-1.2Zm-15.1-6 1.8-2c.1-.2.4-.2.7-.2 1 .4 2 .6 2.9 1.2a11 11 0 0 1-2 1.8c-.1.2-.4.2-.7.2l-2.7-1Zm-16.2-9.6c-.7.8-1.2 1.4-2.1 2l-.6.3c-.9-.3-1.6-.7-2.7-1l2-2 .9-.2c.9.2 1.8.5 2.5.9Zm40.5 16.4-1.6 1.7c-.1.1-.6.3-.7.1l-3.2-1.2 1.9-1.6c.1-.2.4-.2.4-.2 1.2.5 2.3 1 3.2 1.2ZM648 218c-5.4-2-10.5-4.2-15.5-6.2-7.3-3.1-14.8-6-22.3-9.3-.6-.3-1-.1-1.6.2L580 227.2l-14.7 12.5-.4.5 1 .5 36 18.3c.6.3 1 .1 1.5-.3l12-11c4.7-4 9.3-8.4 14-12.5 4.5-4 9-8.4 13.6-12.4 1.4-1.5 3.1-3 5-4.7Zm-42.8 33.6-2.6 2.1c-.1.2-.4.2-.7.2l-2.6-1.2 1-1.1c1.4-1.5 1.4-1.5 3.4-.6.6 0 1 .1 1.5.6Zm-2.6-1.9c1-.7 1.7-1.5 2.5-2.1.2-.2.5-.2.8-.2l2.5 1.2-2.5 2.2c-.2.1-.5.2-.6 0-1-.2-1.8-.5-2.7-1Zm-.6 4.6-2.2 2.2-.8.1-2.7-1.3c.9-.6 1.6-1.4 2.4-2 .2-.2.6-.3.8-.2.9.3 1.6.7 2.5 1.2Zm-5.9-3.4c1-.8 1.7-1.6 2.6-2.2.1-.1.4-.2.6 0l2.6 1.2-2.6 2.2h-.6l-2.6-1.2Zm12.2 2.1c-1 .8-1.7 1.6-2.4 2.4l-.6.3c-.7-.4-1.6-.7-2.5-1.3l2.4-2.3h.6c.9 0 1.6.4 2.5 1Zm-3.3-5.9c-1 .8-1.7 1.6-2.4 2.3-.2.2-.5.2-.6 0-.8-.3-1.8-.7-2.6-1.2l2.6-2.1c.1-.2.4-.2.6 0a7 7 0 0 1 2.4 1Zm6.3 3-2.4 2.3c-.2.2-.5.2-.6 0l-2.6-1.2 2.4-2.3h.6c1 .3 1.7.7 2.6 1.2Zm-18.2-.9 2.5-2c0-.1.4-.2.5 0l2.4 1c-2.2 2.8-2.5 2.8-5.2 1.2l-.2-.2Zm0 4.3 2.6-2.2.5-.1 2.7 1.3c-.9 1-1.6 1.4-2.3 2.2l-.7.2c-1-.4-1.8-.9-2.7-1.4Zm12.6-6.5 2.4-2c.2-.2.5-.2.8-.2l2.5 1.2-2.4 2-.4.2-2.9-1.2Zm14.5-9.3a18 18 0 0 0-2.3 2.2h-.6l-2.5-1.2c.8-1 1.7-1.6 2.3-2.2l.4-.2c.9.6 1.8.9 2.7 1.4Zm-9.3 4-2.4 2h-.7l-2.4-1c2-2.6 2.5-2.7 5.5-1Zm-14.6 4.7 2.4-2h.6l2.4 1.1c-2.3 2.7-2.6 2.8-5.1 1.2l-.3-.3Zm-.7 4.5-2.3 2.1c-.2.2-.4.2-.6 0l-2.6-1.2 2.5-2 .7-.1 2.3 1.2Zm13-6.8c1-.8 1.8-1.6 2.3-2.2.2-.2.5-.2.8-.2.7.4 1.6.7 2.5 1.3-1 .7-1.5 1.3-2.4 2l-.7.1a7 7 0 0 1-2.4-1Zm-13 2.5-2.6 2.2h-.6l-2.6-1.2c.4-.5.9-1 1.3-1.1 1.4-1.2 1.4-1.2 3.2-.4l1.2.5Zm12.3-2.4-2.5 2.2c-.2.1-.4.2-.6 0l-2.6-1.2c1-.8 1.7-1.6 2.6-2.2h.6c.7.4 1.7 1 2.5 1.2Zm-21 6c1-.8 1.5-1.4 2.4-2 .1-.2.4-.2.7-.2l2.5 1.2-2.5 2.2c-.2.2-.5.2-.7.2l-2.5-1.4Zm12.7 6.7 2.3-2.1c.1-.2.4-.2.6 0l2.5 1.2c-.4.4-.8.9-1.4 1.2-1.1 1.2-1.1 1.2-2.6.4-.3-.3-.8-.4-1.4-.7Zm14.8-9.5-2.4 2.3h-.6l-2.5-1.2 2.5-2.2c.2-.2.5-.2.6 0 .6.3 1.4.7 2.4 1Zm9-12.5c-1 .7-1.6 1.4-2.3 2.2-.2.1-.6.3-.8.2-.9-.3-1.6-.7-2.5-1.3l2.2-2.1c.2-.2.5-.2.6 0 1 .2 1.8.8 2.7 1Zm-24.7 9c-1 .7-1.8 1.5-2.3 2.1-.2.2-.4.2-.7.2l-2.4-1.1c.8-1 1.7-1.5 2.4-2.3.1-.2.4-.2.6 0 .6.2 1.3.7 2.4 1Zm13-2.5 2.2-2.1c.2-.2.5-.2.6 0 .8.4 1.7.6 2.6 1.2-2.1 2.6-2.6 2.7-5.3 1h-.1Zm-.2-4 2.3-2.2c.1-.2.4-.2.4-.2.9.3 1.8.8 2.7 1.4-1 .7-1.6 1.4-2.3 2.1-.1.2-.4.2-.4.2l-2.7-1.4Zm.5 8.3 2.5-2.2.5-.1c.7.4 1.6.6 2.5 1.2-.8 1-1.7 1.5-2.4 2.3l-.7.2-2.4-1.4Zm-12.6-2 2.3-2.2h.5l2.4 1c-2.2 2.8-2.4 2.7-5 1.3-.2.2 0 0-.2-.1Zm14.7-4.9-2.5 2.3c0 .2-.4.2-.4.2-.7-.4-1.8-.8-2.7-1.4 1-.7 1.6-1.4 2.3-2.1.1-.2.4-.2.6 0 .9.2 1.6.6 2.7 1Zm.2-4.2c.9-.7 1.6-1.4 2.3-2.2l.7-.2c1 .3 1.7.7 2.4 1.1l-2.2 2.2-.8.1-2.4-1Zm11.9-2.1-2.3 2.1c-.1.2-.6.3-.7.2-1-.3-1.7-.7-2.6-1.2.9-1 1.6-1.4 2.3-2.2h.6c.9.3 1.8.5 2.7 1ZM587 246c.8-.7 1.5-1.4 2.4-2 .1-.2.4-.2.6 0l2.2 1.2c-2 2.4-2.5 2.7-5 1.2 0-.3 0-.3-.2-.4Zm34-8.6 2.2-2.1c.1-.2.4-.2.6 0l2.4 1c-2.4 2.6-2.6 2.8-5.1 1.3l-.2-.2Zm-25 4.8 2.4-2.1c.1-.2.4-.2.7-.2l2.5 1.2c-.8 1-1.7 1.6-2.4 2.3-.1.2-.4.2-.6 0-.9-.5-1.6-1-2.5-1.2Zm-12.2 6.5c.9-.9 1.6-1.3 2.3-2.1.1-.2.4-.2.6 0 .7.4 1.5.8 2.4 1l-2.4 2c-.2.2-.5.2-.8.2-.6-.2-1.2-.8-2-1Zm18.6-7.7 2.5-2.2c.2-.2.5-.2.6 0l2.4 1c-.8 1-1.7 1.6-2.4 2.4h-.6l-2.5-1.2Zm-6.9 1.3c-1 .7-1.7 1.5-2.4 2l-.8.1c-.7-.4-1.5-.8-2.4-1l2.9-2.5c.7.4 1.7 1 2.7 1.4Zm24.9-.6-2.4 2.3c-.2.2-.5.2-.6 0-.8-.4-1.7-.6-2.6-1.2l2.3-2.1c.1-.2.4-.2.7-.2l2.6 1.2Zm-15.8-3.2-2.2 2.2-.8.1-2.4-1c2-2.8 2.7-3 5.4-1.3-.1-.1-.1-.1 0 0Zm18.3-7.8c-.9 1-1.6 1.4-2.3 2.2-.2.1-.4.2-.6 0l-2.6-1.2c.9-.6 1.6-1.4 2.3-2.2h.6c.8.4 1.7 1 2.6 1.2Zm.5 8.4c-.9 1-1.6 1.4-2.3 2.2l-.7.1c-.8-.4-1.7-.6-2.6-1.2.8-1 1.6-1.4 2.3-2.1.1-.2.4-.2.7-.2l2.6 1.2Zm3-11c.9-.6 1.6-1.4 2.3-1.9.2-.1.6-.3.7-.1 1 .2 1.7.6 2.7 1l-2.2 2.2c-.2.1-.5.2-.6 0l-2.9-1.2Zm-15.8 9.2c-.8.9-1.6 1.3-2.3 2.1-.1.2-.4.2-.5 0l-2.6-1.2 2.4-2c.2-.2.5-.2.6 0 .9.2 1.7.6 2.4 1Zm-21.4 6.2c-2.4 2.6-2.7 2.6-5 1.3l-.2-.2c.7-.7 1.5-1.4 2.5-2.1.2-.2.5-.2.6 0 .5 0 1.2.5 2.1 1Zm34.2-12.8 2.3-2.1.4-.2c1 .3 1.8.8 2.9 1.2l-2.3 2.2-.4.1-2.9-1.2Zm-9.8 4-2.3 2c-.1.2-.4.2-.4.2-.8-.4-1.7-.6-2.6-1.2l2.5-2 .7-.2 2 1.1Zm-21.3 6-2.5 2.2c-.2.2-.5.2-.6 0-.8-.4-1.4-.6-2.3-1.2l2.6-2.2h.6l2.2 1.3Zm9.7-4 2.5-2c.1-.2.4-.2.7-.2.7.4 1.5.8 2.4 1.1l-2.3 2.2-.7.1c-.9-.2-1.6-.6-2.6-1.2Zm6-5.2 2.4-2c.2-.2.5-.2.6 0 .8.3 1.7.6 2.6 1.2-.9.6-1.6 1.3-2.3 2.1-.1.2-.4.2-.7.2l-2.6-1.5Zm26.8-7-2.1 2c-.1.2-.6.3-.7.2l-2.7-1 2.1-2c.1-.2.4-.2.7-.2 1 .2 1.8.5 2.7 1Zm-24.4 8.6-2.2 2.2-.8.2c-.7-.5-1.6-.7-2.4-1.1 2.4-2.6 2.7-2.6 5.4-1.3Zm-17.3 7.5 2.2-2.2.5-.1 2.4 1c-2 2.8-2.6 2.8-5.1 1.3.1.1.1.1 0 0Zm32.6-12.3-2.3 2.1c-.1.2-.4.2-.6 0-.8-.2-1.6-.6-2.5-1.2l2.3-2.1c.1-.2.4-.2.4-.2.9.6 1.8.8 2.7 1.4Zm-42.5 16.2c-1 .8-1.5 1.4-2.4 2-.1.2-.4.2-.7.2l-2.3-1.3 1.7-1.5c.7-.8 1.4-1 2.4-.4.3.6.7.7 1.3 1Zm12.9-6.5c.8-1 1.5-1.4 2.2-2.2.2-.1.5-.2.6 0 .8.4 1.5.8 2.4 1l-2.5 2.2c-.2.2-.5.2-.6 0a17 17 0 0 1-2.1-1Zm-15.3 4.8 2.6-2.1c.1-.2.4-.2.4-.2l2.5 1.2c-1 .8-1.7 1.6-2.4 2-.1.2-.4.2-.6 0-.8 0-1.6-.3-2.5-.9Zm5.4 3.3-2.2 2.2-.6.3-2.6-1.2 2.5-2c.1-.2.4-.2.7-.2.7.1 1.3.4 2.2 1Zm25-13.1c.8-.7 1.5-1.4 2.4-2 .1-.2.4-.2.6 0l2.4 1-2.3 2.2h-.6c-.9-.3-1.6-.7-2.5-1.2Zm-27.4 7.2c1-.8 1.7-1.8 2.8-2.2.5-.1 1.5.6 2.3 1l.6.2c-.9.7-1.7 1.6-2.6 2.2-.1.2-.4.2-.6 0-.9-.2-1.6-.6-2.5-1.2Zm39.3-13.5c.9-.6 1.6-1.3 2.2-2l.7-.1c.9.2 1.6.7 2.7 1l-2.3 2.2c-.1.2-.4.2-.6 0-.9-.2-1.6-.6-2.7-1ZM611 229l2.3-1.8c.1-.2.4-.2.6-.3.8.2 1.6.6 2.5 1.2-2.2 2.4-2.4 2.6-5.3 1h-.1Zm21.3-5.8 2.2-2.1c.2-.2.5-.2.5-.2.9.3 1.6.7 2.7 1-.7.8-1.6 1.5-2.2 2-.1.2-.5.4-.7.2-.9-.2-1.6-.6-2.5-.9Zm-18.1 7.3 2.2-1.8c.2-.2.5-.2.8-.2l2.4 1c-2 2.5-2.4 2.7-5.1 1.3l-.3-.3Zm12.3 2 2.8 1.3-2.3 2.1c-.1.2-.4.2-.7.2l-2.4-1 2.6-2.5Zm-22 2.1-2.6 2.2h-.3c-.8-.4-1.7-.7-2.6-1.3l2.3-1.8c.2-.2.6-.3.9 0 .7 0 1.3.3 2.3.9Zm9.5-8.2 2.1-2h.6l2.4 1c-2 2.5-2.4 2.7-5.1 1.3v-.3Zm-12 6.5c.9-.6 1.6-1.4 2.4-2l.8-.2c.7.5 1.6.7 2.4 1.1l-2.4 2c-.2.2-.5.2-.6 0-1 0-1.8-.5-2.6-.9Zm38.5-13.4-2.3 2.2-.4.1c-.9-.2-1.7-.7-2.7-1l2.3-2.2c.1-.2.4-.2.6 0 .7 0 1.5.5 2.5.9Zm-68.7 23.1 2.6-2.1c.1-.2.4-.2.5 0l2.3 1.2-2.4 2c-.2.2-.5.2-.9 0l-2.1-1Zm26.5-6.9-2.3 2.2h-.5c-.8-.4-1.5-.8-2.4-1 1-.9 1.5-1.5 2.4-2.1.1-.2.4-.2.7-.2l2.1 1.1Zm36.8-7-2 2c-.2.1-.5.2-.7 0-.9-.2-1.6-.7-2.4-1 2-2.5 2.6-2.5 5.1-1.3v.3Zm-2.8 2.5c-.7.7-1.6 1.3-2.3 2.1-.1.2-.4.2-.7.2-.9-.3-1.7-.7-2.6-1.2l2.3-1.9c.2-.1.6-.3.8-.2l2.5 1Zm-49.1 9.5-2.4 2c-.2.2-.5.2-.5.2-.7-.4-1.5-.8-2.4-1l2.6-2.3h.6l2.1 1.1Zm-2.3-1.8 2.4-2c.2-.2.5-.2.6 0l2.4 1c-1 .8-1.5 1.4-2.4 2-.1.2-.4.2-.7.2l-2.3-1.2Zm14.4-.6-2.2 2.2c-.2.1-.5.2-.6 0-.8-.4-1.5-.8-2.4-1 .8-.7 1.5-1.5 2.4-2 .1-.2.4-.2.6-.1.7.1 1.3.4 2.2 1Zm-20.4 1.9 2.5-2c0-.2.4-.2.4-.2l2.5 1.2-2.2 1.9c-.2.1-.6.3-.8.1-.9-.2-1.6-.6-2.4-1Zm5.2 3-2.5 2c-.1.2-.4.2-.5 0l-2.3-1.2c2.3-2.5 2.4-2.6 5.1-1.2 0 .3.2.4.2.4Zm51.4-19.8-2.1 2h-.6c-.9-.3-1.6-.7-2.7-1 .9-.7 1.6-1.5 2.1-2 .2-.2.5-.2.8-.2.7.4 1.6.6 2.5 1.2Zm-21.4 6-2.2 2.1c-.2.2-.5.2-.5.2l-2.5-1.2c2.5-2.5 2.5-2.5 5-1.3.2-.1 0 0 .2.2Zm27.9-3.5-2.3 2.2h-.6l-2.4-1 2.3-2.2c.1-.2.4-.2.6 0 .7.4 1.5.8 2.4 1Zm-15.8-2.9-2.2 2.2h-.6L617 224c.8-.6 1.5-1.4 2.2-2.2l.5-.1 2.5 1.2Zm-18 7.5-2.3 2c-.2.1-.5.2-.6 0-.8-.4-1.5-.8-2.4-1 .8-.7 1.5-1.5 2.4-2 .1-.2.4-.2.6-.1l2.4 1Zm-26.3 7c2-2.4 2.6-2.4 5.1-1.2l.2.2c-.9.6-1.6 1.3-2.4 2h-.6c-.8-.1-1.5-.5-2.3-1Zm18-3.5 2.4-2 .7-.1c.8.4 1.5.8 2.4 1-.8.7-1.5 1.4-2.4 2-.1.2-.4.2-.6 0a7 7 0 0 1-2.5-.9Zm-27 7.1 2.5-2 .7-.2 2.2 1.3-2.5 2.1c-.2.2-.5.2-.6 0-.6-.2-1.4-.6-2.3-1.2Zm26.4-7c-1 .7-1.6 1.4-2.4 2h-.6c-.8-.4-1.4-.7-2.4-1 .8-.7 1.6-1.5 2.4-2 .2-.2.4-.3.6-.1.8.4 1.5.8 2.4 1Zm-3.1 2.7c-1 .8-1.7 1.6-2.6 2.2-.1.2-.4.2-.6 0-.7-.4-1.5-.8-2.4-1l2.4-2c.2-.2.5-.2.6 0 1 0 1.8.4 2.6.8Zm32.9-16.3-2.3 2.2-.4.2c-1-.3-1.8-.9-2.9-1.3l2.3-1.8c.1-.2.4-.2.7-.2.8.1 1.5.5 2.6 1Zm10.5 4c1-.7 1.5-1.3 2.2-2.1.2-.1.5-.2.6 0 .9.2 1.7.7 2.6 1-.8.7-1.5 1.1-2.2 2-.1 0-.6.2-1 .1l-2.2-1Zm-1.2-3.9c-.9.6-1.6 1.4-2.3 2.2h-.6c-.9-.3-1.6-.7-2.5-1.2l2.2-2.2h.6c1 .6 1.7 1 2.6 1.2Zm-50.5 15.7 2.4-2c.2-.2.5-.2.6 0 .8.4 1.5.8 2.4 1l-2.4 2c-.1.2-.4.2-.6 0a7 7 0 0 1-2.4-1Zm36-10.8 2.5-2c.1-.2.4-.2.6 0 .9.2 1.6.6 2.4 1l-2.3 2.2h-.6c-.9-.6-1.6-.7-2.5-1.2Zm2.6 1.5-2.2 2.1c-.2.2-.5.2-.6 0-.9-.2-1.7-.6-2.6-1.2.9-.6 1.6-1.4 2.3-1.8.2-.2.5-.2.7-.2.8.4 1.4.7 2.4 1Zm9.2-7.7 2.2-2.2.5-.2 2.6 1.1c-.8.6-1.5 1.4-2 2-.2.2-.5.2-.8.2-.7-.1-1.5-.5-2.5-1Zm-9.2-.3c.9-.6 1.6-1.4 2.1-2h.6l2.7 1-2.1 2c-.1.2-.4.2-.7.2l-2.6-1.2Zm-14.6 8.8 2.2-1.8c.2-.2.5-.2.5-.2.9.3 1.6.7 2.5 1.2-1 .8-1.5 1.4-2.2 2.2l-.5.2a6 6 0 0 0-2.5-1.6Zm-30.6 9.8-2.4 2c-.1.1-.6.3-.7.1-.8-.4-1.4-.6-2.3-1.2l2.4-2c.2-.2.5-.2.6 0 .8.4 1.5.8 2.4 1Zm30-9.7-2.5 2h-.5l-2.4-1c.8-.7 1.5-1.5 2.4-2.1.1-.2.4-.2.6 0 .7.4 1.3.7 2.4 1Zm-20.3 5.9c.7-.8 1.6-1.4 2.2-2 .1-.2.4-.2.7-.2l2.1 1.1c-1.8 2.3-2.5 2.5-4.8 1.2l-.2-.1Zm-12 2.2 2.5-2 .7-.2c.8.5 1.4.7 2.4 1.1l-2.4 2c-.2.2-.5.2-.6 0-1 0-1.8-.5-2.5-.9Zm29.3-9.5-2.5 2c-.1.2-.4.2-.4.2l-2.4-1.1 2.4-2c.2-.2.5-.2.6 0 .5 0 1.2.5 2.3.9Zm-8.4 3.6c2.4-2.6 2.5-2.5 5-1.3l.2.2c-.8.6-1.5 1.4-2.4 2-.1.1-.4.2-.6 0-.7-.1-1.5-.5-2.2-1Zm2.2 1.5-2.2 1.9h-.6c-.8-.4-1.5-.8-2.4-1.1 2-2.4 2.4-2.6 5-1l.2.2Zm-11.8 2.4-2.4 2h-.6c-.8-.4-1.5-.8-2.4-1 .9-.7 1.6-1.5 2.4-2 .2-.2.5-.3.9-.1l2.1 1Zm44.3-18.5-2.1 2-.7.1c-1-.2-1.7-.6-2.4-1 .8-.7 1.5-1.4 2.4-2 .1-.2.4-.2.6 0 .6.2 1.5.5 2.2.9Zm-7.8 7.5c.9-.6 1.6-1.4 2.3-1.9l.7-.1c1 .2 1.7.6 2.4 1l-2 2c-.2.2-.5.2-.8.2-1-.5-1.7-1-2.6-1.2Zm-39 9.3 2.6-2.2h.6l2.4 1.1c-.8.6-1.5 1.4-2.4 2-.1.2-.4.2-.6 0-1 0-1.6-.3-2.5-.9Zm14.3-8.6c-1 .7-1.6 1.3-2.4 2h-.6l-2.4-1.1c.9-.6 1.6-1.4 2.4-2 .2-.2.5-.2.6 0 .8.4 1.5.8 2.4 1Zm35.8-6.9c-.9.6-1.6 1.4-2.1 2-.2.2-.5.2-.7.2l-2.6-1c.9-.6 1.4-1.2 2.1-2 .2-.1.6-.3.8-.1.7.1 1.5.5 2.5 1Zm-38.8 13.4c-.8.7-1.5 1.4-2.4 2-.1.2-.4.2-.6 0l-2.4-1c.9-.6 1.6-1.4 2.4-2 .2-.2.5-.2.6 0 1 .2 1.7.6 2.4 1Zm15.7-5 2.3-2.1c.1-.2.4-.2.6 0l2.4 1c-.9.7-1.6 1.4-2.1 2-.2.2-.5.2-.8.2l-2.4-1Zm-6.1 1.1c.9-.6 1.6-1.3 2.4-2h.6l2.4 1-2.3 2.2c-.1.2-.4.2-.5 0l-2.6-1.2Zm-3-1.3c.9-.6 1.6-1.4 2.3-1.9.1-.1.6-.3.7-.1.8.4 1.5.5 2.4 1l-2.3 2.2c-.1.1-.4.2-.5 0l-2.6-1.2Zm-8.8 3.7c.8-.6 1.5-1.4 2.2-1.8.2-.2.6-.4.8-.2.7.4 1.5.5 2.4 1-.9.7-1.6 1.5-2.4 2-.2.2-.5.2-.8.3l-2.2-1.3Zm33-8.3c.6-.8 1.3-1.3 2-2 .2-.2.5-.2.5-.2l2.5 1c-2.2 2.4-2.4 2.5-5 1.2 0 0 0 .1 0 0Zm17.9.4-2.3 2.2c-.1.2-.4.2-.7.2-.9-.3-1.6-.7-2.4-1.1l2.3-2.2.7-.1 2.4 1Zm-60.6 11.7c-.9.6-1.6 1.4-2.3 1.8-.2.2-.6.4-.8.2-.7-.4-1.5-.8-2.4-1 1-.9 1.6-1.5 2.5-2 .1-.2.4-.2.6-.1l2.4 1Zm-2.3-1.6 2.4-2h.6c.7.4 1.5.8 2.4 1.1l-2.4 2c-.2.2-.5.2-.6 0-.8-.4-1.4-.7-2.4-1Zm32.8-8.1 2.1-2c.1-.2.4-.2.6 0 .9.2 1.6.6 2.4 1l-2.4 2c-.2.2-.5.2-.6 0-.5-.4-1.2-.8-2.1-1ZM601 225c-2 2.4-2.6 2.4-4.8 1.2l-.2-.2c1.7-2.4 2.3-2.4 4.8-1.2l.2.2Zm20.8-6c-.9.6-1.6 1.4-2.4 2-.2.2-.5.2-.6 0l-2.4-1 2.1-2c.1-.2.4-.2.6 0 1.2.2 1.8.4 2.7 1Zm-14.1 4.5 2.3-2.1c0-.2.4-.2.5 0l2.4 1-2 2c-.2.2-.5.2-.7 0-.9 0-1.6-.3-2.5-.9Zm-20.8 2.3 2.2-1.9.8-.1c.7.4 1.5.5 2.4 1-1 .8-1.7 1.6-2.6 2.2-.1.2-.3 0-.3 0-.9-.5-1.6-1-2.5-1.2Zm.1 3.8c.9-.6 1.6-1.4 2.3-1.8.1-.2.4-.2.7-.2.8.4 1.4.7 2.4 1-.8.7-1.5 1.5-2.4 2-.1.2-.4.3-.6.1l-2.4-1Zm37.8-13.2c-.9.6-1.6 1.4-2.3 1.8l-.6.4-2.7-1.1 2.1-2c.2-.2.5-.2.8-.2 1 .4 1.6.7 2.7 1Zm-35.5 10.8c-.9.6-1.6 1.4-2.4 2-.2.1-.5.2-.6 0-.8-.4-1.4-.7-2.4-1 .8-.7 1.5-1.5 2.4-2 .1-.2.4-.2.6-.1.7.4 1.5.8 2.4 1Zm20.5-6-2.3 1.9-.4.1c-.8-.4-1.7-.6-2.6-1.2.9-.6 1.6-1.4 2.3-1.8.1-.2.4-.2.6 0 .9.2 1.6.6 2.4 1Zm-14 .7 2.3-1.8c.2-.2.4-.2.6 0l2.3.9c-2.2 2.3-2.3 2.4-5 1-.2.2-.2.2-.2 0Zm31.7-7.8c-.9.6-1.6 1.4-2.3 1.8-.2.2-.4.2-.6 0-.9-.2-1.6-.6-2.4-1 .9-.7 1.6-1.4 2.1-2 .2-.2.5-.2.8-.2l2.4 1.4Zm-32.5 8.1c-.9.7-1.6 1.4-2.3 2.2-.1.1-.4.2-.6 0-.7-.4-1.3-.7-2.4-1l2.3-2 .7-.1c.8.1 1.5.5 2.3 1Zm15.5-1.1 2.2-2c0-.2.4-.2.4-.2l2.4 1-2.3 2.2c-.1.2-.4.2-.4.2-.5-.4-1.4-.7-2.3-1.2ZM590 227c.9-.6 1.6-1.4 2.4-2 .2-.2.5-.2.6 0l2.3 1c-2.3 2.4-2.6 2.4-5 1-.3.3-.1.1-.3 0Zm22.8-8.1c-.9.6-1.6 1.4-2.4 2-.2.2-.5.2-.5.2l-2.4-1.1c.9-.6 1.6-1.4 2.2-2 .1-.2.4-.2.6 0 .8 0 1.6.4 2.5.9Zm-2.4-1.7c.8-.6 1.5-1.4 2.2-1.8.2-.2.5-.2.6 0l2.4 1c-.8.7-1.5 1.4-2.4 2-.1.2-.4.2-.4.2l-2.4-1.4Zm32.8-.2-2.1 2-.5.2-2.7-1.1 2-1.9c.2-.1.6-.3.8-.1a7 7 0 0 1 2.5.9Zm-8.6-.6c.7-.7 1.5-1.2 2.2-2h.6l2.6 1c-.7.9-1.5 1.5-2 2-.2.2-.5.3-.7.1-.9-.2-1.8-.5-2.7-1Zm-30.6 6c-1 .6-1.6 1.3-2.5 2h-.6l-2.4-1.1 2.5-2c.1-.2.4-.2.6 0 .7.4 1.5.8 2.4 1Zm17.2-11c-.7.7-1.6 1.3-2.2 2l-.4.1c-.9-.2-1.6-.6-2.5-1 .8-.5 1.4-1.1 2.2-1.8l.8-.1c.4 0 1.2.5 2 .8Zm-2.9 2.4c-.8.7-1.5 1.4-2.3 1.9h-.5c-1-.3-1.7-.7-2.4-1 .8-.7 1.5-1.5 2.2-2h.6c.8.5 1.7.7 2.4 1.1Zm-5 4.8c1-.6 1.6-1.4 2.4-1.9h.5l2.4 1c-.8.7-1.5 1.5-2.2 2h-.6l-2.4-1.1Zm8.2-3.6-2.3 1.9-.4.2c-1-.3-1.7-.7-2.4-1.1l2.2-1.9c.2-.1.5-.2.6 0l2.3 1Zm-20 2c.9-.6 1.4-1.2 2.3-1.9h.6l2.2 1c-2 2.4-2.4 2.3-5 1v-.1Zm2.3 1.5c-.9.6-1.4 1.3-2.1 2l-.6.3c-.9-.2-1.7-.6-2.4-1l2.3-2h.7c.4 0 1.2.5 2 .7Zm15.3-4.8 2.2-1.9c.2-.2.5-.2.6 0 1 .2 1.7.6 2.4 1l-2.3 2h-.5c-.8-.5-1.5-.6-2.4-1.1Zm-26.4 7 2.4-2c.2-.1.4-.2.6 0l2.2 1c-1 .7-1.5 1.3-2.4 2h-.6c-.7-.2-1.5-.6-2.2-1Zm44-6.4c-.8.8-1.5 1.2-2 1.8-.2.2-.5.2-.8.2-.9-.2-1.7-.7-2.5-1 .7-.7 1.4-1.1 2-1.8l.7-.1a7 7 0 0 1 2.5.9Zm-8.5-.4c.9-.6 1.4-1.2 2-1.9l.7-.1c1 .2 1.7.6 2.6.9-.8.8-1.5 1.2-2 1.8-.2.2-.5.2-.8.2-.9-.2-1.6-.7-2.5-1Zm-26.7 7c.9-.6 1.6-1.3 2.2-2 .1 0 .4-.1.5-.3 1 .3 1.7.7 2.4 1.1l-2.2 1.9-.8.2c-.4-.2-1.2-.6-2-.8Zm-30.2 17.7c-.8.6-1.5 1.4-2.4 2-.1.2-.6.4-.7.2l-2-1 2.5-2 .7-.1 2 1Zm38.3-21.2-2.2 1.9h-.6l-2.3-1 2.3-1.8c.1-.2.4-.2.6 0l2.2 1Zm-9 0c-.7.7-1.4 1.1-2 2h-.7c-.7-.5-1.6-.7-2.4-1.2 2.3-2.4 2.3-2.4 5-1l.2.1Zm8.9-3.8c-.9.6-1.6 1.4-2.3 1.8-.1.2-.4.2-.6 0-.7-.3-1.5-.5-2.4-1 .9-.6 1.6-1.4 2.3-1.9h.6c.7.4 1.5.8 2.4 1Zm20.5-2-2.1 2c-.1.2-.4.2-.4.2-1-.3-1.7-.7-2.4-1.1 1.8-2.3 2-2.3 4.5-1.2.1-.2.3 0 .4.1Zm16.3 6.6-2 2c-.2.1-.5.2-.7 0-.9-.2-1.6-.7-2.5-1l2.1-2h.4c1 .2 1.7.6 2.7 1Zm-39-2.2c.8-.6 1.5-1.4 2.2-1.8.1-.2.4-.2.4-.2.8.4 1.5.5 2.4 1-.8.7-1.5 1.5-2.2 2h-.6l-2.3-1Zm-35 18.5 2.3-1.9c.2-.1.6-.3 1 0l1.9 1c-.3.2-.8.4-1 .7-1.7 1.5-1.7 1.5-3.8.4l-.4-.2Zm26.2-18.6c.6-.6 1.5-1.2 2.2-1.7.1-.1.5-.3.9 0 .6.3 1.3.7 2 .8-1.6 2.1-2.5 2.4-4.8 1.2l-.3-.3ZM615 209c-.8.6-1.5 1.4-2.3 1.9h-.5c-1-.3-1.5-.5-2.4-1.1l2.2-1.9.8-.1c.6.5 1.3 1 2.2 1.2Zm-8 3.4c1-.6 1.6-1.4 2.2-2 .1-.1.4-.2.6 0 .7.4 1.5.5 2.4 1l-2.3 2h-.6a9 9 0 0 1-2.2-1Zm-26.3 18.4c-.7-.4-1.5-.8-2.4-1 .9-.7 1.6-1.5 2.4-2 .2-.2.5-.3.8-.3l2 1.1-2.8 2.2Zm-11.3 6.5 1.7-1.6c.1-.1.4-.4.7-.4.1-.2.4-.2.6 0l2 1c-.5.4-.8.7-1.2.8-1.7 1.6-1.7 1.6-3.8.2Zm48.6-27-2 1.9c-.1.2-.4.2-.4.2-.9-.3-1.6-.7-2.4-1.1 2.1-2.3 2.4-2.3 4.8-1.2v.3Zm-16.6 3.4c2-2.2 3.4-2.5 4.8-1l-1.8 1.7c-.2.2-.5.2-.8.2-.9-.3-1.5-.5-2.2-1Zm14-1c-1 .6-1.6 1.4-2.2 2h-.6c-.9-.3-1.5-.5-2.4-1l2.3-2 .7-.1c.5.4 1.2.8 2.1 1ZM589 223.5l-2.3 1.8c-.1.2-.4.2-.4.2l-2.1-1.1c2.1-2.3 2.5-2.5 4.7-1.4l.1.5Zm29.7-13.4 2-1.9.7-.1c.9.2 1.5.5 2.2 1-1.8 2.2-2 2.2-4.5 1.1l-.4-.1Zm3.1 1.2 2.1-1.7c.2-.2.5-.2.5-.2l2.5 1-2.1 1.7-.8.1c-.7 0-1.4-.5-2.2-1ZM575.5 232c.5-.6 1.3-1 1.7-1.6.1-.1.3-.3.6-.3l.7-.1 2 1-1 1c-2 1.2-2 1.2-4 0Zm31.4-23.3c.9-.6 1.4-1.3 2.3-1.9h.6c.9.3 1.5.5 2.4 1l-2.3 2h-.6c-.9-.6-1.6-.7-2.4-1.1ZM586.1 226c-.7.7-1.4 1.2-2 2l-.8.1-2-1c1.8-2.5 2.6-2.7 4.8-1.1-.1-.2-.1-.2 0 0Zm18-14.9 2.3-1.8c.1-.2.4-.2.5 0 .8.4 1.5.5 2.3 1-.9.5-1.4 1.1-2.3 1.8l-.7.1c-.5-.4-1.2-.8-2.1-1Zm-12 9.6-2.4 2c-.2.2-.5.2-.6 0l-2.3-.9c.9-.6 1.6-1.4 2.3-1.8.2-.2.5-.2.8-.2.7.4 1.5.8 2.2 1Zm-2-1.2c1.9-2.3 2.9-2.5 4.9-1l-2.3 2h-.6l-2-1Zm5.6-4.8c1.8-2.3 2.8-2.5 4.8-1l-2.1 1.8c-.2.1-.5.2-.6 0-.6-.3-1.4-.4-2.1-.8Zm8.5-7.4c2-2.1 3-2.3 4.7-1-2 2.4-2.4 2.5-4.7 1Zm-5.7 5c1.7-2.2 2.9-2.5 4.8-1l-1.8 1.7c-.1.2-.6.3-.7.2-1-.3-1.5-.5-2.3-1Zm7.8-3.6c-.8.6-1.5 1.4-2.4 2-.1.2-.3 0-.4.2l-2.3-1 2.3-1.8c.1-.2.4-.2.7-.2l2.1.8ZM598 216l-2.2 1.9c-.2.2-.5.2-.5.2l-2.2-1 2.1-1.7c.2-.1.6-.3.7-.2.5.2 1.2.6 2.1.8Zm19.8-9.4-2 1.8c-.1.2-.4.2-.5 0-1-.2-1.5-.5-2.4-1l2-1.7c.2-.2.5-.2.7 0l2.2.9Zm-2 2.3c.8-.6 1.3-1.3 2-1.7.2-.2.5-.2.6 0l2.3.9-2.1 1.7c-.2.2-.5.2-.6 0l-2.3-1Zm-1-3.4-2 1.9h-.5c-.8-.4-1.5-.5-2.3-1l2.2-1.7.7-.1 2 1Zm-7.6-.3c1.6-2 2.5-2.1 4.8-.9-.6.6-1.3 1-1.9 1.7-.1.2-.4.2-.7.2l-2.2-1Z"/><path fill="#5C5F63" fill-rule="evenodd" d="m607.4 201.3-35.8-14.4-43.6 35.4 35.2 17.5 44.2-38.5Zm-1.5.3L563 238.9l-33.7-16.7 42.4-34.4 34 13.8Z" clip-rule="evenodd"/><path fill="#5C5F63" fill-rule="evenodd" d="m569 189.7 34.6 14.5.1-.3-34.5-14.6-.1.4ZM566 192.1l34.8 14.1.2-.3-35-14.1v.3ZM563 194.3l35 14.7.2-.4-35-14.7-.1.4ZM560.5 196.5l35 14.7.1-.4-35-14.7v.4ZM557.5 198.8l35.2 14.7.2-.4-35.2-14.7-.2.4ZM555 201l34.9 15 .2-.4-35-15-.1.4ZM552.1 203.4l34.8 15.2.2-.4-34.8-15.1-.2.3ZM549.1 205.7l35.3 15.3.1-.3-35.2-15.3-.2.3ZM546.4 208l35 15.3.1-.3-35-15.3v.4ZM543.3 210.2l35.4 15.8.1-.4-35.4-15.7-.1.3ZM540.4 212.7l35.3 15.9.2-.4-35.3-15.8-.2.3ZM537.6 214.9l35.2 16.1.2-.3-35.3-16.2-.1.4ZM534.7 217.3l35.2 16.4.1-.4L535 217l-.2.3ZM531.7 219.7l35 16.4.2-.3-35-16.5-.2.4Z" clip-rule="evenodd"/><path fill="#5C5F63" fill-rule="evenodd" d="m559.3 237.6 44.2-37-.3-.4-44.1 37 .2.4ZM557 236.2l43.5-37-.3-.3-43.5 37 .2.3ZM553.8 234.7l43.4-36.9-.3-.3-43.4 36.9.3.3ZM551.2 233.2l43.1-36.6-.2-.3-43.2 36.6.3.3ZM548 231.7l43.5-36.3-.3-.3-43.4 36.3.2.3ZM545.6 230.3l42.7-35.8-.2-.3-42.7 35.8.2.3ZM542.3 229.3l43.5-36-.3-.3-43.4 36 .2.3ZM539.6 227.6l43.6-35.6-.2-.3-43.6 35.6.2.3ZM536.8 226.4l43.4-35.4-.2-.3-43.5 35.4.3.3ZM534.2 225.2l43.2-35.4-.3-.3-43.1 35.3.2.4ZM531.7 223.6l43-35-.3-.2-43 35 .3.2ZM366.5 84.3l-13.7-4.7-33 19.4 13.2 6.1 33.5-20.8Zm-1.9.2L333 104.2 321.5 99l31.4-18.4 11.7 4ZM448.1 114.6l-21.4-8.7-36 24.8L411 140l37-25.3Zm-.4 0-36.6 25-20-9 35.6-24.4 21 8.5Z" clip-rule="evenodd"/><path fill="#5C5F63" fill-rule="evenodd" d="m424.3 107.7 21.3 8.6v-.2l-21.2-8.6v.2ZM422 109.3l21.2 8.7v-.2l-21-8.7-.2.2ZM419.6 111l21 8.6v-.2l-21-8.6v.2ZM417.2 112.7l21.1 8.5v-.2l-21-8.5-.1.2ZM414.9 114.3l21 8.6v-.2l-21-8.6v.2ZM412.5 116l21 8.6v-.2l-21-8.6v.2ZM410 117.7l21.1 8.5.1-.2-21.1-8.5v.2ZM407.7 119.3l21 8.6v-.2l-20.9-8.6v.2ZM405.1 120.8l21.2 8.8v-.2l-21-8.8-.2.2ZM402.7 122.5l21.3 8.6v-.1l-21.2-8.6v.1ZM400.4 124.1l21.1 8.8.1-.2-21.1-8.8v.2ZM398 125.8l21.1 8.8v-.2l-21-8.8-.1.2ZM395.6 127.5l21 8.5.1-.2-21-8.5-.1.2ZM393.3 129l21 8.7v-.2l-21-8.6v.2ZM390.8 130.8l20.3 9v-.1l-20.2-9v.1Z" clip-rule="evenodd"/><path fill="#5C5F63" fill-rule="evenodd" d="m409.5 139.2 36.5-25.1v-.2L409.3 139l.1.2ZM407.7 138.4l36.7-25-.1-.2-36.7 25 .1.2ZM406 137.7l36.6-25.1-.1-.2-36.5 25.2v.1ZM404.3 136.9l36.7-25-.2-.1-36.6 25v.1ZM402.8 136l36.4-24.9-.2-.2-36.3 25v.2ZM401.1 135.4l36.3-24.8-.2-.2-36.2 24.8.1.2ZM399.8 134.4l35.8-24.6-.2-.2-35.8 24.7.2.1ZM398 133.6l36-24.5-.2-.2-36 24.6.2.1ZM396.3 133l35.8-24.7-.1-.2-35.8 24.7.1.1ZM394.4 132.3l36-24.8-.2-.2-36 24.8.2.2ZM392.6 131.5l36-24.5-.2-.2-36 24.5.2.2ZM391 130.8l35.7-24.7v-.1l-35.9 24.6.1.2ZM383.2 91l-15.4-5.7v.1l15 5.6-34.3 20.7v.1l34.7-20.9Z" clip-rule="evenodd"/><path fill="#5C5F63" fill-rule="evenodd" d="m365.4 86.7 15.5 5.7v-.1l-15.4-5.7v.1ZM363 88.1l15.4 5.8v-.2L363.2 88l-.1.1ZM360.9 89.5l15.2 5.6V95L361 89.4v.1ZM358.5 90.8l15.3 5.9v-.2l-15.2-5.8v.1ZM356.3 92.4l15.2 5.6v-.2l-15.2-5.6v.2ZM354 93.6l15.4 5.8v-.2L354 93.5v.1ZM351.7 95.2l15.2 5.6v-.2L351.8 95v.2ZM349.4 96.5l15.2 5.6v-.2l-15.2-5.6v.2ZM347 97.7l15.3 6v-.2l-15.2-6v.2ZM344.8 99.3l15.2 5.6v-.2l-15.2-5.6v.2ZM342.5 100.6l15.4 5.7v-.2l-15.4-5.7v.2ZM340.2 102.1l15.2 5.6v-.1l-15.2-5.6v.1ZM337.9 103.4l15.4 5.7v-.1l-15.4-5.8v.2ZM335.7 104.8l15.1 5.7v-.1l-15-5.8v.2ZM334 105.7l14.5 6.1v-.1l-14.5-6.1v.1Z" clip-rule="evenodd"/><path fill="#5C5F63" fill-rule="evenodd" d="m347.5 111.4 34.2-20.8v-.1l-34.2 20.8v.1ZM346.2 111l34.2-20.8-34.3 20.7.1.1ZM344.8 110.3l34.4-20.6v-.1l-34.4 20.6v.1ZM343.5 110l34.3-20.7v-.1l-34.4 20.6.1.1ZM342.3 109.4l34.3-20.6v-.2l-34.4 20.7.1.1ZM341 109l34.4-20.8v-.1l-34.5 20.8v.1ZM340.2 108.3l34-20.5h-.2l-33.9 20.4v.1ZM338.9 108l34-20.7v-.1l-34.1 20.6v.1ZM337.7 107.4l33.9-20.5-.1-.1-34 20.4.2.2ZM336.5 106.8l33.9-20.4-.1-.2-34 20.5.2.1ZM335.3 106.3 369 86v-.2l-33.8 20.4ZM334.2 105.6l33.6-20.2v-.1L334 105.5ZM365.4 84.7l-13-4.8v.1l12.7 4.7-32.8 20 33.1-20Z" clip-rule="evenodd"/><path fill="#5C5F63" fill-rule="evenodd" d="m350.8 81.4 12.4 4.7v-.2l-12.4-4.7v.2ZM348.5 82.6l12.7 4.7v-.1l-12.7-4.7v.1ZM346.3 84l12.6 4.6v-.2L346.4 84v.2ZM343.9 85.2l12.8 4.8.1-.2-12.9-4.8v.2ZM341.9 86.4l12.5 4.9.1-.2-12.6-4.8v.1ZM339.6 87.7l12.8 4.8v-.1l-12.8-4.8v.1ZM337.4 89.1l12.9 4.8v-.1L337.5 89v.1ZM335 90.2l13 5V95l-13-4.9v.1ZM332.8 91.6l13 5v-.1l-13-5v.1ZM330.5 93l13.2 4.7v-.1l-13.1-4.8v.1ZM328.5 94.2l13 5V99l-13-5v.2ZM326.2 95.4l13.2 5.1v-.1l-13.2-5ZM324 96.9l13.2 4.7v-.1l-13.1-4.8v.2ZM321.7 98.1l13.4 5v-.2l-13.3-5v.2Z" clip-rule="evenodd"/><path fill="#5C5F63" fill-rule="evenodd" d="m331.2 104.2 33-19.8v-.1l-33 19.8v.1ZM330.1 103.8l33-20h-.1l-33 19.9.1.1ZM329 103.3l32.7-19.8v-.2l-32.8 19.9ZM328 102.7 360.5 83v-.1L328 102.6v.1ZM327 102l32.4-19.5v-.1l-32.5 19.5v.1ZM325.6 101.6l32.5-19.5V82l-32.5 19.5v.1ZM324.6 101.2l32.3-19.6v-.1L324.4 101v.1ZM323.7 100.7l32.2-19.5-.1-.1-32.2 19.5ZM322.5 100.1l32-19.3v-.1L322.3 100v.1ZM383.4 93l15.1 6.4v-.1l-15-6.4-.1.2ZM381.2 94.5l15.2 6.3v-.1l-15.1-6.4v.2ZM378.8 96l15.6 6.4v-.2l-15.6-6.4v.1ZM376.6 97.3l15.6 6.5v-.2l-15.5-6.4v.1ZM374.3 98.9l15.8 6.3v-.2l-15.7-6.3v.2ZM372 100.2l15.8 6.6v-.2l-15.7-6.6v.2ZM369.9 101.6l15.7 6.6v-.2l-15.6-6.6-.1.2ZM367.6 103.1l16 6.6v-.1l-16-6.6v.1ZM365.3 104.4l16.2 6.7v-.1l-16.1-6.8-.1.2ZM363 106l16.3 6.5v-.1l-16.2-6.6-.1.2ZM360.8 107.4 377 114l.1-.2-16.2-6.7v.2ZM358.5 108.6l16.4 6.9v-.2l-16.3-6.8v.1ZM356.3 110.2l16.6 6.9v-.2l-16.6-6.9v.2ZM354.1 111.6l16.6 6.9.1-.2-16.6-6.9-.1.2ZM351.7 113l16.9 6.9v-.2l-16.9-6.8v.1Z" clip-rule="evenodd"/><path fill="#5C5F63" fill-rule="evenodd" d="m367.2 119.3 32-21.8v-.2L367 119.2v.1ZM365.7 118.8l32.2-22-.1-.2-32.2 22v.2ZM364.3 118.1l32.1-21.8V96L364.1 118l.1.1ZM362.8 117.6l32.3-22-.1-.2-32.3 22 .1.2ZM361.5 116.9l32-21.9V95l-32.1 21.9v.1ZM360 116.4l32-21.9v-.1l-32.1 21.8v.2ZM358.5 115.8l32.2-22v-.1l-32.3 22v.1ZM357.1 115.2l32.1-21.9v-.1L357 115l.1.2ZM355.6 114.6l32.1-21.8v-.2l-32.2 21.9.1.1ZM354.3 114l32-22-32.1 21.8v.1ZM449 114l-22.4-7.8-37.2 24.3 21.8 9.7 37.7-26.1Zm-1.8.3-36.1 25-20-9 35.6-23.2 20.5 7.2ZM424.1 105.3l-18.8-6.7-35.5 22.5 17.6 8.6 36.7-24.4Zm-1.7.3-35 23.2-16-7.8 34-21.5 17 6Z" clip-rule="evenodd"/><path fill="#5C5F63" d="m403.3 100.3 18 7-18-7.3v.3ZM400.9 101.8l18 7.2v-.1l-17.9-7.3-.1.2ZM398.6 103.3l17.8 7.1.1-.1-18-7.1v.1ZM396 104.9l18.1 7v-.2l-18-7-.1.2ZM393.5 106.3l18.2 7.1-18-7.2-.2.1ZM391.2 107.9l18 7.2v-.3l-17.8-7h-.2ZM388.8 109.3l18 7.2.1-.1-18.1-7.1ZM386.4 111l18 7v-.2l-18-7v.2ZM384 112.4l18 7.1.2-.1-18.1-7.1-.2.1ZM381.6 114l18 7-18-7.3v.3ZM379.2 115.4l18 7.3v-.3l-17.9-7.1-.1.1ZM376.7 116.8l18 7.3.2-.2-18.2-7ZM374.3 118.5l18.1 7.1v-.2l-18.1-7.1v.2ZM371.9 120l18 7h.2l-18.1-7.2-.1.2Z"/><path fill="#5C5F63" d="m386 128.4 36.2-23-.1-.2-36.3 23 .1.2ZM384.4 127.6l36.3-22.8-.1-.1-36.4 22.7.2.2ZM383.2 126.7l36-22.4-.1-.2-36 22.5v.1ZM381.7 126.2l35.9-22.6-36 22.5v.1ZM380.2 125.7l35.9-22.6v-.3l-36 22.7.1.2ZM378.6 125l36.1-22.6-.1-.1-36 22.7ZM377 124.5l36.2-22.6-.1-.2-36 22.5v.3ZM375.7 123.8l35.9-22.6-36 22.5h.1ZM374.2 123.3l35.9-22.6-.2-.2-35.8 22.6.1.2ZM372.7 122.4l35.9-22.3v-.3l-35.8 22.5-.1.1ZM371.5 121.6l35.7-22.2h-.1l-35.8 22 .2.2ZM370.4 121.2l35.4-22.3-.2-.1-35.3 22.3.1.1Z"/><path fill="#5C5F63" fill-rule="evenodd" d="m402.2 97.8-17.3-6.3-34.3 21.8 17.3 7.4 34.3-22.9Zm-1.8.2L368 119.8l-15.6-6.6L385 92.4l15.4 5.6ZM383.8 91l-16.5-6-33.7 20.9 15.4 6.7L383.8 91Zm-1.8.2-33 20.5-13.7-6 32-19.7 14.7 5.2ZM366 84.8l-13.5-4.9-33 19.4 13 6.3L366 84.8Zm-1.8.2-31.7 19.7-11.3-5.5 31.4-18.4 11.6 4.2ZM533.1 160.3l-3.2.6-6.4 7 9.8-4.8-.2-2.8Zm0 2.7-8.8 4.2 5.7-6.2 3-.5v2.5Z" clip-rule="evenodd"/><path fill="#394149" d="m538.1 154.6 1.5 1.4-6.4 7-1.6-1.4 6.5-7Z"/><path fill="#5C5F63" fill-rule="evenodd" d="m540 156-2-1.8-6.7 7.4 1.9 1.8 6.8-7.4Zm-.7 0-6.2 6.7-1.1-1 6.1-6.7 1.2 1Z" clip-rule="evenodd"/><path fill="#394149" d="M431.9 185.2s-5.7-7.7-7.3-8.4c-1.8-.8-7.4.6-7.4.6l1.6 6.6s5-1.7 6.7 1l2.8 3.8 3.4-3.7.2.1Z"/><path fill="#5C5F63" fill-rule="evenodd" d="m431.9 185.3-3.6 3.9-.2-.3-.1-.2a188.5 188.5 0 0 1-2.7-3.5c-.8-1.3-2.3-1.5-3.8-1.5a10.8 10.8 0 0 0-2.5.5l-.3.1-1.8-7 .3-.1.2-.1c.2 0 .4 0 .7-.2a36 36 0 0 1 4.6-.6 5 5 0 0 1 2 .3c.2 0 .5.3.8.6l1.1 1a54.3 54.3 0 0 1 5.4 6.8l-.1.3Zm-14.3-7.7a33.7 33.7 0 0 1 5-.8c.9 0 1.5 0 1.9.3a15.4 15.4 0 0 1 1.7 1.5 54 54 0 0 1 5.2 6.4l-3 3.4a87.1 87.1 0 0 1-2.7-3.5c-1-1.5-2.7-1.8-4.2-1.7a11.3 11.3 0 0 0-2.5.4l-1.4-6Z" clip-rule="evenodd"/><path fill="#252E36" d="M407.7 182.9c-1.1-5-.2-9.5 2-10 2.2-.6 5 3.1 6.2 8.1 1.1 5 .3 9.6-2 10.1-2.2.5-5-3.2-6.2-8.2Z"/><path fill="#5C5F63" fill-rule="evenodd" d="M414.9 189.7c-.3.5-.7.8-1.1.9-.4 0-.9 0-1.4-.3-.5-.3-1-.8-1.6-1.5-1-1.4-2-3.6-2.5-6-.6-2.5-.7-4.8-.3-6.5.1-.9.4-1.6.7-2 .3-.6.7-.9 1.1-1 .4 0 .9 0 1.4.3.5.3 1 .9 1.6 1.6 1 1.4 2 3.5 2.6 6 .5 2.4.6 4.7.3 6.5-.2.8-.5 1.5-.8 2Zm1.8-1.8c.3-2 .3-4.4-.3-7-.6-2.6-1.6-4.8-2.8-6.4a6.8 6.8 0 0 0-1.9-1.8c-.7-.3-1.4-.5-2.1-.4-.8.2-1.3.7-1.8 1.3-.4.7-.7 1.5-.9 2.5-.3 1.9-.3 4.3.3 7 .6 2.5 1.6 4.7 2.8 6.3.6.8 1.2 1.4 2 1.8.6.4 1.3.6 2 .4.8-.2 1.3-.6 1.8-1.3.4-.6.7-1.5.9-2.4Z" clip-rule="evenodd"/><path fill="#394149" d="M410.9 173c2 .9 4.1 3.8 5.2 8.1.9 4.3.5 8.1-1.1 9.5l.6-.6 3.6-5.7-1.6-6.6-5.4-3.8-1.3-1Z"/><path fill="#5C5F63" fill-rule="evenodd" d="m417.8 177.5-5.3-3.7c-.5-.5-1-.9-1.5-1.1l-.3.4 1.4 1c1.5 1.5 3 3.8 3.7 7 .5 2.2.6 4.2.4 5.8a6.4 6.4 0 0 1-1 3.1l-.4.4.4.4.4-.4.2-.3 3.6-5.8-1.6-6.8Zm-1.2 10.4 2.3-3.7-1.6-6.4-3.4-2.4a17 17 0 0 1 2.4 5.7 18.7 18.7 0 0 1 .3 6.8Z" clip-rule="evenodd"/><g clip-path="url(#a)"><mask id="b" width="1128" height="1128" x="-12" y="-481" maskUnits="userSpaceOnUse" style="mask-type:alpha"><g fill="#2F8FFC" opacity=".3"><circle r="291.4" transform="scale(1 -1) rotate(59.8 347.9 438.8)"/><circle r="563.5" fill-opacity=".2" transform="scale(1 -1) rotate(59.8 347.8 438.8)"/><circle r="428.9" fill-opacity=".4" transform="scale(1 -1) rotate(59.8 347.9 438.8)"/></g></mask><g mask="url(#b)"><path fill="#5C5F63" d="M550.6 82.8 548.3 684l-320.6-46.9-199-255.7L550.6 82.8Z"/></g></g><defs><clipPath id="a"><path fill="#fff" d="m195.2 79.5 534.3 311.2L534.7 725 .5 413.9z"/></clipPath></defs></svg>