<svg xmlns="http://www.w3.org/2000/svg" width="1920" height="906" fill="none"><path stroke="#212A33" stroke-dasharray="9 9" stroke-linecap="round" stroke-linejoin="round" stroke-width="2" d="m1920 88-86.4 32.5c-85.2 32-258 97-483.9 141C1123.9 305.6 842.6 329.8 609 371c-232.4 41-420 99.8-513.4 129l-1.4.4L0 530"/><g clip-path="url(#a)"><path fill="url(#b)" d="m1609.5 204.3-809.6-.3 405 701.5 404.6-701.2Z" opacity=".2"/></g><mask id="c" width="427" height="320" x="1371" y="0" maskUnits="userSpaceOnUse" style="mask-type:alpha"><path fill="#C4C4C4" d="M1371 0h427v320h-427z"/></mask><g mask="url(#c)"><path fill="#394149" stroke="#5C5F63" stroke-miterlimit="10" stroke-width=".5" d="m1671.5 47.4 43.6-21.5 39.6 66.8-39.1 26.2-44-71.5ZM1562 98.6l56.2-25.5 48.9 76.8-51 33-54-84.3ZM1713.4 119.6l-43.8 28-49-76.4 48.2-22.6 44.6 71Z"/><path fill="#5C5F63" d="M1667.3 150c-17.1 11.3-34.2 22.5-51.1 33.8l-.7-.9c-18-27.7-35.9-55.7-53.6-83.6-.7-1.2-.7-1.2.5-1.7l55.5-25c.7-.4 1.2-.4 1.7.5 15.7 25.4 31.6 50.7 47.3 76.3l.4.7Zm-74.5-11.9 3.7 5.8a47 47 0 0 1 4-2.2l-3.6-5.8-4.1 2.2Zm3.9 6.2 3.8 5.8c1.3-.7 2.5-1.6 3.9-2.3l-3.6-5.8-4.1 2.3Zm4 6.3c1.1 2 2.3 3.9 3.7 5.8l3.8-2.3c-1.3-1.8-2.4-3.7-3.6-5.8a47 47 0 0 0-4 2.3Zm11.4 9.5-3.6-5.6-3.8 2.2 3.6 5.8c1.2-.9 2.4-1.7 3.8-2.4Zm-45.8-63.4 3.6 5.7 4-2-3.5-5.5c-1.4.5-2.7 1.2-4.1 1.8Zm46 63.7-3.8 2.4 3.6 5.6 3.7-2.3-3.5-5.7Zm7.5 11.8a1759 1759 0 0 1-3.6-5.6c-1.4.8-2.6 1.5-3.8 2.4l3.6 5.6 3.8-2.4Zm-19.2-30.7c1.4-.6 2.6-1.3 3.8-2.2l-3.6-5.6-4 2 3.8 5.8Zm-30.5-38.8 3.5 5.6 4.1-2-3.5-5.6-4.1 2Zm3.7 6 3.6 5.6 4.1-2-3.6-5.5c-1.4.5-2.6 1.2-4 1.9Zm27 33.2 3.6 5.8c1.4-.9 2.5-1.6 3.8-2.2l-3.6-5.7a71 71 0 0 1-3.8 2Zm4 6.1 3.5 5.8 3.8-2.2-3.6-5.6-3.8 2Zm18.9 30.2-3.6-5.7c-1.2.9-2.4 1.6-3.8 2.4l3.6 5.6c1.4-.6 2.4-1.5 3.8-2.3Zm-42.5-58.1 4-2c-1.1-2-2.3-3.8-3.4-5.5l-4 2 3.4 5.5Zm27.5 34 3.5 5.7 3.8-2.3-3.6-5.6c-1.2.9-2.4 1.6-3.7 2.2Zm11.2 9.6-3.6-5.6c-1.1.8-2.3 1.5-3.7 2.2l3.6 5.6 3.7-2.2Zm-15.2-24.4c1.4-.7 2.6-1.3 3.8-2.2l-3.6-5.6-3.8 2 3.6 5.8Zm-26.4-41-3.6-5.5-4.1 1.9 3.6 5.6 4-2Zm38.2 68.1 3.6 5.6 3.6-2.4-3.6-5.6-3.6 2.4Zm-27.5-42.6c-1.2-1.8-2.4-3.5-3.4-5.4l-4.1 2 3.6 5.5 4-2Zm23.6 19.8-3.8 2.2 3.6 5.6 3.8-2.2-3.6-5.6Zm-7.7-4 3.6 5.7 3.8-2.2-3.6-5.7c-1.2.9-2.4 1.6-3.8 2.3Zm-22.9-35.4a152 152 0 0 0-3.6-5.4l-4 1.9 3.5 5.6c1.5-.9 2.8-1.4 4.1-2Zm3.3 22.2c1.2 1.9 2.4 3.6 3.4 5.4l4-2-3.5-5.5-4 2Zm-3-21.8a45 45 0 0 1-4 1.9 151 151 0 0 0 3.5 5.4l4-2c-1.2-1.7-2.4-3.4-3.4-5.3Zm30.5 47.2 3.5 5.6c1.3-.9 2.4-1.6 3.8-2.2l-3.6-5.7-3.7 2.3Zm14.7 23.8-3.6-5.6-3.6 2.4 3.6 5.6c1.2-.7 2.4-1.6 3.5-2.4Zm-41.6-65-3.9 2 3.6 5.4 4-2-3.7-5.5Zm38.1 58.9 3.6-2.4-3.6-5.6a41 41 0 0 1-3.5 2.2l3.5 5.8Zm-27.8-25.4c-1.2-1.9-2.4-4-3.8-5.8l-3.6 2 3.8 5.8 3.6-2Zm-3.3-14-3.9 2.2c1.2 2 2.4 3.6 3.4 5.5l4-2.2-3.5-5.5Zm30.8 31-3.6-5.6c-1.2.9-2.4 1.5-3.8 2.2l3.6 5.6c1.4-.6 2.6-1.3 3.8-2.2Zm-19.7-4.7c-1.2-2-2.3-4-3.7-5.8l-3.6 2c1.2 2 2.4 4 3.8 5.8l3.5-2Zm4.8-19.5a71 71 0 0 0 3.8-2l-3.6-5.6-3.8 2c1.2 1.9 2.3 3.8 3.6 5.6Zm-12.3 15.4 3.6-2-3.7-5.9-3.6 2 3.7 5.9Zm-10.2-50.1c-1.2-1.9-2.4-3.6-3.4-5.5-1.4.7-2.8 1.2-4 2a139 139 0 0 0 3.6 5.4l3.8-1.9Zm6.8 19.6-3.4-5.5-4 2c1.3 2 2.5 3.7 3.5 5.5l4-2Zm-10.6-25.4-3.4-5.4-4 1.8 3.5 5.5c1.4-.7 2.6-1.4 4-1.9Zm0 8c1.2 1.9 2.4 3.6 3.4 5.5l4-2c-1.2-1.8-2.4-3.5-3.4-5.4l-4 2Zm33.8 36.5c-1.1-2-2.3-3.8-3.5-5.7-1.2.7-2.4 1.4-3.8 2l3.6 5.7c1.2-.7 2.4-1.4 3.8-2Zm0 8.1 3.6-2.2-3.6-5.6-3.7 2.2c1.5 1.9 2.6 3.8 3.8 5.6Zm-8.3 13.5c-1.2-2-2.4-4-3.8-5.8l-3.6 2.2c1.2 2 2.4 4 3.8 5.8 1.4-.7 2.4-1.4 3.6-2.2Zm23.4 10.5-3.6-5.4-3.6 2.4 3.6 5.6c1.2-1 2.4-1.7 3.6-2.6Zm-23-10.2c-1.3.9-2.5 1.6-3.7 2.2l3.8 5.8 3.6-2.2a67.6 67.6 0 0 1-3.8-5.8Zm11.9-15.5c-1.2.7-2.4 1.6-3.6 2.2l3.6 5.7 3.6-2.3-3.6-5.6Zm-4.5 27.4-3.5-5.6c-1.3.7-2.4 1.6-3.6 2.2 1.2 2 2.3 3.8 3.7 5.8 1.2-.8 2.2-1.7 3.4-2.4Zm-26.3-50.5 3.5 5.4 3.9-2-3.4-5.5-4 2Zm4.1-10.4-3.2-5.1c-.2-.2-.4-.4-.5-.2l-3.6 1.7c1.2 1.9 2.4 3.6 3.4 5.5l4-2Zm6.9 19.4-3.5-5.3c-1.3.7-2.5 1.4-3.9 2l3.4 5.5c1.6-.7 2.8-1.4 4-2.2Zm-38.3-34.6c1.2 1.9 2.2 3.6 3.4 5.1.2.2.5.4.7.2l3.4-1.5-3.6-5.7c-1.5.7-2.7 1.2-3.9 2Zm47 30.5 3.6 5.6 3.5-2-3.5-5.6-3.6 2Zm6.8 46-3.4 2.2 3.6 5.6 3.4-2.2c-1-1.9-2.2-3.6-3.6-5.6Zm8-21.8-3.5 2.2 3.5 5.6 3.6-2.2-3.6-5.6Zm-37.2-59c-1.2-1.8-2.4-3.5-3.4-5.4l-4 1.9 3.5 5.4 3.9-1.8Zm44.6 70.4-3.6-5.6-3.6 2.2 3.6 5.6c1.2-.7 2.4-1.3 3.6-2.2Zm-38-43c1.4-.8 2.6-1.5 4-2.1l-3.4-5.5-4 2 3.5 5.5ZM1583 96.5l3.5 5.4 3.9-1.8-3.4-5.5c-1.2.7-2.6 1.2-4 1.9Zm-9.7 11.7-3.4-5.3-.5-.1c-1.2.5-2.4 1-3.6 1.7l3.6 5.6c1.5-.7 2.7-1.2 3.9-1.9Zm50.6 36.3a1759 1759 0 0 1-3.6-5.6l-3.6 2 3.6 5.6 3.6-2Zm-3.8-6-3.6-5.6a978 978 0 0 1-3.6 2l3.6 5.7 3.6-2Zm-26.5-16.6 3.5 5.4c1.3-.7 2.5-1.4 3.9-2l-3.4-5.3c-1.4.5-2.6 1.2-4 1.9Zm-23.7-11.5 3.6 5.7c1.3-.7 2.5-1.2 3.7-2l-3.6-5.5-3.7 1.8Zm20.3-2.7 4-1.9c-1.3-1.8-2.3-3.5-3.5-5.4l-3.9 1.9c1.2 1.8 2.2 3.7 3.4 5.4Zm-16.6 8.7 3.6 5.6 3.8-1.8-3.6-5.5c-1.2.5-2.4 1.2-3.8 1.7Zm54.5 51a151 151 0 0 0 3.6 5.4l3.6-2.4c-1.2-1.9-2.4-3.6-3.4-5.5l-3.8 2.4Zm-.5-17a151 151 0 0 0-3.6-5.4l-3.5 2.2 3.5 5.6c1.4-1 2.4-1.7 3.6-2.3Zm.4.4-3.6 2.2 3.6 5.6 3.5-2.2-3.5-5.6Zm-30.6-23.2 3.4 5.3a71 71 0 0 0 3.8-2l-3.4-5.3a79 79 0 0 1-3.8 2Zm15.7-.8 3.6 5.6 3.6-2-3.6-5.7c-1.2.9-2.4 1.4-3.6 2Zm3.8 6 3.5 5.6 3.6-2-3.5-5.7-3.6 2Zm-32.2-6.7-3.5-5.4-3.8 1.8 3.6 5.5c1.4-.7 2.4-1.4 3.8-1.9Zm-1.2-37.3 3.5 5.5 3.9-2-3.4-5.4-4 2Zm48.2 68-3.6 2.2 3.6 5.4 3.6-2.2a51.5 51.5 0 0 1-3.6-5.4Zm-37.7-43.3c1.3-.7 2.5-1.4 3.9-1.9l-3.4-5.4-4 1.9c1.3 1.8 2.3 3.7 3.5 5.4Zm33.8 28.8a1759 1759 0 0 1-3.6-5.6l-3.6 2 3.6 5.6 3.6-2Zm-26.5-25-3.4-5.3-3.8 2 3.5 5.5c1.3-.9 2.5-1.6 3.7-2.2Zm-6.6-19.1-3.5-5.5-3.9 1.9 3.4 5.5 4-2Zm-9.8 28.3c-1.2.6-2.4 1.3-3.7 1.8 1.2 1.7 2.2 3.4 3.2 5.1.2.2.5.2.7.2l3.2-1.7c-1-1.9-2.2-3.6-3.4-5.4Zm54 41.5-3.4-5.4-3.4 2.2c1.2 1.8 2.4 3.5 3.4 5.4 1-.7 2.2-1.3 3.4-2.2Zm-37.2-50.2c-1.4.6-2.6 1.3-3.8 2l3.4 5.3 3.8-2-3.4-5.3Zm26.3 24.8-3.6 2 3.6 5.5c1.2-.7 2.4-1.3 3.5-2.2a71 71 0 0 1-3.5-5.3Zm3.9 14a151 151 0 0 0 3.6 5.4l3.4-2.2-3.4-5.4c-1.4.7-2.4 1.3-3.6 2.2Zm-.2-.5 3.4-2.2-3.4-5.5-3.6 2.2 3.6 5.5Zm-29.9-46.5-3.4-5.3c-1.4.7-2.6 1.2-3.7 1.9l3.4 5.4c1.2-.8 2.4-1.3 3.7-2Zm-10.9-9.2 3.4 5.4c1.4-.6 2.6-1.1 3.8-1.8l-3.4-5.3c-1.2.3-2.4 1-3.8 1.7Zm-3-13.6 3.3 5.4 3.8-1.9-3.4-5.4c-1.2.7-2.4 1.4-3.8 1.9Zm-2.8 47.5c1.2 1.9 2.4 3.6 3.4 5.4l3.6-2-3.4-5.5-3.6 2Zm32-9.6c1.1 2 2.3 3.8 3.5 5.7l3.6-2-3.4-5.5c-1.4.5-2.6 1.2-3.8 1.8Zm-15.6.7 3.4 5.3 3.8-2c-1.2-2-2.3-3.6-3.5-5.3-1.2.8-2.4 1.3-3.7 2Zm22.7 3.3-3.6 2 3.4 5.6 3.6-2c-1-2-2.2-3.8-3.4-5.6ZM1594.8 98l3.8-1.9-3.4-5.2-3.8 1.7 3.4 5.4Zm3.4 13.8 3.5 5.3c1.1-.7 2.5-1.4 3.7-1.9l-3.4-5.3-3.8 2Zm33.2 28.3-3.4-5.5-3.6 2c1.2 2 2.4 3.8 3.4 5.7l3.6-2.2Zm-33-36.3 3.8-1.9-3.5-5.3c-1.3.7-2.5 1.2-3.7 2 1.2 1.6 2.4 3.3 3.4 5.2Zm6.8 19 3.8-2-3.2-5.2c-1.4.6-2.6 1.3-3.8 2 1 1.9 2.2 3.6 3.3 5.3Zm33.9 45.2 3.4-2.2-3.4-5.5-3.4 2.3 3.4 5.4Zm-33.3-60.5-3.5-5.2-3.7 1.8 3.4 5.3 3.8-1.9Zm22 18.6-3.4-5.4-3.6 2 3.4 5.5 3.6-2Zm7.3 19.8c-1.1-2-2.2-3.6-3.4-5.5l-3.4 2c1.2 2 2.4 3.6 3.4 5.5l3.4-2Zm3.8 5.8-3.4-5.5-3.4 2c1.2 2 2.4 3.6 3.4 5.5l3.4-2Zm-11-17.8c1.3-.6 2.5-1.3 3.5-2l-3.4-5.4-3.6 2 3.6 5.4Zm7.8 20.3 3.4 5.5 3.4-2.3-3.4-5.4-3.4 2.2Zm-26.4-41c-1.1-2-2.2-3.6-3.4-5.3l-3.7 1.9 3.4 5.2c1.4-.5 2.6-1.2 3.8-1.8Zm-.5 15.5c1.2-.7 2.4-1.4 3.8-2l-3.3-5.4c-1.1.7-2.3 1.4-3.7 2 1 1.8 2.2 3.5 3.2 5.4Zm-13.5-38.4 3.8-1.7-3.4-5.2-3.8 1.7 3.4 5.2Zm36.4 49.6 3.4-2c-1.1-2-2.2-3.6-3.4-5.5l-3.4 2 3.4 5.5Zm-36.2-49.2 3.4 5.3 3.8-2-3.4-5.2-3.8 1.9Zm10.8 9.2-3.5-5.3c-1.1.7-2.3 1.2-3.7 1.9l3.4 5.3 3.8-2Zm-.4 15.7 3.4 5.2 3.8-2-3.2-5.3-4 2Zm33 28-3.4-5.4-3.4 2 3.4 5.5 3.4-2Zm3.8 14.4c-1.2.6-2.3 1.5-3.5 2.2l3.5 5.4 3.4-2.2c-1-1.9-2.3-3.6-3.4-5.4Zm-26.2-33.6-3.2-5.3c-1.2.7-2.4 1.4-3.8 2l3.3 5.4 3.7-2Zm26.2 33c1.1-.6 2.2-1.3 3.4-2.2l-3.4-5.4-3.5 2 3.5 5.6Zm-18.2-37 3.5 5.5a75 75 0 0 1 3.4-1.8l-3.4-5.5c-1 .7-2.3 1.2-3.5 1.9Zm11.2 25.6c1.1 2 2.2 3.6 3.4 5.5l3.4-2.2-3.4-5.5a39 39 0 0 1-3.4 2.2Zm-33-43.9 3.4 5.3 3.8-1.9-3.3-5.3-4 1.9Zm.3-15.3a200 200 0 0 1-3.2-5.3c-1.4.5-2.6 1.2-3.8 1.7l3.4 5.3c1.2-.7 2.4-1.2 3.6-1.7Zm25.3 39.5 3.4 5.4 3.4-2-3.4-5.5a18 18 0 0 1-3.4 2Zm-25.1-39.2-3.8 1.7 3.4 5.3c1.3-.7 2.5-1.2 3.8-1.7l-3.4-5.3Zm3.6 5.6c-1.2.7-2.4 1.2-3.8 1.7l3.4 5.3 3.6-1.9c-1-1.7-2-3.4-3.2-5Zm28.5 37.5-3.4 2 3.4 5.5 3.4-2c-1-2-2.2-3.6-3.4-5.5Zm-22-19-3.3-5.4-3.7 2 3.2 5.2 3.8-1.9Zm29.7 46.6 3.4 5.4c1.2-.6 2.2-1.5 3.4-2.2l-3.4-5.3-3.4 2Zm-7.3-19.8c1.1 2 2.2 3.6 3.4 5.5l3.4-2-3.4-5.5-3.4 2Zm-25.8-24.5 3.2 5.3c1.2-.7 2.4-1.4 3.6-1.9a85 85 0 0 1-3.3-5 17 17 0 0 0-3.5 1.6Zm.1-8 3.6-1.9-3.2-5.2-3.8 1.8 3.4 5.3Zm29.2 38.3 3.5 5.5 3.4-2-3.4-5.4-3.5 2Zm3.8 5.8 3.4 5.5 3.3-2-3.5-5.5-3.2 2Zm-7.9-27.6-3.4-5.4-3.4 1.8 3.4 5.5 3.4-1.9Zm-24.9-16.2 3.3 5.3c1.1-.7 2.3-1.2 3.5-1.8l-3.2-5.3-3.6 1.8Zm-6.8-19.2 3.5-1.7-3.2-5.3-3.8 1.7c1.3 1.7 2.3 3.4 3.5 5.3Zm.1.3a229 229 0 0 1 3.3 5.3c1.2-.7 2.4-1.2 3.6-1.7-1.2-1.7-2.3-3.6-3.3-5.3l-3.6 1.7Zm32.2 43.1 3.4 5.5 3.4-2-3.4-5.5-3.4 2Zm-22.3-10.9c1.2 1.7 2.3 3.4 3.3 5.3l3.6-2-3.3-5.1c-1.2.5-2.4 1.1-3.5 1.8Zm22 10.6c1.1-.7 2.1-1.4 3.3-2l-3.4-5.5c-1.2.7-2.2 1.4-3.4 1.9 1.2 2 2.4 3.7 3.4 5.6Zm10.7 9.5-3.4-5.4-3.5 2 3.5 5.5 3.4-2Zm-25.5-24.5-3.2-5.1-3.6 1.9a85 85 0 0 1 3.2 5l3.6-1.8Zm-13.5-22.1 3.3 5.2 3.6-1.7c-1-1.7-2.3-3.4-3.3-5.2l-3.6 1.7Zm46.2 66c-1.3-1.8-2.3-3.5-3.3-5.2-1.2.6-2.2 1.3-3.2 2.2l3.4 5.3c.8-.9 1.8-1.6 3-2.3Zm-32.3-43.6-3.6 2c1.2 1.6 2.2 3.3 3.2 5l3.6-1.8a52.1 52.1 0 0 1-3.2-5.2Zm28.5 30-3.4-5.3-3.4 2c1.1 2 2.2 3.7 3.4 5.4l3.4-2Zm-14-23.1 3.4-2-3.4-5.4-3.4 1.9c1.2 1.9 2.2 3.8 3.4 5.5Zm-31.6-42.5 3.2 5.3 3.6-1.7a54.7 54.7 0 0 1-3.2-5.3c-1.2.7-2.4 1.2-3.6 1.7Zm49.2 71.2-3.4-5.2c-1.2.6-2.3 1.3-3.3 2l3.4 5.4c1.2-.6 2.3-1.3 3.3-2.2Zm-42.6-52.4 3.3 5.3c1.2-.7 2.4-1.2 3.6-2-1.2-1.8-2.3-3.3-3.3-5l-3.6 1.7Zm28.6 29.4c1.2-.6 2.2-1.3 3.4-1.8l-3.4-5.3-3.4 1.9 3.4 5.2Zm-21.4-25.7-3.6 1.9c1.2 1.9 2.3 3.4 3.3 5.3l3.6-1.9a54.7 54.7 0 0 1-3.3-5.3Zm28.2 29.5-3.4-5.3c-1.2.7-2.2 1.4-3.4 1.9l3.4 5.4 3.4-2Zm-38.4-46.3c1.2 1.7 2.2 3.5 3.2 5.2l3.6-1.7-3.3-5.2-3.5 1.7Zm35.3 48.7 3.4 5.3 3.3-2c-1.2-2-2.2-3.7-3.4-5.4-1 .7-2 1.4-3.3 2Zm-18.4-21.1c-1.2-1.7-2.2-3.4-3.3-5.2-1.2.7-2.4 1.2-3.5 2a85 85 0 0 1 3.2 5l3.6-1.8Zm-6.7-18.4-3.2-5.1-3.6 1.7c1.2 1.7 2.2 3.4 3.2 5.2l3.6-1.8Zm.4.3c-1.2.7-2.4 1.2-3.6 1.7l2.9 4.8.7.3 3.2-1.5a229 229 0 0 1-3.2-5.3Zm35 48.2-3.3-5.3a54 54 0 0 0-3.2 2l3.4 5.3a24 24 0 0 1 3-2Zm3.6 13.5-3.3-5.3-3.2 2 3.2 5.3c1-.5 2.2-1.2 3.3-2Zm-3.5-13.2-3.2 2c1.2 2 2.2 3.7 3.4 5.4 1-.7 2-1.4 3.3-2l-3.5-5.4Zm-14.1-30.4c-1.2.6-2.3 1.1-3.3 1.8l3.4 5.5c1.2-.7 2.3-1.2 3.3-1.9-1.4-1.9-2.4-3.7-3.4-5.4Zm-14.4.5-3.6 1.8c1 1.7 2.3 3.4 3.3 5.2 1.2-.7 2.4-1.2 3.4-2l-3-5Zm-3.6-6.2 3.6-1.8-3.2-5.1-3.6 1.8a85 85 0 0 1 3.2 5.1Zm-6.5-25.7-3.2-5-3.6 1.4a229 229 0 0 1 3.3 5.3c1.2-.7 2.4-1.2 3.5-1.7Zm3.6 5.8-3.6 1.7 3.3 5.1c1.2-.5 2.2-1.2 3.6-1.7-1-1.7-2-3.2-3.3-5Zm21 33c1.2 2 2.3 3.6 3.5 5.3l3.2-1.8-3.2-5.3-3.5 1.8ZM1618.1 87l-3.3-5.1c-1.2.5-2.4 1-3.6 1.7 1 1.7 2.3 3.4 3.3 5.2l3.6-1.8Zm38.7 69.5c1.2-.7 2-1.4 3.3-2l-3.3-5.4c-1 .7-2 1.4-3.2 2 1.2 1.8 2.2 3.5 3.2 5.4Zm-7.3-27-3.3-5.2-3.2 1.8 3.4 5.5c.9-.7 1.9-1.4 3-2Zm-25-16.8 3.5-1.9c-1-1.7-2-3.4-3.3-5.1-1.2.7-2.4 1.2-3.4 1.9l3.3 5Zm25.2 24.5c1-.7 2-1.4 3.2-2l-3.2-5.3-3.3 1.9 3.3 5.4Zm.3.3 3.3 5.3 3.2-2c-1.2-1.7-2.2-3.6-3.3-5.3l-3.2 2Zm-31.8-42.9 3.3 5.1 3.4-1.7a85 85 0 0 1-3.3-5l-3.4 1.6Zm41.7 52-3.2-5.3c-1 .7-2 1.4-3.3 2l3.3 5.3 3.2-2Zm-31.8-28.3 3.5-1.9a85 85 0 0 0-3.3-5l-3.4 1.8c1 1.7 2 3.4 3.2 5.1Zm-3.2-13 3.4-1.8-3.2-5.1-3.4 1.7 3.2 5.3Zm-6.5-25.5c-1-1.7-2-3.4-3.3-5l-3.5 1.4a85 85 0 0 1 3.2 5.2l3.6-1.6Zm-3.3 1.9c1.3 1.7 2.3 3.4 3.3 5.1 1.2-.5 2.4-1 3.4-1.7-1-1.7-2-3.4-3.2-5.1a32 32 0 0 1-3.4 1.7Zm10.1 24c1 1.7 2 3.4 3.3 5.1l3.4-1.9c-1-1.7-2-3.4-3.3-5l-3.4 1.8Zm-3.2-20c-1.2.4-2.4 1.1-3.4 1.6l3.2 5.1 3.4-1.7a85 85 0 0 0-3.2-5Zm35 63.3 3.3 5.2 3-2-3.2-5.1c-1 .5-2 1.2-3 1.9ZM1628.7 96l-3.3-5.1-3.4 1.7 3.2 5a32 32 0 0 0 3.5-1.6Zm0 15c1 1.7 2 3.4 3.2 5l3.4-1.8-3-5a23 23 0 0 0-3.6 1.8Zm3.4-9.6c-1-1.7-2-3.4-3.3-5a32 32 0 0 1-3.4 1.6l3.3 5.1a32 32 0 0 0 3.4-1.7Zm0 7.2 3.4-1.9-3-5.1a32 32 0 0 1-3.5 1.7c.8 2 1.9 3.6 3 5.3Zm3.2 5.4 3.4-1.9-3-4.9-3.5 1.9 3.1 5Zm27.9 30.3-3.3-5.2-2.9 1.8 3.3 5.3c.8-.7 1.8-1.2 2.9-1.9Zm-16.8-20.4 3.4 5.3c1-.7 2-1.2 3-1.7l-3.3-5.3c-1.2.5-2.2 1.2-3 1.7Zm6.3 4-2.9 1.6 3.3 5.3 2.9-1.7-3.3-5.3Zm.7 7.4 3.3 5.3 2.9-1.9a54.7 54.7 0 0 1-3.3-5.3l-2.9 2Zm-10.6-17 3.3 5.3 2.9-1.7-3.3-5.3c-1 .5-2 1-2.9 1.7Zm-3.6-5.8 3.5 5.3 2.9-1.7-3.3-5.3-3 1.7Zm27.4 37.3-3.3-5.1-2.9 1.8c1 1.8 2.2 3.5 3.3 5.2l2.9-2Zm-31.5-50-3-5.2-3 1.5 3.3 5.1 2.7-1.5Zm-6.6-10.8c-1-1.7-2-3.4-3.3-5.1-1 .5-1.9 1-2.9 1.3 1 1.7 2 3.4 3.3 5.1.8-.5 1.9-.8 2.9-1.3Zm10 16.2-3-5-3 1.6 3.2 5 2.9-1.6Zm-13.4-21.7c-1-1.7-2.3-3.4-3.3-5l-2.9 1.3 3.3 5.1c.8-.5 1.8-.9 2.9-1.4Zm3.6 5.8-3 1.6c1 1.7 2.1 3.4 3.3 5 1-.4 1.9-1 2.9-1.5l-3.3-5Zm13.3 21.1-3.1-4.9-2.9 1.5 3 5 3-1.6Zm-26.5-36 3.2 5 3-1.3-3.3-5.1c-1 .3-1.9.8-2.9 1.3ZM1620.6 71c.2-.1.5-.1.7-.3l46.8-22c1-.5.9-.5 1.4.4l43.5 69.6c.4.5.4.9-.1 1.2l-42 27c-1.3.6-1.3.6-2-.4l-48-74.8c-.1-.2-.3-.3-.3-.7Zm34.5 39.2-3.4-5.3-3.2 1.9 3.4 5.3 3.2-1.9Zm.4 7.3c1-.7 2.2-1.2 3.2-1.8l-3.2-5.2c-1 .7-2.3 1.2-3.3 2 1 1.6 2 3.3 3.3 5Zm-7.2-10.7c-1 .7-2 1.2-3.3 1.7l3.5 5.3c1-.7 2-1.2 3.2-1.7l-3.4-5.3Zm3.8-1.9 3.4 5.3 3.2-1.9-3.2-5a16 16 0 0 0-3.5 1.6Zm13.6 21.7-3.2-5.2-3.3 2a85 85 0 0 1 3.3 5c1.2-.5 2.2-1.2 3.2-1.8Zm-16.9-12.5 3.4 5.3c1-.7 2-1.2 3.3-1.9l-3.5-5.3-3.2 2Zm10 1.9-3.2 1.9 3.3 5 3.2-1.8a85 85 0 0 0-3.2-5.1Zm3.5 12.6a85 85 0 0 1-3.2-5.1c-1 .7-2 1.2-3.3 1.9l3.4 5 3.1-1.8Zm.5.2a85 85 0 0 1 3.3 5l3-1.8c-1.2-1.7-2.2-3.4-3.2-5.1l-3 1.9Zm3 5.2c-1.1-1.7-2.1-3.4-3.3-5l-3.1 1.8 3.4 5.1c1-.5 2-1.2 3-1.9Zm-7-18.5 3.3-1.9a85 85 0 0 1-3.2-5.1c-1 .7-2 1.2-3.3 1.9 1 1.7 2.3 3.4 3.3 5Zm-3.3 2.5-3.3 2 3.4 5 3.1-1.9c-1-1.7-2-3.4-3.2-5Zm13.8 21.5c-1.2-1.7-2.2-3.4-3.2-5.1l-3.1 1.9a85 85 0 0 1 3.2 5c1-.4 2-1.1 3.1-1.8Zm-34.5-61.1c-1-1.7-2.2-3.5-3.3-5l-3.4 1.7c1 1.7 2.3 3.4 3.3 5 1-.7 2.2-1.2 3.4-1.7Zm34.9 61c1-.8 2-1.4 3-2l-3.2-5-3.1 1.8c1 1.9 2 3.4 3.3 5.1Zm-38.2-59.2c1 1.7 2.1 3.3 3.3 5l3.4-1.7a82 82 0 0 0-3.2-5 31 31 0 0 1-3.5 1.7Zm34 39-3.2-5-3.2 1.8a85 85 0 0 1 3.2 5.1c1.2-.7 2.2-1.4 3.3-1.9Zm-2.8 2a85 85 0 0 1 3.2 5.2l3-1.9a80.5 80.5 0 0 1-3.2-5.1c-1 .7-2 1.4-3 1.9Zm-7.2-18.3 3.2 5 3-1.6a85 85 0 0 1-3.2-5.1c-1 .7-2 1.2-3 1.7Zm-14-14c-1-1.7-2-3.2-3.3-5-1.2.6-2.2 1.3-3.4 1.8 1 1.7 2.2 3.4 3.3 5 1.1-.8 2.3-1.3 3.4-1.8Zm31 41a85 85 0 0 1-3.2-5l-3 1.8 3.2 5.1 3-1.8Zm-10.2-16.3 3-1.9-3.2-5-3 1.6c1 1.9 2.2 3.6 3.2 5.3Zm-37.6-44c1 1.8 2 3.3 3.3 5l3.4-1.7-3-4.6c0-.2-.3-.2-.4-.2-1.2.5-2.3 1-3.3 1.6Zm20.2 24.6a82 82 0 0 0-3.3-5l-3.4 1.8c1 1.7 2 3.2 3.3 4.9a32 32 0 0 1 3.4-1.7Zm.1 7 3.3-1.7-3-5-3.3 1.7a38 38 0 0 0 3 5Zm-13.3-28c1 1.7 2 3.3 3.3 5a32 32 0 0 0 3.4-1.7 82 82 0 0 0-3.3-5l-3.4 1.7Zm44.3 62.2-3.3-5.1c-1 .7-2 1.4-3 1.9l3.2 5 3-1.8Zm-17.1-34.4a85 85 0 0 1 3.2 5.1c1-.7 2-1.2 3.1-1.7l-3.2-5.1c-1 .7-2 1.2-3.1 1.7Zm10 16.2-3.2-5.1-3 1.8a85 85 0 0 1 3.2 5.2l3-2Zm3.5 5.4c-1-1.7-2.2-3.4-3.3-5l-3 1.8c1.2 1.7 2.2 3.4 3.2 5.1l3-1.9Zm-20.7-18-3-5-3.3 1.7 3.2 5 3.1-1.7Zm-16.6-26c1 1.6 2.3 3.2 3.3 4.9 1.2-.5 2.2-1.2 3.2-1.7l-3.2-5c-1 .7-2 1.2-3.3 1.7Zm37.5 44.4c-1 .7-2.1 1.2-3.1 1.8a85 85 0 0 1 3.2 5.2l3.1-2-3.3-5ZM1641.8 82c-1.2.5-2.2 1.2-3.2 1.7l3.2 5 3.3-1.8c-1-1.7-2.1-3.2-3.3-4.9Zm6.5 10.2-3-5-3.3 1.8 3.2 5c1-.6 2-1.3 3.1-1.8ZM1631.5 73a31 31 0 0 0 3.5-1.7l-3.1-5-3.4 1.6c1 1.9 2 3.4 3 5.1Zm30.8 33.7 3.3 5.1 3-1.7a85 85 0 0 1-3.2-5c-1 .4-1.9 1-3.1 1.6Zm0-7.3 3.3 5.1c1-.7 2-1.2 3-1.7a85 85 0 0 1-3.2-5.1l-3.1 1.7Zm-23.6-29.5-3.2 1.6 3.2 5c1.2-.6 2.3-1.1 3.3-1.8-1.2-1.5-2.3-3-3.3-4.8Zm13 27.8-3-5-3.3 1.8 3 4.9c1-.7 2.3-1.2 3.3-1.7Zm14.9 44.3 3.2 5 3-2.1-3-5-3.2 2Zm12.6-8.5-3.2-5.1-3.1 1.8 3.2 5.1 3.1-1.8Zm-47.7-46c1 1.7 2.3 3.4 3.3 5l3.3-1.8a82 82 0 0 0-3.3-5l-3.3 1.8Zm-.5-7.3-3.2-5-3.3 1.6c1 1.7 2.3 3.4 3.3 5l3.2-1.6Zm41 27.9-3.2-5.1c-1 .7-2 1.2-3 1.7l3.2 5c1-.4 2-1 3-1.6Zm-33.6-9.9c1 1.7 2 3.4 3.2 5l3.3-1.8c-1-1.7-2-3.2-3.3-4.9-1.2.5-2.2 1-3.2 1.7Zm6.6 3.6c-1 .5-2 1.2-3.2 1.7 1 1.7 2 3.2 3.3 5 1.2-.8 2-1.3 3.2-1.8l-3.3-5Zm6.9 2.9c1-.7 2.2-1.2 3.2-1.7l-3-5-3.3 1.7 3 5Zm14 7.5 3.2 5 3.1-1.8-3.2-5.1-3.1 1.9ZM1638.2 91c-1 .5-2.2 1-3.2 1.7 1 1.7 2 3.4 3.2 4.9 1-.5 2-1.2 3.3-1.7a49.4 49.4 0 0 1-3.3-5Zm.5-14.2c1 1.7 2 3.3 3.3 5 1.2-.5 2.2-1 3.2-1.7l-3-5a32 32 0 0 0-3.5 1.7Zm37 44-3.3-5.1-3 1.8a85 85 0 0 1 3.1 5.1l3.1-1.8Zm.3 7.1 3-1.9-3.2-5-3 1.8 3.2 5.1Zm-3.1 16.7 3-2-3-4.8c-1 .7-2 1.4-3 1.9l3 4.9ZM1631.4 87l3.2-1.7-3.2-4.9-3.3 1.5c1 1.7 2 3.4 3.3 5.1Zm34.1 10.4 3.3 5.1 3-1.7c-1-1.7-2-3.4-3.2-5-1 .4-2 1-3 1.6Zm-20.1-17c-1.2.5-2.2 1-3.3 1.7l3.1 5 3.3-1.8-3.1-4.9Zm3.2 11.8 3.3-1.8-3-4.9c-1.1.5-2.3 1-3.3 1.7l3 5Zm-10.2-22.7-3-5-3.5 1.6 3 5c1.4-.6 2.5-1 3.5-1.6ZM1669 110l3.3 5.1 3-1.7c-1-1.7-2-3.4-3.2-4.9l-3 1.5Zm6.7 10.6 3-1.9-3.2-5-3 1.8 3.2 5Zm-36.9-50.8c1 1.7 2 3.3 3.3 5l3.2-1.6-3-4.9c-1.3.3-2.3.9-3.5 1.5Zm40.3 56 3-1.8-3.2-5.1-3 1.9 3.2 5Zm-10.2-23 3.2 5.2c1-.7 2-1.2 3-1.7l-3.2-5.1c-1 .5-2 1-3 1.7Zm-44.6-26.5 3.2-1.5-3-4.6c0-.2-.4-.2-.4-.2l-3 1.4c1.1 1.5 2.1 3.2 3.2 5Zm27.5 21.1c1-.7 2.2-1.2 3.2-1.7l-3-5c-1 .6-2.1 1.3-3.3 1.8l3 5Zm30.6 34c-1-1.8-2-3.5-3.3-5l-3 1.9 3.2 4.9c1-.5 2-1.2 3-1.9Zm-33.9-53-3-5-3.3 1.5 3 5 3.3-1.5Zm20.2 17.2 3.2 5c1-.4 2-1.1 3.1-1.6l-3.2-5.1-3.1 1.7Zm7.3 40.1-3 2 3 4.7c1-.7 2-1.4 3.1-1.9-1-1.5-2-3-3-4.8ZM1652 83.5l-3-5c-1.1.5-2.3 1-3.3 1.7l3 5c1.2-.5 2.3-1 3.3-1.7Zm30 33.3c-1-1.7-2-3.4-3.2-4.9-1 .7-2 1.2-3 1.7l3.2 5.1a49 49 0 0 0 3-1.9Zm-2.7 2c1 1.8 2 3.5 3.3 5.2l2.9-1.9c-1-1.7-2-3.4-3.3-5-.8.6-1.9 1.3-2.9 1.8Zm-23.9-16.3c1-.5 2-1.2 3.3-1.7-1-1.7-2.1-3.2-3.1-4.7-1 .5-2 1.2-3.3 1.7l3.1 4.7Zm27.3 28.8 3-1.9c-1-1.7-2.1-3.4-3.3-4.9l-3 1.9c1.3 1.5 2.3 3.2 3.3 5Zm-7.1-24.8-3.1 1.7c1 1.7 2 3.4 3.2 4.9 1-.7 2-1.2 3.1-1.7a49.5 49.5 0 0 1-3.2-5ZM1642.3 68l3 5c1.1-.5 2.3-1 3.3-1.6l-3-4.9-3.3 1.5Zm9.8 22.3 3.2-1.7-3-4.9-3.3 1.7 3 5ZM1642 67.8l-3.1-4.8-3.3 1.6c1 1.7 2.1 3.2 3.1 4.7l3.3-1.5Zm30.2 33.2c1 1.7 2 3.4 3.3 5.1l3-1.7c-1-1.7-2-3.4-3.2-5-1 .4-2 1-3 1.6ZM1652 76.7l-3-5-3.3 1.5 3 4.6c0 .2.3.2.5.2l2.8-1.3Zm6.5 17.2-3-4.8-3.3 1.7 3.1 5 3.3-2Zm-6.3-10.4 3.3-1.7-3.1-5-3.3 1.7 3.1 5Zm33.3 39-2.9 1.8c1 1.7 2 3.4 3.3 5l2.9-1.9c-1-1.7-2-3.2-3.3-5Zm-33.1-38.7 3 5 3.1-1.8-3-4.7c-1 .3-2 .8-3.1 1.5Zm-13.3-21 2.9 4.5c0 .2.3.2.5.2 1-.6 1.9-.9 2.9-1.4l-3-4.8-3.3 1.6Zm19.6 31.4-3 1.7 3 4.8 3-1.7-3-4.8Zm23 15.5-3-5-3 1.8c1 1.7 2 3.4 3.2 4.9 1-.7 1.8-1.2 2.9-1.7ZM1649 71.4l3.2-1.6-3-4.7-3.3 1.5c1 1.5 2 3 3 4.8Zm39.4 48.8-3-4.9c-1 .7-2 1.2-3 1.7 1 1.7 2.1 3.4 3.3 5l2.7-1.8ZM1682 110l-2.9 1.7c1 1.7 2 3.4 3.3 5l2.9-1.7c-1-1.7-2-3.4-3.3-5Zm-6.8-17.8c-1 .5-2 1-3 1.7 1 1.7 2 3.4 3.2 5 1-.4 2-1.1 2.9-1.6l-3-5.1Zm7.4 46.3c-1-1.7-2-3.3-3.1-4.8l-3 1.9 3 4.7c1.2-.5 2-1.1 3-1.8Zm-23.8-44.8 3-1.7-3-4.8c-1 .5-2 1-3 1.7l3 4.8Zm-3.2-18.8-3-4.5c0-.2-.3-.2-.3-.2-1 .5-1.9 1-2.9 1.3l3.1 5 3-1.6Zm-10-8.8 3.3-1.5-3-4.8-3.3 1.5c1.2 1.6 2 3 3 4.8Zm19.7 31.2-3-4.8-3.1 1.7 3 4.8c1-.7 2-1.2 3.1-1.7Zm-9.6-22-3.2 1.5 3 4.8c1.1-.5 2.1-1 3.1-1.7-.8-1.5-1.8-3-2.9-4.6Zm23 22.1-3 1.7c1 1.7 2 3.4 3.3 5 1-.5 1.8-1.2 2.9-1.7-1.2-1.6-2.2-3.3-3.3-5Zm-29.3-32.7 3.1 5 3.2-1.6-3-4.7c-1.2.3-2.3.8-3.3 1.3Zm42.6 60.8-3.1-5c-1 .8-1.9 1.3-3 2l3.2 4.9c1-.7 1.8-1.4 2.9-1.9ZM1652.6 70l3 4.8 3.1-1.6-3-4.7-3.1 1.5Zm9.4 15.2c-1-1.7-2-3.3-3.1-4.8-1 .5-2 1-3 1.7l3 4.8c1-.7 2-1.2 3-1.7Zm.1 6.8 3.1-1.7-3-4.8-3.1 1.7c1 1.5 2 3 3 4.8Zm23 16.2-2.8 1.7 3 4.9c1-.7 2-1.2 3-1.7l-3.1-5Zm-9.8-16.2c1 1.7 2 3.4 3.2 5 1-.4 2-1.1 3-1.6l-3.1-5-3.1 1.6Zm3.6 12.6 3 5 3-1.8-3.1-5-3 1.8Zm3.7 33.7 3-1.9-3.1-4.7-3.1 1.8c1.3 1.7 2.2 3.3 3.2 4.8Zm-20.6-60-3.1-4.7-3 1.5 3 4.8 3-1.5Zm29.7 40-3-4.9-3 1.7 3 5 3-1.7Zm-26.3-27.7-3.1 1.7 3 4.8 3.2-1.7-3.1-4.8ZM1649 58.1l-3.2 1.5 3 4.8 3.3-1.5-3-4.8Zm32.7 44.3 2.9-1.7-3-5c-1.1.5-2 1-3 1.7l3 5Zm-26-34.4 3-1.6-3-4.7-3 1.5 3 4.8Zm3.3 12.2 3 4.8 3.1-1.7-3-4.8c-1 .7-2.1 1.2-3.1 1.7Zm6.3 3.6-3.1 1.7 3 4.8 3.2-1.7-3.1-4.8Zm20 24.2 3 5c1-.8 2-1.3 3-1.8l-3.1-5-3 1.8Zm-2.6 23.7 3 4.7 3-1.8-3-4.8c-1 .5-2 1.2-3 1.9Zm2.2-30.7-2.9 1.7 3 5 3-1.8-3-4.9Zm7 24.4c1-.7 2-1.2 3-2l-3.1-4.9-3 1.8 3.1 5Zm-29.9-53.9-3-4.7-3.1 1.5 3 4.8 3.1-1.6Zm6.5 23.7 3.1-1.7-3-4.8c-1.1.6-2.1 1-3.2 1.7 1 1.8 2.1 3.3 3.1 4.8Zm16-1.5-3.2-5-2.9 1.7c1 1.8 2 3.5 3.1 5 1-.7 1.9-1.2 3-1.7Zm-25.4-20.3c1 1.7 2 3.3 3.1 4.8l3-1.5c-1-1.8-2-3.3-3-4.8l-3 1.5Zm35.4 43.1-3-5-3 1.8 3 5 3-1.8Zm-6.8-17.5-3.1-5-3 1.7 3.1 5c1-.7 2.1-1.2 3-1.7Zm1.2 28.7c-1 .7-2.1 1.2-3 2l3.1 4.7 3-1.9-3.1-4.8Zm-36.4-71.1-3.1 1.5 3 4.8 3.1-1.6-3-4.7Zm9.5 8.1-3-4.7-3.1 1.5 3 4.8c1-.5 2.1-.9 3.1-1.6Zm3.3 18.6 3-1.5-3-4.8-3.1 1.5c1.2 1.7 2 3.3 3 4.8Zm26.6 35.2 3.1 5c1-.7 1.9-1.2 3-1.7l-3.2-5-2.9 1.7Zm-4.4-26.5-3-5-3 1.6 3 5 3-1.6Zm4 19 2.8-1.6-3-5-3 1.7 3.1 5Zm-23-22.6 3.1-1.7-3-4.8-3.2 1.6 3.1 4.9Zm16.6 12.6 3 5 3-1.8-3.1-4.9-3 1.7Zm-16.4-12.3 3 4.8c1-.5 2.1-1 3.1-1.7L1672 87c-1.2.7-2 1.2-3.2 1.7Zm25.8 21c-1 .5-1.9 1.2-3 1.7l3.2 5c1-.6 1.8-1.3 2.9-1.8l-3.1-5Zm-32.3-38.3 3-1.6-3-4.7-3 1.5 3 4.8Zm22.4 15.5 3 5 3-1.6-3.1-5-3 1.6Zm.1 7 3.1 4.9c1-.5 2-1 3-1.7l-3.1-5c-.9.7-2 1.2-3 1.8Zm-16.2-19-3-4.7-3.1 1.5 3 4.8 3.1-1.6Zm20.5 52.7 3 4.7 2.8-1.8-2.9-4.6c-1 .5-1.8 1.2-2.9 1.7ZM1653 56.4c1 1.5 1.9 2.9 2.7 4.4 0 .2.4.2.6.2l2.9-1.4-3-4.7-3.2 1.5Zm18.8 23.7-3-4.8-3.2 1.5 3.1 4.8 3.1-1.5Zm22.7 22.6-2.9 1.7 3 5 2.8-1.8c-.8-1.7-1.9-3.2-2.9-4.9Zm-22.5-16 3-1.5-2.9-4.8-3 1.5c1 1.7 1.8 3.3 2.9 4.8Zm16 5.5 3.1 4.9 3-1.7-3.2-5c-.8.7-1.8 1.2-2.9 1.8Zm6.9 17.3 3 5 2.8-1.7-3.1-5c-.9.7-1.7 1.2-2.7 1.7Zm-6.5-10.4 3 5c1-.5 2-1 3-1.7l-3.1-5c-1 .7-2 1.2-3 1.7Zm12.6 20.6-3-4.9-2.8 1.7 3 5c1-.6 2-1 2.8-1.8Zm-35.5-56.5-3.1-4.8-3 1.6 3 4.7 3-1.5Zm12.6 27-2.9-4.9c-1 .5-2 1-3 1.7l2.8 4.8 3.1-1.7Zm-12.5-20.4 3.1-1.5-2.9-4.8-3 1.6 2.8 4.7Zm3.3-1.2-3 1.6 3 4.7 3-1.5-3-4.8Zm34.8 42.5-3-5-2.8 1.7 3.1 5c.9-.7 1.9-1.2 2.7-1.7Zm-6.3-10c-1 .4-1.9 1-2.7 1.6l3 5 2.8-1.8-3-4.9Zm-.1-.4-3.1-5-3 1.7 3.2 5 2.9-1.7Zm-25.3-27.1-3.1 1.5 2.9 4.8 2.9-1.5c-.7-1.6-1.7-3.1-2.7-4.8Zm-9.3-15.2 3.1 4.8 3-1.5-2.8-4.8-3.3 1.5Zm-.5-.3c-1-1.5-2-3-2.9-4.8l-3 1.4c1 1.5 2 3 2.9 4.8l3-1.4Zm30.1 67.6 2.9 4.6 3-1.9c-1.1-1.5-2-3-3-4.6l-2.9 1.9Zm-26.3-62.3 2.7 4.4c0 .2.4.2.4.2l2.7-1.4c-1-1.5-2-3-3-4.8-1 .7-1.8 1-2.8 1.6Zm38 54.5-3-4.8-2.7 1.7 3 5 2.8-2ZM1678 83.5c-1-1.6-2-3.1-2.9-4.8l-2.9 1.5c1 1.6 2 3 3 4.8l2.8-1.5Zm-3-11.8c-1-1.5-2-3-3-4.8l-3 1.6 2.9 4.7 3-1.5Zm-6.2-10.2 2.9-1.5-3-4.8-3 1.4 3 4.9Zm32.3 51.4 3 4.8 2.8-1.7-3-4.8-2.8 1.7Zm-19.8-24.5c-1-1.5-2-3-3-4.8l-2.8 1.6c1 1.5 2 3 2.9 4.7l2.9-1.5Zm-6.4-23.3-2.9-4.8-2.9 1.5 3 4.8 2.8-1.5Zm-9.5-8.5-3-4.6c-1 .5-2 1-3 1.3l2.9 4.8 3-1.5Zm9.7 21.6 3-1.5-3-4.8-2.9 1.5c1 1.7 1.9 3.3 3 4.8Zm0-6.7 3-1.5c-1.1-1.5-2-3-3-4.6l-2.9 1.5c1 1.6 1.9 3.1 3 4.6Zm3 5.5-2.8 1.5c1 1.6 2 3 2.9 4.8l2.9-1.5c-.9-1.7-1.9-3.3-3-4.8Zm20 45-2.8 1.7 2.9 4.6c1-.7 1.9-1.2 2.7-2l-2.7-4.3Zm-32.4-65.6 3-1.5-2.8-4.6c-1 .5-2 1-3 1.3.8 1.7 1.8 3.3 2.8 4.8Zm12.5 20.3 2.9-1.6-3-4.6-2.8 1.6c1 1.3 2 2.8 2.9 4.6Zm6.1 10-2.9-4.6-2.9 1.5 3 4.8 2.8-1.7Zm0-6.6c-1-1.6-1.8-3.1-2.9-4.6l-2.9 1.5 3 4.6 2.8-1.5Zm.2.3-2.9 1.5c1 1.6 1.9 3.1 3 4.6l2.8-1.5-2.9-4.6Zm16.6 39.7-2.8 1.7 3 4.6 2.7-1.7c-.9-1.6-1.9-3-3-4.6Zm3-1.9-2.7 1.7 3 4.6 2.7-1.7a108 108 0 0 1-3-4.6Zm3-1.7-2.8 1.7 3 4.6c.8-.7 1.8-1.2 2.7-1.7l-3-4.6Zm-9.6-15.7 3 5 2.6-1.6-3-4.7c-.9.3-1.6.8-2.6 1.3Zm-6.7-10.7 2.6-1.5-3-5-2.6 1.4c1 1.9 2 3.4 3 5.1Zm15.6 19.3c-1-1.8-2-3.3-3.1-4.8l-2.6 1.5 3.1 5 2.6-1.7Zm-9.8-15.5-3-5-2.6 1.5 3 5 2.6-1.5Zm10.5 22 2.5-1.6-3-4.8-2.6 1.6 3 4.9Zm-12.8-20.2 3 5 2.6-1.6-3-4.7-2.7 1.3ZM1674.8 59c-.9.6-1.7.9-2.8 1.4 1 1.5 2 3 3 4.8l2.5-1.4c-.7-1.7-1.7-3-2.7-4.8Zm37.9 60.3c-1-1.5-1.9-3-3-4.4l-2.5 1.7 3 4.6c.8-.8 1.6-1.4 2.5-1.9ZM1684 73.6l-3-4.6-2.5 1.4 3 4.5 2.5-1.3ZM1672 60l2.8-1.4-3-4.6-2.7 1.4 3 4.6Zm12.7 20.2 2.9 4.6c.8-.5 1.7-1 2.6-1.3l-3-4.6-2.5 1.3Zm-3.8-11.6-2.9-4.5-2.5 1.3 2.9 4.6c.8-.5 1.7-.8 2.5-1.4Zm.7 6.7 3 4.6 2.5-1.4-3-4.6-2.5 1.4Zm-12.8-20.4c.9-.6 1.7-.9 2.7-1.4l-2.7-4.3-.5-.1c-.9.3-1.6.6-2.4 1.2l2.9 4.6ZM1670.8 47.2l.7-.4 42.6-20.7c1-.5.7-.5 1.3.3l39.7 66c.3.4.3.6-.2 1-12.8 8.5-25.5 17-38.3 25.3-1 .7-1 .7-1.7-.3l-43.5-70.9-.6-.3Zm31.7 37-3.1-5-3 1.7 3.1 5c.9-.6 2-1 3-1.8Zm.1 7c1-.6 1.9-1.3 3-1.8l-3.1-5-3 1.8c1.2 1.7 2 3.2 3.1 5Zm-6.3-10.1-3 1.7 3.2 5c1-.6 1.8-1.3 2.9-1.8-1.2-1.7-2-3.4-3.1-5Zm3.2-2 3.1 4.9c1-.5 1.9-1.2 3-1.7l-3.1-5c-1 .7-2 1.2-3 1.7Zm12.5 20.7-3-5c-1 .8-2 1.3-3 1.8l3.1 5c1-.6 1.9-1.3 3-1.8Zm-15.4-12 3.1 5c1-.5 1.9-1.2 3-1.7l-3.2-5c-1 .8-2 1.3-2.9 1.8Zm9.3 1.8c-1 .7-2 1.2-3 1.7l3.1 5 3-1.8c-1.3-1.7-2.1-3.2-3.1-4.9Zm3 12-3-4.9-3 1.8 3.1 4.9 3-1.7Zm.4.3 3 4.9 3-1.9-3.1-5c-1 .8-1.9 1.3-3 2Zm2.9 4.9-3-5c-1.1.7-2 1.2-3 2l3 4.9 3-1.9Zm-6.3-17.5c1-.6 1.8-1.2 2.9-1.7l-3.1-5c-1 .5-1.9 1.2-3 1.7l3.2 5Zm-3.1 2.2c-1 .5-1.9 1.2-3 1.7l3.2 5c1-.8 1.8-1.3 2.9-1.8-1.2-1.7-2-3.2-3.1-5Zm12.6 20.4-3-4.8c-1 .7-2 1.2-3 2l3.1 4.8 3-2ZM1683.8 54c-1-1.5-1.8-3.2-2.9-4.8l-3 1.6 2.8 4.7 3.1-1.5Zm31.8 58 2.9-2-2.9-4.7-2.9 1.8c.8 1.6 1.9 3.1 2.9 4.8Zm-34.7-56.1 3 4.7 3-1.5-2.9-4.8-3 1.6Zm31 36.8-3-4.8c-1 .7-1.8 1.2-2.9 1.7l3.1 5 2.7-2Zm-2.6 2 3 5 3-1.8-3-4.7c-1.3.5-2.2 1-3 1.5Zm-6.7-17.4 3 5c1.1-.5 2-1.2 3-1.7l-3-5-3 1.7ZM1690 64.1l-3-4.8-3 1.5 2.9 4.8 3-1.5Zm28.2 39c-1-1.8-2-3.3-3-4.8-1 .7-1.8 1.2-2.9 1.7l3.1 5a26 26 0 0 1 2.8-2Zm-9.3-15.7c1-.7 2-1.2 3-1.7-1-1.7-2.1-3.3-3-5-1 .6-1.8 1.2-2.9 1.7.9 1.7 2 3.3 3 5Zm-34.3-41.6 3 4.6 3-1.5c-.9-1.5-1.7-2.9-2.8-4.3l-.5-.1-2.7 1.3Zm18.5 23.2-3-4.6c-1 .5-2 1-3 1.7l2.9 4.8c1-.9 2-1.4 3-2Zm0 6.6 3-1.7-2.9-4.6-3 1.7 2.8 4.6Zm-12-26.5 2.9 4.7 3-1.5c-1-1.5-1.8-3-2.8-4.8l-3.1 1.6Zm40.3 58.9-2.9-4.8c-1 .7-1.9 1.2-2.7 1.9l2.9 4.8 2.7-2ZM1706 75.6l3 5c1-.5 2-1 3-1.7-1-1.7-2.1-3.3-3-5-1.2.5-2.2 1-3 1.7Zm9 15.2L1712 86l-2.9 1.7 3 4.8 2.8-1.7Zm3 5.1c-1-1.7-2-3.2-2.8-4.8-1 .7-1.9 1.2-3 1.7l3 4.8c1.2-.5 2-1 2.9-1.7Zm-18.7-17-2.9-4.6-3 1.7 2.8 4.6 3.1-1.7Zm-15-24.7 2.9 4.7 3-1.5-2.9-4.6-3 1.4Zm34 42-2.8 1.7 3 4.8 2.7-1.7c-.9-1.5-2-3-3-4.8Zm-27.9-38.6-3 1.5 2.9 4.8 3-1.6-2.9-4.7Zm6 9.7-3-4.6-3 1.5 3 4.6 3-1.5Zm-15.4-18.6 3.1-1.5-3-4.6-3 1.5 3 4.6Zm28 32 3 5c1-.5 1.8-1.2 2.7-1.7l-3-4.8c-.8.3-1.6 1-2.7 1.5Zm-.1-7 2.9 5c1-.5 1.8-1 2.7-1.7l-2.9-4.8-2.7 1.6ZM1687.4 46l-3 1.5 2.8 4.8 3.1-1.5-2.9-4.8Zm11.8 26.2-2.9-4.6c-1 .5-2 1-3 1.7l3 4.6 2.9-1.7Zm13.5 42 2.9 4.5c1-.7 1.9-1.2 2.7-1.9l-2.9-4.6c-.8.7-1.7 1.4-2.7 2Zm11.6-8-2.9-4.9-2.7 1.7 2.9 4.8 2.7-1.7ZM1681 62.4c1 1.7 1.9 3.3 3 4.8l2.8-1.5-2.9-4.8-2.9 1.5Zm-.3-6.8-3-4.8-2.8 1.6 2.9 4.7c.8-.6 1.9-1 2.9-1.5Zm37.2 26.4-2.9-4.8c-1 .5-1.9 1-2.7 1.7l2.9 4.8c.8-.7 1.7-1.2 2.7-1.7Zm-30.7-9.4 2.9 4.8 2.9-1.7-3-4.6c-.8.3-1.8.9-2.8 1.5Zm6.1 3.3-2.9 1.7 3 4.7 2.8-1.7c-1-1.7-2-3-2.9-4.7Zm6.2 2.9c1-.5 1.8-1.2 2.9-1.7-1-1.6-1.9-3.1-3-4.6l-2.8 1.7 2.9 4.6Zm12.8 7 2.9 4.7c1-.5 1.9-1.2 2.7-1.7l-2.9-4.8c-.8.7-1.9 1.2-2.7 1.7ZM1686.9 66l-2.9 1.5 2.9 4.8 3-1.5-3-4.8Zm.5-13.6 3 4.6c1-.5 2-1 2.8-1.6l-2.9-4.6-2.9 1.6Zm33.7 41.7-3-4.8c-1 .5-1.8 1.2-2.7 1.7l3 4.8c.8-.7 1.6-1.2 2.7-1.7Zm.3 6.8 2.7-1.7c-1-1.7-1.8-3.2-2.9-4.8a63 63 0 0 1-2.7 1.7l3 4.8Zm-2.9 15.8c1-.6 1.9-1.1 2.7-1.8l-2.9-4.6-2.9 1.8a35 35 0 0 1 3.1 4.6Zm-37.8-54.6 3-1.6-3-4.7-2.9 1.5c.9 1.7 2 3.2 3 4.8Zm31.1 9.9 3 4.7c1-.5 1.8-1 2.7-1.7-1-1.7-1.9-3.2-3-4.7l-2.7 1.7Zm-18.2-16.2-3 1.5 3 4.6 2.9-1.5-3-4.6Zm2.9 11.2 2.9-1.5-3-4.6-2.8 1.5 2.9 4.6Zm-9.3-21.4c-1-1.6-1.8-3.1-2.9-4.6l-3 1.5 2.9 4.6 3-1.5Zm27.9 38.4 2.9 4.8c1-.5 1.9-1.2 2.7-1.7l-2.9-4.8-2.7 1.7Zm6.1 10 2.8-1.8-3-4.7c-1 .5-1.8 1.1-2.7 1.7l3 4.7Zm-33.6-48.3 2.9 4.8 2.9-1.5c-1-1.6-1.9-3.1-3-4.6l-2.8 1.3Zm36.7 53.3 2.8-1.7-3-4.7c-1 .5-1.8 1.2-2.7 1.7l3 4.7Zm-9.4-22c1 1.8 1.9 3.3 3 4.8 1-.5 1.8-1 2.6-1.7l-2.8-4.7-2.8 1.7ZM1674.4 52l3-1.6-2.8-4.4c0-.2-.3-.2-.3-.2l-2.8 1.4 3 4.8Zm25.1 20 3-1.6-3-4.6-2.9 1.5 3 4.8Zm27.7 32.2-2.9-4.7-2.7 1.7 2.9 4.7c.8-.5 1.9-1 2.7-1.7ZM1696.5 54l-3-4.6-2.8 1.5c1 1.6 1.8 3.1 2.9 4.6l2.9-1.5Zm18.4 16.4 3 4.7 2.6-1.5-2.8-4.8c-1 .5-2 1-2.8 1.6Zm6.7 38c-1 .6-1.9 1.1-2.8 1.8l3 4.6 2.7-1.9-3-4.6Zm-22-49.5-3-4.6-2.9 1.6 3 4.6 2.8-1.6Zm27.3 31.5c-1-1.7-1.9-3.2-3-4.7l-2.7 1.7 3 4.7 2.7-1.7Zm-2.6 2c1 1.8 1.9 3.3 3 4.9.8-.7 1.8-1.2 2.7-1.7l-3-4.8c-1 .5-1.8 1-2.7 1.7ZM1702.5 77l2.8-1.7c-1-1.5-1.8-3-2.7-4.6l-2.9 1.7 2.8 4.6Zm24.9 27 2.7-1.6-2.9-4.8a63 63 0 0 1-2.7 1.7l2.9 4.8Zm-6.5-23.3c-1 .6-1.9 1-2.7 1.7 1 1.6 1.8 3.3 2.9 4.8l2.7-1.7-2.9-4.8Zm-30-36.4 2.8 4.6 3-1.5-3-4.6-2.9 1.5Zm8.6 21.1 3-1.5-3-4.6-2.9 1.5 3 4.6Zm-9.2-21.3c-1-1.5-1.9-3-2.7-4.6l-3 1.6 2.8 4.6c1-.7 1.9-1 3-1.6Zm27.7 31.4 2.9 4.7c.8-.5 1.9-1 2.7-1.7-1-1.7-1.8-3.2-2.9-4.7a63 63 0 0 1-2.7 1.7Zm-18.5-23.2c-1-1.5-1.8-3-2.7-4.6l-2.9 1.5a35 35 0 0 0 2.7 4.3c0 .2.4.2.6.2l2.3-1.4Zm6 16.3-2.7-4.5-3 1.5c1.1 1.5 2 3 3 4.6l2.7-1.6Zm-5.8-9.8 3-1.6c-1.1-1.5-2-3-2.8-4.6l-3 1.6 2.8 4.6Zm30.4 37c-.8.6-1.9 1.1-2.7 1.6l2.9 4.8c.9-.7 1.9-1.2 2.7-1.7l-2.9-4.8ZM1700 59l2.9 4.6 2.9-1.5c-1-1.6-1.9-3-2.7-4.6l-3.1 1.5Zm-12.1-19.7a85.4 85.4 0 0 0 2.9 4.4l2.7-1.4c-.9-1.5-1.9-3-2.7-4.6l-3 1.6Zm17.9 29.6-3 1.5c1.1 1.6 2 3 2.8 4.6l3-1.7c-1-1.3-2-2.9-2.8-4.4Zm21 14.6-2.9-4.7c-1 .5-1.9 1-2.7 1.7l2.9 4.7c.8-.5 1.7-1.2 2.7-1.7Zm-29.9-36.2 3-1.6c-1.1-1.5-2-3-2.8-4.6l-3 1.6 2.8 4.6Zm35.9 46.3c-1-1.7-1.9-3.3-3-4.8l-2.7 1.7 3 4.8c1-.5 1.8-1.2 2.7-1.7Zm-5.8-9.7c-.9.5-1.9 1-2.8 1.7l3 4.7c1-.5 1.8-1.1 2.7-1.7l-3-4.7Zm-6.4-16.9-2.7 1.5c1 1.8 1.9 3.3 3 4.8l2.7-1.5-3-4.8Zm6.7 44-2.7-4.6c-1 .6-1.9 1.1-2.8 1.8 1 1.6 2 3 2.8 4.6l2.7-1.8Zm-21.5-42.5 2.9-1.5c-1-1.5-1.9-3-2.7-4.6l-3 1.6 2.8 4.5Zm-3-17.8-2.6-4.3c0-.2-.4-.2-.4-.2l-2.7 1.4c1 1.5 1.9 3 2.7 4.6l3-1.5Zm-9-8.4 3-1.5c-1-1.5-2-3-2.8-4.6l-2.9 1.5 2.7 4.6Zm17.8 29.5c-1-1.5-1.9-3-2.7-4.6l-3 1.5c1 1.6 2 3 2.8 4.6l2.9-1.5Zm-8.7-20.8-3 1.5c1.1 1.6 2 3.1 2.8 4.6l3-1.5a41 41 0 0 0-2.8-4.6Zm20.8 21.1-2.7 1.6 2.9 4.7 2.7-1.5-2.9-4.8ZM1697 41.1c1 1.5 1.9 3 2.7 4.6l3-1.6c-1.1-1.5-2-3-2.8-4.6-.9.7-1.9 1-3 1.6Zm38.8 57.5-3-4.6c-.8.5-1.6 1.2-2.7 1.7l3 4.8 2.7-1.9ZM1700 46c1 1.5 1.8 3 2.7 4.6l2.9-1.5-2.7-4.6-3 1.5Zm8.5 14.5c-1-1.6-1.9-3-2.7-4.6l-3 1.5c1 1.5 2 3 2.8 4.6l2.9-1.5Zm.2 6.4 2.9-1.5c-1-1.5-2-3-2.8-4.6l-2.9 1.5c.9 1.6 1.7 3.1 2.8 4.6Zm20.8 15.4L1727 84c1 1.5 1.8 3.2 2.9 4.7l2.7-1.7c-.8-1.7-1.9-3.2-2.9-4.7Zm-8.9-15.4c1 1.7 1.9 3.3 3 4.8l2.7-1.5-3-4.8-2.7 1.5Zm3.3 12 2.9 4.7 2.7-1.7-2.9-4.7-2.7 1.7Zm3.4 32c.8-.7 1.9-1.2 2.7-1.9-.8-1.5-1.9-3-2.7-4.4-.9.7-1.9 1.2-2.8 1.7 1 1.5 2 3 2.8 4.6ZM1708.6 54c-1-1.5-1.9-3-2.7-4.6l-3 1.5 2.8 4.6 2.9-1.5Zm27 38-3-4.8-2.5 1.7 3 4.8c.8-.7 1.6-1.2 2.5-1.7Zm-24-26.4-2.8 1.5c1 1.5 1.9 3 2.7 4.6l2.7-1.5c-.7-1.6-1.5-3-2.5-4.6ZM1697 34.9c-1 .5-1.9 1-3 1.4 1.1 1.5 2 3 2.8 4.6l3-1.5c-1-1.6-1.8-3.1-2.8-4.5Zm29.7 42 2.7-1.6-2.9-4.8-2.7 1.6 2.9 4.7ZM1703 44l2.9-1.5c-1-1.5-2-3-2.8-4.6-1 .5-1.8 1-2.9 1.4.9 1.7 1.7 3.2 2.8 4.7Zm3 11.8c.9 1.5 2 3 2.8 4.6 1-.5 1.9-1 2.7-1.6-1-1.5-1.9-3-2.7-4.6-.9.6-2 1-2.8 1.6Zm5.8 3.2-2.9 1.5 2.8 4.6 2.7-1.5-2.6-4.6Zm18.2 23c1 1.5 1.8 3.2 2.8 4.8 1-.5 1.8-1 2.6-1.7l-2.9-4.6-2.5 1.5Zm-2.4 22.3 2.7 4.6 2.7-1.9c-.8-1.5-1.8-3-2.7-4.4-.9.5-1.7 1.2-2.7 1.7Zm1.8-29c-.8.6-1.7 1-2.7 1.6l3 4.8 2.5-1.6-2.8-4.7Zm6.5 23.2 2.6-1.7-3-4.6-2.5 1.7 3 4.6Zm-27.1-51c-.9-1.6-2-3.1-2.8-4.7l-2.9 1.6c1 1.5 2 3 2.8 4.6l2.9-1.6Zm5.8 22.4 2.7-1.5c-.8-1.6-1.9-3-2.7-4.4l-2.8 1.5c1 1.5 2 2.9 2.8 4.4Zm14.5-1.5c-1-1.7-1.9-3.3-3-4.8l-2.6 1.5c1 1.6 1.8 3.3 2.9 4.8l2.7-1.5Zm-23-19.1 2.7 4.6 2.7-1.5c-.8-1.6-1.9-3.1-2.7-4.6l-2.8 1.5Zm32.2 40.7-2.9-4.6-2.6 1.7c1 1.5 2 3 3 4.8l2.5-1.9Zm-6.1-16.5-3-4.6-2.5 1.5 3 4.8c.6-.7 1.5-1.2 2.5-1.7Zm1 27.2c-.9.7-1.9 1.2-2.7 1.7l2.7 4.5c.8-.7 1.7-1.2 2.7-1.7l-2.7-4.5Zm-33.1-67.4-3 1.4 2.8 4.4 2.9-1.4c-.9-1.5-1.9-2.9-2.7-4.4Zm8.7 7.8c-1-1.5-2-3-2.8-4.6-1 .5-1.8 1-2.9 1.4.9 1.5 2 3 2.8 4.6l2.9-1.4Zm2.9 17.6 2.7-1.6-2.7-4.4-2.8 1.5c1 1.4 2 3 2.8 4.5Zm24.2 33.3 2.8 4.6 2.5-1.7c-1-1.5-1.9-3-2.7-4.6l-2.6 1.7ZM1732 67l-2.9-4.7-2.6 1.5 3 4.8 2.5-1.6Zm3.6 18.1 2.6-1.5-3-4.6-2.5 1.5 2.9 4.6Zm-20.8-21.5 2.7-1.5-2.8-4.4-2.7 1.5c.9 1.5 1.7 3 2.8 4.4Zm14.8 12 3 4.6 2.5-1.6-2.8-4.6-2.7 1.6ZM1715 63.9l2.8 4.4 2.7-1.5-2.8-4.5-2.7 1.6Zm23.4 19.7c-.8.5-1.7 1-2.5 1.7 1 1.6 1.8 3.1 2.9 4.6.8-.5 1.7-1 2.5-1.7-1-1.3-2-2.9-2.9-4.6Zm-29.4-36c1-.6 2-1 2.8-1.6-1-1.5-2-3-2.8-4.6l-2.7 1.4c.9 1.7 1.7 3.2 2.7 4.7Zm20.4 14.4 2.9 4.8 2.5-1.6c-1-1.5-1.9-3-2.7-4.6l-2.7 1.4Zm.1 6.6 3 4.6 2.5-1.5c-1-1.5-1.9-3-2.7-4.6l-2.8 1.5Zm-14.8-17.8-2.8-4.6-2.7 1.5c.9 1.5 1.9 3 2.7 4.6l2.8-1.5Zm18.8 49.9c.8 1.5 1.8 3 2.7 4.4l2.6-1.7-2.8-4.4-2.5 1.7Zm-33.2-67.5a914.8 914.8 0 0 0 3 4.3l2.5-1.4-2.7-4.4c-.9.7-1.8 1-2.8 1.5Zm17.3 22.3-2.8-4.4-2.7 1.5 2.8 4.5 2.7-1.6Zm20.7 21.7-2.6 1.5c1 1.5 1.9 3 2.7 4.6l2.6-1.5-2.8-4.6Zm-20.5-15.4 2.7-1.5-2.8-4.4-2.7 1.5 2.8 4.4Zm14.6 5.3c1 1.5 2 3 2.8 4.6l2.5-1.5-2.7-4.6-2.6 1.5Zm6.2 16.5 2.7 4.6 2.6-1.5-2.8-4.6-2.5 1.5Zm-6-9.8 2.8 4.6 2.5-1.6c-1-1.5-1.9-3-2.7-4.6l-2.6 1.6Zm11.6 19.5-2.7-4.6-2.6 1.7 2.8 4.6 2.5-1.7Zm-32.4-53.6-2.8-4.4c-1 .5-1.8 1-2.7 1.3l2.7 4.6c1-.7 2-1 2.8-1.5Zm11.6 25.4-2.8-4.5c-.8.6-1.8 1-2.7 1.6l2.8 4.4c.8-.5 1.7-.8 2.7-1.5Zm-11.5-19.3 2.8-1.5-2.8-4.4c-1 .5-1.8 1-2.7 1.3l2.7 4.6Zm3-1-2.8 1.5 2.8 4.6 2.7-1.5a41 41 0 0 0-2.8-4.6Zm31.7 40.2c-1-1.5-1.9-3-2.7-4.6l-2.6 1.5 2.8 4.6 2.5-1.5Zm-5.6-9.5-2.6 1.5 2.8 4.6 2.5-1.5-2.7-4.6Zm-.2-.4c-1-1.5-1.9-3-2.7-4.6l-2.6 1.6 2.8 4.6 2.5-1.6Zm-23-25.5-2.8 1.5 2.8 4.4 2.7-1.5-2.8-4.4ZM1709 35c.9 1.5 1.9 3 2.7 4.6l2.8-1.4-2.8-4.4c-.8.2-1.7.7-2.7 1.2Zm-.3-.3c-.9-1.6-1.7-3-2.8-4.5l-2.7 1.4 2.7 4.4c.9-.3 1.7-.8 2.8-1.3ZM1736 99c.9 1.5 1.9 2.9 2.7 4.4l2.6-1.7c-.9-1.5-1.7-3-2.7-4.4L1736 99Zm-24-59.1a93.6 93.6 0 0 0 2.8 4.4c.9-.3 1.5-.9 2.6-1.4l-2.8-4.4c-.8.3-1.7.9-2.7 1.4Zm34.6 51.6-2.7-4.6c-.9.5-1.8 1-2.6 1.7 1 1.5 1.9 3 2.7 4.6 1-.5 1.7-1 2.6-1.7Zm-23.4-32.7-2.8-4.5c-.8.6-1.8 1-2.7 1.6l2.8 4.4 2.7-1.5Zm-3-11.1-2.6-4.4-2.8 1.3 2.8 4.5c1-.4 1.8-.9 2.7-1.4ZM1715 38l2.8-1.4-2.8-4.4-2.7 1.4c.8 1.5 1.7 3 2.7 4.4Zm29.2 48.9c1 1.5 2 3 2.8 4.6.8-.5 1.7-1 2.5-1.7-.8-1.6-1.9-3.1-2.7-4.6l-2.6 1.7Zm-18-23.4-2.8-4.4-2.8 1.5 2.8 4.5c1-.5 1.9-1 2.7-1.6Zm-5.7-22.1c-.9-1.5-1.7-2.9-2.8-4.4-.8.5-1.8.8-2.7 1.3l2.8 4.5c1-.4 1.8-.9 2.7-1.4Zm-8.6-8c-.8-1.5-1.7-2.9-2.7-4.4-1 .5-1.9.8-2.7 1.3.8 1.6 1.7 3 2.7 4.5.9-.6 1.7-.9 2.7-1.4Zm8.8 20.4 2.7-1.5c-.9-1.5-1.7-2.9-2.8-4.4-.8.5-1.7 1-2.7 1.3l2.8 4.6Zm0-6.3c.8-.5 1.8-1 2.7-1.3-.9-1.6-1.7-3-2.8-4.5-.8.6-1.8 1-2.7 1.4l2.8 4.4Zm2.9 5.3-2.8 1.5c.9 1.6 1.7 3 2.8 4.5l2.7-1.6-2.7-4.4Zm18 42.6L1739 97l2.7 4.4 2.6-1.7c-1-1.5-1.9-2.9-2.7-4.4ZM1712 33.2l2.8-1.3-2.6-4.5-2.8 1.4a23 23 0 0 0 2.6 4.4Zm11.5 19.1 2.7-1.5-2.7-4.5-2.8 1.4c.9 1.7 1.9 3 2.8 4.6Zm5.4 9.5c-.8-1.5-1.7-2.9-2.7-4.4l-2.7 1.5c.8 1.6 1.7 3 2.7 4.5 1-.5 1.9-1 2.7-1.6Zm0-6.3a59 59 0 0 0-2.7-4.4l-2.7 1.5c.8 1.6 1.7 3 2.7 4.5 1-.5 1.9-1 2.7-1.6Zm.2.4-2.6 1.5c.9 1.5 1.7 2.9 2.8 4.4l2.5-1.5-2.7-4.4Zm15.2 37.8-2.6 1.7 2.8 4.4 2.5-1.7-2.7-4.4Zm2.7-1.9c-.8.5-1.7 1-2.5 1.7l2.5 4.4 2.6-1.7-2.6-4.4Zm2.6-1.7-2.6 1.7 2.6 4.3 2.6-1.7-2.6-4.3Zm-8.5-14.8c1 1.5 1.8 3 2.7 4.6l2.4-1.5-2.8-4.6-2.4 1.5Zm-6.2-10c.9-.6 1.5-1 2.4-1.4-1-1.6-1.9-3-2.7-4.6l-2.4 1.3 2.7 4.6Zm14.2 18-2.8-4.6-2.3 1.5 2.7 4.6 2.4-1.5Zm-8.9-14.7-2.7-4.5-2.4 1.3c1 1.5 1.9 3 2.7 4.6.9-.3 1.5-.8 2.4-1.4Zm9.4 21 2.4-1.5-2.8-4.6-2.3 1.5c.8 1.7 1.8 3 2.7 4.6ZM1738 70.4l2.7 4.5 2.4-1.5c-.8-1.5-1.9-3-2.7-4.6-.7.7-1.6 1-2.4 1.6Zm-17.6-34.8-2.4 1.2c.8 1.5 1.9 3 2.7 4.4l2.4-1.2c-1-1.5-1.9-2.9-2.7-4.4Zm34.3 57-2.5-4.2-2.4 1.5c.8 1.6 1.7 3 2.5 4.3l2.4-1.5Zm-26.1-43.2c-.9-1.5-1.7-2.9-2.8-4.4l-2.3 1.3c.8 1.6 1.7 3 2.7 4.5l2.4-1.4Zm-11-12.8 2.4-1.2c-.8-1.5-1.7-2.9-2.7-4.4-.8.4-1.5.9-2.4 1.2l2.8 4.4Zm11.7 19.3 2.5 4.4c.9-.5 1.6-.8 2.4-1.4l-2.5-4.4c-.9.4-1.6.9-2.4 1.4Zm-3.5-11c-.8-1.6-1.7-3-2.7-4.5l-2.4 1.2c.9 1.5 1.7 2.9 2.8 4.4.8-.3 1.5-.7 2.3-1.2Zm.6 6.2c.8 1.5 1.7 2.9 2.7 4.4l2.4-1.3-2.6-4.5c-.8.6-1.7.9-2.5 1.4ZM1714.9 32c.9-.4 1.5-.9 2.4-1.2l-2.4-4.1c0-.2-.3-.2-.3-.2l-2.3 1c.7 1.6 1.6 3 2.6 4.5Z"/><path fill="#394149" stroke="#5C5F63" stroke-miterlimit="10" stroke-width=".5" d="m1421.3 136.8 68.5-30 93.4 49-69.7 41.8-92.2-60.8Z"/><path fill="#252E36" d="m1518.6 262.6 10.6-7.1 7.4 7.1-4.6 1.4.8 16.2 25.3 19.2 13.3-15.8 6 4.6 7.3-4.8 7.2 3.4 50-37.5 6.6-47.6-35.4-19.1-3.6-2.6s-1.2-1.3 3.8-4c5-2.8 9.5-5 8.2-9.3-1.4-4.2-6.5-12-10.4-13-4-1-5.5-1-10.6 2.1-5.2 3.3-7.9 6.2-7.9 6.2l-4-2.2-3 2-1.4-6-70.9 42 5.3 64.8L1432 200l-10.7-63 92.2 60.7"/><path stroke="#5C5F63" stroke-miterlimit="10" stroke-width=".5" d="m1518.6 262.6 10.6-7.1 7.4 7.1-4.6 1.4.8 16.2 25.3 19.2 13.3-15.8 6 4.6 7.3-4.8 7.2 3.4 50-37.5 6.6-47.6-35.4-19.1-3.6-2.6s-1.2-1.3 3.8-4c5-2.8 9.5-5 8.2-9.3-1.4-4.2-6.5-12-10.4-13-4-1-5.5-1-10.6 2.1-5.2 3.3-7.9 6.2-7.9 6.2l-4-2.2-3 2-1.4-6-70.9 42 5.3 64.8Zm0 0L1432 200l-10.7-63 92.2 60.7"/><path fill="#394149" stroke="#5C5F63" stroke-miterlimit="10" stroke-width=".5" d="m1536.7 203.5 1.6 57.4 53.8 25.7 2.6-47.8-58-35.3Z"/><path fill="#5C5F63" d="M1581.7 173.2a5.6 5.6 0 1 0 0-11.2 5.6 5.6 0 0 0 0 11.2ZM1556.2 176.2c1.4-2.8 2-5.4 1.1-5.7-.7-.4-2.5 1.5-3.8 4.3-1.4 2.8-2 5.4-1.2 5.7.8.4 2.5-1.5 4-4.3Z"/><path fill="#252E36" stroke="#5C5F63" stroke-miterlimit="10" stroke-width=".5" d="m1547 136.8 14.5-20-2.7-5 5-2.5 31.2 50.1-2.2 2.6-4.1-2.2-25.3-40-13.3 18.7-3.1-1.7Z"/><path stroke="#5C5F63" stroke-miterlimit="10" stroke-width=".3" d="m1486.5 239.3-5.8-41.7 6.5 4.2-.9-15.6 19.9 13.6 4 56.7-23.7-17.2Z"/><path stroke="#5C5F63" stroke-miterlimit="10" stroke-width=".3" d="m1481.2 201.5 26.3 16.7v3.2l-25.8-16.3.5 3.5 25.8 16.2.2 3.4-25.4-16.2 2.4 17.6 24.2 15.3-.2-3.4-24.6-15.5-.5-3.4 24.6 15.5v-3.2l-25-15.9-.4-3.4 25 16-1.1-17.2-20-12.6-.2-3.7 20 12.6-.3-4.1-19.8-12.6-.4-4 19.8 12.7 3.5 46-24.1-15.5.3 3 24 16.4"/><path fill="#252E36" stroke="#5C5F63" stroke-miterlimit="10" stroke-width=".5" d="M1556.2 189.7v-8.3l2-1.5 9.8 5.2.9-12.6 11.2 6.5s-.3 9.9 0 13c.4 3 2 8.1 7 9.5l6.5 1.5v9.6l-37.4-22.9Z"/><path stroke="#5C5F63" stroke-miterlimit="10" stroke-width=".3" d="m1557.4 170.5 4 2h7.5l-.9 12.8-9.7-5.4-2 1.5-3.5-.9"/><path stroke="#5C5F63" stroke-miterlimit="10" stroke-width=".3" d="M1561.3 172.5s-.8 5.8-3 7.4"/><path fill="#252E36" stroke="#5C5F63" stroke-miterlimit="10" stroke-width=".3" d="M1534.3 171.9s6 3.4 13.2 0l-2-11.8c-5.5 2.6-10 0-10 0l-1.2 11.8Z"/><path fill="#252E36" stroke="#5C5F63" stroke-miterlimit="10" stroke-width=".3" d="M1536.2 160s4 2.8 8.7 0l-1.3-10.3c-3.6 2.2-6.5 0-6.5 0l-.9 10.2Z"/><path fill="#252E36" stroke="#5C5F63" stroke-miterlimit="10" stroke-width=".3" d="m1542 136 .7 13.9c-.8.5-1.2.8-2.4.8-1.3 0-2.2-.8-2.2-.8l.4-13.8c.1 0 1.8.5 3.5 0Z"/><path stroke="#5C5F63" stroke-miterlimit="10" stroke-width=".2" d="m1592.8 162 13.8 7.5s-.2 6.3 1 8.3c1.2 2 2 2 2 2"/><path fill="#252E36" stroke="#5C5F63" stroke-miterlimit="10" stroke-width=".5" d="m1558.1 299.4.2-15.3L1532 264l.8 16.2 25.3 19.2Z"/><path fill="#394149" stroke="#5C5F63" stroke-miterlimit="10" stroke-width=".5" d="m1568.9 275.6-10.6 8.5L1532 264l7.7-2.4 29.2 14Z"/><path stroke="#5C5F63" stroke-miterlimit="10" stroke-width=".2" d="m1457.3 153 25.1 13.7 27.9-12.6-25.7-13.4-27.3 12.2Z"/><path stroke="#5C5F63" stroke-miterlimit="10" stroke-width=".3" d="m1713.5 119.7-43.7 28.1-49-76.4 48.2-22.7 44.5 71ZM1446.5 166.2l11.3 7 1.2 13.1-10.2-6.4-2.3-13.7Z"/><path fill="#252E36" d="M1537 137.6v4.3-.2c0 1.9-2.8 3.2-6.6 3.2-3.6 0-6.6-1.5-6.6-3.2v.3-4.4"/><path stroke="#5C5F63" stroke-miterlimit="10" stroke-width=".3" d="M1537 137.6v4.3-.2c0 1.9-2.8 3.2-6.6 3.2-3.6 0-6.6-1.5-6.6-3.2v.3-4.4"/><path fill="#5C5F63" d="M1530.4 141c3.8 0 6.9-1.4 6.9-3.2 0-1.8-3.1-3.2-6.9-3.2-3.8 0-6.8 1.4-6.8 3.2 0 1.8 3 3.2 6.8 3.2Z"/><path fill="#252E36" d="M1520.7 128.6v4.3-.2c0 1.9-3 3.2-6.7 3.2-3.6 0-6.6-1.5-6.6-3.2v.3-4.4"/><path stroke="#5C5F63" stroke-miterlimit="10" stroke-width=".3" d="M1520.7 128.6v4.3-.2c0 1.9-3 3.2-6.7 3.2-3.6 0-6.6-1.5-6.6-3.2v.3-4.4"/><path fill="#5C5F63" d="M1514.2 132c3.8 0 6.8-1.4 6.8-3.2 0-1.8-3-3.3-6.8-3.3s-6.8 1.5-6.8 3.3c0 1.8 3 3.2 6.8 3.2Z"/><path stroke="#5C5F63" stroke-miterlimit="10" stroke-width=".3" d="m1447 169.1 11.2 6.7M1447.6 172l10.7 6.5M1448 175l10.8 6.4M1448.4 177.6l10.4 6.2"/><path fill="#394149" d="m1648.6 201.5-35.1-18.4-24.3 18.7 4.6 1v9.8l-3.4-2.3 4.3 28.5 54-37.3-54 37.3-4.7-29-41.3-23.6-12 17.3 58 35.3"/><path stroke="#5C5F63" stroke-miterlimit="10" stroke-width=".5" d="m1648.6 201.5-35.1-18.4-24.3 18.7 4.6 1v9.8l-3.4-2.3 4.3 28.5 54-37.3Zm0 0-54 37.3-4.6-29-41.3-23.6-12 17.3 58 35.3"/><path fill="#5C5F63" d="M1589.4 200.5a5.6 5.6 0 1 0 0-11.3 5.6 5.6 0 0 0 0 11.3Z"/></g><defs><linearGradient id="b" x1="1609.5" x2="1002.4" y1="204.3" y2="554.8" gradientUnits="userSpaceOnUse"><stop stop-color="#5C5F63"/><stop offset="1" stop-color="#5C5F63" stop-opacity="0"/></linearGradient><clipPath id="a"><path fill="#fff" d="M800 204h910v702H800z"/></clipPath></defs></svg>