<svg xmlns="http://www.w3.org/2000/svg" width="915" height="999" fill="none"><g clip-path="url(#a)"><mask id="b" width="905" height="905" x="143" y="-175" maskUnits="userSpaceOnUse" style="mask-type:alpha"><g fill="#2F8FFC" opacity=".3"><circle cx="233.8" cy="233.8" r="233.8" transform="scale(1 -1) rotate(30 1369.9 653.9)"/><circle cx="452.1" cy="452.1" r="452.1" fill-opacity=".2" transform="scale(1 -1) rotate(30 1886.6 355.4)"/><circle cx="344.1" cy="344.1" r="344.1" fill-opacity=".4" transform="scale(1 -1) rotate(30 1631 503)"/></g></mask><g mask="url(#b)">
<path fill="#5C5F63" d="M594.5 277.1 353.1 694.8 148.7 534.3 112 276.9l482.4.2Z"/>
</g>
</g>
<path fill="#394149" stroke="#5C5F63" stroke-miterlimit="10" stroke-width=".5" d="m489.8 108.5-37.8-23-41.1 57.4 33.3 26.9 45.6-61.3ZM585 163.6 536 136l-50.2 65.7 43.5 34 55.7-72.1ZM446.2 170.5l37.4 29L534 134l-41.8-24.3-46 60.7Z"/>

<path fill="#5C5F63" d="m485.6 201.8 43.7 34.6c.1-.3.5-.6.6-.7 18.5-23.7 36.9-47.6 55.2-71.5.7-1 .7-1-.4-1.6l-48.3-27c-.6-.4-1-.5-1.6.3-16.2 21.7-32.6 43.4-48.8 65.3 0 .2-.2.3-.4.6ZM554 197l-3.8 5c-1.2-1-2.2-1.6-3.4-2.4l3.7-5c1.3 1 2.3 1.7 3.5 2.4Zm-4 5.3-3.9 5c-1.2-.8-2.2-1.7-3.4-2.4 1.3-1.6 2.5-3.2 3.7-5l3.6 2.4Zm-4 5.4a61.4 61.4 0 0 1-4 4.9l-3.2-2.3c1.3-1.6 2.5-3.2 3.7-5 1.2.8 2.3 1.5 3.4 2.4Zm-11.2 7.7 3.7-4.8 3.2 2.3-3.7 5c-1-1-2-1.8-3.2-2.5Zm46.4-53.8-3.7 4.8-3.5-2 3.7-4.8 3.5 2Zm-46.6 54 3.3 2.5-3.7 4.8-3.3-2.4 3.7-4.8Zm-7.7 10.1 3.7-4.8 3.2 2.5-3.7 4.8-3.2-2.5Zm19.7-26.2-3.2-2.3 3.7-4.8 3.4 2.1-3.9 5Zm30.8-32.8-3.7 4.8-3.6-2.1 3.7-4.8 3.6 2.1Zm-3.9 5.1-3.7 4.8-3.5-2.1 3.6-4.7 3.6 2Zm-27 28c-1.3 1.7-2.5 3.2-3.7 5-1.2-1-2.2-1.7-3.3-2.4l3.7-4.8 3.3 2.2Zm-4 5.2-3.8 5-3.2-2.3 3.7-4.8 3.2 2.1Zm-19.6 25.8 3.7-4.8 3.2 2.5-3.7 4.8c-1.2-.8-2-1.6-3.2-2.5Zm43-49.2-3.5-2.2 3.5-4.7 3.6 2.2-3.5 4.7Zm-27.5 28.7-3.7 4.8c-1.2-1-2.2-1.6-3.2-2.3l3.6-4.8 3.3 2.3Zm-11 7.7 3.7-4.8c1 .9 2 1.6 3.2 2.3l-3.6 4.8c-1-.7-2.1-1.6-3.3-2.3Zm15.7-20.9c-1.2-.7-2.2-1.4-3.2-2.3l3.7-4.8 3.2 2.2c-1.2 1.6-2.5 3.2-3.7 5Zm27.2-35 3.7-4.7 3.5 2-3.7 4.8-3.5-2.1Zm-40 58.6-3.7 4.8-3-2.4 3.6-4.8 3.1 2.4Zm28.2-36.3c1.3-1.6 2.5-3 3.6-4.7l3.5 2.2-3.7 4.6c-1-.5-2.2-1.3-3.4-2.1Zm-22.9 16c1.2.7 2.2 1.6 3.3 2.3l-3.7 4.8c-1.2-.9-2-1.6-3.2-2.3l3.6-4.8Zm7.3-3-3.7 4.8a25 25 0 0 1-3.2-2.3l3.7-4.8c1 1 2 1.6 3.2 2.3Zm23.5-30.2 3.7-4.7 3.6 2-3.7 4.8-3.6-2.1Zm-4.7 19.8-3.5 4.6-3.4-2.1 3.5-4.7 3.4 2.2Zm4.4-19.5 3.5 2-3.6 4.6-3.4-2.1 3.5-4.5Zm-31.2 40.3-3.7 4.8c-1-.9-2-1.6-3.3-2.3l3.7-4.8 3.3 2.3ZM519.7 228l3.7-4.8 3 2.4-3.7 4.8-3-2.4Zm42.7-55.6 3.4 2.1-3.7 4.7-3.4-2.2c1.2-1.6 2.4-3.2 3.7-4.6Zm-39.1 50.3-3.1-2.4 3.7-4.8 3 2.3-3.6 5Zm27.2-20.8c1.2-1.6 2.4-3.3 3.8-4.9l3.1 2.1-3.9 5-3-2.2Zm4-12.3 3.4 2.3c-1.3 1.6-2.5 3-3.5 4.6-1.2-.7-2.3-1.4-3.4-2.3l3.5-4.6Zm-30.3 25.6 3.7-4.8c1 .8 2 1.6 3.2 2.3l-3.7 4.8c-1.1-.7-2.2-1.4-3.2-2.3Zm18.2-2.8 3.8-5 3.1 2.2a61.1 61.1 0 0 1-3.8 5l-3.1-2.2Zm-2.8-18-3.3-2 3.7-4.9 3.3 2.2c-1.3 1.6-2.3 3.2-3.7 4.8Zm10 15-3.2-2.2c1.3-1.6 2.5-3.4 3.9-5l3 2.2-3.8 5Zm13.1-44.6c1.2-1.6 2.5-3 3.5-4.7l3.4 2-3.6 4.7-3.3-2ZM555 182l3.5-4.7 3.4 2.2-3.5 4.6-3.4-2.1Zm11.6-22.2 3.5-4.6 3.6 2-3.7 4.6-3.4-2Zm-.7 7.3c-1.2 1.6-2.4 3-3.5 4.7-1.2-.8-2.2-1.5-3.4-2 1.2-1.7 2.5-3.1 3.5-4.7l3.4 2Zm-33.4 30.3 3.6-4.8 3.3 2.2-3.7 4.8c-1-.7-2-1.5-3.2-2.2Zm-.7 7.4-3-2.3 3.6-4.8 3.3 2.3c-1.6 1.6-2.7 3.2-3.9 4.8Zm6.5 12.9c1.3-1.8 2.5-3.4 3.9-5 1 .7 2 1.4 3 2.3a61.4 61.4 0 0 1-3.8 5 23 23 0 0 1-3-2.3Zm-22 7.7 3.7-4.7 3 2.5-3.6 4.8c-1-1-2-1.8-3-2.6ZM538 218l3 2.2-3.8 5-3-2.3c1.3-1.6 2.6-3.2 3.8-5Zm-9.6-15 3 2.3-3.6 4.8-3.1-2.3c1.2-1.8 2.5-3.2 3.7-4.8Zm1.9 25.2 3.7-4.9 3 2.3-3.8 5c-1-.9-1.9-1.7-3-2.4Zm27.8-43.8-3.6 4.7-3.4-2.2 3.6-4.6 3.4 2.1Zm-3-9.7 3.4-4.4c.2-.1.3-.3.5 0l3 1.7c-1.1 1.6-2.4 3-3.4 4.7l-3.5-2Zm-7.7 17 3.6-4.5 3.4 2.2-3.6 4.7c-1.3-.8-2.3-1.5-3.4-2.4Zm37.4-28.2c-1.2 1.6-2.3 3-3.5 4.3-.2.2-.5.3-.6.1l-3-1.6 3.7-4.9 3.4 2Zm-45 23.8-3.6 4.8-3.1-2 3.7-4.9 3 2.1Zm-9.7 41.1c1 1 2 1.6 3 2.3l-3.8 4.8-2.9-2.2c1-1.7 2.3-3.1 3.7-4.9Zm-5.6-20.3 3.1 2.3-3.7 4.8c-1-.9-2-1.6-3-2.3 1.2-1.8 2.4-3.2 3.6-4.8Zm38.4-50.5 3.5-4.6 3.4 2c-1.2 1.6-2.5 3-3.5 4.7l-3.4-2Zm-46 60.2 3.8-4.8c1 .9 2 1.6 3 2.3l-3.7 4.8c-1-.7-2-1.4-3-2.3Zm37.8-36-3.4-2.2 3.5-4.6 3.4 2.1-3.5 4.7Zm11.4-21.8-3.5 4.6-3.4-2 3.5-4.7c1 .8 2.2 1.3 3.4 2Zm7.9 11.4 3.5-4.5c0-.2.3-.2.5-.2l3 1.9-3.6 4.8-3.4-2Zm-48.6 28.8 3.6-4.8 3.1 2.1-3.7 4.8-3-2Zm3.8-5 3.7-4.9 3.1 2.1-3.7 4.8-3-2Zm25.3-13.1-3.5 4.7-3.4-2.2 3.5-4.5 3.4 2Zm22.4-8.5-3.7 4.9-3.2-2 3.7-4.9c1.1.8 2.2 1.5 3.2 2Zm-18.2-4-3.4-2 3.5-4.7 3.4 2-3.5 4.7Zm14.3 9.1-3.6 4.8-3.3-2 3.7-4.6c1 .6 2 1.3 3.2 1.8Zm-53.3 41.8-3.7 4.7-3-2.4 3.5-4.7 3.2 2.4Zm1.8-15.2c1.2-1.6 2.4-3.2 3.7-4.6 1 .7 2 1.4 3 2.3l-3.7 4.8c-1.1-1-2-1.8-3-2.5Zm-.4.3c1 .7 2.1 1.4 3.1 2.3l-3.7 4.8c-1-.9-2-1.6-3-2.3l3.6-4.8Zm29.6-18.6-3.6 4.6-3.2-2.2 3.5-4.5c1 .7 2 1.4 3.3 2.1Zm-14.2-2-3.7 4.8-3-2.1 3.6-4.8c1 .9 2 1.4 3 2.1Zm-3.9 5.1L529 195l-3-2.1 3.6-4.8 3.1 2.1Zm29.6-3.4 3.7-4.7 3.3 2-3.7 4.7c-1.2-.8-2-1.5-3.3-2Zm4-33.7-3.5 4.6-3.4-2 3.5-4.6 3.4 2Zm-49 57.7c1 .9 2.1 1.6 3.2 2.3l-3.7 4.6-3.1-2.3c1.4-1.5 2.6-3 3.7-4.6Zm37.7-36.2-3.5-2 3.6-4.7c1.1.8 2.2 1.5 3.4 2-1.3 1.6-2.3 3.3-3.5 4.7Zm-33 23.4 3.8-4.8 3 2.1-3.6 4.8-3.1-2.1Zm26-20.6 3.5-4.5 3.3 2.2-3.6 4.6-3.2-2.3Zm7.5-16.7 3.6-4.7 3.4 2-3.6 4.7c-1.1-.7-2.2-1.5-3.4-2ZM562 187c1 .7 2.1 1.4 3.3 2l-3.3 4.3c-.2.2-.5.1-.7.1l-2.8-1.8 3.5-4.6ZM510 220.4l3.5-4.7c1 1 2 1.6 3 2.3-1.3 1.6-2.5 3-3.6 4.7l-2.9-2.3Zm37.7-42.5 3.2 2.1-3.5 4.5a68 68 0 0 1-3.2-2.1c1.2-1.6 2.2-3.1 3.5-4.5Zm-25.8 20.4 3 2.1-3.6 4.7c-1-.7-2-1.4-3-2.3l3.6-4.5Zm-4.7 12.3-3.6 4.7c-1-.9-2-1.6-3-2.3l3.6-4.7 3 2.3Zm.2-.4-2.9-2.3 3.5-4.7 3.1 2.3-3.7 4.7Zm30.7-39.8 3.5-4.5 3.3 2-3.5 4.7c-1-.9-2-1.4-3.3-2.2Zm10.7-7.4-3.6 4.6c-1.1-.7-2.2-1.2-3.2-2l3.5-4.5c1 .4 2 1.2 3.3 1.9Zm3.8-12.1-3.5 4.6c-1.2-.7-2.2-1.2-3.3-2l3.6-4.6c1 .7 2 1.4 3.2 2Zm-1.2 43.2c-1.3 1.6-2.5 3-3.5 4.7l-3.1-2.1 3.5-4.7 3 2.1ZM533 183l-3.7 4.8-3-2.2 3.4-4.6c1.2.5 2.3 1.2 3.3 2Zm14 1.8-3.5 4.5-3.2-2.1 3.5-4.5c1 .8 2 1.4 3.2 2.1Zm-20.8 1.1 3 2.2-3.5 4.8-3-2.1c1-1.8 2.3-3.3 3.5-4.9Zm29-25.4-3.3-2 3.5-4.5a60 60 0 0 0 3.3 1.8l-3.5 4.7Zm-4.2 12.2-3.5 4.5a35 35 0 0 0-3.2-2c1.2-1.6 2.2-3 3.5-4.5l3.2 2Zm-32.2 23 3.5-4.7 3.1 2.2c-1.2 1.6-2.5 3.2-3.5 4.8l-3.1-2.3Zm32.7-30.2-3.3-2 3.5-4.5c1.2.7 2.3 1.2 3.3 2-1.2 1.4-2.4 2.8-3.5 4.5Zm-7.7 16.7-3.2-2.1 3.3-4.6 3.3 2.2-3.4 4.5Zm-34.2 38.2c-1-.9-1.8-1.6-2.9-2.3l3.5-4.6 3 2.2c-1.3 1.5-2.3 3-3.6 4.7Zm35-52.1c1.2-1.6 2.2-3 3.5-4.5 1.1.7 2.2 1.2 3.2 2l-3.5 4.5-3.3-2Zm-21.5 15 3.6-4.6 3 2.1-3.5 4.7c-1.2-.7-2-1.4-3-2.2Zm-8.2 17.4 3.6-4.7 2.9 2.1c-1.2 1.6-2.5 3-3.5 4.7l-3-2.1Zm-3.8 4.9 3.5-4.7 3 2.2c-1.3 1.6-2.5 3-3.6 4.6l-3-2.1Zm11.3-15.2-3-2.1 3.6-4.7 3 2.2-3.6 4.6Zm-8.6 17.8-3.5 4.6-3-2.2 3.6-4.7c1 .9 1.9 1.6 3 2.3Zm27-35.1 3.6-4.5 3.2 2-3.5 4.5c-1.2-.6-2.2-1.3-3.2-2Zm-.7 14c-1-.7-2-1.4-3.2-2 1.2-1.5 2.3-3.2 3.3-4.6 1 .7 2 1.4 3.3 2.1l-3.4 4.6Zm15.2-33.6-3.2-1.8c1.2-1.6 2.2-3 3.5-4.5l3.2 1.8c-1.2 1.5-2.2 3-3.5 4.5Zm-36.8 42-3-2.1 3.6-4.7 3 2.2-3.6 4.6Zm36.6-41.7c-1.2 1.6-2.2 3-3.5 4.5l-3.2-2 3.5-4.5 3.2 2Zm-10.4 7.5 3.5-4.5 3.2 2c-1.2 1.6-2.2 3-3.5 4.5l-3.2-2Zm-1 14.2-3.4 4.5-3.3-2.1 3.4-4.6 3.4 2.2Zm-32 22.8 3.5-4.6 3 2.1-3.6 4.7-2.9-2.2Zm-4.5 12.7 2.9 2.3-3.5 4.6-3-2.2 3.6-4.7Zm26.3-28.3 3.3-4.5c1 .7 2 1.4 3.3 2.1l-3.4 4.5-3.2-2.1Zm-26.3 27.8-2.9-2.2 3.5-4.7 3 2.1a88.8 88.8 0 0 0-3.6 4.8Zm19.3-32-3.5 4.7c-1-.7-2-1.5-3-2l3.6-4.7c.8.7 1.9 1.3 3 2Zm-12 22.3-3.6 4.6-2.9-2.2 3.5-4.7c1 .9 2 1.6 3 2.3Zm33.3-37.2-3.6 4.5-3.2-2 3.3-4.5 3.5 2Zm.8-14c1.3-1.5 2.3-3 3.4-4.5l3.3 1.9-3.5 4.5c-1-.7-2.1-1.3-3.2-1.8Zm-26 33.9-3.5 4.6-2.9-2.1 3.5-4.7c1 .9 2 1.6 3 2.2Zm25.9-33.5 3.2 1.8-3.5 4.5c-1-.7-2-1.3-3.2-1.8 1.2-1.6 2.2-3 3.5-4.5Zm-3.7 4.8c1 .7 2 1.2 3.2 1.8-1.2 1.6-2.2 3-3.5 4.5-1-.7-2-1.2-3-2 1-1.4 2-2.9 3.3-4.3ZM516 186.4l3 2.2-3.6 4.6c-1-.7-1.9-1.4-3-2l3.6-4.8Zm21.5-15.5 3.3-4.5 3.3 2-3.4 4.5-3.2-2ZM507 211l-3.5 4.6-3-2.3 3.6-4.5c1 .6 1.9 1.4 2.9 2.1Zm8.2-17.4-3.5 4.7-3-2.1 3.5-4.7 3 2.1Zm25.3-20.2c-1.3 1.5-2.3 3.1-3.4 4.6-1-.7-2-1.5-3-2l3.2-4.4c1.1.4 2.1 1.1 3.2 1.8Zm.4-7.2-3-2 3.3-4.5 3.2 2-3.5 4.5Zm-29.4 32.4L508 203l-3-2 3.5-4.6 3 2Zm-3.9 5-3.5 4.6-2.8-2.1 3.5-4.7 2.8 2.1ZM517 179l3.5-4.7c1 .7 2 1.2 3 2l-3.6 4.6-2.9-2Zm23.9-12.7-3.4 4.5-3.1-2 3.4-4.5 3 2Zm7.6-17-3-1.7 3.3-4.6 3.3 1.9c-1.3 1.4-2.3 2.9-3.6 4.5Zm-.1.4-3.4 4.5c-1-.7-2-1.3-3.1-1.8l3.4-4.5 3 1.8Zm-32.5 36.5-3.5 4.6-3-2 3.6-4.8c1 1 1.9 1.5 3 2.2Zm21-8.1c-1.2 1.4-2.3 2.9-3.4 4.5l-3-2.2 3.3-4.3c1 .5 2 1.2 3 2ZM516 186l-2.9-2.1 3.5-4.7 3 2-3.6 4.8Zm-10.4 7.8 3.5-4.7 3 2.1-3.6 4.7-3-2.1Zm25-20.2 3.3-4.4 3 2c-1.2 1.4-2.2 2.9-3.3 4.4-1-.8-2-1.3-3-2Zm13.9-19-3.4 4.5-3-1.8 3.3-4.5 3 1.8Zm-47 56.2 3.4-4.5 2.8 2.2-3.6 4.5a13 13 0 0 0-2.6-2.2Zm32.7-37c1 .8 2 1.5 3 2l-3.3 4.4-3-2a47 47 0 0 0 3.3-4.3Zm-28.2 25 3.5-4.6 3 2.2-3.6 4.5-2.9-2.2Zm14.5-20-3-1.9 3.6-4.7c1 .8 1.9 1.3 3 2l-3.6 4.7Zm32-35.8-3.4 4.5c-1-.6-2-1.3-3.1-1.8 1.2-1.5 2.3-3 3.3-4.6 1 .8 2.1 1.3 3.1 1.9Zm-50.2 60.5 3.5-4.5 2.8 2.1-3.5 4.7c-1-.7-2-1.4-2.8-2.3Zm42.6-44-3.3 4.4-3.1-2 3.3-4.3 3.1 1.8ZM513 183.7c-1-.7-1.9-1.4-3-2 1.3-1.5 2.3-3 3.6-4.4l3 2c-1.3 1.4-2.4 2.8-3.6 4.4Zm21.4-21.6 3 2-3.3 4.5-3.1-2c1.2-1.4 2.3-2.8 3.4-4.5Zm-27.9 24.5 3.5-4.5 3 2c-1.3 1.5-2.3 3-3.5 4.6l-3-2.1Zm38.5-39c-1.3 1.5-2.3 3.1-3.4 4.6-1-.6-2-1.3-3.1-1.8 1-1.5 2.3-3 3.3-4.6 1 .8 2.1 1.3 3.2 1.9ZM509 189.2l-3.5 4.5-2.8-2.1 3.5-4.5 2.8 2Zm18.4-17.7 3.3-4.3 3.1 2c-1.2 1.4-2.3 2.8-3.3 4.3l-3.1-2Zm7.5-16.1 3.3-4.4 3.1 1.9c-1.2 1.4-2.3 2.9-3.3 4.5-1.2-1-2.1-1.4-3.1-2Zm-.4.3c1 .7 2 1.2 3.1 1.8l-3 4c-.1.2-.5.4-.6.3a53 53 0 0 0-2.8-1.6l3.3-4.5ZM499 196.5l3.4-4.6 2.8 2.1-3.5 4.5-2.7-2Zm-4.3 11.9 3.4-4.6 2.8 2.1-3.4 4.6c-.9-.6-2-1.3-2.8-2.1Zm4.1-11.7 2.8 2.2-3.5 4.5-2.8-2.1c1.3-1.5 2.3-3 3.5-4.6Zm15.3-26.4c1 .7 1.9 1.2 2.8 2l-3.6 4.6-2.7-2 3.5-4.6Zm13 1.6c1 .7 2 1.2 3 2l-3.3 4.3-3-2 3.2-4.3Zm3.7-5.3-3.1-2 3.3-4.4c1 .8 2 1.3 3.1 2a77 77 0 0 0-3.3 4.4Zm7.8-22.8 3.4-4.4 3.1 1.7-3.3 4.5c-1-.7-2.1-1.2-3.2-1.8Zm-3.7 5 3.2 1.8c-1.3 1.4-2.3 3-3.4 4.4l-3-1.9 3.2-4.3ZM513.3 177l-3.5 4.5c-1-.7-1.9-1.2-2.8-2 1.3-1.5 2.3-3 3.4-4.4l3 2Zm21.8-28.5 3.4-4.4 3 1.8-3.3 4.6-3-2Zm-40.5 59.8-2.8-2c1-1.5 2.3-3 3.3-4.6l2.8 2.1-3.3 4.5Zm8.7-23.8 3.4-4.5 2.8 2-3.5 4.6a22 22 0 0 0-2.7-2Zm24-13.2c-1-.8-2.1-1.3-3-2 1-1.5 2.1-3 3.3-4.4l3 2-3.4 4.4Zm-24.7 20.2-2.8-2.1c1.2-1.6 2.3-3 3.3-4.6l2.8 2-3.3 4.7Zm-.4.3-3.3 4.5a49 49 0 0 0-2.8-2.1l3.4-4.5 2.7 2Zm32.2-36.4c-1 1.5-2.3 3-3.4 4.4-1-.7-1.9-1.3-3-1.8 1.3-1.5 2.4-3 3.4-4.4.9.5 2 1 3 1.8Zm-41.8 43.8 3.3-4.6 2.8 2.1-3.4 4.6c-1-1-1.9-1.5-2.7-2.2Zm31-23.1-3-2c1-1.5 2.1-3 3.3-4.4l3 2c-1 1.5-2.1 3-3.4 4.4Zm3.9-11.5-3-2 3.4-4.3 3 1.8-3.4 4.5Zm7.9-22.6c1-1.5 2.1-3 3.3-4.4l3.1 1.7-3.3 4.3-3.1-1.6Zm2.8 2-3.4 4.3-3-1.8 3.4-4.4 3 1.8Zm-11 20.9-3.4 4.3-3-2 3.4-4.3 3 2Zm4.5-18 3 1.8-3.4 4.4-3-1.8 3.4-4.4ZM495 201.5l-3.4 4.6-2.6-2.1c1-1.5 2.3-3 3.4-4.4.9.5 1.7 1.2 2.6 2Zm29.8-45.5c1-1.5 2.1-3 3.4-4.4 1 .6 1.9 1.3 3 1.8l-3.4 4.4-3-1.8Zm-1.2 13.5a77 77 0 0 1-3.3 4.4c-1-.7-2-1.2-3-2l3.2-4.2c1.2.6 2.1 1.1 3.1 1.8Zm-2.3-8.9 3.3-4.3 3 1.8-3.3 4.3c-1-.5-2-1-3-1.8Zm-.6 6.5-3-2 3.3-4.3 3 1.8c-1 1.8-2 3-3.3 4.5Zm-3.3 4.7-3-2 3.2-4.2 3 2c-1.1 1.4-2.2 2.7-3.2 4.2ZM489.8 197l3.3-4.5 2.5 2-3.3 4.5-2.5-2Zm16.7-17.1-3.5 4.5c-.8-.7-1.6-1.3-2.5-1.8l3.4-4.5c1 .5 2 1.2 2.6 1.8Zm-6 3 2.5 1.8-3.3 4.5-2.5-1.8c1-1.4 2-2.9 3.3-4.5Zm-1.2 6.7-3.3 4.6-2.5-2c1.2-1.4 2.2-2.9 3.3-4.5l2.5 2Zm11-14.5c-1.3 1.6-2.4 3-3.4 4.5-1-.6-1.6-1.3-2.5-1.8l3.3-4.5c1 .5 1.8 1 2.5 1.8Zm3.6-5-3.5 4.5c-.9-.5-1.6-1-2.5-1.8l3.4-4.5 2.6 1.8Zm-27.6 31.6 3.3-4.4 2.5 2-3.4 4.3c-.8-.5-1.6-1.2-2.4-1.9Zm32.3-42.9 3.2-4.3c1 .5 1.6 1 2.5 1.6-1 1.4-2 3-3.3 4.4l-2.4-1.7Zm7-9.1c1-1.5 2-3 3.3-4.4l2.5 1.5c-1 1.4-2.1 2.9-3.4 4.3l-2.5-1.4ZM515 163.5l3.2-4.2 2.5 1.6-3.2 4.4-2.5-1.8Zm14-18.5 3.3-4.4 2.5 1.5c-1 1.4-2.3 2.9-3.3 4.4-.8-.6-1.7-1-2.6-1.5Zm-3.8 5c1 .5 1.7 1 2.5 1.6-1 1.4-2 2.9-3.3 4.3l-2.5-1.6 3.3-4.3Zm-13.7 18 3.2-4.2 2.5 1.6c-1 1.5-2.1 3-3.2 4.2l-2.5-1.6Zm26.8-30.6-3.3 4.4-2.5-1.5c1-1.4 2-2.9 3.3-4.3.9.3 1.6.9 2.5 1.4ZM534 134c-.1-.2-.4-.3-.6-.4L492.8 110c-1-.6-.8-.6-1.3.2l-45 59.6c-.3.4-.3.7.2 1l36 27.8c1 .7 1 .7 1.6-.2l49.4-63.9c.1-.1.3-.3.3-.6Zm-34.3 32.7 3.5-4.5c.9.7 2 1.2 2.8 2l-3.5 4.4-2.8-2Zm-.9 6.6c-.8-.7-1.9-1.3-2.8-2 1.3-1.4 2.3-2.9 3.4-4.3.9.7 1.9 1.2 2.8 2l-3.4 4.3Zm7.4-9.2c.8.7 1.7 1.3 2.8 1.8l-3.5 4.5-2.8-1.8 3.5-4.5Zm-3.3-2-3.5 4.6-2.8-2c1.2-1.4 2.3-3 3.3-4.4 1.2.6 2.1 1.1 3 1.8Zm-14 18.6 3.3-4.4 2.8 2a77 77 0 0 0-3.4 4.3l-2.8-2Zm16.2-10c-1.2 1.5-2.2 3-3.5 4.5l-2.8-2 3.5-4.4 2.8 2Zm-9.2 1 2.8 1.9c-1.3 1.4-2.3 2.9-3.4 4.4l-2.8-2c1-1.5 2.1-3 3.4-4.4Zm-4.1 11c1.2-1.4 2.3-2.8 3.3-4.3l2.8 2-3.5 4.3-2.6-2Zm-.5.2c-1.2 1.4-2.3 2.9-3.3 4.4l-2.7-2a77 77 0 0 0 3.4-4.4l2.6 2Zm-3.2 4.5 3.5-4.3c.9.7 1.8 1.2 2.6 2l-3.5 4.3-2.6-2Zm7.8-16.2-2.8-2c1.2-1.4 2.3-2.9 3.3-4.4l2.8 2-3.3 4.4Zm2.9 2.6 2.8 2-3.5 4.3-2.6-2c1-1.4 2-2.9 3.3-4.3ZM484.6 192l3.3-4.4 2.7 2c-1.3 1.4-2.3 2.9-3.4 4.3-.9-.5-1.7-1.2-2.6-2Zm36-52.7 3.3-4.2 3 1.8c-1 1.5-2.3 3-3.3 4.3-.9-.7-2-1.3-3-1.9ZM484.3 192l-2.7-2 3.4-4.3 2.6 2a47 47 0 0 1-3.3 4.3Zm39.1-50.5c-1 1.5-2.1 2.8-3.3 4.2l-3-1.8c1-1.5 2.1-2.8 3.3-4.2l3 1.8ZM489.6 174a77 77 0 0 0 3.3-4.3l2.8 2c-1.2 1.4-2.3 2.8-3.3 4.3l-2.8-2Zm2.4 2.1-3.3 4.4-2.6-2 3.3-4.3 2.6 2Zm8-16a77 77 0 0 0-3.4 4.3c-.8-.7-1.7-1.3-2.6-1.8a77 77 0 0 0 3.3-4.4l2.7 1.8Zm13.8-11.6c1-1.5 2-2.8 3.3-4.2l3 1.8-3.4 4.2-3-1.8Zm-31.4 34.7a77 77 0 0 0 3.3-4.4l2.7 2-3.4 4.3c-.9-.5-1.7-1.2-2.6-2Zm10.5-14-2.6-2 3.3-4.3 2.7 1.8c-1 1.6-2.3 3-3.4 4.5Zm37.5-36.8-3.3 4.2-3-1.8c1-1.3 2.1-2.6 3-4h.5c1 .5 2 1 2.8 1.6ZM510.2 153l3.4-4.2 3 1.8-3.4 4.2-3-1.8Zm-.7 6.3-2.8-1.8 3.2-4.2 2.8 1.8c-.9 1.5-2 2.8-3.2 4.2Zm14.3-24.2a73 73 0 0 1-3.3 4.2l-3-1.8c1-1.5 2.1-2.8 3.3-4.2l3 1.8Zm-45 52.8 3.4-4.4 2.6 2-3.3 4.3c-.9-.7-1.8-1.2-2.6-2ZM497 158a77 77 0 0 0-3.3 4.3l-2.7-1.8 3.4-4.3a25 25 0 0 0 2.6 1.8Zm-10.4 13.8c1-1.5 2.3-2.9 3.4-4.4l2.6 2a77 77 0 0 0-3.3 4.3l-2.7-1.9Zm-3.5 4.7c1-1.5 2.3-3 3.4-4.4l2.6 2-3.3 4.3c-1-.7-1.8-1.2-2.7-2Zm20.1-14.7 3.2-4.3 2.8 1.8c-1 1.5-2 2.8-3.3 4.2l-2.7-1.7Zm17-22.3c-1 1.4-2.2 2.7-3.2 4.2l-2.8-1.8c1-1.5 2-2.8 3.3-4.2.9.7 1.8 1.2 2.8 1.8ZM483 176.9c1 .7 1.8 1.2 2.7 2l-3.4 4.3-2.6-2 3.3-4.3Zm31-34.6c1.1.5 2 1.2 2.9 1.8l-3.3 4.2-2.8-1.8c1-1.5 2-2.8 3.3-4.2Zm-6.6 8.7 3.2-4.2 2.8 1.8a73 73 0 0 1-3.3 4.2c-1-.5-1.8-1.2-2.7-1.8Zm16.7-16.2-3-1.8 3.2-4.3 3 1.7-3.2 4.4Zm-30.5 28-3.3 4.4-2.7-1.7 3.3-4.4c1 .5 1.7 1 2.7 1.8Zm.6-6.6c-1.3 1.5-2.3 3-3.4 4.4-.8-.7-1.7-1.2-2.6-1.8a77 77 0 0 0 3.3-4.3c.9.5 1.8 1 2.7 1.7Zm23.6-24.8 2.8 1.7-3.3 4.2c-1-.6-2-1.1-2.8-1.8 1.2-1.3 2.3-2.6 3.3-4Zm-14 24.1 3.3-4.2 2.8 1.8c-1 1.5-2.1 2.8-3.2 4.2-.9-.7-2-1.2-2.8-1.8Zm-16.8 39c-1 1.4-2.1 2.7-3.4 4.2l-2.6-2.1c1-1.5 2.1-2.8 3.2-4.2l2.8 2Zm-10.8-8.8 3.3-4.3c.9.7 1.8 1.2 2.7 2l-3.4 4.3-2.6-2Zm46.8-37.8-3.4 4.2c-.9-.5-2-1.1-2.8-1.8 1-1.5 2.1-2.8 3.3-4.2 1 .5 2 1 2.9 1.8Zm1-6.6c1-1.5 2.3-3 3.3-4.2.9.5 2 1 2.8 1.6l-3.3 4.4-2.8-1.8Zm-39.3 22 3.3-4.3 2.7 1.8-3.4 4.3c-.9-.5-1.8-1-2.6-1.8Zm31.2-6.2c-1 1.4-2.1 2.9-3.3 4.2-.9-.6-1.8-1.3-2.8-1.8 1-1.5 2.1-2.8 3.3-4.2 1 .5 2 1 2.8 1.8Zm-6.3 2.7 2.8 1.8-3.3 4.2c-1-.7-1.8-1.3-2.8-1.8l3.3-4.2Zm-6.4 2-2.8-1.8 3.2-4.2 2.8 1.8c-1.1 1.5-2 2.8-3.2 4.2Zm-13.3 5.7-3.3 4.4c-.9-.7-1.8-1.2-2.7-2l3.4-4.3 2.6 2Zm26.7-17c1 .6 2 1.2 2.8 1.9-1 1.5-2 3-3.3 4.2l-2.8-1.8c1.2-1.3 2.3-2.7 3.3-4.2Zm.7-12.8c-1 1.5-2.1 2.8-3.3 4.3-1-.6-2-1.1-2.9-1.8l3.2-4.3 3 1.8Zm-36.9 37c1-1.5 2.3-3 3.4-4.4l2.6 1.9c-1.2 1.4-2.3 2.9-3.3 4.4l-2.7-2Zm-.8 6.4-2.7-2 3.4-4.3 2.6 1.9c-1.2 1.4-2.3 3-3.3 4.4Zm1.4 15.3-2.6-2c1-1.5 2.1-2.8 3.2-4.1.8.7 1.7 1.4 2.6 1.9-1 1.5-2.1 3-3.2 4.2Zm42.1-48.8-2.8-1.8c1-1.5 2.3-3 3.4-4.2l2.8 1.6c-1 1.5-2.2 3-3.4 4.4Zm-31.7 6.7-3.4 4.4c-.9-.6-1.7-1.3-2.6-1.8 1-1.5 2.1-3 3.3-4.4 1 .5 1.8 1 2.7 1.8Zm19.6-13.8c1 .5 1.9 1 2.8 1.8l-3.2 4.2-2.8-1.8c1-1.5 2.1-2.8 3.2-4.2Zm-3.9 10.3-2.8-1.8 3.2-4.2c.9.6 1.9 1.1 2.8 1.8-1 1.5-2.1 3-3.2 4.2Zm11-19.7c1.1-1.4 2.2-2.7 3.2-4.2l3 1.7-3.2 4.2-3-1.7Zm-31 34.3-3.3 4.4-2.7-1.8c1.1-1.5 2.2-3 3.4-4.2l2.6 1.6Zm-6.8 9-2.7-1.9 3.4-4.4 2.6 2c-1.2 1.4-2.3 2.9-3.3 4.4Zm37.4-43c-1 1.5-2.1 2.8-3.4 4.2l-2.8-1.6 3.2-4.3c1 .5 2 1 3 1.7Zm-41 47.6-2.6-2 3.4-4.3 2.6 1.9c-1.2 1.4-2.3 2.9-3.3 4.4Zm11.2-20-3.4 4.3-2.6-1.8 3.3-4.3c.9.5 1.8 1 2.7 1.8Zm42.4-20.6c-1-.5-2-1-2.8-1.6l3.1-4c0-.1.4 0 .4 0l2.6 1.4c-1.2 1.3-2.2 2.8-3.3 4.2Zm-26.5 17-2.9-1.8 3.2-4.3c.9.6 1.8 1.3 2.8 1.8l-3.1 4.3Zm-30.4 28.2c1-1.4 2.1-2.9 3.3-4.2l2.7 2c-1 1.4-2.3 2.9-3.4 4.2l-2.6-2Zm34.8-45.3 3.2-4.2 2.8 1.7-3.2 4.2-2.8-1.7Zm-19.6 14c-1 1.5-2.3 3-3.4 4.4l-2.6-1.8c1-1.4 2.3-2.9 3.3-4.4l2.7 1.8Zm-9.8 35.9c.9.7 1.7 1.4 2.6 1.9-1 1.5-2 2.8-3.1 4l-2.7-1.9 3.2-4Zm26-45.5c1.1-1.4 2.2-2.7 3.2-4.2.9.5 2 1 2.8 1.8l-3.1 4.2c-1-.5-2-1-2.9-1.8ZM475 170.6c1-1.5 2.1-3 3.3-4.2.9.7 1.8 1.2 2.7 1.7-1 1.5-2.3 3-3.4 4.4a44 44 0 0 1-2.6-2Zm2.3 2c-1 1.5-2.1 3-3.3 4.4-.9-.7-1.8-1.2-2.5-2 1-1.4 2.1-2.8 3.3-4.1l2.5 1.7Zm23-12.9c-1-.5-1.8-1.2-2.8-1.8l3.1-4 2.8 1.8-3.1 4Zm-27 24c-1-.8-1.8-1.3-2.5-2 1-1.5 2-3 3.3-4.2.9.7 1.8 1.2 2.5 2-1.2 1.2-2.3 2.7-3.4 4.1Zm8.4-22 2.6 1.8c-1 1.4-2 2.9-3.3 4.2-.9-.7-1.7-1.3-2.6-1.8 1.2-1.3 2.2-2.8 3.3-4.2Zm33-32.1c-1 1.5-2.1 2.8-3.2 4.2l-2.8-1.6c1-1.5 2.1-2.8 3.2-4.2.9.5 1.8.9 2.8 1.6ZM504 149l-2.8-1.8 3.2-4.2c.9.5 1.8 1 2.8 1.8-1 1.5-2.1 2.8-3.2 4.2Zm11-19.7c1-1.4 2-2.8 3.1-4 1 .5 2 1 2.8 1.6-1 1.4-2 2.8-3.1 4l-2.9-1.6ZM485 157l-3.4 4.4c-.9-.6-1.7-1.3-2.6-1.8 1-1.5 2-3 3.3-4.2.9.4 1.8 1 2.7 1.6Zm20.1-20.5 3.2-4.2 2.8 1.7-3 3.9-.5.1-2.5-1.5Zm-7.2 15.1c1-1.5 2.1-2.8 3.2-4l2.8 1.7-3.2 4.3c-1-.8-2-1.3-2.8-2Zm6.5-9-2.8-1.7c1-1.5 2.1-2.8 3.2-4.2.9.5 1.8 1 2.8 1.8l-3.2 4.2Zm-33.2 32.8c.9.7 1.8 1.2 2.5 1.9-1 1.5-2.1 3-3.3 4.2-.9-.7-1.8-1.2-2.5-2l3.3-4.1Zm33-32.4-3.1 4.2c-1-.5-1.8-1.2-2.7-1.8l3.2-4c.9.3 1.8.9 2.7 1.6Zm13.8-18-3 3.9h-.5l-2.5-1.4c1-1.5 2-2.8 3.1-4l2.9 1.6ZM497.7 152l2.7 1.8c-1 1.4-2.1 2.8-3.2 4l-2.6-1.7 3.1-4.1Zm-22 12.2c1-1.5 2-3 3-4.2l2.7 1.8c-1 1.4-2 2.9-3.3 4.2-.9-.7-1.6-1.3-2.5-1.8Zm32.6-32.1-2.8-1.6c1-1.5 2.1-2.8 3.2-4.1l2.8 1.6-3.2 4.1Zm-39.5 41.1c1-1.4 2-2.9 3.1-4.2l2.5 1.8c-1 1.4-2.1 3-3.3 4.2l-2.3-1.8Zm6.6-8.7 2.5 1.8c-1 1.4-2 2.9-3.3 4.2l-2.5-1.8c1-1.4 2.1-3 3.3-4.2Zm7.6-15.7 2.7 1.8c-1 1.5-2.1 3-3.4 4.4-.9-.5-1.7-1.2-2.5-1.8l3.2-4.4Zm-10.3 41.4 3.2-4 2.6 1.9c-1 1.4-2 2.8-3.1 4-1-.5-1.8-1.2-2.7-1.9Zm25-38.7-2.6-1.8 3.2-4c.8.5 1.7 1 2.6 1.8l-3.1 4Zm4.5-16.7 3-4h.3l2.5 1.4-3.2 4.3c-.7-.6-1.6-1.1-2.6-1.7Zm9.6-7.2-2.8-1.7 3.2-4 2.8 1.6c-1.2 1.3-2.1 2.6-3.2 4Zm-20.2 26.7c1-1.5 2.1-2.8 3.2-4.1l2.6 1.8-3.2 4c-.8-.7-1.6-1.2-2.6-1.7ZM502 135l2.8 1.7-3.2 4-2.6-1.7c.9-1.4 2-2.7 3-4Zm-22.5 18.3 2.5 1.7c-1 1.5-2.1 3-3.3 4.2l-2.5-1.7c1.2-1.3 2.3-2.8 3.3-4.2Zm29-27.3-3.1 4.2-2.9-1.7 3.2-4c1 .4 2 1 2.8 1.5Zm-43.3 51.7 3.2-4.3 2.5 2-3.2 4.2-2.5-2Zm40-47.2-3.2 4-2.6-1.6 3.1-4 2.7 1.6Zm-9.7 13c1-1.5 2-2.8 3.1-4.1 1 .5 1.8 1 2.7 1.8l-3.2 4-2.6-1.7Zm-.7 6.1c-.9-.5-1.8-1-2.7-1.8l3.2-4 2.7 1.7-3.2 4.1Zm-22.2 12.8c1 .6 1.6 1.3 2.5 1.8-1 1.5-2 3-3.1 4.2l-2.5-1.7 3.1-4.3Zm10.3-13.8a77 77 0 0 1-3.4 4.3l-2.5-1.7 3.2-4.3 2.7 1.7Zm-4.3 11.1-3.1 4.2c-1-.5-1.6-1.2-2.5-1.7l3.1-4.3c1 .6 1.7 1.1 2.5 1.8Zm-6 30.3c-.9-.7-1.8-1.3-2.5-2l3.2-4 2.6 1.9c-1.4 1.4-2.2 2.7-3.3 4Zm23.4-52.7c1-1.5 2.1-2.8 3.2-4l2.6 1.5c-1 1.5-2 2.8-3.1 4.1l-2.7-1.6Zm-30 33.9 3.1-4.2 2.5 1.7-3.1 4.3c-.8-.6-1.6-1.3-2.5-1.8Zm26-23 2.6 1.7c-1 1.5-2.1 2.8-3.1 4-1-.5-1.8-1.2-2.7-1.7 1-1.5 2.1-2.8 3.2-4Zm17.2-28.2c.9.5 2 1 2.8 1.6-1 1.5-2 2.8-3.1 4L506 124l3.2-4Zm-33 37.5-2.5-1.8c1-1.5 2.1-2.8 3.2-4.2l2.5 1.7-3.2 4.3Zm26.2-29.1-2.7-1.7 3.2-4 2.7 1.6-3.2 4Zm-3.9 10.8c-1 1.5-2.1 2.8-3.2 4.1a25 25 0 0 1-2.6-1.8c1-1.5 2.1-2.8 3.1-4l2.7 1.7Zm-6 2.8c.9.5 1.8 1 2.6 1.7-1 1.5-2 2.8-3.1 4.1l-2.7-1.8 3.2-4Zm-20 20.3-3.2 4.2c-.8-.7-1.6-1.2-2.5-1.8l3.2-4.2c.9.5 1.6 1.2 2.5 1.8Zm.5 21.6-3.2 4.1c-.9-.7-1.8-1.2-2.5-2l3.2-4 2.5 2Zm.4-28 2.5 1.9c-1.1 1.4-2.2 2.7-3.2 4.2l-2.5-1.8c1-1.5 2-2.8 3.2-4.2Zm-8.3 21.6-2.5-2 3.2-4.2c.9.7 1.6 1.3 2.5 1.8-1 1.6-2.1 3-3.2 4.4Zm31.3-46.4c1-1.5 2.1-2.8 3.1-4l2.7 1.6-3.1 4-2.7-1.6Zm-7.7 21-2.7-1.8 3.2-4.1c.9.5 1.7 1 2.6 1.8l-3.1 4Zm-14.3-2.7c1-1.5 2.1-3 3.2-4.2l2.5 1.7-3.2 4.3c-.9-.7-1.6-1.3-2.5-1.8Zm24.5-16.4c-1 1.5-2.1 2.8-3.2 4.1l-2.6-1.6c1-1.5 2-2.8 3.1-4.1l2.7 1.6Zm-35.4 36.3 3.1-4.3 2.5 1.8-3.1 4.2c-1-.5-1.8-1.2-2.5-1.7Zm7.5-15.4 3.2-4.2c.9.5 1.6 1 2.5 1.8l-3.2 4.2c-.8-.7-1.7-1.3-2.5-1.8Zm-3.3 26c.9.7 1.8 1.2 2.5 2l-3.2 4-2.5-2 3.2-4Zm38.5-61.6 2.7 1.6c-1 1.5-2.1 2.8-3.2 4.1l-2.6-1.6c1-1.5 2-2.8 3.1-4.1Zm-9.3 6.6 3.2-4 2.6 1.6c-1 1.5-2 2.8-3.1 4-.9-.5-1.8-.9-2.7-1.6Zm-4.4 16.6-2.6-1.6 3.1-4.1 2.7 1.6-3.2 4.1Zm-26.9 29.8-3.1 4.2-2.5-1.7 3.1-4.3c1 .6 1.7 1.1 2.5 1.8Zm6.1-23.7 3.2-4.2 2.5 1.6c-1 1.5-2.1 3-3.2 4.2l-2.5-1.6Zm-5 17c-.9-.6-1.6-1.3-2.5-1.8 1-1.5 2.1-2.8 3.2-4.2l2.5 1.7-3.2 4.3Zm22.5-18.7-2.7-1.8 3.2-4.1 2.7 1.6-3.2 4.3Zm-16 10-3.2 4.3c-.9-.5-1.6-1.2-2.5-1.8l3.2-4.2c.9.5 1.6 1 2.5 1.8Zm15.8-9.7-3.1 4c-1-.5-1.8-1-2.7-1.8l3-4 2.8 1.8ZM464 163c.9.5 1.6 1.2 2.5 1.8l-3.2 4.2-2.5-1.8 3.2-4.2Zm32.3-32.2-2.7-1.6c1-1.5 2-2.8 3.1-4l2.7 1.6-3.1 4Zm-21.5 12.3c-1 1.5-2.1 2.8-3.2 4.2l-2.5-1.6 3.2-4.2 2.5 1.6Zm-.7 6.3c-1 1.5-2.1 2.8-3.2 4.2l-2.5-1.7 3.2-4.3c.7.7 1.6 1.3 2.5 1.8Zm16.1-15.8 3.2-4.1 2.7 1.6c-1 1.5-2.1 2.8-3.2 4.1l-2.7-1.6Zm-22.6 46c-1 1.3-2.1 2.6-3 4.1l-2.5-2 3-3.9c.9.6 1.6 1.3 2.5 1.8Zm38.3-61.6-2.8 3.8c0 .2-.3.1-.5.1l-2.5-1.4c1-1.4 2.1-2.7 3-4.1 1 .7 2 1 2.8 1.6Zm-18.8 20 3.1-4.1 2.7 1.6-3.2 4.1-2.6-1.6Zm-22.4 18.7c.9.5 1.6 1.2 2.5 1.8l-3.2 4.2-2.3-1.8c.9-1.5 2-2.8 3-4.2Zm21.7-12.7-2.7-1.7 3-4 2.7 1.6-3 4Zm-15 3.6-3.2 4.3-2.5-1.8 3.2-4.2c.7.6 1.6 1.2 2.5 1.7ZM464 163l-3.2 4.3-2.3-1.8 3.1-4.2c.7.6 1.5 1.2 2.4 1.7Zm6.7-8.9-3.2 4.3-2.5-1.8c1-1.5 2.1-2.8 3.2-4.2.8.7 1.6 1.2 2.5 1.7Zm-13.1 17.7c1-1.5 2.1-2.8 3.2-4.2l2.3 1.7c-1 1.5-2.1 2.8-3.2 4.2-.7-.5-1.6-1-2.3-1.7Zm36.6-48.4c1-1.5 2.1-2.8 3.2-4l2.6 1.5c-1 1.5-2 2.8-3.1 4.1l-2.7-1.6Zm-13.6 23.4c1.1-1.3 2.1-2.7 3-4.1 1 .5 1.8 1 2.7 1.8l-3 4-2.6-1.7Zm13-17.4-2.7-1.6 3-4.1 2.6 1.6-3 4Zm-3-1.3c1 .5 1.9 1 2.7 1.6-1 1.3-2 2.8-3.1 4l-2.7-1.6 3.2-4Zm-34.8 35.6c1-1.5 2.1-2.8 3.2-4.2.9.5 1.6 1.2 2.3 1.7l-3.2 4.3c-.7-.7-1.6-1.3-2.3-1.8Zm6.5-8.6c.9.5 1.6 1 2.4 1.8-1.1 1.4-2.2 2.7-3.2 4.2l-2.4-1.8 3.2-4.2Zm.2-.3c1-1.5 2.1-2.8 3.2-4.2.9.5 1.6 1 2.5 1.8l-3.2 4.2-2.5-1.8Zm25-22.5 2.7 1.6-3 4.1c-1-.5-1.8-1-2.5-1.6.7-1.3 1.8-2.7 2.8-4.1Zm9.6-13-3.2 4-2.7-1.6 3-4 2.9 1.6Zm.4-.3c1-1.3 2.1-2.6 3-4l2.7 1.4-3 4.1-2.7-1.5ZM465 177.8l-3 4c-.8-.8-1.6-1.3-2.4-2l3-4c.8.8 1.6 1.3 2.4 2Zm28.7-54.4-2.8 3.8c0 .2-.3.1-.3.1-.8-.3-1.5-.9-2.4-1.4 1-1.3 2.1-2.6 3-4.1.9.7 1.6 1 2.5 1.6ZM455 169.7l3.1-4 2.4 1.7-3.2 4.3-2.3-2Zm26.2-29 3-4.1c.9.5 1.8 1 2.5 1.6-1 1.3-2.1 2.6-3 4-1-.5-1.6-1-2.5-1.6Zm3.7-10.5 3-4 2.6 1.6-3 4-2.6-1.6Zm6.3-8.7-2.5-1.6c1-1.3 2.1-2.7 3-4.1l2.7 1.5-3.2 4.2Zm-33.2 44c-1 1.5-2.1 2.8-3.2 4l-2.3-1.7 3.1-4 2.4 1.7Zm19.8-20.6 3-4.1 2.6 1.6c-1 1.3-2.1 2.6-3 4l-2.6-1.5Zm7.6-20.7 3-4c.9.5 1.8 1 2.5 1.6l-3 4-2.5-1.6Zm9.3-7c1-1.2 2.1-2.5 3-3.9l2.7 1.5-3 4.1-2.7-1.6Zm-10.5 18.9-2.5-1.6 3-4.1 2.5 1.6-3 4Zm.5-6-2.5-1.6 3-4 2.5 1.6-3 4Zm-3.2 4.7c1 .5 1.6 1 2.5 1.6l-3 4-2.5-1.5 3-4.1Zm-21.6 39.1 2.5 1.8-3 4-2.3-2 2.8-3.8Zm34.5-56.8-2.6-1.6c1-1.3 1.9-2.7 3-4 .8.6 1.7 1.1 2.6 1.5-.9 1.5-2 2.8-3 4Zm-12.9 17.4-2.5-1.7 3-3.9 2.5 1.6-3 4Zm-6.3 8.6 3-4 2.5 1.7c-1 1.3-2.1 2.6-3 4l-2.5-1.7Zm.5-6 3-4 2.5 1.6-3 4-2.5-1.6Zm-.2.3c1 .5 1.7 1 2.5 1.6l-3 4-2.5-1.7 3-4Zm-18 34.6 2.3 1.7-3 4-2.4-1.8 3-4Zm-2.7-2 2.3 1.8-3 4c-.8-.8-1.6-1.3-2.3-1.8l3-4Zm-2.5-1.7 2.3 1.7-3 4c-.7-.7-1.6-1.3-2.3-1.8l3-4Zm9.9-13.5-3.2 4.3-2.2-1.6c1-1.5 2.1-2.8 3.2-4.1l2.2 1.4Zm6.8-9.2-2.2-1.5 3.2-4.3c.7.6 1.5 1 2.2 1.5-1 1.6-2 2.9-3.2 4.3Zm-15.5 16.2 3.1-4 2.2 1.6-3.2 4.2-2.1-1.8Zm10-13.2 3.2-4.3 2.2 1.6-3.2 4.3-2.2-1.6Zm-11.2 19.2-2.2-1.7 3.2-4.1 2.2 1.6-3.2 4.2Zm13.2-17.3-3.2 4.2-2.2-1.6c1.1-1.5 2.1-2.8 3.2-4l2.2 1.4Zm20.5-31.8 2.4 1.4c-1 1.3-2.1 2.7-3 4.1l-2.2-1.4c.7-1.5 1.8-2.6 2.8-4.1Zm-39 51.6 3-3.8c.7.5 1.4 1 2.1 1.8l-3 3.9-2.1-2Zm29.5-39 3-4 2.2 1.4-3 4c-.7-.6-1.4-1-2.2-1.5Zm12-11.5-2.4-1.4 3-4c.7.6 1.4 1 2.3 1.5l-3 4Zm-13.1 17.4-3 4c-.7-.6-1.5-1.1-2.2-1.5l3-4c.7.6 1.5 1 2.2 1.5Zm4.3-10.2 3-4c.7.6 1.5 1 2.2 1.5l-3 4c-.7-.6-1.5-1-2.2-1.5Zm-1.1 6-3 3.9-2.2-1.4c1-1.4 1.9-2.7 3-4 .7.6 1.4 1 2.2 1.5Zm13.2-17.5-2.4-1.5 2.8-3.6c0-.2.3-.2.5-.1.7.3 1.3.7 2 1.2l-3 4ZM490.4 108.4c-.1-.2-.3-.2-.6-.4l-36.9-22.2c-.9-.5-.6-.5-1.3.2l-41 56.6c-.4.4-.4.6 0 .9l32.7 26c1 .7 1 .7 1.6-.2l45-60.7c.2 0 .3 0 .5-.2Zm-31.5 31 3.2-4.3 2.4 1.8-3.1 4.2c-.8-.5-1.6-1-2.5-1.8Zm-.7 6.2c-1-.5-1.6-1.2-2.5-1.7l3.2-4.3 2.5 1.8c-1.3 1.5-2.2 2.8-3.2 4.2Zm6.5-8.6 2.5 1.8c-1 1.5-2.1 3-3.2 4.2l-2.5-1.7c1.2-1.5 2.1-3 3.2-4.3Zm-2.8-2-3.2 4.2c-.8-.6-1.6-1.3-2.5-1.8l3.2-4.2 2.5 1.7Zm-13 17.8 3.3-4.3c.8.7 1.6 1.3 2.5 1.8l-3.2 4.2-2.5-1.7Zm15-9.6-3.2 4.2c-1-.5-1.6-1.2-2.5-1.8l3.2-4.2 2.4 1.8Zm-8.5.8c.8.7 1.6 1.2 2.5 1.8-1.1 1.4-2.2 2.7-3.2 4.2l-2.5-1.8c1.2-1.4 2.1-2.7 3.2-4.2Zm-3.8 10.7c1-1.5 2.1-2.8 3.2-4.2l2.5 1.8-3.2 4.2-2.5-1.8Zm-.3.1-3.2 4.3-2.5-2c1.1-1.4 2.2-2.7 3.2-4.2l2.5 2Zm-3 4.3 3.2-4.3 2.4 2-3.1 4.2-2.5-2Zm7-15.4-2.4-1.8 3.2-4.2 2.5 1.8c-1.1 1.4-2.2 2.7-3.2 4.2Zm2.7 2.2c.9.6 1.6 1.3 2.5 1.8-1 1.5-2.1 2.8-3.2 4.2l-2.5-1.7 3.2-4.3Zm-13 17.5 3.1-4 2.5 1.9c-1 1.5-2.1 2.8-3.2 4.2l-2.4-2Zm33.1-49.9 3-4 2.7 1.5-3 4.1-2.7-1.6Zm-33.3 50-2.5-2 3-4 2.5 1.8c-.9 1.4-2 2.7-3 4.1Zm35.8-48-3 4-2.7-1.6 3-4.1 2.7 1.6Zm-30.9 30.8 3-4 2.5 1.7-3.2 4.2-2.3-1.9Zm2.2 2-3.2 4.3-2.5-1.8 3-4c1.2.5 2 1 2.7 1.6Zm7.4-15.2-3.2 4.3c-.9-.6-1.6-1.3-2.5-1.8 1-1.5 2.1-2.8 3.2-4.2l2.5 1.7Zm12.4-11 3-4 2.7 1.6-3 4-2.7-1.6Zm-28.5 33.1 3-4 2.5 1.7c-1 1.5-2.1 2.8-3.2 4.2l-2.3-1.9Zm9.5-13.5-2.4-1.7 3-4.3c.9.6 1.6 1.3 2.5 1.8l-3 4.2Zm34.4-34.9-3 4-2.7-1.7a33 33 0 0 1 2.9-3.6c0-.2.3-.1.4-.1l2.4 1.4Zm-18.5 19.5 3-3.9 2.6 1.8-3 4c-.8-.8-1.7-1.3-2.6-1.9Zm-.5 6c-1-.5-1.8-1.2-2.7-1.7l3-4 2.6 1.8-3 4Zm12.9-23-3 4-2.7-1.6 3-4 2.7 1.5Zm-41.2 50.1 3-4c1 .6 1.7 1.2 2.4 1.8l-3 4.1c-.8-.5-1.5-1.2-2.4-1.9Zm16.7-28c-1.1 1.4-2.2 2.7-3.2 4.2l-2.5-1.8 3-4.2c1 .5 2 1 2.7 1.7Zm-9.4 13 3-4.1 2.5 1.7-3 4.1c-1-.5-1.7-1-2.5-1.7Zm-3.2 4.3 3-4 2.5 1.7-3 4.1c-1-.5-1.8-1-2.5-1.8Zm18.3-13.9 3-4 2.7 1.9-3 3.9c-.9-.5-1.8-1-2.7-1.8Zm15.6-21.2-3 4.1-2.7-1.6 3-4 2.7 1.5ZM443.7 149l2.3 1.8-3 4-2.3-1.7 3-4Zm28.2-32.8 2.7 1.7-3 4-2.7-1.6 3-4Zm-6.1 8.3 3-3.9 2.6 1.6-3 4-2.6-1.7ZM481 109l-2.6-1.7 3-4 2.6 1.7-3 4Zm-27.8 26.7c-1.1 1.5-2.1 2.8-3 4.3-1-.6-1.7-1.3-2.4-1.8l3-4c.8.3 1.5 1 2.4 1.5Zm.7-6.3c-1.1 1.5-2.1 2.8-3 4.3-1-.6-1.7-1.1-2.4-1.8l3-4 2.4 1.5Zm21.5-23.4 2.6 1.6-3 4-2.6-1.5 3-4.1Zm-12.7 22.8 3-4c.8.6 1.7 1.1 2.4 1.8-1 1.3-1.9 2.7-3 4l-2.4-1.8Zm-15.5 36.9-3 3.9c-1-.7-1.6-1.2-2.4-2l3-3.8 2.4 1.9Zm-10-8.2 3-4 2.4 1.7-3 4-2.3-1.7Zm42.8-36-3 4c-1-.5-1.7-1-2.5-1.6l3-4 2.5 1.5Zm.8-6.2 3-4 2.5 1.5-3 4.1c-.7-.7-1.6-1-2.5-1.6Zm-35.8 21 3-4.1c.9.5 1.6 1 2.4 1.7l-3 4.1c-.8-.7-1.5-1.2-2.4-1.7Zm28.6-6-3 4c-.9-.5-1.6-1-2.5-1.8l3-3.9 2.5 1.6Zm-5.8 2.4 2.5 1.7-3 4.1c-1-.5-1.6-1.2-2.5-1.8l3-4Zm-5.8 2c-1-.4-1.6-1.1-2.5-1.7l3-4 2.5 1.9c-1 1.3-2 2.4-3 3.9Zm-12.2 5.4-3 4c-.9-.5-1.6-1.1-2.3-1.7l3-4 2.3 1.7Zm24.5-15.9 2.5 1.6-3 4.1c-1-.5-1.6-1-2.5-1.6l3-4Zm.6-12.4-3 4c-1-.6-1.8-1.1-2.5-1.7l3-3.9 2.5 1.6ZM441.2 147l3-4.1c1 .5 1.6 1.2 2.4 1.7l-3 4.1c-.7-.7-1.5-1.2-2.4-1.7Zm-.8 6.1-2.4-1.8 3-4 2.4 1.7-3 4.1Zm1.4 14.6-2.4-2c1.1-1.2 2-2.6 3-3.9l2.5 2a32.5 32.5 0 0 0-3.1 3.9Zm38.4-46.5-2.5-1.7 3-4 2.6 1.6-3 4Zm-28.9 6.4-3 4.1c-.9-.5-1.6-1-2.3-1.7l3-4.1c.7.7 1.4 1.2 2.3 1.7Zm17.8-13.2 2.5 1.6c-1 1.4-1.9 2.7-3 4l-2.5-1.6c1-1.3 2.1-2.5 3-4Zm-3.5 10-2.5-1.6 3-4 2.5 1.6-3 4Zm10-18.7 3-4 2.7 1.7-3 4-2.6-1.7Zm-28.2 32.6-3 4.1c-.9-.5-1.6-1.2-2.3-1.7l3-4.1 2.3 1.7Zm-6.3 8.5-2.4-1.8 3-4c1 .5 1.7 1.2 2.4 1.7l-3 4Zm34.2-41-3 4-2.5-1.5 3-4 2.5 1.5ZM438 151.2l-2.3-1.8 3-4c.9.5 1.6 1.2 2.3 1.7l-3 4Zm10.2-19.2-3 4.1c-.9-.5-1.6-1-2.3-1.8l3-4c.7.6 1.4 1.2 2.3 1.7Zm38.7-19.6c-1-.5-1.7-1-2.5-1.6l2.8-3.8c0-.2.3-.1.3-.1l2.4 1.4-3 4.1Zm-24.3 16.2c-1-.5-1.7-1-2.5-1.8l3-3.9 2.5 1.6-3 4.1Zm-27.6 27 3-4.1 2.3 1.7-3 4.1c-.7-.5-1.6-1-2.3-1.7Zm31.8-43.1 3-4 2.5 1.7-3 4-2.5-1.7Zm-18 13.3-3 4.1c-1-.5-1.7-1-2.4-1.6l3-4 2.4 1.5Zm-9 34c.8.6 1.6 1.1 2.3 1.8l-3 4-2.3-2 3-3.9Zm23.8-43 3-4 2.5 1.6-3 4c-.7-.6-1.6-1.1-2.5-1.7ZM436.3 143l3-4 2.3 1.7-3 4-2.3-1.7Zm2.1 2-3 4.1-2.3-1.7 3-4.1c.9.5 1.6 1 2.3 1.8Zm21-12.2L457 131l2.9-4 2.5 1.8-2.9 4Zm-24.7 22.5-2.3-1.8 3-4 2.3 1.7-3 4.1Zm7.7-20.6c1 .5 1.7 1 2.4 1.7l-3 4.1-2.4-1.7 3-4.1Zm30.1-30.6-3 3.9-2.5-1.6 3-4 2.5 1.7Zm-9.5 18.4c-1-.5-1.6-1-2.5-1.6l3-4 2.5 1.7-3 3.9Zm10-18.6c1-1.3 2-2.6 2.8-3.9l2.7 1.6-3 4-2.5-1.7Zm-27.5 26.2-3 4.1c-.8-.5-1.6-1-2.4-1.7l3-4.1 2.4 1.7Zm18.5-19.5c1-1.3 2-2.6 2.8-4l2.5 1.7c-.8 1.3-1.7 2.5-2.8 3.6 0 .2-.3.2-.4.1l-2.1-1.4Zm-6.7 14.4 2.8-4 2.6 1.6-3 4c-.8-.4-1.5-1-2.4-1.6Zm6-8.5-2.5-1.7 2.9-3.9 2.5 1.6a59 59 0 0 1-2.9 4Zm-30.4 31c.7.7 1.6 1.3 2.4 1.8l-3 4-2.4-1.7 3-4Zm30.3-30.7-3 3.9c-1-.5-1.7-1-2.5-1.6l2.8-4 2.7 1.7Zm12.5-17-2.7 3.7-.3.1-2.4-1.4 2.9-4 2.5 1.6ZM457 125.3l2.5 1.7c-1 1.3-2 2.6-2.8 4l-2.5-1.9c.9-1.1 2-2.4 2.8-3.8ZM437 137l3-4c1 .5 1.7 1 2.4 1.7l-3 4.1-2.4-1.8Zm30-30.4-2.5-1.7 2.8-4 2.5 1.7-2.8 4Zm-36.2 39 3-4 2.4 1.7-3 4.1c-.9-.5-1.6-1.2-2.4-1.7Zm6-8.3c.8.6 1.7 1.1 2.4 1.8l-3 4c-.9-.5-1.6-1.1-2.3-1.7l3-4Zm7.1-14.7 2.4 1.6-3 4-2.4-1.5 3-4.1Zm-9.5 39.2 2.9-4 2.3 2c-1 1.3-2 2.6-2.8 4-1-.7-1.6-1.4-2.4-2Zm22.9-36.7-2.6-1.6 2.9-4 2.5 1.7a59 59 0 0 1-2.8 4Zm4.1-16 2.7-3.6.3-.1 2.4 1.5a59 59 0 0 0-2.9 3.9l-2.5-1.6Zm8.7-6.8-2.5-1.6 2.9-4 2.5 1.7-2.9 4Zm-18.4 25.3 2.9-4 2.5 1.7-2.9 4-2.5-1.7Zm9.6-18.1 2.5 1.6-2.9 4-2.5-1.7 2.9-4Zm-20.6 17.5 2.4 1.6-3 4-2.4-1.6 3-4Zm26.6-26.2-2.8 4-2.5-1.6 2.8-4c.7.7 1.6 1 2.5 1.6Zm-39.6 49.1 3-4c.7.6 1.4 1.3 2.3 1.8l-3 4.1-2.3-1.9ZM464 105c-1 1.3-2 2.6-2.8 4l-2.5-1.7c1-1.3 2-2.6 2.8-4l2.5 1.7Zm-8.8 12.4 2.8-4 2.5 1.7c-1 1.3-2 2.6-2.8 4l-2.5-1.7Zm-.7 5.9c-.7-.6-1.6-1.1-2.5-1.7 1-1.3 2-2.6 2.8-4l2.5 1.7-2.8 4Zm-20 12.2 2.3 1.7-3 4.1-2.4-1.7 3-4.1Zm9.2-13.2-3 4-2.4-1.5 3-4.1 2.4 1.6Zm-3.9 10.5-3 4.1-2.3-1.7 3-4.1 2.3 1.7Zm-5.6 28.8-2.3-2 2.8-3.7c.7.7 1.6 1.2 2.3 1.7l-2.8 4Zm21.5-50 2.8-4 2.5 1.6c-1 1.3-2 2.6-2.8 4-1-.6-1.8-1.1-2.5-1.7Zm-27.5 32.2 3-4c.8.4 1.5 1 2.2 1.7l-3 4-2.2-1.7Zm23.8-22 2.5 1.6c-1 1.3-2 2.6-2.8 4l-2.4-1.7c.7-1.3 1.6-2.6 2.7-4Zm15.7-26.6 2.5 1.5c-1 1.3-2 2.6-2.8 3.9-1-.5-1.7-1-2.5-1.6.9-1.3 1.7-2.7 2.8-3.8Zm-30.2 35.6-2.4-1.6 3-4.1 2.4 1.6-3 4Zm24-27.8-2.5-1.6 2.9-4c.9.6 1.6 1.1 2.5 1.5-1 1.5-1.8 2.8-2.9 4.1Zm-3.7 10.4-2.8 4-2.4-1.6c1.1-1.3 2-2.6 2.9-4l2.3 1.6Zm-5.5 2.5 2.5 1.6a59 59 0 0 0-2.8 4l-2.4-1.6c1-1.3 1.8-2.7 2.7-4Zm-18.2 19.4-3 4c-.7-.4-1.4-1-2.2-1.7l3-3.9 2.2 1.6Zm.4 20.4-2.8 4-2.3-2 2.8-3.8c.7.6 1.5 1.3 2.4 1.8Zm.6-26.4c.7.6 1.5 1 2.4 1.6l-3 4.1-2.2-1.6 2.8-4Zm-7.7 20.5-2.2-1.8 3-3.9c.8.5 1.5 1.2 2.2 1.8-1 1.1-2 2.4-3 3.9Zm28.6-44.1 2.9-4 2.5 1.6a59 59 0 0 0-2.9 4l-2.5-1.6Zm-7 19.9-2.4-1.6 2.9-3.8c.9.5 1.6 1 2.3 1.6-1 1.3-2 2.4-2.8 3.8Zm-13-2.6 3-4 2.3 1.5-3 4.1c-.9-.5-1.6-1-2.3-1.6Zm22.3-15.4-2.8 4-2.3-1.7 2.8-4 2.3 1.7ZM426 141.9l3-4 2.2 1.8-3 4c-.7-.6-1.4-1.3-2.2-1.8Zm6.9-14.5 3-4 2.2 1.7-3 4a8.8 8.8 0 0 0-2.2-1.7Zm-3 24.6c.6.7 1.5 1.2 2.3 1.8l-2.9 3.8c-.7-.7-1.4-1.3-2.3-1.8 1-1.3 2-2.5 2.8-3.8ZM465 93.6l2.5 1.4-2.8 3.8-2.5-1.5c.9-1.3 2-2.4 2.8-3.7Zm-8.5 6.4 2.8-4 2.6 1.5-2.9 4-2.5-1.5Zm-4 15.6c-.9-.5-1.6-1-2.3-1.6.8-1.3 1.9-2.6 2.8-3.8l2.3 1.6a35 35 0 0 0-2.8 3.8ZM428 144l-2.8 4-2.2-1.8c1-1.3 2-2.6 2.8-4l2.2 1.8Zm5.6-22.5 3-4 2.2 1.5-3 4.1-2.2-1.6Zm-4.7 16-2.2-1.5 3-4 2.2 1.6-3 4Zm20.6-17.7a36 36 0 0 1-2.4-1.6l2.8-3.8 2.4 1.6-2.8 3.8Zm-14.4 9.6-3 4-2.2-1.6 2.8-4 2.4 1.6Zm14.2-9.3-2.9 3.8-2.3-1.6 2.8-3.8 2.4 1.6Zm-22.8 16c.8.6 1.5 1 2.2 1.8l-3 3.9-2.2-1.7c1-1.2 2.1-2.5 3-4Zm29.5-30.3-2.4-1.7c1-1.3 2-2.6 2.8-3.9 1 .5 1.7 1 2.4 1.5l-2.8 4Zm-19.6 11.5-3 4-2.2-1.6c1-1.3 2-2.6 2.8-3.9 1 .5 1.7 1 2.4 1.5Zm-.7 6-3 3.9-2.1-1.6 2.8-4 2.3 1.7Zm14.9-15 2.8-4c1 .5 1.7 1 2.4 1.6-.9 1.3-2 2.6-2.8 4l-2.4-1.7Zm-21 43.6c-.8 1.4-1.9 2.7-2.7 3.8l-2.2-1.7 2.8-3.8c.7.7 1.4 1.2 2.2 1.7ZM465 93.4l-2.7 3.5-.3.1a17 17 0 0 1-2.2-1.4l2.8-3.8c.7.7 1.5 1 2.4 1.6Zm-17.4 18.8 2.8-3.8 2.4 1.6-2.8 3.8c-.8-.5-1.7-1-2.4-1.6Zm-20.4 18 2.2 1.6a59 59 0 0 0-2.8 4l-2.2-1.7 2.8-4Zm19.8-12.3c-.8-.5-1.7-1-2.4-1.6l2.8-3.8 2.4 1.6-2.8 3.8Zm-13.8 3.6a59 59 0 0 0-2.8 4l-2.2-1.6c1-1.3 2-2.6 2.8-4l2.2 1.6Zm-6.8 14.5-2.9 4-2.2-1.6 2.9-4 2.2 1.6Zm6.2-8.5-2.9 4-2.2-1.6 2.9-4 2.2 1.6Zm-12 16.9c.8-1.4 1.8-2.7 2.7-4 .8.5 1.5 1 2.2 1.8-1 1.3-2 2.6-2.8 3.9-.7-.7-1.5-1.2-2.2-1.7Zm33.5-46 2.8-3.9 2.4 1.5c-1 1.3-2 2.6-2.8 4l-2.4-1.7Zm-12.5 22 2.8-3.8 2.4 1.6-2.9 3.8-2.3-1.6Zm11.9-16.5-2.4-1.6 2.8-3.8 2.4 1.4-2.8 4Zm-2.6-1.2 2.4 1.6-2.9 4-2.3-1.6a37 37 0 0 1 2.8-4Zm-32 34 3-4 2.1 1.6c-1 1.3-2 2.6-2.8 3.9l-2.2-1.6Zm6-8.3 2.1 1.6-2.8 4-2.2-1.6 2.8-4Zm.1-.3 2.9-4 2.2 1.7-2.9 4-2.2-1.7Zm23-21.3 2.3 1.6-2.9 3.8-2.3-1.6c.9-1.3 2-2.5 2.8-3.8Zm8.8-12.4-2.9 4c-.7-.6-1.6-1-2.3-1.5l2.8-3.8c.8.2 1.5.7 2.4 1.3Zm.3-.3 2.8-3.8c1 .5 1.7 1 2.4 1.5l-2.8 3.7c-.8-.3-1.5-.9-2.4-1.4Zm-29.8 56-2.8 3.8-2.2-1.8a56 56 0 0 1 2.9-3.8l2.1 1.8Zm26.5-51.6L451 102c0 .2-.3.1-.3.1-.7-.3-1.3-.8-2.2-1.4l2.8-3.8 2.4 1.5Zm-35.5 44 2.9-4c.7.5 1.4 1 2.2 1.8l-2.9 3.9c-.9-.5-1.4-1-2.2-1.7Zm23.8-27.8c.9-1.3 2-2.5 2.8-3.8l2.4 1.6-2.9 3.8-2.3-1.6Zm3.5-9.8 2.8-3.8 2.4 1.5-2.8 3.7c-1-.3-1.7-.9-2.4-1.4Zm5.7-8.4-2.4-1.4 2.8-3.8 2.4 1.4c-.9 1.4-1.8 2.7-2.8 3.8Zm-30.3 42c-1 1.3-2 2.6-2.8 4l-2.2-1.8c.9-1.3 2-2.6 2.8-4l2.2 1.8Zm18.2-19.7 2.9-3.8 2.3 1.6-2.8 3.8-2.4-1.6Zm6.9-19.6a56 56 0 0 1 2.8-3.8l2.4 1.4-2.9 3.8c-.9-.3-1.6-.9-2.3-1.4Zm8.3-6.6 2.9-3.8 2.3 1.5c-.9 1.3-1.7 2.5-2.8 3.8-.7-.6-1.5-1-2.4-1.5Zm-9.5 17.8-2.3-1.6 2.8-3.8c.7.6 1.5 1.1 2.4 1.5l-2.9 4Zm.5-5.7-2.3-1.4c.9-1.3 1.7-2.5 2.8-3.8l2.4 1.4-2.9 3.8Zm-3 4.6 2.4 1.6-2.9 3.8-2.3-1.6 2.8-3.8Zm-19.7 37.1 2.2 1.8-2.9 3.8c-.7-.7-1.4-1.3-2.2-1.8l2.9-3.8Zm31.6-54-2.4-1.4 2.7-3.8 2.4 1.4c-.8 1.4-1.7 2.7-2.7 3.9Zm-11.9 16.4-2.3-1.6 2.8-3.8c.7.6 1.5 1 2.4 1.5l-2.9 4Zm-5.7 8.2 2.9-3.8 2.3 1.6c-.9 1.4-1.8 2.5-2.8 3.8l-2.4-1.6Zm.5-5.7 2.9-3.8 2.3 1.6-2.8 3.8a36 36 0 0 1-2.4-1.6Zm-.1.3 2.2 1.6-2.9 3.8-2.2-1.6 2.9-3.8Zm-16.8 33 2.2 1.8-2.8 3.8-2.2-1.8 2.8-3.7Zm-2.3-1.9 2.2 1.8-2.7 3.8-2.2-1.8 2.7-3.8Zm-2.2-1.7c.7.5 1.5 1 2.2 1.7l-2.7 3.7c-.7-.5-1.4-1-2.1-1.8l2.6-3.6Zm8.9-12.8a59 59 0 0 0-2.8 4c-.8-.5-1.3-1-2-1.6l2.8-4c.7.8 1.4 1.1 2 1.6Zm6.4-8.6-2.1-1.4c1-1.3 2-2.6 2.8-4l2 1.5-2.7 4ZM416.7 135l2.8-4c.8.5 1.4 1 2 1.6-1 1.3-1.9 2.6-2.7 4l-2.1-1.6Zm9.2-12.6c1-1.3 2-2.6 2.8-4l2 1.5c-1 1.3-1.9 2.6-2.7 4l-2.1-1.5Zm-10.2 18.2-2-1.6c.9-1.3 2-2.6 2.8-3.9.8.5 1.3 1 2 1.6-.8 1.5-1.9 2.6-2.8 4Zm12-16.5-2.8 4-2-1.6c.9-1.3 2-2.6 2.8-4 .6.7 1.3 1 2 1.6Zm18.7-30 2.1 1.2-2.8 3.8-2-1.3 2.7-3.8ZM411 142.8l2.6-3.7 2 1.6-2.6 3.7-2-1.6Zm27-37.1 2.8-3.8 2.1 1.4-2.8 3.8c-.8-.5-1.5-.9-2-1.4ZM449 95c-.8-.5-1.4-1-2.1-1.3.8-1.3 1.7-2.5 2.8-3.8.7.4 1.3 1 2 1.3-1 1.1-1.9 2.5-2.8 3.8Zm-12.1 16.5-2.7 3.8-2-1.4 2.6-3.8c.8.3 1.4.9 2.1 1.4Zm4-9.8 2.8-3.8c.7.6 1.3 1 2 1.3a57 57 0 0 1-2.8 3.8c-.7-.4-1.3-.7-2-1.3Zm-1 5.7a56 56 0 0 1-2.8 3.8l-2-1.4 2.6-3.8 2.2 1.4ZM451.7 91c-.8-.4-1.4-1-2.1-1.3a46 46 0 0 0 2.5-3.5c0-.2.3-.1.3-.1l2 1c-.8 1.4-1.7 2.6-2.7 3.9Z"/><path fill="#394149" stroke="#5C5F63" stroke-miterlimit="10" stroke-width=".5" d="m709.5 209.3-59.7-32.6-88.5 37 59.9 43.3 88.3-47.7Z"/><path fill="#252E36" d="m611.5 315.5-9-7.3-7.3 6 4 1.5-2 14.6-24.4 15.4-10.8-15.4-5.8 3.7-6.3-4.9-6.7 2.5-42.4-37.9-2.2-43.7 33.5-14.5 3.5-2s1.2-1.1-3-4c-4.4-2.9-8.4-5.2-6.8-9 1.6-3.7 6.8-10.4 10.5-11 3.6-.6 5-.5 9.4 2.8a40 40 0 0 1 6.6 6.2l4-1.7 2.4 2.1 1.7-5.3 61 43.6-10 58.3 83.4-49.9 14.7-56.2-88.3 47.8"/><path stroke="#5C5F63" stroke-miterlimit="10" stroke-width=".5" d="m611.5 315.5-9-7.3-7.3 6 4 1.5-2 14.6-24.4 15.4-10.8-15.4-5.8 3.7-6.3-4.9-6.7 2.5-42.4-37.9-2.2-43.7 33.5-14.5 3.5-2s1.2-1.1-3-4c-4.4-2.9-8.4-5.2-6.8-9 1.6-3.7 6.8-10.4 10.5-11 3.6-.6 5-.5 9.4 2.8a40 40 0 0 1 6.6 6.2l4-1.7 2.4 2.1 1.7-5.3 61 43.6-10 58.3Zm0 0 83.3-49.9 14.7-56.2-88.3 47.8"/><path fill="#394149" stroke="#5C5F63" stroke-miterlimit="10" stroke-width=".5" d="m599.7 260.6-6 51.8-50.7 19 1.5-43.5 55.2-27.3Z"/><path fill="#5C5F63" d="M561.3 229.6c-2.8-.3-4.9-2.8-4.6-5.6a5.1 5.1 0 0 1 10.2.9 5.1 5.1 0 0 1-5.6 4.7ZM584.2 234.3c-1-2.7-1.3-5-.6-5.3.7-.3 2.1 1.6 3.2 4.2 1 2.7 1.3 5 .6 5.3-.8.3-2.2-1.6-3.2-4.2Z"/><path fill="#252E36" stroke="#5C5F63" stroke-miterlimit="10" stroke-width=".5" d="M595.6 199.3 584 180.1l2.9-4.4-4.3-2.6-32.2 43 1.8 2.4 3.9-1.7 26-34.2 10.6 18 2.9-1.3Z"/><path stroke="#5C5F63" stroke-miterlimit="10" stroke-width=".3" d="m642.4 297 8.5-37.4-6.2 3.4 2-14.2-19 10.8-8.2 51 22.9-13.7Z"/><path stroke="#5C5F63" stroke-miterlimit="10" stroke-width=".3" d="m650.1 263.1-25.1 13-.3 3 24.7-12.8-.8 3.2-24.6 12.6-.4 3.1 24.3-12.6-3.5 15.7-23.2 12 .4-3.1 23.5-12.1.8-3-23.5 12 .2-3 24-12.3.6-3-24 12.5 2.4-15.5 19-9.8.5-3.4-19 9.8.6-3.7 19-9.8.5-3.5-18.9 9.8-6.7 41.4 23-12.1-.5 2.7-23 13"/><path fill="#252E36" stroke="#5C5F63" stroke-miterlimit="10" stroke-width=".5" d="m583.1 246.5.7-7.5-1.8-1.6-9.2 4 .2-11.4-10.7 5s-.5 8.9-1 11.7c-.6 2.7-2.4 7.2-7.1 8l-6 1-.8 8.5 35.7-17.7Z"/><path stroke="#5C5F63" stroke-miterlimit="10" stroke-width=".3" d="m583.5 229-3.7 1.6-6.8-.6-.2 11.6 9.2-4.2 1.8 1.6 3.1-.5"/><path stroke="#5C5F63" stroke-miterlimit="10" stroke-width=".3" d="M579.8 230.6s.3 5.3 2.2 6.8"/><path fill="#252E36" stroke="#5C5F63" stroke-miterlimit="10" stroke-width=".3" d="M604.3 232s-5.7 2.7-11.9-1l2.8-10.4c4.7 2.7 9 .7 9 .7l.1 10.8Z"/><path fill="#252E36" stroke="#5C5F63" stroke-miterlimit="10" stroke-width=".3" d="M603.5 221.1s-3.7 2.3-7.8-.7l2-9.1c3 2.3 5.9.5 5.9.5v9.3Z"/><path fill="#252E36" stroke="#5C5F63" stroke-miterlimit="10" stroke-width=".3" d="m600.2 199-1.7 12.5c.7.6 1 .9 2 1a3 3 0 0 0 2.1-.6l.8-12.5c-.2 0-1.7.3-3.2-.3Z"/><path stroke="#5C5F63" stroke-miterlimit="10" stroke-width=".2" d="m552.2 218.5-13.2 5.7s-.3 5.7-1.5 7.5c-1.3 1.7-2 1.7-2 1.7"/><path fill="#252E36" stroke="#5C5F63" stroke-miterlimit="10" stroke-width=".5" d="m572.8 345.7 1-13.9 25.5-16.1-2 14.6-24.5 15.4Z"/><path fill="#394149" stroke="#5C5F63" stroke-miterlimit="10" stroke-width=".5" d="m565 323.3 8.9 8.5 25.4-16.1-6.8-2.8-27.6 10.4Z"/><path stroke="#5C5F63" stroke-miterlimit="10" stroke-width=".2" d="m675.6 221-23.8 10.6-24.3-13.6 24.3-10.2 23.8 13.3Z"/><path stroke="#5C5F63" stroke-miterlimit="10" stroke-width=".3" d="m446 170.7 37.5 29 50.4-65.5-42-24.3-45.8 60.8ZM684.3 234l-10.7 5.4-2.2 11.8 9.8-5 3.1-12.2Z"/><path fill="#252E36" d="m604.5 200.9-.3 3.8v-.1c-.1 1.7 2.4 3.1 5.8 3.4 3.2.3 6.1-.8 6.3-2.4v.3l.3-4"/><path stroke="#5C5F63" stroke-miterlimit="10" stroke-width=".3" d="m604.5 200.9-.3 3.8v-.1c-.1 1.7 2.4 3.1 5.8 3.4 3.2.3 6.1-.8 6.3-2.4v.3l.3-4"/><path fill="#5C5F63" d="M610.3 204.5c-3.4-.3-6-1.9-6-3.5.2-1.6 3-2.7 6.5-2.4 3.4.3 6 1.9 6 3.5-.2 1.6-3 2.7-6.5 2.4Z"/><path fill="#252E36" d="m620 194-.2 3.8v-.1c-.2 1.7 2.3 3.2 5.7 3.5 3.3.2 6.2-.9 6.3-2.4v.3l.4-4"/><path stroke="#5C5F63" stroke-miterlimit="10" stroke-width=".3" d="m620 194-.2 3.8v-.1c-.2 1.7 2.3 3.2 5.7 3.5 3.3.2 6.2-.9 6.3-2.4v.3l.4-4"/><path fill="#5C5F63" d="M625.7 197.6c-3.4-.3-6-1.9-6-3.5.2-1.6 3-2.7 6.5-2.4 3.4.3 6 1.9 6 3.5-.2 1.6-3 2.7-6.5 2.4Z"/><path stroke="#5C5F63" stroke-miterlimit="10" stroke-width=".3" d="m683.6 236.5-10.6 5.2M683 239.1l-10.3 5M682.4 241.9l-10.4 4.8M681.7 244.1l-9.9 4.8"/><path fill="#394149" d="m498.5 249.8 33.3-13.8 20.5 18.9-4.3.5-.7 8.8 3.2-1.7-6 25.4-46-38 46 38 6.4-25.8 39.3-18.2 9.5 16.7-55.2 27.3"/><path stroke="#5C5F63" stroke-miterlimit="10" stroke-width=".5" d="m498.5 249.8 33.3-13.8 20.5 18.9-4.3.5-.7 8.8 3.2-1.7-6 25.4-46-38Zm0 0 46 38.1 6.4-25.8 39.3-18.2 9.5 16.7-55.2 27.3"/><path fill="#5C5F63" d="M552.2 253.6c-2.8-.2-4.9-2.7-4.6-5.5a5.1 5.1 0 0 1 10.2.9 5.1 5.1 0 0 1-5.6 4.6Z"/><defs><clipPath id="a"><path fill="#fff" d="m475.4 67 238.3 412.7-428 247.1L47.4 314.1z"/></clipPath></defs></svg>