<svg xmlns="http://www.w3.org/2000/svg" width="1920" height="1101" fill="none"><path stroke="#212A33" stroke-dasharray="9 9" stroke-linecap="round" stroke-linejoin="round" stroke-width="2" d="m1920 1-86.4 75.8c-85.2 74.6-258 226-483.9 329C1123.9 508.5 842.6 565 609 661.1 376.6 756.8 189 893.8 95.6 962l-1.4 1L0 1032"/><g clip-path="url(#a)"><path fill="url(#b)" d="m1497.5 399.3-809.6-.3 405 701.5 404.6-701.2Z"/></g><path fill="#252E36" d="m1463.3 380 5.9-4.4-8.2-17.5-33-66.7 4.5-10 46.3-21.3 8.8-3.2 4.9.3h7.2c.6 0 3 4 3 4l5.3 1 6.4 11.6-1 5.4 11.6 3.3 6.5 14-4.8 12.3 14.7 28.8 12.3-4.7 1.5 3.2-3.7 2s4 7.5 4.5 9.3c.5 1.7.8 3.5-1 4.9-1.6 1.4-1.5 2.4-1.3 3.7.1 1.2-.2 2-1.4 2.7-1.2.8-1 1.4.8 4.6 1.8 3.2 7.8 13.6 8.6 19a79 79 0 0 1-2.3 21.1 28 28 0 0 1-14 15.7c-7.2 3.4-12.9 7-17.2 6.8-4.3-.3-7.5-2.8-7.5-2.8v3.8l2.8 7-19.3 9.5-12.2-23.3-2.1 3.3-3.9 2-22.7-45.5Z"/><path fill="#5C5F63" fill-rule="evenodd" d="m1487.6 256.7 4.9.3h7.4l.2.2.5.5a20.8 20.8 0 0 1 2 2.8l.2.4v.1l5.3 1 6.5 11.8-1 5.3 11.5 3.3 6.6 14.2-4.8 12.2 14.6 28.6 12.3-4.7 1.7 3.5-3.7 2v.1a271.6 271.6 0 0 1 4.3 9c.3.9.5 1.8.4 2.7 0 .9-.4 1.7-1.3 2.4-.8.7-1.2 1.3-1.3 1.8-.2.6-.1 1.1 0 1.7a3 3 0 0 1-.2 1.7c-.2.5-.7.9-1.3 1.3-.3.1-.5.3-.6.5v.6a34.1 34.1 0 0 0 1.5 3.1v.2c1 1.6 2.9 5 4.6 8.6 1.9 3.6 3.6 7.6 4 10.3.3 2.7 0 6.9-.5 11-.6 4-1.3 8-1.9 10.3a28 28 0 0 1-14 15.8l-5 2.5h-.1l-4.6 2.2a16.6 16.6 0 0 1-7.6 2 15.2 15.2 0 0 1-7-2.3l-.3-.2v3.4l2.8 7.1-19.6 9.7-12-23.3-2 3.2-4.1 2L1463 380l5.9-4.3-8.1-17.4-33.2-66.8 4.7-10.2 46.4-21.3 8.8-3.2Zm68.6 90.7h-.2.2Zm-4.8-9.2-.1-.2 3.7-2-1.4-2.9-12.3 4.8-14.8-29.1 4.8-12.2-6.4-14-11.8-3.3 1.1-5.4-6.3-11.5-5.2-1v-.1h-.1v-.2l-.4-.5a57 57 0 0 0-2.3-3l-.2-.2h-7.2l-4.9-.3-8.7 3.2-46.2 21.2-4.6 9.9 33.1 66.6 8.2 17.7-5.8 4.3 22.5 45.2 3.7-2 2.3-3.5 12.1 23.5 19-9.3-2.7-7v-4.1l.3.2h.2l.4.3 1.5 1c1.4.6 3.2 1.2 5.3 1.4 2.1.1 4.6-.7 7.5-2l4.5-2.2 5.1-2.5a27.7 27.7 0 0 0 13.9-15.6c.5-2.2 1.3-6.2 1.8-10.3.6-4 .9-8.2.5-10.9-.4-2.6-2-6.5-3.9-10.2-1.8-3.6-3.7-6.9-4.6-8.5v-.1a37.2 37.2 0 0 1-1.6-3.3l.1-.9.7-.7c.6-.3 1-.7 1.2-1 .1-.5.2-1 .1-1.5V354c.2-.6.6-1.2 1.5-2a3 3 0 0 0 1.2-2.2c0-.8-.2-1.6-.4-2.4a125.5 125.5 0 0 0-3.8-8l-.4-1-.2-.2v-.1Z" clip-rule="evenodd"/><path fill="#394149" d="M1561.4 381.9a72 72 0 0 0-8.6-19c-1.9-3-2-3.9-.8-4.5 1.2-.8 1.5-1.4 1.4-2.8-.2-1.2-.2-2 1.4-3.6 1.7-1.4 1.4-3.2.9-4.9-.5-1.7-4.5-9.3-4.5-9.3l-68.4 32-8 6.8s2 3 5 5.2a31 31 0 0 0 9.3 3.6h3.2l7.3 14.8-14.5 7.8 6.6 12 11.7 23.3 19.3-9.5-2.8-7V423s3.4 2.4 7.6 2.7c4.3.3 10-3.3 17.2-6.7a28.5 28.5 0 0 0 13.9-15.7 65.2 65.2 0 0 0 2.8-21.4Z"/><path fill="#5C5F63" fill-rule="evenodd" d="m1551.4 337.7.2.3.5 1a341.6 341.6 0 0 1 3.8 8c.2.9.4 1.8.3 2.7 0 .9-.4 1.7-1.3 2.4-.7.8-1.1 1.4-1.3 1.9-.1.5 0 1 0 1.6a3 3 0 0 1-.2 1.7c-.2.5-.7.9-1.3 1.3l-.6.4v.7c0 .4.1.8.4 1.3l1 1.9c1 1.5 3 4.9 4.8 8.5a40 40 0 0 1 3.9 10.5 70.5 70.5 0 0 1-2.8 21.5 23 23 0 0 1-4.7 8.3 28 28 0 0 1-9.4 7.5l-4.5 2.2-.5.3-4.6 2.2a17 17 0 0 1-7.6 2 15.4 15.4 0 0 1-7.3-2.5v-.4h-.3v.1a3.3 3.3 0 0 1 .3.3v3.3h-.3.3l2.8 7.2-19.7 9.6-11.8-23.3.2-.1h-.2l-6.7-12.2 14.5-7.8v.2h.3l-.1-.3-.2.1-7-14.5v-.2l-.1.1v.1h-3.1v-.4h3.4l7.3 15.1-14.4 7.8v-.2l-.3.1.1.2.2-.1 6.5 11.9 11.6 23h-.2v.3l.3-.1-.1-.2 19-9.3v.2l.2-.1v-.2l-.3.1-2.7-6.9v-4.2l.4.2.1.1.5.3 1.5.8a15 15 0 0 0 5.3 1.5c2 .2 4.6-.7 7.4-2 1.5-.6 3-1.4 4.6-2.2l.5-.2 4.6-2.3c3.5-1.7 6.7-4.5 9.2-7.4 2.4-3 4-6 4.6-8.2a70.5 70.5 0 0 0 2.8-21.3c-.4-2.7-2-6.6-4-10.3a128.5 128.5 0 0 0-5.7-10.5 5 5 0 0 1-.5-1.3c0-.4 0-.7.2-1l.7-.6.1.2v-.2l1-1c.2-.4.3-.9.2-1.5h.2-.2m-78 20.9.2.4 1 1.2c.8 1 2 2.3 3.5 3.4s3.8 2 5.8 2.6a44.5 44.5 0 0 0 3.2 1h.2v.4h-.1a18.1 18.1 0 0 1-1-.2l-2.5-.8c-2-.6-4.3-1.5-5.9-2.7a20.6 20.6 0 0 1-4.6-4.7l-.2-.4h-.1v-.1l.1-.1.2.1.1-.1Zm7.7-6.6-7.8 6.6v-.1h-.3l-.1.2-.1-.2 8.1-6.8 68.6-32.2.1.2M1483 370l68.3-32Zm0 0v-.2.2Z" clip-rule="evenodd"/><path fill="#394149" d="m1460.1 374.4 32.4 65.4-38.5 19.5-31.8-65 38-19.9Z"/><path fill="#5C5F63" fill-rule="evenodd" d="m1460.2 374.2 32.5 65.6-38.8 19.7-31.9-65.3 38.2-20Zm-37.7 20.1L1454 459l38.2-19.3-32.3-65-37.5 19.6Z" clip-rule="evenodd"/><path fill="#5C5F63" fill-rule="evenodd" d="m1452.6 377.8 32.3 66.3-8 4-32.2-66 8-4.3Zm-6.8 4.6 31.4 64.6 6.6-3.3-31.5-64.7-6.5 3.4Z" clip-rule="evenodd"/><path fill="#5C5F63" d="M1463.9 412c1-.5.5-3.8-1.3-7.3-1.7-3.4-4-5.8-5-5.3-1.1.6-.5 3.8 1.2 7.3 1.7 3.4 4 5.8 5 5.3ZM1471.2 406.5c1-.5.5-3.8-1.2-7.2-1.8-3.5-4-5.9-5.1-5.4-1 .6-.5 3.8 1.2 7.3 1.8 3.4 4 5.8 5 5.3Z"/><path fill="#394149" d="m1426 296.6 5-7.8 16.9 34.6-4.8 5.2-17-32Z"/><path fill="#5C5F63" fill-rule="evenodd" d="m1431 288.4 17.1 35-5 5.6-17.3-32.4 5.2-8.2Zm-4.7 8.2 16.9 31.7 4.4-4.9-16.6-34.2-4.7 7.4Z" clip-rule="evenodd"/><path fill="#394149" d="m1431 288.8 3.8-1 17 33.8-5.3 7-1.3-2.4 2.7-2.8-17-34.6Z"/><path fill="#5C5F63" fill-rule="evenodd" d="m1435 287.5 17 34.1-5.6 7.4-1.4-2.8 2.6-2.8-17-34.7 4.3-1.2Zm-3.7 1.4 16.8 34.6-2.6 2.7 1 2 5.1-6.6-16.9-33.6-3.4 1Z" clip-rule="evenodd"/><path fill="#394149" d="m1447.9 336.3 7.2-3.5 9.8 21.6-6.6 3.5-10.4-21.6Z"/><path fill="#5C5F63" fill-rule="evenodd" d="m1455.2 332.5 10 22-7 3.7-10.6-22 7.6-3.7Zm-7 3.9 10.2 21.3 6.2-3.4-9.6-21.3-6.9 3.4Z" clip-rule="evenodd"/><path fill="#394149" d="m1447 329.6-4.4 4 2.7 5.1-.7 2.3 9.6 19.5h3.2l.9 1.9 4-1.9-15.4-31Z"/><path fill="#5C5F63" fill-rule="evenodd" d="m1447 329.2 15.5 31.4-4.3 2-1-1.9h-3.2l-9.6-19.7.6-2.3-2.6-5 4.6-4.5Zm-4.1 4.5 2.6 5-.7 2.3 9.5 19.3h3.2l.9 1.8 3.6-1.7-15.1-30.5-4 3.8ZM1553.7 353.9l-24.8 13.4-29 11.5-17.1-8.6.4-.7 16.8 8.4 28.5-11.3 24.8-13.4.4.7ZM1502 378.2l14.5 30.1-4.6 2.5 11.2 21.9-.8.4-11.5-22.7 4.6-2.4-13.7-28.5-8.8 6.2-.5-.6 9.6-6.9Z" clip-rule="evenodd"/><path fill="#394149" d="m1502 323.3 5.2 9.5 10-4.8-5-9.6-10.2 4.9Z"/><path fill="#5C5F63" fill-rule="evenodd" d="m1512.4 318.1 5 10-10.3 5-5.4-9.9 10.7-5Zm-10.1 5.3 5 9 9.6-4.5-4.7-9.2-10 4.7Z" clip-rule="evenodd"/><path fill="#394149" d="m1505.8 314.7 1.9 3 4.4-1.9-1.8-3-4.5 2Z"/><path fill="#5C5F63" fill-rule="evenodd" d="m1510.4 312.5 2 3.4-4.8 2-2-3.2 4.8-2.2Zm-4.3 2.3 1.7 2.6 4-1.7-1.6-2.7-4 1.8Z" clip-rule="evenodd"/><path fill="#394149" d="m1501.4 306.8 1.8 3 5.3-2-2-2.8-5.1 1.8Z"/><path fill="#5C5F63" fill-rule="evenodd" d="m1506.5 304.7 2.3 3.3-5.7 2-2-3.3 5.4-2Zm-4.8 2.2 1.6 2.6 4.8-1.7-1.7-2.6-4.7 1.7Z" clip-rule="evenodd"/><path fill="#394149" d="M1472.4 315.8 1483 336l-15 7.9-10.6-19.8 15-8.3Z"/><path fill="#5C5F63" fill-rule="evenodd" d="m1472.5 315.5 10.8 20.5-15.4 8.2L1457 324l15.4-8.5Zm-14.9 8.6 10.4 19.5 14.7-7.7-10.4-19.8-14.7 8Z" clip-rule="evenodd"/><path fill="#394149" d="m1487 345.4 5.7 11 21.7-10.4-5.5-11.4-22 10.8Z"/><path fill="#5C5F63" fill-rule="evenodd" d="m1509 334.3 5.7 11.8-22.2 10.6-5.8-11.4 22.3-11Zm-21.8 11.2 5.5 10.6 21.5-10.2-5.4-11-21.5 10.6Z" clip-rule="evenodd"/><path fill="#5C5F63" d="M1512.1 354.6c1.6 0 2.8-1.2 2.8-2.8a2.8 2.8 0 0 0-5.5 0c0 1.6 1.2 2.8 2.7 2.8ZM1538.5 342.7c1.5 0 2.8-1.3 2.8-2.8a2.8 2.8 0 0 0-5.5 0c0 1.5 1.2 2.8 2.7 2.8Z"/><path fill="#394149" d="m1437 287 4.4 9.3h3.5l9.5 18.9 20.6-11-14.7-28.4h-3L1437 287Z"/><path fill="#5C5F63" fill-rule="evenodd" d="M1457.3 275.6h3.1l14.9 28.7-21 11.2-9.5-19h-3.5l-4.6-9.6 20.6-11.3Zm.1.4-20.2 11 4.3 9h3.6l9.4 19 20.2-10.9-14.5-28h-2.8Z" clip-rule="evenodd"/><path fill="#5C5F63" fill-rule="evenodd" d="m1457.7 275.6 4.5 9.6-20.6 11.4-.4-.7 20-11-4.2-8.9.7-.4Z" clip-rule="evenodd"/><path fill="#5C5F63" fill-rule="evenodd" d="m1461.7 284.6 3.5.3v.8l-3.6-.3.1-.8ZM1448.7 295.9l17-9.6.5.7-17.3 9.7h-4.3v-.8h4Z" clip-rule="evenodd"/><path fill="#5C5F63" d="m1477 280.1 6.8 15.4 17-6-6.6-16.4-17.2 7Z"/><path fill="#5C5F63" fill-rule="evenodd" d="m1494.3 272.8 6.8 16.7-17.5 6.3-6.9-15.8 17.6-7.2Zm-17 7.4 6.6 15 16.6-6-6.4-15.9-16.8 7ZM1510.3 294l-32 13-.4-.7 32-13.2.4.8Z" clip-rule="evenodd"/><path fill="#5C5F63" fill-rule="evenodd" d="m1503 297.8-1.4-2.7.8-.4 1.3 2.8-.7.3ZM1493 302l-1.3-3.1.7-.3 1.4 3.2-.8.3ZM1484.3 305.7l-1-2.6.7-.3 1 2.6-.7.3ZM1524.4 267.2l-9.7 6.8-.5-.7 4.6-3.2-19.4 7-.3-.8 25.3-9.1ZM1519.4 267l-23-3.3.1-.8 23 3.4v.8ZM1545.7 315.4l-15.6 13.5-.3-.3 15.6-13.6.3.4ZM1544 309.3l-24.5 5.5v-.4l24.5-5.5v.4Z" clip-rule="evenodd"/><path fill="#5C5F63" fill-rule="evenodd" d="m1544 312-16-1v-.4l16 1v.4Z" clip-rule="evenodd"/><path fill="#252E36" d="m1540.5 309.9 3.4 6.8 2.9-2.1-2.8-7.3-3.5 2.6Z"/><path fill="#5C5F63" fill-rule="evenodd" d="m1544.1 307 3 7.7-3.3 2.3-3.5-7.2 3.8-2.8Zm-3.4 3 3.3 6.5 2.6-2-2.6-7-3.3 2.4Z" clip-rule="evenodd"/><path fill="#252E36" d="m1518.4 265.9 3.4 6.7 3-2.1-2.9-7.2-3.5 2.6Z"/><path fill="#5C5F63" fill-rule="evenodd" d="m1522 263 3 7.5-3.3 2.4-3.5-7 3.8-2.9Zm-3.3 3 3.2 6.3 2.7-1.9-2.7-6.8-3.3 2.4Z" clip-rule="evenodd"/><path fill="#394149" d="m1491.6 257.2-2.3-4.9c-1.7-3.5-16.1-.3-32.2 7.3-16.1 7.7-27.8 16.7-26.1 20.2l1.2 2.1 36.5-17 16.9-7 2.1-.9 3.9.2Z"/><path fill="#5C5F63" fill-rule="evenodd" d="M1488.2 251c.6.3 1.1.7 1.3 1.2l2.6 5.3-4.3-.1-2.1.7-16.9 7-36.7 17.2-1.4-2.4c-.3-.5-.2-1.1 0-1.8.2-.6.6-1.3 1.1-2 1.2-1.5 3-3.3 5.4-5 4.7-3.7 11.7-8 19.7-11.7 8-3.9 15.8-6.6 21.6-7.9 3-.7 5.4-1 7.3-.9 1 0 1.8.2 2.4.4Zm-9.6 1.1c-5.8 1.3-13.4 4-21.4 7.8-8 3.8-15 8-19.7 11.6a28.7 28.7 0 0 0-5.2 5c-.5.6-.9 1.3-1 1.8-.2.6-.2 1 0 1.3l1 2 36.3-17 16.9-7 2.2-.9 3.4.2-2.1-4.5c-.2-.3-.5-.6-1-.8l-2.2-.4c-1.8 0-4.3.2-7.2.9ZM1523.6 210l22.4 100-29.6-42 7.2-58Zm0 2.4-6.8 55.4 28.4 40.3-21.5-95.7Z" clip-rule="evenodd"/><path fill="#394149" d="m1523.6 211.3 61.5-18.8 16 92.2-55.5 24.4-22-97.8Z"/><path fill="#5C5F63" fill-rule="evenodd" d="m1585.3 192.2 16 92.6-55.9 24.6-22-98.3 61.9-18.9Zm-61.4 19.2 21.8 97.4 55.2-24.2-16-91.9-61 18.7Z" clip-rule="evenodd"/><path fill="#394149" d="m1586.2 191.6 16.7 93 70.4-29.5-11.8-87.2-75.3 23.7Z"/><path fill="#5C5F63" fill-rule="evenodd" d="m1661.7 167.6 11.9 87.6-70.8 29.8-16.8-93.6 75.7-23.8Zm-75.3 24.1 16.7 92.7 70-29.5-11.7-86.7-75 23.5Z" clip-rule="evenodd"/><path fill="#394149" d="m1662.8 168 11.8 86.6 59.5-25.2-7.8-81.2-63.5 19.7Z"/><path fill="#5C5F63" fill-rule="evenodd" d="m1726.4 148 7.9 81.6-59.9 25.3-11.9-87.1 64-19.9Zm-63.4 20 11.7 86.3 59.2-25-7.8-80.8L1663 168Z" clip-rule="evenodd"/><path fill="#394149" d="m1727.5 148.2 7.8 81 51-21.8-5.3-76.1-53.5 17Z"/><path fill="#5C5F63" fill-rule="evenodd" d="m1781.2 131 5.4 76.6-51.5 21.8-7.8-81.3 54-17.1Zm-53.5 17.4 7.8 80.4 50.7-21.5-5.4-75.7-53 16.8Z" clip-rule="evenodd"/><path fill="#5C5F63" d="m1585 192.5.8 4.1 3 17.6 3 17.4 2.9 15.5 2.3 13 2.1 12.4 1.8 10.3.3 1.4c.2.6 0 .8-.4 1l-28 12.1-26.8 12-.6.3-22-98.2c20.3-6.2 40.9-12.5 61.6-19Zm-54.6 24.3c1.7-.7 3.3-1.1 4.9-1.6l-1.4-6.4-5 1.5 1.5 6.5Zm9-9.7-4.6 1.4c-.3.2-.3.3-.3.6l1.3 5.5.1.5 4.6-1.4c.3-.2.3-.3.3-.6l-.8-3.5c-.3-.8-.4-1.5-.6-2.5Zm-14.2 11.3c1.6-.4 3.2-1 4.7-1.5l-1.4-6.4c-1.2.3-2.4.8-3.5 1-1.2.5-1.2.5-1 1.7.4 1.9.7 3.6 1.2 5.2Zm16-5 4.7-1.5.1-.5-.6-3c-.1-1-.5-1.9-.6-3l-5 1.6 1.5 6.4Zm10-3.2c-.4-2.1-.9-4.1-1.2-6.3l-4.7 1.6 1.3 6.2c1.6-.4 3.1-.9 4.6-1.5Zm-.9-6.4c.5 2.1 1 4.1 1.3 6.2l4.7-1.5-1.2-6.2-4.8 1.5Zm6.5 4.7 4.3-1.4c.1 0 .3-.3.1-.4l-.6-3.2-.5-2.6-3.5 1c-1.2.4-1.2.4-1 1.6.6 1.5.9 3.2 1.2 5Zm-21.2 7.3-4.6 1.6c-.3.1-.3.3-.3.6.3 1.7.8 3.3 1 5 0 .2.2.2.2.3l4.6-1.5c.2 0 .3-.3.3-.5 0-.4-.1-.9-.3-1.3l-.9-4.2Zm2.6 12.2-1.2-5.8c-1.6.5-3 1.1-4.5 1.4-.4.2-.4.3-.3.6l1 4c0 .5 0 .8.3 1.2 1.5-.3 3-.9 4.7-1.4Zm23.6-21.2 4.3-1.3c.2 0 .2-.3.2-.5l-.8-4.1-.3-1.7c-1.2.3-2.3.8-3.5 1-1.1.4-1.1.4-1 1.4l.2.8c.5 1.5.8 2.9 1 4.4Zm-24.5 14.7 4.4-1.4c.3-.1.3-.3.3-.6l-1-4.7-.2-.6-4.6 1.5-.1.4.4 2.3.8 3Zm-12-2.3 1.4 5.8 4.8-1.5c-.5-2-1-3.8-1.3-5.8-1.7.4-3.4.9-4.9 1.5Zm13 9.5-4.5 1.5c-.2 0-.2.3-.2.4l.8 3.4.4 2c1.7-.6 3.3-1 5-1.7-.7-2-1.1-3.8-1.4-5.6Zm3.9-8.1-4.5 1.3c-.4.2-.4.3-.3.7l1.1 4.7.2.4a42 42 0 0 1 3.3-1c.5-.2 1.1-.2 1.4-.6.2-.3-.1-1-.1-1.4-.5-1.4-.8-2.8-1.1-4.1Zm28-23-4.5 1.4c.4 2.2.7 4.2 1.2 6.2l4.1-1.4c.2 0 .3-.3.3-.5l-1-5.6Zm-42.1 33.7h.1l4.2-1.4c.3-.2.3-.3.3-.6-.3-1.7-.8-3.2-1-5 0 0-.3 0-.3-.4l-4.7 1.6 1.4 5.8Zm12.9 9.3-1.3-5.7c-1.5.6-3 1-4.6 1.5l-.1.5.9 4.6.2.7c1.6-.6 3.2-1.2 4.9-1.6Zm1.5-20.8 4.6-1.5c.2 0 .2-.3.2-.3l-1.1-5.4-.2-.1-4.4 1.4c-.2 0-.3.3-.2.3l1.1 5.6Zm5-1-4.2 1.5c-.5.1-.5.3-.3.6l.9 4.6.1.6h.2c1-.3 2-.6 3-1.1.5-.2 1.3-.3 1.4-.6.2-.3-.1-1-.1-1.5l-1-4Zm-7.5 15.4.5-.2 3.8-1.4c.5-.1.5-.3.4-.6l-1.1-4.6-.2-.4c-1.5.4-3 1-4.4 1.5-.2 0-.2.3-.2.5l.3 1.8 1 3.4Zm-11.8-2.2c.5 2 1 3.8 1.3 5.7l4.4-1.6c.2 0 .3-.3.2-.4l-.8-3.7c-.2-.4-.3-1-.3-1.7l-4.8 1.7Zm43.6-28.2c1.4-.5 2.8-1 4-1.2.3-.2.4-.3.3-.7l-.8-3.8-.3-1.8-4.4 1.4 1.2 6Zm-30.4 36.6c1.6-.4 3-1 4.3-1.5.5-.2.5-.3.3-.8l-.9-4.6-.1-.4c-1.6.4-3.1 1-4.5 1.5-.2 0-.2.3-.2.3.2 1.8.7 3.7 1.1 5.5Zm-.3.8c-1.5.6-3 1-4.6 1.7l-.1.4.4 2.3.6 2.9c1.6-.6 3.1-1 4.6-1.7.2 0 .2-.3.2-.4-.3-1.7-.8-3.5-1-5.2Zm6.8-23 4.4-1.6c.2 0 .3-.3.2-.5-.2-.9-.3-1.8-.7-2.7l-.4-2.4h-.2l-3.6 1.2c-1 .3-1 .3-.8 1.2l1 4.7Zm-17 25.9c1.6-.6 3.2-1 4.8-1.7l-1.2-5.7-4.4 1.6c-.2 0-.2.3-.2.3.2 1.8.6 3.5 1 5.5Zm17.9-19-4.5 1.6-.1.4 1 4.6v.6c1.6-.4 3-1 4.5-1.5.2 0 .3-.3.3-.3l-1.2-5.4Zm-5.2 27.7-1.3-5.5c-1.5.6-3 1-4.4 1.7-.3.1-.3.3-.3.6.3 1.5.8 3.2 1 4.7 0 .2.2.2.2.3a160 160 0 0 0 4.8-1.8Zm9-35.6-4.7 1.5c.4 2 .7 3.9 1.2 5.7l4.8-1.5-1.3-5.7Zm24.1-15 4.1-1.3c.2 0 .4-.3.2-.5-.2-1-.3-2.1-.6-3l-.5-2.6-4.4 1.3 1.2 6.2Zm-20 7-4.9 1.6 1.3 5.6a42 42 0 0 1 3.4-1c1.2-.5 1.2-.5 1-1.7v-.2l-.9-4.2Zm-10.2 29.4c1-.3 2-.8 3-1 .5-.2 1.4-.4 1.6-.7.1-.5-.2-1-.2-1.7l-.7-3.8-4.6 1.5c-.2 0-.2.3-.2.3.3 1.7.8 3.5 1 5.4Zm-3.8 8 4.4-1.8c.2 0 .2-.3.2-.4l-.3-1.7c-.4-1.2-.5-2.3-.8-3.5-1.5.6-3 1-4.6 1.7-.2 0-.2.3-.2.4l.5 2 .8 3.2Zm-10.3 3.6 4.3-1.5.1-.5-.6-3-.5-2-3.6 1.2c-1.1.3-1.1.3-.8 1.4.3 1.3.8 2.9 1 4.4Zm22-27.5 4.2-1.5c.2 0 .3-.3.2-.5-.2-.9-.3-2-.7-2.9l-.4-2.3-4.5 1.6-.1.4.4 2.3.8 3Zm-11.6 24.4 1.2 5.5 4.3-1.5c.3-.2.5-.3.3-.6l-.9-4.6-.1-.5-4.8 1.7Zm-3.8 8.1c.4 1.8.7 3.7 1.2 5.5l4.1-1.5c.5-.2.7-.3.5-1l-.3-1.2-.8-3.6a160 160 0 0 0-4.7 1.8Zm11.5-24.7c1.5-.6 3-1 4.6-1.7a71 71 0 0 1-1.1-5.5l-4.3 1.4c-.3.1-.5.3-.3.6l.5 2 .6 3.2Zm-16.8 26 4.2-1.6c.5-.1.5-.3.3-.8l-1-4v-1c-1.6.6-3.1 1-4.7 1.7l1.3 5.6Zm14.2-11.8 4.4-1.5c.2 0 .3-.3.2-.5l-.5-2.3-.6-2.7-4.8 1.6 1.3 5.4Zm-3 14.6-4.4 1.7c-.2 0-.3.3-.2.5l1.1 4.9.2.1 4.6-1.8c-.3-1.7-.8-3.5-1.3-5.4Zm16.8-51.7-4.3 1.4c-.2 0-.3.3-.2.4l.5 2.5.6 2.7 4.6-1.5c-.6-1.7-1-3.5-1.2-5.5Zm-10 29.1 4.6-1.6c-.5-1.9-.8-3.7-1-5.5-1.6.4-3 1-4.4 1.5-.1 0-.3.3-.1.5.1.6.1 1.2.3 1.6.1 1.3.3 2.3.6 3.5Zm1 7h-.4l-4.1 1.4c-.3.2-.3.3-.3.7l.7 3.6.3 1.4c1.1-.5 2.2-.8 3.1-1 .5-.2 1.2-.4 1.4-.7.1-.4 0-1-.2-1.5 0-1.4-.3-2.8-.6-4Zm1.6-20.4c.5 1.8.8 3.7 1 5.5l4.7-1.5c-.3-1.8-.8-3.7-1-5.5l-4.7 1.5Zm-9 35.3 4.1-1.6c.3-.1.5-.3.5-.7l-1-4.6-.1-.3c-1.5.6-3 1-4.3 1.7-.2 0-.3.3-.3.4.5 1.7.8 3.4 1 5Zm17.5-44.7-4.3 1.3c-.4.2-.4.3-.4.6l1 4.8.1.3 4.3-1.4c.3-.2.3-.3.3-.5-.3-1.2-.4-2.6-.8-3.8 0-.4-.1-.9-.3-1.3Zm-24.3 41.5c-1.4.4-2.8 1-4.1 1.5-.3.1-.5.3-.3.6l1 4.6c0 .1.2.1.2.3 1.4-.6 2.9-1 4.3-1.7l.1-.3c-.4-1.7-.7-3.4-1.2-5Zm46.2-62.2c-1.4.5-2.8.8-4 1.3-.2 0-.2.3-.2.4l.5 2.5c.2 1 .5 2.1.6 3.2 1.4-.5 2.8-1 4-1.2.2 0 .2-.4.2-.5 0-.5-.2-1-.3-1.4-.4-1.4-.5-2.7-.8-4.3Zm-24.4 34.7-3.8 1.4c-.8.3-.8.3-.7.9l.2.7.8 4c1.5-.6 3-1 4.6-1.7l-1.1-5.3Zm-13.7 36.8 3.6-1.4c1-.5 1-.5.9-1.5l-1-4.3c-1.5.6-3 1-4.4 1.7l-.1.3 1 5.2Zm-3.8 8 4.8-2-1.3-5.3-3.6 1.4c-1 .3-1 .3-.8 1.4l.9 4.4Zm24.9-61.1-1.1-5.5-.5.1c-1.2.5-2.4.8-3.7 1-.4.2-.4.4-.3.7l1 4.6.1.4c1.5-.3 3-.7 4.5-1.3Zm-14.8 31.3c1.6-.7 3.1-1.1 4.6-1.7l-1-5.5c-1.6.4-3 1-4.3 1.5-.2 0-.4.3-.4.3.5 1.8.8 3.5 1.1 5.4Zm-13 18.4c-1.5.6-3 1-4.3 1.7-.2 0-.3.3-.2.5l1.1 4.7c0 .1.2.1.2.3l3-1.2c.5-.2 1.3-.3 1.4-.6.2-.3-.1-1-.1-1.6-.5-1.2-.8-2.4-1.1-3.8Zm14.1-11.7-4.5 1.6-.1.5.3 1.8.8 3.2 4.4-1.6c.2 0 .2-.3.2-.5l-.3-1.5-.8-3.5Zm10.3-30.3 4.3-1.3.1-.6c-.1-1.3-.4-2.5-.7-3.7l-.3-1.4-4.3 1.4c-.2 0-.2.3-.2.5l.5 2c.3 1 .4 2 .6 3.1Zm-16.7 52-4.3 1.6c-.3.2-.3.3-.3.6l.9 4 .1 1 3.4-1.5c1.2-.4 1.2-.4 1-1.8a46 46 0 0 0-.8-4ZM1564 220c-1.6.4-3 .9-4.3 1.5-.2 0-.3.3-.2.4l.6 3 .5 2 3.8-1.1c1-.3.8-.2.6-1.1l-.1-.8-1-4Zm-6.3 21.8c-1.5.4-3 1-4.3 1.5-.3.2-.3.3-.3.5l1 4.7c0 .2.2.2.2.3 1.5-.6 3-1 4.5-1.7l-1.1-5.3Zm-2.5 13.7c-1.5.6-2.9 1-4.4 1.7-.2 0-.2.3-.2.5l.8 3.6.3 1.2c1.5-.6 3-1 4.3-1.6.2 0 .3-.3.2-.5l-1-4.9Zm6.3-21.7-4.3 1.6c-.1 0-.3.3-.1.4a185.3 185.3 0 0 1 1 5c1.6-.4 3-1 4.3-1.5.2 0 .3-.3.2-.3a50 50 0 0 1-1-5.2Zm3.7-7.7c-1.5.6-3 1-4.6 1.5.3 1.8.8 3.7 1 5.5l4.4-1.5.1-.5-.3-1.8c-.1-1.1-.3-2-.6-3.2Zm-17.3 44.5c1.5-.6 2.9-1.2 4.4-1.6.2 0 .2-.4.2-.5l-.7-2.8-.4-2-4.5 1.6-.1.4.6 2.8.5 2.1Zm20.2-59.2 4.2-1.4c.3-.1.4-.3.3-.6l-.5-2.3-.5-2.7-4.3 1.4-.1.4.5 2.2c0 1 .3 2 .4 3Zm-5.3 28.6-4.3 1.5c-.2 0-.2.3-.2.4l1 4.8v.1h.2l3-1c.4-.2 1-.4 1.3-.7.2-.3 0-.9-.1-1.5-.5-1-.8-2.3-1-3.6Zm-21.5 27.4-3.7 1.4c-1 .3-1 .3-.6 1.4l1 4.4 3.1-1.2c.5-.2 1-.3 1.2-.6.2-.3-.1-1-.1-1.4-.5-1.4-.8-2.6-1-4Zm24.2-42c1.5-.4 3-.9 4.3-1.5.2 0 .2-.3.2-.4l-.5-2.3-.6-3-4.3 1.5c-.2 0-.3.3-.2.3l1.1 5.5Zm-12.9 43.9c-1.5.6-2.9 1.2-4.3 1.6l-.1.5a28.5 28.5 0 0 1 1 5l4.3-1.8c.2 0 .2-.3.2-.3a77 77 0 0 0-1-5Zm-2.6 13c-.5-1.7-.8-3.4-1-5.1l-4.3 1.8c-.2 0-.2.3-.2.5l.6 2.7.5 2.2c1.4-.8 2.9-1.4 4.4-2Zm10-29.2c-.3-1.9-.8-3.5-1-5.4l-4.4 1.7-.1.5.4 2.6.5 2.4 4.6-1.8Zm12.7-42.5c-1.4.5-2.6 1-3.8 1.3-.5.1-.6.3-.6.9l.9 4.7h.1l2.8-.9c.5-.2 1.2-.3 1.4-.6a40 40 0 0 0-.8-5.3Zm-19.8 58 4.3-1.6c.2 0 .2-.3.2-.5l-.6-2.7-.5-2-4.6 1.8c.5 1.5 1 3.2 1.2 5Zm-1.7 19.6-1-5.2-4.3 1.8c-.2 0-.3.5-.2.6.2 1 .3 1.9.6 2.6l.5 2.2c1.5-.8 3-1.4 4.4-2Zm-12-7.8c1.6-.6 3-1 4.4-1.7l.1-.4-.6-3-.4-2c-1.4.7-2.8 1.1-4 1.6-.5.2-.7.3-.5.8v.3l1 4.4Zm31-56c-1.6.4-3 .9-4.4 1.5l-.1.5.4 2.4.5 2.6 4.1-1.5c.2 0 .3-.3.2-.5 0-1.5-.5-3.2-.8-5Zm-13.4 36.3 4.6-1.7-1.1-5.3-3.7 1.4c-1 .3-1 .3-.8 1.3l1 4.3Zm9.6-28.5c-1.5.4-2.9 1-4.3 1.5l-.1.5.6 2.7.5 2.3 4.3-1.5.1-.5-.3-1.5-.8-3.5Zm6.6-22.3 4.5-1.4c-.3-1.8-.6-3.7-1.1-5.5l-4.1 1.4c-.2 0-.3.3-.3.4l1 5Zm-9.2 36c-1.5.6-3 1-4.6 1.7.3 1.8.8 3.5 1 5.3 1.6-.6 3-1 4.4-1.7l.1-.3c-.1-1.6-.4-3.3-.9-5Zm-6.1 21.4c-1.4.4-2.6 1-3.9 1.5-.9.5-.7.3-.6 1.2l1 4.3h.1c1.4-.6 2.8-1 4-1.7.2 0 .3-.3.2-.4l-.5-2.2-.3-2.7Zm-3.9 8-4.3 1.6c-.3.1-.3.3-.1.6l.8 3.4c.1.4.1.9.3 1.3l4.3-1.8.1-.3-1-4.9Zm11.3-23.4c-1.6.6-3 1-4.3 1.6-.2 0-.2.3-.2.5l1 4.4v.5c1.5-.6 2.8-1 4.2-1.7.2 0 .2-.3.2-.3-.2-1.7-.7-3.4-1-5Zm5.3-28.3 4.2-1.4c.1 0 .3-.3.1-.4l-.5-3-.4-2-4.1 1.3c-.2 0-.2.3-.2.3l1 5.2Zm-6.3 21.5c1.4-.6 3-1 4.3-1.5.2 0 .2-.3.2-.4a9 9 0 0 1-.3-2l-.6-3c-1.6.4-3 1-4.3 1.4-.2 0-.2.4-.2.4l1 5.1Zm13.4-36.1-4.2 1.3-.1.5c.1 1.2.4 2.6.7 3.8l.3 1.2c1.6-.4 3-.9 4.5-1.5-.5-1.7-.8-3.3-1.2-5.3Zm-29.5 86.8 4.3-1.8c.2 0 .2-.3.2-.5l-.5-2.1c-.2-1-.5-1.7-.6-2.6l-4.3 1.8-.3.3c.5 1.6.8 3.2 1.2 5Zm7-15c-1.5.7-2.8 1.3-4.2 1.7-.3.2-.3.3-.2.6l1 4 .1.8 3.5-1.5c1-.5 1-.5.8-1.6l-1-4Zm-14.5 5.6 4.3-1.9c.2 0 .2-.3.2-.4-.2-.5-.2-1.1-.3-1.6-.4-1-.5-2.1-.8-3.3l-3.2 1.2c-1.4.5-1.4.5-1 2l.8 4Zm31.1-56.7 4.2-1.5.1-.5c-.1-1.2-.4-2.6-.7-3.8l-.3-1.2-4.2 1.4-.1.4c0 .5.1 1.1.3 1.6l.7 3.6Zm-3.6 7.7 4.1-1.6c.2 0 .2-.3.2-.4l-.5-2.2a17 17 0 0 0-.6-2.7l-.5.1-3.7 1.4-.1.5.3 1.8.8 3Zm9.8-29c1.2-.3 2.1-.8 3.2-1.1 1-.3 1-.3 1-1.5l-.2-.8c-.2-1.2-.5-2.4-.6-3.7l-4.5 1.4c.5 2 .8 3.7 1 5.7Zm-15.4 56.4-1-5.2h-.2l-3.5 1.4c-1 .5-1 .2-.6 1.2l.9 4.5 4.4-1.9Zm-3.5 8.4-4.3 1.7-.1.5.7 3.6.3 1.1 4.3-1.8c.2 0 .2-.3.2-.3-.5-1.6-.8-3-1-4.8Zm-9.7 28.3 3.3-1.4c1.2-.6 1.2-.6.9-1.8a27 27 0 0 1-.8-3.9l-4.3 1.9-.1.4 1 4.8Zm-7.3-9.3c1.4-.7 2.8-1.3 4.1-1.7.2 0 .2-.3.2-.5l-.3-1.2-.8-3.7c-1.4.6-2.8 1.3-4.1 1.7-.2 0-.2.3-.2.3l1 5Zm26.8-48.1-4.1 1.5c-.2 0-.2.3-.2.5.2 1.2.5 2.2.6 3.5.2.4.2.9.3 1.3l4.2-1.5c.2 0 .3-.3.3-.4l-.3-1.6-.8-3.3Zm3.7-7.7-4.1 1.6c-.2 0-.2.3-.2.4l.8 4 .1 1 3.3-1.2c1.2-.4 1.2-.4.9-1.6l-.8-4.2Zm10-29-4.2 1.4c-.1 0-.3.3-.1.5l.3 1.8.6 3.2 4.2-1.4.1-.3-1-5.2Zm-3.7 7.7-4.1 1.3c-.2 0-.2.4-.2.4l1 5.1c1.5-.4 2.8-1 4.4-1.5a53 53 0 0 1-1.1-5.3Zm-19.5 57.4 3.2-1.4c1.3-.5 1.3-.5 1-1.8-.4-1.3-.5-2.6-.8-4l-3 1.2c-1.5.6-1.5.6-1.1 2 .1 1.4.4 2.6.7 4Zm-2.9 14.2-4.3 1.8c-.2 0-.2.3-.2.4l.7 2.8.4 2c1.6-.6 3-1.2 4.3-1.9.2 0 .2-.3.2-.3a57 57 0 0 0-1.1-4.8Zm3.8-7.8-4.3 1.8-.1.5.5 2.1c.1 1 .3 1.7.6 2.7l4.3-1.8.1-.4c-.5-1.6-.8-3.2-1-5Zm9.9-28.9-4.2 1.6-.1.4.4 2c.2 1 .5 1.8.6 2.9 1.4-.6 2.8-1 4.2-1.7l.1-.4-.3-1.9c-.4-.9-.6-1.8-.8-2.9Zm-7.1 14.7c1.4-.6 2.8-1 4.1-1.7.2 0 .2-.3.2-.5a111.2 111.2 0 0 1-1-4.8l-4.2 1.6c-.2 0-.2.3-.2.3.3 1.7.6 3.4 1.1 5Zm13.2-35.9-4 1.4c-.5.1-.5.3-.5.7l1 4.5.1.4c1.4-.4 2.8-.9 4-1.5.2 0 .3-.3.2-.5l-.5-2.4c0-1-.2-1.7-.3-2.6Zm-29.6 62.1-4.2 1.9-.1.6 1 4.2v.4c1.5-.7 2.8-1.3 4-1.7.2 0 .4-.3.2-.5l-1-4.9Zm33.3-69.7-4.2 1.4-.1.4.6 3.2.3 1.8c1.5-.4 3-1 4.3-1.5l-1-5.3Zm-15.8 49.3c1.3-.6 2.7-1 4.1-1.7.2 0 .2-.3.2-.5l-.3-1.3-.8-3.5h-.2l-2.9 1c-1.3.6-1.3.6-1 2 .4 1.4.7 2.6.9 4Zm-6.5 21.8-4.1 1.8c-.2 0-.3.5-.2.6.2 1 .5 1.9.6 3l.5 1.8 4-1.7c.5-.2.6-.3.5-.8 0-.1 0-.3-.2-.3-.5-1.5-.8-2.9-1-4.4Zm16.1-50h-.3l-3.6 1.5c-.4.1-.4.3-.4.6l1 4.4.1.3c1.4-.4 2.8-1 4-1.5.3-.2.3-.3.2-.6l-.8-4c-.2 0-.2-.3-.2-.6Zm.3-.7 3.9-1.3c.4-.2.4-.3.4-.8l-.4-2.3-.5-2.4c-1.4.4-2.7 1-4.1 1.5-.2 0-.2.3-.2.4l.3 1.9.6 3Zm-9.2 34.7-1-5.2-4.3 1.7c-.2 0-.2.3-.2.4l.6 3.2c.2.5.2 1.1.3 1.6 1.7-.5 3.3-1.1 4.6-1.7Zm15.4-55.9 4.1-1.4c.2 0 .2-.3.2-.4a9 9 0 0 1-.3-2c-.2-1-.3-2-.6-2.9l-4.2 1.4-.1.4.9 5Zm-32.4 76.2-4.1 1.8c-.2 0-.2.3-.2.5l.6 3 .5 1.7 4.1-1.8c.2 0 .2-.3.2-.5-.3-1.5-.8-3-1-4.7Zm10.1-5 4.2-1.9.1-.4-.9-4.3-.1-.3a47 47 0 0 1-4.2 1.7l-.3.4c.6 1.5 1 3 1.2 4.7Zm17-43.4-4.2 1.5c-.2 0-.2.3-.2.5l.3 1.7c.2 1 .5 2 .6 3.2l4.2-1.6.1-.3-.9-5Zm-7.1 14.5c1.3-.6 2.7-1 4-1.7.3 0 .4-.3.3-.4-.2-.7-.4-1.4-.4-2l-.6-3c-1.3.7-2.7 1.1-4.1 1.8-.2 0-.3.3-.2.3l1 5Zm13.5-36.3 4-1.4v-.5c0-1-.2-2.1-.5-3.2l-.3-1.8-4 1.4c-.2 0-.3.3-.3.4l1 5Zm-16.3 50.5c-1.4.6-2.8 1-4.2 1.7l-.3.4c.2 1 .3 1.9.7 2.8l.4 2 4.2-1.9.1-.3c-.1-1.4-.6-3-1-4.7Zm12.6-42.9 3.8-1.4c.3-.1.5-.3.3-.6l-.4-2.4-.5-2.5-3.8 1.4c-.5.2-.7.3-.5.8l.1.9c.5 1.2.8 2.4 1 3.8Zm-18.4 63.2 3.2-1.4c1.2-.4 1.2-.4 1-1.8-.4-1.2-.5-2.5-.9-3.8l-4.3 1.8-.1.5c.5 1.5.8 3.2 1 4.7Zm6.1-21 .6-.2c1-.3 1.7-.8 2.6-1 1.3-.6 1.3-.6 1-1.8-.4-1.2-.5-2.6-.8-3.8-1.4.6-2.8 1-4.2 1.7l-.1.3.9 4.7Zm13.2-35.6-4.2 1.5-.1.4.3 1.7.6 3.2 4.2-1.5.1-.5c0-.4-.1-.9-.3-1.3-.2-1.2-.5-2.3-.6-3.5Zm4.1-34h.2c1-.2 2.1-.5 3.2-1 .8-.3.8-.3.6-1-.3-1.6-.4-3.1-.8-4.6-1.3.4-2.5.9-4 1.2v.4l.8 5Zm-13.6 61.9c1.4-.6 2.7-1 4.1-1.7.2 0 .2-.3.2-.4l-.3-2a18 18 0 0 0-.6-2.8c-1.4.6-2.8 1-4.2 1.7l-.1.5c.1 1.5.6 3 .9 4.7Zm13-35.6a31 31 0 0 0-4 1.6c-.1 0-.3.3-.1.4l.7 4.3.2.6 4-1.5.1-.3-.9-5Zm-15.5 49 4.2-1.7c.3-.1.3-.3.1-.6l-.6-3.3c-.1-.5-.1-1-.3-1.4h-.1l-3 1.2c-1.4.6-1.4.6-1 2 .1 1.2.4 2.5.7 3.8Zm6-21 3-1.3c1.3-.6 1.3-.6 1-2l-.8-3.6c-1.3.6-2.7 1-4.1 1.7-.2 0-.2.3-.2.3.5 1.5.8 3.2 1.1 4.9Zm7-14.5-4 1.5s-.2.3 0 .4c0 .8.2 1.6.4 2.5l.4 2.4 3.4-1.2c1-.3 1-.3.8-1.4-.5-1.3-.6-2.7-1-4.2Zm-12.4 41.3-1-5-3.3 1.4c-1.2.4-1.2.4-.9 1.6l.8 3.9 4.4-1.9Zm15.2-55.4 4-1.4c.3-.1.3-.3.3-.6l-.4-2.1-.5-2.7c-1.5.4-3 1-4.3 1.5l1 5.3Zm1.4-19.5 4.2-1.4-1-5.5-4 1.4c-.1 0-.3.3-.1.4l1 5ZM1570 274l3.3-1.3c1.1-.5 1.1-.5.8-1.6l-.8-4c-1.3.7-2.7 1.1-4.1 1.8-.2 0-.2.3-.2.4l1 4.7Zm6.9-14.3c-1.4.6-2.8 1-4 1.7-.2 0-.2.3-.2.4l.5 2 .4 2.6h.2c1-.3 2-.8 2.9-1 1.2-.5 1.2-.5 1-1.9l-.8-3.8Zm-9.7 28.4h-.2l-2.9 1.2c-1.3.6-1.3.6-1 2l.7 3.7 4.3-1.9c-.1-1.7-.6-3.3-1-5Zm19.5-57-4.3 1.6.9 5.3 4.3-1.5-1-5.3Zm-3.7 7.7-4 1.4c-.3.1-.3.3-.3.6.1 1 .5 2.1.6 3.2.2.4.2 1 .3 1.7l4.3-1.7-1-5.2Zm-15.5 48.5 4.1-1.8c.2 0 .2-.3.2-.5l-1-4.2v-.3l-4.4 1.8 1.1 5Zm3.7-7.6 3.8-1.5c.5-.2.6-.3.5-.8l-.8-3.7-.1-.9c-1.1.5-2.2 1-3.3 1.2-1.2.5-1.2.5-.9 1.7l.8 4Zm6-20.8 3-1.2c1.3-.4 1.3-.4 1-1.7v-.1l-.8-3.7a45 45 0 0 1-4.2 1.5l-.1.5.5 2.3.6 2.4Zm-8.6 34c1.4-.5 2.7-1.2 4.1-1.8.2 0 .2-.3.2-.4-.2-.6-.3-1.2-.3-1.9a17 17 0 0 0-.6-2.7l-4.2 1.8-.1.5.9 4.6Zm19.3-81-4.1 1.4.9 5.3 3.3-1c.8-.3.8-.3.7-1.1l-.8-4.6Zm-3.8 32.7c-1.4.4-2.8 1-4 1.5-.2 0-.2.5-.2.6l.6 3.2c.2.5.2 1 .3 1.6l4-1.6c.2 0 .3-.3.3-.4l-1-5Zm-5.9 20c1.4-.6 2.8-1 4-1.7.2 0 .2-.3.2-.5l-.8-4.4-.1-.3-3.9 1.5c-.1 0-.3.3-.3.5a112.2 112.2 0 0 1 1 4.9Zm-3.5 7.6c1.4-.6 2.8-1 4.1-1.7.2 0 .2-.3.2-.4l-.8-4-.1-.8-4 1.7c-.2 0-.3.3-.2.5l.8 4.7Zm12.9-35-3 1c-.4.1-1 .3-1.1.6-.2.3 0 .7.1 1.2l.8 3.8 3.3-1.2c.8-.3.8-.3.7-1.2a40 40 0 0 0-.8-4.3Zm-1.8-12.6c1.2-.5 2.4-1 3.6-1.2.3-.2.5-.3.3-.6l-.4-3c-.2-.6-.2-1.2-.3-2l-3.9 1.4-.1.4c.1 1.6.5 3.3.8 5Zm-13.5 60.7 4-1.8.1-.5-.3-1.8a18 18 0 0 0-.6-2.7l-3.2 1.3c-1.1.5-1.1.5-1 1.6l1 4Zm16.4-42.5-3.7 1.3c-.5.2-.5.3-.5.8l.5 2.4.5 2.3c1.3-.4 2.5-1 3.8-1.5.1 0 .3-.3.3-.5l-1-4.8Zm-9.5 28.2h-.2c-1 .3-1.7.8-2.6 1-.5.2-1.2.4-1.4.7-.1.4 0 1 .2 1.5.1 1.2.4 2.3.6 3.5l3.2-1.4c1-.4 1-.4.8-1.3-.2-1.3-.5-2.6-.6-4Zm6-20.8-4 1.6c-.2 0-.2.3-.2.4 0 .5.2 1 .3 1.4l.6 3.3c1-.4 2.2-.7 3-1.2 1.2-.4 1.2-.4 1-1.5l-.8-4Zm-31.4 49.8-4.3 1.8-.1.5.6 3 .3 1.3c1.5-.8 3-1.4 4.5-2a24 24 0 0 0-1-4.6Zm19.5-9 4-1.7c.3-.1.3-.3.3-.6l-.6-3-.3-1.6-4 1.7-.1.3c.1 1.7.4 3.2.7 4.9Zm9.4-27.5-4 1.7c-.2 0-.3.3-.3.4 0 .7.1 1.3.3 1.7l.6 3 4-1.8c.2 0 .3-.3.2-.3l-.8-4.7Zm.3-.8 4.1-1.6-.9-5c-1 .4-2 .7-2.9 1.2-1.2.4-1.2.4-1 1.8 0 1 .4 2.3.7 3.6Zm3.8-32.2 4.2-1.5-1-5.2-3.8 1.4c-.1 0-.3.3-.1.5.1 1.5.4 3.2.7 4.8Zm-6.6 46c-1.4.6-2.7 1-4 1.7l-.1.4.3 2 .5 2.6c1.3-.6 2.7-1 4-1.7l.1-.3-.8-4.7Zm9.5-28c-1.3.7-2.7 1.1-4.1 1.7l1 5 4-1.5v-.4c0-.5 0-1-.2-1.5-.4-1.1-.5-2.2-.7-3.2Zm-6 20.7-.3.1-3.3 1.4c-.3.1-.5.3-.3.6l.7 4 .2.6c1-.5 2-1 3-1.2 1.1-.5 1.3-.5 1-1.7-.5-1.4-.8-2.6-1-3.8Zm3.3-38.2.9 5.2 3.8-1.4c.2 0 .2-.3.2-.4l-.5-2.3-.4-2.5-4 1.4Zm-5.7 51.1-4 1.7-.1.5.6 2.7.3 1.8 3.2-1.3c1-.5 1-.5.8-1.6l-.8-3.8Zm-26 22.3 4.2-1.8c.2 0 .2-.3.2-.5l-.6-3-.3-1.2-4.2 1.8-.1.4c.1 1.4.4 3 .9 4.3Zm32.1-43.5 3.9-1.5.1-.5-.4-2.4-.5-2.3c-1.4.6-2.8 1-4.1 1.7l1 5Zm-.1.8-3.8 1.5c-.2 0-.3.3-.3.5l.7 4.4.2.3 3.2-1.4c1-.3 1-.3.6-1.2-.2-1.4-.5-2.7-.6-4.1Zm-41.7 47.1 4.1-1.8c.2 0 .2-.3.2-.4l-.7-2.8-.3-1.5-4.1 1.8-.1.3.9 4.4Zm39.2-34.1-4 1.6-.1.5.8 4.3.1.3 2.8-1.3c1.3-.6 1.3-.6 1-2-.3-1-.4-2.2-.6-3.4Zm.2-.8 4.1-1.7-.9-5c-1.4.6-2.6 1-3.8 1.7-.2 0-.3.3-.3.4l.9 4.6Zm-24.9 28.4 2.8-1.2c.5-.3 1.2-.3 1.5-.8.2-.5-.1-1-.3-1.7l-.6-2.9-4.1 1.8c-.2 0-.2.4-.2.4l1 4.4Zm28.9-60.2 3.8-1.3c.2 0 .2-.3.2-.5l-.5-2.4-.5-2.5-3.6 1.4c-.4.2-.4.3-.4.6.2.6.4 1.4.4 2 .3.8.4 1.7.6 2.7Zm-3.3 38-2.9 1.3c-1.2.6-1.2.6-1 1.8.1 1.2.4 2.3.7 3.7 1.3-.5 2.3-1 3.4-1.6.8-.3.8-.1.6-1l-.1-.8c-.2-1-.3-2.1-.7-3.4Zm2.8-13.7 3.8-1.5c.4-.2.4-.3.4-.6l-.4-1.9-.4-2.7h-.2l-2.6 1c-.4.2-1 .4-1.2.7-.2.3 0 .9.1 1.3 0 1.4.4 2.5.5 3.7Zm1.5-18.6 3.9-1.5.1-.5c0-.6-.1-1-.3-1.7l-.6-3-3.8 1.3c-.2 0-.2.2-.2.4l1 5Zm-.4 24.3 2.9-1.3c1.2-.4 1.2-.4 1-1.8 0-1.2-.4-2.4-.5-3.7-1.4.7-2.8 1.1-4.2 1.7l.8 5Zm-3.5 7.3c1.3-.6 2.6-1 3.8-1.7l.1-.3c-.3-1.5-.6-3-.7-4.6h-.2l-2.4 1c-.5.2-1.3.4-1.4.9-.2.3 0 1 .2 1.5l.6 3.2Zm-17.7 14.3-3.4 1.6c-.9.4-.9.4-.7 1.3l.1.8c.2 1 .5 1.8.6 2.9l3-1.4c1.3-.6 1.3-.6 1-2l-.6-3.2Zm22-15.5c-1 .4-1.9.7-2.8 1.2-1.4.6-1.4.6-1 2 0 1.2.4 2.3.5 3.5l4.2-1.9c-.5-1.5-.6-3.2-1-4.8Zm-.8-5.7 1 4.9c1.3-.6 2.5-1 3.7-1.7.2 0 .4-.3.2-.4l-.5-3-.3-1.5c-1.4.6-2.7 1.3-4.1 1.7Zm.5-24.1.9 5 3.7-1.5.1-.4c0-.7-.1-1.1-.3-1.7l-.6-3-3.9 1.6Zm-17 43.2-3.6 1.5c-.6.2-.8.5-.6 1l.8 4 4-2v-.2c0-1.4-.4-2.8-.7-4.3Zm18.5-8.7c1.4-.6 2.6-1 3.8-1.7.2 0 .2-.3.2-.3l-.8-4.6c-1.4.6-2.8 1.3-4.1 1.7l.9 4.9Zm4.4-25.3-.9-5-4 1.4 1 5 4-1.4Zm-18.2 32-4 1.8c-.2 0-.2.3-.2.3l1 4.3a97 97 0 0 0 4-1.8l.1-.3c-.5-1.4-.6-2.8-1-4.3Zm15.2-25 3.6-1.5c.2 0 .2-.4.2-.5l-.8-4.6-3.7 1.5-.1.3.8 4.8Zm4-1-3.7 1.4c-.2 0-.2.3-.2.5l.2 1.4.6 3.2 3.7-1.6.1-.3c-.1-1.5-.4-3-.8-4.7Zm-14.8 24-3 1.4c-1.3.5-1.3.5-1 1.8.2 1.1.5 2.2.6 3.4l4-1.8c.2 0 .2-.3.2-.3l-.8-4.5Zm12.8-12 3.6-1.6c.2 0 .2-.3.2-.4l-.5-3c-.1-.5-.1-1.1-.3-1.6l-3.5 1.5c-.2 0-.3.3-.3.5l.8 4.6Zm-11.4 16.3 4-1.8c.2 0 .2-.3.2-.5l-.7-2.9-.3-1.2c-1.3.6-2.6 1-3.8 1.7-.2 0-.3.3-.2.3.2 1.7.5 3 .8 4.4Zm15.3-17.4c-.9.5-1.8.8-2.9 1.2-.9.5-.9.5-.7 1.5l.1.8.6 3c1.3-.4 2.3-1 3.6-1.5l.3-.4c-.5-1.5-.7-3-1-4.6Zm-7.6 9.2-3.9 1.6-.1.3.8 4.3c1.3-.6 2.6-1 3.8-1.7l.1-.4c-.1-1.2-.4-2.6-.7-4.1Zm.3-.2.8 4.4 3.8-1.6.1-.4c-.1-1.3-.4-2.7-.7-4.2l-4 1.8Zm5.2 2.6c.8-.3 1.5-.8 2.3-1 .5-.2 1-.4 1.2-.7.2-.3 0-.9-.1-1.5l-.5-2.9-3.5 1.5c-.2 0-.2.3-.2.3l.8 4.3ZM1602.6 285.1l-16.8-93.4 75.6-23.8.4 3.5 1.6 10.9 1.5 11.4 1.4 10.7 1.2 9.1 1.2 9.2c.3 2.4.6 5 1.1 7.5l1 7.5 1.2 8.2 1 7.3c.2.6.2 1.3.3 1.9 0 .4-.1.6-.4.7l-31.6 13.3-38 16h-.7Zm-2.4-90.6c-.3-2-.6-4-1.1-6l-5.8 1.8c-.3.2-.3.4-.2.7l1 4.8v.7l6-2Zm.4-.2 5.7-1.8c.3-.2.3-.3.2-.6l-.8-4.6-.2-1-6 2c.5 2 .8 4 1.1 6Zm-14-1.7c.2 2 .7 4 1 6l5.7-1.8.1-.5-.9-5.2-.2-.3-5.8 1.8Zm20.6-.4 5.7-1.9c.2 0 .2-.3.2-.4l-.7-3.8c-.1-.5-.1-1.1-.3-1.6l-5.6 1.9c-.2 0-.3.3-.2.4l.2 1.4c.3 1 .4 2.5.7 4Zm11.4-9.8h-.2c-1.8.6-3.5 1-5.3 1.7-.3.1-.3.1-.3.4.3 1.7.6 3.4.7 5l.2.5a60 60 0 0 1 4.9-1.5c.9-.3.9-.3.8-1.2l-.8-4.9Zm6.3-2.1-5.9 1.8 1 5.7h.1l5.4-1.9.1-.3c-.1-1.7-.4-3.5-.7-5.3Zm6.3-2h-.4c-1.6.6-3.3 1-5 1.7-.3.1-.5.3-.3.6.3 1.4.4 2.9.8 4.3l.1 1 5.4-1.8c.1 0 .3-.3.3-.5l-.2-1.2c-.3-1.4-.6-2.7-.7-4.1Zm-31 16.8-5.7 1.8c-.3.2-.3.3-.3.6l.6 3 .3 1.8h.2l5.6-1.9c.2 0 .2-.3.2-.4l-.5-3-.4-2Zm1 6h-.1l-5.5 1.8c-.3.1-.3.3-.3.6.3 1.2.4 2.6.6 3.8l.1 1 5.9-2 .1-.4c0-.6-.1-1.2-.3-1.7 0-1-.3-2.1-.5-3.2Zm1.1 5.9-5.7 2c-.3.1-.3.3-.3.4l.7 3.4.3 1.5 6-2.1-1-5.2Zm30.2-23.2h.3c1.7-.6 3.4-1 5.1-1.7.3-.1.3-.3.3-.6l-.8-4.9-.1-.3-5.5 1.8c.1 1.9.4 3.9.7 5.7Zm-25.7 9.1h-.3l-5.4 1.9c-.3.1-.3.3-.3.6l.5 2.6.4 2.3a62 62 0 0 0 5.8-2.3c-.1-1.7-.4-3.4-.7-5Zm-3.6 19.9c-2 .6-3.8 1.4-5.6 2-.2 0-.2.3-.2.4l.5 3c.1.5.3 1.3.3 2h.1l5.5-2c.2 0 .4-.4.4-.5l-1-5Zm-.4-6.6 4.6-1.5c1.2-.5 1.4-.5 1-1.8-.1-1.4-.4-2.6-.6-4h-.1l-5.5 1.8c-.3.2-.3.3-.3.5l.4 2.6.5 2.4Zm-9.2-8.8h-.3l-5.4 1.8c-.2 0-.3.3-.2.5l.3 1.8.7 3.2 5.6-1.8c.2 0 .2-.2.2-.3l-1-5.2Zm-3.9 13h.5c1.5-.7 3.2-1.1 4.8-1.7.4-.2.4-.3.4-.8-.3-1.4-.4-2.9-.8-4.3l-.1-.4-5.5 1.8c-.2 0-.2.3-.2.5l1 5Zm53.7-36-5.3 1.6c-.2 0-.2.3-.2.5l.5 3.2.3 2.1 5.3-1.7c.2 0 .2-.3.2-.4l-.2-1.3c-.3-1.2-.4-2.6-.6-4Zm-44.2 51.5 5.7-2.1c.2 0 .2-.3.2-.6l-.3-2.2-.5-2.6c-1.7.6-3.2 1.3-4.9 1.7-1 .5-1 .5-1 1.5.4 1.6.5 3 .8 4.3Zm14-35.1-5.7 1.8c-.1 0-.3.3-.1.6.3 1.6.4 3.1.8 4.6l.1.3 5.5-1.8c.2 0 .2-.3.2-.3l-.8-5.2Zm-9.5 21.2 5.7-2 .1-.4c-.1-1-.3-2.2-.6-3.2-.1-.5-.1-1.1-.3-1.6l-5.7 2-.1.5.4 2.7c.3.5.3 1.3.5 2Zm10.6-15.2h-.2l-5.5 1.8-.1.4.4 3.3.3 1.6 5.8-2-.7-5.1Zm-9 27.6-5.6 2.1-.1.5c0 .6.1 1 .3 1.7l.6 3h.1l5.6-2 .1-.4c-.5-1.6-.8-3.2-1-5Zm4.5-14c-2 .7-3.6 1.5-5.5 2-.3.2-.3.4-.3.7l.5 2.9.3 2 .6-.2 3.8-1.4c.5-.1 1.1-.3 1.4-.6.2-.3 0-.9-.1-1.5-.4-1.2-.5-2.4-.7-3.8Zm-14-1.3-5.6 1.9c-.2 0-.3.3-.2.4l1 4.9h.1l5.4-1.8c.1 0 .3-.3.1-.5l-.9-4.9Zm-4 13.3c2-.6 3.8-1.4 5.6-2 .3-.1.3-.3.3-.6l-.4-2.6-.3-2.1h-.2l-5.2 1.8c-.2 0-.3.3-.3.5 0 1.6.3 3.3.6 5Zm9.5 15.1 5.6-2.1c.2 0 .2-.3.2-.5l-.5-2.3-.4-2.4c-1.6.6-3.1 1-4.5 1.7-.5.1-1 .3-1.2.6-.2.3 0 .9.1 1.3v.2l.7 3.5Zm8.8-27.8 5.7-2c.2 0 .2-.3.2-.4 0-.6-.2-1-.3-1.7-.2-1-.3-2.1-.7-3.2-2 .6-3.8 1.2-5.6 2-.2 0-.2.1-.2.3.5 1.7.6 3.4 1 5Zm34.6-29.9.6-.1 4.3-1.4c.4-.2.6-.3.4-.8l-.6-3.6-.1-1.4-5.1 1.5c-.5.2-.5.3-.5.8.2.3.2.6.2 1 .4 1.3.6 2.6.8 4Zm-34 36.5-5.6 2c-.2 0-.2.3-.2.4l.3 2.2.5 2.6h.1l5.6-2c.1 0 .3-.3.1-.5l-.1-1.3c-.2-1-.5-2.2-.6-3.4Zm5.4-8-5.6 2c-.2 0-.2.3-.2.5.2 1.4.5 2.6.6 4l.2.7 5.5-2c.1 0 .3-.3.1-.4 0-1.5-.3-3-.6-4.7Zm-8.9 27.5-5.5 2.2c-.3.1-.3.3-.3.4l.8 4 .1.8 5.9-2.3-1-5Zm-.4-6.4 5.5-2.1.1-.5-.3-2.1-.4-2.6h-.3c-1.9.6-3.6 1.2-5.4 2-.3.1-.3.3-.3.4l.5 3 .6 2Zm12.9-40.7-5.6 1.8c-.1 0-.3.3-.3.5l.3 1.8.5 3 5.8-2c-.1-1.6-.4-3.3-.8-5.1Zm-21.8 32.3h-.3l-5.3 1.9-.3.4c.2.8.3 1.4.3 2.2l.5 2.7 5.5-2c.2 0 .2-.3.2-.3-.2-1.7-.5-3.2-.6-4.9Zm17.8-19.2 5.5-1.8c.1 0 .3-.3.3-.5l-.3-1.8-.5-3.2c-1.5.4-3 1-4.4 1.5-1.3.5-1.3.5-1.1 1.8 0 1.2.2 2.6.5 4Zm-17 24.9-5.4 2c-.2 0-.2.3-.2.4.2.8.3 1.4.3 2.2l.5 2.7c1.8-.8 3.7-1.4 5.5-2 .2 0 .2-.3.2-.3l-.8-5Zm13.4-5.4.7-.1 4-1.5c1.2-.5 1.2-.5 1-1.7l-.6-3.8h-.2c-1.8.6-3.6 1.2-5.3 2-.2 0-.2.2-.2.2 0 1.6.3 3.3.6 5Zm38.5-43.5c1.7-.6 3.6-1 5.1-1.6l.1-.5-.4-3c-.2-.7-.2-1.4-.3-2.3l-5.4 1.6c.5 2.2.6 4 1 5.8Zm-29.6 16 5.5-1.8c.2 0 .2-.3.2-.4 0-.6-.2-1.1-.3-1.7l-.5-3.2h-.1c-1.7.6-3.5 1-5.2 1.7-.2 0-.3.3-.3.4 0 .6.1 1 .3 1.7 0 1 .3 2.1.4 3.4Zm-17.8 55.2 5.6-2.2c.3-.1.3-.3.1-.6l-.5-2.9-.3-1.7-4.7 1.9c-1 .4-1 .4-1 1.5.4 1.2.7 2.6.8 4Zm4.5-14 5.5-2c.2 0 .2-.4.2-.5l-.5-2.8c-.2-.6-.2-1.3-.3-2l-5.7 2.2-.1.4c0 .6.1 1.3.3 1.7l.6 3Zm5.4-8h.1l5.4-2 .1-.5-.1-1.3c-.2-1.1-.3-2.3-.6-3.4h-.2l-5.4 2c-.1 0-.3.3-.1.4l.1 1.6.7 3.2Zm8.4-26.7c-1.8.6-3.7 1.2-5.5 2-.2 0-.2.3-.2.4l.5 2.6.3 2.1a78 78 0 0 0 5.5-2c.2 0 .2-.2.2-.2l-.8-5Zm-7.8 33.2-5.5 2.2c-.2 0-.2.3-.2.4l.3 1.9.5 2.9 5.5-2.2.1-.4-.3-2.2-.4-2.6Zm-4.5 13.8-.4.1-5 1.9c-.3.1-.4.3-.4.7.3 1.4.4 2.8.8 4l.1.6 5.5-2.1c.2 0 .2-.3.2-.3l-.8-5Zm8.3-34a78 78 0 0 0 5.5-2c.2 0 .3-.3.2-.5l-.3-2.1-.5-2.6-.6.1-3.5 1.2c-.5.2-1.3.3-1.4.7-.2.3 0 1 .1 1.5l.5 3.6Zm4.5-13.8h.1l5.2-1.8c.3-.2.3-.3.3-.5l-.3-2.1-.4-2.6-4.2 1.4c-.4.1-1.2.3-1.4.6-.1.3 0 .9.2 1.5 0 1 .3 2.3.5 3.5Zm-22.1 33.1h-.2c-1.7.6-3.5 1.2-5.2 2-.3.2-.3.3-.2.6.4 1.4.5 2.6.8 4l.2.8 5.3-2c.2 0 .3-.3.3-.3l-1-5Zm-3.9 13 5.4-2.1.1-.5-.4-2.4-.5-2.3-5.5 2-.1.4 1 4.9Zm23-20h-.3c-1.7.6-3.5 1.2-5.2 2-.3.1-.3.3-.3.6l.6 4 .2.6 5.5-2.2c.2 0 .2-.3.2-.3l-.7-4.7Zm-13.8 34.5 5.6-2.3.1-.4-.5-2.5-.4-2.3-5.5 2.2c-.2 0-.3.3-.3.3l1 5Zm6-1.7h-.1l-5.4 2.2c-.3.1-.3.3-.2.6l.7 3.8.1.7.6-.1 4.6-1.8c.5-.2.6-.5.5-1-.2-.3-.2-.6-.2-.9l-.6-3.5Zm7.2-39.4 5.5-2c.2 0 .2-.2.2-.4l-.5-3.2-.3-1.5c-1.8.6-3.6 1.2-5.5 2-.1 0-.3.3-.1.4.3 1.5.6 3 .7 4.7Zm-8.7 27.4s.1 0 0 0c2-.6 3.7-1.4 5.5-2.2.2 0 .2-.3.2-.4l-.7-3.2c0-.5-.1-1-.3-1.4-1.8.8-3.6 1.4-5.5 2.1-.1 0-.3.3-.1.5l.9 4.6Zm5.3-8.1 5.6-2 .1-.5-.3-1.5-.4-3.2-5.6 2.1-.1.3c.1 1.7.4 3.2.8 4.8Zm12.8-40-5.4 1.8-.1.5.4 3.3c.2.5.2 1 .3 1.6l5.4-1.9.3-.4c0-.6-.2-1.1-.3-1.7a30 30 0 0 1-.6-3.2Zm-12.3 46.4-5.5 2.1c-.2 0-.2.3-.2.5l.3 1.5.7 3.2c1.8-.8 3.6-1.5 5.5-2.1l.1-.3-.9-5Zm11.8-53.1h.3l5-1.7c.4-.2.4-.3.4-.6l-.3-2.3-.5-2.5-5.3 1.9c-.2 0-.4.3-.2.4l.5 3.2c-.2.5 0 1.1.1 1.6Zm6.5 4-.8-5.3-5.4 1.9-.1.4.1 1.6.6 3.3 5.6-2Zm-5.1 8.3-5.5 2c-.2 0-.2.3-.2.5.2.6.2 1.3.3 2l.5 2.7c1.8-.6 3.7-1.2 5.4-2l.3-.3-.8-4.9Zm-4.5 13.6-4.7 1.7c-1 .3-1 .3-.8 1.2l.6 4.1h.2l5.4-2 .1-.3c-.1-1.5-.4-3-.8-4.7Zm-27.1 33.7h.3l5-2c.4 0 .4-.2.4-.5l-.6-3.9c0-.3-.2-.4-.2-.9a76.7 76.7 0 0 1-5.5 2.3c0 1.8.3 3.4.6 5Zm1 5.7h.2l5.3-2c.1 0 .3-.3.1-.4-.2-1.3-.5-2.5-.6-3.9l-.2-.9c-1.8.8-3.7 1.4-5.3 2.2-.2 0-.2.3-.2.3l.8 4.7Zm9.1 14.3a97 97 0 0 0 5.9-2.4l-1-4.9-4.7 2c-1 .5-1 .5-.8 1.4l.6 4Zm13.7-34.5-.6.2-4 1.5c-1.3.5-1.3.5-1 1.7l.7 3.8h.1l5.4-2c.2 0 .2-.3.2-.3-.4-1.6-.5-3.2-.8-4.9Zm-4 12.9h.1c1.7-.6 3.4-1.4 5.3-2 .3-.2.3-.3.3-.6l-.6-4.1c0-.2 0-.4-.2-.5l-5.4 2.1-.1.5.4 3.2.2 1.4Zm12.7-40c-1.8.6-3.7 1.2-5.3 2-.2 0-.2.3-.2.4a185.3 185.3 0 0 0 .8 4.7c1.3-.4 2.7-.9 4-1.5.4-.1 1.2-.3 1.5-.6.1-.3 0-1-.2-1.5v-.2c-.3-1-.4-2.1-.6-3.3Zm-9.2 20.7 5.7-2.1-.8-5-5.3 2c-.2 0-.2.3-.2.4l.3 1.5c-.1 1.1 0 2.2.3 3.2Zm-4 20c-1.8.8-3.7 1.6-5.5 2.2l-.1.3.7 4.7 5.5-2.1c.2 0 .2-.3.2-.3l-.8-4.8Zm12.6-47.1 4.3-1.6c.5-.1 1-.1 1.2-.6.2-.3 0-.9-.1-1.2v-.1c-.2-1.3-.3-2.5-.6-3.7l-5.4 1.8c-.2 0-.2.3-.2.3.3 1.9.7 3.4.8 5Zm-11.5 52.6c-1.8.8-3.7 1.6-5.5 2.2-.2 0-.2.3-.2.4l.3 2.2.5 2.4a127 127 0 0 1 5.4-2.1c.1 0 .3-.3.3-.5a38 38 0 0 1-.8-4.6Zm20.7-73.2c-1.7.6-3.4 1-4.9 1.6-.5.2-.8.3-.6 1l.1.7.7 3.7.6-.2 3.8-1.2c1.2-.4 1.2-.4 1-1.7l-.7-4Zm-30 94.1h.1a75 75 0 0 1 5.2-2.1c.2 0 .3-.3.2-.5l-.3-2-.5-2.4-4.8 2c-.9.5-.9.5-.7 1.5l.8 3.5Zm22.2-61.5-4.8 1.7c-.9.3-.9.3-.7 1.2.1 1.4.4 2.8.6 4.1h.1c1.7-.6 3.6-1.2 5.3-2l.1-.4-.5-2.9c.2-.3 0-1-.1-1.7Zm-9 20.8 5.3-2.2c.2 0 .2-.3.2-.4l-.4-2-.4-2.6c-1.8.8-3.7 1.4-5.4 2l-.3.3 1 4.9Zm8.5-27.2h.2l5.2-1.8c.2 0 .2-.3.2-.5l-.2-1.3-.6-3.6-5.4 1.9-.1.4.4 2.6.3 2.3Zm26.6-33h.1c1.6-.4 3-1 4.6-1.5.2 0 .3-.3.3-.4l-.1-1.6-.5-3.6c-1.7.6-3.4 1-4.9 1.7-.2 0-.2.3-.2.4l.2 1.2.5 3.8Zm-17.4 12.6-5.3 1.8c-.2 0-.2.3-.2.5l.5 3.2.3 1.5 4.4-1.5c1.1-.5 1.1-.5 1-1.6l-.7-4Zm-35.3 67s-.1 0 0 0l-5.3 2c-.2 0-.2.3-.2.4l.6 3.2.3 1.5 5-2c.6 0 .7-.4.6-1-.5-1.2-.6-2.8-1-4.1Zm-3.6 12.8 5.3-2.1c.2 0 .2-.4.2-.5l-.8-4.1-.1-.5-5.4 2.2c-.2 0-.2.3-.2.4 0 .6.2 1 .4 1.7.1 1 .4 1.8.6 2.9Zm13.3.4 5.4-2.2.1-.5-.4-2.6c-.2-.6-.2-1.4-.3-2-1.6.6-3.1 1.2-4.5 1.9-1.2.4-1.2.4-1 1.8l.7 3.6Zm4.3-13.5 4.6-1.9c1-.4 1-.4 1-1.6l-.7-3.7h-.1l-5.3 2-.3.3.8 4.9Zm13.5-34h-.1l-5.3 1.8c-.1 0-.3.3-.1.4l.5 3.2.3 1.5 5.3-2c.2 0 .3-.2.2-.2l-.8-4.8Zm-.5-6.6h.4l5-1.9c.3-.1.3-.3.3-.4l-.3-2.3-.4-2.5-5.4 1.9c-.2 0-.2.3-.2.3.2 1.7.3 3.3.6 4.9Zm-12 46.2 5.3-2.1c.2 0 .2-.3.2-.5l-.3-1.8-.5-2.8-5.4 2.2-.1.4.7 4.6Zm8.7-27c1.8-.8 3.5-1.4 5.2-2l.3-.4-.2-1.4-.6-3.4-5.3 2c-.2 0-.2.3-.2.5l.8 4.7Zm4.3-13.4 5.3-2c.2 0 .2-.3.2-.5-.2-.7-.2-1.7-.3-2.4-.2-.8-.3-1.5-.3-2.3l-5.4 2-.1.3.6 4.9Zm-17.4 53.8 4.6-2c1-.4 1-.4.8-1.3l-.3-1.8c-.2-.8-.3-1.4-.3-2.2l-4.6 2c-1 .5-1 .5-.8 1.5.2 1.2.5 2.5.6 3.8Zm25.2-86.5 5.2-1.8c.2 0 .2-.3.2-.5l-.7-4.4-.1-.3c-1.7.6-3.5 1-5.2 1.7-.2 0-.3.1-.3.3l.9 5Zm-17.3 54c1.8-.7 3.6-1.3 5.3-2.1.2 0 .2-.3.2-.5l-.5-3-.3-1.5-5.3 2c-.2 0-.2.2-.2.2l.8 5ZM1640 194l-5.3 1.8-.1.5.3 2.3c.1.8.3 1.5.3 2.4l4.5-1.5c1-.3 1-.3.9-1.5l-.7-4Zm.3-.8h.1l5-1.6c.2 0 .4-.3.4-.5a118.1 118.1 0 0 1-.8-4.9l-5.2 1.9c-.2 0-.2.3-.2.3l.7 4.8Zm-12.5 46.8-5.3 2c-.2 0-.2.4-.2.5l.3 1.6.5 3.2 5.3-2.2c.2 0 .2-.3.2-.3l-.8-4.8Zm-22 26.5-5.4 2.1c-.2 0-.2.4-.2.5l.6 3.2.3 1.4c1.4-.6 2.8-1 4.2-1.7.4-.1 1-.3 1.2-.6.2-.3 0-1-.1-1.5l-.7-3.4Zm35-66.8-4 1.3c-.5.2-1.3.2-1.5.6a28.7 28.7 0 0 0 .8 5l4.5-1.4c1-.5 1-.5.9-1.6l-.8-4Zm-34.1 72.3-5.3 2.1c-.1 0-.3.3-.1.7l.5 2.4.4 2 4.6-2c1-.5 1-.2.8-1.4-.5-1-.6-2.4-1-3.8Zm12.9-6a193 193 0 0 0 5.3-2.2c.2 0 .2-.3.2-.5l-.2-1.4-.6-3.2-5.4 2.2-.1.3c.3 1.8.4 3.3.8 4.9Zm13-40.2 5.2-2c.2 0 .2-.3.2-.5l-.5-3.3-.1-1.4c-1.9.6-3.6 1.4-5.3 2-.1 0-.3.3-.1.3 0 1.7.3 3.2.6 4.9Zm-7.2 38.6h-.2c-1.7.7-3.5 1.3-5.2 2.1-.1 0-.3.3-.1.5.1 1.3.4 2.7.7 4.2 0 .2 0 .2.2.3l4.6-1.8c.9-.4.9-.4.8-1.4l-.2-.9-.6-3Zm7.7-32.2-5.4 2c-.2 0-.2.3-.2.4l.5 3.2c0 .5.1 1 .3 1.4l4.6-1.8c1-.3 1-.3.8-1.4-.2-1.2-.5-2.5-.6-3.8ZM1646 192h-.3c-1.7.6-3.2 1-4.9 1.7-.3.2-.3.3-.3.5.2.3.2.7.2 1 .1 1.3.3 2.5.6 3.7l5.2-1.8c.2 0 .2-.3.2-.5 0-.6-.2-1.2-.4-1.7l-.3-2.9Zm-17.1 53.4-5 2c-.4.2-.7.3-.6 1 .2.3.2.4.2.7.1 1.2.3 2.3.6 3.5l5.4-2.1.1-.3c-.3-1.5-.6-3-.7-4.8Zm9.3-21.2-5.2 2c-.2 0-.3.3-.3.5l.5 3 .3 1.6 4.3-1.7c1.2-.5 1.2-.5 1-1.9l-.6-3.5Zm-9 20.5h.1l5-2c.4-.2.4-.3.4-.6l-.6-3.8-.2-.8c-1.8.8-3.5 1.4-5.2 2-.2 0-.2.3-.2.5 0 .4.2 1 .4 1.5 0 1.2.1 2.1.3 3.2Zm21.1-66.1c-1.8.6-3.5 1-5.2 1.7l-.1.4c.1 1 .3 1.7.3 2.6l.3 2.2c1.8-.6 3.5-1.3 5.2-1.7l.1-.5-.1-1.3-.5-3.4Zm-13.3 33.7c1.8-.6 3.5-1.2 5.2-2l.1-.4-.3-2.3c-.1-.8-.3-1.5-.3-2.3l-5.5 2 .8 5Zm5-7.8 5.3-1.8.1-.4-.6-4.3-.1-.3-5.1 1.8c-.2 0-.3.3-.3.3l.8 4.7Zm-12.4 46.4-5 2c-.3.2-.5.3-.5.6l.6 3.7.2 1 5.2-2.2c.1 0 .3-.3.3-.5l-.2-1.4-.6-3.2Zm21.5-66.7c-1.8.7-3.5 1.3-5.2 1.7-.2 0-.3.3-.3.5l.1 1.7.5 3h.1c1.7-.6 3.4-1 5.1-1.7.2 0 .3-.3.2-.4 0-.8-.2-1.4-.3-2.2.1-.7 0-1.6-.2-2.6Zm-8.6 26.8-5.2 1.8c-.2 0-.2.3-.2.3l.8 4.7h.3l5-1.8.2-.5-.3-2.4c-.3-.6-.4-1.4-.6-2.1Zm-7.7 32.2h-.3l-4.9 2c-.3 0-.3.2-.3.6l.6 3.5.2.9 5.2-2.2c.2 0 .2-.3.2-.4l-.5-2.6c0-.6 0-1.2-.2-1.8Zm-4.3 13.2-5.3 2.2c-.2 0-.2.3-.2.3l.8 4.6h.1l5.1-2.2c.2 0 .3-.3.2-.3l-.7-4.6Zm3.9-19.5h.3l4.9-1.8c.3-.2.3-.3.3-.6-.2-1.4-.5-2.6-.6-4 0-.2 0-.3-.2-.5l-5.2 2c-.1 0-.3.3-.1.5.1.7.1 1.5.3 2.1l.3 2.3Zm8.6-26.7 5.2-1.8.1-.5-.4-2.7-.3-2-5.3 1.8-.1.3.8 4.9Zm-7.2 38.3-5.3 2.1-.1.5.3 2.1.5 2.5 5.2-2.2.1-.3a42 42 0 0 1-.7-4.7Zm2.9-25h.1l5-1.9c.2-.1.2-.3.2-.6l-.4-2.9c-.2-.4-.2-1-.3-1.7l-4.3 1.6c-1.3.4-1.3.4-1 1.7l.7 3.8Zm-12 45.6 5.2-2.3c.2 0 .2-.3.2-.4 0-.7-.2-1.3-.3-1.9l-.5-2.7-5.2 2.1c-.2 0-.3.3-.2.5l.8 4.7Zm13.2-33.7-5.2 2c-.2 0-.3.3-.3.3.1 1.5.4 3 .7 4.7l.7-.2 3.3-1.3c.5-.2 1.3-.3 1.4-.6.2-.5 0-1.1-.1-1.6 0-1.2-.2-2.3-.5-3.3Zm12-45.5-5.3 1.8c-.1 0-.3.3-.1.5l.5 2.9.3 1.7.6-.2 3.7-1.4c1-.3 1-.3.9-1.3-.2-1.3-.5-2.5-.6-4Zm-3.4 19h-.6l-3.6 1.3c-.4.1-1 .1-1.2.6a28.7 28.7 0 0 0 .8 4.9l.6-.2 3.7-1.3c1.2-.5 1.2-.5 1-1.7-.4-1.2-.6-2.5-.7-3.7Zm-4.3 13.2-.6.1-3.7 1.4c-1.2.5-1.2.5-1 1.9 0 1.2.2 2.4.5 3.6l.6-.1 3.6-1.4c1.2-.5 1.2-.5 1-1.8 0-1.3-.3-2.5-.4-3.7Zm6.6-43.7.8 5 5-1.6c.2 0 .3-.3.2-.5-.2-.7-.2-1.5-.3-2.2-.2-.8-.2-1.6-.3-2.5-1.9.8-3.7 1.2-5.4 1.8Zm1.8 17.1-4 1.4c-.4.2-1 .2-1.2.6-.1.3 0 1 .2 1.4v.1l.4 3.4h.2c1.7-.6 3.2-1 4.9-1.7l.3-.4-.3-2-.5-2.8Zm-.3-6.2 4.2-1.4c1.2-.5 1.2-.5 1-1.7-.1-1.2-.3-2.6-.6-3.8l-5.2 1.7-.1.4.3 2.2.4 2.6Zm-20.4 71.9c1.7-.8 3.4-1.4 5-2 .4-.2.5-.3.5-.6l-.6-4-.1-.3c-1.4.6-2.8 1-4.2 1.7-1.2.4-1.2.4-1 1.8 0 1 .1 2.1.4 3.4Zm.8 5.3 5.2-2.1c.2 0 .2-.3.2-.5-.2-1.5-.5-2.9-.6-4.4l-.2-.2-5 2.2c-.2 0-.4.3-.4.3l.8 4.7Zm12-45.2c1.8-.6 3.5-1.2 5-2 .2 0 .3-.3.2-.4l-.6-4.3-.2-.3-5 1.8c-.2 0-.4.3-.2.3.3 1.7.4 3.3.8 5Zm-3.9 19.4c-1.8.8-3.5 1.4-5.2 2-.1 0-.3.3-.3.5l.5 2.9.3 1.6c1.8-.7 3.5-1.3 5.2-2.1l.1-.3-.1-.5c0-1.3-.3-2.6-.5-4Zm-3.8 12.5.6-.1 3.5-1.4c.5-.1 1.1-.3 1.3-.6.1-.3 0-1-.2-1.4v-.1c-.2-1.1-.3-2.3-.6-3.4l-5.2 2.1c-.2 0-.2.4-.2.4l.8 4.5Zm11.8-45.1 5-1.9c.2 0 .2-.3.2-.3-.1-1.5-.5-3-.6-4.7l-4.5 1.5c-1 .3-1 .3-.9 1.4.5 1.4.6 2.6.8 4Zm-8.4 26.4h.1l5-2v-2l-.5-3c-1.7.5-3.6 1.3-5.3 2l-.1.4.3 1.8.5 2.8Zm12.7-39.7 5-1.9c.2 0 .4-.3.4-.4l-.5-3c-.2-.5-.2-1-.3-1.6l-5 1.7c-.2 0-.4.3-.2.4.1 1.7.4 3.2.6 4.8Zm-3 25c-2 .6-3.6 1.2-5.3 2l-.1.4.1 1.6.5 2.9h.1l5-1.9s.2-.3 0-.4c0-1.4 0-3-.4-4.6Zm-8.8 20.3 5-2c.2 0 .2-.3.2-.4-.2-1.3-.3-2.5-.6-3.7l-.2-.8-5 2c-.2 0-.3.3-.3.3l.9 4.6Zm13-33.4c-1.4.4-2.7 1-4.1 1.5-1.3.5-1.3.5-1.1 1.7l.6 3.6h.3l4.8-1.8.1-.4-.1-1.1-.5-3.5Zm4.2-13.1h-.2l-4.9 1.6c-.2 0-.3.3-.2.5l.3 2 .5 2.6c1.7-.6 3.2-1.3 4.8-1.7.4-.2.6-.5.4-1l-.1-1-.6-3Zm-44.5 81.3-5.5 2.3c-.2 0-.2.3-.2.6l.6 3.4.2.7c1.7-.7 3.3-1.5 5-2.1.5-.2.8-.5.5-1-.2-.2-.2-.5-.2-.8 0-1.1-.1-2-.4-3Zm23.8-16.3h.1l5-2c.2 0 .2-.3.2-.3-.1-1.5-.4-3-.8-4.6l-5.2 2.1-.1.3.8 4.5Zm13.1-33.3-5.2 2-.1.3.6 4.6 5-2c.2 0 .2-.3.2-.3 0-1.4-.3-3-.5-4.6Zm-8.9 20.1 5.1-2c.3 0 .3-.2.3-.5l-.4-3.6-.2-.9c-1.7.8-3.4 1.4-5 2-.2 0-.2.3-.2.5l.1 1.2.3 3.3Zm-3.3 18.7c1.8-.8 3.5-1.4 5-2.2.2 0 .2-.3.2-.4l-.5-2.6-.3-1.9-5.2 2.2c-.2 0-.2.3-.2.3.5 1.5.7 2.9 1 4.6Zm16.4-51.8h-.2l-4.9 1.9-.3.4.6 4.1c0 .2 0 .3.2.5l4.9-1.8c.1 0 .3-.3.3-.5-.2-1.7-.3-3.2-.6-4.6Zm-8 25.4 5-2c.2 0 .4-.3.4-.5l-.5-2.9-.1-1.5h-.2l-4 1.5c-1 .5-1 .5-.9 1.7v.2c-.1 1.2.2 2.4.3 3.5Zm8.8-20-4.3 1.5c-1.1.5-1.1.5-1 1.5.2 1.2.3 2.5.7 3.8l.6-.1 3.5-1.4c1-.4 1-.4 1-1.5 0-1.2-.4-2.5-.6-3.8Zm-1.3-11.8 5-1.8c.2 0 .4-.3.2-.6l-.3-2.6-.3-1.9-4.3 1.6c-.9.3-1 .3-.9 1.3.3 1.4.5 2.6.6 4Zm5.4-1.2h-.2a59 59 0 0 1-4.7 1.7c-.3.1-.3.3-.3.6.1.7.1 1.5.3 2.1.1.8.3 1.5.3 2.3l5-1.8c.2 0 .2-.3.2-.5 0-.6-.1-1.4-.3-2l-.3-2.4Zm-17.2 46h.6l4-1.7c.8-.3.8-.3.6-1.1l-.1-1-.5-3.1h-.1c-1.7.6-3.3 1.2-5 2-.3.1-.3.3-.3.6l.3 2.1c.4.8.5 1.5.5 2.3Zm14.6-69c1.7-.7 3.2-1.1 4.9-1.7.2 0 .3-.3.3-.5-.1-1-.3-1.8-.3-2.9l-.3-1.8-5 1.5c-.2.2-.2.3-.2.5l.4 2.9c-.1.7 0 1.3.2 2Zm-42 97.5 5.3-2.3c.2 0 .3-.3.3-.3-.1-1.4-.4-2.8-.6-4.1h-.1c-1.9.7-3.6 1.5-5.4 2.3-.2 0-.2.1-.2.3 0 1.2.3 2.7.7 4Zm32.5-36.2h.1a66 66 0 0 0 5-2v-.4c0-.8 0-1.4-.2-2.2-.2-.7-.3-1.5-.3-2.3-1.7.8-3.4 1.4-5 2-.2 0-.2.3-.2.5.1 1.5.4 2.9.6 4.4Zm14.7-62.6c-1.7.6-3.4 1-5 1.7v.5a262.4 262.4 0 0 0 .8 4.6c1.6-.7 3.1-1.1 4.8-1.7.2 0 .2-.2.2-.3-.3-1.6-.7-3.1-.8-4.8Zm-18.9 75.9 5.1-2.2c.2 0 .2-.3.2-.4l-.7-4-.1-.4-4.3 1.8c-1 .3-1 .3-.8 1.4l.2.9.4 2.9Zm9.5-14.7h-.1a66 66 0 0 0-5 2v.5c0 .6 0 1.3.2 2l.5 2.4h.2c1.3-.6 2.7-1 4-1.7 1-.4 1-.4.9-1.5l-.7-3.7ZM1652 230l5-2c.2 0 .4-.3.2-.4l-.4-3-.2-1.6-3.8 1.5c-.5.2-1 .3-1.2.6-.2.4 0 1 .1 1.4 0 1.2.2 2.3.3 3.5Zm-2.9 24.6-5 2.1c-.2 0-.2.3-.2.5l.4 3.5.2 1 5-2.2.2-.5-.6-4.4Zm7.2-37.7h.2l4.7-1.8c.2 0 .3-.3.2-.5l-.5-3.2-.1-1.4-5.1 1.9c-.2 0-.2.3-.2.3l.2 1.7.6 3Zm-3.4 18.6 5.1-2c.2 0 .2-.1.2-.3l-.7-4.5-5 2c-.2 0-.2.2-.2.4l.6 4.4Zm-45 42.2h-.2l-5 2c-.2 0-.2.4-.2.5 0 .5.1 1.1.3 1.6l.4 2.6c.2-.2.5-.2.6-.2 1.1-.4 2.4-.9 3.4-1.5.5-.2 1.3-.3 1.4-.8.2-.4 0-1-.1-1.5a18 18 0 0 1-.7-2.7Zm49.2-55.3 4.9-1.8.1-.5-.4-3.8-.2-.8-4.9 1.9-.3.4.8 4.6Zm6.3-36.3c-1.7.6-3.3 1-5 1.7 0 0-.3.3 0 .4v1.5l.5 3.2 5-1.6s.2-.3 0-.5c0-1.7-.4-3.2-.5-4.7Zm-37.2 83.8h-.3l-5 2.1c-.3.2-.3.3-.3.6l.6 3.8.1.3c1.9-.7 3.6-1.5 5.3-2.3.1 0 .3-.3.1-.4 0-1.4-.2-2.8-.5-4.1Zm27.8-23-5 2c-.2 0-.2.4-.2.5l.5 3 .3 1.4 4.9-2 .3-.2-.8-4.8Zm10.1-55.3-4.9 1.6-.1.5.4 3.7.2.9 4.9-1.7c.2 0 .2-.3.2-.3l-.7-4.7Zm-13.8 67.6h.3l4.6-2c.3-.2.3-.3.3-.5l-.6-4-.1-.2-5 2v.4c0 .6 0 1.2.2 1.8l.3 2.5Zm7.9-25.2-5 2-.3.4.5 3.6.1.9 5-2 .1-.5c0-1.5-.1-2.9-.4-4.4Zm.7 5.2c-1.4.6-2.7 1-4.1 1.7-1.3.4-1.3.4-1 1.6l.5 3.6h.2l4.7-2c.2 0 .3-.3.2-.5l-.3-2.6c.1-.6 0-1-.2-1.8Zm-1-11.5a160 160 0 0 0 4.7-1.8c.5-.1.5-.3.5-.8-.2-.3-.2-.7-.2-1.2l-.5-3.2-4.7 1.9c-.5.1-.5.3-.5.7.2.3.2.6.2 1l.4 3.4Zm5.2-1.3-.6.1-3.1 1.2c-.5.2-1.3.3-1.4.7-.2.4 0 1 .2 1.5l.4 3.2 5-2c.2 0 .2-.2.2-.3l-.7-4.4Zm1.8-29.3-4.6 1.6c-.3.2-.5.3-.5.7l.5 3.5.2.9c1.6-.6 3.2-1 4.7-1.7.2 0 .3-.3.3-.5l-.6-4.5Zm-37.4 76.9c.1-.2.4-.2.6-.2 1.4-.6 2.8-1 4-1.6.9-.5.9-.5.7-1.4-.1-1.2-.3-2.3-.6-3.5l-5.2 2.3-.1.3.6 4Zm38.2-71.4-.6.1c-1.1.5-2.3.8-3.4 1.2-1 .5-1 .5-1 1.6l.7 3.8.6-.2c1.2-.4 2.3-.9 3.5-1.2 1-.3 1-.3 1-1.4a18 18 0 0 1-.8-4Zm-5.3 47.3c-1.6.7-3.3 1.3-4.9 2.1l-.1.5.3 2.1.3 2.3c1.7-.8 3.4-1.4 5-2 0 0 .2-.3 0-.3a45 45 0 0 0-.5-4.7Zm-.7-5.4c-1.7.6-3.2 1.4-5 2l-.2.5c.1 1.5.4 2.9.6 4.4.1-.2.3-.2.5-.2l3.5-1.3c1.2-.5 1.2-.5 1-1.7 0-1.2-.1-2.4-.4-3.7Zm4.1-12.8c-1.7.6-3.3 1.2-4.9 2l-.1.5c.1.9.3 1.6.3 2.5.1.7.1 1.3.3 1.9l4.9-2c.1 0 .3-.3.3-.5l-.8-4.4Zm.8 5.4h-.2l-4.6 1.8-.3.4.5 3.6.2.9 4.2-1.9c.8-.3.8-.3.8-1.2-.1-1-.5-2.3-.6-3.6Zm-2.6-22.3 4.9-1.9.1-.4c0-.6-.1-1.4-.3-2-.1-.8-.3-1.7-.3-2.6l-4.7 1.8c-.2 0-.2.3-.2.3 0 1.7.3 3.2.5 4.8Zm-28.5 56.6h.1l5-2.1c.2 0 .2-.3.2-.5l-.4-2.7-.2-1.3-.6.2-3.8 1.5c-1.1.5-1.1.5-1 1.7.4 1 .5 2.1.7 3.2Zm29.3-51.1 4.7-1.9c.2 0 .2-.3.2-.3l-.7-4.6-3.6 1.4c-.5.2-1.1.3-1.3.6-.1.3 0 1 .2 1.4v.2l.5 3.2Zm2.6 22h-.2l-4.8 2-.1.5.2 1.4.4 3c1.7-.5 3.2-1.3 5-2 0 0 .2-.2 0-.2 0-1.7-.4-3-.5-4.6Zm.7 5.3-4.4 1.8c-.5.2-.8.5-.6 1l.6 4a66 66 0 0 1 4.9-2l.1-.2c-.1-1.7-.4-3-.6-4.6Zm-2.6-22s.2 0 0 0l4.8-1.8.1-.5-.4-3-.2-1.4-4.7 1.8c-.2 0-.3.3-.2.3l.6 4.6Zm.8 5.3 4.7-1.8c.2 0 .3-.3.3-.3l-.6-4.6-4.7 1.9c-.2 0-.2.1-.2.3 0 1.5.2 3 .5 4.5Zm-20.1 31.3-5 2.2c-.2 0-.2.3-.2.4l.4 2.8.2 1.4c.2-.2.5-.2.6-.2l3.8-1.5c1.1-.5 1.1-.5 1-1.6-.5-1.2-.7-2.2-.8-3.5Zm25.1-32.6-4.7 1.8c-.2 0-.2.3-.2.3l.7 4.4h.1l4.6-1.8c.2 0 .2-.3.2-.3l-.7-4.4Zm.8 5.3-3.7 1.4c-.4.1-1 .3-1.2.6v1.4l.5 3.3.6-.1c1-.5 2.1-1 3-1.2 1.3-.5 1.3-.5 1.1-1.9 0-1.2-.1-2.4-.3-3.5Zm-20.2 25-5 2.2c-.3 0-.4.3-.4.4l.6 4.2.6-.3 3.9-1.6c.9-.3.9-.4.7-1.3 0-1.3-.3-2.5-.4-3.6Zm20.8-19.8-4.4 1.8c-.5.2-.5.3-.5.8.2.3.2.8.2 1l.4 3.1c1.6-.6 3.1-1.2 4.6-2 .2 0 .2-.3.2-.4l-.2-1.4c0-1-.1-1.8-.3-2.9Zm.8 5.2a41 41 0 0 0-4.6 2c-.2 0-.3.1-.2.3l.7 4.6c1.6-.8 3.2-1.4 4.9-2l-.8-5Zm-20.4 18.8 5-2.2c.2 0 .2-.3.2-.4l-.3-1.9-.3-2-4.3 1.7c-1 .5-1 .5-1 1.6l.7 3.2Zm5.7-2.5h.3l4.6-2 .3-.4-.3-2.3-.3-1.5-5 2-.2.3.6 4Zm5.7-2.3 4.7-2c.2 0 .3-.3.3-.3a39 39 0 0 0-.6-4h-.6l-3.8 1.6c-.7.2-1 .5-.7 1l.2.8.5 3Zm5.5-2.4 4.6-2 .1-.3c-.1-1.4-.3-2.6-.6-4.1l-4.7 2c-.2 0-.2.1-.2.3l.8 4ZM1726.7 147.8l.3 3.3.8 8.7.8 7.6a1071.3 1071.3 0 0 0 1.7 17.4l.7 7.7.5 5.6c.1 2.2.4 4.3.6 6.4l.6 6 .6 7c.3 3.7.8 7.2 1 10.9v.3c.2.6 0 .7-.5 1l-15.2 6.4-43.7 18.5-.6.2-.3-2-1-6.9c-.4-3.8-1-7.5-1.5-11.3l-1.4-10.5-1.4-10.7-1.2-9.2c-.5-3-.8-6-1.2-9.1l-1.2-8.4-1.1-8.4c-.3-2.6-.8-5-1-7.6-.3-.8-.3-1.6-.4-2.5a3602.4 3602.4 0 0 1 21.3-6.9l42-13c.2-.4.5-.4.8-.5Zm-52.9 17-5 1.6s-.2.3 0 .4c0 1.3.2 2.5.4 3.9l.1 1.3 5-1.5.1-.5-.3-2.9c0-.9-.1-1.5-.3-2.2Zm5.7-1.6h-.2l-4.6 1.5c-.1 0-.3.3-.1.5l.1 1.6.5 3.5c1.7-.4 3.2-1 4.9-1.5l.1-.4-.1-1.7c-.3-1.2-.5-2.3-.6-3.5Zm-11.4 3.5c-1.7.4-3.2.9-4.7 1.5-.2 0-.2.3-.2.5l.3 2.1.5 3h.4l3.3-1.2c1.2-.4 1.2-.4 1-1.6-.1-1.4-.3-3-.6-4.3Zm16.9-5.4-4.8 1.6c-.3.1-.3.3-.3.4.2 1.4.3 3 .6 4.3 0 .3 0 .5.2.8l4.8-1.6.1-.4-.3-3c-.1-.7-.3-1.3-.3-2Zm5.4-1.6-4.6 1.3c-.3.2-.5.3-.3.7a42 42 0 0 0 .7 5l4.6-1.5c.2 0 .3-.3.2-.3l-.6-5.2Zm1 5.3h.3l4.3-1.4c.3-.1.3-.3.3-.6l-.4-3.6-.2-1.3-4.6 1.6-.1.4.1 1.4.3 3.5Zm5.4-1.7 4.6-1.5c.2 0 .2-.3.2-.5l-.3-2.2-.3-2.8-4.7 1.4c-.1 0-.3.3-.1.4l.1 2c.4 1 .4 2.2.5 3.2Zm-26.7 14.4 5-1.5v-1.6l-.5-3.5-5 1.5-.1.5c0 .8.2 1.4.3 2.1.2.6.2 1.6.3 2.5Zm.8 5.5h.1l4.6-1.6c.2 0 .4-.3.4-.3-.2-1-.4-2-.4-3l-.1-1.7-5 1.7s-.2.3 0 .4v1.7c0 .8.2 1.7.4 2.8Zm5.2-1.1-5 1.7v.4c0 .8 0 1.6.2 2.3l.4 2.2h.1l4.8-1.6c.1 0 .3-.3.1-.4l-.1-1.7-.5-2.9Zm4.1-12.8c-.1 0-.1 0 0 0-1.7.4-3.2.9-4.9 1.5l-.1.5.1 1.3.5 3.2h.2l4.5-1.5c.3-.1.3-.3.3-.4l-.4-3-.2-1.6Zm26.1-14.5-4.6 1.4-.1.4c0 .8.1 1.5.3 2.3l.3 2.6 4.6-1.5.1-.3c-.3-1.6-.4-3.2-.6-5Zm-34 39.4 4.9-1.7.1-.5c0-.7-.1-1.5-.3-2.1l-.3-2.5c-1.7.7-3.2 1.1-4.9 1.7l-.1.3.6 4.8Zm4.1-12.9 4.8-1.6.1-.5-.1-1.8c-.2-1-.4-1.9-.4-2.8l-.6.2-3.6 1.2c-1 .3-1 .3-.8 1.2l.6 4.1Zm-7.4-8.5c-1.6.4-3.2 1-4.7 1.5-.2 0-.2.3-.2.5l.3 1.8.5 3c1.7-.5 3.2-1.2 4.8-1.6l.1-.3-.8-5Zm.8 5.6-.5.2-4 1.4c-.2.1-.4.3-.4.6.2.7.2 1.5.3 2.3.2.7.2 1.3.3 2.3 1.5-.7 3-1.1 4.6-1.6.2 0 .3-.3.2-.3l-.5-4.9Zm37.4-18.6h.2l4.3-1.4.1-.4c0-.8-.1-1.7-.3-2.5l-.3-2.4-4.4 1.4c-.2 0-.2.1-.2.3.3 1.7.5 3.3.6 5Zm-25.9 14.2 4.8-1.5.1-.5-.1-2-.3-2.6-5 1.6-.1.3.6 4.7Zm-8.3 25.7.5-.2 4.1-1.4c.3-.1.5-.3.5-.6-.2-.3-.2-.6-.2-.9l-.4-3.4c-1.7.7-3.2 1.1-5 1.7v.3c0 1.3.4 2.8.5 4.5Zm4.2-12.9 4.7-1.6c.2 0 .2-.3.2-.5l-.3-2.6c-.2-.6-.2-1.2-.3-2-1.7.6-3.3 1-4.8 1.7l-.1.5.1 1.8.5 2.7Zm1 11.6c-.1 0-.1 0 0 0l-4.7 1.7c-.2 0-.2.3-.2.5a39 39 0 0 0 .8 4.4c1.5-.6 3.2-1 4.8-1.7l.1-.4-.1-1.7a6 6 0 0 1-.7-2.8Zm4-12.8c-1.7.6-3.2 1-4.7 1.7-.2 0-.2.3-.2.5l.3 3 .2 1.5 4.1-1.3c1-.3 1-.3.8-1.3l-.5-4Zm-.3-6c1.7-.7 3.3-1.2 4.8-1.6l.1-.5c-.1-.9-.1-1.8-.3-2.6l-.3-1.8h-.1l-4.5 1.5c-.3.2-.3.3-.3.5.2.7.2 1.5.3 2.4.2.5.3 1.2.3 2Zm-11.5 4.3h-.3l-4.3 1.6c-.3.1-.3.3-.3.4l.3 2.6c.2.6.2 1.2.3 2 1.7-.6 3.3-1 4.8-1.7l.1-.3-.3-1.8c0-1-.1-1.8-.3-2.8Zm-3.5 12 4.6-1.6c.2 0 .2-.3.2-.4l-.7-4.3-.1-.3c-1.6.4-3 1-4.6 1.5-.2 0-.3.3-.2.5l.3 2c.3 1 .5 2 .5 2.7Zm20-17.5-.4.2-4.1 1.4c-.3.1-.5.3-.5.6l.5 4 .1.4c1.7-.6 3.3-1 4.8-1.7.2 0 .2-.3.2-.4l-.2-1.3-.3-3.2Zm-8 25.4-4.8 1.7c-.1 0-.3.3-.1.4l.3 3 .1 1.4 4.5-1.6c.4-.2.6-.3.4-.8l-.1-1-.3-3.1Zm37.5-52.2-4.4 1.3c-.2 0-.3.4-.2.5 0 .8.2 1.7.4 2.4.1.8.1 1.7.3 2.5l4.4-1.4.1-.4-.1-2.5-.5-2.4Zm-37.9 46 4.8-1.6c.2 0 .2-.3.2-.5l-.3-2.3-.4-2h-.1c-1.5.4-3 1-4.6 1.6-.2 0-.2.3-.2.4l.2 1.4.5 3Zm4.8-7.3 4.6-1.6c.3-.2.3-.3.3-.5l-.4-4.1c0-.2 0-.2-.2-.3-1.4.4-2.6.9-3.8 1.4-1.1.3-1.1.3-1 1.5l.5 3.6Zm7.8-24.7-4.7 1.5c-.2 0-.2.3-.2.5l.5 3.7.1.9 4.8-1.5c.2 0 .2-.3.2-.3 0-.5 0-.8-.2-1.3l-.5-3.5Zm-16 50c1.8-.5 3.3-1.1 4.8-1.7.2 0 .2-.2.2-.4l-.6-4.5h-.2l-4.6 1.6-.1.5c0 .8.1 1.5.3 2.1.1 1 .1 1.7.3 2.5Zm16.7-44.3h-.2l-4.5 1.3c-.3.2-.3.3-.3.5l.5 4 .2.6 4.4-1.5c.3-.2.5-.4.3-.7-.2-.7-.2-1.6-.3-2.4 0-.6 0-1.2-.2-1.8Zm-12.5 31.7c1.7-.6 3.2-1 4.8-1.7.1 0 .3-.3.1-.4l-.4-4.1c0-.2 0-.2-.2-.3l-4.4 1.5c-.3.1-.5.3-.5.6l.3 2.4c0 .8.2 1.4.3 2Zm-11.6-1.5h.1l4.5-1.5c.3-.2.3-.3.3-.5l-.3-2.3-.3-2.1c-1.6.6-3.1 1-4.6 1.7-.2 0-.2.1-.2.3 0 1.3.3 2.9.5 4.4Zm5-1.2-4.6 1.6-.1.5.3 2.9.3 1.7 3.7-1.4c1.2-.4 1.2-.4 1-1.7a22 22 0 0 1-.6-3.6Zm11.4-4.6c1.7-.6 3.2-1 4.7-1.7.2 0 .2-.3.2-.4 0-.8-.2-1.4-.3-2-.2-.8-.2-1.6-.3-2.5l-.5.2-3.4 1.2c-1 .5-1 .5-.9 1.5 0 1.2.2 2.5.5 3.7Zm37.4-45.6-4.3 1.3c-.2 0-.3.3-.3.5l.5 4.9.4-.2 3-.9c1.2-.3 1.2-.3 1-1.4 0-1.5-.1-2.9-.3-4.3Zm-45.5 71a160 160 0 0 0 4.7-2c.1 0 .3-.2.1-.4l-.3-2.4-.3-1.8-.4.1-4 1.5c-.3.2-.5.3-.5.7l.3 1.8c0 .9.2 1.7.4 2.4Zm4-12.7 4.5-1.7c.2 0 .3-.3.3-.5-.1-.9-.1-1.8-.3-2.6 0-.6-.1-1-.3-1.7-1.7.7-3.2 1.3-4.7 1.7-.2 0-.2.3-.2.5.3 1.2.5 2.7.6 4.3Zm-3.4 18 3.8-1.6c.3-.1 1-.1 1-.4.2-.3 0-.8 0-1.2v-.2c0-1-.2-2.1-.4-3.3l-4.8 1.8-.1.3c0 1.5.3 2.9.5 4.6Zm19.9-62.5-4.8 1.6-.1.4.3 2.5.3 2.1 4.6-1.5c.2 0 .2-.2.2-.3l-.5-4.8Zm-8.4 19.3 4.7-1.7c.2 0 .2-.3.2-.5l-.3-2.1-.3-2.3h-.2l-4.4 1.5c-.2 0-.2.3-.2.5l.3 2.4.2 2.2Zm.9 11.3-4.8 1.6-.1.5c0 .8.1 1.4.3 2.1l.3 2.5.5-.2 3.6-1.3c.8-.3.8-.3.6-1.1l-.4-4.1Zm-8.3 19.2 4.3-1.5c.5-.2.8-.3.6-1l-.1-1-.3-3h-.2c-1.5.7-3 1.2-4.6 1.8-.2 0-.2.3-.2.4l.2 1.4.3 2.9Zm8-25.3h.1l4.5-1.6c.3-.1.3-.3.1-.4l-.4-3.8-.2-.6c-1.5.6-3 1-4.6 1.5l-.1.3.6 4.6Zm4.1-12.6 4.6-1.5c.2 0 .3-.3.2-.4l-.3-2.5c-.2-.6-.2-1.4-.3-2l-4.6 1.6c-.2 0-.2.1-.2.3l.6 4.5Zm-19.5 30-4.6 1.6-.1.5.4 3.4.2 1.2c1.5-.6 3-1 4.6-1.7.2 0 .2-.3.2-.5l-.3-2.7-.4-1.8Zm.8 5.3-4.6 1.7c-.2 0-.2.3-.2.4l.2 1.4.5 3 3.5-1.3c.5-.2 1-.3 1.2-.6.2-.3 0-1 0-1.4v-.1a13 13 0 0 1-.6-3.1Zm15.7-11.1h-.2l-4.4 1.6c-.2 0-.2.3-.2.5 0 .8.2 1.5.3 2.1l.3 2.2a56 56 0 0 1 4.6-1.7c.2 0 .2-.3.2-.5l-.7-4.2Zm-8.2 25h-.3c-1.5.6-2.9 1-4.4 1.7-.3.1-.3.3-.3.4l.4 4.2.2.3 4.6-1.9.3-.4-.2-1.7-.3-2.6Zm11.8-43.7c1.6-.4 3-1 4.5-1.5.3-.1.4-.3.3-.6l-.5-4-.1-.4c-1.6.4-3 1-4.6 1.5-.2 0-.2.3-.2.5l.3 2.4c.2.6.2 1.4.3 2.1Zm-7.3 30.4 4.6-1.8.1-.5-.3-2.3-.3-2-.5.2c-1 .5-2.3.8-3.3 1.2-1.1.3-1.1.3-1 1.6l.7 3.6Zm-.5.6-4.8 1.9-.1.4.1 1.8.4 2.6 4.7-1.8c.2 0 .2-.1.2-.3 0-1.5-.3-3-.5-4.6Zm16.1-49.9h-.1l-4.3 1.4c-.2 0-.3.3-.3.4l.1 2.2c.2.7.2 1.5.3 2.3h.2l4.4-1.4c.2 0 .3-.3.3-.5l-.1-2c-.3-.9-.3-1.6-.5-2.4Zm-12.3 31.5 3.6-1.3c1.2-.4 1.2-.4 1-1.8l-.4-3.4h-.2l-4.4 1.6c-.2 0-.2.3-.2.4.2.8.2 1.7.3 2.5.2.6.2 1.2.3 2Zm-7.2 36.3-4.7 1.8c-.2 0-.2.3-.2.5l.3 2c.2.7.2 1.5.3 2.2l4.8-1.8.1-.4-.1-1.3-.5-3Zm4-12.5a160 160 0 0 0-4.7 1.8c-.2 0-.2.2-.2.3l.6 4.6 3.9-1.5c1-.5 1-.5.9-1.6l-.5-3.6Zm3.9-18.5c1.5-.6 3-1 4.6-1.7l.1-.4-.5-3.5-.1-1-4.6 1.7c-.2 0-.3.3-.2.3l.7 4.6Zm4-12.5c1.5-.6 3-1 4.6-1.5.1 0 .3-.3.1-.5 0-.8-.1-1.4-.3-2.1l-.3-2.3c-1.5.6-3 1-4.6 1.5-.2 0-.2.3-.2.3.3 1.5.5 2.9.6 4.6Zm8.2-19-4.6 1.6-.1.4.4 3.7.2.8 4.6-1.6.1-.3-.1-2.1-.5-2.4Zm-27.6 48.7c-1.5.7-3 1.3-4.6 1.7l-.1.5.4 3.3.2 1.1 4.4-1.7c.2 0 .2-.3.2-.4l-.2-1.2-.3-3.3Zm.8 5.4h-.2c-1.5.6-2.9 1-4.4 1.7-.2 0-.2.3-.2.4l.3 2.6c.2.6.2 1.2.3 1.9a126.7 126.7 0 0 0 4.7-2.2c0-1.4-.4-2.9-.5-4.4Zm15.5-11.5-3.7 1.4c-1.2.5-1.2.5-1 1.7v.1c0 1.1.2 2.2.4 3.3h.1l4.5-1.7.1-.3a417 417 0 0 1-.4-4.5Zm-8.3 19.1 4.6-1.8c.2 0 .2-.3.2-.5l-.4-2.9-.1-1.3c-1.5.6-3 1.2-4.5 1.6h-.1c-.2.2-.2.3-.2.5l.2 1.4.3 3Zm-4 12.5.5-.1c1-.5 2.1-1 3.2-1.2 1.2-.5 1.2-.5 1-1.7 0-1-.2-2.2-.4-3.4h-.2l-4.5 1.9c-.2 0-.2.3-.2.4l.3 2 .3 2.1Zm24.2-68.8-4.4 1.5c-.3.2-.3.2-.3.5a576.7 576.7 0 0 0 .6 4.6l4.5-1.6.1-.4-.2-2.3c-.1-1-.3-1.5-.3-2.3Zm-11.3 42.6h-.2c-1.5.6-2.9 1-4.4 1.7-.2 0-.3.3-.2.4l.2 1.7.3 2.7 4.6-1.8.1-.4c0-.8-.1-1.4-.3-2.2l-.1-2.1Zm15.3-55.1-4.6 1.5-.1.5.4 4 .2.4 4.4-1.5c.2 0 .2-.2.2-.3a231 231 0 0 1-.5-4.6Zm-12 37.4c-1.6.4-3 1-4.5 1.5-.2 0-.2.3-.2.5l.3 3 .2 1.4 3.6-1.4c1.1-.3 1.1-.3 1-1.4l-.3-3.6Zm-.2-6.1h.1l4.3-1.6c.2 0 .3-.3.3-.4l-.3-3-.1-1.4-4.7 1.5-.1.4.1 1.6.4 2.9Zm4.9-1.1c-1.6.6-3.1 1-4.6 1.7-.2 0-.2.3-.2.4l.3 3.2.2 1.3 4.6-1.7.1-.3-.1-1.2c0-1.3-.2-2.3-.3-3.4Zm-12 37.2-3.5 1.4c-.5.2-1.1.3-1.3.6v1.4l.5 3.2 4.6-1.8c.2 0 .3-.3.2-.3l-.5-4.5Zm16-49.6h-.2l-3 1.1c-.5.2-1.3.3-1.5.6-.3.3 0 1 0 1.5.2 1.1.4 2.2.4 3.1h.1l4.5-1.5.1-.5-.1-1.5c-.2-.8-.2-1.8-.3-2.8Zm-24.3 68.6h.2l4.4-1.9c.2 0 .2-.3.2-.4 0-.8-.2-1.4-.3-2.2-.2-.6-.2-1.3-.3-2l-3.6 1.3c-.4.1-1 .3-1.2.6-.2.3 0 1 0 1.5l.6 3Zm28.2-81-4.4 1.3c-.3.1-.3.3-.3.5.1 1 .3 2 .3 3.2l.2 1.2 4.4-1.5.1-.5-.1-2.3-.2-2Zm-12 37.2-4.5 1.6c-.2 0-.2.4-.2.5l.2 2 .3 2.4.5-.1 3-1.2c1-.5 1-.5 1-1.7v-.2c0-1 0-2.1-.2-3.3Zm-19.3 23.8-4.5 1.8c-.2 0-.2.2-.2.3l.6 4.4h.3l4.3-1.6c.2 0 .3-.3.3-.5l-.1-1.4c-.5-1-.5-2-.7-3Zm19.7-24.4c1.5-.7 3-1.1 4.6-1.7l.1-.5-.3-3.2-.1-1-3.9 1.3c-.9.3-.9.3-.7 1.2l.3 3.9Zm-23.2 36.3 4.5-1.8.1-.5c0-.8-.1-1.4-.3-2.1l-.3-2.3-4.4 1.8c-.2 0-.2.3-.2.3.3 1.5.5 3 .6 4.6Zm15.5-5.8-4.6 1.8-.1.5.4 3.3.2 1 4.6-1.9.1-.3-.6-4.4Zm4-12.2h-.2c-1.3.6-2.9 1-4.2 1.7-.3.1-.3.3-.3.6l.4 3.3.2.8 4.6-1.8.1-.4c-.3-1.3-.4-2.9-.6-4.2Zm12-37.1h-.3l-4.2 1.5c-.3.2-.3.3-.3.6l.5 4 .1.4c1.3-.4 2.3-.7 3.4-1.2 1.2-.4 1.2-.4 1-1.8 0-1.4 0-2.4-.2-3.5Zm-12.3 31.1 4.6-1.7c.2 0 .2-.3.2-.4 0-.8-.2-1.5-.4-2.3l-.3-2.1a56 56 0 0 1-4.6 1.6l-.1.5.1 1.5c.3 1 .5 1.9.5 3Zm16-49.6c1.5-.4 3-.9 4.4-1.5.2 0 .2-.3.2-.5l-.2-2.1-.3-2.3-4.5 1.5-.1.3.4 4.6Zm-7.1 35.9c-1.5.6-3 1-4.5 1.7l-.1.4.1 1.2.5 3.2 4.6-1.6c.2 0 .2-.3.2-.5l-.2-1.5c-.5-1-.6-1.8-.6-3Zm7.2-30-3.5 1.3c-1.3.4-1.3.4-1.1 1.7l.5 3.5 4.4-1.5c.2 0 .2-.4.2-.5 0-.5 0-.8-.2-1.2l-.3-3.2Zm-15.2 54.7-4.6 1.8-.1.3.4 4.3h.2l4.4-1.8c.2 0 .3-.3.2-.3 0-1.4-.3-2.8-.5-4.3Zm-8.1 19 4.6-2 .1-.5-.4-3.8c0-.2 0-.2-.2-.3l-4.6 1.8-.1.3c.1 1.5.3 3 .6 4.4Zm20-56c-1.5.7-2.8 1.1-4.4 1.6-.1 0-.3.3-.3.5l.5 4 .1.4c1.6-.6 3-1 4.5-1.7l.1-.5-.3-2.4-.1-1.8Zm-12.2 31.2h.2c1.3-.6 2.9-1 4.3-1.7l.1-.4c-.1-1-.1-1.9-.3-2.6l-.1-1.7-4.7 1.7-.1.3c.3 1.5.5 2.9.6 4.4Zm20.1-55.7-.4.2-3.1 1c-1.1.3-1.1.3-1 1.4v.3c.2 1 .4 2.3.4 3.4l3.7-1.3c.9-.3 1-.3.9-1.3l-.5-3.7Zm-35 73.1h-.1l-4.3 1.7c-.2 0-.3.3-.2.4l.2 1.4.5 3 4.4-2c.2 0 .2-.2.2-.2-.4-1.4-.5-2.8-.7-4.3Zm31-60.9-4.4 1.5c-.2 0-.3.3-.2.5l.2 1.7.3 2.7c1.2-.4 2.4-.9 3.7-1.2 1-.3 1-.3.9-1.4l-.5-3.8Zm-34.5 72.7 4.5-1.9.1-.4-.5-3.2-.1-1.1-4.4 1.8c-.2 0-.2.3-.2.3.3 1.4.5 3 .6 4.5Zm19.3-18.2h-.1l-4.3 1.8c-.2 0-.2.3-.2.5l.5 4.1.1.2 4.5-1.9.1-.4-.1-1.4-.5-2.9Zm7.7-30.5 4.5-1.7.1-.5-.2-2.1-.3-2.1-4.4 1.6c-.2 0-.3.3-.3.5.3 1.4.5 2.7.6 4.3Zm-4 12.3c1.6-.6 3-1.2 4.5-1.6l.1-.5-.3-2.4-.1-1.9c-1.6.6-3.1 1-4.5 1.7l-.1.5.4 4.2Zm-3.8 12.4 3.4-1.4c.4-.1 1-.3 1.2-.6V222c-.2-1-.3-2.1-.3-3.2l-4.5 1.9-.1.3c-.2 1.3 0 2.9.3 4.4ZM1709 176l4.4-1.5c.2 0 .3-.3.3-.5 0-.9-.1-1.7-.3-2.6l-.1-1.8c-1.3.4-2.3.8-3.4 1-1.2.5-1.2.5-1 1.7-.2 1.3 0 2.5 0 3.7Zm-19.2 66.7 4.6-2c.2 0 .2-.3.2-.4l-.4-2.8-.1-1.5-4.6 1.8c-.2 0-.2.2-.2.3 0 1.7.3 3 .5 4.6Zm16-43.2h-.2l-4.3 1.5-.1.5.1 1.8.3 2.3h.2l4.1-1.5c.2 0 .3-.3.3-.5l-.3-2.3-.1-1.8Zm-.8-11.3 4.4-1.5c.2 0 .2-.3.2-.5l-.2-1.7-.3-2.5-.4.1c-1.1.3-2.2.8-3.3 1-.9.4-.9.4-.7 1.3 0 1.4.1 2.6.3 3.8Zm7.8-24.6 4.3-1.3c.3-.2.3-.3.3-.5l-.1-1.7-.4-2.7-4.4 1.3-.1.5.1 2.1.3 2.3Zm-3.4 17.6 4.3-1.5c.3-.2.5-.3.5-.6l-.5-3.9-.1-.4c-1.5.4-3 .9-4.3 1.5-.2 0-.3.3-.2.5 0 1.5.2 2.9.3 4.4Zm-7.5 30.4-4.4 1.6c-.2 0-.2.3-.2.5 0 .8.2 1.5.3 2.3.2.6.2 1.2.3 2l.5-.2 3.7-1.4c.4-.1.4-.3.4-.7l-.1-1c-.3-1.2-.5-2-.5-3.1Zm7.8-24.5h-.1l-3 1.1c-.5.2-1.2.2-1.3.5-.2.3 0 .9 0 1.3.1 1.1.3 2.2.3 3.4 1.5-.6 3-1 4.5-1.7l.1-.3a234 234 0 0 1-.5-4.3Zm7.9-24.4h-.2l-4.1 1.4c-.2 0-.3.3-.2.5l.3 3.3.2 1 4.3-1.6c.1 0 .3-.3.3-.5-.3-1.2-.5-2.6-.6-4Zm-23.8 67.6 4.4-1.8c.2 0 .2-.3.2-.5l-.3-2.2c0-.7-.2-1.3-.3-2l-4.5 1.8c-.1 0-.3.3-.3.5l.2 1.2.6 3Zm8.4-19.5h.2c1.4-.5 2.7-1 4.1-1.7.2 0 .3-.3.3-.4l-.1-1.7c-.2-.8-.2-1.7-.3-2.5h-.2l-3.5 1.4c-1 .3-1 .3-1 1.4l.5 3.5Zm12-30.7-4.5 1.5-.1.5.1 1.5.4 3c1.5-.7 2.9-1.1 4.4-1.6.2 0 .2-.1.2-.3l-.5-4.6Zm-16 43c1.6-.5 3.1-1.2 4.5-1.8l.1-.4c-.1-1.1-.1-2.2-.3-3.2l-.1-1.1-4.5 1.8-.1.5.1 1.2.3 3Zm19.8-55.2-4.4 1.5c-.2 0-.2.3-.2.5l.3 2.9.2 1.4 4.3-1.6.1-.3a15 15 0 0 0-.3-4.4Zm-19.1 60.5 4.4-1.9c.2 0 .3-.3.3-.4l-.5-3.5-.1-.7-3.4 1.4c-.4.2-.9.3-1 .5-.2.3 0 .9 0 1.2l.3 3.4Zm-.3.6-4.7 1.8-.1.3.4 4.3h.2c1.4-.6 3-1.2 4.3-1.9.2 0 .2-.3.2-.4l-.3-4.1Zm7.6-30.3c1.5-.6 3-1 4.3-1.6.2 0 .2-.3.2-.5l-.2-2.1-.1-2.2h-.2l-4.3 1.6-.1.4.1 2 .3 2.4Zm.8 11c-1.5.6-3 1.3-4.5 1.7l-.1.3.4 4.4.5-.1 3-1.2c1.3-.5 1.3-.5 1.1-1.7-.3-1.2-.3-2.3-.4-3.4Zm15.3-54.6c1.4-.5 2.6-1 4-1.2.2 0 .2-.3.2-.5l-.2-2-.3-2.9-4 1.2-.1.4.4 5Zm-4.4 6.9.4-.2 3.6-1.2c.4-.2.4-.3.4-.6l-.3-3.4-.1-.9-4.3 1.4c-.2 0-.2.3-.2.4l.2 1.9c.1.9.3 1.6.3 2.6Zm-22.9 78.6 3.6-1.6c1-.4 1-.4 1-1.6l-.4-3.4-4.5 1.8-.1.3c0 1.6.1 3 .4 4.5Zm15.7-48.9 4.3-1.5.1-.5-.1-2.1-.3-2.1-3.7 1.3c-.8.3-1 .3-.8 1.3l.5 3.6Zm.1 5.8h-.1l-4.2 1.5c-.1 0-.3.4-.1.5l.1 2.1.3 2.2c1.3-.5 2.3-1 3.4-1.2 1.2-.5 1.2-.5 1-1.9 0-.9-.2-2.1-.4-3.2Zm3.7-18c1.5-.4 3-1 4.3-1.5l.1-.3-.4-4.4-.5.1-2.7 1c-1.3.4-1.3.4-1.3 1.8v.1c.4 1 .5 2 .5 3.2Zm8-18.5-4.3 1.4c-.2 0-.2.3-.2.5l.2 1.5.3 2.9 4.3-1.5.1-.3-.4-4.5Zm-23 72.4c.1-.2.3-.2.4-.2l3-1.2c1.2-.4 1.2-.4 1-1.8l-.3-3.2-4.4 1.8c-.2 0-.2.3-.2.3l.5 4.3Zm11.8-36.6 4.3-1.7.1-.5-.3-2.7-.1-1.6-4.3 1.6c-.2 0-.2.3-.2.4l.3 3c0 .7 0 1 .2 1.5Zm11.8-30.6c-1.5.5-3 1-4.3 1.6-.2 0-.2.1-.2.3l.5 4.4.5-.2 3.2-1c.8-.3.9-.3.8-1.3-.4-1.2-.4-2.4-.5-3.8Zm-19.6 55 4.4-1.7c.2 0 .2-.3.2-.3l-.2-2.1a9 9 0 0 0-.3-2l-4.5 1.7-.1.3c0 1.2.2 2.6.5 4Zm.7 10.7-4.4 1.8c-.2 0-.2.3-.2.5 0 .7.2 1.5.3 2l.3 2h.5l3-1.3c1.1-.5 1.1-.5 1-1.8l-.5-3.2Zm11-47.2 4.2-1.5c.2 0 .2-.3.2-.5l-.2-1.5-.3-2.8-4.3 1.6c-.2 0-.2.3-.2.3l.5 4.4Zm.4 5.2.4-.2 3-1c1-.3 1-.3.9-1.4l-.3-3.5h-.2c-1.4.4-2.8.9-4.1 1.5-.2 0-.3.3-.2.5l.3 2.3c.2.4.2 1 .2 1.8Zm-3.9 12c1.6-.6 3-1 4.3-1.6.2 0 .2-.3.2-.5l-.2-2.3-.1-2-4.5 1.7-.1.3.4 4.4Zm-.3.8h-.1l-4.2 1.5c-.1 0-.3.3-.3.5.2 1.2.3 2.3.3 3.5 0 .3 0 .5.2.8l4.3-1.7.1-.5-.3-2.4c.2-.5 0-1 0-1.7Zm-3.3 17.1-3.6 1.4c-1 .4-1 .4-.9 1.5l.5 3.4 4.4-1.9c.2 0 .2-.3.2-.4l-.2-2.2c-.3-.3-.3-1-.4-1.8Zm3.8-12-4.2 1.5c-.4.1-.6.3-.4.7l.1 1.3c.2.9.2 1.8.3 2.9l3.4-1.4c.5-.2 1-.2 1.1-.5.2-.3 0-.7 0-1.2v-.1l-.3-3.3Zm11.7-36.2c-1.6.4-3 .9-4.3 1.5-.2 0-.4.3-.4.5l.4 3.3.1 1c1.4-.5 3-1 4.2-1.6.1 0 .3-.3.3-.5l-.2-2-.1-2.2Zm-15 53.2c-1.5.7-2.7 1.3-4 1.7-.4.2-.5.3-.4.6a457.9 457.9 0 0 1 .6 4.2l4.3-1.9c.2 0 .2-.1.2-.3-.3-1.4-.5-2.7-.6-4.3Zm-28.8 27c1.7-.6 3.1-1.3 4.6-2 .2 0 .2-.2.2-.4l-.2-1.5-.3-2.3c-1.4.6-2.7 1-4 1.7-.7.3-.7.3-.7 1.2l.4 3.4Zm32.5-44.7c1.6-.6 3-1 4.3-1.6.2 0 .2-.3.2-.5l-.3-3-.2-1.3c-1.5.6-2.9 1-4.3 1.7l-.1.3.5 4.4Zm-4 12 4.4-1.6.1-.4-.5-3.7-.1-.5-4.3 1.7c-.2 0-.3.3-.2.3.4 1.4.5 2.8.7 4.3Zm7.9-24.2.6-.1 3-1.1c1-.3 1-.3 1-1.4l-.3-3.6-4.3 1.5c-.2 0-.2.1-.2.3-.1 1.5 0 2.9.2 4.4Zm3.8-12c.2 0 .2 0 0 0l4.3-1.4c.2 0 .2-.3.2-.5l-.2-2.3-.1-2-4.3 1.6c-.2 0-.2.1-.2.3l.3 4.3Zm-10.9 47-4.3 1.8-.1.5.3 2.3.1 1.8 4.3-1.8c.2 0 .2-.3.2-.5 0-.5 0-.8-.2-1.2l-.3-3Zm15.5-48h-.1l-4 1.4c-.2 0-.3.3-.3.5l.1 2.3.2 2 4.1-1.6c.3-.1.5-.3.3-.6l-.1-2-.2-2Zm-11.8 30.3 4.3-1.7c.2 0 .3-.3.3-.5l-.3-3-.2-1-4.2 1.6c-.2 0-.2.3-.2.5l.2 2 .1 2Zm4-12 3.7-1.5c.8-.3.8-.3.8-1l-.5-3.8c-1.5.6-3 1-4.3 1.6-.2 0-.2.3-.2.5 0 .8.2 1.5.3 2.3 0 .4 0 1 .2 1.8Zm-7.8 24 4.3-1.8.1-.5-.3-3.2-.1-1c-1.6.6-3 1-4.2 1.6l-.3.5c0 .8.2 1.5.3 2.3l.2 2.1Zm-23.8 25.4 4.6-1.9c.2 0 .2-.3.2-.4l-.3-2.8-.2-1-4.6 2c-.2 0-.2.3-.2.3 0 1.2.2 2.4.5 3.8Zm32-44.4 4.4-1.7.1-.5-.1-1.7-.4-2.6-4.3 1.7-.1.3.5 4.5Zm-3.8 11.9h.2c1.4-.7 2.7-1.1 4.1-1.7.2 0 .3-.3.2-.5-.2-1-.2-2.1-.3-3.2 0-.3 0-.6-.2-.9-1.5.6-2.9 1-4.3 1.7l-.1.4c0 .8.1 1.6.3 2.3l.1 1.9Zm.2 5.8-4.3 1.8c-.2 0-.2.3-.2.4 0 .8.2 1.6.3 2.3l.2 1.9 4.3-1.9.1-.4-.1-1.5c-.2-.8-.2-1.7-.3-2.6Zm11.5-36-4.3 1.6c-.2 0-.2.3-.2.5l.3 2.4.2 1.8c1.4-.4 2.8-1 4.1-1.5.2 0 .2-.1.2-.3 0-1.5-.2-2.9-.3-4.4Zm-50.3 67h.4l3.6-1.6c.4-.1.6-.3.4-.9l-.1-1c-.2-.8-.2-1.7-.3-2.7l-.5.2c-1.4.6-2.8 1-4 1.7l-.1.4.1 1.2.5 2.8Zm39.4-26-3.5 1.4c-1.1.4-1.1.4-1 1.5.2 1 .4 2.3.4 3.4l4.3-1.9.1-.3c0-1.4-.1-2.7-.3-4.1Zm3.8-12-4.3 1.6c-.1 0-.3.3-.3.5l.2 2 .3 2 4.3-1.6.1-.3-.3-4.3Zm-.3-5.7c1.6-.6 3-1 4.3-1.7.2 0 .2-.3.2-.4 0-.5 0-1-.2-1.4l-.3-3c-1.5.7-2.9 1.1-4.3 1.8l-.1.3.4 4.4Zm4-12 4.2-1.4.1-.5-.1-2c0-.7-.2-1.5-.4-2.3l-4.3 1.6-.1.3c.3 1.5.5 2.9.6 4.4Zm-31.3 49.2c1.5-.6 3-1.2 4.5-2l.1-.4c0-.6-.1-1.4-.3-2l-.3-1.8-4.6 2c-.2 0-.2.1-.2.3.4 1.2.7 2.6.8 4Zm28-26.5c-1.5.6-2.8 1-4 1.7-.2 0-.4.3-.4.4 0 .8.2 1.7.4 2.5l.1 1.6a73 73 0 0 0 3.4-1.3c1-.5 1-.5.9-1.7l-.3-3.2Zm7.8-23.8-3.4 1.2c-1 .4-1 .4-1 1.5l.4 3.4 4.1-1.7c.2 0 .2-.2.2-.3l-.3-4.1Zm-7.9 18.1c1.4-.6 2.8-1 4.2-1.7l.3-.4-.3-2.5-.2-1.6a78 78 0 0 0-3.4 1.3c-1 .5-1 .5-.9 1.6l.3 3.3Zm.8 10.7h-.2c-1.3.6-2.7 1-4 1.7l-.3.4.2 2 .3 2.2 4.2-1.9.3-.3-.5-4Zm3.7-11.9c-1.6.6-3 1-4.2 1.7l-.1.4.1 2.2.2 2c1-.5 2.1-1 3.2-1.3l1-.4c.2-.3 0-.8 0-1.2v-.2c0-1 0-2.1-.2-3.2Zm3.8-11.9-4.1 1.5c-.2 0-.3.3-.3.5l.4 3.6c0 .2 0 .4.2.5l4-1.5c.3-.2.3-.3.3-.5l-.3-2.6-.2-1.5Zm-31.1 43h.1l4.3-1.8c.2 0 .2-.3.2-.4l-.2-1.7-.3-2.3-4.4 1.8c-.2 0-.2.3-.2.5l.2 1.3c.1 1 .3 1.7.3 2.6Zm24-20c1.4-.6 2.7-1.2 4-1.6.2 0 .2-.3.2-.5l-.1-2c0-.7-.2-1.3-.4-2.3l-4.1 1.7c-.2 0-.3.3-.3.3l.6 4.4Zm7.6-18c-1.6.6-3 1.1-4.2 1.7l-.1.5.1 1.8.3 2.3c1.4-.6 2.8-1 4.2-1.7l.1-.3-.4-4.3ZM1724 224c-1.4.6-2.8 1-4.2 1.7l-.1.5c.1.9.1 2 .3 2.9l.1 1.2 4.2-1.8.1-.5-.1-1.5c-.2-.8-.2-1.7-.3-2.5Zm-.2-5.6c1.4-.6 2.8-1 4.2-1.7l.1-.5c-.1-1.2-.3-2.4-.3-3.8l-.2-.3c-1.3.6-2.7 1-4.1 1.7-.2 0-.2.3-.2.5 0 .9.2 1.8.4 2.6l.1 1.5Zm3-64h-.2l-3.7 1.2c-.2 0-.3.3-.3.5l.1 2.3.2 2c1.2-.5 2.4-.8 3.7-1.2.3-.2.4-.3.3-.7-.2-.6-.2-1.3-.2-2 .2-.6 0-1.3 0-2Zm-3.3 11.3 2.8-.9c.4-.1 1-.1 1.2-.5V163c-.2-1.1-.2-2.2-.3-3.4l-4 1.4c-.2 0-.2.3-.2.3l.2 1.7.3 2.7Zm-18.6 71.5h-.1a47 47 0 0 1-4.2 1.6l-.1.5.1 1.2.4 2.6h.1a116 116 0 0 1 4.3-1.8l.1-.3-.6-3.8Zm23.3-20-4 1.6c-.2 0-.2.3-.2.5l.3 3 .1 1.1h.2l3.4-1.4c.7-.3.7-.3.7-1.2-.3-1.4-.3-2.4-.5-3.6Zm-3.5 11.1 4.2-1.7.1-.4c0-1-.1-1.9-.3-2.8l-.1-1.4c-1.4.7-2.8 1.1-4.2 1.7l-.1.3c.3 1.4.3 2.8.4 4.3Zm-19 12.7h.2l4.1-1.7c.2 0 .3-.3.3-.5l-.1-1.8c0-.6-.2-1.2-.4-2l-4.3 1.8-.1.4.3 3.8Zm22-76-3.9 1.3-.1.5.3 2.7.1 1.6 3.9-1.4.1-.3-.5-4.4Zm-3.1 11.1h.1l3.7-1.2c.2 0 .2-.3.2-.5 0-.3 0-.7-.2-1l-.3-3.3-3.8 1.4c-.2 0-.2.2-.2.3l.5 4.3Zm4.1-1-3.8 1.5c-.2 0-.2.3-.2.4a30.7 30.7 0 0 1 .5 4.1l3.7-1.3c.1 0 .3-.3.1-.5l-.3-4.1Zm-3.2 11.4a109.7 109.7 0 0 0 4-1.7l-.5-4.3c-1 .3-2 .8-3 1-1 .4-1 .4-1 1.5.3 1 .5 2.1.5 3.5Zm-10.8 46.5h-.3l-4 1.7c-.3.2-.3.3-.3.6l.4 3 .1.7 4.3-1.8c.2 0 .2-.4.2-.4 0-1.3-.2-2.5-.3-3.8Zm11.4-41.5c1.4-.4 2.6-.9 3.8-1.4.2 0 .2-.3.2-.4l-.5-4.1h-.1l-3.7 1.3c-.2 0-.2.3-.2.5l.2 1.8c.2.6.2 1.4.3 2.3Zm-6.4 39.4a73 73 0 0 0-3.4 1.4c-1 .4-1 .4-1 1.5l.4 3 4.3-1.8.1-.3-.4-3.8Zm6.9-34.3c1-.5 2-.8 2.9-1.1 1-.3 1-.3.9-1.5v-.2c-.2-1-.2-2.1-.3-3.2l-3.8 1.4c-.2 0-.2.3-.2.4l.3 3c.2.4.2.7.2 1.2Zm4.1-1h-.2l-3.5 1.4c-.1 0-.3.3-.1.5l.3 3.2.1.9c1.1-.5 2-.8 3-1 1-.5 1-.5.9-1.6-.3-1-.5-2.3-.5-3.4Zm-6.3 33.3-.6.2-3 1.2c-.8.3-.8.3-.7 1.4.2 1 .2 2 .3 3.2l4.2-1.9.1-.4c0-1.2-.1-2.5-.3-3.7Zm3.2-22.3c1.4-.4 2.5-.9 3.7-1.5.2 0 .2-.3.2-.5l-.2-1.8c0-.8-.1-1.5-.3-2.3l-3.8 1.5c-.2 0-.2.4-.2.4l.2 1.3.4 3Zm.5 5 3.7-1.6.1-.5-.3-3.6-.1-.5-3.7 1.4c-.2 0-.3.3-.3.4l.1 1.6c.4 1 .4 1.8.5 2.7Zm-2.8 21.1 4-1.7c.2 0 .3-.3.3-.3-.1-1.2-.3-2.4-.3-3.8l-4.1 1.7c-.2 0-.2.3-.2.5 0 .4 0 .9.2 1.3-.2.8 0 1.6.1 2.3Zm3.3-16.2 3.6-1.5c.2 0 .2-.3.2-.4l-.2-2.6-.1-1.6-3.7 1.6c-.2 0-.2.1-.2.3 0 1.3.2 2.7.4 4.2Zm.4 5 3.5-1.4c.3-.2.5-.3.3-.7l-.1-2.2-.2-1.7-3.6 1.5c-.2 0-.2.3-.2.5l.2 2.4.1 1.5Zm4-1.3-3.7 1.5-.1.5.1 1.5c.2.8.2 1.7.3 2.6l3.7-1.5c.2 0 .2-.2.2-.3l-.5-4.3Zm-3 10.5c1.3-.4 2.4-.9 3.6-1.5.2 0 .2-.3.2-.4l-.2-2.5-.1-1.2-3.7 1.5c-.2 0-.2.2-.2.3.2 1.2.2 2.6.3 3.8ZM1727.6 148.2l53.9-17 .1 1.8.7 8.3.7 9.8c.2 2.8.5 5.5.6 8.3.2 2.9.5 5.6.6 8.5.2 2.8.5 5.5.6 8.3l.7 8.7a1583.4 1583.4 0 0 0 .9 12.8l.4 7.1.2 2.3c0 .3 0 .5-.3.6-10.7 4.6-21.5 9-32 13.6l-18.5 7.8-.4.2c-3-27-5.5-54-8.2-81Zm9.2-2.3c-1.3.5-2.6 1-3.8 1.3-.3.1-.5.3-.3.6l.5 4.2.1.5 4-1.4c.2 0 .2-.3.2-.4l-.2-1.9-.5-2.9Zm4.8-1.5c-1.4.5-2.8 1-4 1.2l-.1.5.3 3 .1 1.7 4-1.4c.2 0 .3-.1.3-.3-.3-1.3-.5-3-.6-4.7Zm.8 4.9h.1c1.2-.5 2.6-.8 3.8-1.2.2 0 .2-.3.2-.3 0-.5 0-1.1-.2-1.6l-.3-3.2c-1.3.5-2.6 1-4 1.3l-.1.3.2 1.8.3 2.9Zm-10.2-1.8c-1.3.4-2.6.7-3.8 1.2-.2 0-.2.3-.2.4l.4 3.5.1 1.4 3.8-1.2c.2 0 .2-.2.2-.3l-.5-5Zm18.5-6-3.9 1.2-.1.5c.1 1.2.1 2.6.3 3.8l.1.8c1.4-.5 2.6-1 4-1.3.2 0 .2-.3.2-.3 0-.4 0-.9-.2-1.2l-.4-3.5Zm4.5-1.4-3.8 1.3-.1.4.1 2.3.2 2.3h.1l3.7-1.2c.2 0 .2-.3.2-.3l-.2-2.2-.2-2.6Zm4.5-1.3c-1.4.4-2.6.7-3.8 1.2-.2 0-.2.3-.2.4l.3 4.2c0 .1 0 .3.2.4l3.8-1.2c.2 0 .2-.3.2-.3-.4-1.7-.5-3.2-.5-4.7Zm-26 18.7 4-1.3.2-.3c0-1-.1-1.9-.3-2.8l-.1-1.5-4.2 1.3-.1.4.1 1.8.3 2.4Zm30.3-20.1-3.8 1c-.2 0-.2.4-.2.4 0 .4 0 .9.2 1.2l.3 3.3h.1c1.2-.4 2.5-.7 3.6-1.2.3-.1.3-.3.3-.4l-.2-2.2-.3-2.1Zm-30 25.3c1.6-.4 3-.9 4.4-1.4l-.5-4.5-4.1 1.3c-.2 0-.2.2-.2.3l.5 4.3Zm1 10c1.4-.4 2.8-.8 4-1.3l.1-.3c0-.9-.1-2-.3-2.9l-.1-1.4-3.5 1.3c-.8.3-.8.3-.8 1 .4 1.1.4 2.3.6 3.7Zm3.4-11-4 1.3c-.3.2-.3.3-.3.5l.3 2.6.1 1.7 4-1.4c.2 0 .2-.2.2-.3l-.3-3v-1.4Zm3.7-11.6-4 1.3c-.2 0-.2.2-.2.3l.2 2.8.1 1.5a42 42 0 0 1 3.4-1c.8-.4.8-.4.8-1.1 0-1.4-.2-2.6-.3-3.8Zm22.7-8 3-.9c1-.3 1-.3 1-1.2l-.4-3.8h-.1c-1.2.3-2.5.7-3.5 1.2-.2 0-.2.3-.2.4l.2 2.8c-.2.3 0 .9 0 1.5Zm-26.1 19 4-1.4.1-.5-.3-3.7-.1-.4-4 1.4c-.2 0-.3.3-.3.4l.1 1.5c.3.8.5 1.7.5 2.6Zm-3.2 16.7h.1l3.9-1.3c.1 0 .3-.3.3-.5-.2-1.2-.2-2.4-.3-3.8 0-.2 0-.2-.2-.3l-4 1.4-.1.3.3 4.2Zm.4 5 3-1c.4-.2 1-.2 1.2-.5v-1.2c-.2-1-.2-2.1-.3-3.2l-4 1.5c-.2 0-.2.3-.2.3 0 .4 0 .8.2 1.1l.1 3Zm3.2-16.7c.2 0 .2 0 0 0l4-1.4c.2 0 .2-.3.2-.3l-.2-1.8-.1-2.3-4 1.3c-.2 0-.2.4-.2.4l.2 1.6.1 2.5Zm3.7-11.8h.2l3.7-1.2c.3-.2.3-.3.3-.5l-.3-3.6v-.5c-1.4.5-2.7 1-4 1.2-.2 0-.2.4-.2.4 0 .4 0 .9.2 1.3l.1 3Zm4.3-.7-4 1.3-.1.5.3 4 .1.3 4-1.4c.2 0 .2-.2.2-.3l-.5-4.4Zm-7.5 17.5c1.4-.4 2.6-.9 3.8-1.4.3-.1.5-.3.3-.6l-.3-3.6v-.5l-3 1c-.3.2-.8.2-1 .5v1.1l.2 3.5Zm29.5-30.5h.1c1.2-.3 2.3-.8 3.5-1.2.2 0 .2-.3.2-.3l-.2-3-.1-1.6-3.7 1c-.3.2-.3.2-.3.5.2.8.2 1.7.2 2.4a6 6 0 0 1 .3 2.2Zm-40 18.5 3.8-1.4.1-.3c0-1-.2-1.9-.3-2.8l-.2-1.5-4 1.4.5 4.6Zm11.1 22.7-4 1.5-.1.5.1 1.8.2 2.3 4-1.5.1-.5c0-1.4-.1-2.7-.3-4.1Zm-3.2 11h.2c1.2-.5 2.4-1 3.8-1.4l.1-.4-.1-2-.2-2.2-4 1.6-.1.4c0 1 .1 1.9.3 2.8-.2.3-.2.7 0 1.2Zm-3.8-34.7-3.9 1.3-.1.4c.1 1 .1 2.2.3 3.2l.1 1 3.9-1.3.1-.4-.1-1.9-.3-2.3Zm10.7 12.1h-.2l-3.8 1.4-.1.4.1 1.9.2 2.3.4-.2 2.6-1c1.1-.4 1.1-.4 1-1.4.1-1.1 0-2.2-.2-3.4Zm.5 5h-.4l-3.6 1.4c-.3.2-.3.3-.3.5l.1 2 .2 2c1.3-.4 2.6-.8 4-1.4l.1-.5-.1-1.8v-2.2Zm-.7-10.6 4-1.4c.2 0 .2-.3.2-.3l-.2-2.8-.1-1.3-4 1.3c-.2 0-.2.2-.2.3l.3 4.2Zm4.3-1c-.1 0-.1 0 0 0l-4 1.3-.1.4.1 2.3.2 2 4-1.4.1-.3-.1-1.4-.2-2.9Zm-6.9 28.1-4 1.5-.1.4.2 1.8.1 2.3 4-1.6.1-.3-.1-1.6c0-.8 0-1.6-.2-2.5Zm6.8-33.7 3.8-1.4c.2 0 .2-.3.2-.4l-.2-1.9-.1-2.3h-.2l-3.7 1.3-.1.3.1 1.2c0 1 0 2.1.2 3.2Zm-17.4 16.3 3.9-1.4.1-.4-.3-3.8-.1-.3-3.8 1.3c-.2 0-.2.3-.2.5l.5 4.1Zm17-21.4 3.8-1.2c.3-.1.3-.3.3-.4l-.3-3.2c0-.3 0-.6-.2-1-1.4.5-2.6 1-4 1.3l-.1.3.4 4.3Zm-13.7 10.4-3.9 1.4-.1.3.1 1.5.3 2.8 3.9-1.4.1-.5-.1-1.3-.3-2.8Zm11 16.8-3.8 1.4c-.3.1-.5.3-.3.6l.1 1.8.2 2.2c1.2-.5 2.3-1 3.4-1.2.7-.4.7-.4.6-1.1.1-1.2 0-2.3-.2-3.7Zm-6.9 22.6 4-1.5c.2 0 .2-.3.2-.3 0-.5 0-1-.2-1.4l-.3-2.7c-1.4.4-2.8 1-4 1.5l-.1.3.4 4.1Zm35.1-68.2c.2 1.7.3 3.2.3 4.9l3.7-1.3c.2 0 .2-.3.2-.4l-.2-2-.1-2.4-3.9 1.2Zm-28.3 40.1 4-1.3.1-.4-.1-1-.4-3c-1 .2-2 .7-2.9 1-.3.1-.9.1-1 .5-.2.3 0 .7 0 1v.2c.1.7.3 1.8.3 3Zm4.3-1-4 1.3c-.2 0-.2.2-.2.3l.3 4.2h.2l3.8-1.4c.2 0 .2-.2.2-.3-.2-1.2-.3-2.6-.3-4.1Zm-3.7 11.6c-1.4.4-2.6.9-3.9 1.5-.1 0-.3.3-.1.4l.3 3 .2 1.3c1.3-.4 2.6-.9 3.8-1.5l.1-.3-.1-1.7-.3-2.7Zm3.5-17.3 3.7-1.4c.3-.1.3-.3.3-.4-.2-.8-.2-1.7-.2-2.5l-.1-1.6-3.8 1.3c-.2 0-.2.3-.2.3l.2 1.9.1 2.4Zm-17.8 11.5 3.8-1.4c.2 0 .2-.3.2-.3l-.2-1.7c-.1-.8-.1-1.7-.3-2.4h-.1l-3.5 1.2c-.4.1-.4.3-.4.4l.2 1.7c.2.8.3 1.7.3 2.5Zm21-22.3-3.8 1.3c-.2 0-.2.3-.2.3l.3 3 .2 1.2 3.8-1.4c.2 0 .2-.3.2-.3 0-.5 0-1-.2-1.5l-.3-2.6Zm-13.6 50.5 3-1.2c1.1-.5 1.1-.5 1.1-1.7v-.3l-.3-3c-1.4.7-2.6 1.2-4 1.6l-.1.3c0 1.5.1 3 .3 4.3Zm4.1-1c-1.4.4-2.6 1-3.8 1.5-.2 0-.2.3-.2.3 0 .4 0 .9.2 1.2l.3 2.9 3.7-1.5c.3-.2.4-.4.4-.7-.3-1.2-.4-2.4-.6-3.8Zm-10.9-22 3.9-1.4.1-.5-.3-3.6-.1-.5-4 1.4.4 4.5Zm24.4-34-3.8 1.1c-.2 0-.2.2-.2.3 0 .5 0 .8.2 1.3l.3 3 2.9-1c.3-.2 1-.2 1-.5.2-.3 0-.8 0-1 0-1-.2-2-.4-3.3Zm-.3-5-.5.2-2.7.9c-1 .3-1 .3-.8 1.2v.3c.2 1 .2 2.2.3 3.4 1.4-.5 2.6-1 3.9-1.2l.1-.3-.3-4.5Zm-10.1 38.8 4-1.5.1-.3-.1-1.9-.2-2.3-4 1.6-.1.3c0 1.3.1 2.7.3 4Zm.6 10.5-4 1.6-.1.3.3 2.9.1 1.3c1.4-.4 2.6-1 4-1.5.2 0 .2-.1.2-.3l-.5-4.3Zm-.5-4.9-3.8 1.6c-.2 0-.2.3-.2.3l.2 2.7.2 1.4 3.8-1.5c.1 0 .3-.3.1-.5l-.1-2.4-.2-1.6Zm4-6.5-3.2 1.2c-.8.3-.8.3-.8 1.2l.3 3.5h.2l3.8-1.3c.2 0 .2-.3.2-.3 0-.5 0-1-.2-1.4l-.3-3Zm-17.6 6 3.8-1.4c.2 0 .2-.3.2-.5-.2-1-.2-2.1-.3-3.4 0-.3 0-.4-.2-.7l-2.9 1c-.3.2-1 .2-1 .5-.2.3 0 .8 0 1v.2c0 1 .2 2.2.4 3.2Zm17.2-16.6 3-1c1-.3 1-.3 1-1.4l-.3-3.5-4 1.4c-.2 0-.2.1-.2.3l.5 4.2Zm-5.9 43.4h-.1l-3.7 1.5c-.1 0-.3.3-.1.5l.1 2.1.2 1.8 4-1.6.1-.3c0-.5 0-1.1-.2-1.6l-.3-2.4Zm10-44.3-3.8 1.4c-.3.2-.3.3-.3.5.1 1.2.1 2.4.3 3.5v.4l3.8-1.3c.2 0 .2-.2.2-.3 0-.5 0-1.1-.2-1.6.2-.9 0-1.7 0-2.6Zm-6.7 28h-.2c-1.2.4-2.5.9-3.7 1.5l-.1.4.1 1.9.2 2.1h.1l3.9-1.5.1-.5-.1-1.3-.3-2.6Zm-10.6-11.5h-.2l-3.7 1.4-.1.4c0 1 .1 1.7.3 2.6l.1 1.6 3.9-1.4.1-.5-.1-1.2-.3-2.9Zm3.2 28.9 4-1.7.1-.3-.4-4h-.2l-3.8 1.5c-.2 0-.2.2-.2.3l.5 4.2Zm4-6.8 3-1.2c1.1-.4 1.1-.4 1-1.5v-.3l-.3-3-3.1 1.2c-.3.1-.8.1-1 .4-.2.2 0 .6 0 1v.2c.2 1.1.4 2.2.4 3.2Zm13.2-55-3.9 1.3-.1.3a19.1 19.1 0 0 0 .5 4.1l3.8-1.3.1-.3-.4-4.2Zm.4 5-3.8 1.4-.1.3.3 4h.1l3.7-1.1.1-.3-.1-1.6-.2-2.7Zm3.1-16.5-3.8 1.2c-.2 0-.2.3-.2.5l.3 3.3c0 .3 0 .5.2.8 1.4-.5 2.6-1 3.8-1.2.2 0 .2-.2.2-.3l-.5-4.3Zm1 9.5c-.2-1.6-.4-3-.4-4.5-1.4.5-2.6 1-3.8 1.3-.2 0-.2.3-.2.4l.2 2 .1 2.1 4-1.3Zm-10.8 34.8s-.2 0 0 0l-2.6.9c-.5.1-1 .3-1.4.6-.2.3 0 1 0 1.5l.3 3 3-1.2c1.2-.4 1.2-.4 1-1.6l-.3-3.2Zm-3.2 10.8 3.8-1.5c.2 0 .2-.3.2-.3l-.3-4v-.2l-.5.2c-1 .5-2.3 1-3.4 1.2l-.1.5.1 2.1c0 .6 0 1.2.2 2Zm3-16.3c1.1-.5 2.2-.8 3.1-1.1 1-.3 1-.3 1-1.4v-.3l-.4-3-.3.1-3.5 1.4c-.2 0-.2.3-.2.3 0 .5 0 1 .2 1.4l.1 2.6Zm7.4-17.4-.5.1-2.4 1c-1 .2-1 .2-1 1.5v.1l.4 3 3-1c1-.3 1-.3 1-1.4-.4-1-.5-2.1-.5-3.3Zm-3.2 16.3-3.9 1.5-.1.5c0 .9.1 2 .3 2.9 0 .3 0 .7.2 1 1.3-.4 2.5-.9 3.8-1.5l.1-.3-.4-4.1Zm-10.5 33.7 3.9-1.5c.1 0 .3-.3.3-.5l-.2-2-.1-2c-1.4.7-2.6 1.1-4 1.6-.2 0-.2.2-.2.3 0 .5 0 1 .2 1.4l.1 2.7Zm14-45.1-3.8 1.3c-.2 0-.2.3-.2.3l.2 2.8.1 1.4 3.9-1.4.1-.3-.3-4.1Zm-20.5 28-3.9 1.6-.1.3.1 1.2c.2.9.2 2 .3 3 1.4-.4 2.6-1 3.9-1.5l.1-.3-.1-1.7c-.2-.9-.3-1.6-.3-2.6Zm-4.2 1.1 3.8-1.5c.2 0 .2-.3.2-.3 0-.5 0-1-.2-1.4l-.3-2.9-3.8 1.5c-.2 0-.2.2-.2.3l.5 4.3Zm14.9 9.3c1.4-.4 2.6-.9 3.8-1.5.2 0 .2-.3.2-.3l-.2-1.8-.1-2.2-.5.2-2.6 1c-1 .3-1 .3-.8 1.4-.1 1 0 2.1.2 3.2Zm13-54.8-3.8 1.4c-.2 0-.2.3-.2.3l.2 1.8.1 2.3 3.9-1.4.1-.3-.3-4Zm3.5-11.3-3.8 1.2-.1.5.1 2.8c0 .4 0 .7.2 1.3l3.7-1.2.1-.3-.1-1.5v-2.8Zm-17 61.4c1.1-.5 2-.8 3-1 1.2-.5 1.2-.5 1-1.8l-.3-3h-.1c-1.3.4-2.5.9-3.7 1.5-.2 0-.2.3-.2.5l.2 1.6.1 2.2Zm14.3-40.6-.3-4.4-3.9 1.3-.1.5.3 3.7.2.3c1.2-.5 2.4-1 3.8-1.4Zm-13.8 50.8-4 1.7c-.2 0-.2.1-.2.3 0 1 .2 2 .3 2.9l.2 1.2c1.4-.6 2.6-1 3.8-1.7.2 0 .2-.1.2-.3l-.3-4ZM1781 132a31 31 0 0 1-3.5 1c-.2 0-.2.4-.2.4l.2 3.2.1 1.3c1.3-.4 2.5-.7 3.6-1.2l.1-.4c0-1.1-.1-2.2-.3-3.2v-1.1Zm-16 15.9-.5.1-2.7 1c-.9.2-.9.2-.9 1.2l.3 3.5 3-1c1-.3 1-.3 1-1.5l-.3-3.3Zm-31 61.6 3.6-1.5c.3-.2.3-.3.3-.5l-.3-2.7-.1-1.4-3.9 1.5-.1.5.1 1.8c.2.8.3 1.4.3 2.3Zm4-1.2-3.8 1.5-.1.3c0 1 .1 1.9.3 2.6l.1 1.6 3.9-1.6.1-.3-.4-4.1Zm20.2-33-3.9 1.4-.1.5.1 1.8.2 2.1 3.8-1.3c.2 0 .2-.2.2-.3l-.3-4.2Zm-3.6 11.5c-1.3.4-2.6.9-3.8 1.5l-.1.5.3 3.6.1.3 3.7-1.3.1-.3-.1-2.8-.2-1.5Zm-6.3 27a66 66 0 0 1 3.9-1.5l.1-.5-.1-1.4-.3-2.7a66 66 0 0 1-3.9 1.5l-.1.3.4 4.3Zm10.3-33.6-3.8 1.4c-.2 0-.2.3-.2.5l.2 2.7.1 1.4 3.9-1.4.1-.3-.3-4.3Zm-.4-10.4 3.8-1.3.2-.3-.2-1.9-.2-2.3-3.8 1.4-.1.3c0 1.4.1 2.8.3 4.1Zm-3.1 21.9c-1.4.4-2.6.9-3.8 1.5-.2 0-.2.3-.2.5l.2 1.8.1 2.3 3.8-1.6c.2 0 .2-.1.2-.3l-.3-4.2Zm-6.4 27c1.3-.6 2.6-1 3.8-1.7l.1-.5-.1-2-.2-2c-1.3.7-2.6 1.1-3.8 1.6-.2 0-.2.3-.2.3 0 .5 0 1 .2 1.4l.2 2.9Zm9.8-44 .4-.1 2.6-1c1-.2 1-.2 1-1.3v-.3l-.3-3h-.5c-1 .5-2.3.8-3.4 1.3l-.1.5.1 2.2c.2.7.2 1.1.2 1.7Zm3.2-16.2 3-1c1-.3 1-.3.8-1.2-.1-1.1-.1-2.3-.3-3.4h-.1l-3.6 1.2-.1.3.1 1.2c0 1 0 1.9.2 3Zm-23.2 54.8c-.1 0-.1 0 0 0l-3.8 1.4c-.2 0-.2.3-.2.3l.2 2.6.1 1.5c1.3-.4 2.5-1 3.7-1.5.2 0 .2-.3.2-.3l-.2-2c.2-.6 0-1.3 0-2Zm16.9-22.4.5-.1 2.3-1c.4-.1.9-.1 1-.4.2-.3 0-1 0-1.2l-.3-3.1-3.8 1.5c-.2 0-.2.2-.2.3l.5 4Zm6.6-27.5 3.5-1.2c.3-.1.5-.3.3-.6l-.3-3.5v-.5c-1.2.5-2.4 1-3.7 1.3l-.3.3c.3 1.5.5 2.7.5 4.2Zm-6.1 32.4h.1l3.5-1.4c.2 0 .2-.3.2-.4l-.2-3-.1-1-3 1.2c-1 .3-1 .3-1 1.4v.1l.5 3Zm9.3-48.7 3.5-1.2c.3-.2.5-.3.3-.6-.1-1.3-.1-2.5-.3-3.7l-.1-.3c-1.2.5-2.5.8-3.7 1.2l-.3.3.6 4.3Zm-13.3 55.3 3.8-1.6c.2 0 .2-.3.2-.4l-.3-3.7-.2-.3-3.8 1.5c-.2 0-.2.2-.2.3l.5 4.2Zm7-22.8s.2 0 0 0l3.9-1.4.1-.3-.1-1.6-.2-2.5-.4.2-2.7.9c-.9.3-.9.3-.9 1.4.2 1 .2 2 .3 3.3Zm10.3-33.3-.5.2c-.7.3-1.5.4-2.3.8-1 .3-1 .3-1 1.5v.1l.3 3.2c1.2-.4 2.4-.9 3.7-1.2l.1-.4-.1-2c-.2-.8-.2-1.4-.2-2.2Zm-13.3 55-3.9 1.5-.1.5.1 2.6.2 1.3c1.4-.4 2.6-1 3.8-1.5.2 0 .2-.3.2-.3 0-1.4-.2-2.7-.3-4.1Zm-20.4 22.7h.1c1.2-.4 2.3-.9 3.5-1.5.2 0 .2-.3.2-.5l-.3-3.6c0-.2 0-.2-.2-.3l-3.6 1.5c-.2 0-.2.3-.2.5l.5 4Zm27.4-45.3-3.8 1.4c-.2 0-.2.3-.2.4l.2 2.8.1 1.2 3.3-1.2c.7-.3.7-.3.6-1.1v-.5c0-.9 0-2-.2-3Zm3-21.7 3.3-1c.8-.4.8-.4.6-1.1-.1-1.2-.1-2.5-.3-3.7-1.2.5-2.6 1-3.8 1.2-.2 0-.2.2-.2.3l.5 4.3Zm.4 4.9 3.8-1.4c.2 0 .2-.3.2-.4l-.2-2.3-.1-1.7c-1.3.5-2.5 1-3.7 1.2-.2 0-.2.2-.2.3l.2 4.3Zm-10.1 38.8c1-.5 2-.8 2.9-1.1 1-.5 1-.5 1-1.7l-.3-3.2-3.8 1.5-.1.4.1 1.5.2 2.6Zm10.3-33.3c-1.1.3-2 .8-3 1-.9.4-.9.4-.9 1.4l.3 3.4c1-.3 2-.8 3-1 .8-.4.8-.4.8-1.4-.1-1.1-.1-2.3-.3-3.4Zm-.5-4.9-3.7 1.4-.1.4.1 2.8c0 .4 0 .8.2 1.4l3.8-1.4c.2 0 .2-.2.2-.3l-.5-4.3Zm-13.4 49.5 3.9-1.6.1-.3c-.1-1.3-.1-2.7-.3-4h-.1l-3.7 1.6c-.2 0-.2.1-.2.3.2 1.2.3 2.6.3 4Zm7.7-12.4-3.8 1.5c-.2 0-.2.3-.2.5l.2 2 .1 2 3.9-1.6.1-.3c-.1-1.3-.3-2.7-.3-4.1Zm-3.5 11.3-3.8 1.5c-.2 0-.2.3-.2.5l.2 2.3.1 1.7c1.4-.7 2.6-1.1 3.8-1.6.2 0 .2-.3.2-.3 0-.3 0-.7-.2-1l-.1-3.1Zm13-60.3 3.7-1.2c.2 0 .2-.3.2-.5l-.2-2.4-.2-1.5-3.6 1.2c-.2 0-.3.3-.3.4l.1 2.3c.3.5.3 1.1.3 1.7Zm-10.1 38.6h.1l3.6-1.3.3-.5c-.2-1.2-.2-2.6-.3-3.8 0 0 0-.2-.2-.2l-3.7 1.4-.1.5.1 2c.2.7.2 1.3.2 2Zm.5 5 3.8-1.6c.2 0 .2-.3.2-.3l-.2-2-.2-2-3.6 1.4c-.2 0-.2.1-.2.3-.2 1.4 0 2.7.2 4.1Zm9.3-48.5c1.4-.4 2.5-.7 3.7-1.2l.1-.3-.1-2.3-.2-1.8-3.6 1.2c-.2 0-.2.2-.2.3l.3 4.1Zm.8 15.3-3.7 1.4-.1.3.1 1.5.2 2.6 3.6-1.4c.2 0 .2-.1.2-.3 0-1.4-.2-2.7-.3-4.1Zm-3.4 11.3-3.7 1.4-.1.4.3 3 .1 1 3.6-1.4c.3-.1.3-.3.3-.4l-.3-2.8c-.2-.5-.2-.8-.2-1.2Zm3.8-6.4-3.6 1.3c-.2 0-.2.3-.2.5l.2 2.6.1 1.5 3.7-1.3.3-.4c-.3-1.5-.3-2.9-.5-4.2Zm-10 38.4c-1.5.5-2.7 1.1-3.8 1.6l-.1.4.1 2.6.2 1.4 3.8-1.5c.2 0 .2-.2.2-.3l-.5-4.2Zm-3.2 10.7 3.9-1.5.1-.5-.3-3.6-.1-.3c-1.3.4-2.5 1-3.7 1.5-.2 0-.2.3-.2.3 0 1.4.2 2.7.3 4.1Zm6.2-32.2 3.7-1.4.1-.3c-.1-1.3-.1-2.7-.3-4h-.1l-3.7 1.4c-.2 0-.2.2-.2.3l.5 4Zm.5 10.2-3.9 1.6-.1.3c.1 1.3.1 2.7.3 4h.4c1.1-.5 2.2-1 3.3-1.3.3-.1.3-.3.3-.6-.2-1-.2-1.7-.2-2.6l-.1-1.4Zm9.6-43.2-3.7 1.3-.1.4.1 2.5.2 1.5 3-1c.8-.4.8-.4.8-1.1l-.3-3.6Zm-9.2 48-3.7 1.5-.1.5c0 .9.1 2 .3 2.9l.1 1c1.3-.4 2.5-.9 3.7-1.5.2 0 .2-.3.2-.5l-.2-2.7c-.3-.3-.3-.8-.3-1.2Zm6-37.4c1.2-.5 2.4-1 3.7-1.2l.1-.3-.1-2.8c0-.5 0-1-.2-1.4-1.2.5-2.4 1-3.7 1.3l-.1.3.3 4Zm6.7-21.7c-1.3.5-2.6 1-3.8 1.2l.3 4.4c1.2-.4 2.5-.7 3.5-1.2.2 0 .3-.1.3-.3a38 38 0 0 1-.3-4.1Zm-6.3 31.9-3.6 1.4c-.2 0-.2.1-.2.3l.2 2 .1 2.1 3.7-1.4.1-.3-.3-4.1Zm-7 17.1c1-.5 2-.8 3-1 1-.5 1-.5.8-1.4 0-1.1-.1-2.2-.3-3.2l-3.7 1.3-.1.3c.1 1.3.3 2.5.3 4Zm.5 4.7 3.6-1.3c.2 0 .2-.3.2-.5l-.2-2.4-.1-1.6-3.5 1.4c-.3.2-.3.3-.3.6l.1 2.3.2 1.5Zm9.6-43.3h.2l3.3-1c.4-.2.4-.4.4-.5l-.4-3.6v-.6c-1 .3-2 .6-3 1.1-.8.3-.8.3-.8 1l.3 3.6Zm-2.6 26.4-3.7 1.4-.1.4.1 2.8c0 .4 0 .7.2 1.2l3.7-1.4.1-.3-.3-4.1Zm-10.1 33 3.7-1.6.1-.4-.1-2-.2-1.8-.5.1-2.4 1c-1 .4-1 .4-1 1.5l.4 3.2Zm13.5-44.2-3.7 1.4c-.2 0-.2.3-.2.3 0 .5 0 1 .2 1.5l.1 2.5c1.3-.5 2.4-1 3.6-1.2.3-.2.3-.3.3-.5 0-1.4-.2-2.6-.3-4Zm-34.7 62.6 4-1.7c.2 0 .2-.3.2-.3l-.2-2.2-.2-1.4-.4.1-2.5 1.1c-.3.2-.9.2-1 .5-.2.3 0 .7 0 1.2l.1 2.7Zm34.4-72.8c1.2-.4 2.4-.9 3.7-1.2l.1-.3-.1-2.8c0-.4 0-.9-.2-1.3l-3.7 1.2-.1.3v1c0 1.1.1 2 .3 3.1Zm-12.8 59c1.4-.4 2.5-.8 3.7-1.4.2 0 .2-.3.2-.5l-.2-2.7-.1-1.3-3.7 1.6c-.2 0-.2.1-.2.3l.3 4Zm9.3-47.8.4-.2c1-.3 2-.8 3-1 .4-.2.5-.4.4-.7-.2-.9-.2-1.7-.2-2.6l-.1-1.3-3.7 1.3c-.2 0-.2.2-.2.3l.3 4.2Zm3.8-6.4 2.9-1.1c1-.3 1-.3.8-1.2-.2-1.1-.2-2.3-.3-3.6l-3.7 1.3c-.2 0-.2.1-.2.3l.5 4.3Zm-10 38.3 3.7-1.6c.2 0 .2-.3.2-.4l-.2-1.9-.2-2c-1.2.4-2.4.8-3.6 1.4-.2 0-.2.2-.2.3 0 1.6.2 2.8.3 4.2Zm.3 4.8 2.8-1c1.2-.5 1.2-.5 1-1.7l-.3-3-3.6 1.5c-.2 0-.2.1-.2.3.2 1.2.3 2.4.3 4Zm3-16 3.8-1.4.1-.4-.1-2-.2-2c-1 .5-2 .8-2.9 1-1 .4-1 .4-.8 1.3v.3l.2 3.2Zm.5 4.8 3.7-1.4c.2 0 .2-.3.2-.5l-.2-2.4-.1-1.4-3.7 1.4c-.2 0-.2.1-.2.3l.3 4Zm3.1-16c1.2-.4 2.5-.8 3.5-1.3.2 0 .2-.3.2-.3l-.3-4h-.2c-1.2.5-2.3 1-3.5 1.3-.2 0-.2.3-.2.3 0 .4 0 1 .2 1.5l.3 2.6Zm3.9-.8h-.2c-1 .4-2.3.7-3.4 1.2-.1 0-.3.3-.1.4a19 19 0 0 0 .4 4l3.7-1.4s.2-.1.2-.3c-.3-1.3-.5-2.6-.6-4Zm3-16-3.7 1.5-.1.3c.1 1.3.1 2.7.3 4 1-.2 1.8-.5 2.8-1 1-.3 1-.3.9-1.5 0-1 0-2.1-.2-3.2Zm-13 48.8 3.7-1.5.1-.4-.3-4h-.2l-3.5 1.5-.1.4.1 1.8c0 .7 0 1.4.2 2.2Zm10-38.3 3.6-1.4c.2 0 .2-.3.2-.5l-.2-2.3-.1-1.6c-1.3.4-2.3.9-3.5 1.2-.4.1-.4.1-.4.4l.4 4.2Zm-9.7 42.9h.1l3.6-1.4.1-.5-.1-2.7c0-.3 0-.8-.2-1-1.2.4-2.4.8-3.7 1.4l-.1.3.1 1.3.2 2.6Zm3.5-11.2s.2 0 0 0c1.4-.4 2.5-.9 3.7-1.4l.1-.4-.1-1.5-.2-2.5-3.6 1.5c-.2 0-.2.3-.2.5l.2 2.4.1 1.4Zm3-10.4-3.6 1.4c-.2 0-.2.3-.2.5l.3 3 .2 1 3.7-1.6.1-.3-.1-1.2-.3-2.8Zm-24.2 29.5c-1 .5-2 1-3 1.2-.3.2-.8.2-1 .5v1l.4 3 2.7-1.1c.5-.2 1-.3 1.3-.6v-1.3l-.4-2.7Zm21.5-14.4c.2 0 .2 0 0 0l3.7-1.3c.2 0 .2-.2.2-.3l-.4-4h-.1l-3.5 1.4c-.2 0-.2.3-.2.4 0 .5 0 1.1.2 1.6l.1 2.2Zm2.8-20.6 3.5-1.3c.3-.2.3-.3.3-.6-.1-1-.1-1.9-.3-2.8l-.1-1c-1 .2-1.7.6-2.7.9-.4.1-.9.3-1.2.6v1.2c.3 1 .3 2.1.5 3Zm.3 5 3.5-1.4c.2 0 .2-.4.2-.4 0-.4 0-.9-.2-1.5l-.1-2.6-3.7 1.4c-.2 0-.2.2-.2.3.3 1.4.5 2.6.5 4.1Zm-2.6 20.4 3.7-1.5.1-.5-.1-1.7-.2-2.1h-.1l-3.6 1.4-.1.3.1 1.2c0 1 0 2 .2 2.9Zm5.7-36.5h.1l2.3-1c.5 0 1 0 1.2-.4.2-.3 0-.9 0-1.3l-.1-3-3.7 1.4-.1.3.1 1.3.2 2.7Zm3.8-1-2.6 1c-.3.2-1 .2-1 .5-.2.3 0 .7 0 1.2 0 1 0 2 .2 3l3.5-1.3c.2 0 .2-.2.2-.3l-.3-4Zm-27 45.3-3.8 1.6c-.2 0-.2.3-.2.3l.2 1.9.1 1.8c1.4-.6 2.6-1 3.9-1.7l.1-.3-.3-3.6Zm25.5-69.6 3.5-1.3.1-.4-.1-2.6-.2-1.5-3.5 1.2-.1.3c.1 1.4.3 2.7.3 4.3Zm-.3-5 3.5-1.1.1-.3-.1-2.8c0-.5 0-1-.2-1.4l-2.9 1c-.8.3-.8.3-.8 1v.3l.4 3.4Zm-4.3 55.6 3.6-1.5c.2 0 .2-.1.2-.3l-.3-4-3.7 1.4c-.2 0-.2.3-.2.3l.2 2.2c.2.7.2 1.3.2 2Zm-.4-4.7h.2l3.4-1.4.1-.3-.1-1.7-.2-2-3.5 1.3c-.2 0-.2.1-.2.3l.3 3.8Zm3.4-11 3.7-1.4c.2 0 .2-.1.2-.3-.2-1.3-.2-2.6-.3-4l-3.6 1.4-.1.3.1 4Zm2-30.2 3.4-1.2c.3-.2.3-.3.3-.5l-.2-2.4-.1-1.6-2.5 1c-.4.1-.9.1-1 .4-.2.3 0 .8 0 1.2v.3l.1 2.8Zm-42.8 76 3-1.2c1-.5 1-.5.9-1.5l-.3-3c-1.1.5-2 1-3.1 1.3-1 .3-1 .3-.8 1.4v.3l.3 2.7Zm41.3-41 3.7-1.4.1-.3-.3-4.2-3.5 1.4c-.2 0-.2.2-.2.3 0 .5 0 1 .2 1.4-.2 1-.2 1.8 0 2.7Zm.3 9.9c-1.2.4-2.5.9-3.5 1.5-.2 0-.2.3-.2.5l.3 3.3v.5c1.2-.5 2.5-1 3.5-1.6.2 0 .2-.1.2-.3l-.3-4Zm1.5-40 3.5-1.2c.2 0 .2-.3.2-.3l-.2-2.6-.1-1.6-3.5 1.3c-.2 0-.2.3-.2.3 0 .3 0 .7.2 1l.1 3Zm-1 44.7-3.7 1.5c-.2 0-.2.3-.2.3l.2 2.2.1 1.6 2.6-1c.3-.2.8-.2 1.1-.5.2-.3 0-.7 0-1v-.2l-.1-2.9Zm-.5-10 3.5-1.3c.2 0 .2-.3.2-.5l-.2-2.7-.1-1-3.6 1.3-.1.5.3 3.8Zm-24 29 3.9-1.6.1-.3-.3-3.7h-.1c-1.2.5-2.5 1-3.5 1.6-.2 0-.2.3-.2.4-.2 1.2 0 2.3.2 3.7Zm27.8-30c-.9.3-1.8.8-2.7 1-1.1.5-1.1.5-1 1.6v.3l.2 3 3.7-1.6.1-.3c-.1-1.4-.3-2.6-.3-4Zm-1.5-24.3c1.2-.4 2.3-.7 3.4-1.2.1 0 .3-.1.3-.3l-.3-4.1-2.6 1c-1.1.4-1.1.4-1.1 1.4.1 1.1.1 2.2.3 3.2Zm1.8 28.9c-1.2.4-2.4.9-3.5 1.5l-.1.5.1 2 .2 1.8 3.5-1.5.1-.5-.1-2.3-.2-1.5Zm-2.1-33.6 3.4-1.2.1-.3c-.1-1.4-.1-2.8-.3-4.1l-2.6.9c-.3.1-1 .1-1 .4-.2.3 0 .8 0 1.1 0 1 .2 2.1.4 3.2Zm-1 44c1.3-.5 2.5-1 3.6-1.6l.2-.4c0-1-.2-2.3-.4-3.4v-.4c-1.2.4-2.3.9-3.5 1.5l-.1.3c.1 1.4.1 2.7.3 4Zm-20.6 13.2c1.2-.6 2.6-1 3.8-1.5l.1-.3-.3-3.6h-.1c-1.2.4-2.3.9-3.5 1.5-.2 0-.2.3-.2.4 0 1.1 0 2.2.2 3.5Zm25.6-53.2c-1.3.4-2.3.9-3.6 1.2l-.1.5.1 1.8.2 2.1 3.5-1.3c.2 0 .2-.2.2-.4-.2-1.3-.2-2.6-.3-4Zm-3 10.4 3.6-1.4.1-.5c0-1-.1-2.3-.3-3.3v-.5c-1.2.5-2.3 1-3.3 1.2-.2 0-.2.3-.2.3-.2 1.4 0 2.8.2 4.2Zm-14.8 35.4-3.7 1.5c-.2 0-.2.1-.2.3l.4 3.7.4-.2c1-.3 1.7-.8 2.6-1 .8-.4.8-.4.8-1.3l-.3-3Zm18.5-36.4-2.4 1c-1 .4-1 .4-1 1.6V181.2l3.6-1.4.1-.3-.1-2.3c-.2-.6-.2-1-.2-1.7Zm.3 4.6c-1 .5-2.1 1-3.2 1.2-.3.2-.3.3-.3.7l.3 3.5v.3l3.4-1.4.1-.3-.1-2.1-.2-1.9Zm-18 35.6 3.6-1.5c.2 0 .2-.3.2-.3l-.2-1.9-.1-1.7-2.8 1.3c-1 .4-1 .4-1 1.5 0 .8 0 1.7.3 2.6Zm15.1-25.2c1.1-.5 2.2-1 3.3-1.2.3-.2.4-.3.3-.6-.2-.8-.2-1.7-.2-2.5 0-.4 0-.7-.2-1.2a78 78 0 0 0-3.3 1.4c-.2 0-.2.1-.2.3l.3 3.8Zm.3 4.7 3.4-1.3c.2 0 .2-.3.2-.5l-.2-2.1-.1-1.7c-1.3.4-2.3.9-3.4 1.4-.2 0-.3.1-.2.3.2 1.2.2 2.4.3 4Zm-7.8 13.3-3.7 1.5-.1.3.1 2.3.2 1.4 3.5-1.5c.2 0 .2-.2.2-.3 0-1.2 0-2.5-.2-3.7Zm11.5-14.3-3.3 1.3c-.2 0-.2.3-.2.3l.2 2.2.1 1.8a73 73 0 0 0 3.4-1.4l.1-.3c-.1-1.2-.3-2.6-.3-4Zm-2.9 10.2c1-.5 1.8-.8 2.8-1 .7-.4.7-.4.7-1.3v-.5l-.1-2.9c-1 .3-1.9.8-2.6 1.1-1 .3-1 .3-1 1.4-.1 1 0 2.1.2 3.2Zm-8 7.8 3.6-1.6.1-.3-.1-2.2-.2-1.3-3.5 1.6c-.2 0-.2.1-.2.3.2 1 .3 2.3.3 3.5Zm4.2-1.7 3.5-1.5.1-.5-.1-2-.2-1.5-3.5 1.5-.1.3c.1 1.1.3 2.3.3 3.7Zm4.1-1.8 3.4-1.4.1-.3-.1-1.7-.2-1.8-3.2 1.3-.1.4c-.2 1 0 2.2.1 3.5Z"/><defs><linearGradient id="b" x1="1497.5" x2="890.4" y1="399.3" y2="749.8" gradientUnits="userSpaceOnUse"><stop stop-color="#fff" stop-opacity=".1"/><stop offset="1" stop-color="#fff" stop-opacity="0"/></linearGradient><clipPath id="a"><path fill="#fff" d="M688 399h910v702H688z"/></clipPath></defs></svg>