<svg width="1920" height="1070" viewBox="0 0 1920 1070" fill="none" xmlns="http://www.w3.org/2000/svg">
<path d="M-24.7399 501.86L81.0246 519.345C185.211 536.568 396.74 571.537 617.655 539.917C838.571 508.296 1072.03 410.607 1294.51 369.511C1515.89 328.62 1729.52 344.275 1835.82 352.065L1837.41 352.181L1944.74 360.19" stroke="#1A2D42" stroke-width="2" stroke-linecap="round" stroke-linejoin="round" stroke-dasharray="9 9"/>
<g clip-path="url(#clip0_7012_164358)">
<path d="M1297.5 368.26L487.916 368.019L892.916 1069.5L1297.5 368.26Z" fill="url(#paint0_linear_7012_164358)"/>
</g>
<circle cx="46.4558" cy="46.4558" r="46.4558" transform="matrix(0.736451 -0.676491 -0.676491 -0.736451 1294.12 433.542)" fill="#1B60B1"/>
<circle cx="89.8146" cy="89.8146" r="89.8146" transform="matrix(0.736451 -0.676491 -0.676491 -0.736451 1291.52 494.806)" fill="#1B60B1" fill-opacity="0.2"/>
<circle cx="68.3664" cy="68.3664" r="68.3664" transform="matrix(0.736451 -0.676491 -0.676491 -0.736451 1292.8 464.503)" fill="#1B60B1" fill-opacity="0.4"/>
<defs>
<linearGradient id="paint0_linear_7012_164358" x1="1297.5" y1="368.26" x2="690.416" y2="718.76" gradientUnits="userSpaceOnUse">
<stop stop-color="#1F4571"/>
<stop offset="1" stop-color="#143862" stop-opacity="0"/>
</linearGradient>
<clipPath id="clip0_7012_164358">
<rect width="910" height="702" fill="white" transform="translate(488 368)"/>
</clipPath>
</defs>
</svg>
